<?xml version="1.0" encoding="utf-8" standalone="no"?>
<!DOCTYPE svg PUBLIC "-//W3C//DTD SVG 1.1//EN"
  "http://www.w3.org/Graphics/SVG/1.1/DTD/svg11.dtd">
<!-- Created with matplotlib (https://matplotlib.org/) -->
<svg height="344.16pt" version="1.1" viewBox="0 0 460.8 344.16" width="460.8pt" xmlns="http://www.w3.org/2000/svg" xmlns:xlink="http://www.w3.org/1999/xlink">
 <defs>
  <style type="text/css">
*{stroke-linecap:butt;stroke-linejoin:round;}
  </style>
 </defs>
 <g id="figure_1">
  <g id="patch_1">
   <path d="M 0 344.16 
L 460.8 344.16 
L 460.8 0 
L 0 0 
z
" style="fill:#ffffff;"/>
  </g>
  <g id="axes_1">
   <g id="patch_2">
    <path d="M 57.6 306.3024 
L 414.72 306.3024 
L 414.72 41.2992 
L 57.6 41.2992 
z
" style="fill:#ffffff;"/>
   </g>
   <g id="matplotlib.axis_1">
    <g id="xtick_1">
     <g id="line2d_1">
      <defs>
       <path d="M 0 0 
L 0 3.5 
" id="m81e37865bd" style="stroke:#000000;stroke-width:0.8;"/>
      </defs>
      <g>
       <use style="stroke:#000000;stroke-width:0.8;" x="73.832727" xlink:href="#m81e37865bd" y="306.3024"/>
      </g>
     </g>
     <g id="text_1">
      <!-- 0 -->
      <defs>
       <path d="M 31.78125 66.40625 
Q 24.171875 66.40625 20.328125 58.90625 
Q 16.5 51.421875 16.5 36.375 
Q 16.5 21.390625 20.328125 13.890625 
Q 24.171875 6.390625 31.78125 6.390625 
Q 39.453125 6.390625 43.28125 13.890625 
Q 47.125 21.390625 47.125 36.375 
Q 47.125 51.421875 43.28125 58.90625 
Q 39.453125 66.40625 31.78125 66.40625 
z
M 31.78125 74.21875 
Q 44.046875 74.21875 50.515625 64.515625 
Q 56.984375 54.828125 56.984375 36.375 
Q 56.984375 17.96875 50.515625 8.265625 
Q 44.046875 -1.421875 31.78125 -1.421875 
Q 19.53125 -1.421875 13.0625 8.265625 
Q 6.59375 17.96875 6.59375 36.375 
Q 6.59375 54.828125 13.0625 64.515625 
Q 19.53125 74.21875 31.78125 74.21875 
z
" id="DejaVuSans-48"/>
      </defs>
      <g transform="translate(70.651477 320.900838)scale(0.1 -0.1)">
       <use xlink:href="#DejaVuSans-48"/>
      </g>
     </g>
    </g>
    <g id="xtick_2">
     <g id="line2d_2">
      <g>
       <use style="stroke:#000000;stroke-width:0.8;" x="119.539407" xlink:href="#m81e37865bd" y="306.3024"/>
      </g>
     </g>
     <g id="text_2">
      <!-- 1000 -->
      <defs>
       <path d="M 12.40625 8.296875 
L 28.515625 8.296875 
L 28.515625 63.921875 
L 10.984375 60.40625 
L 10.984375 69.390625 
L 28.421875 72.90625 
L 38.28125 72.90625 
L 38.28125 8.296875 
L 54.390625 8.296875 
L 54.390625 0 
L 12.40625 0 
z
" id="DejaVuSans-49"/>
      </defs>
      <g transform="translate(106.814407 320.900838)scale(0.1 -0.1)">
       <use xlink:href="#DejaVuSans-49"/>
       <use x="63.623047" xlink:href="#DejaVuSans-48"/>
       <use x="127.246094" xlink:href="#DejaVuSans-48"/>
       <use x="190.869141" xlink:href="#DejaVuSans-48"/>
      </g>
     </g>
    </g>
    <g id="xtick_3">
     <g id="line2d_3">
      <g>
       <use style="stroke:#000000;stroke-width:0.8;" x="165.246087" xlink:href="#m81e37865bd" y="306.3024"/>
      </g>
     </g>
     <g id="text_3">
      <!-- 2000 -->
      <defs>
       <path d="M 19.1875 8.296875 
L 53.609375 8.296875 
L 53.609375 0 
L 7.328125 0 
L 7.328125 8.296875 
Q 12.9375 14.109375 22.625 23.890625 
Q 32.328125 33.6875 34.8125 36.53125 
Q 39.546875 41.84375 41.421875 45.53125 
Q 43.3125 49.21875 43.3125 52.78125 
Q 43.3125 58.59375 39.234375 62.25 
Q 35.15625 65.921875 28.609375 65.921875 
Q 23.96875 65.921875 18.8125 64.3125 
Q 13.671875 62.703125 7.8125 59.421875 
L 7.8125 69.390625 
Q 13.765625 71.78125 18.9375 73 
Q 24.125 74.21875 28.421875 74.21875 
Q 39.75 74.21875 46.484375 68.546875 
Q 53.21875 62.890625 53.21875 53.421875 
Q 53.21875 48.921875 51.53125 44.890625 
Q 49.859375 40.875 45.40625 35.40625 
Q 44.1875 33.984375 37.640625 27.21875 
Q 31.109375 20.453125 19.1875 8.296875 
z
" id="DejaVuSans-50"/>
      </defs>
      <g transform="translate(152.521087 320.900838)scale(0.1 -0.1)">
       <use xlink:href="#DejaVuSans-50"/>
       <use x="63.623047" xlink:href="#DejaVuSans-48"/>
       <use x="127.246094" xlink:href="#DejaVuSans-48"/>
       <use x="190.869141" xlink:href="#DejaVuSans-48"/>
      </g>
     </g>
    </g>
    <g id="xtick_4">
     <g id="line2d_4">
      <g>
       <use style="stroke:#000000;stroke-width:0.8;" x="210.952766" xlink:href="#m81e37865bd" y="306.3024"/>
      </g>
     </g>
     <g id="text_4">
      <!-- 3000 -->
      <defs>
       <path d="M 40.578125 39.3125 
Q 47.65625 37.796875 51.625 33 
Q 55.609375 28.21875 55.609375 21.1875 
Q 55.609375 10.40625 48.1875 4.484375 
Q 40.765625 -1.421875 27.09375 -1.421875 
Q 22.515625 -1.421875 17.65625 -0.515625 
Q 12.796875 0.390625 7.625 2.203125 
L 7.625 11.71875 
Q 11.71875 9.328125 16.59375 8.109375 
Q 21.484375 6.890625 26.8125 6.890625 
Q 36.078125 6.890625 40.9375 10.546875 
Q 45.796875 14.203125 45.796875 21.1875 
Q 45.796875 27.640625 41.28125 31.265625 
Q 36.765625 34.90625 28.71875 34.90625 
L 20.21875 34.90625 
L 20.21875 43.015625 
L 29.109375 43.015625 
Q 36.375 43.015625 40.234375 45.921875 
Q 44.09375 48.828125 44.09375 54.296875 
Q 44.09375 59.90625 40.109375 62.90625 
Q 36.140625 65.921875 28.71875 65.921875 
Q 24.65625 65.921875 20.015625 65.03125 
Q 15.375 64.15625 9.8125 62.3125 
L 9.8125 71.09375 
Q 15.4375 72.65625 20.34375 73.4375 
Q 25.25 74.21875 29.59375 74.21875 
Q 40.828125 74.21875 47.359375 69.109375 
Q 53.90625 64.015625 53.90625 55.328125 
Q 53.90625 49.265625 50.4375 45.09375 
Q 46.96875 40.921875 40.578125 39.3125 
z
" id="DejaVuSans-51"/>
      </defs>
      <g transform="translate(198.227766 320.900838)scale(0.1 -0.1)">
       <use xlink:href="#DejaVuSans-51"/>
       <use x="63.623047" xlink:href="#DejaVuSans-48"/>
       <use x="127.246094" xlink:href="#DejaVuSans-48"/>
       <use x="190.869141" xlink:href="#DejaVuSans-48"/>
      </g>
     </g>
    </g>
    <g id="xtick_5">
     <g id="line2d_5">
      <g>
       <use style="stroke:#000000;stroke-width:0.8;" x="256.659446" xlink:href="#m81e37865bd" y="306.3024"/>
      </g>
     </g>
     <g id="text_5">
      <!-- 4000 -->
      <defs>
       <path d="M 37.796875 64.3125 
L 12.890625 25.390625 
L 37.796875 25.390625 
z
M 35.203125 72.90625 
L 47.609375 72.90625 
L 47.609375 25.390625 
L 58.015625 25.390625 
L 58.015625 17.1875 
L 47.609375 17.1875 
L 47.609375 0 
L 37.796875 0 
L 37.796875 17.1875 
L 4.890625 17.1875 
L 4.890625 26.703125 
z
" id="DejaVuSans-52"/>
      </defs>
      <g transform="translate(243.934446 320.900838)scale(0.1 -0.1)">
       <use xlink:href="#DejaVuSans-52"/>
       <use x="63.623047" xlink:href="#DejaVuSans-48"/>
       <use x="127.246094" xlink:href="#DejaVuSans-48"/>
       <use x="190.869141" xlink:href="#DejaVuSans-48"/>
      </g>
     </g>
    </g>
    <g id="xtick_6">
     <g id="line2d_6">
      <g>
       <use style="stroke:#000000;stroke-width:0.8;" x="302.366125" xlink:href="#m81e37865bd" y="306.3024"/>
      </g>
     </g>
     <g id="text_6">
      <!-- 5000 -->
      <defs>
       <path d="M 10.796875 72.90625 
L 49.515625 72.90625 
L 49.515625 64.59375 
L 19.828125 64.59375 
L 19.828125 46.734375 
Q 21.96875 47.46875 24.109375 47.828125 
Q 26.265625 48.1875 28.421875 48.1875 
Q 40.625 48.1875 47.75 41.5 
Q 54.890625 34.8125 54.890625 23.390625 
Q 54.890625 11.625 47.5625 5.09375 
Q 40.234375 -1.421875 26.90625 -1.421875 
Q 22.3125 -1.421875 17.546875 -0.640625 
Q 12.796875 0.140625 7.71875 1.703125 
L 7.71875 11.625 
Q 12.109375 9.234375 16.796875 8.0625 
Q 21.484375 6.890625 26.703125 6.890625 
Q 35.15625 6.890625 40.078125 11.328125 
Q 45.015625 15.765625 45.015625 23.390625 
Q 45.015625 31 40.078125 35.4375 
Q 35.15625 39.890625 26.703125 39.890625 
Q 22.75 39.890625 18.8125 39.015625 
Q 14.890625 38.140625 10.796875 36.28125 
z
" id="DejaVuSans-53"/>
      </defs>
      <g transform="translate(289.641125 320.900838)scale(0.1 -0.1)">
       <use xlink:href="#DejaVuSans-53"/>
       <use x="63.623047" xlink:href="#DejaVuSans-48"/>
       <use x="127.246094" xlink:href="#DejaVuSans-48"/>
       <use x="190.869141" xlink:href="#DejaVuSans-48"/>
      </g>
     </g>
    </g>
    <g id="xtick_7">
     <g id="line2d_7">
      <g>
       <use style="stroke:#000000;stroke-width:0.8;" x="348.072805" xlink:href="#m81e37865bd" y="306.3024"/>
      </g>
     </g>
     <g id="text_7">
      <!-- 6000 -->
      <defs>
       <path d="M 33.015625 40.375 
Q 26.375 40.375 22.484375 35.828125 
Q 18.609375 31.296875 18.609375 23.390625 
Q 18.609375 15.53125 22.484375 10.953125 
Q 26.375 6.390625 33.015625 6.390625 
Q 39.65625 6.390625 43.53125 10.953125 
Q 47.40625 15.53125 47.40625 23.390625 
Q 47.40625 31.296875 43.53125 35.828125 
Q 39.65625 40.375 33.015625 40.375 
z
M 52.59375 71.296875 
L 52.59375 62.3125 
Q 48.875 64.0625 45.09375 64.984375 
Q 41.3125 65.921875 37.59375 65.921875 
Q 27.828125 65.921875 22.671875 59.328125 
Q 17.53125 52.734375 16.796875 39.40625 
Q 19.671875 43.65625 24.015625 45.921875 
Q 28.375 48.1875 33.59375 48.1875 
Q 44.578125 48.1875 50.953125 41.515625 
Q 57.328125 34.859375 57.328125 23.390625 
Q 57.328125 12.15625 50.6875 5.359375 
Q 44.046875 -1.421875 33.015625 -1.421875 
Q 20.359375 -1.421875 13.671875 8.265625 
Q 6.984375 17.96875 6.984375 36.375 
Q 6.984375 53.65625 15.1875 63.9375 
Q 23.390625 74.21875 37.203125 74.21875 
Q 40.921875 74.21875 44.703125 73.484375 
Q 48.484375 72.75 52.59375 71.296875 
z
" id="DejaVuSans-54"/>
      </defs>
      <g transform="translate(335.347805 320.900838)scale(0.1 -0.1)">
       <use xlink:href="#DejaVuSans-54"/>
       <use x="63.623047" xlink:href="#DejaVuSans-48"/>
       <use x="127.246094" xlink:href="#DejaVuSans-48"/>
       <use x="190.869141" xlink:href="#DejaVuSans-48"/>
      </g>
     </g>
    </g>
    <g id="xtick_8">
     <g id="line2d_8">
      <g>
       <use style="stroke:#000000;stroke-width:0.8;" x="393.779485" xlink:href="#m81e37865bd" y="306.3024"/>
      </g>
     </g>
     <g id="text_8">
      <!-- 7000 -->
      <defs>
       <path d="M 8.203125 72.90625 
L 55.078125 72.90625 
L 55.078125 68.703125 
L 28.609375 0 
L 18.3125 0 
L 43.21875 64.59375 
L 8.203125 64.59375 
z
" id="DejaVuSans-55"/>
      </defs>
      <g transform="translate(381.054485 320.900838)scale(0.1 -0.1)">
       <use xlink:href="#DejaVuSans-55"/>
       <use x="63.623047" xlink:href="#DejaVuSans-48"/>
       <use x="127.246094" xlink:href="#DejaVuSans-48"/>
       <use x="190.869141" xlink:href="#DejaVuSans-48"/>
      </g>
     </g>
    </g>
    <g id="text_9">
     <!-- Muestras -->
     <defs>
      <path d="M 9.8125 72.90625 
L 24.515625 72.90625 
L 43.109375 23.296875 
L 61.8125 72.90625 
L 76.515625 72.90625 
L 76.515625 0 
L 66.890625 0 
L 66.890625 64.015625 
L 48.09375 14.015625 
L 38.1875 14.015625 
L 19.390625 64.015625 
L 19.390625 0 
L 9.8125 0 
z
" id="DejaVuSans-77"/>
      <path d="M 8.5 21.578125 
L 8.5 54.6875 
L 17.484375 54.6875 
L 17.484375 21.921875 
Q 17.484375 14.15625 20.5 10.265625 
Q 23.53125 6.390625 29.59375 6.390625 
Q 36.859375 6.390625 41.078125 11.03125 
Q 45.3125 15.671875 45.3125 23.6875 
L 45.3125 54.6875 
L 54.296875 54.6875 
L 54.296875 0 
L 45.3125 0 
L 45.3125 8.40625 
Q 42.046875 3.421875 37.71875 1 
Q 33.40625 -1.421875 27.6875 -1.421875 
Q 18.265625 -1.421875 13.375 4.4375 
Q 8.5 10.296875 8.5 21.578125 
z
M 31.109375 56 
z
" id="DejaVuSans-117"/>
      <path d="M 56.203125 29.59375 
L 56.203125 25.203125 
L 14.890625 25.203125 
Q 15.484375 15.921875 20.484375 11.0625 
Q 25.484375 6.203125 34.421875 6.203125 
Q 39.59375 6.203125 44.453125 7.46875 
Q 49.3125 8.734375 54.109375 11.28125 
L 54.109375 2.78125 
Q 49.265625 0.734375 44.1875 -0.34375 
Q 39.109375 -1.421875 33.890625 -1.421875 
Q 20.796875 -1.421875 13.15625 6.1875 
Q 5.515625 13.8125 5.515625 26.8125 
Q 5.515625 40.234375 12.765625 48.109375 
Q 20.015625 56 32.328125 56 
Q 43.359375 56 49.78125 48.890625 
Q 56.203125 41.796875 56.203125 29.59375 
z
M 47.21875 32.234375 
Q 47.125 39.59375 43.09375 43.984375 
Q 39.0625 48.390625 32.421875 48.390625 
Q 24.90625 48.390625 20.390625 44.140625 
Q 15.875 39.890625 15.1875 32.171875 
z
" id="DejaVuSans-101"/>
      <path d="M 44.28125 53.078125 
L 44.28125 44.578125 
Q 40.484375 46.53125 36.375 47.5 
Q 32.28125 48.484375 27.875 48.484375 
Q 21.1875 48.484375 17.84375 46.4375 
Q 14.5 44.390625 14.5 40.28125 
Q 14.5 37.15625 16.890625 35.375 
Q 19.28125 33.59375 26.515625 31.984375 
L 29.59375 31.296875 
Q 39.15625 29.25 43.1875 25.515625 
Q 47.21875 21.78125 47.21875 15.09375 
Q 47.21875 7.46875 41.1875 3.015625 
Q 35.15625 -1.421875 24.609375 -1.421875 
Q 20.21875 -1.421875 15.453125 -0.5625 
Q 10.6875 0.296875 5.421875 2 
L 5.421875 11.28125 
Q 10.40625 8.6875 15.234375 7.390625 
Q 20.0625 6.109375 24.8125 6.109375 
Q 31.15625 6.109375 34.5625 8.28125 
Q 37.984375 10.453125 37.984375 14.40625 
Q 37.984375 18.0625 35.515625 20.015625 
Q 33.0625 21.96875 24.703125 23.78125 
L 21.578125 24.515625 
Q 13.234375 26.265625 9.515625 29.90625 
Q 5.8125 33.546875 5.8125 39.890625 
Q 5.8125 47.609375 11.28125 51.796875 
Q 16.75 56 26.8125 56 
Q 31.78125 56 36.171875 55.265625 
Q 40.578125 54.546875 44.28125 53.078125 
z
" id="DejaVuSans-115"/>
      <path d="M 18.3125 70.21875 
L 18.3125 54.6875 
L 36.8125 54.6875 
L 36.8125 47.703125 
L 18.3125 47.703125 
L 18.3125 18.015625 
Q 18.3125 11.328125 20.140625 9.421875 
Q 21.96875 7.515625 27.59375 7.515625 
L 36.8125 7.515625 
L 36.8125 0 
L 27.59375 0 
Q 17.1875 0 13.234375 3.875 
Q 9.28125 7.765625 9.28125 18.015625 
L 9.28125 47.703125 
L 2.6875 47.703125 
L 2.6875 54.6875 
L 9.28125 54.6875 
L 9.28125 70.21875 
z
" id="DejaVuSans-116"/>
      <path d="M 41.109375 46.296875 
Q 39.59375 47.171875 37.8125 47.578125 
Q 36.03125 48 33.890625 48 
Q 26.265625 48 22.1875 43.046875 
Q 18.109375 38.09375 18.109375 28.8125 
L 18.109375 0 
L 9.078125 0 
L 9.078125 54.6875 
L 18.109375 54.6875 
L 18.109375 46.1875 
Q 20.953125 51.171875 25.484375 53.578125 
Q 30.03125 56 36.53125 56 
Q 37.453125 56 38.578125 55.875 
Q 39.703125 55.765625 41.0625 55.515625 
z
" id="DejaVuSans-114"/>
      <path d="M 34.28125 27.484375 
Q 23.390625 27.484375 19.1875 25 
Q 14.984375 22.515625 14.984375 16.5 
Q 14.984375 11.71875 18.140625 8.90625 
Q 21.296875 6.109375 26.703125 6.109375 
Q 34.1875 6.109375 38.703125 11.40625 
Q 43.21875 16.703125 43.21875 25.484375 
L 43.21875 27.484375 
z
M 52.203125 31.203125 
L 52.203125 0 
L 43.21875 0 
L 43.21875 8.296875 
Q 40.140625 3.328125 35.546875 0.953125 
Q 30.953125 -1.421875 24.3125 -1.421875 
Q 15.921875 -1.421875 10.953125 3.296875 
Q 6 8.015625 6 15.921875 
Q 6 25.140625 12.171875 29.828125 
Q 18.359375 34.515625 30.609375 34.515625 
L 43.21875 34.515625 
L 43.21875 35.40625 
Q 43.21875 41.609375 39.140625 45 
Q 35.0625 48.390625 27.6875 48.390625 
Q 23 48.390625 18.546875 47.265625 
Q 14.109375 46.140625 10.015625 43.890625 
L 10.015625 52.203125 
Q 14.9375 54.109375 19.578125 55.046875 
Q 24.21875 56 28.609375 56 
Q 40.484375 56 46.34375 49.84375 
Q 52.203125 43.703125 52.203125 31.203125 
z
" id="DejaVuSans-97"/>
     </defs>
     <g transform="translate(213.311562 334.578963)scale(0.1 -0.1)">
      <use xlink:href="#DejaVuSans-77"/>
      <use x="86.279297" xlink:href="#DejaVuSans-117"/>
      <use x="149.658203" xlink:href="#DejaVuSans-101"/>
      <use x="211.181641" xlink:href="#DejaVuSans-115"/>
      <use x="263.28125" xlink:href="#DejaVuSans-116"/>
      <use x="302.490234" xlink:href="#DejaVuSans-114"/>
      <use x="343.603516" xlink:href="#DejaVuSans-97"/>
      <use x="404.882812" xlink:href="#DejaVuSans-115"/>
     </g>
    </g>
   </g>
   <g id="matplotlib.axis_2">
    <g id="ytick_1">
     <g id="line2d_9">
      <defs>
       <path d="M 0 0 
L -3.5 0 
" id="mc005aca9ba" style="stroke:#000000;stroke-width:0.8;"/>
      </defs>
      <g>
       <use style="stroke:#000000;stroke-width:0.8;" x="57.6" xlink:href="#mc005aca9ba" y="275.715383"/>
      </g>
     </g>
     <g id="text_10">
      <!-- 70 -->
      <g transform="translate(37.875 279.514602)scale(0.1 -0.1)">
       <use xlink:href="#DejaVuSans-55"/>
       <use x="63.623047" xlink:href="#DejaVuSans-48"/>
      </g>
     </g>
    </g>
    <g id="ytick_2">
     <g id="line2d_10">
      <g>
       <use style="stroke:#000000;stroke-width:0.8;" x="57.6" xlink:href="#mc005aca9ba" y="233.575799"/>
      </g>
     </g>
     <g id="text_11">
      <!-- 80 -->
      <defs>
       <path d="M 31.78125 34.625 
Q 24.75 34.625 20.71875 30.859375 
Q 16.703125 27.09375 16.703125 20.515625 
Q 16.703125 13.921875 20.71875 10.15625 
Q 24.75 6.390625 31.78125 6.390625 
Q 38.8125 6.390625 42.859375 10.171875 
Q 46.921875 13.96875 46.921875 20.515625 
Q 46.921875 27.09375 42.890625 30.859375 
Q 38.875 34.625 31.78125 34.625 
z
M 21.921875 38.8125 
Q 15.578125 40.375 12.03125 44.71875 
Q 8.5 49.078125 8.5 55.328125 
Q 8.5 64.0625 14.71875 69.140625 
Q 20.953125 74.21875 31.78125 74.21875 
Q 42.671875 74.21875 48.875 69.140625 
Q 55.078125 64.0625 55.078125 55.328125 
Q 55.078125 49.078125 51.53125 44.71875 
Q 48 40.375 41.703125 38.8125 
Q 48.828125 37.15625 52.796875 32.3125 
Q 56.78125 27.484375 56.78125 20.515625 
Q 56.78125 9.90625 50.3125 4.234375 
Q 43.84375 -1.421875 31.78125 -1.421875 
Q 19.734375 -1.421875 13.25 4.234375 
Q 6.78125 9.90625 6.78125 20.515625 
Q 6.78125 27.484375 10.78125 32.3125 
Q 14.796875 37.15625 21.921875 38.8125 
z
M 18.3125 54.390625 
Q 18.3125 48.734375 21.84375 45.5625 
Q 25.390625 42.390625 31.78125 42.390625 
Q 38.140625 42.390625 41.71875 45.5625 
Q 45.3125 48.734375 45.3125 54.390625 
Q 45.3125 60.0625 41.71875 63.234375 
Q 38.140625 66.40625 31.78125 66.40625 
Q 25.390625 66.40625 21.84375 63.234375 
Q 18.3125 60.0625 18.3125 54.390625 
z
" id="DejaVuSans-56"/>
      </defs>
      <g transform="translate(37.875 237.375018)scale(0.1 -0.1)">
       <use xlink:href="#DejaVuSans-56"/>
       <use x="63.623047" xlink:href="#DejaVuSans-48"/>
      </g>
     </g>
    </g>
    <g id="ytick_3">
     <g id="line2d_11">
      <g>
       <use style="stroke:#000000;stroke-width:0.8;" x="57.6" xlink:href="#mc005aca9ba" y="191.436216"/>
      </g>
     </g>
     <g id="text_12">
      <!-- 90 -->
      <defs>
       <path d="M 10.984375 1.515625 
L 10.984375 10.5 
Q 14.703125 8.734375 18.5 7.8125 
Q 22.3125 6.890625 25.984375 6.890625 
Q 35.75 6.890625 40.890625 13.453125 
Q 46.046875 20.015625 46.78125 33.40625 
Q 43.953125 29.203125 39.59375 26.953125 
Q 35.25 24.703125 29.984375 24.703125 
Q 19.046875 24.703125 12.671875 31.3125 
Q 6.296875 37.9375 6.296875 49.421875 
Q 6.296875 60.640625 12.9375 67.421875 
Q 19.578125 74.21875 30.609375 74.21875 
Q 43.265625 74.21875 49.921875 64.515625 
Q 56.59375 54.828125 56.59375 36.375 
Q 56.59375 19.140625 48.40625 8.859375 
Q 40.234375 -1.421875 26.421875 -1.421875 
Q 22.703125 -1.421875 18.890625 -0.6875 
Q 15.09375 0.046875 10.984375 1.515625 
z
M 30.609375 32.421875 
Q 37.25 32.421875 41.125 36.953125 
Q 45.015625 41.5 45.015625 49.421875 
Q 45.015625 57.28125 41.125 61.84375 
Q 37.25 66.40625 30.609375 66.40625 
Q 23.96875 66.40625 20.09375 61.84375 
Q 16.21875 57.28125 16.21875 49.421875 
Q 16.21875 41.5 20.09375 36.953125 
Q 23.96875 32.421875 30.609375 32.421875 
z
" id="DejaVuSans-57"/>
      </defs>
      <g transform="translate(37.875 195.235435)scale(0.1 -0.1)">
       <use xlink:href="#DejaVuSans-57"/>
       <use x="63.623047" xlink:href="#DejaVuSans-48"/>
      </g>
     </g>
    </g>
    <g id="ytick_4">
     <g id="line2d_12">
      <g>
       <use style="stroke:#000000;stroke-width:0.8;" x="57.6" xlink:href="#mc005aca9ba" y="149.296632"/>
      </g>
     </g>
     <g id="text_13">
      <!-- 100 -->
      <g transform="translate(31.5125 153.095851)scale(0.1 -0.1)">
       <use xlink:href="#DejaVuSans-49"/>
       <use x="63.623047" xlink:href="#DejaVuSans-48"/>
       <use x="127.246094" xlink:href="#DejaVuSans-48"/>
      </g>
     </g>
    </g>
    <g id="ytick_5">
     <g id="line2d_13">
      <g>
       <use style="stroke:#000000;stroke-width:0.8;" x="57.6" xlink:href="#mc005aca9ba" y="107.157048"/>
      </g>
     </g>
     <g id="text_14">
      <!-- 110 -->
      <g transform="translate(31.5125 110.956267)scale(0.1 -0.1)">
       <use xlink:href="#DejaVuSans-49"/>
       <use x="63.623047" xlink:href="#DejaVuSans-49"/>
       <use x="127.246094" xlink:href="#DejaVuSans-48"/>
      </g>
     </g>
    </g>
    <g id="ytick_6">
     <g id="line2d_14">
      <g>
       <use style="stroke:#000000;stroke-width:0.8;" x="57.6" xlink:href="#mc005aca9ba" y="65.017465"/>
      </g>
     </g>
     <g id="text_15">
      <!-- 120 -->
      <g transform="translate(31.5125 68.816683)scale(0.1 -0.1)">
       <use xlink:href="#DejaVuSans-49"/>
       <use x="63.623047" xlink:href="#DejaVuSans-50"/>
       <use x="127.246094" xlink:href="#DejaVuSans-48"/>
      </g>
     </g>
    </g>
    <g id="text_16">
     <!-- Valor de Ritmo Cardíaco -->
     <defs>
      <path d="M 28.609375 0 
L 0.78125 72.90625 
L 11.078125 72.90625 
L 34.1875 11.53125 
L 57.328125 72.90625 
L 67.578125 72.90625 
L 39.796875 0 
z
" id="DejaVuSans-86"/>
      <path d="M 9.421875 75.984375 
L 18.40625 75.984375 
L 18.40625 0 
L 9.421875 0 
z
" id="DejaVuSans-108"/>
      <path d="M 30.609375 48.390625 
Q 23.390625 48.390625 19.1875 42.75 
Q 14.984375 37.109375 14.984375 27.296875 
Q 14.984375 17.484375 19.15625 11.84375 
Q 23.34375 6.203125 30.609375 6.203125 
Q 37.796875 6.203125 41.984375 11.859375 
Q 46.1875 17.53125 46.1875 27.296875 
Q 46.1875 37.015625 41.984375 42.703125 
Q 37.796875 48.390625 30.609375 48.390625 
z
M 30.609375 56 
Q 42.328125 56 49.015625 48.375 
Q 55.71875 40.765625 55.71875 27.296875 
Q 55.71875 13.875 49.015625 6.21875 
Q 42.328125 -1.421875 30.609375 -1.421875 
Q 18.84375 -1.421875 12.171875 6.21875 
Q 5.515625 13.875 5.515625 27.296875 
Q 5.515625 40.765625 12.171875 48.375 
Q 18.84375 56 30.609375 56 
z
" id="DejaVuSans-111"/>
      <path id="DejaVuSans-32"/>
      <path d="M 45.40625 46.390625 
L 45.40625 75.984375 
L 54.390625 75.984375 
L 54.390625 0 
L 45.40625 0 
L 45.40625 8.203125 
Q 42.578125 3.328125 38.25 0.953125 
Q 33.9375 -1.421875 27.875 -1.421875 
Q 17.96875 -1.421875 11.734375 6.484375 
Q 5.515625 14.40625 5.515625 27.296875 
Q 5.515625 40.1875 11.734375 48.09375 
Q 17.96875 56 27.875 56 
Q 33.9375 56 38.25 53.625 
Q 42.578125 51.265625 45.40625 46.390625 
z
M 14.796875 27.296875 
Q 14.796875 17.390625 18.875 11.75 
Q 22.953125 6.109375 30.078125 6.109375 
Q 37.203125 6.109375 41.296875 11.75 
Q 45.40625 17.390625 45.40625 27.296875 
Q 45.40625 37.203125 41.296875 42.84375 
Q 37.203125 48.484375 30.078125 48.484375 
Q 22.953125 48.484375 18.875 42.84375 
Q 14.796875 37.203125 14.796875 27.296875 
z
" id="DejaVuSans-100"/>
      <path d="M 44.390625 34.1875 
Q 47.5625 33.109375 50.5625 29.59375 
Q 53.5625 26.078125 56.59375 19.921875 
L 66.609375 0 
L 56 0 
L 46.6875 18.703125 
Q 43.0625 26.03125 39.671875 28.421875 
Q 36.28125 30.8125 30.421875 30.8125 
L 19.671875 30.8125 
L 19.671875 0 
L 9.8125 0 
L 9.8125 72.90625 
L 32.078125 72.90625 
Q 44.578125 72.90625 50.734375 67.671875 
Q 56.890625 62.453125 56.890625 51.90625 
Q 56.890625 45.015625 53.6875 40.46875 
Q 50.484375 35.9375 44.390625 34.1875 
z
M 19.671875 64.796875 
L 19.671875 38.921875 
L 32.078125 38.921875 
Q 39.203125 38.921875 42.84375 42.21875 
Q 46.484375 45.515625 46.484375 51.90625 
Q 46.484375 58.296875 42.84375 61.546875 
Q 39.203125 64.796875 32.078125 64.796875 
z
" id="DejaVuSans-82"/>
      <path d="M 9.421875 54.6875 
L 18.40625 54.6875 
L 18.40625 0 
L 9.421875 0 
z
M 9.421875 75.984375 
L 18.40625 75.984375 
L 18.40625 64.59375 
L 9.421875 64.59375 
z
" id="DejaVuSans-105"/>
      <path d="M 52 44.1875 
Q 55.375 50.25 60.0625 53.125 
Q 64.75 56 71.09375 56 
Q 79.640625 56 84.28125 50.015625 
Q 88.921875 44.046875 88.921875 33.015625 
L 88.921875 0 
L 79.890625 0 
L 79.890625 32.71875 
Q 79.890625 40.578125 77.09375 44.375 
Q 74.3125 48.1875 68.609375 48.1875 
Q 61.625 48.1875 57.5625 43.546875 
Q 53.515625 38.921875 53.515625 30.90625 
L 53.515625 0 
L 44.484375 0 
L 44.484375 32.71875 
Q 44.484375 40.625 41.703125 44.40625 
Q 38.921875 48.1875 33.109375 48.1875 
Q 26.21875 48.1875 22.15625 43.53125 
Q 18.109375 38.875 18.109375 30.90625 
L 18.109375 0 
L 9.078125 0 
L 9.078125 54.6875 
L 18.109375 54.6875 
L 18.109375 46.1875 
Q 21.1875 51.21875 25.484375 53.609375 
Q 29.78125 56 35.6875 56 
Q 41.65625 56 45.828125 52.96875 
Q 50 49.953125 52 44.1875 
z
" id="DejaVuSans-109"/>
      <path d="M 64.40625 67.28125 
L 64.40625 56.890625 
Q 59.421875 61.53125 53.78125 63.8125 
Q 48.140625 66.109375 41.796875 66.109375 
Q 29.296875 66.109375 22.65625 58.46875 
Q 16.015625 50.828125 16.015625 36.375 
Q 16.015625 21.96875 22.65625 14.328125 
Q 29.296875 6.6875 41.796875 6.6875 
Q 48.140625 6.6875 53.78125 8.984375 
Q 59.421875 11.28125 64.40625 15.921875 
L 64.40625 5.609375 
Q 59.234375 2.09375 53.4375 0.328125 
Q 47.65625 -1.421875 41.21875 -1.421875 
Q 24.65625 -1.421875 15.125 8.703125 
Q 5.609375 18.84375 5.609375 36.375 
Q 5.609375 53.953125 15.125 64.078125 
Q 24.65625 74.21875 41.21875 74.21875 
Q 47.75 74.21875 53.53125 72.484375 
Q 59.328125 70.75 64.40625 67.28125 
z
" id="DejaVuSans-67"/>
      <path d="M 20.703125 79.984375 
L 30.421875 79.984375 
L 14.5 61.625 
L 7.03125 61.625 
z
M 9.421875 54.6875 
L 18.40625 54.6875 
L 18.40625 0 
L 9.421875 0 
z
M 13.921875 56 
z
" id="DejaVuSans-237"/>
      <path d="M 48.78125 52.59375 
L 48.78125 44.1875 
Q 44.96875 46.296875 41.140625 47.34375 
Q 37.3125 48.390625 33.40625 48.390625 
Q 24.65625 48.390625 19.8125 42.84375 
Q 14.984375 37.3125 14.984375 27.296875 
Q 14.984375 17.28125 19.8125 11.734375 
Q 24.65625 6.203125 33.40625 6.203125 
Q 37.3125 6.203125 41.140625 7.25 
Q 44.96875 8.296875 48.78125 10.40625 
L 48.78125 2.09375 
Q 45.015625 0.34375 40.984375 -0.53125 
Q 36.96875 -1.421875 32.421875 -1.421875 
Q 20.0625 -1.421875 12.78125 6.34375 
Q 5.515625 14.109375 5.515625 27.296875 
Q 5.515625 40.671875 12.859375 48.328125 
Q 20.21875 56 33.015625 56 
Q 37.15625 56 41.109375 55.140625 
Q 45.0625 54.296875 48.78125 52.59375 
z
" id="DejaVuSans-99"/>
     </defs>
     <g transform="translate(25.432812 234.6008)rotate(-90)scale(0.1 -0.1)">
      <use xlink:href="#DejaVuSans-86"/>
      <use x="68.298828" xlink:href="#DejaVuSans-97"/>
      <use x="129.578125" xlink:href="#DejaVuSans-108"/>
      <use x="157.361328" xlink:href="#DejaVuSans-111"/>
      <use x="218.542969" xlink:href="#DejaVuSans-114"/>
      <use x="259.65625" xlink:href="#DejaVuSans-32"/>
      <use x="291.443359" xlink:href="#DejaVuSans-100"/>
      <use x="354.919922" xlink:href="#DejaVuSans-101"/>
      <use x="416.443359" xlink:href="#DejaVuSans-32"/>
      <use x="448.230469" xlink:href="#DejaVuSans-82"/>
      <use x="517.712891" xlink:href="#DejaVuSans-105"/>
      <use x="545.496094" xlink:href="#DejaVuSans-116"/>
      <use x="584.705078" xlink:href="#DejaVuSans-109"/>
      <use x="682.117188" xlink:href="#DejaVuSans-111"/>
      <use x="743.298828" xlink:href="#DejaVuSans-32"/>
      <use x="775.085938" xlink:href="#DejaVuSans-67"/>
      <use x="844.910156" xlink:href="#DejaVuSans-97"/>
      <use x="906.189453" xlink:href="#DejaVuSans-114"/>
      <use x="947.287109" xlink:href="#DejaVuSans-100"/>
      <use x="1010.763672" xlink:href="#DejaVuSans-237"/>
      <use x="1038.546875" xlink:href="#DejaVuSans-97"/>
      <use x="1099.826172" xlink:href="#DejaVuSans-99"/>
      <use x="1154.806641" xlink:href="#DejaVuSans-111"/>
     </g>
    </g>
   </g>
   <g id="line2d_15">
    <path clip-path="url(#p2fc74f746a)" d="M 73.832727 282.752694 
L 73.924141 294.2568 
L 74.106967 90.76475 
L 74.381207 138.045363 
L 74.792568 165.815349 
L 75.386754 193.163939 
L 75.706701 200.917622 
L 76.300888 206.016512 
L 76.438008 205.342278 
L 76.666541 197.251478 
L 76.849368 221.987414 
L 76.940781 221.692437 
L 77.169315 221.060343 
L 77.260728 221.144622 
L 77.352142 221.439599 
L 77.397848 221.35532 
L 77.717795 219.37476 
L 78.220569 216.003593 
L 78.311982 214.907964 
L 78.357689 215.160801 
L 78.449102 216.29857 
L 78.494809 215.961453 
L 79.728889 172.979078 
L 80.003129 165.393953 
L 80.094542 164.045486 
L 80.185956 164.171905 
L 80.505902 165.014697 
L 80.597316 164.972557 
L 80.825849 163.497672 
L 81.191503 160.042226 
L 81.237209 160.252924 
L 82.288463 195.01808 
L 82.699823 211.536797 
L 82.836943 212.379589 
L 82.88265 212.000333 
L 83.385423 209.21912 
L 83.659663 207.322839 
L 83.70537 207.322839 
L 83.888197 208.081351 
L 84.436677 210.946843 
L 84.619504 212.084612 
L 84.756624 211.747495 
L 85.122277 209.640516 
L 85.167984 209.682656 
L 85.305104 210.609726 
L 85.853584 215.961453 
L 86.036411 217.562758 
L 86.310651 219.754016 
L 86.447771 219.880435 
L 86.493478 219.796156 
L 86.722011 219.459039 
L 86.950544 219.164062 
L 87.133371 219.33262 
L 87.407611 218.616247 
L 87.499024 218.489829 
L 87.544731 218.531968 
L 87.864678 219.459039 
L 88.001798 219.037643 
L 88.321745 217.984154 
L 88.687398 217.478479 
L 88.961638 218.110572 
L 89.601532 220.596808 
L 89.692945 220.807506 
L 90.012892 221.987414 
L 90.561372 225.358581 
L 90.789905 225.779976 
L 90.881319 225.695697 
L 91.018439 226.117093 
L 91.246972 227.044164 
L 91.338386 227.381281 
L 91.566919 228.013374 
L 91.658332 228.181933 
L 91.749746 227.591979 
L 92.389639 222.198112 
L 92.481053 222.198112 
L 92.800999 223.37802 
L 93.120946 224.38937 
L 93.303773 224.642208 
L 93.76084 225.990674 
L 93.89796 225.864256 
L 93.989373 226.074954 
L 94.263613 226.538489 
L 94.30932 226.41207 
L 94.355026 226.538489 
L 94.492146 227.46556 
L 95.086333 233.702218 
L 95.13204 233.660079 
L 95.68052 231.553099 
L 95.81764 231.173843 
L 96.000467 230.626029 
L 96.09188 230.710308 
L 96.411827 228.814027 
L 97.097427 222.282391 
L 97.188841 222.198112 
L 97.554494 222.956624 
L 97.600201 222.830206 
L 97.691614 222.619508 
L 97.737321 222.703787 
L 97.874441 223.251601 
L 98.194388 225.021464 
L 98.285801 225.232162 
L 98.514334 226.074954 
L 98.742868 226.959885 
L 98.834281 226.917745 
L 99.108521 228.603329 
L 99.657001 234.755708 
L 99.794121 235.050685 
L 99.976948 233.870777 
L 100.342601 231.342402 
L 100.525428 231.258122 
L 100.708255 230.710308 
L 101.119615 227.46556 
L 101.256735 227.886956 
L 101.348148 228.224072 
L 101.942335 232.311612 
L 102.033749 232.227333 
L 102.262282 232.648729 
L 102.307989 232.606589 
L 102.582229 231.763797 
L 102.627935 231.805937 
L 102.902176 232.52231 
L 102.993589 232.438031 
L 103.085002 232.227333 
L 103.313536 231.679518 
L 103.404949 231.974495 
L 103.542069 232.943706 
L 103.862016 236.314872 
L 103.953429 236.019895 
L 104.364789 233.238683 
L 104.684736 231.258122 
L 104.821856 230.921006 
L 105.096096 229.48826 
L 105.278923 228.814027 
L 105.964523 223.335881 
L 106.193056 222.198112 
L 106.375883 220.175412 
L 107.10719 208.587026 
L 107.38143 205.257999 
L 107.79279 204.288789 
L 108.61551 210.946843 
L 108.844044 210.736145 
L 109.118284 213.770195 
L 109.301111 215.32936 
L 109.392524 215.245081 
L 109.438231 215.582197 
L 109.529644 215.540058 
L 109.621057 215.961453 
L 110.123831 218.911224 
L 110.306658 220.175412 
L 110.489484 221.060343 
L 110.535191 221.018204 
L 111.037964 215.750756 
L 111.357911 213.770195 
L 111.540738 211.873914 
L 111.769271 207.322839 
L 112.089218 201.971112 
L 112.180631 201.254739 
L 112.272045 201.465437 
L 112.363458 201.633995 
L 112.409165 201.549716 
L 112.500578 201.254739 
L 112.774818 199.527016 
L 113.003352 196.492966 
L 113.277592 194.175289 
L 113.597539 193.543195 
L 113.917485 190.930541 
L 114.146019 189.244957 
L 114.283139 189.202818 
L 114.374552 189.329237 
L 114.511672 189.877051 
L 114.557379 189.834912 
L 114.694499 189.03426 
L 115.105859 185.241697 
L 115.471512 179.721412 
L 116.659886 158.356643 
L 116.705593 158.693759 
L 116.934126 159.915807 
L 117.254073 161.095716 
L 117.482606 162.444182 
L 117.71114 164.551161 
L 117.756846 164.466882 
L 117.98538 165.098976 
L 118.1225 165.393953 
L 118.168207 165.309674 
L 118.305327 165.646791 
L 119.08234 177.319455 
L 119.310874 179.552853 
L 119.35658 179.510714 
L 119.447994 178.583643 
L 119.90506 167.079536 
L 120.636367 146.978955 
L 120.727781 146.47328 
L 120.819194 146.220442 
L 120.864901 146.262582 
L 120.956314 146.43114 
L 121.047727 146.051884 
L 122.007568 127.594746 
L 122.281808 124.855674 
L 122.647461 122.032321 
L 122.830288 122.453717 
L 123.058821 123.507207 
L 123.104528 123.465067 
L 125.298449 71.5491 
L 125.846929 61.856996 
L 125.938342 62.699788 
L 126.121169 63.036904 
L 126.349702 62.48909 
L 126.532529 62.699788 
L 126.623942 62.40481 
L 126.761062 61.224902 
L 127.400956 53.3448 
L 127.492369 53.639777 
L 127.903729 58.275131 
L 128.086556 59.45504 
L 128.177969 59.244342 
L 128.269383 58.907225 
L 128.543623 56.294571 
L 128.589329 56.715967 
L 129.41205 69.147144 
L 129.914823 87.056467 
L 131.286024 151.319332 
L 131.971624 168.470143 
L 132.428691 174.369684 
L 132.611517 175.001778 
L 132.702931 175.001778 
L 132.931464 174.074707 
L 133.159997 171.124936 
L 134.074131 155.111895 
L 134.119838 155.111895 
L 134.256958 155.828268 
L 134.531198 159.283713 
L 135.216798 170.78782 
L 136.770825 206.901443 
L 136.999359 208.839864 
L 137.182185 209.134841 
L 137.456425 209.766935 
L 137.684959 210.399028 
L 137.822079 210.483308 
L 137.959199 209.471958 
L 138.736212 199.948412 
L 138.827626 199.990551 
L 138.919039 199.442737 
L 139.193279 194.512405 
L 139.970293 179.131457 
L 140.518773 166.447443 
L 140.884426 159.915807 
L 140.97584 160.126505 
L 141.021546 160.042226 
L 141.295786 158.862318 
L 141.341493 158.862318 
L 141.66144 160.800738 
L 142.301333 174.243266 
L 142.666987 187.348676 
L 143.352587 213.643776 
L 144.221014 241.877297 
L 144.860907 256.036198 
L 145.135148 257.932479 
L 145.272268 257.384664 
L 145.729334 254.645591 
L 145.866454 254.72987 
L 145.957868 254.940568 
L 146.506348 256.246896 
L 146.597761 256.204756 
L 146.643468 256.036198 
L 146.734881 256.120477 
L 146.826295 256.036198 
L 146.917708 255.909779 
L 147.009121 256.120477 
L 147.054828 256.415454 
L 147.100535 256.036198 
L 147.329068 255.151266 
L 147.420481 255.8255 
L 147.740428 258.564573 
L 147.786135 258.648852 
L 148.014668 257.384664 
L 148.243202 256.878989 
L 148.334615 256.963268 
L 148.380322 256.963268 
L 148.426028 257.089687 
L 148.471735 257.047548 
L 148.563148 256.83685 
L 149.020215 253.254985 
L 149.751522 245.501302 
L 150.025762 242.930787 
L 150.162882 240.739529 
L 150.437122 236.862687 
L 150.528536 236.399152 
L 151.122723 241.498041 
L 151.762616 249.799539 
L 152.53963 257.890339 
L 152.81387 260.671552 
L 153.36235 265.601883 
L 153.545177 266.233977 
L 153.728003 265.517604 
L 154.093657 263.579183 
L 154.139363 263.621323 
L 154.413603 264.843371 
L 154.45931 264.632673 
L 154.505017 264.632673 
L 154.687844 265.096208 
L 154.779257 265.180487 
L 154.87067 264.88551 
L 154.962084 264.548393 
L 155.00779 264.674812 
L 155.14491 265.812581 
L 155.190617 265.475464 
L 155.693391 260.460854 
L 155.830511 257.511083 
L 157.338831 214.823685 
L 158.207258 195.144499 
L 158.572911 189.96133 
L 158.984271 200.496226 
L 159.075685 201.465437 
L 159.487045 209.640516 
L 159.989818 219.880435 
L 160.172645 221.860995 
L 160.218352 221.860995 
L 160.264058 221.987414 
L 160.309765 221.860995 
L 160.584005 220.807506 
L 160.629712 220.638947 
L 160.675419 220.723226 
L 160.903952 222.914485 
L 161.315312 230.204633 
L 161.361019 229.361841 
L 161.818086 222.830206 
L 162.366566 220.638947 
L 162.686512 221.987414 
L 162.777926 221.860995 
L 163.052166 223.37802 
L 163.280699 225.484999 
L 163.692059 229.867516 
L 163.737766 229.783237 
L 164.012006 228.43477 
L 164.149126 228.097654 
L 164.194833 228.181933 
L 164.331953 228.645468 
L 165.108967 237.705479 
L 165.20038 237.789758 
L 165.428913 236.946966 
L 165.47462 237.073385 
L 165.657447 238.084735 
L 166.0231 243.183625 
L 166.16022 243.562881 
L 166.343047 243.267904 
L 166.43446 243.60502 
L 166.754407 245.374883 
L 166.937234 245.922697 
L 167.028647 245.712 
L 167.165767 244.237114 
L 168.308434 214.27587 
L 168.674088 212.168891 
L 168.948328 211.115401 
L 169.176861 210.399028 
L 169.451101 211.368239 
L 169.908168 214.528708 
L 170.410941 225.232162 
L 171.142248 235.682779 
L 171.233662 236.188454 
L 171.279368 236.019895 
L 171.370782 235.977756 
L 171.553608 236.230593 
L 171.919262 235.893477 
L 172.330622 234.418591 
L 172.467742 234.334312 
L 172.787689 233.702218 
L 172.970515 233.49152 
L 173.016222 233.575799 
L 173.107635 233.997195 
L 173.564702 237.452641 
L 173.747529 237.789758 
L 173.838942 237.452641 
L 173.976062 237.57906 
L 174.067476 238.295433 
L 174.113182 238.211154 
L 174.204596 238.126875 
L 174.341716 238.54827 
L 174.615956 239.264643 
L 174.753076 239.180364 
L 174.981609 238.295433 
L 175.255849 237.494781 
L 175.438676 237.789758 
L 175.484383 237.705479 
L 175.758623 236.946966 
L 175.80433 237.031245 
L 175.987156 237.284083 
L 176.21569 238.126875 
L 176.261396 238.084735 
L 176.718463 236.019895 
L 176.809876 235.55636 
L 176.90129 235.598499 
L 176.946997 235.598499 
L 177.084117 234.924266 
L 177.358357 234.207893 
L 177.495477 234.629289 
L 177.678303 235.598499 
L 177.72401 235.55636 
L 179.689397 222.282391 
L 180.055051 217.225641 
L 180.557824 208.081351 
L 180.694944 206.943583 
L 181.471958 194.301707 
L 181.654785 192.826822 
L 181.700491 192.911101 
L 181.746198 192.99538 
L 182.020438 194.723103 
L 182.066145 195.01808 
L 182.111851 194.891662 
L 182.294678 193.964591 
L 182.340385 193.964591 
L 182.568918 197.04078 
L 182.980278 208.502747 
L 184.397185 251.148006 
L 184.762839 254.940568 
L 184.854252 255.909779 
L 185.219906 261.092948 
L 185.951212 263.368485 
L 186.042626 263.579183 
L 186.316866 264.042718 
L 186.453986 264.126998 
L 186.545399 264.211277 
L 187.185293 263.199927 
L 187.276706 263.284206 
L 187.50524 264.000579 
L 187.596653 263.9163 
L 187.77948 263.621323 
L 187.825186 263.705602 
L 187.9166 263.832021 
L 187.962306 263.789881 
L 188.282253 262.989229 
L 188.6022 262.020018 
L 188.87644 261.514343 
L 188.967853 261.387925 
L 189.01356 261.472204 
L 189.104973 261.682902 
L 189.607747 262.778531 
L 189.9734 262.441414 
L 190.24764 261.177227 
L 190.476174 261.514343 
L 190.52188 261.514343 
L 190.704707 261.261506 
L 190.933241 261.177227 
L 191.116067 261.050808 
L 191.390307 260.966529 
L 191.710254 259.786621 
L 192.075907 258.016758 
L 192.350148 256.963268 
L 192.670094 255.994058 
L 192.852921 256.036198 
L 192.944334 256.120477 
L 193.355695 255.151266 
L 193.675641 253.71852 
L 193.767055 253.507823 
L 193.949881 252.74931 
L 194.224121 250.558052 
L 194.452655 245.796279 
L 195.001135 234.755708 
L 195.275375 233.154404 
L 196.829402 226.117093 
L 196.875109 226.285651 
L 197.012229 227.549839 
L 197.606416 235.598499 
L 197.834949 237.157664 
L 198.154896 238.126875 
L 198.520549 238.969666 
L 198.749083 239.475341 
L 198.886203 239.053945 
L 199.251856 237.705479 
L 199.388976 238.126875 
L 199.571803 238.716829 
L 199.800336 238.084735 
L 199.983163 237.452641 
L 200.074576 238.000456 
L 200.57735 242.340833 
L 200.760177 242.63581 
L 200.897297 242.551531 
L 201.12583 242.63581 
L 201.445777 243.394322 
L 201.67431 244.869208 
L 201.94855 246.344093 
L 202.08567 246.428373 
L 202.22279 246.344093 
L 202.268497 246.344093 
L 202.542737 247.776839 
L 202.862684 249.71526 
L 202.954097 249.504562 
L 203.365457 246.765489 
L 203.593991 245.66986 
L 203.868231 244.953487 
L 204.645244 241.793018 
L 204.736658 241.708739 
L 204.965191 240.823808 
L 205.193725 239.348922 
L 205.513671 235.809197 
L 205.879325 230.120354 
L 206.473512 216.635687 
L 207.067698 200.15911 
L 207.204818 199.316318 
L 207.387645 196.830082 
L 207.661885 193.880312 
L 207.890419 191.520495 
L 209.078792 176.350245 
L 209.261619 175.84457 
L 209.398739 176.687361 
L 209.444446 176.603082 
L 209.490152 176.560943 
L 209.581566 175.970989 
L 209.627272 176.476664 
L 209.672979 176.181686 
L 210.038633 170.872099 
L 210.130046 170.492843 
L 210.175753 170.661401 
L 210.267166 170.661401 
L 211.135593 167.332374 
L 211.227006 167.500932 
L 211.272713 167.416653 
L 211.31842 167.500932 
L 211.501246 168.807259 
L 211.775486 173.400474 
L 212.506793 188.191468 
L 212.598207 188.486445 
L 212.643913 188.402166 
L 212.82674 186.92728 
L 213.10098 183.218997 
L 213.64946 176.350245 
L 213.9237 172.81052 
L 214.289354 165.183255 
L 214.883541 153.637009 
L 215.112074 151.614309 
L 215.157781 152.035705 
L 215.294901 153.51059 
L 215.751968 162.781299 
L 216.300448 177.530153 
L 217.625941 219.669737 
L 217.854475 221.018204 
L 218.083008 219.880435 
L 218.265835 219.543318 
L 218.494368 219.754016 
L 218.540075 219.669737 
L 218.768608 218.826945 
L 219.271382 214.907964 
L 219.774155 211.157541 
L 219.911275 210.946843 
L 220.048395 210.399028 
L 220.322636 209.21912 
L 220.414049 209.26126 
L 220.642582 210.188331 
L 220.688289 210.104051 
L 220.779702 209.682656 
L 220.916822 207.575676 
L 221.373889 195.650174 
L 221.785249 186.084489 
L 222.150903 183.092578 
L 222.242316 183.303276 
L 222.516556 185.030999 
L 222.699383 185.536674 
L 222.927916 186.379466 
L 223.01933 186.295187 
L 223.110743 186.084489 
L 223.29357 185.030999 
L 223.56781 182.92402 
L 223.659223 183.556114 
L 224.66477 206.100791 
L 224.93901 208.502747 
L 224.984717 208.587026 
L 225.121837 208.376328 
L 225.21325 208.418468 
L 225.441784 208.924143 
L 225.48749 208.839864 
L 225.716024 210.104051 
L 226.127384 213.138101 
L 226.538744 219.37476 
L 226.584451 219.459039 
L 227.178637 224.305091 
L 227.224344 225.063604 
L 227.315757 224.810766 
L 227.635704 224.094393 
L 228.047064 221.650297 
L 228.184184 221.228901 
L 228.732665 215.245081 
L 229.418265 204.499487 
L 229.966745 194.09101 
L 230.012452 194.175289 
L 230.332398 194.807382 
L 230.423812 194.807382 
L 230.606638 194.09101 
L 231.017999 190.256307 
L 231.246532 188.275747 
L 231.566479 189.624214 
L 231.703599 189.877051 
L 231.886425 189.539935 
L 232.023545 189.96133 
L 232.252079 192.152589 
L 232.480612 193.543195 
L 232.617732 193.669614 
L 232.663439 193.627474 
L 232.754852 192.99538 
L 233.211919 187.98077 
L 233.714693 189.118539 
L 233.897519 189.666353 
L 234.080346 189.202818 
L 234.126053 189.244957 
L 234.217466 189.539935 
L 234.446 191.141239 
L 234.491706 191.225518 
L 234.537413 191.099099 
L 234.72024 189.750632 
L 234.948773 187.432955 
L 235.177306 185.536674 
L 235.26872 185.831651 
L 235.771493 189.413516 
L 235.8172 189.202818 
L 236.000027 188.697143 
L 236.137147 188.781422 
L 236.182853 188.697143 
L 236.22856 188.781422 
L 236.411387 189.03426 
L 236.731333 190.467005 
L 236.77704 190.382726 
L 236.91416 188.823562 
L 237.234107 185.241697 
L 237.32552 185.241697 
L 237.416934 186.168768 
L 237.874 191.099099 
L 237.965414 191.141239 
L 238.056827 190.719843 
L 238.331067 189.03426 
L 238.422481 189.329237 
L 238.605307 191.141239 
L 238.833841 192.573985 
L 239.062374 192.911101 
L 239.290908 193.248218 
L 239.428028 193.543195 
L 239.565148 194.891662 
L 239.930801 198.937062 
L 240.113628 199.990551 
L 240.570695 197.420037 
L 240.753521 196.492966 
L 241.164881 190.719843 
L 241.667655 185.95807 
L 241.896188 185.410255 
L 242.353255 180.690622 
L 242.718909 177.108757 
L 243.313095 171.714891 
L 243.358802 171.714891 
L 243.450215 172.136286 
L 243.724455 175.970989 
L 244.501469 185.199557 
L 244.684296 186.505884 
L 244.867122 188.191468 
L 246.28403 208.797724 
L 246.69539 212.000333 
L 246.741096 211.789635 
L 247.061043 210.694006 
L 247.289576 209.26126 
L 247.335283 209.345539 
L 247.426697 209.640516 
L 247.609523 210.27261 
L 247.65523 210.188331 
L 247.79235 209.556237 
L 248.295123 205.847953 
L 248.432243 205.13158 
L 249.072137 198.894922 
L 249.16355 199.316318 
L 249.529204 196.492966 
L 249.849151 195.776593 
L 249.986271 195.987291 
L 250.123391 195.313057 
L 250.397631 193.880312 
L 250.489044 193.880312 
L 250.717577 195.144499 
L 251.631711 201.844693 
L 251.677418 201.760414 
L 251.723124 201.844693 
L 251.768831 201.844693 
L 251.905951 201.339018 
L 252.180191 203.530276 
L 252.591551 205.890093 
L 252.865791 208.292049 
L 253.414272 212.379589 
L 253.642805 212.590287 
L 254.419819 217.436339 
L 254.556939 218.194851 
L 254.602645 218.110572 
L 254.694059 218.068433 
L 254.876885 217.899874 
L 255.014005 217.857735 
L 255.242539 217.225641 
L 255.471072 216.214291 
L 256.385206 203.951672 
L 257.482166 179.300016 
L 257.527873 179.552853 
L 257.98494 181.533414 
L 258.030646 181.406995 
L 258.076353 181.196297 
L 258.12206 181.322716 
L 258.213473 182.039089 
L 258.53342 186.042349 
L 258.716246 187.137978 
L 259.036193 192.911101 
L 259.538967 204.836603 
L 260.31598 226.707047 
L 260.407394 226.917745 
L 260.4531 226.833466 
L 260.544514 226.833466 
L 260.681634 227.802677 
L 260.955874 230.120354 
L 261.00158 230.078214 
L 261.1387 229.783237 
L 261.230114 230.204633 
L 261.367234 230.836727 
L 261.504354 229.698958 
L 261.732887 228.603329 
L 262.189954 230.078214 
L 262.281367 229.909656 
L 262.418487 229.024724 
L 262.692728 226.833466 
L 262.829848 227.254862 
L 263.012674 227.886956 
L 263.149794 227.46556 
L 263.378328 226.917745 
L 263.469741 227.128443 
L 263.789688 228.519049 
L 263.835395 228.43477 
L 264.063928 228.43477 
L 264.749528 232.311612 
L 264.795235 232.395891 
L 264.840941 232.311612 
L 265.069475 231.679518 
L 265.115182 231.805937 
L 265.389422 233.702218 
L 265.435128 233.49152 
L 265.617955 231.974495 
L 265.800782 230.921006 
L 265.846488 230.921006 
L 266.029315 231.384541 
L 266.075022 231.342402 
L 266.394969 230.288912 
L 266.440675 230.331052 
L 266.577795 230.752447 
L 266.943449 232.438031 
L 267.217689 233.702218 
L 267.309102 233.49152 
L 267.537636 232.859427 
L 267.583342 232.943706 
L 267.766169 233.280822 
L 267.903289 232.648729 
L 268.086116 231.890216 
L 268.177529 232.185193 
L 268.451769 233.154404 
L 268.680303 233.365102 
L 268.863129 232.859427 
L 269.183076 231.595239 
L 269.320196 231.595239 
L 269.503023 232.100914 
L 269.82297 234.081474 
L 270.280036 236.019895 
L 270.37145 235.977756 
L 270.64569 235.177104 
L 270.737103 235.261383 
L 270.965637 236.651989 
L 271.46841 238.843247 
L 272.108304 243.394322 
L 272.15401 243.352183 
L 272.29113 242.930787 
L 273.022437 237.705479 
L 273.342384 237.789758 
L 273.388091 237.874037 
L 273.433797 237.789758 
L 273.479504 237.705479 
L 273.799451 234.418591 
L 273.890864 234.207893 
L 273.936571 234.292172 
L 273.982277 234.292172 
L 274.302224 234.924266 
L 274.530758 234.334312 
L 274.759291 232.817287 
L 274.987824 229.867516 
L 275.719131 217.899874 
L 275.764838 217.984154 
L 275.856251 218.405549 
L 276.907505 227.381281 
L 277.273158 228.224072 
L 277.501692 229.361841 
L 277.684518 231.679518 
L 278.461532 246.428373 
L 278.507239 246.344093 
L 278.552945 246.301954 
L 279.101426 243.267904 
L 280.015559 235.809197 
L 280.289799 231.258122 
L 280.564039 228.43477 
L 280.929693 226.917745 
L 281.066813 226.833466 
L 281.432466 226.917745 
L 281.569586 226.959885 
L 281.706706 226.833466 
L 281.752413 226.917745 
L 281.980946 227.254862 
L 282.75796 228.814027 
L 283.260733 232.311612 
L 283.30644 232.227333 
L 283.534973 231.890216 
L 283.85492 230.710308 
L 284.54052 227.128443 
L 285.637481 217.984154 
L 286.414494 213.559497 
L 286.734441 212.421728 
L 287.100094 211.24182 
L 287.191508 211.157541 
L 287.282921 211.157541 
L 287.465748 211.663216 
L 287.785695 212.716706 
L 288.059935 212.379589 
L 288.151348 212.421728 
L 288.334175 213.433078 
L 288.974068 217.562758 
L 289.385428 217.014943 
L 289.842495 217.984154 
L 290.071029 217.899874 
L 290.345269 217.562758 
L 290.436682 217.689176 
L 290.893749 219.33262 
L 290.939456 219.164062 
L 291.076576 218.279131 
L 291.533642 214.191591 
L 291.899296 213.475218 
L 292.036416 213.26452 
L 292.173536 212.590287 
L 292.676309 207.15428 
L 293.63615 181.238437 
L 294.230336 171.082797 
L 294.687403 161.390693 
L 295.373003 154.437661 
L 295.41871 155.069755 
L 295.69295 157.59813 
L 295.921484 157.808828 
L 296.058604 159.073015 
L 296.332844 161.727809 
L 296.65279 162.907718 
L 296.881324 164.256184 
L 297.475511 169.860749 
L 297.704044 169.860749 
L 298.435351 172.81052 
L 298.892418 177.656572 
L 299.120951 177.740851 
L 299.669431 180.564203 
L 299.806551 180.606343 
L 299.943671 181.027739 
L 300.903512 186.505884 
L 301.177752 187.137978 
L 301.497699 187.93863 
L 301.863352 188.907841 
L 301.909059 188.823562 
L 302.137592 188.697143 
L 302.320419 189.244957 
L 302.731779 191.309797 
L 302.868899 191.225518 
L 303.006019 191.141239 
L 303.554499 191.225518 
L 303.783033 191.857612 
L 304.102979 192.826822 
L 304.560046 192.911101 
L 304.834286 193.543195 
L 305.33706 192.826822 
L 305.565593 193.03752 
L 306.2969 192.99538 
L 306.753967 192.363287 
L 306.84538 192.489705 
L 307.576687 195.355197 
L 307.622394 195.439476 
L 307.6681 195.355197 
L 307.94234 195.439476 
L 308.125167 195.860872 
L 308.719354 199.021341 
L 308.856474 199.10562 
L 308.993594 199.316318 
L 309.496367 200.411947 
L 309.587781 200.369808 
L 310.136261 198.389247 
L 310.181968 198.473526 
L 310.273381 198.684224 
L 310.867568 200.07483 
L 310.958981 199.990551 
L 311.050395 199.779853 
L 311.278928 199.358458 
L 311.370341 199.442737 
L 311.644581 201.212599 
L 312.375888 205.763674 
L 312.924368 209.893353 
L 313.838502 212.843124 
L 314.295569 212.800985 
L 314.798342 211.747495 
L 315.666769 208.20777 
L 315.803889 207.954933 
L 316.078129 207.364978 
L 316.443783 207.15428 
L 316.855143 207.997072 
L 316.946556 207.870653 
L 317.31221 207.322839 
L 317.403623 207.533537 
L 317.58645 208.292049 
L 317.952103 209.471958 
L 318.27205 210.188331 
L 318.637703 211.958193 
L 318.911943 213.011683 
L 319.186184 213.854474 
L 319.36901 213.896614 
L 319.64325 213.980893 
L 319.871784 214.907964 
L 320.374557 216.719966 
L 321.242984 219.37476 
L 321.517224 220.596808 
L 321.700051 220.849645 
L 322.477064 223.335881 
L 322.751305 223.546579 
L 323.208371 222.914485 
L 323.299785 222.956624 
L 323.665438 223.462299 
L 323.985385 223.040904 
L 324.031092 223.040904 
L 324.259625 224.43151 
L 324.670985 227.254862 
L 325.082345 228.645468 
L 325.630825 232.817287 
L 326.087892 236.104174 
L 326.773492 239.180364 
L 326.819199 239.053945 
L 326.956319 238.421852 
L 327.367679 236.188454 
L 327.504799 236.230593 
L 327.779039 236.52557 
L 327.870453 236.441291 
L 327.961866 236.230593 
L 328.144693 235.472081 
L 328.418933 234.713568 
L 328.510346 234.755708 
L 329.15024 237.368362 
L 329.28736 237.452641 
L 329.470186 238.63255 
L 330.38432 247.566141 
L 331.024214 250.515912 
L 331.252747 250.937308 
L 331.389867 250.558052 
L 331.6184 249.041027 
L 331.938347 247.060466 
L 332.212587 246.344093 
L 332.852481 243.899997 
L 333.126721 242.972927 
L 333.218134 243.057206 
L 333.538081 244.953487 
L 333.675201 248.240375 
L 333.812321 251.822239 
L 333.858028 250.937308 
L 334.909281 225.358581 
L 335.092108 223.546579 
L 335.869122 214.191591 
L 336.006242 213.559497 
L 336.234775 212.421728 
L 336.326188 211.873914 
L 336.554722 206.269349 
L 336.600429 207.112141 
L 337.468855 224.600068 
L 337.560269 224.38937 
L 337.971629 218.953364 
L 338.063042 218.279131 
L 338.382989 223.335881 
L 338.611522 224.010114 
L 338.840056 223.799416 
L 338.977176 222.619508 
L 339.617069 216.003593 
L 339.845603 215.160801 
L 339.891309 215.160801 
L 340.16555 216.424989 
L 340.348376 217.057083 
L 340.43979 217.014943 
L 340.668323 216.719966 
L 340.805443 217.267781 
L 341.033976 214.31801 
L 341.12539 213.770195 
L 341.353923 210.104051 
L 342.313763 185.747372 
L 342.953657 163.834788 
L 343.273604 160.969297 
L 343.31931 160.885018 
L 343.365017 161.011436 
L 343.502137 161.222134 
L 343.547844 161.095716 
L 343.730671 158.019526 
L 344.142031 149.802307 
L 344.233444 149.844447 
L 344.370564 150.56082 
L 344.690511 155.111895 
L 344.964751 166.236745 
L 345.833178 205.468697 
L 346.290245 217.984154 
L 347.524325 249.293864 
L 347.844272 250.431633 
L 347.981392 250.515912 
L 348.255632 250.642331 
L 348.392752 250.558052 
L 348.529872 250.558052 
L 348.666992 250.642331 
L 348.895525 251.190145 
L 349.444005 253.254985 
L 349.626832 253.297125 
L 349.809659 253.254985 
L 349.946779 252.833589 
L 350.175312 252.412193 
L 350.449552 251.69582 
L 350.769499 250.515912 
L 350.906619 250.76875 
L 351.226566 251.822239 
L 351.363686 251.7801 
L 351.546513 251.569402 
L 351.683633 251.569402 
L 351.912166 251.358704 
L 352.094993 251.400843 
L 352.68918 252.665031 
L 352.872006 253.086427 
L 353.009126 252.833589 
L 353.557607 251.611541 
L 353.831847 249.883818 
L 354.380327 245.796279 
L 354.563154 244.405672 
L 354.700274 245.037766 
L 354.8831 245.459162 
L 354.974514 245.374883 
L 355.340167 244.110695 
L 355.751527 241.498041 
L 355.888647 241.919437 
L 356.208594 243.352183 
L 356.391421 243.394322 
L 356.574248 243.562881 
L 356.757074 243.60502 
L 357.214141 244.65851 
L 357.259848 244.405672 
L 357.854035 238.843247 
L 358.036861 238.54827 
L 358.402515 239.60176 
L 358.493928 239.391062 
L 358.676755 238.63255 
L 359.270942 236.314872 
L 359.636595 235.472081 
L 359.865128 234.713568 
L 360.139369 234.123614 
L 360.322195 233.365102 
L 360.733555 231.047424 
L 361.190622 227.760537 
L 361.419156 227.128443 
L 362.470409 223.672997 
L 363.110303 222.703787 
L 363.201716 222.619508 
L 363.338836 222.535229 
L 363.84161 223.588718 
L 363.933023 223.462299 
L 364.11585 222.113833 
L 364.52721 219.121922 
L 364.572916 219.037643 
L 364.618623 219.121922 
L 364.93857 219.33262 
L 365.21281 218.616247 
L 365.34993 218.279131 
L 365.395637 218.32127 
L 365.578463 218.826945 
L 365.944117 220.091133 
L 365.989824 220.175412 
L 366.03553 220.091133 
L 366.401184 219.248341 
L 366.72113 218.194851 
L 366.812544 218.279131 
L 367.041077 218.700526 
L 367.543851 217.984154 
L 367.726677 217.899874 
L 368.183744 216.509268 
L 368.549398 214.402289 
L 368.686518 214.31801 
L 368.960758 214.27587 
L 369.097878 213.896614 
L 369.783478 211.115401 
L 370.012011 211.452518 
L 370.057718 211.368239 
L 370.560491 209.851214 
L 370.606198 210.061912 
L 370.743318 210.27261 
L 370.834732 210.061912 
L 371.063265 209.26126 
L 371.611745 207.15428 
L 371.931692 206.943583 
L 372.114519 207.449258 
L 372.617292 209.640516 
L 372.662999 209.556237 
L 373.165772 208.418468 
L 373.257186 208.629166 
L 373.302892 208.924143 
L 373.394306 208.797724 
L 373.485719 208.839864 
L 373.577132 209.050562 
L 373.759959 209.556237 
L 374.034199 209.471958 
L 374.217026 208.713445 
L 374.628386 207.15428 
L 374.856919 207.112141 
L 375.085453 205.679395 
L 375.4054 203.740974 
L 375.588226 203.572416 
L 375.771053 203.740974 
L 376.045293 203.024601 
L 376.410946 201.844693 
L 376.50236 201.676135 
L 376.548067 201.760414 
L 376.7766 202.392508 
L 377.142253 203.656695 
L 377.18796 203.740974 
L 377.233667 203.656695 
L 377.370787 203.235299 
L 377.690733 202.09753 
L 377.87356 202.603205 
L 378.1478 203.361718 
L 378.239214 203.319578 
L 378.879107 201.254739 
L 379.016227 201.549716 
L 379.610414 204.710185 
L 379.793241 204.625905 
L 380.067481 204.499487 
L 380.387428 205.047301 
L 380.433134 205.005162 
L 380.981614 203.10888 
L 381.027321 203.15102 
L 381.118734 203.235299 
L 381.530095 203.867393 
L 381.621508 203.656695 
L 382.489935 198.262828 
L 382.535642 198.304968 
L 382.809882 199.021341 
L 383.449775 200.791203 
L 383.495482 200.706924 
L 383.586895 200.622645 
L 384.135375 199.358458 
L 384.592442 200.285528 
L 384.638149 200.201249 
L 384.820976 199.442737 
L 385.140922 197.757153 
L 385.369456 194.04887 
L 385.917936 183.93537 
L 386.100763 183.513974 
L 386.192176 183.429695 
L 386.466416 183.766812 
L 386.603536 183.724672 
L 387.060603 183.092578 
L 387.197723 183.008299 
L 387.426256 182.671182 
L 387.563376 182.713322 
L 387.883323 183.513974 
L 388.06615 185.410255 
L 388.706043 194.301707 
L 388.980283 194.891662 
L 389.208817 194.933801 
L 389.43735 195.144499 
L 389.483057 195.144499 
L 389.803004 195.945151 
L 389.940124 195.860872 
L 390.26007 195.439476 
L 390.762844 195.523755 
L 390.991377 196.408687 
L 391.311324 197.757153 
L 391.494151 197.883572 
L 391.676977 197.967851 
L 391.768391 198.05213 
L 392.134044 197.251478 
L 392.271164 195.987291 
L 392.682524 188.907841 
L 393.048178 179.089318 
L 393.779485 155.322593 
L 393.870898 155.743988 
L 394.739325 162.064926 
L 395.013565 165.520372 
L 395.470632 176.898059 
L 395.927699 195.10236 
L 396.476179 217.562758 
L 396.521886 217.35206 
L 397.710259 207.954933 
L 398.167326 200.622645 
L 398.487273 193.03752 
L 398.487273 193.03752 
" style="fill:none;stroke:#1f77b4;stroke-linecap:square;stroke-width:1.5;"/>
   </g>
   <g id="patch_3">
    <path d="M 57.6 306.3024 
L 57.6 41.2992 
" style="fill:none;stroke:#000000;stroke-linecap:square;stroke-linejoin:miter;stroke-width:0.8;"/>
   </g>
   <g id="patch_4">
    <path d="M 414.72 306.3024 
L 414.72 41.2992 
" style="fill:none;stroke:#000000;stroke-linecap:square;stroke-linejoin:miter;stroke-width:0.8;"/>
   </g>
   <g id="patch_5">
    <path d="M 57.6 306.3024 
L 414.72 306.3024 
" style="fill:none;stroke:#000000;stroke-linecap:square;stroke-linejoin:miter;stroke-width:0.8;"/>
   </g>
   <g id="patch_6">
    <path d="M 57.6 41.2992 
L 414.72 41.2992 
" style="fill:none;stroke:#000000;stroke-linecap:square;stroke-linejoin:miter;stroke-width:0.8;"/>
   </g>
   <g id="text_17">
    <!-- Ritmo Cardíaco -->
    <g transform="translate(190.094063 35.2992)scale(0.12 -0.12)">
     <use xlink:href="#DejaVuSans-82"/>
     <use x="69.482422" xlink:href="#DejaVuSans-105"/>
     <use x="97.265625" xlink:href="#DejaVuSans-116"/>
     <use x="136.474609" xlink:href="#DejaVuSans-109"/>
     <use x="233.886719" xlink:href="#DejaVuSans-111"/>
     <use x="295.068359" xlink:href="#DejaVuSans-32"/>
     <use x="326.855469" xlink:href="#DejaVuSans-67"/>
     <use x="396.679688" xlink:href="#DejaVuSans-97"/>
     <use x="457.958984" xlink:href="#DejaVuSans-114"/>
     <use x="499.056641" xlink:href="#DejaVuSans-100"/>
     <use x="562.533203" xlink:href="#DejaVuSans-237"/>
     <use x="590.316406" xlink:href="#DejaVuSans-97"/>
     <use x="651.595703" xlink:href="#DejaVuSans-99"/>
     <use x="706.576172" xlink:href="#DejaVuSans-111"/>
    </g>
   </g>
  </g>
 </g>
 <defs>
  <clipPath id="p2fc74f746a">
   <rect height="265.0032" width="357.12" x="57.6" y="41.2992"/>
  </clipPath>
 </defs>
</svg>
