<?xml version="1.0" encoding="utf-8" standalone="no"?>
<!DOCTYPE svg PUBLIC "-//W3C//DTD SVG 1.1//EN"
  "http://www.w3.org/Graphics/SVG/1.1/DTD/svg11.dtd">
<!-- Created with matplotlib (https://matplotlib.org/) -->
<svg height="344.16pt" version="1.1" viewBox="0 0 460.8 344.16" width="460.8pt" xmlns="http://www.w3.org/2000/svg" xmlns:xlink="http://www.w3.org/1999/xlink">
 <defs>
  <style type="text/css">
*{stroke-linecap:butt;stroke-linejoin:round;}
  </style>
 </defs>
 <g id="figure_1">
  <g id="patch_1">
   <path d="M 0 344.16 
L 460.8 344.16 
L 460.8 0 
L 0 0 
z
" style="fill:#ffffff;"/>
  </g>
  <g id="axes_1">
   <g id="patch_2">
    <path d="M 57.6 306.3024 
L 414.72 306.3024 
L 414.72 41.2992 
L 57.6 41.2992 
z
" style="fill:#ffffff;"/>
   </g>
   <g id="matplotlib.axis_1">
    <g id="xtick_1">
     <g id="line2d_1">
      <defs>
       <path d="M 0 0 
L 0 3.5 
" id="ma6f0199415" style="stroke:#000000;stroke-width:0.8;"/>
      </defs>
      <g>
       <use style="stroke:#000000;stroke-width:0.8;" x="73.832727" xlink:href="#ma6f0199415" y="306.3024"/>
      </g>
     </g>
     <g id="text_1">
      <!-- 0 -->
      <defs>
       <path d="M 31.78125 66.40625 
Q 24.171875 66.40625 20.328125 58.90625 
Q 16.5 51.421875 16.5 36.375 
Q 16.5 21.390625 20.328125 13.890625 
Q 24.171875 6.390625 31.78125 6.390625 
Q 39.453125 6.390625 43.28125 13.890625 
Q 47.125 21.390625 47.125 36.375 
Q 47.125 51.421875 43.28125 58.90625 
Q 39.453125 66.40625 31.78125 66.40625 
z
M 31.78125 74.21875 
Q 44.046875 74.21875 50.515625 64.515625 
Q 56.984375 54.828125 56.984375 36.375 
Q 56.984375 17.96875 50.515625 8.265625 
Q 44.046875 -1.421875 31.78125 -1.421875 
Q 19.53125 -1.421875 13.0625 8.265625 
Q 6.59375 17.96875 6.59375 36.375 
Q 6.59375 54.828125 13.0625 64.515625 
Q 19.53125 74.21875 31.78125 74.21875 
z
" id="DejaVuSans-48"/>
      </defs>
      <g transform="translate(70.651477 320.900838)scale(0.1 -0.1)">
       <use xlink:href="#DejaVuSans-48"/>
      </g>
     </g>
    </g>
    <g id="xtick_2">
     <g id="line2d_2">
      <g>
       <use style="stroke:#000000;stroke-width:0.8;" x="119.539407" xlink:href="#ma6f0199415" y="306.3024"/>
      </g>
     </g>
     <g id="text_2">
      <!-- 1000 -->
      <defs>
       <path d="M 12.40625 8.296875 
L 28.515625 8.296875 
L 28.515625 63.921875 
L 10.984375 60.40625 
L 10.984375 69.390625 
L 28.421875 72.90625 
L 38.28125 72.90625 
L 38.28125 8.296875 
L 54.390625 8.296875 
L 54.390625 0 
L 12.40625 0 
z
" id="DejaVuSans-49"/>
      </defs>
      <g transform="translate(106.814407 320.900838)scale(0.1 -0.1)">
       <use xlink:href="#DejaVuSans-49"/>
       <use x="63.623047" xlink:href="#DejaVuSans-48"/>
       <use x="127.246094" xlink:href="#DejaVuSans-48"/>
       <use x="190.869141" xlink:href="#DejaVuSans-48"/>
      </g>
     </g>
    </g>
    <g id="xtick_3">
     <g id="line2d_3">
      <g>
       <use style="stroke:#000000;stroke-width:0.8;" x="165.246087" xlink:href="#ma6f0199415" y="306.3024"/>
      </g>
     </g>
     <g id="text_3">
      <!-- 2000 -->
      <defs>
       <path d="M 19.1875 8.296875 
L 53.609375 8.296875 
L 53.609375 0 
L 7.328125 0 
L 7.328125 8.296875 
Q 12.9375 14.109375 22.625 23.890625 
Q 32.328125 33.6875 34.8125 36.53125 
Q 39.546875 41.84375 41.421875 45.53125 
Q 43.3125 49.21875 43.3125 52.78125 
Q 43.3125 58.59375 39.234375 62.25 
Q 35.15625 65.921875 28.609375 65.921875 
Q 23.96875 65.921875 18.8125 64.3125 
Q 13.671875 62.703125 7.8125 59.421875 
L 7.8125 69.390625 
Q 13.765625 71.78125 18.9375 73 
Q 24.125 74.21875 28.421875 74.21875 
Q 39.75 74.21875 46.484375 68.546875 
Q 53.21875 62.890625 53.21875 53.421875 
Q 53.21875 48.921875 51.53125 44.890625 
Q 49.859375 40.875 45.40625 35.40625 
Q 44.1875 33.984375 37.640625 27.21875 
Q 31.109375 20.453125 19.1875 8.296875 
z
" id="DejaVuSans-50"/>
      </defs>
      <g transform="translate(152.521087 320.900838)scale(0.1 -0.1)">
       <use xlink:href="#DejaVuSans-50"/>
       <use x="63.623047" xlink:href="#DejaVuSans-48"/>
       <use x="127.246094" xlink:href="#DejaVuSans-48"/>
       <use x="190.869141" xlink:href="#DejaVuSans-48"/>
      </g>
     </g>
    </g>
    <g id="xtick_4">
     <g id="line2d_4">
      <g>
       <use style="stroke:#000000;stroke-width:0.8;" x="210.952766" xlink:href="#ma6f0199415" y="306.3024"/>
      </g>
     </g>
     <g id="text_4">
      <!-- 3000 -->
      <defs>
       <path d="M 40.578125 39.3125 
Q 47.65625 37.796875 51.625 33 
Q 55.609375 28.21875 55.609375 21.1875 
Q 55.609375 10.40625 48.1875 4.484375 
Q 40.765625 -1.421875 27.09375 -1.421875 
Q 22.515625 -1.421875 17.65625 -0.515625 
Q 12.796875 0.390625 7.625 2.203125 
L 7.625 11.71875 
Q 11.71875 9.328125 16.59375 8.109375 
Q 21.484375 6.890625 26.8125 6.890625 
Q 36.078125 6.890625 40.9375 10.546875 
Q 45.796875 14.203125 45.796875 21.1875 
Q 45.796875 27.640625 41.28125 31.265625 
Q 36.765625 34.90625 28.71875 34.90625 
L 20.21875 34.90625 
L 20.21875 43.015625 
L 29.109375 43.015625 
Q 36.375 43.015625 40.234375 45.921875 
Q 44.09375 48.828125 44.09375 54.296875 
Q 44.09375 59.90625 40.109375 62.90625 
Q 36.140625 65.921875 28.71875 65.921875 
Q 24.65625 65.921875 20.015625 65.03125 
Q 15.375 64.15625 9.8125 62.3125 
L 9.8125 71.09375 
Q 15.4375 72.65625 20.34375 73.4375 
Q 25.25 74.21875 29.59375 74.21875 
Q 40.828125 74.21875 47.359375 69.109375 
Q 53.90625 64.015625 53.90625 55.328125 
Q 53.90625 49.265625 50.4375 45.09375 
Q 46.96875 40.921875 40.578125 39.3125 
z
" id="DejaVuSans-51"/>
      </defs>
      <g transform="translate(198.227766 320.900838)scale(0.1 -0.1)">
       <use xlink:href="#DejaVuSans-51"/>
       <use x="63.623047" xlink:href="#DejaVuSans-48"/>
       <use x="127.246094" xlink:href="#DejaVuSans-48"/>
       <use x="190.869141" xlink:href="#DejaVuSans-48"/>
      </g>
     </g>
    </g>
    <g id="xtick_5">
     <g id="line2d_5">
      <g>
       <use style="stroke:#000000;stroke-width:0.8;" x="256.659446" xlink:href="#ma6f0199415" y="306.3024"/>
      </g>
     </g>
     <g id="text_5">
      <!-- 4000 -->
      <defs>
       <path d="M 37.796875 64.3125 
L 12.890625 25.390625 
L 37.796875 25.390625 
z
M 35.203125 72.90625 
L 47.609375 72.90625 
L 47.609375 25.390625 
L 58.015625 25.390625 
L 58.015625 17.1875 
L 47.609375 17.1875 
L 47.609375 0 
L 37.796875 0 
L 37.796875 17.1875 
L 4.890625 17.1875 
L 4.890625 26.703125 
z
" id="DejaVuSans-52"/>
      </defs>
      <g transform="translate(243.934446 320.900838)scale(0.1 -0.1)">
       <use xlink:href="#DejaVuSans-52"/>
       <use x="63.623047" xlink:href="#DejaVuSans-48"/>
       <use x="127.246094" xlink:href="#DejaVuSans-48"/>
       <use x="190.869141" xlink:href="#DejaVuSans-48"/>
      </g>
     </g>
    </g>
    <g id="xtick_6">
     <g id="line2d_6">
      <g>
       <use style="stroke:#000000;stroke-width:0.8;" x="302.366125" xlink:href="#ma6f0199415" y="306.3024"/>
      </g>
     </g>
     <g id="text_6">
      <!-- 5000 -->
      <defs>
       <path d="M 10.796875 72.90625 
L 49.515625 72.90625 
L 49.515625 64.59375 
L 19.828125 64.59375 
L 19.828125 46.734375 
Q 21.96875 47.46875 24.109375 47.828125 
Q 26.265625 48.1875 28.421875 48.1875 
Q 40.625 48.1875 47.75 41.5 
Q 54.890625 34.8125 54.890625 23.390625 
Q 54.890625 11.625 47.5625 5.09375 
Q 40.234375 -1.421875 26.90625 -1.421875 
Q 22.3125 -1.421875 17.546875 -0.640625 
Q 12.796875 0.140625 7.71875 1.703125 
L 7.71875 11.625 
Q 12.109375 9.234375 16.796875 8.0625 
Q 21.484375 6.890625 26.703125 6.890625 
Q 35.15625 6.890625 40.078125 11.328125 
Q 45.015625 15.765625 45.015625 23.390625 
Q 45.015625 31 40.078125 35.4375 
Q 35.15625 39.890625 26.703125 39.890625 
Q 22.75 39.890625 18.8125 39.015625 
Q 14.890625 38.140625 10.796875 36.28125 
z
" id="DejaVuSans-53"/>
      </defs>
      <g transform="translate(289.641125 320.900838)scale(0.1 -0.1)">
       <use xlink:href="#DejaVuSans-53"/>
       <use x="63.623047" xlink:href="#DejaVuSans-48"/>
       <use x="127.246094" xlink:href="#DejaVuSans-48"/>
       <use x="190.869141" xlink:href="#DejaVuSans-48"/>
      </g>
     </g>
    </g>
    <g id="xtick_7">
     <g id="line2d_7">
      <g>
       <use style="stroke:#000000;stroke-width:0.8;" x="348.072805" xlink:href="#ma6f0199415" y="306.3024"/>
      </g>
     </g>
     <g id="text_7">
      <!-- 6000 -->
      <defs>
       <path d="M 33.015625 40.375 
Q 26.375 40.375 22.484375 35.828125 
Q 18.609375 31.296875 18.609375 23.390625 
Q 18.609375 15.53125 22.484375 10.953125 
Q 26.375 6.390625 33.015625 6.390625 
Q 39.65625 6.390625 43.53125 10.953125 
Q 47.40625 15.53125 47.40625 23.390625 
Q 47.40625 31.296875 43.53125 35.828125 
Q 39.65625 40.375 33.015625 40.375 
z
M 52.59375 71.296875 
L 52.59375 62.3125 
Q 48.875 64.0625 45.09375 64.984375 
Q 41.3125 65.921875 37.59375 65.921875 
Q 27.828125 65.921875 22.671875 59.328125 
Q 17.53125 52.734375 16.796875 39.40625 
Q 19.671875 43.65625 24.015625 45.921875 
Q 28.375 48.1875 33.59375 48.1875 
Q 44.578125 48.1875 50.953125 41.515625 
Q 57.328125 34.859375 57.328125 23.390625 
Q 57.328125 12.15625 50.6875 5.359375 
Q 44.046875 -1.421875 33.015625 -1.421875 
Q 20.359375 -1.421875 13.671875 8.265625 
Q 6.984375 17.96875 6.984375 36.375 
Q 6.984375 53.65625 15.1875 63.9375 
Q 23.390625 74.21875 37.203125 74.21875 
Q 40.921875 74.21875 44.703125 73.484375 
Q 48.484375 72.75 52.59375 71.296875 
z
" id="DejaVuSans-54"/>
      </defs>
      <g transform="translate(335.347805 320.900838)scale(0.1 -0.1)">
       <use xlink:href="#DejaVuSans-54"/>
       <use x="63.623047" xlink:href="#DejaVuSans-48"/>
       <use x="127.246094" xlink:href="#DejaVuSans-48"/>
       <use x="190.869141" xlink:href="#DejaVuSans-48"/>
      </g>
     </g>
    </g>
    <g id="xtick_8">
     <g id="line2d_8">
      <g>
       <use style="stroke:#000000;stroke-width:0.8;" x="393.779485" xlink:href="#ma6f0199415" y="306.3024"/>
      </g>
     </g>
     <g id="text_8">
      <!-- 7000 -->
      <defs>
       <path d="M 8.203125 72.90625 
L 55.078125 72.90625 
L 55.078125 68.703125 
L 28.609375 0 
L 18.3125 0 
L 43.21875 64.59375 
L 8.203125 64.59375 
z
" id="DejaVuSans-55"/>
      </defs>
      <g transform="translate(381.054485 320.900838)scale(0.1 -0.1)">
       <use xlink:href="#DejaVuSans-55"/>
       <use x="63.623047" xlink:href="#DejaVuSans-48"/>
       <use x="127.246094" xlink:href="#DejaVuSans-48"/>
       <use x="190.869141" xlink:href="#DejaVuSans-48"/>
      </g>
     </g>
    </g>
    <g id="text_9">
     <!-- Muestras -->
     <defs>
      <path d="M 9.8125 72.90625 
L 24.515625 72.90625 
L 43.109375 23.296875 
L 61.8125 72.90625 
L 76.515625 72.90625 
L 76.515625 0 
L 66.890625 0 
L 66.890625 64.015625 
L 48.09375 14.015625 
L 38.1875 14.015625 
L 19.390625 64.015625 
L 19.390625 0 
L 9.8125 0 
z
" id="DejaVuSans-77"/>
      <path d="M 8.5 21.578125 
L 8.5 54.6875 
L 17.484375 54.6875 
L 17.484375 21.921875 
Q 17.484375 14.15625 20.5 10.265625 
Q 23.53125 6.390625 29.59375 6.390625 
Q 36.859375 6.390625 41.078125 11.03125 
Q 45.3125 15.671875 45.3125 23.6875 
L 45.3125 54.6875 
L 54.296875 54.6875 
L 54.296875 0 
L 45.3125 0 
L 45.3125 8.40625 
Q 42.046875 3.421875 37.71875 1 
Q 33.40625 -1.421875 27.6875 -1.421875 
Q 18.265625 -1.421875 13.375 4.4375 
Q 8.5 10.296875 8.5 21.578125 
z
M 31.109375 56 
z
" id="DejaVuSans-117"/>
      <path d="M 56.203125 29.59375 
L 56.203125 25.203125 
L 14.890625 25.203125 
Q 15.484375 15.921875 20.484375 11.0625 
Q 25.484375 6.203125 34.421875 6.203125 
Q 39.59375 6.203125 44.453125 7.46875 
Q 49.3125 8.734375 54.109375 11.28125 
L 54.109375 2.78125 
Q 49.265625 0.734375 44.1875 -0.34375 
Q 39.109375 -1.421875 33.890625 -1.421875 
Q 20.796875 -1.421875 13.15625 6.1875 
Q 5.515625 13.8125 5.515625 26.8125 
Q 5.515625 40.234375 12.765625 48.109375 
Q 20.015625 56 32.328125 56 
Q 43.359375 56 49.78125 48.890625 
Q 56.203125 41.796875 56.203125 29.59375 
z
M 47.21875 32.234375 
Q 47.125 39.59375 43.09375 43.984375 
Q 39.0625 48.390625 32.421875 48.390625 
Q 24.90625 48.390625 20.390625 44.140625 
Q 15.875 39.890625 15.1875 32.171875 
z
" id="DejaVuSans-101"/>
      <path d="M 44.28125 53.078125 
L 44.28125 44.578125 
Q 40.484375 46.53125 36.375 47.5 
Q 32.28125 48.484375 27.875 48.484375 
Q 21.1875 48.484375 17.84375 46.4375 
Q 14.5 44.390625 14.5 40.28125 
Q 14.5 37.15625 16.890625 35.375 
Q 19.28125 33.59375 26.515625 31.984375 
L 29.59375 31.296875 
Q 39.15625 29.25 43.1875 25.515625 
Q 47.21875 21.78125 47.21875 15.09375 
Q 47.21875 7.46875 41.1875 3.015625 
Q 35.15625 -1.421875 24.609375 -1.421875 
Q 20.21875 -1.421875 15.453125 -0.5625 
Q 10.6875 0.296875 5.421875 2 
L 5.421875 11.28125 
Q 10.40625 8.6875 15.234375 7.390625 
Q 20.0625 6.109375 24.8125 6.109375 
Q 31.15625 6.109375 34.5625 8.28125 
Q 37.984375 10.453125 37.984375 14.40625 
Q 37.984375 18.0625 35.515625 20.015625 
Q 33.0625 21.96875 24.703125 23.78125 
L 21.578125 24.515625 
Q 13.234375 26.265625 9.515625 29.90625 
Q 5.8125 33.546875 5.8125 39.890625 
Q 5.8125 47.609375 11.28125 51.796875 
Q 16.75 56 26.8125 56 
Q 31.78125 56 36.171875 55.265625 
Q 40.578125 54.546875 44.28125 53.078125 
z
" id="DejaVuSans-115"/>
      <path d="M 18.3125 70.21875 
L 18.3125 54.6875 
L 36.8125 54.6875 
L 36.8125 47.703125 
L 18.3125 47.703125 
L 18.3125 18.015625 
Q 18.3125 11.328125 20.140625 9.421875 
Q 21.96875 7.515625 27.59375 7.515625 
L 36.8125 7.515625 
L 36.8125 0 
L 27.59375 0 
Q 17.1875 0 13.234375 3.875 
Q 9.28125 7.765625 9.28125 18.015625 
L 9.28125 47.703125 
L 2.6875 47.703125 
L 2.6875 54.6875 
L 9.28125 54.6875 
L 9.28125 70.21875 
z
" id="DejaVuSans-116"/>
      <path d="M 41.109375 46.296875 
Q 39.59375 47.171875 37.8125 47.578125 
Q 36.03125 48 33.890625 48 
Q 26.265625 48 22.1875 43.046875 
Q 18.109375 38.09375 18.109375 28.8125 
L 18.109375 0 
L 9.078125 0 
L 9.078125 54.6875 
L 18.109375 54.6875 
L 18.109375 46.1875 
Q 20.953125 51.171875 25.484375 53.578125 
Q 30.03125 56 36.53125 56 
Q 37.453125 56 38.578125 55.875 
Q 39.703125 55.765625 41.0625 55.515625 
z
" id="DejaVuSans-114"/>
      <path d="M 34.28125 27.484375 
Q 23.390625 27.484375 19.1875 25 
Q 14.984375 22.515625 14.984375 16.5 
Q 14.984375 11.71875 18.140625 8.90625 
Q 21.296875 6.109375 26.703125 6.109375 
Q 34.1875 6.109375 38.703125 11.40625 
Q 43.21875 16.703125 43.21875 25.484375 
L 43.21875 27.484375 
z
M 52.203125 31.203125 
L 52.203125 0 
L 43.21875 0 
L 43.21875 8.296875 
Q 40.140625 3.328125 35.546875 0.953125 
Q 30.953125 -1.421875 24.3125 -1.421875 
Q 15.921875 -1.421875 10.953125 3.296875 
Q 6 8.015625 6 15.921875 
Q 6 25.140625 12.171875 29.828125 
Q 18.359375 34.515625 30.609375 34.515625 
L 43.21875 34.515625 
L 43.21875 35.40625 
Q 43.21875 41.609375 39.140625 45 
Q 35.0625 48.390625 27.6875 48.390625 
Q 23 48.390625 18.546875 47.265625 
Q 14.109375 46.140625 10.015625 43.890625 
L 10.015625 52.203125 
Q 14.9375 54.109375 19.578125 55.046875 
Q 24.21875 56 28.609375 56 
Q 40.484375 56 46.34375 49.84375 
Q 52.203125 43.703125 52.203125 31.203125 
z
" id="DejaVuSans-97"/>
     </defs>
     <g transform="translate(213.311562 334.578963)scale(0.1 -0.1)">
      <use xlink:href="#DejaVuSans-77"/>
      <use x="86.279297" xlink:href="#DejaVuSans-117"/>
      <use x="149.658203" xlink:href="#DejaVuSans-101"/>
      <use x="211.181641" xlink:href="#DejaVuSans-115"/>
      <use x="263.28125" xlink:href="#DejaVuSans-116"/>
      <use x="302.490234" xlink:href="#DejaVuSans-114"/>
      <use x="343.603516" xlink:href="#DejaVuSans-97"/>
      <use x="404.882812" xlink:href="#DejaVuSans-115"/>
     </g>
    </g>
   </g>
   <g id="matplotlib.axis_2">
    <g id="ytick_1">
     <g id="line2d_9">
      <defs>
       <path d="M 0 0 
L -3.5 0 
" id="mebcf9a9bbd" style="stroke:#000000;stroke-width:0.8;"/>
      </defs>
      <g>
       <use style="stroke:#000000;stroke-width:0.8;" x="57.6" xlink:href="#mebcf9a9bbd" y="275.649776"/>
      </g>
     </g>
     <g id="text_10">
      <!-- 32.0 -->
      <defs>
       <path d="M 10.6875 12.40625 
L 21 12.40625 
L 21 0 
L 10.6875 0 
z
" id="DejaVuSans-46"/>
      </defs>
      <g transform="translate(28.334375 279.448994)scale(0.1 -0.1)">
       <use xlink:href="#DejaVuSans-51"/>
       <use x="63.623047" xlink:href="#DejaVuSans-50"/>
       <use x="127.246094" xlink:href="#DejaVuSans-46"/>
       <use x="159.033203" xlink:href="#DejaVuSans-48"/>
      </g>
     </g>
    </g>
    <g id="ytick_2">
     <g id="line2d_10">
      <g>
       <use style="stroke:#000000;stroke-width:0.8;" x="57.6" xlink:href="#mebcf9a9bbd" y="226.683922"/>
      </g>
     </g>
     <g id="text_11">
      <!-- 32.5 -->
      <g transform="translate(28.334375 230.483141)scale(0.1 -0.1)">
       <use xlink:href="#DejaVuSans-51"/>
       <use x="63.623047" xlink:href="#DejaVuSans-50"/>
       <use x="127.246094" xlink:href="#DejaVuSans-46"/>
       <use x="159.033203" xlink:href="#DejaVuSans-53"/>
      </g>
     </g>
    </g>
    <g id="ytick_3">
     <g id="line2d_11">
      <g>
       <use style="stroke:#000000;stroke-width:0.8;" x="57.6" xlink:href="#mebcf9a9bbd" y="177.718068"/>
      </g>
     </g>
     <g id="text_12">
      <!-- 33.0 -->
      <g transform="translate(28.334375 181.517287)scale(0.1 -0.1)">
       <use xlink:href="#DejaVuSans-51"/>
       <use x="63.623047" xlink:href="#DejaVuSans-51"/>
       <use x="127.246094" xlink:href="#DejaVuSans-46"/>
       <use x="159.033203" xlink:href="#DejaVuSans-48"/>
      </g>
     </g>
    </g>
    <g id="ytick_4">
     <g id="line2d_12">
      <g>
       <use style="stroke:#000000;stroke-width:0.8;" x="57.6" xlink:href="#mebcf9a9bbd" y="128.752215"/>
      </g>
     </g>
     <g id="text_13">
      <!-- 33.5 -->
      <g transform="translate(28.334375 132.551433)scale(0.1 -0.1)">
       <use xlink:href="#DejaVuSans-51"/>
       <use x="63.623047" xlink:href="#DejaVuSans-51"/>
       <use x="127.246094" xlink:href="#DejaVuSans-46"/>
       <use x="159.033203" xlink:href="#DejaVuSans-53"/>
      </g>
     </g>
    </g>
    <g id="ytick_5">
     <g id="line2d_13">
      <g>
       <use style="stroke:#000000;stroke-width:0.8;" x="57.6" xlink:href="#mebcf9a9bbd" y="79.786361"/>
      </g>
     </g>
     <g id="text_14">
      <!-- 34.0 -->
      <g transform="translate(28.334375 83.58558)scale(0.1 -0.1)">
       <use xlink:href="#DejaVuSans-51"/>
       <use x="63.623047" xlink:href="#DejaVuSans-52"/>
       <use x="127.246094" xlink:href="#DejaVuSans-46"/>
       <use x="159.033203" xlink:href="#DejaVuSans-48"/>
      </g>
     </g>
    </g>
    <g id="text_15">
     <!-- Valor de Temperatura -->
     <defs>
      <path d="M 28.609375 0 
L 0.78125 72.90625 
L 11.078125 72.90625 
L 34.1875 11.53125 
L 57.328125 72.90625 
L 67.578125 72.90625 
L 39.796875 0 
z
" id="DejaVuSans-86"/>
      <path d="M 9.421875 75.984375 
L 18.40625 75.984375 
L 18.40625 0 
L 9.421875 0 
z
" id="DejaVuSans-108"/>
      <path d="M 30.609375 48.390625 
Q 23.390625 48.390625 19.1875 42.75 
Q 14.984375 37.109375 14.984375 27.296875 
Q 14.984375 17.484375 19.15625 11.84375 
Q 23.34375 6.203125 30.609375 6.203125 
Q 37.796875 6.203125 41.984375 11.859375 
Q 46.1875 17.53125 46.1875 27.296875 
Q 46.1875 37.015625 41.984375 42.703125 
Q 37.796875 48.390625 30.609375 48.390625 
z
M 30.609375 56 
Q 42.328125 56 49.015625 48.375 
Q 55.71875 40.765625 55.71875 27.296875 
Q 55.71875 13.875 49.015625 6.21875 
Q 42.328125 -1.421875 30.609375 -1.421875 
Q 18.84375 -1.421875 12.171875 6.21875 
Q 5.515625 13.875 5.515625 27.296875 
Q 5.515625 40.765625 12.171875 48.375 
Q 18.84375 56 30.609375 56 
z
" id="DejaVuSans-111"/>
      <path id="DejaVuSans-32"/>
      <path d="M 45.40625 46.390625 
L 45.40625 75.984375 
L 54.390625 75.984375 
L 54.390625 0 
L 45.40625 0 
L 45.40625 8.203125 
Q 42.578125 3.328125 38.25 0.953125 
Q 33.9375 -1.421875 27.875 -1.421875 
Q 17.96875 -1.421875 11.734375 6.484375 
Q 5.515625 14.40625 5.515625 27.296875 
Q 5.515625 40.1875 11.734375 48.09375 
Q 17.96875 56 27.875 56 
Q 33.9375 56 38.25 53.625 
Q 42.578125 51.265625 45.40625 46.390625 
z
M 14.796875 27.296875 
Q 14.796875 17.390625 18.875 11.75 
Q 22.953125 6.109375 30.078125 6.109375 
Q 37.203125 6.109375 41.296875 11.75 
Q 45.40625 17.390625 45.40625 27.296875 
Q 45.40625 37.203125 41.296875 42.84375 
Q 37.203125 48.484375 30.078125 48.484375 
Q 22.953125 48.484375 18.875 42.84375 
Q 14.796875 37.203125 14.796875 27.296875 
z
" id="DejaVuSans-100"/>
      <path d="M -0.296875 72.90625 
L 61.375 72.90625 
L 61.375 64.59375 
L 35.5 64.59375 
L 35.5 0 
L 25.59375 0 
L 25.59375 64.59375 
L -0.296875 64.59375 
z
" id="DejaVuSans-84"/>
      <path d="M 52 44.1875 
Q 55.375 50.25 60.0625 53.125 
Q 64.75 56 71.09375 56 
Q 79.640625 56 84.28125 50.015625 
Q 88.921875 44.046875 88.921875 33.015625 
L 88.921875 0 
L 79.890625 0 
L 79.890625 32.71875 
Q 79.890625 40.578125 77.09375 44.375 
Q 74.3125 48.1875 68.609375 48.1875 
Q 61.625 48.1875 57.5625 43.546875 
Q 53.515625 38.921875 53.515625 30.90625 
L 53.515625 0 
L 44.484375 0 
L 44.484375 32.71875 
Q 44.484375 40.625 41.703125 44.40625 
Q 38.921875 48.1875 33.109375 48.1875 
Q 26.21875 48.1875 22.15625 43.53125 
Q 18.109375 38.875 18.109375 30.90625 
L 18.109375 0 
L 9.078125 0 
L 9.078125 54.6875 
L 18.109375 54.6875 
L 18.109375 46.1875 
Q 21.1875 51.21875 25.484375 53.609375 
Q 29.78125 56 35.6875 56 
Q 41.65625 56 45.828125 52.96875 
Q 50 49.953125 52 44.1875 
z
" id="DejaVuSans-109"/>
      <path d="M 18.109375 8.203125 
L 18.109375 -20.796875 
L 9.078125 -20.796875 
L 9.078125 54.6875 
L 18.109375 54.6875 
L 18.109375 46.390625 
Q 20.953125 51.265625 25.265625 53.625 
Q 29.59375 56 35.59375 56 
Q 45.5625 56 51.78125 48.09375 
Q 58.015625 40.1875 58.015625 27.296875 
Q 58.015625 14.40625 51.78125 6.484375 
Q 45.5625 -1.421875 35.59375 -1.421875 
Q 29.59375 -1.421875 25.265625 0.953125 
Q 20.953125 3.328125 18.109375 8.203125 
z
M 48.6875 27.296875 
Q 48.6875 37.203125 44.609375 42.84375 
Q 40.53125 48.484375 33.40625 48.484375 
Q 26.265625 48.484375 22.1875 42.84375 
Q 18.109375 37.203125 18.109375 27.296875 
Q 18.109375 17.390625 22.1875 11.75 
Q 26.265625 6.109375 33.40625 6.109375 
Q 40.53125 6.109375 44.609375 11.75 
Q 48.6875 17.390625 48.6875 27.296875 
z
" id="DejaVuSans-112"/>
     </defs>
     <g transform="translate(22.254687 228.818769)rotate(-90)scale(0.1 -0.1)">
      <use xlink:href="#DejaVuSans-86"/>
      <use x="68.298828" xlink:href="#DejaVuSans-97"/>
      <use x="129.578125" xlink:href="#DejaVuSans-108"/>
      <use x="157.361328" xlink:href="#DejaVuSans-111"/>
      <use x="218.542969" xlink:href="#DejaVuSans-114"/>
      <use x="259.65625" xlink:href="#DejaVuSans-32"/>
      <use x="291.443359" xlink:href="#DejaVuSans-100"/>
      <use x="354.919922" xlink:href="#DejaVuSans-101"/>
      <use x="416.443359" xlink:href="#DejaVuSans-32"/>
      <use x="448.230469" xlink:href="#DejaVuSans-84"/>
      <use x="509.048828" xlink:href="#DejaVuSans-101"/>
      <use x="570.572266" xlink:href="#DejaVuSans-109"/>
      <use x="667.984375" xlink:href="#DejaVuSans-112"/>
      <use x="731.460938" xlink:href="#DejaVuSans-101"/>
      <use x="792.984375" xlink:href="#DejaVuSans-114"/>
      <use x="834.097656" xlink:href="#DejaVuSans-97"/>
      <use x="895.376953" xlink:href="#DejaVuSans-116"/>
      <use x="934.585938" xlink:href="#DejaVuSans-117"/>
      <use x="997.964844" xlink:href="#DejaVuSans-114"/>
      <use x="1039.078125" xlink:href="#DejaVuSans-97"/>
     </g>
    </g>
   </g>
   <g id="line2d_14">
    <path clip-path="url(#pe26fee96d6)" d="M 73.832727 294.2568 
L 74.244087 294.2568 
L 74.381207 292.298166 
L 75.341048 292.298166 
L 75.478168 290.339532 
L 75.523874 290.339532 
L 75.660994 292.298166 
L 75.706701 292.298166 
L 75.843821 294.2568 
L 75.889528 294.2568 
L 76.026648 290.339532 
L 76.255181 290.339532 
L 76.392301 292.298166 
L 76.438008 292.298166 
L 76.575128 290.339532 
L 76.986488 290.339532 
L 77.123608 288.380898 
L 77.169315 288.380898 
L 77.306435 290.339532 
L 77.352142 290.339532 
L 77.489262 288.380898 
L 77.534968 288.380898 
L 77.672088 290.339532 
L 77.717795 290.339532 
L 77.854915 288.380898 
L 77.900622 288.380898 
L 78.037742 286.422263 
L 78.083448 286.422263 
L 78.220569 290.339532 
L 78.266275 290.339532 
L 78.403395 288.380898 
L 78.814755 288.380898 
L 78.951875 286.422263 
L 78.997582 286.422263 
L 79.134702 284.463629 
L 79.180409 284.463629 
L 79.317529 286.422263 
L 79.546062 286.422263 
L 79.683182 282.504995 
L 79.728889 282.504995 
L 79.866009 284.463629 
L 79.911716 284.463629 
L 80.048836 282.504995 
L 80.277369 282.504995 
L 80.414489 280.546361 
L 80.460196 280.546361 
L 80.597316 284.463629 
L 80.643023 284.463629 
L 80.780143 280.546361 
L 80.825849 280.546361 
L 80.962969 284.463629 
L 81.008676 284.463629 
L 81.145796 282.504995 
L 81.92281 282.504995 
L 82.05993 280.546361 
L 82.105636 280.546361 
L 82.242756 282.504995 
L 82.47129 282.504995 
L 82.60841 280.546361 
L 83.751077 280.546361 
L 83.888197 278.587727 
L 83.933903 278.587727 
L 84.071024 280.546361 
L 84.11673 280.546361 
L 84.25385 276.629093 
L 84.299557 276.629093 
L 84.436677 278.587727 
L 84.848037 278.587727 
L 84.985157 276.629093 
L 85.762171 276.629093 
L 85.899291 278.587727 
L 85.944997 278.587727 
L 86.082117 275.649776 
L 86.127824 275.649776 
L 86.264944 276.629093 
L 86.310651 276.629093 
L 86.447771 275.649776 
L 86.493478 275.649776 
L 86.630598 276.629093 
L 86.859131 276.629093 
L 86.996251 275.649776 
L 87.041958 275.649776 
L 87.179078 272.711824 
L 87.773265 272.711824 
L 87.910385 270.75319 
L 88.138918 270.75319 
L 88.276038 268.794556 
L 88.504571 268.794556 
L 88.641691 270.75319 
L 88.870225 270.75319 
L 89.007345 268.794556 
L 89.053052 268.794556 
L 89.190172 270.75319 
L 89.235878 270.75319 
L 89.372998 268.794556 
L 89.784358 268.794556 
L 89.921479 266.835922 
L 90.150012 266.835922 
L 90.287132 268.794556 
L 90.515665 268.794556 
L 90.652785 266.835922 
L 90.698492 266.835922 
L 90.835612 268.794556 
L 90.881319 268.794556 
L 91.018439 266.835922 
L 91.064145 266.835922 
L 91.201266 264.877288 
L 91.429799 264.877288 
L 91.566919 266.835922 
L 91.612626 266.835922 
L 91.749746 264.877288 
L 91.795452 264.877288 
L 91.932572 266.835922 
L 91.978279 266.835922 
L 92.115399 264.877288 
L 92.161106 264.877288 
L 92.298226 266.835922 
L 92.343933 266.835922 
L 92.481053 264.877288 
L 92.526759 264.877288 
L 92.663879 262.918654 
L 92.709586 262.918654 
L 92.846706 264.877288 
L 93.075239 264.877288 
L 93.212359 262.918654 
L 93.440893 262.918654 
L 93.578013 260.96002 
L 93.62372 260.96002 
L 93.76084 259.980702 
L 93.989373 259.980702 
L 94.126493 260.96002 
L 94.355026 260.96002 
L 94.492146 258.022068 
L 94.72068 258.022068 
L 94.8578 259.980702 
L 94.903507 259.980702 
L 95.040627 258.022068 
L 95.086333 258.022068 
L 95.223453 253.125483 
L 95.26916 253.125483 
L 95.40628 258.022068 
L 95.451987 258.022068 
L 95.589107 253.125483 
L 95.634813 253.125483 
L 95.771933 255.084117 
L 95.81764 255.084117 
L 95.95476 251.166849 
L 96.000467 251.166849 
L 96.137587 255.084117 
L 96.183294 255.084117 
L 96.320414 253.125483 
L 96.36612 253.125483 
L 96.50324 255.084117 
L 96.548947 255.084117 
L 96.686067 251.166849 
L 96.731774 251.166849 
L 96.868894 253.125483 
L 96.9146 253.125483 
L 97.051721 251.166849 
L 97.828734 251.166849 
L 97.965854 249.208215 
L 98.011561 249.208215 
L 98.148681 247.24958 
L 98.194388 247.24958 
L 98.331508 249.208215 
L 98.377214 249.208215 
L 98.514334 247.24958 
L 98.560041 247.24958 
L 98.697161 245.290946 
L 99.291348 245.290946 
L 99.428468 243.332312 
L 99.474175 243.332312 
L 99.611295 245.290946 
L 99.657001 245.290946 
L 99.794121 243.332312 
L 99.839828 243.332312 
L 99.976948 242.352995 
L 100.022655 242.352995 
L 100.159775 243.332312 
L 100.388308 243.332312 
L 100.525428 239.415044 
L 100.936788 239.415044 
L 101.073908 242.352995 
L 101.119615 242.352995 
L 101.256735 237.45641 
L 101.302442 237.45641 
L 101.439562 239.415044 
L 101.668095 239.415044 
L 101.805215 237.45641 
L 101.850922 237.45641 
L 101.988042 235.497776 
L 102.033749 235.497776 
L 102.170869 237.45641 
L 102.216575 237.45641 
L 102.353695 235.497776 
L 102.582229 235.497776 
L 102.719349 233.539141 
L 103.313536 233.539141 
L 103.450656 231.580507 
L 103.679189 231.580507 
L 103.816309 233.539141 
L 104.044843 233.539141 
L 104.181963 231.580507 
L 104.410496 231.580507 
L 104.547616 233.539141 
L 104.593323 233.539141 
L 104.730443 229.621873 
L 104.958976 229.621873 
L 105.096096 231.580507 
L 105.507456 231.580507 
L 105.644576 229.621873 
L 105.690283 229.621873 
L 105.827403 231.580507 
L 105.87311 231.580507 
L 106.01023 229.621873 
L 106.238763 229.621873 
L 106.375883 227.663239 
L 106.787243 227.663239 
L 106.924363 229.621873 
L 106.97007 229.621873 
L 107.10719 227.663239 
L 107.51855 227.663239 
L 107.65567 226.683922 
L 107.701377 226.683922 
L 107.838497 227.663239 
L 108.249857 227.663239 
L 108.386977 226.683922 
L 108.432684 226.683922 
L 108.569804 227.663239 
L 108.61551 227.663239 
L 108.752631 226.683922 
L 108.798337 226.683922 
L 108.935457 227.663239 
L 108.981164 227.663239 
L 109.118284 226.683922 
L 109.163991 226.683922 
L 109.301111 223.745971 
L 110.443778 223.745971 
L 110.580898 221.787337 
L 110.809431 221.787337 
L 110.946551 223.745971 
L 110.992258 223.745971 
L 111.129378 219.828702 
L 111.175085 219.828702 
L 111.312205 221.787337 
L 111.357911 221.787337 
L 111.495031 219.828702 
L 111.540738 219.828702 
L 111.677858 223.745971 
L 112.089218 223.745971 
L 112.226338 221.787337 
L 112.454872 221.787337 
L 112.591992 219.828702 
L 112.637698 219.828702 
L 112.774818 221.787337 
L 112.820525 221.787337 
L 112.957645 219.828702 
L 113.186178 219.828702 
L 113.323298 221.787337 
L 113.369005 221.787337 
L 113.506125 219.828702 
L 114.100312 219.828702 
L 114.237432 217.870068 
L 114.283139 217.870068 
L 114.420259 219.828702 
L 115.014446 219.828702 
L 115.151566 217.870068 
L 115.197272 217.870068 
L 115.334392 219.828702 
L 115.380099 219.828702 
L 115.517219 217.870068 
L 115.745752 217.870068 
L 115.882873 219.828702 
L 116.111406 219.828702 
L 116.248526 215.911434 
L 116.294233 215.911434 
L 116.431353 217.870068 
L 117.57402 217.870068 
L 117.71114 215.911434 
L 117.939673 215.911434 
L 118.076793 217.870068 
L 118.305327 217.870068 
L 118.442447 215.911434 
L 118.67098 215.911434 
L 118.8081 217.870068 
L 118.853807 217.870068 
L 118.990927 215.911434 
L 119.036633 215.911434 
L 119.173753 217.870068 
L 119.402287 217.870068 
L 119.539407 215.911434 
L 119.585114 215.911434 
L 119.722234 213.9528 
L 119.76794 213.9528 
L 119.90506 217.870068 
L 120.133594 217.870068 
L 120.270714 215.911434 
L 120.31642 215.911434 
L 120.453541 219.828702 
L 120.499247 219.828702 
L 120.636367 217.870068 
L 121.047727 217.870068 
L 121.184847 215.911434 
L 121.230554 215.911434 
L 121.367674 217.870068 
L 121.413381 217.870068 
L 121.550501 215.911434 
L 122.144688 215.911434 
L 122.281808 213.9528 
L 122.327514 213.9528 
L 122.464634 215.911434 
L 123.058821 215.911434 
L 123.195941 217.870068 
L 123.241648 217.870068 
L 123.378768 213.9528 
L 123.607301 213.9528 
L 123.744421 215.911434 
L 124.338608 215.911434 
L 124.475728 213.9528 
L 124.521435 213.9528 
L 124.658555 215.911434 
L 124.704262 215.911434 
L 124.841382 213.9528 
L 124.887088 213.9528 
L 125.024208 215.911434 
L 125.069915 215.911434 
L 125.207035 213.9528 
L 125.252742 213.9528 
L 125.389862 215.911434 
L 125.435569 215.911434 
L 125.572689 213.9528 
L 125.801222 213.9528 
L 125.938342 211.994166 
L 125.984049 211.994166 
L 126.121169 213.9528 
L 126.166875 213.9528 
L 126.303995 215.911434 
L 126.349702 215.911434 
L 126.486822 213.9528 
L 126.532529 213.9528 
L 126.669649 211.994166 
L 126.715356 211.994166 
L 126.852476 213.9528 
L 126.898182 213.9528 
L 127.035302 215.911434 
L 127.263836 215.911434 
L 127.400956 213.9528 
L 127.446662 213.9528 
L 127.583783 211.994166 
L 127.995143 211.994166 
L 128.132263 213.9528 
L 128.177969 213.9528 
L 128.315089 211.994166 
L 128.360796 211.994166 
L 128.497916 215.911434 
L 128.543623 215.911434 
L 128.680743 213.9528 
L 128.72645 213.9528 
L 128.86357 211.994166 
L 128.909276 211.994166 
L 129.046396 213.9528 
L 129.092103 213.9528 
L 129.229223 211.994166 
L 129.27493 211.994166 
L 129.41205 213.9528 
L 129.640583 213.9528 
L 129.777703 215.911434 
L 129.82341 215.911434 
L 129.96053 213.9528 
L 130.006237 213.9528 
L 130.143357 211.014849 
L 130.189063 211.014849 
L 130.326183 211.994166 
L 131.103197 211.994166 
L 131.240317 211.014849 
L 131.286024 211.014849 
L 131.423144 211.994166 
L 131.834504 211.994166 
L 131.971624 213.9528 
L 132.01733 213.9528 
L 132.15445 211.994166 
L 132.748637 211.994166 
L 132.885757 213.9528 
L 132.931464 213.9528 
L 133.068584 211.994166 
L 133.297117 211.994166 
L 133.434238 211.014849 
L 133.845598 211.014849 
L 133.982718 209.056215 
L 134.211251 209.056215 
L 134.348371 211.014849 
L 134.394078 211.014849 
L 134.531198 211.994166 
L 134.759731 211.994166 
L 134.896851 211.014849 
L 134.942558 211.014849 
L 135.079678 211.994166 
L 135.125385 211.994166 
L 135.262505 211.014849 
L 136.039518 211.014849 
L 136.176638 211.994166 
L 136.222345 211.994166 
L 136.359465 211.014849 
L 136.587998 211.014849 
L 136.725118 209.056215 
L 136.953652 209.056215 
L 137.090772 206.118263 
L 137.136479 206.118263 
L 137.273599 209.056215 
L 137.319305 209.056215 
L 137.456425 211.014849 
L 137.502132 211.014849 
L 137.639252 209.056215 
L 137.684959 209.056215 
L 137.822079 211.014849 
L 137.867785 211.014849 
L 138.004905 206.118263 
L 138.050612 206.118263 
L 138.187732 209.056215 
L 138.781919 209.056215 
L 138.919039 206.118263 
L 138.964746 206.118263 
L 139.101866 209.056215 
L 139.147572 209.056215 
L 139.284693 206.118263 
L 139.513226 206.118263 
L 139.650346 209.056215 
L 139.696053 209.056215 
L 139.833173 206.118263 
L 140.610186 206.118263 
L 140.747306 204.159629 
L 140.97584 204.159629 
L 141.11296 209.056215 
L 141.158666 209.056215 
L 141.295786 204.159629 
L 141.707147 204.159629 
L 141.844267 206.118263 
L 142.986934 206.118263 
L 143.124054 204.159629 
L 143.16976 204.159629 
L 143.30688 206.118263 
L 143.352587 206.118263 
L 143.489707 204.159629 
L 144.083894 204.159629 
L 144.221014 202.200995 
L 144.632374 202.200995 
L 144.769494 204.159629 
L 144.998027 204.159629 
L 145.135148 206.118263 
L 145.180854 206.118263 
L 145.317974 202.200995 
L 145.729334 202.200995 
L 145.866454 204.159629 
L 145.912161 204.159629 
L 146.049281 202.200995 
L 146.277814 202.200995 
L 146.414935 204.159629 
L 146.460641 204.159629 
L 146.597761 202.200995 
L 146.826295 202.200995 
L 146.963415 204.159629 
L 147.009121 204.159629 
L 147.146241 202.200995 
L 147.191948 202.200995 
L 147.329068 204.159629 
L 147.374775 204.159629 
L 147.511895 202.200995 
L 147.740428 202.200995 
L 147.877548 200.242361 
L 148.106082 200.242361 
L 148.243202 202.200995 
L 149.020215 202.200995 
L 149.157335 200.242361 
L 149.203042 200.242361 
L 149.340162 204.159629 
L 149.568695 204.159629 
L 149.705815 202.200995 
L 149.751522 202.200995 
L 149.888642 200.242361 
L 149.934349 200.242361 
L 150.071469 202.200995 
L 150.117176 202.200995 
L 150.254296 200.242361 
L 150.300002 200.242361 
L 150.437122 202.200995 
L 150.848482 202.200995 
L 150.985602 200.242361 
L 151.031309 200.242361 
L 151.168429 202.200995 
L 151.214136 202.200995 
L 151.351256 200.242361 
L 151.579789 200.242361 
L 151.716909 198.283727 
L 151.762616 198.283727 
L 151.899736 200.242361 
L 151.945443 200.242361 
L 152.082563 202.200995 
L 152.128269 202.200995 
L 152.26539 200.242361 
L 152.493923 200.242361 
L 152.631043 202.200995 
L 152.859576 202.200995 
L 152.996696 200.242361 
L 153.042403 200.242361 
L 153.179523 198.283727 
L 153.22523 198.283727 
L 153.36235 200.242361 
L 153.77371 200.242361 
L 153.91083 198.283727 
L 154.139363 198.283727 
L 154.276483 200.242361 
L 154.32219 200.242361 
L 154.45931 198.283727 
L 155.053497 198.283727 
L 155.190617 200.242361 
L 155.236324 200.242361 
L 155.373444 198.283727 
L 155.967631 198.283727 
L 156.104751 202.200995 
L 156.150457 202.200995 
L 156.287577 198.283727 
L 156.698937 198.283727 
L 156.836057 196.325093 
L 156.881764 196.325093 
L 157.018884 198.283727 
L 157.064591 198.283727 
L 157.201711 196.325093 
L 157.613071 196.325093 
L 157.750191 198.283727 
L 157.795898 198.283727 
L 157.933018 196.325093 
L 157.978724 196.325093 
L 158.115845 194.366459 
L 158.161551 194.366459 
L 158.298671 198.283727 
L 158.344378 198.283727 
L 158.481498 194.366459 
L 158.710031 194.366459 
L 158.847151 196.325093 
L 159.075685 196.325093 
L 159.212805 194.366459 
L 159.806992 194.366459 
L 159.944112 196.325093 
L 159.989818 196.325093 
L 160.126938 194.366459 
L 160.721125 194.366459 
L 160.858245 193.387141 
L 161.818086 193.387141 
L 161.955206 194.366459 
L 162.000912 194.366459 
L 162.138032 190.44919 
L 162.183739 190.44919 
L 162.320859 193.387141 
L 162.549392 193.387141 
L 162.686512 194.366459 
L 162.732219 194.366459 
L 162.869339 190.44919 
L 162.915046 190.44919 
L 163.052166 188.490556 
L 163.097873 188.490556 
L 163.234993 193.387141 
L 163.280699 193.387141 
L 163.417819 190.44919 
L 163.646353 190.44919 
L 163.783473 188.490556 
L 163.829179 188.490556 
L 163.9663 190.44919 
L 164.012006 190.44919 
L 164.149126 188.490556 
L 164.194833 188.490556 
L 164.331953 190.44919 
L 164.37766 190.44919 
L 164.51478 186.531922 
L 164.560486 186.531922 
L 164.697606 190.44919 
L 164.743313 190.44919 
L 164.880433 188.490556 
L 165.47462 188.490556 
L 165.61174 190.44919 
L 165.657447 190.44919 
L 165.794567 186.531922 
L 165.840273 186.531922 
L 165.977393 188.490556 
L 166.205927 188.490556 
L 166.343047 186.531922 
L 166.388754 186.531922 
L 166.525874 188.490556 
L 166.754407 188.490556 
L 166.891527 186.531922 
L 166.937234 186.531922 
L 167.074354 188.490556 
L 167.12006 188.490556 
L 167.25718 186.531922 
L 167.485714 186.531922 
L 167.622834 188.490556 
L 167.668541 188.490556 
L 167.805661 186.531922 
L 167.851367 186.531922 
L 167.988487 184.573288 
L 168.034194 184.573288 
L 168.171314 186.531922 
L 168.217021 186.531922 
L 168.354141 184.573288 
L 168.399847 184.573288 
L 168.536967 186.531922 
L 168.765501 186.531922 
L 168.902621 188.490556 
L 168.948328 188.490556 
L 169.085448 184.573288 
L 169.131154 184.573288 
L 169.268274 186.531922 
L 169.496808 186.531922 
L 169.633928 188.490556 
L 169.679634 188.490556 
L 169.816755 184.573288 
L 170.045288 184.573288 
L 170.182408 186.531922 
L 170.228115 186.531922 
L 170.365235 184.573288 
L 171.142248 184.573288 
L 171.279368 182.614654 
L 171.325075 182.614654 
L 171.462195 184.573288 
L 171.507902 184.573288 
L 171.645022 180.65602 
L 171.690728 180.65602 
L 171.827848 182.614654 
L 173.153342 182.614654 
L 173.290462 184.573288 
L 173.336169 184.573288 
L 173.473289 182.614654 
L 173.518996 182.614654 
L 173.656116 180.65602 
L 174.798783 180.65602 
L 174.935903 177.718068 
L 174.981609 177.718068 
L 175.118729 180.65602 
L 175.530089 180.65602 
L 175.66721 178.697385 
L 175.712916 178.697385 
L 175.850036 180.65602 
L 175.895743 180.65602 
L 176.032863 178.697385 
L 176.62705 178.697385 
L 176.76417 180.65602 
L 176.809876 180.65602 
L 176.946997 178.697385 
L 177.17553 178.697385 
L 177.31265 180.65602 
L 177.358357 180.65602 
L 177.495477 178.697385 
L 177.906837 178.697385 
L 178.043957 177.718068 
L 178.089664 177.718068 
L 178.226784 178.697385 
L 178.27249 178.697385 
L 178.40961 177.718068 
L 178.638144 177.718068 
L 178.775264 178.697385 
L 178.82097 178.697385 
L 178.95809 177.718068 
L 179.369451 177.718068 
L 179.506571 174.780117 
L 179.735104 174.780117 
L 179.872224 177.718068 
L 180.283584 177.718068 
L 180.420704 174.780117 
L 180.466411 174.780117 
L 180.603531 172.821483 
L 180.649238 172.821483 
L 180.786358 174.780117 
L 181.197718 174.780117 
L 181.334838 177.718068 
L 181.380544 177.718068 
L 181.517664 174.780117 
L 181.929025 174.780117 
L 182.066145 172.821483 
L 182.111851 172.821483 
L 182.248971 174.780117 
L 182.660331 174.780117 
L 182.797452 170.862849 
L 182.843158 170.862849 
L 182.980278 172.821483 
L 183.025985 172.821483 
L 183.163105 174.780117 
L 183.208812 174.780117 
L 183.345932 172.821483 
L 183.391638 172.821483 
L 183.528758 174.780117 
L 183.574465 174.780117 
L 183.711585 172.821483 
L 184.122945 172.821483 
L 184.260065 170.862849 
L 185.402732 170.862849 
L 185.539852 168.904215 
L 185.768386 168.904215 
L 185.905506 166.94558 
L 185.951212 166.94558 
L 186.088332 168.904215 
L 186.316866 168.904215 
L 186.453986 166.94558 
L 186.499693 166.94558 
L 186.636813 164.986946 
L 186.682519 164.986946 
L 186.819639 166.94558 
L 186.865346 166.94558 
L 187.002466 168.904215 
L 187.048173 168.904215 
L 187.185293 166.94558 
L 187.77948 166.94558 
L 187.9166 164.986946 
L 187.962306 164.986946 
L 188.099426 166.94558 
L 188.510786 166.94558 
L 188.647907 168.904215 
L 188.693613 168.904215 
L 188.830733 164.986946 
L 188.87644 164.986946 
L 189.01356 166.94558 
L 189.059267 166.94558 
L 189.196387 163.028312 
L 189.242093 163.028312 
L 189.379213 164.986946 
L 189.607747 164.986946 
L 189.744867 166.94558 
L 189.9734 166.94558 
L 190.11052 164.986946 
L 190.156227 164.986946 
L 190.293347 163.028312 
L 191.618841 163.028312 
L 191.755961 160.090361 
L 191.801667 160.090361 
L 191.938787 163.028312 
L 191.984494 163.028312 
L 192.121614 162.048995 
L 193.629935 162.048995 
L 193.767055 160.090361 
L 193.812761 160.090361 
L 193.949881 162.048995 
L 194.178415 162.048995 
L 194.315535 160.090361 
L 194.726895 160.090361 
L 194.864015 162.048995 
L 194.909722 162.048995 
L 195.046842 157.15241 
L 195.092548 157.15241 
L 195.229668 160.090361 
L 195.823855 160.090361 
L 195.960975 157.15241 
L 196.189509 157.15241 
L 196.326629 160.090361 
L 196.372335 160.090361 
L 196.509455 157.15241 
L 196.737989 157.15241 
L 196.875109 160.090361 
L 196.920816 160.090361 
L 197.057936 157.15241 
L 198.383429 157.15241 
L 198.520549 155.193776 
L 199.663216 155.193776 
L 199.800336 157.15241 
L 200.02887 157.15241 
L 200.16599 153.235141 
L 200.211696 153.235141 
L 200.348817 155.193776 
L 200.760177 155.193776 
L 200.897297 153.235141 
L 201.12583 153.235141 
L 201.26295 155.193776 
L 201.308657 155.193776 
L 201.445777 151.276507 
L 201.491483 151.276507 
L 201.628604 155.193776 
L 201.67431 155.193776 
L 201.81143 153.235141 
L 201.857137 153.235141 
L 201.994257 155.193776 
L 202.039964 155.193776 
L 202.177084 151.276507 
L 202.22279 151.276507 
L 202.35991 155.193776 
L 202.405617 155.193776 
L 202.542737 153.235141 
L 202.771271 153.235141 
L 202.908391 151.276507 
L 202.954097 151.276507 
L 203.091217 153.235141 
L 203.319751 153.235141 
L 203.456871 151.276507 
L 203.502577 151.276507 
L 203.639697 155.193776 
L 203.685404 155.193776 
L 203.822524 153.235141 
L 203.868231 153.235141 
L 204.005351 151.276507 
L 204.051058 151.276507 
L 204.188178 153.235141 
L 204.599538 153.235141 
L 204.736658 151.276507 
L 204.782364 151.276507 
L 204.919484 153.235141 
L 205.148018 153.235141 
L 205.285138 151.276507 
L 205.513671 151.276507 
L 205.650791 153.235141 
L 205.696498 153.235141 
L 205.833618 151.276507 
L 206.610632 151.276507 
L 206.747752 153.235141 
L 206.793458 153.235141 
L 206.930578 151.276507 
L 207.159112 151.276507 
L 207.296232 153.235141 
L 207.341938 153.235141 
L 207.479059 151.276507 
L 207.524765 151.276507 
L 207.661885 149.317873 
L 207.707592 149.317873 
L 207.844712 151.276507 
L 208.073245 151.276507 
L 208.210365 149.317873 
L 208.438899 149.317873 
L 208.576019 151.276507 
L 208.804552 151.276507 
L 208.941672 149.317873 
L 208.987379 149.317873 
L 209.124499 151.276507 
L 209.353032 151.276507 
L 209.490152 149.317873 
L 209.535859 149.317873 
L 209.672979 153.235141 
L 209.718686 153.235141 
L 209.855806 151.276507 
L 209.901513 151.276507 
L 210.038633 149.317873 
L 210.084339 149.317873 
L 210.221459 147.359239 
L 210.267166 147.359239 
L 210.404286 149.317873 
L 210.815646 149.317873 
L 210.952766 147.359239 
L 210.998473 147.359239 
L 211.135593 149.317873 
L 211.364126 149.317873 
L 211.501246 145.400605 
L 211.72978 145.400605 
L 211.8669 149.317873 
L 211.912606 149.317873 
L 212.049726 147.359239 
L 212.461087 147.359239 
L 212.598207 145.400605 
L 212.643913 145.400605 
L 212.781033 147.359239 
L 213.009567 147.359239 
L 213.146687 145.400605 
L 213.192393 145.400605 
L 213.329514 147.359239 
L 213.37522 147.359239 
L 213.51234 149.317873 
L 213.740874 149.317873 
L 213.877994 145.400605 
L 213.9237 145.400605 
L 214.06082 147.359239 
L 214.106527 147.359239 
L 214.243647 145.400605 
L 214.472181 145.400605 
L 214.609301 144.421288 
L 214.837834 144.421288 
L 214.974954 145.400605 
L 215.203487 145.400605 
L 215.340607 144.421288 
L 215.386314 144.421288 
L 215.523434 141.483337 
L 215.569141 141.483337 
L 215.706261 145.400605 
L 215.751968 145.400605 
L 215.889088 144.421288 
L 215.934794 144.421288 
L 216.071914 141.483337 
L 216.117621 141.483337 
L 216.254741 144.421288 
L 216.666101 144.421288 
L 216.803221 141.483337 
L 217.214581 141.483337 
L 217.351701 144.421288 
L 217.397408 144.421288 
L 217.534528 139.524702 
L 217.763061 139.524702 
L 217.900181 141.483337 
L 218.128715 141.483337 
L 218.265835 139.524702 
L 218.311542 139.524702 
L 218.448662 137.566068 
L 218.494368 137.566068 
L 218.631488 139.524702 
L 218.677195 139.524702 
L 218.814315 137.566068 
L 219.042848 137.566068 
L 219.179969 139.524702 
L 219.225675 139.524702 
L 219.362795 137.566068 
L 219.591329 137.566068 
L 219.728449 135.607434 
L 219.956982 135.607434 
L 220.094102 133.6488 
L 220.139809 133.6488 
L 220.276929 137.566068 
L 220.322636 137.566068 
L 220.459756 135.607434 
L 221.053942 135.607434 
L 221.191062 137.566068 
L 221.236769 137.566068 
L 221.373889 135.607434 
L 221.785249 135.607434 
L 221.922369 137.566068 
L 221.968076 137.566068 
L 222.105196 133.6488 
L 222.333729 133.6488 
L 222.470849 131.690166 
L 222.516556 131.690166 
L 222.653676 133.6488 
L 223.065036 133.6488 
L 223.202156 135.607434 
L 223.247863 135.607434 
L 223.384983 131.690166 
L 223.43069 131.690166 
L 223.56781 133.6488 
L 223.796343 133.6488 
L 223.933463 131.690166 
L 224.893303 131.690166 
L 225.030424 133.6488 
L 225.07613 133.6488 
L 225.21325 128.752215 
L 225.258957 128.752215 
L 225.396077 129.731532 
L 225.441784 129.731532 
L 225.578904 131.690166 
L 225.990264 131.690166 
L 226.127384 129.731532 
L 226.17309 129.731532 
L 226.310211 131.690166 
L 226.355917 131.690166 
L 226.493037 129.731532 
L 227.087224 129.731532 
L 227.224344 128.752215 
L 227.635704 128.752215 
L 227.772824 125.814263 
L 227.818531 125.814263 
L 227.955651 128.752215 
L 228.184184 128.752215 
L 228.321304 129.731532 
L 228.367011 129.731532 
L 228.504131 125.814263 
L 229.829625 125.814263 
L 229.966745 123.855629 
L 230.195278 123.855629 
L 230.332398 125.814263 
L 230.378105 125.814263 
L 230.515225 123.855629 
L 230.743758 123.855629 
L 230.880879 125.814263 
L 231.475065 125.814263 
L 231.612185 123.855629 
L 232.023545 123.855629 
L 232.160666 121.896995 
L 232.206372 121.896995 
L 232.343492 123.855629 
L 233.120506 123.855629 
L 233.257626 125.814263 
L 233.486159 125.814263 
L 233.623279 121.896995 
L 233.668986 121.896995 
L 233.806106 119.938361 
L 233.851813 119.938361 
L 233.988933 121.896995 
L 234.400293 121.896995 
L 234.537413 119.938361 
L 234.58312 119.938361 
L 234.72024 117.979727 
L 234.765946 117.979727 
L 234.903066 121.896995 
L 234.948773 121.896995 
L 235.085893 119.938361 
L 236.411387 119.938361 
L 236.548507 121.896995 
L 236.594213 121.896995 
L 236.731333 119.938361 
L 236.959867 119.938361 
L 237.096987 116.021093 
L 237.142694 116.021093 
L 237.279814 117.979727 
L 237.874 117.979727 
L 238.011121 116.021093 
L 238.056827 116.021093 
L 238.193947 117.979727 
L 238.605307 117.979727 
L 238.742427 116.021093 
L 238.788134 116.021093 
L 238.925254 117.979727 
L 238.970961 117.979727 
L 239.108081 116.021093 
L 239.336614 116.021093 
L 239.473734 114.062459 
L 239.702268 114.062459 
L 239.839388 116.021093 
L 239.885094 116.021093 
L 240.022214 114.062459 
L 240.433575 114.062459 
L 240.570695 116.021093 
L 240.799228 116.021093 
L 240.936348 114.062459 
L 240.982055 114.062459 
L 241.119175 113.083141 
L 241.164881 113.083141 
L 241.302001 114.062459 
L 242.261842 114.062459 
L 242.398962 113.083141 
L 242.810322 113.083141 
L 242.947442 114.062459 
L 242.993149 114.062459 
L 243.130269 113.083141 
L 243.358802 113.083141 
L 243.495922 111.124507 
L 243.541629 111.124507 
L 243.678749 114.062459 
L 243.724455 114.062459 
L 243.861576 111.124507 
L 243.907282 111.124507 
L 244.044402 113.083141 
L 244.090109 113.083141 
L 244.227229 111.124507 
L 245.187069 111.124507 
L 245.324189 113.083141 
L 245.369896 113.083141 
L 245.507016 111.124507 
L 245.735549 111.124507 
L 245.872669 113.083141 
L 245.918376 113.083141 
L 246.055496 108.186556 
L 246.101203 108.186556 
L 246.238323 111.124507 
L 246.28403 111.124507 
L 246.42115 108.186556 
L 246.466856 108.186556 
L 246.603976 111.124507 
L 246.649683 111.124507 
L 246.786803 106.227922 
L 246.83251 106.227922 
L 246.96963 111.124507 
L 247.015336 111.124507 
L 247.152456 108.186556 
L 247.198163 108.186556 
L 247.335283 106.227922 
L 247.563817 106.227922 
L 247.700937 111.124507 
L 247.746643 111.124507 
L 247.883763 108.186556 
L 248.112297 108.186556 
L 248.249417 106.227922 
L 248.843604 106.227922 
L 248.980724 104.269288 
L 249.02643 104.269288 
L 249.16355 106.227922 
L 249.209257 106.227922 
L 249.346377 104.269288 
L 249.757737 104.269288 
L 249.894857 106.227922 
L 250.123391 106.227922 
L 250.260511 108.186556 
L 250.306217 108.186556 
L 250.443337 106.227922 
L 250.489044 106.227922 
L 250.626164 104.269288 
L 250.854698 104.269288 
L 250.991818 106.227922 
L 251.037524 106.227922 
L 251.174644 104.269288 
L 251.586004 104.269288 
L 251.723124 106.227922 
L 251.768831 106.227922 
L 251.905951 104.269288 
L 251.951658 104.269288 
L 252.088778 102.310654 
L 252.134485 102.310654 
L 252.271605 104.269288 
L 252.317311 104.269288 
L 252.454431 102.310654 
L 252.682965 102.310654 
L 252.820085 104.269288 
L 252.865791 104.269288 
L 253.002911 102.310654 
L 253.231445 102.310654 
L 253.368565 100.35202 
L 253.414272 100.35202 
L 253.551392 102.310654 
L 253.962752 102.310654 
L 254.099872 104.269288 
L 254.145578 104.269288 
L 254.282698 102.310654 
L 254.511232 102.310654 
L 254.648352 98.393385 
L 254.694059 98.393385 
L 254.831179 102.310654 
L 255.059712 102.310654 
L 255.196832 100.35202 
L 255.425365 100.35202 
L 255.562486 102.310654 
L 255.791019 102.310654 
L 255.928139 98.393385 
L 255.973846 98.393385 
L 256.110966 102.310654 
L 256.156672 102.310654 
L 256.293792 100.35202 
L 256.522326 100.35202 
L 256.659446 102.310654 
L 256.705152 102.310654 
L 256.842273 100.35202 
L 257.253633 100.35202 
L 257.390753 102.310654 
L 257.436459 102.310654 
L 257.573579 100.35202 
L 257.802113 100.35202 
L 257.939233 102.310654 
L 257.98494 102.310654 
L 258.12206 98.393385 
L 258.167766 98.393385 
L 258.304886 100.35202 
L 258.350593 100.35202 
L 258.487713 98.393385 
L 258.899073 98.393385 
L 259.036193 96.434751 
L 259.0819 96.434751 
L 259.21902 98.393385 
L 259.264727 98.393385 
L 259.401847 96.434751 
L 259.813207 96.434751 
L 259.950327 98.393385 
L 260.17886 98.393385 
L 260.31598 96.434751 
L 260.361687 96.434751 
L 260.498807 95.455434 
L 260.544514 95.455434 
L 260.681634 98.393385 
L 260.910167 98.393385 
L 261.047287 95.455434 
L 261.641474 95.455434 
L 261.778594 96.434751 
L 261.824301 96.434751 
L 261.961421 95.455434 
L 262.007127 95.455434 
L 262.144247 96.434751 
L 262.189954 96.434751 
L 262.327074 95.455434 
L 262.372781 95.455434 
L 262.509901 92.517483 
L 262.555607 92.517483 
L 262.692728 95.455434 
L 262.921261 95.455434 
L 263.058381 92.517483 
L 263.104088 92.517483 
L 263.241208 90.558849 
L 263.286914 90.558849 
L 263.424034 92.517483 
L 263.469741 92.517483 
L 263.606861 95.455434 
L 263.652568 95.455434 
L 263.789688 90.558849 
L 263.835395 90.558849 
L 263.972515 92.517483 
L 264.566701 92.517483 
L 264.703821 90.558849 
L 265.115182 90.558849 
L 265.252302 95.455434 
L 265.298008 95.455434 
L 265.435128 92.517483 
L 265.846488 92.517483 
L 265.983608 90.558849 
L 266.029315 90.558849 
L 266.166435 92.517483 
L 266.394969 92.517483 
L 266.532089 90.558849 
L 266.577795 90.558849 
L 266.714915 92.517483 
L 266.943449 92.517483 
L 267.080569 90.558849 
L 267.126275 90.558849 
L 267.263395 88.600215 
L 267.309102 88.600215 
L 267.446222 90.558849 
L 267.491929 90.558849 
L 267.629049 92.517483 
L 267.674756 92.517483 
L 267.811876 88.600215 
L 267.857582 88.600215 
L 267.994702 90.558849 
L 268.771716 90.558849 
L 268.908836 92.517483 
L 268.954543 92.517483 
L 269.091663 90.558849 
L 269.68585 90.558849 
L 269.82297 88.600215 
L 269.868676 88.600215 
L 270.005796 92.517483 
L 270.051503 92.517483 
L 270.188623 90.558849 
L 270.23433 90.558849 
L 270.37145 88.600215 
L 270.417156 88.600215 
L 270.554276 90.558849 
L 270.599983 90.558849 
L 270.737103 86.64158 
L 270.78281 86.64158 
L 270.91993 88.600215 
L 270.965637 88.600215 
L 271.102757 86.64158 
L 271.148463 86.64158 
L 271.285583 88.600215 
L 271.33129 88.600215 
L 271.46841 86.64158 
L 271.514117 86.64158 
L 271.651237 90.558849 
L 271.87977 90.558849 
L 272.01689 88.600215 
L 272.062597 88.600215 
L 272.199717 86.64158 
L 272.245424 86.64158 
L 272.382544 90.558849 
L 272.42825 90.558849 
L 272.56537 88.600215 
L 273.525211 88.600215 
L 273.662331 90.558849 
L 273.890864 90.558849 
L 274.027984 88.600215 
L 274.073691 88.600215 
L 274.210811 90.558849 
L 274.256517 90.558849 
L 274.393638 88.600215 
L 274.804998 88.600215 
L 274.942118 86.64158 
L 274.987824 86.64158 
L 275.124944 88.600215 
L 275.719131 88.600215 
L 275.856251 86.64158 
L 275.901958 86.64158 
L 276.039078 88.600215 
L 276.267611 88.600215 
L 276.404731 86.64158 
L 276.450438 86.64158 
L 276.587558 84.682946 
L 276.633265 84.682946 
L 276.770385 86.64158 
L 276.816092 86.64158 
L 276.953212 88.600215 
L 276.998918 88.600215 
L 277.136038 86.64158 
L 277.181745 86.64158 
L 277.318865 88.600215 
L 277.364572 88.600215 
L 277.501692 86.64158 
L 277.730225 86.64158 
L 277.867345 84.682946 
L 277.913052 84.682946 
L 278.050172 86.64158 
L 278.278705 86.64158 
L 278.415825 84.682946 
L 278.644359 84.682946 
L 278.781479 86.64158 
L 278.827185 86.64158 
L 278.964305 82.724312 
L 279.010012 82.724312 
L 279.147132 84.682946 
L 279.192839 84.682946 
L 279.329959 86.64158 
L 279.558492 86.64158 
L 279.695612 82.724312 
L 279.741319 82.724312 
L 279.878439 84.682946 
L 280.106972 84.682946 
L 280.244093 86.64158 
L 280.289799 86.64158 
L 280.426919 82.724312 
L 281.021106 82.724312 
L 281.158226 84.682946 
L 281.203933 84.682946 
L 281.341053 82.724312 
L 281.569586 82.724312 
L 281.706706 84.682946 
L 282.118066 84.682946 
L 282.255186 86.64158 
L 282.300893 86.64158 
L 282.438013 82.724312 
L 282.48372 82.724312 
L 282.62084 84.682946 
L 282.666547 84.682946 
L 282.803667 82.724312 
L 282.849373 82.724312 
L 282.986493 84.682946 
L 283.215027 84.682946 
L 283.352147 82.724312 
L 283.946334 82.724312 
L 284.083454 84.682946 
L 284.494814 84.682946 
L 284.631934 82.724312 
L 285.408947 82.724312 
L 285.546067 80.765678 
L 285.774601 80.765678 
L 285.911721 82.724312 
L 286.323081 82.724312 
L 286.460201 80.765678 
L 286.505908 80.765678 
L 286.643028 82.724312 
L 286.688734 82.724312 
L 286.825854 80.765678 
L 287.237214 80.765678 
L 287.374335 82.724312 
L 287.420041 82.724312 
L 287.557161 80.765678 
L 287.785695 80.765678 
L 287.922815 79.786361 
L 287.968521 79.786361 
L 288.105641 82.724312 
L 288.151348 82.724312 
L 288.288468 79.786361 
L 288.517002 79.786361 
L 288.654122 80.765678 
L 288.699828 80.765678 
L 288.836948 79.786361 
L 289.248308 79.786361 
L 289.385428 80.765678 
L 289.431135 80.765678 
L 289.568255 79.786361 
L 289.613962 79.786361 
L 289.751082 80.765678 
L 289.796789 80.765678 
L 289.933909 79.786361 
L 290.528095 79.786361 
L 290.665215 80.765678 
L 290.710922 80.765678 
L 290.848042 82.724312 
L 290.893749 82.724312 
L 291.030869 80.765678 
L 291.442229 80.765678 
L 291.579349 82.724312 
L 291.625056 82.724312 
L 291.762176 80.765678 
L 293.087669 80.765678 
L 293.22479 79.786361 
L 293.63615 79.786361 
L 293.77327 80.765678 
L 294.001803 80.765678 
L 294.138923 84.682946 
L 294.18463 84.682946 
L 294.32175 80.765678 
L 295.28159 80.765678 
L 295.41871 79.786361 
L 295.647244 79.786361 
L 295.784364 80.765678 
L 295.83007 80.765678 
L 295.96719 79.786361 
L 296.561377 79.786361 
L 296.698497 76.84841 
L 296.744204 76.84841 
L 296.881324 79.786361 
L 297.109857 79.786361 
L 297.246977 76.84841 
L 298.572471 76.84841 
L 298.709591 79.786361 
L 298.755298 79.786361 
L 298.892418 76.84841 
L 298.938124 76.84841 
L 299.075245 79.786361 
L 299.120951 79.786361 
L 299.258071 76.84841 
L 299.486605 76.84841 
L 299.623725 72.931141 
L 299.669431 72.931141 
L 299.806551 76.84841 
L 299.852258 76.84841 
L 299.989378 74.889776 
L 300.217912 74.889776 
L 300.355032 76.84841 
L 300.583565 76.84841 
L 300.720685 74.889776 
L 300.766392 74.889776 
L 300.903512 76.84841 
L 300.949218 76.84841 
L 301.086338 74.889776 
L 301.132045 74.889776 
L 301.269165 76.84841 
L 301.314872 76.84841 
L 301.451992 74.889776 
L 301.680525 74.889776 
L 301.817645 76.84841 
L 301.863352 76.84841 
L 302.000472 74.889776 
L 302.046179 74.889776 
L 302.183299 76.84841 
L 302.229005 76.84841 
L 302.366125 74.889776 
L 302.411832 74.889776 
L 302.548952 79.786361 
L 302.594659 79.786361 
L 302.731779 74.889776 
L 302.777486 74.889776 
L 302.914606 76.84841 
L 302.960312 76.84841 
L 303.097432 74.889776 
L 303.325966 74.889776 
L 303.463086 76.84841 
L 303.691619 76.84841 
L 303.828739 74.889776 
L 303.874446 74.889776 
L 304.011566 76.84841 
L 304.057273 76.84841 
L 304.194393 74.889776 
L 304.240099 74.889776 
L 304.377219 76.84841 
L 304.605753 76.84841 
L 304.742873 74.889776 
L 304.788579 74.889776 
L 304.9257 76.84841 
L 304.971406 76.84841 
L 305.108526 74.889776 
L 305.702713 74.889776 
L 305.839833 76.84841 
L 305.88554 76.84841 
L 306.02266 74.889776 
L 306.43402 74.889776 
L 306.57114 76.84841 
L 306.616847 76.84841 
L 306.753967 74.889776 
L 306.9825 74.889776 
L 307.11962 76.84841 
L 307.165327 76.84841 
L 307.302447 74.889776 
L 307.348154 74.889776 
L 307.485274 76.84841 
L 307.53098 76.84841 
L 307.6681 74.889776 
L 307.713807 74.889776 
L 307.850927 72.931141 
L 307.896634 72.931141 
L 308.033754 74.889776 
L 308.262287 74.889776 
L 308.399407 72.931141 
L 308.445114 72.931141 
L 308.582234 74.889776 
L 308.993594 74.889776 
L 309.130714 76.84841 
L 309.176421 76.84841 
L 309.313541 74.889776 
L 309.542074 74.889776 
L 309.679194 72.931141 
L 309.724901 72.931141 
L 309.862021 74.889776 
L 310.456208 74.889776 
L 310.593328 76.84841 
L 310.821861 76.84841 
L 310.958981 74.889776 
L 311.004688 74.889776 
L 311.141808 76.84841 
L 311.187515 76.84841 
L 311.324635 74.889776 
L 311.370341 74.889776 
L 311.507461 76.84841 
L 311.553168 76.84841 
L 311.690288 74.889776 
L 311.735995 74.889776 
L 311.873115 72.931141 
L 311.918821 72.931141 
L 312.055942 74.889776 
L 312.467302 74.889776 
L 312.604422 72.931141 
L 312.650128 72.931141 
L 312.787248 74.889776 
L 312.832955 74.889776 
L 312.970075 76.84841 
L 313.015782 76.84841 
L 313.152902 74.889776 
L 313.381435 74.889776 
L 313.518555 76.84841 
L 313.929915 76.84841 
L 314.067035 74.889776 
L 314.112742 74.889776 
L 314.249862 76.84841 
L 314.661222 76.84841 
L 314.798342 74.889776 
L 314.844049 74.889776 
L 314.981169 76.84841 
L 315.026876 76.84841 
L 315.163996 74.889776 
L 315.941009 74.889776 
L 316.078129 76.84841 
L 316.306663 76.84841 
L 316.443783 74.889776 
L 317.03797 74.889776 
L 317.17509 72.931141 
L 317.403623 72.931141 
L 317.540743 74.889776 
L 317.58645 74.889776 
L 317.72357 72.931141 
L 318.68341 72.931141 
L 318.82053 70.972507 
L 319.23189 70.972507 
L 319.36901 72.931141 
L 319.414717 72.931141 
L 319.551837 70.972507 
L 319.597544 70.972507 
L 319.734664 69.013873 
L 319.78037 69.013873 
L 319.91749 70.972507 
L 320.328851 70.972507 
L 320.465971 69.013873 
L 320.694504 69.013873 
L 320.831624 70.972507 
L 320.877331 70.972507 
L 321.014451 69.013873 
L 321.242984 69.013873 
L 321.380104 67.055239 
L 321.425811 67.055239 
L 321.562931 69.013873 
L 321.608638 69.013873 
L 321.745758 65.096605 
L 321.791464 65.096605 
L 321.928584 67.055239 
L 321.974291 67.055239 
L 322.111411 69.013873 
L 322.157118 69.013873 
L 322.294238 67.055239 
L 322.339944 67.055239 
L 322.477064 69.013873 
L 322.522771 69.013873 
L 322.659891 67.055239 
L 323.071251 67.055239 
L 323.208371 65.096605 
L 323.254078 65.096605 
L 323.391198 67.055239 
L 323.802558 67.055239 
L 323.939678 65.096605 
L 324.351038 65.096605 
L 324.488158 67.055239 
L 324.533865 67.055239 
L 324.670985 64.117288 
L 324.716692 64.117288 
L 324.853812 65.096605 
L 325.082345 65.096605 
L 325.219465 64.117288 
L 325.265172 64.117288 
L 325.402292 65.096605 
L 325.630825 65.096605 
L 325.767945 67.055239 
L 325.813652 67.055239 
L 325.950772 65.096605 
L 325.996479 65.096605 
L 326.133599 67.055239 
L 326.179306 67.055239 
L 326.316426 64.117288 
L 326.910612 64.117288 
L 327.047732 65.096605 
L 327.093439 65.096605 
L 327.230559 64.117288 
L 327.824746 64.117288 
L 327.961866 62.158654 
L 328.007573 62.158654 
L 328.144693 64.117288 
L 328.190399 64.117288 
L 328.327519 62.158654 
L 330.018667 62.158654 
L 330.155787 59.220702 
L 330.201493 59.220702 
L 330.338613 62.158654 
L 330.749974 62.158654 
L 330.887094 59.220702 
L 330.9328 59.220702 
L 331.06992 62.158654 
L 331.115627 62.158654 
L 331.252747 59.220702 
L 331.298454 59.220702 
L 331.435574 62.158654 
L 331.48128 62.158654 
L 331.6184 59.220702 
L 331.664107 59.220702 
L 331.801227 62.158654 
L 331.846934 62.158654 
L 331.984054 59.220702 
L 332.212587 59.220702 
L 332.349707 57.262068 
L 332.395414 57.262068 
L 332.532534 59.220702 
L 332.578241 59.220702 
L 332.715361 57.262068 
L 332.761067 57.262068 
L 332.898187 59.220702 
L 332.943894 59.220702 
L 333.081014 57.262068 
L 333.126721 57.262068 
L 333.263841 59.220702 
L 333.309548 59.220702 
L 333.446668 62.158654 
L 333.492374 62.158654 
L 333.629494 59.220702 
L 333.675201 59.220702 
L 333.812321 57.262068 
L 333.858028 57.262068 
L 333.995148 59.220702 
L 334.589335 59.220702 
L 334.726455 57.262068 
L 334.772161 57.262068 
L 334.909281 62.158654 
L 334.954988 62.158654 
L 335.092108 59.220702 
L 335.137815 59.220702 
L 335.274935 57.262068 
L 335.320641 57.262068 
L 335.457762 62.158654 
L 335.503468 62.158654 
L 335.640588 59.220702 
L 335.869122 59.220702 
L 336.006242 57.262068 
L 336.051948 57.262068 
L 336.189068 59.220702 
L 336.234775 59.220702 
L 336.371895 62.158654 
L 336.417602 62.158654 
L 336.554722 59.220702 
L 336.600429 59.220702 
L 336.737549 57.262068 
L 336.966082 57.262068 
L 337.103202 59.220702 
L 337.148909 59.220702 
L 337.286029 55.303434 
L 337.331735 55.303434 
L 337.468855 57.262068 
L 338.245869 57.262068 
L 338.382989 55.303434 
L 338.428696 55.303434 
L 338.565816 57.262068 
L 339.525656 57.262068 
L 339.662776 55.303434 
L 339.708483 55.303434 
L 339.845603 57.262068 
L 339.891309 57.262068 
L 340.028429 55.303434 
L 340.074136 55.303434 
L 340.211256 57.262068 
L 340.622616 57.262068 
L 340.759736 55.303434 
L 340.98827 55.303434 
L 341.12539 57.262068 
L 341.719577 57.262068 
L 341.856697 55.303434 
L 341.902403 55.303434 
L 342.039523 57.262068 
L 342.450883 57.262068 
L 342.588004 55.303434 
L 342.63371 55.303434 
L 342.77083 53.3448 
L 342.816537 53.3448 
L 342.953657 57.262068 
L 342.999364 57.262068 
L 343.136484 55.303434 
L 343.547844 55.303434 
L 343.684964 57.262068 
L 343.730671 57.262068 
L 343.867791 53.3448 
L 343.913497 53.3448 
L 344.050617 57.262068 
L 344.096324 57.262068 
L 344.233444 55.303434 
L 344.279151 55.303434 
L 344.416271 57.262068 
L 344.461977 57.262068 
L 344.599097 55.303434 
L 345.010458 55.303434 
L 345.147578 57.262068 
L 345.193284 57.262068 
L 345.330404 55.303434 
L 346.107418 55.303434 
L 346.244538 57.262068 
L 346.290245 57.262068 
L 346.427365 55.303434 
L 346.473071 55.303434 
L 346.610191 57.262068 
L 346.655898 57.262068 
L 346.793018 55.303434 
L 347.021551 55.303434 
L 347.158671 57.262068 
L 347.204378 57.262068 
L 347.341498 59.220702 
L 347.387205 59.220702 
L 347.524325 57.262068 
L 347.570032 57.262068 
L 347.707152 55.303434 
L 347.752858 55.303434 
L 347.889978 53.3448 
L 348.118512 53.3448 
L 348.255632 57.262068 
L 348.484165 57.262068 
L 348.621285 55.303434 
L 348.849819 55.303434 
L 348.986939 57.262068 
L 349.215472 57.262068 
L 349.352592 55.303434 
L 349.581126 55.303434 
L 349.718246 57.262068 
L 350.312432 57.262068 
L 350.449552 55.303434 
L 350.495259 55.303434 
L 350.632379 57.262068 
L 350.678086 57.262068 
L 350.815206 55.303434 
L 350.860913 55.303434 
L 350.998033 57.262068 
L 351.043739 57.262068 
L 351.180859 55.303434 
L 351.226566 55.303434 
L 351.363686 57.262068 
L 351.775046 57.262068 
L 351.912166 59.220702 
L 352.1407 59.220702 
L 352.27782 55.303434 
L 352.323526 55.303434 
L 352.460646 59.220702 
L 352.506353 59.220702 
L 352.643473 55.303434 
L 352.68918 55.303434 
L 352.8263 53.3448 
L 352.872006 53.3448 
L 353.009126 57.262068 
L 353.054833 57.262068 
L 353.191953 55.303434 
L 353.23766 55.303434 
L 353.37478 57.262068 
L 354.151793 57.262068 
L 354.288914 59.220702 
L 354.517447 59.220702 
L 354.654567 57.262068 
L 354.700274 57.262068 
L 354.837394 62.158654 
L 354.8831 62.158654 
L 355.02022 57.262068 
L 355.614407 57.262068 
L 355.751527 53.3448 
L 355.797234 53.3448 
L 355.934354 55.303434 
L 355.980061 55.303434 
L 356.117181 59.220702 
L 356.162887 59.220702 
L 356.300007 57.262068 
L 356.345714 57.262068 
L 356.482834 59.220702 
L 356.711368 59.220702 
L 356.848488 57.262068 
L 357.625501 57.262068 
L 357.762621 59.220702 
L 357.808328 59.220702 
L 357.945448 57.262068 
L 358.539635 57.262068 
L 358.676755 59.220702 
L 358.722461 59.220702 
L 358.859581 57.262068 
L 358.905288 57.262068 
L 359.042408 59.220702 
L 359.088115 59.220702 
L 359.225235 57.262068 
L 359.270942 57.262068 
L 359.408062 59.220702 
L 359.636595 59.220702 
L 359.773715 57.262068 
L 359.819422 57.262068 
L 359.956542 62.158654 
L 360.002248 62.158654 
L 360.139369 59.220702 
L 360.367902 59.220702 
L 360.505022 62.158654 
L 360.916382 62.158654 
L 361.053502 59.220702 
L 361.464862 59.220702 
L 361.601982 57.262068 
L 361.647689 57.262068 
L 361.784809 59.220702 
L 362.013342 59.220702 
L 362.150462 62.158654 
L 362.378996 62.158654 
L 362.516116 59.220702 
L 362.561823 59.220702 
L 362.698943 62.158654 
L 362.744649 62.158654 
L 362.881769 59.220702 
L 362.927476 59.220702 
L 363.064596 62.158654 
L 363.110303 62.158654 
L 363.247423 59.220702 
L 363.293129 59.220702 
L 363.430249 62.158654 
L 363.84161 62.158654 
L 363.97873 57.262068 
L 364.024436 57.262068 
L 364.161556 62.158654 
L 364.39009 62.158654 
L 364.52721 59.220702 
L 364.572916 59.220702 
L 364.710036 62.158654 
L 364.755743 62.158654 
L 364.892863 64.117288 
L 364.93857 64.117288 
L 365.07569 62.158654 
L 365.48705 62.158654 
L 365.62417 57.262068 
L 365.669877 57.262068 
L 365.806997 62.158654 
L 366.218357 62.158654 
L 366.355477 59.220702 
L 366.401184 59.220702 
L 366.538304 64.117288 
L 366.766837 64.117288 
L 366.903957 62.158654 
L 367.315317 62.158654 
L 367.452437 64.117288 
L 367.498144 64.117288 
L 367.635264 62.158654 
L 367.863797 62.158654 
L 368.000917 59.220702 
L 368.046624 59.220702 
L 368.183744 62.158654 
L 368.412278 62.158654 
L 368.549398 59.220702 
L 368.595104 59.220702 
L 368.732224 62.158654 
L 368.777931 62.158654 
L 368.915051 59.220702 
L 369.143584 59.220702 
L 369.280704 62.158654 
L 369.326411 62.158654 
L 369.463531 59.220702 
L 369.509238 59.220702 
L 369.646358 62.158654 
L 369.874891 62.158654 
L 370.012011 59.220702 
L 370.057718 59.220702 
L 370.194838 64.117288 
L 370.240545 64.117288 
L 370.377665 62.158654 
L 370.971852 62.158654 
L 371.108972 59.220702 
L 371.154678 59.220702 
L 371.291798 57.262068 
L 371.337505 57.262068 
L 371.474625 62.158654 
L 371.520332 62.158654 
L 371.657452 59.220702 
L 371.885985 59.220702 
L 372.023105 62.158654 
L 372.068812 62.158654 
L 372.205932 59.220702 
L 372.617292 59.220702 
L 372.754412 62.158654 
L 372.800119 62.158654 
L 372.937239 64.117288 
L 372.982945 64.117288 
L 373.120066 59.220702 
L 373.348599 59.220702 
L 373.485719 62.158654 
L 373.531426 62.158654 
L 373.668546 64.117288 
L 374.445559 64.117288 
L 374.582679 62.158654 
L 375.176866 62.158654 
L 375.313986 64.117288 
L 375.725346 64.117288 
L 375.862466 62.158654 
L 376.091 62.158654 
L 376.22812 64.117288 
L 376.273826 64.117288 
L 376.410946 65.096605 
L 376.456653 65.096605 
L 376.593773 64.117288 
L 376.822307 64.117288 
L 376.959427 65.096605 
L 377.18796 65.096605 
L 377.32508 64.117288 
L 377.919267 64.117288 
L 378.056387 65.096605 
L 378.28492 65.096605 
L 378.42204 64.117288 
L 378.650574 64.117288 
L 378.787694 65.096605 
L 380.478841 65.096605 
L 380.615961 64.117288 
L 380.661668 64.117288 
L 380.798788 65.096605 
L 380.844494 65.096605 
L 380.981614 64.117288 
L 381.210148 64.117288 
L 381.347268 65.096605 
L 381.575801 65.096605 
L 381.712921 64.117288 
L 381.758628 64.117288 
L 381.895748 65.096605 
L 381.941455 65.096605 
L 382.078575 64.117288 
L 382.124281 64.117288 
L 382.261401 65.096605 
L 382.307108 65.096605 
L 382.444228 64.117288 
L 382.489935 64.117288 
L 382.627055 65.096605 
L 382.672762 65.096605 
L 382.809882 67.055239 
L 383.221242 67.055239 
L 383.358362 65.096605 
L 383.404068 65.096605 
L 383.541188 67.055239 
L 383.952549 67.055239 
L 384.089669 64.117288 
L 384.135375 64.117288 
L 384.272495 65.096605 
L 384.501029 65.096605 
L 384.638149 64.117288 
L 384.683855 64.117288 
L 384.820976 67.055239 
L 384.866682 67.055239 
L 385.003802 69.013873 
L 385.049509 69.013873 
L 385.186629 65.096605 
L 385.597989 65.096605 
L 385.735109 67.055239 
L 385.780816 67.055239 
L 385.917936 65.096605 
L 386.146469 65.096605 
L 386.283589 64.117288 
L 386.329296 64.117288 
L 386.466416 65.096605 
L 387.060603 65.096605 
L 387.197723 67.055239 
L 387.24343 67.055239 
L 387.38055 65.096605 
L 388.706043 65.096605 
L 388.843163 64.117288 
L 388.88887 64.117288 
L 389.02599 65.096605 
L 389.071697 65.096605 
L 389.208817 67.055239 
L 389.254523 67.055239 
L 389.391643 65.096605 
L 389.98583 65.096605 
L 390.12295 64.117288 
L 390.168657 64.117288 
L 390.305777 65.096605 
L 391.996924 65.096605 
L 392.134044 67.055239 
L 392.545404 67.055239 
L 392.682524 65.096605 
L 392.728231 65.096605 
L 392.865351 67.055239 
L 392.911058 67.055239 
L 393.048178 65.096605 
L 393.276711 65.096605 
L 393.413831 67.055239 
L 393.459538 67.055239 
L 393.596658 65.096605 
L 394.556498 65.096605 
L 394.693618 67.055239 
L 394.922152 67.055239 
L 395.059272 65.096605 
L 395.653459 65.096605 
L 395.790579 64.117288 
L 395.836285 64.117288 
L 395.973405 65.096605 
L 396.019112 65.096605 
L 396.156232 67.055239 
L 396.201939 67.055239 
L 396.339059 65.096605 
L 396.384765 65.096605 
L 396.521886 67.055239 
L 396.567592 67.055239 
L 396.704712 65.096605 
L 396.750419 65.096605 
L 396.887539 67.055239 
L 396.933246 67.055239 
L 397.070366 64.117288 
L 397.116072 64.117288 
L 397.253192 65.096605 
L 397.664552 65.096605 
L 397.801673 64.117288 
L 398.030206 64.117288 
L 398.167326 65.096605 
L 398.213033 65.096605 
L 398.350153 64.117288 
L 398.395859 64.117288 
L 398.487273 65.096605 
L 398.487273 65.096605 
" style="fill:none;stroke:#1f77b4;stroke-linecap:square;stroke-width:1.5;"/>
   </g>
   <g id="patch_3">
    <path d="M 57.6 306.3024 
L 57.6 41.2992 
" style="fill:none;stroke:#000000;stroke-linecap:square;stroke-linejoin:miter;stroke-width:0.8;"/>
   </g>
   <g id="patch_4">
    <path d="M 414.72 306.3024 
L 414.72 41.2992 
" style="fill:none;stroke:#000000;stroke-linecap:square;stroke-linejoin:miter;stroke-width:0.8;"/>
   </g>
   <g id="patch_5">
    <path d="M 57.6 306.3024 
L 414.72 306.3024 
" style="fill:none;stroke:#000000;stroke-linecap:square;stroke-linejoin:miter;stroke-width:0.8;"/>
   </g>
   <g id="patch_6">
    <path d="M 57.6 41.2992 
L 414.72 41.2992 
" style="fill:none;stroke:#000000;stroke-linecap:square;stroke-linejoin:miter;stroke-width:0.8;"/>
   </g>
   <g id="text_16">
    <!-- Tempertura -->
    <g transform="translate(200.709375 35.2992)scale(0.12 -0.12)">
     <use xlink:href="#DejaVuSans-84"/>
     <use x="60.818359" xlink:href="#DejaVuSans-101"/>
     <use x="122.341797" xlink:href="#DejaVuSans-109"/>
     <use x="219.753906" xlink:href="#DejaVuSans-112"/>
     <use x="283.230469" xlink:href="#DejaVuSans-101"/>
     <use x="344.753906" xlink:href="#DejaVuSans-114"/>
     <use x="385.867188" xlink:href="#DejaVuSans-116"/>
     <use x="425.076172" xlink:href="#DejaVuSans-117"/>
     <use x="488.455078" xlink:href="#DejaVuSans-114"/>
     <use x="529.568359" xlink:href="#DejaVuSans-97"/>
    </g>
   </g>
  </g>
 </g>
 <defs>
  <clipPath id="pe26fee96d6">
   <rect height="265.0032" width="357.12" x="57.6" y="41.2992"/>
  </clipPath>
 </defs>
</svg>
