<?xml version="1.0" encoding="utf-8" standalone="no"?>
<!DOCTYPE svg PUBLIC "-//W3C//DTD SVG 1.1//EN"
  "http://www.w3.org/Graphics/SVG/1.1/DTD/svg11.dtd">
<!-- Created with matplotlib (https://matplotlib.org/) -->
<svg height="344.16pt" version="1.1" viewBox="0 0 460.8 344.16" width="460.8pt" xmlns="http://www.w3.org/2000/svg" xmlns:xlink="http://www.w3.org/1999/xlink">
 <defs>
  <style type="text/css">
*{stroke-linecap:butt;stroke-linejoin:round;}
  </style>
 </defs>
 <g id="figure_1">
  <g id="patch_1">
   <path d="M 0 344.16 
L 460.8 344.16 
L 460.8 0 
L 0 0 
z
" style="fill:#ffffff;"/>
  </g>
  <g id="axes_1">
   <g id="patch_2">
    <path d="M 57.6 306.3024 
L 414.72 306.3024 
L 414.72 41.2992 
L 57.6 41.2992 
z
" style="fill:#ffffff;"/>
   </g>
   <g id="matplotlib.axis_1">
    <g id="xtick_1">
     <g id="line2d_1">
      <defs>
       <path d="M 0 0 
L 0 3.5 
" id="mb46cd16a20" style="stroke:#000000;stroke-width:0.8;"/>
      </defs>
      <g>
       <use style="stroke:#000000;stroke-width:0.8;" x="73.832727" xlink:href="#mb46cd16a20" y="306.3024"/>
      </g>
     </g>
     <g id="text_1">
      <!-- 0 -->
      <defs>
       <path d="M 31.78125 66.40625 
Q 24.171875 66.40625 20.328125 58.90625 
Q 16.5 51.421875 16.5 36.375 
Q 16.5 21.390625 20.328125 13.890625 
Q 24.171875 6.390625 31.78125 6.390625 
Q 39.453125 6.390625 43.28125 13.890625 
Q 47.125 21.390625 47.125 36.375 
Q 47.125 51.421875 43.28125 58.90625 
Q 39.453125 66.40625 31.78125 66.40625 
z
M 31.78125 74.21875 
Q 44.046875 74.21875 50.515625 64.515625 
Q 56.984375 54.828125 56.984375 36.375 
Q 56.984375 17.96875 50.515625 8.265625 
Q 44.046875 -1.421875 31.78125 -1.421875 
Q 19.53125 -1.421875 13.0625 8.265625 
Q 6.59375 17.96875 6.59375 36.375 
Q 6.59375 54.828125 13.0625 64.515625 
Q 19.53125 74.21875 31.78125 74.21875 
z
" id="DejaVuSans-48"/>
      </defs>
      <g transform="translate(70.651477 320.900838)scale(0.1 -0.1)">
       <use xlink:href="#DejaVuSans-48"/>
      </g>
     </g>
    </g>
    <g id="xtick_2">
     <g id="line2d_2">
      <g>
       <use style="stroke:#000000;stroke-width:0.8;" x="119.516896" xlink:href="#mb46cd16a20" y="306.3024"/>
      </g>
     </g>
     <g id="text_2">
      <!-- 2000 -->
      <defs>
       <path d="M 19.1875 8.296875 
L 53.609375 8.296875 
L 53.609375 0 
L 7.328125 0 
L 7.328125 8.296875 
Q 12.9375 14.109375 22.625 23.890625 
Q 32.328125 33.6875 34.8125 36.53125 
Q 39.546875 41.84375 41.421875 45.53125 
Q 43.3125 49.21875 43.3125 52.78125 
Q 43.3125 58.59375 39.234375 62.25 
Q 35.15625 65.921875 28.609375 65.921875 
Q 23.96875 65.921875 18.8125 64.3125 
Q 13.671875 62.703125 7.8125 59.421875 
L 7.8125 69.390625 
Q 13.765625 71.78125 18.9375 73 
Q 24.125 74.21875 28.421875 74.21875 
Q 39.75 74.21875 46.484375 68.546875 
Q 53.21875 62.890625 53.21875 53.421875 
Q 53.21875 48.921875 51.53125 44.890625 
Q 49.859375 40.875 45.40625 35.40625 
Q 44.1875 33.984375 37.640625 27.21875 
Q 31.109375 20.453125 19.1875 8.296875 
z
" id="DejaVuSans-50"/>
      </defs>
      <g transform="translate(106.791896 320.900838)scale(0.1 -0.1)">
       <use xlink:href="#DejaVuSans-50"/>
       <use x="63.623047" xlink:href="#DejaVuSans-48"/>
       <use x="127.246094" xlink:href="#DejaVuSans-48"/>
       <use x="190.869141" xlink:href="#DejaVuSans-48"/>
      </g>
     </g>
    </g>
    <g id="xtick_3">
     <g id="line2d_3">
      <g>
       <use style="stroke:#000000;stroke-width:0.8;" x="165.201065" xlink:href="#mb46cd16a20" y="306.3024"/>
      </g>
     </g>
     <g id="text_3">
      <!-- 4000 -->
      <defs>
       <path d="M 37.796875 64.3125 
L 12.890625 25.390625 
L 37.796875 25.390625 
z
M 35.203125 72.90625 
L 47.609375 72.90625 
L 47.609375 25.390625 
L 58.015625 25.390625 
L 58.015625 17.1875 
L 47.609375 17.1875 
L 47.609375 0 
L 37.796875 0 
L 37.796875 17.1875 
L 4.890625 17.1875 
L 4.890625 26.703125 
z
" id="DejaVuSans-52"/>
      </defs>
      <g transform="translate(152.476065 320.900838)scale(0.1 -0.1)">
       <use xlink:href="#DejaVuSans-52"/>
       <use x="63.623047" xlink:href="#DejaVuSans-48"/>
       <use x="127.246094" xlink:href="#DejaVuSans-48"/>
       <use x="190.869141" xlink:href="#DejaVuSans-48"/>
      </g>
     </g>
    </g>
    <g id="xtick_4">
     <g id="line2d_4">
      <g>
       <use style="stroke:#000000;stroke-width:0.8;" x="210.885234" xlink:href="#mb46cd16a20" y="306.3024"/>
      </g>
     </g>
     <g id="text_4">
      <!-- 6000 -->
      <defs>
       <path d="M 33.015625 40.375 
Q 26.375 40.375 22.484375 35.828125 
Q 18.609375 31.296875 18.609375 23.390625 
Q 18.609375 15.53125 22.484375 10.953125 
Q 26.375 6.390625 33.015625 6.390625 
Q 39.65625 6.390625 43.53125 10.953125 
Q 47.40625 15.53125 47.40625 23.390625 
Q 47.40625 31.296875 43.53125 35.828125 
Q 39.65625 40.375 33.015625 40.375 
z
M 52.59375 71.296875 
L 52.59375 62.3125 
Q 48.875 64.0625 45.09375 64.984375 
Q 41.3125 65.921875 37.59375 65.921875 
Q 27.828125 65.921875 22.671875 59.328125 
Q 17.53125 52.734375 16.796875 39.40625 
Q 19.671875 43.65625 24.015625 45.921875 
Q 28.375 48.1875 33.59375 48.1875 
Q 44.578125 48.1875 50.953125 41.515625 
Q 57.328125 34.859375 57.328125 23.390625 
Q 57.328125 12.15625 50.6875 5.359375 
Q 44.046875 -1.421875 33.015625 -1.421875 
Q 20.359375 -1.421875 13.671875 8.265625 
Q 6.984375 17.96875 6.984375 36.375 
Q 6.984375 53.65625 15.1875 63.9375 
Q 23.390625 74.21875 37.203125 74.21875 
Q 40.921875 74.21875 44.703125 73.484375 
Q 48.484375 72.75 52.59375 71.296875 
z
" id="DejaVuSans-54"/>
      </defs>
      <g transform="translate(198.160234 320.900838)scale(0.1 -0.1)">
       <use xlink:href="#DejaVuSans-54"/>
       <use x="63.623047" xlink:href="#DejaVuSans-48"/>
       <use x="127.246094" xlink:href="#DejaVuSans-48"/>
       <use x="190.869141" xlink:href="#DejaVuSans-48"/>
      </g>
     </g>
    </g>
    <g id="xtick_5">
     <g id="line2d_5">
      <g>
       <use style="stroke:#000000;stroke-width:0.8;" x="256.569402" xlink:href="#mb46cd16a20" y="306.3024"/>
      </g>
     </g>
     <g id="text_5">
      <!-- 8000 -->
      <defs>
       <path d="M 31.78125 34.625 
Q 24.75 34.625 20.71875 30.859375 
Q 16.703125 27.09375 16.703125 20.515625 
Q 16.703125 13.921875 20.71875 10.15625 
Q 24.75 6.390625 31.78125 6.390625 
Q 38.8125 6.390625 42.859375 10.171875 
Q 46.921875 13.96875 46.921875 20.515625 
Q 46.921875 27.09375 42.890625 30.859375 
Q 38.875 34.625 31.78125 34.625 
z
M 21.921875 38.8125 
Q 15.578125 40.375 12.03125 44.71875 
Q 8.5 49.078125 8.5 55.328125 
Q 8.5 64.0625 14.71875 69.140625 
Q 20.953125 74.21875 31.78125 74.21875 
Q 42.671875 74.21875 48.875 69.140625 
Q 55.078125 64.0625 55.078125 55.328125 
Q 55.078125 49.078125 51.53125 44.71875 
Q 48 40.375 41.703125 38.8125 
Q 48.828125 37.15625 52.796875 32.3125 
Q 56.78125 27.484375 56.78125 20.515625 
Q 56.78125 9.90625 50.3125 4.234375 
Q 43.84375 -1.421875 31.78125 -1.421875 
Q 19.734375 -1.421875 13.25 4.234375 
Q 6.78125 9.90625 6.78125 20.515625 
Q 6.78125 27.484375 10.78125 32.3125 
Q 14.796875 37.15625 21.921875 38.8125 
z
M 18.3125 54.390625 
Q 18.3125 48.734375 21.84375 45.5625 
Q 25.390625 42.390625 31.78125 42.390625 
Q 38.140625 42.390625 41.71875 45.5625 
Q 45.3125 48.734375 45.3125 54.390625 
Q 45.3125 60.0625 41.71875 63.234375 
Q 38.140625 66.40625 31.78125 66.40625 
Q 25.390625 66.40625 21.84375 63.234375 
Q 18.3125 60.0625 18.3125 54.390625 
z
" id="DejaVuSans-56"/>
      </defs>
      <g transform="translate(243.844402 320.900838)scale(0.1 -0.1)">
       <use xlink:href="#DejaVuSans-56"/>
       <use x="63.623047" xlink:href="#DejaVuSans-48"/>
       <use x="127.246094" xlink:href="#DejaVuSans-48"/>
       <use x="190.869141" xlink:href="#DejaVuSans-48"/>
      </g>
     </g>
    </g>
    <g id="xtick_6">
     <g id="line2d_6">
      <g>
       <use style="stroke:#000000;stroke-width:0.8;" x="302.253571" xlink:href="#mb46cd16a20" y="306.3024"/>
      </g>
     </g>
     <g id="text_6">
      <!-- 10000 -->
      <defs>
       <path d="M 12.40625 8.296875 
L 28.515625 8.296875 
L 28.515625 63.921875 
L 10.984375 60.40625 
L 10.984375 69.390625 
L 28.421875 72.90625 
L 38.28125 72.90625 
L 38.28125 8.296875 
L 54.390625 8.296875 
L 54.390625 0 
L 12.40625 0 
z
" id="DejaVuSans-49"/>
      </defs>
      <g transform="translate(286.347321 320.900838)scale(0.1 -0.1)">
       <use xlink:href="#DejaVuSans-49"/>
       <use x="63.623047" xlink:href="#DejaVuSans-48"/>
       <use x="127.246094" xlink:href="#DejaVuSans-48"/>
       <use x="190.869141" xlink:href="#DejaVuSans-48"/>
       <use x="254.492188" xlink:href="#DejaVuSans-48"/>
      </g>
     </g>
    </g>
    <g id="xtick_7">
     <g id="line2d_7">
      <g>
       <use style="stroke:#000000;stroke-width:0.8;" x="347.93774" xlink:href="#mb46cd16a20" y="306.3024"/>
      </g>
     </g>
     <g id="text_7">
      <!-- 12000 -->
      <g transform="translate(332.03149 320.900838)scale(0.1 -0.1)">
       <use xlink:href="#DejaVuSans-49"/>
       <use x="63.623047" xlink:href="#DejaVuSans-50"/>
       <use x="127.246094" xlink:href="#DejaVuSans-48"/>
       <use x="190.869141" xlink:href="#DejaVuSans-48"/>
       <use x="254.492188" xlink:href="#DejaVuSans-48"/>
      </g>
     </g>
    </g>
    <g id="xtick_8">
     <g id="line2d_8">
      <g>
       <use style="stroke:#000000;stroke-width:0.8;" x="393.621909" xlink:href="#mb46cd16a20" y="306.3024"/>
      </g>
     </g>
     <g id="text_8">
      <!-- 14000 -->
      <g transform="translate(377.715659 320.900838)scale(0.1 -0.1)">
       <use xlink:href="#DejaVuSans-49"/>
       <use x="63.623047" xlink:href="#DejaVuSans-52"/>
       <use x="127.246094" xlink:href="#DejaVuSans-48"/>
       <use x="190.869141" xlink:href="#DejaVuSans-48"/>
       <use x="254.492188" xlink:href="#DejaVuSans-48"/>
      </g>
     </g>
    </g>
    <g id="text_9">
     <!-- Muestras -->
     <defs>
      <path d="M 9.8125 72.90625 
L 24.515625 72.90625 
L 43.109375 23.296875 
L 61.8125 72.90625 
L 76.515625 72.90625 
L 76.515625 0 
L 66.890625 0 
L 66.890625 64.015625 
L 48.09375 14.015625 
L 38.1875 14.015625 
L 19.390625 64.015625 
L 19.390625 0 
L 9.8125 0 
z
" id="DejaVuSans-77"/>
      <path d="M 8.5 21.578125 
L 8.5 54.6875 
L 17.484375 54.6875 
L 17.484375 21.921875 
Q 17.484375 14.15625 20.5 10.265625 
Q 23.53125 6.390625 29.59375 6.390625 
Q 36.859375 6.390625 41.078125 11.03125 
Q 45.3125 15.671875 45.3125 23.6875 
L 45.3125 54.6875 
L 54.296875 54.6875 
L 54.296875 0 
L 45.3125 0 
L 45.3125 8.40625 
Q 42.046875 3.421875 37.71875 1 
Q 33.40625 -1.421875 27.6875 -1.421875 
Q 18.265625 -1.421875 13.375 4.4375 
Q 8.5 10.296875 8.5 21.578125 
z
M 31.109375 56 
z
" id="DejaVuSans-117"/>
      <path d="M 56.203125 29.59375 
L 56.203125 25.203125 
L 14.890625 25.203125 
Q 15.484375 15.921875 20.484375 11.0625 
Q 25.484375 6.203125 34.421875 6.203125 
Q 39.59375 6.203125 44.453125 7.46875 
Q 49.3125 8.734375 54.109375 11.28125 
L 54.109375 2.78125 
Q 49.265625 0.734375 44.1875 -0.34375 
Q 39.109375 -1.421875 33.890625 -1.421875 
Q 20.796875 -1.421875 13.15625 6.1875 
Q 5.515625 13.8125 5.515625 26.8125 
Q 5.515625 40.234375 12.765625 48.109375 
Q 20.015625 56 32.328125 56 
Q 43.359375 56 49.78125 48.890625 
Q 56.203125 41.796875 56.203125 29.59375 
z
M 47.21875 32.234375 
Q 47.125 39.59375 43.09375 43.984375 
Q 39.0625 48.390625 32.421875 48.390625 
Q 24.90625 48.390625 20.390625 44.140625 
Q 15.875 39.890625 15.1875 32.171875 
z
" id="DejaVuSans-101"/>
      <path d="M 44.28125 53.078125 
L 44.28125 44.578125 
Q 40.484375 46.53125 36.375 47.5 
Q 32.28125 48.484375 27.875 48.484375 
Q 21.1875 48.484375 17.84375 46.4375 
Q 14.5 44.390625 14.5 40.28125 
Q 14.5 37.15625 16.890625 35.375 
Q 19.28125 33.59375 26.515625 31.984375 
L 29.59375 31.296875 
Q 39.15625 29.25 43.1875 25.515625 
Q 47.21875 21.78125 47.21875 15.09375 
Q 47.21875 7.46875 41.1875 3.015625 
Q 35.15625 -1.421875 24.609375 -1.421875 
Q 20.21875 -1.421875 15.453125 -0.5625 
Q 10.6875 0.296875 5.421875 2 
L 5.421875 11.28125 
Q 10.40625 8.6875 15.234375 7.390625 
Q 20.0625 6.109375 24.8125 6.109375 
Q 31.15625 6.109375 34.5625 8.28125 
Q 37.984375 10.453125 37.984375 14.40625 
Q 37.984375 18.0625 35.515625 20.015625 
Q 33.0625 21.96875 24.703125 23.78125 
L 21.578125 24.515625 
Q 13.234375 26.265625 9.515625 29.90625 
Q 5.8125 33.546875 5.8125 39.890625 
Q 5.8125 47.609375 11.28125 51.796875 
Q 16.75 56 26.8125 56 
Q 31.78125 56 36.171875 55.265625 
Q 40.578125 54.546875 44.28125 53.078125 
z
" id="DejaVuSans-115"/>
      <path d="M 18.3125 70.21875 
L 18.3125 54.6875 
L 36.8125 54.6875 
L 36.8125 47.703125 
L 18.3125 47.703125 
L 18.3125 18.015625 
Q 18.3125 11.328125 20.140625 9.421875 
Q 21.96875 7.515625 27.59375 7.515625 
L 36.8125 7.515625 
L 36.8125 0 
L 27.59375 0 
Q 17.1875 0 13.234375 3.875 
Q 9.28125 7.765625 9.28125 18.015625 
L 9.28125 47.703125 
L 2.6875 47.703125 
L 2.6875 54.6875 
L 9.28125 54.6875 
L 9.28125 70.21875 
z
" id="DejaVuSans-116"/>
      <path d="M 41.109375 46.296875 
Q 39.59375 47.171875 37.8125 47.578125 
Q 36.03125 48 33.890625 48 
Q 26.265625 48 22.1875 43.046875 
Q 18.109375 38.09375 18.109375 28.8125 
L 18.109375 0 
L 9.078125 0 
L 9.078125 54.6875 
L 18.109375 54.6875 
L 18.109375 46.1875 
Q 20.953125 51.171875 25.484375 53.578125 
Q 30.03125 56 36.53125 56 
Q 37.453125 56 38.578125 55.875 
Q 39.703125 55.765625 41.0625 55.515625 
z
" id="DejaVuSans-114"/>
      <path d="M 34.28125 27.484375 
Q 23.390625 27.484375 19.1875 25 
Q 14.984375 22.515625 14.984375 16.5 
Q 14.984375 11.71875 18.140625 8.90625 
Q 21.296875 6.109375 26.703125 6.109375 
Q 34.1875 6.109375 38.703125 11.40625 
Q 43.21875 16.703125 43.21875 25.484375 
L 43.21875 27.484375 
z
M 52.203125 31.203125 
L 52.203125 0 
L 43.21875 0 
L 43.21875 8.296875 
Q 40.140625 3.328125 35.546875 0.953125 
Q 30.953125 -1.421875 24.3125 -1.421875 
Q 15.921875 -1.421875 10.953125 3.296875 
Q 6 8.015625 6 15.921875 
Q 6 25.140625 12.171875 29.828125 
Q 18.359375 34.515625 30.609375 34.515625 
L 43.21875 34.515625 
L 43.21875 35.40625 
Q 43.21875 41.609375 39.140625 45 
Q 35.0625 48.390625 27.6875 48.390625 
Q 23 48.390625 18.546875 47.265625 
Q 14.109375 46.140625 10.015625 43.890625 
L 10.015625 52.203125 
Q 14.9375 54.109375 19.578125 55.046875 
Q 24.21875 56 28.609375 56 
Q 40.484375 56 46.34375 49.84375 
Q 52.203125 43.703125 52.203125 31.203125 
z
" id="DejaVuSans-97"/>
     </defs>
     <g transform="translate(213.311562 334.578963)scale(0.1 -0.1)">
      <use xlink:href="#DejaVuSans-77"/>
      <use x="86.279297" xlink:href="#DejaVuSans-117"/>
      <use x="149.658203" xlink:href="#DejaVuSans-101"/>
      <use x="211.181641" xlink:href="#DejaVuSans-115"/>
      <use x="263.28125" xlink:href="#DejaVuSans-116"/>
      <use x="302.490234" xlink:href="#DejaVuSans-114"/>
      <use x="343.603516" xlink:href="#DejaVuSans-97"/>
      <use x="404.882812" xlink:href="#DejaVuSans-115"/>
     </g>
    </g>
   </g>
   <g id="matplotlib.axis_2">
    <g id="ytick_1">
     <g id="line2d_9">
      <defs>
       <path d="M 0 0 
L -3.5 0 
" id="m53d37bdc41" style="stroke:#000000;stroke-width:0.8;"/>
      </defs>
      <g>
       <use style="stroke:#000000;stroke-width:0.8;" x="57.6" xlink:href="#m53d37bdc41" y="282.382464"/>
      </g>
     </g>
     <g id="text_10">
      <!-- 60 -->
      <g transform="translate(37.875 286.181683)scale(0.1 -0.1)">
       <use xlink:href="#DejaVuSans-54"/>
       <use x="63.623047" xlink:href="#DejaVuSans-48"/>
      </g>
     </g>
    </g>
    <g id="ytick_2">
     <g id="line2d_10">
      <g>
       <use style="stroke:#000000;stroke-width:0.8;" x="57.6" xlink:href="#m53d37bdc41" y="236.711943"/>
      </g>
     </g>
     <g id="text_11">
      <!-- 80 -->
      <g transform="translate(37.875 240.511162)scale(0.1 -0.1)">
       <use xlink:href="#DejaVuSans-56"/>
       <use x="63.623047" xlink:href="#DejaVuSans-48"/>
      </g>
     </g>
    </g>
    <g id="ytick_3">
     <g id="line2d_11">
      <g>
       <use style="stroke:#000000;stroke-width:0.8;" x="57.6" xlink:href="#m53d37bdc41" y="191.041422"/>
      </g>
     </g>
     <g id="text_12">
      <!-- 100 -->
      <g transform="translate(31.5125 194.840641)scale(0.1 -0.1)">
       <use xlink:href="#DejaVuSans-49"/>
       <use x="63.623047" xlink:href="#DejaVuSans-48"/>
       <use x="127.246094" xlink:href="#DejaVuSans-48"/>
      </g>
     </g>
    </g>
    <g id="ytick_4">
     <g id="line2d_12">
      <g>
       <use style="stroke:#000000;stroke-width:0.8;" x="57.6" xlink:href="#m53d37bdc41" y="145.3709"/>
      </g>
     </g>
     <g id="text_13">
      <!-- 120 -->
      <g transform="translate(31.5125 149.170119)scale(0.1 -0.1)">
       <use xlink:href="#DejaVuSans-49"/>
       <use x="63.623047" xlink:href="#DejaVuSans-50"/>
       <use x="127.246094" xlink:href="#DejaVuSans-48"/>
      </g>
     </g>
    </g>
    <g id="ytick_5">
     <g id="line2d_13">
      <g>
       <use style="stroke:#000000;stroke-width:0.8;" x="57.6" xlink:href="#m53d37bdc41" y="99.700379"/>
      </g>
     </g>
     <g id="text_14">
      <!-- 140 -->
      <g transform="translate(31.5125 103.499598)scale(0.1 -0.1)">
       <use xlink:href="#DejaVuSans-49"/>
       <use x="63.623047" xlink:href="#DejaVuSans-52"/>
       <use x="127.246094" xlink:href="#DejaVuSans-48"/>
      </g>
     </g>
    </g>
    <g id="ytick_6">
     <g id="line2d_14">
      <g>
       <use style="stroke:#000000;stroke-width:0.8;" x="57.6" xlink:href="#m53d37bdc41" y="54.029858"/>
      </g>
     </g>
     <g id="text_15">
      <!-- 160 -->
      <g transform="translate(31.5125 57.829077)scale(0.1 -0.1)">
       <use xlink:href="#DejaVuSans-49"/>
       <use x="63.623047" xlink:href="#DejaVuSans-54"/>
       <use x="127.246094" xlink:href="#DejaVuSans-48"/>
      </g>
     </g>
    </g>
    <g id="text_16">
     <!-- Valor de Ritmo Cardíaco -->
     <defs>
      <path d="M 28.609375 0 
L 0.78125 72.90625 
L 11.078125 72.90625 
L 34.1875 11.53125 
L 57.328125 72.90625 
L 67.578125 72.90625 
L 39.796875 0 
z
" id="DejaVuSans-86"/>
      <path d="M 9.421875 75.984375 
L 18.40625 75.984375 
L 18.40625 0 
L 9.421875 0 
z
" id="DejaVuSans-108"/>
      <path d="M 30.609375 48.390625 
Q 23.390625 48.390625 19.1875 42.75 
Q 14.984375 37.109375 14.984375 27.296875 
Q 14.984375 17.484375 19.15625 11.84375 
Q 23.34375 6.203125 30.609375 6.203125 
Q 37.796875 6.203125 41.984375 11.859375 
Q 46.1875 17.53125 46.1875 27.296875 
Q 46.1875 37.015625 41.984375 42.703125 
Q 37.796875 48.390625 30.609375 48.390625 
z
M 30.609375 56 
Q 42.328125 56 49.015625 48.375 
Q 55.71875 40.765625 55.71875 27.296875 
Q 55.71875 13.875 49.015625 6.21875 
Q 42.328125 -1.421875 30.609375 -1.421875 
Q 18.84375 -1.421875 12.171875 6.21875 
Q 5.515625 13.875 5.515625 27.296875 
Q 5.515625 40.765625 12.171875 48.375 
Q 18.84375 56 30.609375 56 
z
" id="DejaVuSans-111"/>
      <path id="DejaVuSans-32"/>
      <path d="M 45.40625 46.390625 
L 45.40625 75.984375 
L 54.390625 75.984375 
L 54.390625 0 
L 45.40625 0 
L 45.40625 8.203125 
Q 42.578125 3.328125 38.25 0.953125 
Q 33.9375 -1.421875 27.875 -1.421875 
Q 17.96875 -1.421875 11.734375 6.484375 
Q 5.515625 14.40625 5.515625 27.296875 
Q 5.515625 40.1875 11.734375 48.09375 
Q 17.96875 56 27.875 56 
Q 33.9375 56 38.25 53.625 
Q 42.578125 51.265625 45.40625 46.390625 
z
M 14.796875 27.296875 
Q 14.796875 17.390625 18.875 11.75 
Q 22.953125 6.109375 30.078125 6.109375 
Q 37.203125 6.109375 41.296875 11.75 
Q 45.40625 17.390625 45.40625 27.296875 
Q 45.40625 37.203125 41.296875 42.84375 
Q 37.203125 48.484375 30.078125 48.484375 
Q 22.953125 48.484375 18.875 42.84375 
Q 14.796875 37.203125 14.796875 27.296875 
z
" id="DejaVuSans-100"/>
      <path d="M 44.390625 34.1875 
Q 47.5625 33.109375 50.5625 29.59375 
Q 53.5625 26.078125 56.59375 19.921875 
L 66.609375 0 
L 56 0 
L 46.6875 18.703125 
Q 43.0625 26.03125 39.671875 28.421875 
Q 36.28125 30.8125 30.421875 30.8125 
L 19.671875 30.8125 
L 19.671875 0 
L 9.8125 0 
L 9.8125 72.90625 
L 32.078125 72.90625 
Q 44.578125 72.90625 50.734375 67.671875 
Q 56.890625 62.453125 56.890625 51.90625 
Q 56.890625 45.015625 53.6875 40.46875 
Q 50.484375 35.9375 44.390625 34.1875 
z
M 19.671875 64.796875 
L 19.671875 38.921875 
L 32.078125 38.921875 
Q 39.203125 38.921875 42.84375 42.21875 
Q 46.484375 45.515625 46.484375 51.90625 
Q 46.484375 58.296875 42.84375 61.546875 
Q 39.203125 64.796875 32.078125 64.796875 
z
" id="DejaVuSans-82"/>
      <path d="M 9.421875 54.6875 
L 18.40625 54.6875 
L 18.40625 0 
L 9.421875 0 
z
M 9.421875 75.984375 
L 18.40625 75.984375 
L 18.40625 64.59375 
L 9.421875 64.59375 
z
" id="DejaVuSans-105"/>
      <path d="M 52 44.1875 
Q 55.375 50.25 60.0625 53.125 
Q 64.75 56 71.09375 56 
Q 79.640625 56 84.28125 50.015625 
Q 88.921875 44.046875 88.921875 33.015625 
L 88.921875 0 
L 79.890625 0 
L 79.890625 32.71875 
Q 79.890625 40.578125 77.09375 44.375 
Q 74.3125 48.1875 68.609375 48.1875 
Q 61.625 48.1875 57.5625 43.546875 
Q 53.515625 38.921875 53.515625 30.90625 
L 53.515625 0 
L 44.484375 0 
L 44.484375 32.71875 
Q 44.484375 40.625 41.703125 44.40625 
Q 38.921875 48.1875 33.109375 48.1875 
Q 26.21875 48.1875 22.15625 43.53125 
Q 18.109375 38.875 18.109375 30.90625 
L 18.109375 0 
L 9.078125 0 
L 9.078125 54.6875 
L 18.109375 54.6875 
L 18.109375 46.1875 
Q 21.1875 51.21875 25.484375 53.609375 
Q 29.78125 56 35.6875 56 
Q 41.65625 56 45.828125 52.96875 
Q 50 49.953125 52 44.1875 
z
" id="DejaVuSans-109"/>
      <path d="M 64.40625 67.28125 
L 64.40625 56.890625 
Q 59.421875 61.53125 53.78125 63.8125 
Q 48.140625 66.109375 41.796875 66.109375 
Q 29.296875 66.109375 22.65625 58.46875 
Q 16.015625 50.828125 16.015625 36.375 
Q 16.015625 21.96875 22.65625 14.328125 
Q 29.296875 6.6875 41.796875 6.6875 
Q 48.140625 6.6875 53.78125 8.984375 
Q 59.421875 11.28125 64.40625 15.921875 
L 64.40625 5.609375 
Q 59.234375 2.09375 53.4375 0.328125 
Q 47.65625 -1.421875 41.21875 -1.421875 
Q 24.65625 -1.421875 15.125 8.703125 
Q 5.609375 18.84375 5.609375 36.375 
Q 5.609375 53.953125 15.125 64.078125 
Q 24.65625 74.21875 41.21875 74.21875 
Q 47.75 74.21875 53.53125 72.484375 
Q 59.328125 70.75 64.40625 67.28125 
z
" id="DejaVuSans-67"/>
      <path d="M 20.703125 79.984375 
L 30.421875 79.984375 
L 14.5 61.625 
L 7.03125 61.625 
z
M 9.421875 54.6875 
L 18.40625 54.6875 
L 18.40625 0 
L 9.421875 0 
z
M 13.921875 56 
z
" id="DejaVuSans-237"/>
      <path d="M 48.78125 52.59375 
L 48.78125 44.1875 
Q 44.96875 46.296875 41.140625 47.34375 
Q 37.3125 48.390625 33.40625 48.390625 
Q 24.65625 48.390625 19.8125 42.84375 
Q 14.984375 37.3125 14.984375 27.296875 
Q 14.984375 17.28125 19.8125 11.734375 
Q 24.65625 6.203125 33.40625 6.203125 
Q 37.3125 6.203125 41.140625 7.25 
Q 44.96875 8.296875 48.78125 10.40625 
L 48.78125 2.09375 
Q 45.015625 0.34375 40.984375 -0.53125 
Q 36.96875 -1.421875 32.421875 -1.421875 
Q 20.0625 -1.421875 12.78125 6.34375 
Q 5.515625 14.109375 5.515625 27.296875 
Q 5.515625 40.671875 12.859375 48.328125 
Q 20.21875 56 33.015625 56 
Q 37.15625 56 41.109375 55.140625 
Q 45.0625 54.296875 48.78125 52.59375 
z
" id="DejaVuSans-99"/>
     </defs>
     <g transform="translate(25.432812 234.6008)rotate(-90)scale(0.1 -0.1)">
      <use xlink:href="#DejaVuSans-86"/>
      <use x="68.298828" xlink:href="#DejaVuSans-97"/>
      <use x="129.578125" xlink:href="#DejaVuSans-108"/>
      <use x="157.361328" xlink:href="#DejaVuSans-111"/>
      <use x="218.542969" xlink:href="#DejaVuSans-114"/>
      <use x="259.65625" xlink:href="#DejaVuSans-32"/>
      <use x="291.443359" xlink:href="#DejaVuSans-100"/>
      <use x="354.919922" xlink:href="#DejaVuSans-101"/>
      <use x="416.443359" xlink:href="#DejaVuSans-32"/>
      <use x="448.230469" xlink:href="#DejaVuSans-82"/>
      <use x="517.712891" xlink:href="#DejaVuSans-105"/>
      <use x="545.496094" xlink:href="#DejaVuSans-116"/>
      <use x="584.705078" xlink:href="#DejaVuSans-109"/>
      <use x="682.117188" xlink:href="#DejaVuSans-111"/>
      <use x="743.298828" xlink:href="#DejaVuSans-32"/>
      <use x="775.085938" xlink:href="#DejaVuSans-67"/>
      <use x="844.910156" xlink:href="#DejaVuSans-97"/>
      <use x="906.189453" xlink:href="#DejaVuSans-114"/>
      <use x="947.287109" xlink:href="#DejaVuSans-100"/>
      <use x="1010.763672" xlink:href="#DejaVuSans-237"/>
      <use x="1038.546875" xlink:href="#DejaVuSans-97"/>
      <use x="1099.826172" xlink:href="#DejaVuSans-99"/>
      <use x="1154.806641" xlink:href="#DejaVuSans-111"/>
     </g>
    </g>
   </g>
   <g id="line2d_15">
    <path clip-path="url(#p59439d9ca8)" d="M 73.832727 197.138436 
L 73.878411 199.718821 
L 74.038306 226.618758 
L 74.335253 240.730949 
L 74.358095 240.571102 
L 74.426621 240.730949 
L 74.860621 248.563443 
L 75.043358 249.15716 
L 75.134726 249.042984 
L 75.157568 249.088654 
L 75.248937 252.879308 
L 75.317463 252.742296 
L 75.363147 252.856472 
L 75.385989 252.810802 
L 75.660094 249.317007 
L 75.751462 249.728042 
L 75.797147 250.002065 
L 75.842831 249.728042 
L 75.979883 248.24375 
L 76.413883 238.995469 
L 76.505251 239.406504 
L 76.573777 240.319914 
L 76.596619 239.452174 
L 76.984935 221.298142 
L 77.464619 186.885404 
L 77.555987 191.840656 
L 77.898618 205.701659 
L 77.944302 205.039437 
L 77.967145 205.952847 
L 78.332618 225.476995 
L 78.835144 262.333106 
L 80.068616 217.416148 
L 80.639668 200.677902 
L 80.708195 200.97476 
L 80.936616 203.18978 
L 80.959458 203.098439 
L 81.09651 202.527558 
L 81.119352 202.618899 
L 81.279247 203.555145 
L 81.347773 203.418133 
L 81.393457 203.372463 
L 81.507668 204.582731 
L 81.667562 209.241125 
L 81.781773 208.738749 
L 81.804615 208.738749 
L 81.850299 208.510396 
L 81.895983 208.670243 
L 82.033036 210.063194 
L 82.124404 209.423807 
L 82.421351 205.998518 
L 82.649772 204.514226 
L 82.695456 204.628402 
L 82.809666 204.742578 
L 82.832509 204.696908 
L 82.901035 204.285873 
L 83.380719 196.681731 
L 83.472087 197.138436 
L 83.814718 203.829168 
L 83.928929 205.998518 
L 83.974613 205.610318 
L 84.203034 203.029934 
L 84.477139 199.444798 
L 84.499981 199.490468 
L 84.522823 199.444798 
L 85.185243 189.511459 
L 85.253769 187.912991 
L 85.322296 188.369696 
L 85.505032 189.442954 
L 85.664927 190.767399 
L 86.167453 194.42104 
L 86.510084 192.480043 
L 86.555768 192.685561 
L 86.601452 192.708396 
L 86.624295 192.63989 
L 86.784189 190.813069 
L 86.829873 190.972916 
L 87.103978 194.055676 
L 87.697872 204.44572 
L 88.10903 215.018445 
L 88.131872 214.858599 
L 88.405977 213.808177 
L 88.428819 213.831012 
L 88.565872 214.150706 
L 88.588714 214.105035 
L 88.931345 211.935685 
L 89.251134 205.610318 
L 89.456713 202.915757 
L 89.479555 202.755911 
L 89.502397 203.075604 
L 89.570923 203.440968 
L 89.616608 203.326792 
L 90.050607 197.092766 
L 90.141976 197.892 
L 90.256186 199.147939 
L 90.279028 199.102269 
L 90.85008 188.68939 
L 90.918606 189.100425 
L 91.28408 194.80924 
L 91.466816 197.161272 
L 91.489659 196.795907 
L 91.649553 193.667477 
L 91.672395 193.850159 
L 91.83229 195.654144 
L 92.083553 201.385795 
L 92.220605 203.760662 
L 92.243447 203.714991 
L 92.540394 202.116523 
L 92.563236 202.162194 
L 92.631763 202.185029 
L 93.065762 193.713147 
L 93.179973 192.685561 
L 93.431236 186.862569 
L 93.636814 177.157583 
L 94.093656 150.440328 
L 94.162182 150.348987 
L 94.185024 150.326152 
L 94.207867 150.440328 
L 94.322077 151.604927 
L 94.961655 162.38317 
L 95.715444 206.295376 
L 95.761128 206.112694 
L 95.943865 204.171697 
L 96.035233 203.326792 
L 96.080917 203.486639 
L 96.286496 204.970931 
L 96.309338 204.902425 
L 96.514917 203.669321 
L 96.697654 200.814913 
L 96.857548 196.750237 
L 97.085969 189.899659 
L 97.131653 190.287858 
L 97.360074 190.927245 
L 97.519969 191.315445 
L 97.816916 194.512381 
L 97.908284 195.654144 
L 98.136705 197.892 
L 98.182389 197.846329 
L 98.228073 197.709318 
L 98.2966 197.846329 
L 98.41081 198.280199 
L 98.433652 198.120353 
L 98.570705 197.092766 
L 98.616389 197.503801 
L 98.95902 199.67315 
L 99.118915 200.221197 
L 99.141757 200.449549 
L 99.210283 200.335373 
L 99.301651 199.444798 
L 99.530072 197.480965 
L 99.644283 197.047095 
L 99.827019 196.476214 
L 99.849861 196.521884 
L 99.918388 196.225026 
L 100.215335 194.649393 
L 100.238177 194.695064 
L 100.283861 194.649393 
L 100.398071 194.923416 
L 100.443756 194.80924 
L 100.466598 194.85491 
L 100.60365 197.138436 
L 100.832071 204.240202 
L 101.106176 211.593156 
L 101.129018 211.661662 
L 101.15186 211.524651 
L 101.425965 210.405723 
L 101.448807 210.451393 
L 101.654386 212.917602 
L 101.722912 212.78059 
L 101.814281 211.935685 
L 102.065544 204.05752 
L 102.453859 191.429621 
L 102.499543 191.452456 
L 102.79649 194.352535 
L 102.842174 193.964335 
L 102.956385 193.165101 
L 103.002069 193.256442 
L 103.093437 192.343032 
L 103.161964 191.680809 
L 103.23049 191.954832 
L 103.436069 194.740734 
L 103.687332 199.216445 
L 103.7787 200.015679 
L 104.167015 209.69783 
L 104.601015 221.640671 
L 104.715225 223.810021 
L 104.806594 225.111631 
L 104.829436 224.335232 
L 105.491856 204.240202 
L 106.040066 174.371682 
L 106.177119 171.174745 
L 106.222803 171.859803 
L 106.451224 173.914976 
L 106.474066 173.914976 
L 106.565434 173.458271 
L 106.656803 173.526777 
L 106.748171 174.097658 
L 107.136486 180.423026 
L 107.18217 179.92065 
L 107.342065 175.901644 
L 107.798907 163.113898 
L 107.844591 163.068227 
L 107.867433 163.136733 
L 107.935959 163.182404 
L 108.073012 162.680028 
L 108.095854 162.725699 
L 108.187222 163.342251 
L 108.461327 165.580106 
L 108.575538 164.392673 
L 108.621222 164.59819 
L 108.644064 164.59819 
L 108.689748 165.191907 
L 108.758274 164.666696 
L 108.781116 164.780872 
L 108.803958 164.438343 
L 108.941011 158.843704 
L 109.009537 160.670525 
L 109.534905 187.319274 
L 109.80901 193.621806 
L 109.968905 206.797752 
L 110.380062 244.201909 
L 110.494273 243.562521 
L 110.722694 237.008802 
L 110.859746 237.693859 
L 111.202377 243.402675 
L 111.270904 242.352253 
L 111.522167 237.442671 
L 111.796272 230.135388 
L 111.841956 230.158223 
L 111.88764 229.792859 
L 112.116061 228.331402 
L 112.207429 227.874697 
L 112.664271 221.869024 
L 112.801323 221.298142 
L 112.915534 221.9832 
L 113.509428 235.410333 
L 113.577954 235.798533 
L 113.600796 235.684356 
L 113.943427 231.459833 
L 114.08048 231.414163 
L 114.263217 233.332325 
L 114.308901 232.670102 
L 114.788585 224.906113 
L 114.879953 225.294313 
L 115.405321 228.651096 
L 115.451005 228.377073 
L 115.6109 225.682512 
L 115.679426 226.550252 
L 115.885005 228.605426 
L 116.044899 230.820446 
L 116.067741 230.546423 
L 116.113425 230.31807 
L 116.181952 230.386576 
L 116.227636 230.31807 
L 116.341846 231.756692 
L 116.730162 240.091562 
L 116.867214 243.608192 
L 116.981425 247.261834 
L 117.072793 247.056316 
L 117.392582 248.540608 
L 117.598161 250.755628 
L 117.621003 250.709958 
L 117.643845 250.801299 
L 117.735213 251.737545 
L 117.872266 253.199001 
L 117.91795 252.993484 
L 118.032161 249.842218 
L 118.945844 217.233466 
L 119.151423 204.354379 
L 119.44837 192.571384 
L 119.768159 184.008162 
L 119.836685 184.030997 
L 120.019422 184.647549 
L 120.042264 184.647549 
L 120.156474 183.460115 
L 120.202159 183.734138 
L 120.384895 187.456286 
L 120.54479 189.260271 
L 120.613316 189.442954 
L 120.727527 186.200347 
L 120.978789 182.318352 
L 121.138684 179.783638 
L 121.367105 172.704707 
L 121.412789 173.640953 
L 121.846789 188.187014 
L 122.07521 197.503801 
L 122.714788 229.45033 
L 122.73763 229.907035 
L 122.783314 229.01646 
L 123.080261 216.799596 
L 123.514261 201.728324 
L 123.788366 188.483873 
L 124.039629 178.436358 
L 124.542155 167.566774 
L 124.861944 161.355583 
L 124.998996 159.574433 
L 125.090365 159.757115 
L 125.136049 160.396502 
L 125.410154 163.753285 
L 125.47868 163.707615 
L 125.501522 163.753285 
L 125.570048 163.981638 
L 125.707101 167.178574 
L 126.049732 179.852144 
L 126.163943 181.610459 
L 126.483732 187.77598 
L 126.506574 187.547627 
L 126.597942 186.588546 
L 126.803521 184.122338 
L 126.849205 184.487702 
L 127.306047 188.187014 
L 127.899941 203.943344 
L 128.333941 223.398986 
L 128.448151 225.476995 
L 129.064887 241.667195 
L 129.087729 241.621524 
L 129.224782 239.749033 
L 129.338992 236.552096 
L 129.635939 228.765272 
L 129.681624 228.673931 
L 129.75015 228.719602 
L 129.772992 228.833778 
L 129.795834 228.605426 
L 130.024255 227.395157 
L 130.092781 226.732934 
L 130.435412 223.239139 
L 130.572465 223.695845 
L 130.686675 225.180136 
L 131.120675 235.387498 
L 131.143517 235.159145 
L 131.349096 234.611099 
L 131.600359 232.030715 
L 131.623201 232.09922 
L 131.668885 231.962209 
L 131.691727 231.985044 
L 131.737411 231.756692 
L 131.760253 231.985044 
L 131.965832 234.725275 
L 132.171411 237.442671 
L 132.285621 237.465507 
L 132.559726 239.04114 
L 132.60541 238.949799 
L 132.696779 238.378917 
L 132.742463 238.767117 
L 132.902358 240.525432 
L 132.993726 240.297079 
L 133.016568 240.251409 
L 133.03941 240.365585 
L 133.244989 241.461677 
L 133.290673 241.096313 
L 133.519094 235.501674 
L 133.975935 225.06596 
L 133.998778 224.951784 
L 134.02162 225.134466 
L 134.409935 227.966038 
L 134.478461 227.806191 
L 135.23225 223.695845 
L 136.145933 204.217367 
L 136.168776 204.285873 
L 136.351512 205.701659 
L 136.511407 208.350549 
L 136.808354 213.716836 
L 136.854038 214.059365 
L 136.899722 213.831012 
L 137.493616 208.327714 
L 138.247405 186.200347 
L 138.270247 186.246017 
L 138.384458 186.931075 
L 138.498668 188.369696 
L 139.50372 218.443735 
L 139.869193 234.428417 
L 139.892035 209.880512 
L 139.960562 238.995469 
L 140.16614 269.68606 
L 140.188982 270.690811 
L 140.257509 269.138013 
L 140.280351 268.909661 
L 140.348877 272.677479 
L 140.417403 271.398704 
L 140.463087 270.64514 
L 140.851403 263.360692 
L 140.897087 263.452033 
L 141.14835 259.707051 
L 141.216876 259.61571 
L 141.26256 261.785059 
L 141.308245 260.52912 
L 141.924981 237.693859 
L 142.90719 219.425651 
L 142.930033 219.516992 
L 143.044243 219.585498 
L 143.249822 219.174463 
L 143.089927 219.745344 
L 143.272664 219.197298 
L 143.295506 219.197298 
L 143.4554 219.745344 
L 143.478243 219.699674 
L 143.798032 215.86335 
L 143.843716 215.703503 
L 143.866558 215.931856 
L 144.232031 223.969868 
L 144.574663 232.555926 
L 144.803083 236.186732 
L 144.825926 235.95838 
L 144.87161 235.752862 
L 144.894452 236.026885 
L 145.031504 236.43792 
L 145.054346 236.415085 
L 145.145715 236.300908 
L 145.168557 236.323744 
L 145.214241 236.552096 
L 145.237083 236.369414 
L 145.602556 230.70627 
L 146.036556 221.754847 
L 146.150766 220.772931 
L 146.173609 220.795766 
L 146.744661 230.203894 
L 146.836029 231.505504 
L 147.087292 235.867038 
L 147.110134 235.798533 
L 147.407081 234.999299 
L 147.521292 233.469336 
L 147.909607 209.606489 
L 148.115186 202.870087 
L 148.183712 202.048017 
L 148.297922 199.444798 
L 148.343607 200.632231 
L 148.503501 206.61507 
L 148.983185 230.044047 
L 149.348658 252.513944 
L 149.759816 237.7852 
L 150.2395 200.814913 
L 150.627815 179.509615 
L 151.678551 134.409975 
L 152.11255 117.352036 
L 152.158235 117.466212 
L 152.386655 126.577481 
L 152.54655 133.222542 
L 152.615076 132.697331 
L 152.706445 131.487062 
L 153.026234 120.069432 
L 153.163286 120.982842 
L 153.231813 120.023761 
L 153.620128 101.481529 
L 154.07697 77.047801 
L 154.396759 73.599676 
L 154.579496 68.872777 
L 154.602338 68.918448 
L 154.762232 74.170558 
L 155.538863 105.751723 
L 155.584547 105.523371 
L 155.607389 105.409194 
L 155.630231 105.706053 
L 155.698758 106.77931 
L 156.064231 129.683076 
L 156.315494 137.789594 
L 156.361178 137.218712 
L 156.635283 129.454724 
L 156.680967 131.487062 
L 156.977914 152.152973 
L 157.594651 207.414304 
L 157.754545 221.001284 
L 158.325597 270.508129 
L 158.485492 271.718398 
L 158.622545 274.801158 
L 158.759597 274.275947 
L 158.942334 272.403456 
L 159.102228 272.608973 
L 159.216439 271.695562 
L 159.422017 267.95058 
L 159.604754 265.78123 
L 159.627596 265.895406 
L 159.650438 265.667054 
L 159.718965 265.187513 
L 159.741807 265.438701 
L 159.856017 266.352111 
L 159.924543 266.100924 
L 159.99307 265.8269 
L 160.632648 273.933418 
L 160.883911 275.006675 
L 161.066648 276.262615 
L 161.112332 275.691733 
L 161.363595 269.594718 
L 162.802646 202.733075 
L 163.053909 199.878668 
L 163.168119 199.147939 
L 163.213803 199.604645 
L 163.373698 200.746408 
L 163.419382 200.860584 
L 163.533593 198.531387 
L 164.675697 123.44905 
L 164.721381 123.83725 
L 164.789907 124.362461 
L 164.835591 123.951426 
L 164.881276 123.517556 
L 164.904118 124.293955 
L 165.726433 150.463164 
L 165.909169 151.125386 
L 166.000538 150.326152 
L 166.503064 132.057944 
L 166.754327 121.804911 
L 166.800011 123.608897 
L 167.371063 166.33367 
L 168.239062 231.985044 
L 168.398957 230.500752 
L 168.421799 230.660599 
L 168.695904 232.190562 
L 168.718746 232.144891 
L 168.76443 232.213397 
L 168.787272 232.259067 
L 168.810114 232.076385 
L 168.947167 229.975541 
L 169.152745 223.056457 
L 169.449693 210.291547 
L 169.632429 202.459052 
L 169.678113 202.687405 
L 169.723798 203.075604 
L 170.020745 207.414304 
L 170.203481 212.917602 
L 170.40906 224.677761 
L 170.95727 255.733715 
L 171.071481 254.295094 
L 171.185691 250.709958 
L 171.254217 251.37218 
L 171.322743 252.19425 
L 171.368428 251.828886 
L 171.574006 250.572946 
L 171.733901 247.513021 
L 172.213585 234.839452 
L 172.236427 234.885122 
L 172.327795 235.341827 
L 172.556216 238.812787 
L 173.195794 219.699674 
L 173.218636 219.745344 
L 173.58411 217.461818 
L 173.858215 213.123119 
L 173.949583 212.689249 
L 173.972425 212.803425 
L 174.200846 217.530324 
L 174.543477 225.682512 
L 174.886109 233.515007 
L 175.091687 232.829949 
L 175.457161 224.906113 
L 175.77695 212.34672 
L 176.233792 194.055676 
L 176.256634 193.9415 
L 176.302318 194.238358 
L 176.827686 199.330621 
L 176.98758 199.718821 
L 177.033265 199.536139 
L 177.147475 199.19361 
L 177.170317 199.421962 
L 177.261685 200.449549 
L 177.398738 201.591312 
L 177.42158 201.545642 
L 177.444422 201.591312 
L 177.467264 201.499971 
L 177.512948 201.499971 
L 177.558632 200.97476 
L 177.764211 196.864413 
L 177.809895 196.910084 
L 177.924106 197.161272 
L 177.96979 197.047095 
L 178.015474 197.252613 
L 178.426632 212.460896 
L 178.792105 226.436076 
L 178.814947 226.595923 
L 178.837789 226.3219 
L 178.952 225.45416 
L 178.997684 225.568336 
L 179.043368 226.025041 
L 179.111894 225.705347 
L 179.134736 225.705347 
L 179.477368 223.513162 
L 179.865683 216.046032 
L 180.139788 210.497064 
L 180.208314 211.364804 
L 180.642314 219.539827 
L 181.487471 227.966038 
L 182.195576 239.977385 
L 182.332628 240.77662 
L 182.90368 253.267507 
L 183.063575 253.792718 
L 183.086417 253.724212 
L 183.177785 252.742296 
L 183.223469 253.153331 
L 183.360522 254.112412 
L 183.383364 254.021071 
L 183.45189 254.112412 
L 183.520417 254.454941 
L 183.657469 254.980152 
L 183.748837 255.368351 
L 183.817364 255.162834 
L 184.091469 250.572946 
L 184.205679 247.901221 
L 184.251363 248.129573 
L 184.708205 251.943062 
L 184.868099 254.980152 
L 184.936626 254.79747 
L 185.073678 254.820305 
L 185.187889 257.080996 
L 185.667572 270.508129 
L 185.918835 274.093265 
L 186.147256 276.833496 
L 186.170098 276.71932 
L 186.215782 275.988591 
L 186.284309 276.28545 
L 186.489887 278.226447 
L 186.535572 278.203612 
L 186.901045 275.920086 
L 186.946729 275.600392 
L 186.992413 274.390123 
L 187.220834 261.419695 
L 187.403571 255.162834 
L 187.700518 249.202831 
L 187.883255 246.005894 
L 188.180202 240.297079 
L 188.340096 240.137232 
L 188.659886 255.391186 
L 188.751254 255.139998 
L 188.796938 255.27701 
L 189.002517 256.418773 
L 189.025359 256.395938 
L 189.459358 264.159926 
L 189.482201 263.885903 
L 189.596411 262.013412 
L 190.418726 236.141062 
L 191.058304 204.171697 
L 192.063356 184.259349 
L 192.268935 183.208927 
L 192.337461 183.574292 
L 192.405987 184.921572 
L 192.497356 184.419196 
L 192.680092 182.934904 
L 192.702934 182.934904 
L 192.862829 184.990078 
L 194.279038 243.562521 
L 194.324722 243.402675 
L 194.553143 241.119148 
L 194.575985 241.347501 
L 194.598827 240.753784 
L 194.872932 232.418914 
L 195.877984 192.457208 
L 195.94651 193.484795 
L 196.471878 230.2724 
L 197.088615 265.986747 
L 197.111457 265.78123 
L 197.202825 265.187513 
L 197.294193 262.972493 
L 197.842403 220.430402 
L 198.367771 182.934904 
L 198.527666 182.204176 
L 198.664718 180.879731 
L 198.710403 181.062413 
L 198.801771 181.496283 
L 198.847455 181.26793 
L 198.961666 180.582872 
L 199.00735 180.697049 
L 199.487034 190.013835 
L 199.578402 188.986248 
L 199.898191 182.889234 
L 199.966717 182.478199 
L 200.309349 178.984404 
L 200.560611 176.723713 
L 200.948927 170.832216 
L 201.154506 171.448768 
L 201.360084 174.554364 
L 201.588505 180.194673 
L 201.679874 179.737968 
L 202.022505 176.495361 
L 202.113873 176.929231 
L 202.387978 179.692297 
L 202.41082 179.623791 
L 202.662083 178.870228 
L 202.684925 178.824557 
L 202.799136 175.97015 
L 203.210293 161.743782 
L 203.438714 167.817962 
L 203.667135 170.535358 
L 203.986924 172.818884 
L 204.009766 172.818884 
L 204.123977 172.156661 
L 204.146819 172.544861 
L 204.580818 185.149925 
L 204.717871 184.35069 
L 204.92345 182.409693 
L 205.266081 185.492453 
L 205.288923 185.332607 
L 205.448818 184.875901 
L 205.540186 185.286936 
L 205.768607 186.931075 
L 205.859975 187.38778 
L 205.882817 187.34211 
L 205.905659 187.113757 
L 205.951343 187.570462 
L 206.362501 192.228855 
L 206.431027 192.571384 
L 206.453869 192.343032 
L 206.636606 190.927245 
L 206.68229 190.995751 
L 206.842185 190.813069 
L 207.184816 189.054754 
L 207.253342 189.260271 
L 207.276184 189.511459 
L 207.321868 189.031919 
L 207.436079 188.141344 
L 207.481763 188.232685 
L 207.573131 187.501956 
L 207.938605 183.551456 
L 208.007131 183.43728 
L 208.052815 183.505786 
L 208.258394 184.419196 
L 208.32692 184.761725 
L 208.372604 184.647549 
L 208.441131 183.91682 
L 208.669551 181.26793 
L 208.738078 181.382107 
L 208.76092 181.336436 
L 208.966499 179.395439 
L 209.103551 179.623791 
L 209.240604 179.669462 
L 209.354814 179.92065 
L 209.377656 179.897815 
L 209.606077 177.522947 
L 209.651761 178.710381 
L 209.948708 191.429621 
L 210.611129 237.73953 
L 210.930918 257.149501 
L 211.136497 262.972493 
L 211.227865 264.91349 
L 211.479128 269.412036 
L 211.776075 272.175103 
L 211.844601 271.375869 
L 212.118706 265.187513 
L 212.415653 263.771727 
L 212.529864 263.840233 
L 212.826811 255.825056 
L 212.986705 248.083903 
L 213.466389 226.207723 
L 214.12881 216.205879 
L 214.151652 216.114538 
L 214.197336 216.388561 
L 214.220178 216.274385 
L 214.448599 217.6445 
L 214.585651 217.142125 
L 214.631335 217.256301 
L 214.654178 217.233466 
L 214.67702 217.301972 
L 214.79123 218.603581 
L 215.042493 224.449408 
L 215.088177 222.828105 
L 215.33944 217.119289 
L 215.636387 207.368633 
L 215.956176 199.764491 
L 216.070387 196.453379 
L 216.413018 177.865476 
L 216.504386 178.596205 
L 216.595755 179.349768 
L 216.641439 179.09858 
L 216.755649 178.527699 
L 216.778491 178.641875 
L 217.006912 180.697049 
L 217.029754 180.651378 
L 217.121123 180.537202 
L 217.143965 180.605708 
L 217.281017 180.993907 
L 217.303859 180.879731 
L 217.372386 180.605708 
L 217.395228 180.697049 
L 217.577964 182.752222 
L 217.600806 182.204176 
L 217.874911 172.704707 
L 218.354595 154.779028 
L 218.423121 156.034967 
L 218.674384 162.999722 
L 218.925647 169.4621 
L 218.994174 172.270838 
L 219.359647 186.52004 
L 219.519542 192.59422 
L 219.72512 201.659818 
L 219.816489 200.403879 
L 220.067752 193.50763 
L 220.501751 181.22226 
L 220.935751 173.732294 
L 221.049961 173.640953 
L 221.072803 173.686624 
L 221.118487 173.640953 
L 221.529645 172.430684 
L 221.575329 172.590531 
L 221.826592 174.371682 
L 222.146381 181.564789 
L 222.192065 180.765555 
L 222.511855 171.517274 
L 222.534697 172.659037 
L 223.471222 212.278214 
L 223.88238 230.592093 
L 223.928064 228.080215 
L 224.796063 185.720806 
L 224.887431 185.21843 
L 224.933116 185.378277 
L 225.435641 206.729246 
L 225.801115 220.727261 
L 226.07522 223.810021 
L 226.120904 223.467492 
L 226.257956 217.804347 
L 226.463535 202.070853 
L 226.760482 188.826402 
L 227.17164 181.633294 
L 227.308692 182.021494 
L 227.422903 184.921572 
L 227.765534 205.381965 
L 228.131007 225.408489 
L 228.496481 230.660599 
L 228.702059 227.577839 
L 228.839112 224.106879 
L 228.93048 224.426573 
L 228.976164 224.654925 
L 229.021849 224.449408 
L 229.067533 223.969868 
L 229.844164 207.300127 
L 230.118269 206.158364 
L 230.163953 206.22687 
L 230.186795 206.158364 
L 230.8949 183.231763 
L 230.940584 183.619962 
L 231.00911 184.990078 
L 231.306057 200.221197 
L 231.968478 229.130637 
L 232.174056 232.829949 
L 232.356793 237.853706 
L 232.448161 237.237154 
L 232.493845 236.43792 
L 232.65374 234.428417 
L 232.699424 234.200064 
L 232.882161 232.555926 
L 233.019213 232.670102 
L 233.042055 232.647267 
L 233.293318 229.336154 
L 233.339003 229.518836 
L 233.521739 232.190562 
L 233.63595 231.391327 
L 234.29837 223.695845 
L 234.73237 212.164038 
L 235.097843 205.930012 
L 235.326264 204.331544 
L 235.897316 192.799737 
L 236.148579 189.831153 
L 236.262789 189.671306 
L 236.285631 189.785482 
L 236.331316 189.968165 
L 236.377 189.785482 
L 236.422684 189.6028 
L 236.445526 189.671306 
L 236.673947 197.435295 
L 236.970894 208.693078 
L 237.541946 231.756692 
L 237.610472 232.030715 
L 237.633314 231.870868 
L 237.724683 231.071634 
L 237.793209 231.345657 
L 237.816051 231.414163 
L 237.975946 227.349486 
L 238.478472 215.657833 
L 238.775419 205.153613 
L 238.980997 204.468555 
L 239.072366 204.902425 
L 239.095208 204.856755 
L 239.460681 197.823494 
L 239.917523 190.128011 
L 240.305838 186.246017 
L 240.397207 186.360193 
L 240.465733 186.063335 
L 240.671312 185.401112 
L 240.785522 185.058584 
L 240.854048 185.17276 
L 241.128153 186.657052 
L 241.493627 190.013835 
L 241.584995 189.716977 
L 241.630679 189.853988 
L 241.790574 191.566633 
L 242.041837 194.306864 
L 242.133205 193.713147 
L 242.2931 192.228855 
L 242.315942 192.343032 
L 242.521521 191.315445 
L 242.590047 191.498127 
L 242.681415 191.33828 
L 242.704257 191.383951 
L 242.886994 192.114679 
L 242.909836 192.069009 
L 243.001204 191.087092 
L 243.252467 186.47437 
L 243.343836 186.588546 
L 243.572256 187.456286 
L 243.892046 184.259349 
L 244.166151 179.007239 
L 244.280361 177.911147 
L 244.326045 178.093829 
L 244.463098 178.550534 
L 244.48594 178.527699 
L 244.554466 178.322182 
L 244.782887 175.513445 
L 244.828571 175.787468 
L 244.988466 178.664711 
L 245.605202 195.311616 
L 245.970675 197.549471 
L 246.176254 199.262116 
L 246.267622 198.851081 
L 246.381833 197.777824 
L 246.930043 186.976745 
L 247.021411 187.113757 
L 247.112779 186.588546 
L 247.181306 185.971994 
L 247.22699 186.291688 
L 247.318358 187.227933 
L 247.364042 186.748393 
L 247.432569 186.314523 
L 247.478253 186.52004 
L 247.7752 188.346861 
L 247.88941 189.625636 
L 247.935095 189.442954 
L 247.980779 189.146095 
L 248.026463 189.283107 
L 248.163515 190.972916 
L 248.528989 195.996673 
L 248.780252 198.965257 
L 248.917304 199.444798 
L 248.940146 199.421962 
L 248.962988 199.376292 
L 248.98583 199.490468 
L 249.122883 200.175526 
L 249.191409 199.878668 
L 249.282777 199.307786 
L 249.30562 199.421962 
L 249.671093 206.272541 
L 249.739619 206.729246 
L 249.762461 206.523729 
L 249.899514 202.870087 
L 250.264987 192.137514 
L 250.40204 191.201269 
L 250.424882 191.543798 
L 250.539092 194.512381 
L 251.292881 229.587342 
L 251.772565 255.962068 
L 251.863933 255.779386 
L 252.069512 251.143828 
L 252.434985 240.82229 
L 252.823301 224.654925 
L 252.891827 294.2568 
L 252.914669 248.883137 
L 253.120248 107.624215 
L 253.394353 59.693002 
L 253.462879 53.3448 
L 253.508563 58.733922 
L 253.828352 81.637688 
L 254.148141 92.393096 
L 254.262352 77.847035 
L 254.330878 82.391252 
L 254.627825 109.679388 
L 255.016141 137.835264 
L 255.221719 147.015039 
L 255.587193 170.786546 
L 256.112561 202.915757 
L 256.318139 208.670243 
L 256.54656 215.018445 
L 257.140455 237.671024 
L 257.208981 237.899377 
L 257.254665 237.808036 
L 257.460244 236.757614 
L 257.688665 235.684356 
L 257.757191 235.798533 
L 257.802875 235.867038 
L 257.894243 233.903206 
L 258.145506 223.307645 
L 258.51098 207.52848 
L 258.670874 206.295376 
L 259.219084 198.303035 
L 259.378979 197.663647 
L 259.401821 197.732153 
L 259.858663 201.591312 
L 260.018557 205.473307 
L 260.338346 213.031778 
L 260.475399 214.173541 
L 260.498241 214.150706 
L 260.589609 214.379058 
L 260.772346 214.744422 
L 260.840872 214.972775 
L 261.023609 216.913772 
L 261.046451 216.845266 
L 261.320556 214.607411 
L 261.548977 208.670243 
L 261.594661 208.807255 
L 261.686029 209.081278 
L 261.731713 209.012772 
L 261.823082 209.583653 
L 261.960134 210.519899 
L 262.028661 210.291547 
L 262.576871 201.888171 
L 262.668239 200.175526 
L 262.713923 200.814913 
L 262.965186 203.874838 
L 262.988028 203.829168 
L 263.079396 203.646486 
L 263.102239 203.714991 
L 263.376344 204.788249 
L 263.627606 206.637905 
L 263.650449 206.61507 
L 263.901711 205.884341 
L 263.924554 205.884341 
L 264.038764 207.09461 
L 264.152974 206.866257 
L 264.244343 206.752081 
L 264.267185 206.797752 
L 264.335711 207.254457 
L 264.472764 208.350549 
L 264.518448 208.236373 
L 264.609816 207.825338 
L 264.6555 208.00802 
L 264.929605 211.661662 
L 265.249394 216.68542 
L 265.317921 217.301972 
L 265.386447 217.142125 
L 265.683394 218.146876 
L 265.706236 218.055535 
L 265.774762 217.827183 
L 265.820447 217.987029 
L 266.277288 221.457989 
L 266.61992 220.498908 
L 266.73413 220.772931 
L 266.756972 220.727261 
L 267.328024 212.575073 
L 267.602129 206.957598 
L 267.807708 203.18978 
L 267.853392 203.212616 
L 267.876234 203.18978 
L 268.447286 197.275448 
L 268.538655 197.823494 
L 268.949812 203.029934 
L 269.178233 208.327714 
L 269.315285 208.122197 
L 269.406654 208.784419 
L 269.452338 208.670243 
L 269.543706 208.122197 
L 269.863496 213.534154 
L 270.114758 210.679746 
L 270.137601 210.908099 
L 270.228969 211.182122 
L 270.274653 211.067945 
L 270.343179 210.748252 
L 270.434548 209.766336 
L 270.480232 210.108864 
L 270.914231 218.626417 
L 270.937073 218.489405 
L 271.142652 214.94994 
L 271.256863 212.689249 
L 271.325389 212.849096 
L 271.371073 212.803425 
L 271.439599 212.323885 
L 271.576652 209.149784 
L 271.759389 199.536139 
L 271.896441 194.969087 
L 272.010651 193.484795 
L 272.261914 185.264101 
L 272.307599 184.373526 
L 272.376125 184.761725 
L 272.467493 186.063335 
L 272.947177 194.969087 
L 272.970019 195.996673 
L 273.015703 194.238358 
L 273.084229 193.50763 
L 273.107072 193.827324 
L 273.152756 195.334451 
L 273.19844 193.324948 
L 273.358334 188.346861 
L 273.381177 188.712225 
L 273.563913 190.242188 
L 273.586755 190.242188 
L 273.609597 190.082341 
L 273.678124 190.356364 
L 273.74665 190.47054 
L 273.792334 190.402035 
L 273.838018 190.287858 
L 273.86086 190.47054 
L 273.906544 190.881575 
L 274.180649 204.582731 
L 274.203492 204.240202 
L 274.226334 203.829168 
L 274.249176 204.788249 
L 275.071491 240.297079 
L 275.162859 239.406504 
L 275.27707 238.082059 
L 275.642543 218.146876 
L 275.688227 217.530324 
L 275.756753 217.872853 
L 275.802437 218.0327 
L 275.848122 217.827183 
L 275.916648 217.119289 
L 275.962332 217.416148 
L 275.985174 217.6445 
L 276.0537 217.233466 
L 276.282121 213.579824 
L 276.350647 209.492312 
L 276.442016 210.908099 
L 276.716121 218.603581 
L 276.9217 221.457989 
L 276.944542 221.480824 
L 277.03591 222.828105 
L 277.081594 222.485576 
L 277.195805 222.051706 
L 277.241489 222.211553 
L 277.287173 222.508411 
L 277.310015 222.211553 
L 277.515594 219.585498 
L 277.606962 219.81385 
L 277.652646 219.699674 
L 277.721173 219.060287 
L 277.972435 213.031778 
L 278.315067 198.691234 
L 278.520646 191.886326 
L 278.863277 187.205098 
L 279.274434 184.464867 
L 279.388645 185.149925 
L 279.548539 188.529543 
L 280.393696 209.26396 
L 280.622117 211.524651 
L 281.056117 216.457067 
L 281.124643 218.740593 
L 281.170327 217.918524 
L 281.490116 213.077448 
L 281.512959 213.123119 
L 281.695695 213.64833 
L 281.809906 213.579824 
L 281.992642 213.123119 
L 282.015484 212.917602 
L 282.449484 237.008802 
L 282.495168 235.273322 
L 283.226115 206.067023 
L 283.431694 201.271619 
L 283.820009 176.381184 
L 283.865693 178.208005 
L 284.550956 208.852925 
L 284.802219 213.945188 
L 284.893587 213.031778 
L 285.236218 206.22687 
L 285.441797 203.600815 
L 285.601692 201.317289 
L 285.670218 201.659818 
L 285.875797 205.039437 
L 285.967165 205.244954 
L 286.012849 205.153613 
L 286.104218 204.05752 
L 286.35548 200.92909 
L 286.469691 200.860584 
L 286.561059 199.718821 
L 286.78948 193.050925 
L 286.949375 182.067164 
L 287.200638 163.707615 
L 287.406216 156.286155 
L 287.474743 156.057802 
L 287.497585 156.149144 
L 287.588953 158.04447 
L 287.863058 166.676199 
L 288.456952 192.685561 
L 288.753899 203.440968 
L 288.913794 204.742578 
L 288.959478 204.514226 
L 289.119373 202.413382 
L 289.347794 199.330621 
L 289.370636 199.490468 
L 289.484846 199.832997 
L 289.507688 199.67315 
L 289.553372 199.262116 
L 289.599056 199.421962 
L 289.804635 200.586561 
L 289.850319 200.403879 
L 290.033056 199.19361 
L 290.055898 199.604645 
L 290.215793 200.792078 
L 290.238635 200.746408 
L 290.467056 199.19361 
L 290.558424 199.033763 
L 290.581266 199.079434 
L 290.695476 199.536139 
L 290.718319 199.444798 
L 290.923897 196.97859 
L 290.946739 196.521884 
L 291.015266 196.910084 
L 291.289371 198.051847 
L 291.403581 199.787327 
L 291.472107 199.262116 
L 291.517792 198.873916 
L 291.586318 199.216445 
L 291.814739 203.646486 
L 291.837581 202.984263 
L 292.225896 190.013835 
L 292.248738 190.242188 
L 292.317264 190.698893 
L 292.340107 190.356364 
L 292.568527 186.588546 
L 292.751264 182.889234 
L 293.025369 174.303176 
L 293.185264 171.243251 
L 293.413685 180.080497 
L 293.619263 185.971994 
L 294.236 195.768321 
L 295.126841 227.737686 
L 295.172525 227.806191 
L 295.355262 230.729105 
L 295.697893 241.096313 
L 295.720735 241.210489 
L 295.743577 241.096313 
L 295.812103 239.292328 
L 296.634418 205.998518 
L 296.748629 202.27637 
L 297.205471 185.149925 
L 297.251155 185.058584 
L 297.273997 185.17276 
L 297.502418 188.483873 
L 297.867891 193.142266 
L 297.936417 193.142266 
L 298.141996 191.680809 
L 298.233364 191.954832 
L 298.370417 193.850159 
L 298.530311 193.439124 
L 298.62168 193.621806 
L 298.667364 193.50763 
L 298.758732 193.256442 
L 298.804416 193.370618 
L 298.850101 193.439124 
L 299.147048 196.293532 
L 299.672416 201.956676 
L 299.740942 201.591312 
L 300.060731 219.083122 
L 300.334836 230.135388 
L 300.631783 234.65677 
L 300.700309 234.245735 
L 300.905888 233.743359 
L 301.042941 233.332325 
L 301.065783 233.446501 
L 301.111467 233.811865 
L 301.134309 233.35516 
L 301.339888 226.824275 
L 301.956624 193.895829 
L 302.02515 194.740734 
L 302.207887 195.768321 
L 302.276413 195.951003 
L 302.413466 196.453379 
L 302.436308 196.293532 
L 302.504834 196.133685 
L 302.527676 196.247861 
L 302.687571 198.531387 
L 303.190097 211.753003 
L 303.829675 230.592093 
L 303.966728 233.286654 
L 304.035254 232.647267 
L 304.080938 232.190562 
L 304.10378 232.715773 
L 304.332201 234.999299 
L 304.377885 235.113475 
L 304.400727 235.067804 
L 304.469253 234.474088 
L 304.492095 234.885122 
L 304.834727 242.420758 
L 304.926095 241.553018 
L 305.360095 226.938452 
L 305.497147 224.723431 
L 305.6342 222.599752 
L 305.657042 222.713928 
L 305.794094 223.353316 
L 305.839778 223.239139 
L 306.068199 212.620743 
L 306.387988 200.10702 
L 306.616409 197.138436 
L 306.707778 197.161272 
L 306.799146 196.225026 
L 307.004725 193.324948 
L 307.347356 183.734138 
L 307.415882 183.208927 
L 307.461566 183.345939 
L 307.644303 184.761725 
L 307.667145 184.533373 
L 307.758514 182.318352 
L 307.872724 182.706552 
L 307.986934 183.231763 
L 308.009776 183.208927 
L 308.238197 180.194673 
L 308.352408 179.395439 
L 308.37525 179.737968 
L 308.557986 182.638046 
L 308.854934 189.283107 
L 308.900618 189.374448 
L 308.946302 189.260271 
L 308.991986 189.100425 
L 309.014828 189.260271 
L 309.448828 200.129856 
L 309.700091 209.378136 
L 309.837143 209.720665 
L 309.859985 209.652159 
L 309.997038 208.44189 
L 310.042722 209.081278 
L 310.362511 212.460896 
L 310.431037 212.004191 
L 310.545248 211.182122 
L 310.590932 211.364804 
L 310.613774 211.43331 
L 310.636616 211.250627 
L 310.773669 209.492312 
L 311.139142 202.2307 
L 311.207668 202.573228 
L 311.253352 202.618899 
L 311.276195 202.573228 
L 311.344721 201.36296 
L 311.436089 196.59039 
L 311.481773 193.279277 
L 311.5503 195.539968 
L 311.801562 199.033763 
L 311.915773 201.36296 
L 311.961457 200.906254 
L 312.281246 198.75974 
L 312.349772 199.102269 
L 312.463983 201.271619 
L 312.76093 212.164038 
L 312.989351 220.772931 
L 313.74314 239.063975 
L 313.811666 239.566351 
L 313.880192 239.292328 
L 313.994403 237.214319 
L 314.199981 227.851862 
L 314.496928 201.385795 
L 314.748191 188.346861 
L 315.273559 175.810303 
L 315.456296 177.27176 
L 315.524822 178.413523 
L 316.141558 201.36296 
L 316.689769 205.815835 
L 316.826821 205.473307 
L 316.963874 202.733075 
L 317.58061 189.031919 
L 317.717662 187.844485 
L 317.900399 184.830231 
L 317.946083 185.035748 
L 318.174504 186.862569 
L 318.699872 202.801581 
L 318.768398 202.185029 
L 318.973977 198.851081 
L 319.33945 187.661803 
L 319.841976 165.625777 
L 319.88766 165.397424 
L 319.910502 165.739953 
L 320.024713 170.444017 
L 320.732817 200.632231 
L 321.098291 207.071775 
L 321.143975 206.295376 
L 321.486606 199.490468 
L 321.85208 191.109928 
L 321.943448 190.995751 
L 321.96629 191.109928 
L 322.240395 193.5533 
L 322.286079 193.256442 
L 322.62871 187.912991 
L 323.49671 164.940719 
L 323.61092 164.050144 
L 323.656604 164.255661 
L 323.679446 164.324167 
L 323.702288 164.16432 
L 323.816499 163.113898 
L 323.953551 161.972135 
L 323.976393 162.223323 
L 324.181972 165.762788 
L 325.14134 199.764491 
L 325.483971 213.694 
L 325.666708 215.520821 
L 325.712392 215.589327 
L 325.986497 217.941359 
L 326.055023 217.484654 
L 326.23776 216.662584 
L 326.466181 213.374307 
L 326.923022 204.354379 
L 326.945864 204.217367 
L 326.991549 204.44572 
L 327.037233 204.674072 
L 327.082917 204.400049 
L 327.33418 199.147939 
L 328.4306 164.369837 
L 328.499126 164.209991 
L 328.521968 164.324167 
L 328.796073 166.790375 
L 329.09302 175.627621 
L 329.549862 190.995751 
L 329.709757 193.370618 
L 329.846809 193.028089 
L 330.395019 186.47437 
L 330.829019 176.929231 
L 330.920387 176.609537 
L 331.011755 175.125245 
L 331.125966 173.8008 
L 331.148808 173.869306 
L 331.491439 175.673291 
L 331.559965 175.513445 
L 331.742702 174.66854 
L 332.016807 172.49919 
L 332.199544 168.822713 
L 332.290912 170.032982 
L 332.519333 170.946392 
L 332.610701 170.558193 
L 332.679228 170.786546 
L 332.907648 172.955895 
L 333.158911 175.741797 
L 333.295964 176.88356 
L 333.570069 180.423026 
L 333.592911 179.555286 
L 333.889858 171.859803 
L 334.392384 165.123401 
L 334.529436 165.46593 
L 334.963436 169.530606 
L 335.191857 172.93306 
L 335.306067 172.49919 
L 335.854277 168.822713 
L 336.10554 163.68478 
L 336.196909 163.981638 
L 336.448172 163.456427 
L 336.53954 164.278496 
L 336.927855 169.621947 
L 337.019224 169.918806 
L 337.042066 169.736124 
L 337.156276 169.347924 
L 337.179118 169.393595 
L 337.887223 176.01582 
L 337.955749 175.673291 
L 338.001433 175.467774 
L 338.06996 175.513445 
L 338.115644 175.58195 
L 338.138486 175.513445 
L 338.61817 171.791297 
L 338.686696 171.928309 
L 338.84659 170.603864 
L 339.28059 160.853207 
L 339.531853 157.633435 
L 339.554695 157.542094 
L 339.600379 157.747612 
L 339.737432 157.701941 
L 340.080063 155.258568 
L 340.148589 154.916039 
L 340.399852 152.267149 
L 340.514063 151.764773 
L 340.536905 151.810444 
L 340.628273 152.381325 
L 340.719641 152.838031 
L 340.742483 152.632513 
L 340.81101 152.518337 
L 340.856694 152.632513 
L 341.199325 158.569681 
L 341.884588 178.208005 
L 342.113008 179.555286 
L 342.181535 179.395439 
L 342.409956 177.066242 
L 342.912481 167.566774 
L 343.00385 168.046314 
L 343.163744 170.672369 
L 343.232271 169.8503 
L 343.369323 169.188077 
L 343.392165 169.233748 
L 343.529218 169.918806 
L 343.620586 170.215664 
L 343.643428 170.192829 
L 343.757639 169.736124 
L 343.780481 169.8503 
L 344.145954 174.645705 
L 344.237322 173.960647 
L 344.64848 167.406927 
L 344.671322 167.475433 
L 344.76269 167.566774 
L 344.808374 167.68095 
L 345.013953 169.530606 
L 345.128164 170.261335 
L 345.173848 170.101488 
L 345.470795 169.051066 
L 345.516479 169.347924 
L 345.950479 174.600034 
L 346.178899 178.208005 
L 346.361636 178.984404 
L 346.430162 178.938734 
L 346.453004 178.893063 
L 346.475847 179.007239 
L 346.635741 181.610459 
L 346.772794 183.391609 
L 346.795636 183.208927 
L 346.978372 180.697049 
L 347.800687 167.703785 
L 347.82353 167.795126 
L 347.846372 167.863632 
L 347.892056 167.795126 
L 348.074792 166.676199 
L 348.143319 166.150988 
L 348.166161 166.493517 
L 348.691529 173.070072 
L 348.714371 173.047236 
L 348.782897 172.955895 
L 348.805739 173.001566 
L 348.942792 173.983482 
L 349.079844 175.467774 
L 349.102686 175.353598 
L 349.308265 172.818884 
L 349.650896 168.366008 
L 349.719423 168.480184 
L 349.879317 169.302254 
L 350.039212 171.63145 
L 350.13058 171.403098 
L 350.176264 171.106239 
L 350.336159 163.707615 
L 350.67879 147.426074 
L 351.067106 133.793423 
L 351.615316 106.893486 
L 351.729526 108.263602 
L 351.957947 113.355865 
L 352.003631 112.876325 
L 352.163526 111.734562 
L 352.20921 111.757397 
L 352.346262 113.744064 
L 352.666051 119.681232 
L 352.825946 120.206443 
L 353.122893 123.974261 
L 353.830998 134.34147 
L 353.876682 133.998941 
L 353.922366 134.113117 
L 354.082261 137.447065 
L 354.539102 156.605849 
L 355.06447 177.979653 
L 355.635522 190.744563 
L 355.726891 190.196517 
L 355.978154 187.684638 
L 356.023838 187.730309 
L 356.183732 185.971994 
L 356.275101 186.428699 
L 356.412153 189.785482 
L 356.686258 200.906254 
L 357.348679 233.286654 
L 357.942573 251.395016 
L 358.033941 250.298923 
L 358.23952 244.658614 
L 358.764888 225.682512 
L 359.290256 194.192688 
L 359.472993 190.630387 
L 359.838466 188.141344 
L 359.975518 188.643719 
L 360.226781 197.617977 
L 360.592255 208.852925 
L 360.683623 209.606489 
L 360.752149 209.492312 
L 360.774991 209.492312 
L 360.86636 209.949018 
L 360.934886 209.812006 
L 361.003412 209.720665 
L 361.026254 209.812006 
L 361.688675 215.886185 
L 361.96278 221.11546 
L 362.465306 231.642515 
L 362.579516 233.103972 
L 362.967831 241.553018 
L 363.104884 243.722368 
L 363.17341 243.334169 
L 363.196252 243.334169 
L 363.333305 241.393172 
L 363.675936 233.674853 
L 363.72162 234.040218 
L 363.904357 236.985966 
L 363.972883 236.826119 
L 363.995725 236.780449 
L 364.018567 236.826119 
L 364.178462 237.899377 
L 364.224146 237.671024 
L 364.406883 237.122978 
L 364.475409 236.666273 
L 364.498251 236.985966 
L 364.521093 237.237154 
L 364.589619 236.826119 
L 364.635304 236.87179 
L 364.749514 239.109645 
L 364.955093 241.164819 
L 364.977935 241.119148 
L 365.114987 240.365585 
L 365.411935 235.501674 
L 365.960145 210.291547 
L 366.416986 187.570462 
L 366.439828 187.159427 
L 366.531197 187.227933 
L 366.622565 186.885404 
L 366.645407 186.999581 
L 366.78246 189.853988 
L 367.376354 213.922353 
L 367.741827 237.008802 
L 367.810353 237.73953 
L 367.856038 237.397001 
L 368.130143 230.957457 
L 368.746879 199.787327 
L 369.180878 183.049081 
L 369.409299 179.555286 
L 369.52351 180.126167 
L 369.683404 183.734138 
L 370.802666 239.612021 
L 370.962561 241.164819 
L 371.008245 241.438842 
L 371.076771 241.278995 
L 371.16814 240.411255 
L 371.487929 233.286654 
L 372.81277 190.402035 
L 372.858454 190.539046 
L 373.155401 192.343032 
L 373.223927 192.251691 
L 373.383822 194.626558 
L 373.612243 200.358208 
L 374.297505 222.782434 
L 375.051294 240.297079 
L 375.211189 241.918383 
L 375.371083 242.923134 
L 375.508136 244.019227 
L 375.530978 243.950721 
L 376.170556 230.546423 
L 376.421819 225.134466 
L 376.810135 217.530324 
L 376.832977 217.416148 
L 376.855819 217.6445 
L 376.878661 217.6445 
L 376.947187 217.59883 
L 376.992871 217.6445 
L 377.221292 215.634998 
L 377.381187 209.812006 
L 377.655292 197.252613 
L 377.700976 197.321118 
L 377.74666 197.321118 
L 378.089291 206.980434 
L 378.112133 204.788249 
L 378.797396 149.778106 
L 379.117185 120.206443 
L 379.596869 70.083046 
L 379.9395 62.524575 
L 379.985184 62.364728 
L 380.030869 62.524575 
L 380.167921 63.734844 
L 380.48771 68.804271 
L 380.92171 85.999223 
L 381.903919 150.052129 
L 382.223709 161.880794 
L 382.315077 160.624855 
L 382.360761 161.013054 
L 382.383603 160.739031 
L 383.754128 77.139142 
L 383.845497 77.139142 
L 383.891181 77.732858 
L 384.462233 94.745128 
L 384.690654 98.627122 
L 384.782022 99.015321 
L 384.827706 98.832639 
L 384.964759 96.503443 
L 385.078969 94.836469 
L 385.124653 94.950645 
L 385.238864 96.092408 
L 385.261706 95.818385 
L 385.512969 92.849801 
L 385.558653 92.918307 
L 385.627179 92.849801 
L 385.946968 91.593862 
L 385.96981 92.164743 
L 386.221073 95.430185 
L 386.449494 99.814555 
L 386.563705 98.969651 
L 386.792126 96.320761 
L 387.134757 85.702364 
L 387.523072 61.862352 
L 387.682967 59.967026 
L 387.728651 60.081202 
L 387.797177 59.967026 
L 387.820019 60.035531 
L 388.116966 62.821433 
L 388.185493 62.524575 
L 388.208335 62.478904 
L 388.254019 62.593081 
L 388.322545 63.049786 
L 388.459598 64.876607 
L 388.665176 86.63861 
L 388.916439 104.724136 
L 389.167702 113.81257 
L 389.418965 125.846753 
L 389.921491 151.376574 
L 389.967175 151.422245 
L 390.12707 149.252895 
L 390.218438 149.7096 
L 390.378333 150.463164 
L 390.492543 151.079716 
L 390.538227 151.01121 
L 390.652438 150.097799 
L 390.835174 144.046455 
L 391.154964 133.222542 
L 391.246332 131.669744 
L 391.269174 132.057944 
L 391.406227 136.282467 
L 391.474753 136.008444 
L 391.497595 135.939938 
L 392.799594 101.344518 
L 392.86812 100.682295 
L 392.959488 100.796472 
L 393.005172 100.842142 
L 393.073699 100.796472 
L 393.096541 101.298847 
L 393.30212 109.633718 
L 393.827488 142.333811 
L 394.39854 187.684638 
L 394.421382 189.488624 
L 394.489908 188.415367 
L 394.672645 182.249846 
L 394.901065 173.686624 
L 395.357907 164.027308 
L 395.426433 165.306083 
L 395.814749 174.759881 
L 396.454327 239.52068 
L 396.796958 251.509192 
L 396.911169 252.924978 
L 398.487273 167.749456 
L 398.487273 167.749456 
" style="fill:none;stroke:#1f77b4;stroke-linecap:square;stroke-width:1.5;"/>
   </g>
   <g id="patch_3">
    <path d="M 57.6 306.3024 
L 57.6 41.2992 
" style="fill:none;stroke:#000000;stroke-linecap:square;stroke-linejoin:miter;stroke-width:0.8;"/>
   </g>
   <g id="patch_4">
    <path d="M 414.72 306.3024 
L 414.72 41.2992 
" style="fill:none;stroke:#000000;stroke-linecap:square;stroke-linejoin:miter;stroke-width:0.8;"/>
   </g>
   <g id="patch_5">
    <path d="M 57.6 306.3024 
L 414.72 306.3024 
" style="fill:none;stroke:#000000;stroke-linecap:square;stroke-linejoin:miter;stroke-width:0.8;"/>
   </g>
   <g id="patch_6">
    <path d="M 57.6 41.2992 
L 414.72 41.2992 
" style="fill:none;stroke:#000000;stroke-linecap:square;stroke-linejoin:miter;stroke-width:0.8;"/>
   </g>
   <g id="text_17">
    <!-- Ritmo Cardíaco -->
    <g transform="translate(190.094063 35.2992)scale(0.12 -0.12)">
     <use xlink:href="#DejaVuSans-82"/>
     <use x="69.482422" xlink:href="#DejaVuSans-105"/>
     <use x="97.265625" xlink:href="#DejaVuSans-116"/>
     <use x="136.474609" xlink:href="#DejaVuSans-109"/>
     <use x="233.886719" xlink:href="#DejaVuSans-111"/>
     <use x="295.068359" xlink:href="#DejaVuSans-32"/>
     <use x="326.855469" xlink:href="#DejaVuSans-67"/>
     <use x="396.679688" xlink:href="#DejaVuSans-97"/>
     <use x="457.958984" xlink:href="#DejaVuSans-114"/>
     <use x="499.056641" xlink:href="#DejaVuSans-100"/>
     <use x="562.533203" xlink:href="#DejaVuSans-237"/>
     <use x="590.316406" xlink:href="#DejaVuSans-97"/>
     <use x="651.595703" xlink:href="#DejaVuSans-99"/>
     <use x="706.576172" xlink:href="#DejaVuSans-111"/>
    </g>
   </g>
  </g>
 </g>
 <defs>
  <clipPath id="p59439d9ca8">
   <rect height="265.0032" width="357.12" x="57.6" y="41.2992"/>
  </clipPath>
 </defs>
</svg>
