<?xml version="1.0" encoding="utf-8" standalone="no"?>
<!DOCTYPE svg PUBLIC "-//W3C//DTD SVG 1.1//EN"
  "http://www.w3.org/Graphics/SVG/1.1/DTD/svg11.dtd">
<!-- Created with matplotlib (https://matplotlib.org/) -->
<svg height="344.16pt" version="1.1" viewBox="0 0 460.8 344.16" width="460.8pt" xmlns="http://www.w3.org/2000/svg" xmlns:xlink="http://www.w3.org/1999/xlink">
 <defs>
  <style type="text/css">
*{stroke-linecap:butt;stroke-linejoin:round;}
  </style>
 </defs>
 <g id="figure_1">
  <g id="patch_1">
   <path d="M 0 344.16 
L 460.8 344.16 
L 460.8 0 
L 0 0 
z
" style="fill:#ffffff;"/>
  </g>
  <g id="axes_1">
   <g id="patch_2">
    <path d="M 57.6 306.3024 
L 414.72 306.3024 
L 414.72 41.2992 
L 57.6 41.2992 
z
" style="fill:#ffffff;"/>
   </g>
   <g id="matplotlib.axis_1">
    <g id="xtick_1">
     <g id="line2d_1">
      <defs>
       <path d="M 0 0 
L 0 3.5 
" id="m117a79068e" style="stroke:#000000;stroke-width:0.8;"/>
      </defs>
      <g>
       <use style="stroke:#000000;stroke-width:0.8;" x="73.832727" xlink:href="#m117a79068e" y="306.3024"/>
      </g>
     </g>
     <g id="text_1">
      <!-- 0 -->
      <defs>
       <path d="M 31.78125 66.40625 
Q 24.171875 66.40625 20.328125 58.90625 
Q 16.5 51.421875 16.5 36.375 
Q 16.5 21.390625 20.328125 13.890625 
Q 24.171875 6.390625 31.78125 6.390625 
Q 39.453125 6.390625 43.28125 13.890625 
Q 47.125 21.390625 47.125 36.375 
Q 47.125 51.421875 43.28125 58.90625 
Q 39.453125 66.40625 31.78125 66.40625 
z
M 31.78125 74.21875 
Q 44.046875 74.21875 50.515625 64.515625 
Q 56.984375 54.828125 56.984375 36.375 
Q 56.984375 17.96875 50.515625 8.265625 
Q 44.046875 -1.421875 31.78125 -1.421875 
Q 19.53125 -1.421875 13.0625 8.265625 
Q 6.59375 17.96875 6.59375 36.375 
Q 6.59375 54.828125 13.0625 64.515625 
Q 19.53125 74.21875 31.78125 74.21875 
z
" id="DejaVuSans-48"/>
      </defs>
      <g transform="translate(70.651477 320.900838)scale(0.1 -0.1)">
       <use xlink:href="#DejaVuSans-48"/>
      </g>
     </g>
    </g>
    <g id="xtick_2">
     <g id="line2d_2">
      <g>
       <use style="stroke:#000000;stroke-width:0.8;" x="119.516896" xlink:href="#m117a79068e" y="306.3024"/>
      </g>
     </g>
     <g id="text_2">
      <!-- 2000 -->
      <defs>
       <path d="M 19.1875 8.296875 
L 53.609375 8.296875 
L 53.609375 0 
L 7.328125 0 
L 7.328125 8.296875 
Q 12.9375 14.109375 22.625 23.890625 
Q 32.328125 33.6875 34.8125 36.53125 
Q 39.546875 41.84375 41.421875 45.53125 
Q 43.3125 49.21875 43.3125 52.78125 
Q 43.3125 58.59375 39.234375 62.25 
Q 35.15625 65.921875 28.609375 65.921875 
Q 23.96875 65.921875 18.8125 64.3125 
Q 13.671875 62.703125 7.8125 59.421875 
L 7.8125 69.390625 
Q 13.765625 71.78125 18.9375 73 
Q 24.125 74.21875 28.421875 74.21875 
Q 39.75 74.21875 46.484375 68.546875 
Q 53.21875 62.890625 53.21875 53.421875 
Q 53.21875 48.921875 51.53125 44.890625 
Q 49.859375 40.875 45.40625 35.40625 
Q 44.1875 33.984375 37.640625 27.21875 
Q 31.109375 20.453125 19.1875 8.296875 
z
" id="DejaVuSans-50"/>
      </defs>
      <g transform="translate(106.791896 320.900838)scale(0.1 -0.1)">
       <use xlink:href="#DejaVuSans-50"/>
       <use x="63.623047" xlink:href="#DejaVuSans-48"/>
       <use x="127.246094" xlink:href="#DejaVuSans-48"/>
       <use x="190.869141" xlink:href="#DejaVuSans-48"/>
      </g>
     </g>
    </g>
    <g id="xtick_3">
     <g id="line2d_3">
      <g>
       <use style="stroke:#000000;stroke-width:0.8;" x="165.201065" xlink:href="#m117a79068e" y="306.3024"/>
      </g>
     </g>
     <g id="text_3">
      <!-- 4000 -->
      <defs>
       <path d="M 37.796875 64.3125 
L 12.890625 25.390625 
L 37.796875 25.390625 
z
M 35.203125 72.90625 
L 47.609375 72.90625 
L 47.609375 25.390625 
L 58.015625 25.390625 
L 58.015625 17.1875 
L 47.609375 17.1875 
L 47.609375 0 
L 37.796875 0 
L 37.796875 17.1875 
L 4.890625 17.1875 
L 4.890625 26.703125 
z
" id="DejaVuSans-52"/>
      </defs>
      <g transform="translate(152.476065 320.900838)scale(0.1 -0.1)">
       <use xlink:href="#DejaVuSans-52"/>
       <use x="63.623047" xlink:href="#DejaVuSans-48"/>
       <use x="127.246094" xlink:href="#DejaVuSans-48"/>
       <use x="190.869141" xlink:href="#DejaVuSans-48"/>
      </g>
     </g>
    </g>
    <g id="xtick_4">
     <g id="line2d_4">
      <g>
       <use style="stroke:#000000;stroke-width:0.8;" x="210.885234" xlink:href="#m117a79068e" y="306.3024"/>
      </g>
     </g>
     <g id="text_4">
      <!-- 6000 -->
      <defs>
       <path d="M 33.015625 40.375 
Q 26.375 40.375 22.484375 35.828125 
Q 18.609375 31.296875 18.609375 23.390625 
Q 18.609375 15.53125 22.484375 10.953125 
Q 26.375 6.390625 33.015625 6.390625 
Q 39.65625 6.390625 43.53125 10.953125 
Q 47.40625 15.53125 47.40625 23.390625 
Q 47.40625 31.296875 43.53125 35.828125 
Q 39.65625 40.375 33.015625 40.375 
z
M 52.59375 71.296875 
L 52.59375 62.3125 
Q 48.875 64.0625 45.09375 64.984375 
Q 41.3125 65.921875 37.59375 65.921875 
Q 27.828125 65.921875 22.671875 59.328125 
Q 17.53125 52.734375 16.796875 39.40625 
Q 19.671875 43.65625 24.015625 45.921875 
Q 28.375 48.1875 33.59375 48.1875 
Q 44.578125 48.1875 50.953125 41.515625 
Q 57.328125 34.859375 57.328125 23.390625 
Q 57.328125 12.15625 50.6875 5.359375 
Q 44.046875 -1.421875 33.015625 -1.421875 
Q 20.359375 -1.421875 13.671875 8.265625 
Q 6.984375 17.96875 6.984375 36.375 
Q 6.984375 53.65625 15.1875 63.9375 
Q 23.390625 74.21875 37.203125 74.21875 
Q 40.921875 74.21875 44.703125 73.484375 
Q 48.484375 72.75 52.59375 71.296875 
z
" id="DejaVuSans-54"/>
      </defs>
      <g transform="translate(198.160234 320.900838)scale(0.1 -0.1)">
       <use xlink:href="#DejaVuSans-54"/>
       <use x="63.623047" xlink:href="#DejaVuSans-48"/>
       <use x="127.246094" xlink:href="#DejaVuSans-48"/>
       <use x="190.869141" xlink:href="#DejaVuSans-48"/>
      </g>
     </g>
    </g>
    <g id="xtick_5">
     <g id="line2d_5">
      <g>
       <use style="stroke:#000000;stroke-width:0.8;" x="256.569402" xlink:href="#m117a79068e" y="306.3024"/>
      </g>
     </g>
     <g id="text_5">
      <!-- 8000 -->
      <defs>
       <path d="M 31.78125 34.625 
Q 24.75 34.625 20.71875 30.859375 
Q 16.703125 27.09375 16.703125 20.515625 
Q 16.703125 13.921875 20.71875 10.15625 
Q 24.75 6.390625 31.78125 6.390625 
Q 38.8125 6.390625 42.859375 10.171875 
Q 46.921875 13.96875 46.921875 20.515625 
Q 46.921875 27.09375 42.890625 30.859375 
Q 38.875 34.625 31.78125 34.625 
z
M 21.921875 38.8125 
Q 15.578125 40.375 12.03125 44.71875 
Q 8.5 49.078125 8.5 55.328125 
Q 8.5 64.0625 14.71875 69.140625 
Q 20.953125 74.21875 31.78125 74.21875 
Q 42.671875 74.21875 48.875 69.140625 
Q 55.078125 64.0625 55.078125 55.328125 
Q 55.078125 49.078125 51.53125 44.71875 
Q 48 40.375 41.703125 38.8125 
Q 48.828125 37.15625 52.796875 32.3125 
Q 56.78125 27.484375 56.78125 20.515625 
Q 56.78125 9.90625 50.3125 4.234375 
Q 43.84375 -1.421875 31.78125 -1.421875 
Q 19.734375 -1.421875 13.25 4.234375 
Q 6.78125 9.90625 6.78125 20.515625 
Q 6.78125 27.484375 10.78125 32.3125 
Q 14.796875 37.15625 21.921875 38.8125 
z
M 18.3125 54.390625 
Q 18.3125 48.734375 21.84375 45.5625 
Q 25.390625 42.390625 31.78125 42.390625 
Q 38.140625 42.390625 41.71875 45.5625 
Q 45.3125 48.734375 45.3125 54.390625 
Q 45.3125 60.0625 41.71875 63.234375 
Q 38.140625 66.40625 31.78125 66.40625 
Q 25.390625 66.40625 21.84375 63.234375 
Q 18.3125 60.0625 18.3125 54.390625 
z
" id="DejaVuSans-56"/>
      </defs>
      <g transform="translate(243.844402 320.900838)scale(0.1 -0.1)">
       <use xlink:href="#DejaVuSans-56"/>
       <use x="63.623047" xlink:href="#DejaVuSans-48"/>
       <use x="127.246094" xlink:href="#DejaVuSans-48"/>
       <use x="190.869141" xlink:href="#DejaVuSans-48"/>
      </g>
     </g>
    </g>
    <g id="xtick_6">
     <g id="line2d_6">
      <g>
       <use style="stroke:#000000;stroke-width:0.8;" x="302.253571" xlink:href="#m117a79068e" y="306.3024"/>
      </g>
     </g>
     <g id="text_6">
      <!-- 10000 -->
      <defs>
       <path d="M 12.40625 8.296875 
L 28.515625 8.296875 
L 28.515625 63.921875 
L 10.984375 60.40625 
L 10.984375 69.390625 
L 28.421875 72.90625 
L 38.28125 72.90625 
L 38.28125 8.296875 
L 54.390625 8.296875 
L 54.390625 0 
L 12.40625 0 
z
" id="DejaVuSans-49"/>
      </defs>
      <g transform="translate(286.347321 320.900838)scale(0.1 -0.1)">
       <use xlink:href="#DejaVuSans-49"/>
       <use x="63.623047" xlink:href="#DejaVuSans-48"/>
       <use x="127.246094" xlink:href="#DejaVuSans-48"/>
       <use x="190.869141" xlink:href="#DejaVuSans-48"/>
       <use x="254.492188" xlink:href="#DejaVuSans-48"/>
      </g>
     </g>
    </g>
    <g id="xtick_7">
     <g id="line2d_7">
      <g>
       <use style="stroke:#000000;stroke-width:0.8;" x="347.93774" xlink:href="#m117a79068e" y="306.3024"/>
      </g>
     </g>
     <g id="text_7">
      <!-- 12000 -->
      <g transform="translate(332.03149 320.900838)scale(0.1 -0.1)">
       <use xlink:href="#DejaVuSans-49"/>
       <use x="63.623047" xlink:href="#DejaVuSans-50"/>
       <use x="127.246094" xlink:href="#DejaVuSans-48"/>
       <use x="190.869141" xlink:href="#DejaVuSans-48"/>
       <use x="254.492188" xlink:href="#DejaVuSans-48"/>
      </g>
     </g>
    </g>
    <g id="xtick_8">
     <g id="line2d_8">
      <g>
       <use style="stroke:#000000;stroke-width:0.8;" x="393.621909" xlink:href="#m117a79068e" y="306.3024"/>
      </g>
     </g>
     <g id="text_8">
      <!-- 14000 -->
      <g transform="translate(377.715659 320.900838)scale(0.1 -0.1)">
       <use xlink:href="#DejaVuSans-49"/>
       <use x="63.623047" xlink:href="#DejaVuSans-52"/>
       <use x="127.246094" xlink:href="#DejaVuSans-48"/>
       <use x="190.869141" xlink:href="#DejaVuSans-48"/>
       <use x="254.492188" xlink:href="#DejaVuSans-48"/>
      </g>
     </g>
    </g>
    <g id="text_9">
     <!-- Muestras -->
     <defs>
      <path d="M 9.8125 72.90625 
L 24.515625 72.90625 
L 43.109375 23.296875 
L 61.8125 72.90625 
L 76.515625 72.90625 
L 76.515625 0 
L 66.890625 0 
L 66.890625 64.015625 
L 48.09375 14.015625 
L 38.1875 14.015625 
L 19.390625 64.015625 
L 19.390625 0 
L 9.8125 0 
z
" id="DejaVuSans-77"/>
      <path d="M 8.5 21.578125 
L 8.5 54.6875 
L 17.484375 54.6875 
L 17.484375 21.921875 
Q 17.484375 14.15625 20.5 10.265625 
Q 23.53125 6.390625 29.59375 6.390625 
Q 36.859375 6.390625 41.078125 11.03125 
Q 45.3125 15.671875 45.3125 23.6875 
L 45.3125 54.6875 
L 54.296875 54.6875 
L 54.296875 0 
L 45.3125 0 
L 45.3125 8.40625 
Q 42.046875 3.421875 37.71875 1 
Q 33.40625 -1.421875 27.6875 -1.421875 
Q 18.265625 -1.421875 13.375 4.4375 
Q 8.5 10.296875 8.5 21.578125 
z
M 31.109375 56 
z
" id="DejaVuSans-117"/>
      <path d="M 56.203125 29.59375 
L 56.203125 25.203125 
L 14.890625 25.203125 
Q 15.484375 15.921875 20.484375 11.0625 
Q 25.484375 6.203125 34.421875 6.203125 
Q 39.59375 6.203125 44.453125 7.46875 
Q 49.3125 8.734375 54.109375 11.28125 
L 54.109375 2.78125 
Q 49.265625 0.734375 44.1875 -0.34375 
Q 39.109375 -1.421875 33.890625 -1.421875 
Q 20.796875 -1.421875 13.15625 6.1875 
Q 5.515625 13.8125 5.515625 26.8125 
Q 5.515625 40.234375 12.765625 48.109375 
Q 20.015625 56 32.328125 56 
Q 43.359375 56 49.78125 48.890625 
Q 56.203125 41.796875 56.203125 29.59375 
z
M 47.21875 32.234375 
Q 47.125 39.59375 43.09375 43.984375 
Q 39.0625 48.390625 32.421875 48.390625 
Q 24.90625 48.390625 20.390625 44.140625 
Q 15.875 39.890625 15.1875 32.171875 
z
" id="DejaVuSans-101"/>
      <path d="M 44.28125 53.078125 
L 44.28125 44.578125 
Q 40.484375 46.53125 36.375 47.5 
Q 32.28125 48.484375 27.875 48.484375 
Q 21.1875 48.484375 17.84375 46.4375 
Q 14.5 44.390625 14.5 40.28125 
Q 14.5 37.15625 16.890625 35.375 
Q 19.28125 33.59375 26.515625 31.984375 
L 29.59375 31.296875 
Q 39.15625 29.25 43.1875 25.515625 
Q 47.21875 21.78125 47.21875 15.09375 
Q 47.21875 7.46875 41.1875 3.015625 
Q 35.15625 -1.421875 24.609375 -1.421875 
Q 20.21875 -1.421875 15.453125 -0.5625 
Q 10.6875 0.296875 5.421875 2 
L 5.421875 11.28125 
Q 10.40625 8.6875 15.234375 7.390625 
Q 20.0625 6.109375 24.8125 6.109375 
Q 31.15625 6.109375 34.5625 8.28125 
Q 37.984375 10.453125 37.984375 14.40625 
Q 37.984375 18.0625 35.515625 20.015625 
Q 33.0625 21.96875 24.703125 23.78125 
L 21.578125 24.515625 
Q 13.234375 26.265625 9.515625 29.90625 
Q 5.8125 33.546875 5.8125 39.890625 
Q 5.8125 47.609375 11.28125 51.796875 
Q 16.75 56 26.8125 56 
Q 31.78125 56 36.171875 55.265625 
Q 40.578125 54.546875 44.28125 53.078125 
z
" id="DejaVuSans-115"/>
      <path d="M 18.3125 70.21875 
L 18.3125 54.6875 
L 36.8125 54.6875 
L 36.8125 47.703125 
L 18.3125 47.703125 
L 18.3125 18.015625 
Q 18.3125 11.328125 20.140625 9.421875 
Q 21.96875 7.515625 27.59375 7.515625 
L 36.8125 7.515625 
L 36.8125 0 
L 27.59375 0 
Q 17.1875 0 13.234375 3.875 
Q 9.28125 7.765625 9.28125 18.015625 
L 9.28125 47.703125 
L 2.6875 47.703125 
L 2.6875 54.6875 
L 9.28125 54.6875 
L 9.28125 70.21875 
z
" id="DejaVuSans-116"/>
      <path d="M 41.109375 46.296875 
Q 39.59375 47.171875 37.8125 47.578125 
Q 36.03125 48 33.890625 48 
Q 26.265625 48 22.1875 43.046875 
Q 18.109375 38.09375 18.109375 28.8125 
L 18.109375 0 
L 9.078125 0 
L 9.078125 54.6875 
L 18.109375 54.6875 
L 18.109375 46.1875 
Q 20.953125 51.171875 25.484375 53.578125 
Q 30.03125 56 36.53125 56 
Q 37.453125 56 38.578125 55.875 
Q 39.703125 55.765625 41.0625 55.515625 
z
" id="DejaVuSans-114"/>
      <path d="M 34.28125 27.484375 
Q 23.390625 27.484375 19.1875 25 
Q 14.984375 22.515625 14.984375 16.5 
Q 14.984375 11.71875 18.140625 8.90625 
Q 21.296875 6.109375 26.703125 6.109375 
Q 34.1875 6.109375 38.703125 11.40625 
Q 43.21875 16.703125 43.21875 25.484375 
L 43.21875 27.484375 
z
M 52.203125 31.203125 
L 52.203125 0 
L 43.21875 0 
L 43.21875 8.296875 
Q 40.140625 3.328125 35.546875 0.953125 
Q 30.953125 -1.421875 24.3125 -1.421875 
Q 15.921875 -1.421875 10.953125 3.296875 
Q 6 8.015625 6 15.921875 
Q 6 25.140625 12.171875 29.828125 
Q 18.359375 34.515625 30.609375 34.515625 
L 43.21875 34.515625 
L 43.21875 35.40625 
Q 43.21875 41.609375 39.140625 45 
Q 35.0625 48.390625 27.6875 48.390625 
Q 23 48.390625 18.546875 47.265625 
Q 14.109375 46.140625 10.015625 43.890625 
L 10.015625 52.203125 
Q 14.9375 54.109375 19.578125 55.046875 
Q 24.21875 56 28.609375 56 
Q 40.484375 56 46.34375 49.84375 
Q 52.203125 43.703125 52.203125 31.203125 
z
" id="DejaVuSans-97"/>
     </defs>
     <g transform="translate(213.311562 334.578963)scale(0.1 -0.1)">
      <use xlink:href="#DejaVuSans-77"/>
      <use x="86.279297" xlink:href="#DejaVuSans-117"/>
      <use x="149.658203" xlink:href="#DejaVuSans-101"/>
      <use x="211.181641" xlink:href="#DejaVuSans-115"/>
      <use x="263.28125" xlink:href="#DejaVuSans-116"/>
      <use x="302.490234" xlink:href="#DejaVuSans-114"/>
      <use x="343.603516" xlink:href="#DejaVuSans-97"/>
      <use x="404.882812" xlink:href="#DejaVuSans-115"/>
     </g>
    </g>
   </g>
   <g id="matplotlib.axis_2">
    <g id="ytick_1">
     <g id="line2d_9">
      <defs>
       <path d="M 0 0 
L -3.5 0 
" id="ma52c5833fc" style="stroke:#000000;stroke-width:0.8;"/>
      </defs>
      <g>
       <use style="stroke:#000000;stroke-width:0.8;" x="57.6" xlink:href="#ma52c5833fc" y="293.59857"/>
      </g>
     </g>
     <g id="text_10">
      <!-- 24 -->
      <g transform="translate(37.875 297.397789)scale(0.1 -0.1)">
       <use xlink:href="#DejaVuSans-50"/>
       <use x="63.623047" xlink:href="#DejaVuSans-52"/>
      </g>
     </g>
    </g>
    <g id="ytick_2">
     <g id="line2d_10">
      <g>
       <use style="stroke:#000000;stroke-width:0.8;" x="57.6" xlink:href="#ma52c5833fc" y="249.716603"/>
      </g>
     </g>
     <g id="text_11">
      <!-- 26 -->
      <g transform="translate(37.875 253.515822)scale(0.1 -0.1)">
       <use xlink:href="#DejaVuSans-50"/>
       <use x="63.623047" xlink:href="#DejaVuSans-54"/>
      </g>
     </g>
    </g>
    <g id="ytick_3">
     <g id="line2d_11">
      <g>
       <use style="stroke:#000000;stroke-width:0.8;" x="57.6" xlink:href="#ma52c5833fc" y="205.834636"/>
      </g>
     </g>
     <g id="text_12">
      <!-- 28 -->
      <g transform="translate(37.875 209.633855)scale(0.1 -0.1)">
       <use xlink:href="#DejaVuSans-50"/>
       <use x="63.623047" xlink:href="#DejaVuSans-56"/>
      </g>
     </g>
    </g>
    <g id="ytick_4">
     <g id="line2d_12">
      <g>
       <use style="stroke:#000000;stroke-width:0.8;" x="57.6" xlink:href="#ma52c5833fc" y="161.952669"/>
      </g>
     </g>
     <g id="text_13">
      <!-- 30 -->
      <defs>
       <path d="M 40.578125 39.3125 
Q 47.65625 37.796875 51.625 33 
Q 55.609375 28.21875 55.609375 21.1875 
Q 55.609375 10.40625 48.1875 4.484375 
Q 40.765625 -1.421875 27.09375 -1.421875 
Q 22.515625 -1.421875 17.65625 -0.515625 
Q 12.796875 0.390625 7.625 2.203125 
L 7.625 11.71875 
Q 11.71875 9.328125 16.59375 8.109375 
Q 21.484375 6.890625 26.8125 6.890625 
Q 36.078125 6.890625 40.9375 10.546875 
Q 45.796875 14.203125 45.796875 21.1875 
Q 45.796875 27.640625 41.28125 31.265625 
Q 36.765625 34.90625 28.71875 34.90625 
L 20.21875 34.90625 
L 20.21875 43.015625 
L 29.109375 43.015625 
Q 36.375 43.015625 40.234375 45.921875 
Q 44.09375 48.828125 44.09375 54.296875 
Q 44.09375 59.90625 40.109375 62.90625 
Q 36.140625 65.921875 28.71875 65.921875 
Q 24.65625 65.921875 20.015625 65.03125 
Q 15.375 64.15625 9.8125 62.3125 
L 9.8125 71.09375 
Q 15.4375 72.65625 20.34375 73.4375 
Q 25.25 74.21875 29.59375 74.21875 
Q 40.828125 74.21875 47.359375 69.109375 
Q 53.90625 64.015625 53.90625 55.328125 
Q 53.90625 49.265625 50.4375 45.09375 
Q 46.96875 40.921875 40.578125 39.3125 
z
" id="DejaVuSans-51"/>
      </defs>
      <g transform="translate(37.875 165.751888)scale(0.1 -0.1)">
       <use xlink:href="#DejaVuSans-51"/>
       <use x="63.623047" xlink:href="#DejaVuSans-48"/>
      </g>
     </g>
    </g>
    <g id="ytick_5">
     <g id="line2d_13">
      <g>
       <use style="stroke:#000000;stroke-width:0.8;" x="57.6" xlink:href="#ma52c5833fc" y="118.070702"/>
      </g>
     </g>
     <g id="text_14">
      <!-- 32 -->
      <g transform="translate(37.875 121.86992)scale(0.1 -0.1)">
       <use xlink:href="#DejaVuSans-51"/>
       <use x="63.623047" xlink:href="#DejaVuSans-50"/>
      </g>
     </g>
    </g>
    <g id="ytick_6">
     <g id="line2d_14">
      <g>
       <use style="stroke:#000000;stroke-width:0.8;" x="57.6" xlink:href="#ma52c5833fc" y="74.188734"/>
      </g>
     </g>
     <g id="text_15">
      <!-- 34 -->
      <g transform="translate(37.875 77.987953)scale(0.1 -0.1)">
       <use xlink:href="#DejaVuSans-51"/>
       <use x="63.623047" xlink:href="#DejaVuSans-52"/>
      </g>
     </g>
    </g>
    <g id="text_16">
     <!-- Valor de Temperatura -->
     <defs>
      <path d="M 28.609375 0 
L 0.78125 72.90625 
L 11.078125 72.90625 
L 34.1875 11.53125 
L 57.328125 72.90625 
L 67.578125 72.90625 
L 39.796875 0 
z
" id="DejaVuSans-86"/>
      <path d="M 9.421875 75.984375 
L 18.40625 75.984375 
L 18.40625 0 
L 9.421875 0 
z
" id="DejaVuSans-108"/>
      <path d="M 30.609375 48.390625 
Q 23.390625 48.390625 19.1875 42.75 
Q 14.984375 37.109375 14.984375 27.296875 
Q 14.984375 17.484375 19.15625 11.84375 
Q 23.34375 6.203125 30.609375 6.203125 
Q 37.796875 6.203125 41.984375 11.859375 
Q 46.1875 17.53125 46.1875 27.296875 
Q 46.1875 37.015625 41.984375 42.703125 
Q 37.796875 48.390625 30.609375 48.390625 
z
M 30.609375 56 
Q 42.328125 56 49.015625 48.375 
Q 55.71875 40.765625 55.71875 27.296875 
Q 55.71875 13.875 49.015625 6.21875 
Q 42.328125 -1.421875 30.609375 -1.421875 
Q 18.84375 -1.421875 12.171875 6.21875 
Q 5.515625 13.875 5.515625 27.296875 
Q 5.515625 40.765625 12.171875 48.375 
Q 18.84375 56 30.609375 56 
z
" id="DejaVuSans-111"/>
      <path id="DejaVuSans-32"/>
      <path d="M 45.40625 46.390625 
L 45.40625 75.984375 
L 54.390625 75.984375 
L 54.390625 0 
L 45.40625 0 
L 45.40625 8.203125 
Q 42.578125 3.328125 38.25 0.953125 
Q 33.9375 -1.421875 27.875 -1.421875 
Q 17.96875 -1.421875 11.734375 6.484375 
Q 5.515625 14.40625 5.515625 27.296875 
Q 5.515625 40.1875 11.734375 48.09375 
Q 17.96875 56 27.875 56 
Q 33.9375 56 38.25 53.625 
Q 42.578125 51.265625 45.40625 46.390625 
z
M 14.796875 27.296875 
Q 14.796875 17.390625 18.875 11.75 
Q 22.953125 6.109375 30.078125 6.109375 
Q 37.203125 6.109375 41.296875 11.75 
Q 45.40625 17.390625 45.40625 27.296875 
Q 45.40625 37.203125 41.296875 42.84375 
Q 37.203125 48.484375 30.078125 48.484375 
Q 22.953125 48.484375 18.875 42.84375 
Q 14.796875 37.203125 14.796875 27.296875 
z
" id="DejaVuSans-100"/>
      <path d="M -0.296875 72.90625 
L 61.375 72.90625 
L 61.375 64.59375 
L 35.5 64.59375 
L 35.5 0 
L 25.59375 0 
L 25.59375 64.59375 
L -0.296875 64.59375 
z
" id="DejaVuSans-84"/>
      <path d="M 52 44.1875 
Q 55.375 50.25 60.0625 53.125 
Q 64.75 56 71.09375 56 
Q 79.640625 56 84.28125 50.015625 
Q 88.921875 44.046875 88.921875 33.015625 
L 88.921875 0 
L 79.890625 0 
L 79.890625 32.71875 
Q 79.890625 40.578125 77.09375 44.375 
Q 74.3125 48.1875 68.609375 48.1875 
Q 61.625 48.1875 57.5625 43.546875 
Q 53.515625 38.921875 53.515625 30.90625 
L 53.515625 0 
L 44.484375 0 
L 44.484375 32.71875 
Q 44.484375 40.625 41.703125 44.40625 
Q 38.921875 48.1875 33.109375 48.1875 
Q 26.21875 48.1875 22.15625 43.53125 
Q 18.109375 38.875 18.109375 30.90625 
L 18.109375 0 
L 9.078125 0 
L 9.078125 54.6875 
L 18.109375 54.6875 
L 18.109375 46.1875 
Q 21.1875 51.21875 25.484375 53.609375 
Q 29.78125 56 35.6875 56 
Q 41.65625 56 45.828125 52.96875 
Q 50 49.953125 52 44.1875 
z
" id="DejaVuSans-109"/>
      <path d="M 18.109375 8.203125 
L 18.109375 -20.796875 
L 9.078125 -20.796875 
L 9.078125 54.6875 
L 18.109375 54.6875 
L 18.109375 46.390625 
Q 20.953125 51.265625 25.265625 53.625 
Q 29.59375 56 35.59375 56 
Q 45.5625 56 51.78125 48.09375 
Q 58.015625 40.1875 58.015625 27.296875 
Q 58.015625 14.40625 51.78125 6.484375 
Q 45.5625 -1.421875 35.59375 -1.421875 
Q 29.59375 -1.421875 25.265625 0.953125 
Q 20.953125 3.328125 18.109375 8.203125 
z
M 48.6875 27.296875 
Q 48.6875 37.203125 44.609375 42.84375 
Q 40.53125 48.484375 33.40625 48.484375 
Q 26.265625 48.484375 22.1875 42.84375 
Q 18.109375 37.203125 18.109375 27.296875 
Q 18.109375 17.390625 22.1875 11.75 
Q 26.265625 6.109375 33.40625 6.109375 
Q 40.53125 6.109375 44.609375 11.75 
Q 48.6875 17.390625 48.6875 27.296875 
z
" id="DejaVuSans-112"/>
     </defs>
     <g transform="translate(31.795312 228.818769)rotate(-90)scale(0.1 -0.1)">
      <use xlink:href="#DejaVuSans-86"/>
      <use x="68.298828" xlink:href="#DejaVuSans-97"/>
      <use x="129.578125" xlink:href="#DejaVuSans-108"/>
      <use x="157.361328" xlink:href="#DejaVuSans-111"/>
      <use x="218.542969" xlink:href="#DejaVuSans-114"/>
      <use x="259.65625" xlink:href="#DejaVuSans-32"/>
      <use x="291.443359" xlink:href="#DejaVuSans-100"/>
      <use x="354.919922" xlink:href="#DejaVuSans-101"/>
      <use x="416.443359" xlink:href="#DejaVuSans-32"/>
      <use x="448.230469" xlink:href="#DejaVuSans-84"/>
      <use x="509.048828" xlink:href="#DejaVuSans-101"/>
      <use x="570.572266" xlink:href="#DejaVuSans-109"/>
      <use x="667.984375" xlink:href="#DejaVuSans-112"/>
      <use x="731.460938" xlink:href="#DejaVuSans-101"/>
      <use x="792.984375" xlink:href="#DejaVuSans-114"/>
      <use x="834.097656" xlink:href="#DejaVuSans-97"/>
      <use x="895.376953" xlink:href="#DejaVuSans-116"/>
      <use x="934.585938" xlink:href="#DejaVuSans-117"/>
      <use x="997.964844" xlink:href="#DejaVuSans-114"/>
      <use x="1039.078125" xlink:href="#DejaVuSans-97"/>
     </g>
    </g>
   </g>
   <g id="line2d_15">
    <path clip-path="url(#pab39e8aa86)" d="M 73.832727 116.973652 
L 73.946938 116.973652 
L 74.061148 118.290111 
L 74.129674 118.290111 
L 74.221043 119.167751 
L 74.358095 118.070702 
L 74.403779 118.070702 
L 74.540832 119.167751 
L 74.586516 119.167751 
L 74.746411 120.48421 
L 74.769253 120.48421 
L 74.860621 120.04539 
L 74.974831 120.48421 
L 75.134726 120.48421 
L 75.226094 120.04539 
L 75.340305 120.48421 
L 75.591568 120.48421 
L 75.705778 120.92303 
L 75.865673 120.92303 
L 75.979883 121.361849 
L 76.139778 121.361849 
L 76.231146 120.92303 
L 76.322514 121.361849 
L 76.413883 120.92303 
L 76.550935 121.800669 
L 77.053461 121.800669 
L 77.167672 123.117128 
L 77.236198 123.117128 
L 77.327566 122.678308 
L 77.441777 123.555948 
L 77.510303 123.555948 
L 77.601671 123.117128 
L 77.69304 123.555948 
L 77.784408 122.678308 
L 77.875776 123.994767 
L 77.898618 123.117128 
L 77.967145 123.117128 
L 78.104197 120.92303 
L 78.149881 120.92303 
L 78.264092 121.800669 
L 78.332618 121.800669 
L 78.46967 122.678308 
L 78.515355 122.678308 
L 78.606723 123.555948 
L 78.629565 123.117128 
L 78.698091 123.117128 
L 78.78946 123.555948 
L 78.90367 123.117128 
L 79.154933 123.117128 
L 79.246301 123.555948 
L 79.360512 123.117128 
L 79.520406 123.117128 
L 79.657459 122.239489 
L 79.703143 122.239489 
L 79.863038 123.555948 
L 79.88588 123.555948 
L 80.022932 122.239489 
L 80.068616 122.239489 
L 80.182827 122.678308 
L 80.251353 122.678308 
L 80.342721 122.239489 
L 80.43409 122.678308 
L 80.525458 122.239489 
L 80.639668 122.678308 
L 80.708195 122.678308 
L 80.822405 122.239489 
L 80.890931 122.239489 
L 81.005142 122.678308 
L 81.073668 122.678308 
L 81.187878 122.239489 
L 81.439141 122.239489 
L 81.53051 121.800669 
L 81.64472 122.239489 
L 81.895983 122.239489 
L 82.010193 121.800669 
L 82.07872 121.800669 
L 82.19293 121.361849 
L 82.261456 121.361849 
L 82.352825 121.800669 
L 82.467035 121.361849 
L 82.718298 121.361849 
L 82.832509 120.92303 
L 82.992403 120.92303 
L 83.106614 120.48421 
L 83.17514 120.48421 
L 83.266508 120.92303 
L 83.403561 120.04539 
L 83.814718 120.04539 
L 83.906086 119.60657 
L 83.997455 120.04539 
L 84.111665 119.167751 
L 84.180192 119.167751 
L 84.27156 119.60657 
L 84.408612 118.728931 
L 84.454297 118.728931 
L 84.545665 119.167751 
L 84.637033 118.728931 
L 84.751244 119.167751 
L 84.81977 119.167751 
L 84.911138 118.728931 
L 85.025349 119.167751 
L 85.185243 119.167751 
L 85.276612 119.60657 
L 85.36798 119.167751 
L 85.48219 119.60657 
L 85.642085 119.60657 
L 85.756295 119.167751 
L 85.824822 119.167751 
L 85.939032 119.60657 
L 86.007558 119.60657 
L 86.121769 119.167751 
L 86.190295 119.167751 
L 86.304505 119.60657 
L 86.373032 119.60657 
L 86.4644 120.04539 
L 86.555768 119.60657 
L 86.647137 120.04539 
L 86.761347 119.60657 
L 86.829873 119.60657 
L 86.921242 120.04539 
L 87.01261 119.167751 
L 87.103978 120.04539 
L 87.12682 119.60657 
L 87.195347 119.60657 
L 87.286715 120.04539 
L 87.378083 119.60657 
L 87.469452 120.04539 
L 87.56082 119.60657 
L 87.67503 120.04539 
L 87.834925 120.04539 
L 87.926293 119.60657 
L 88.040504 120.04539 
L 88.10903 120.04539 
L 88.22324 119.60657 
L 88.474503 119.60657 
L 88.588714 119.167751 
L 88.65724 119.167751 
L 88.794293 120.04539 
L 88.931345 120.04539 
L 89.022713 119.60657 
L 89.136924 120.04539 
L 89.388187 120.04539 
L 89.502397 119.60657 
L 90.027765 119.60657 
L 90.119133 120.04539 
L 90.233344 119.60657 
L 90.393238 119.60657 
L 90.484607 120.04539 
L 90.598817 119.60657 
L 90.667343 119.60657 
L 90.758712 119.167751 
L 90.895764 120.04539 
L 90.941448 120.04539 
L 91.032817 119.167751 
L 91.124185 120.04539 
L 91.147027 119.60657 
L 91.306922 119.60657 
L 91.39829 119.167751 
L 91.535343 120.04539 
L 91.581027 120.04539 
L 91.718079 119.167751 
L 91.9465 119.167751 
L 92.060711 119.60657 
L 92.311974 119.60657 
L 92.403342 119.167751 
L 92.517552 119.60657 
L 92.768815 119.60657 
L 92.883026 119.167751 
L 92.951552 119.167751 
L 93.04292 119.60657 
L 93.157131 119.167751 
L 93.408394 119.167751 
L 93.499762 119.60657 
L 93.613972 119.167751 
L 93.682499 119.167751 
L 93.773867 118.728931 
L 93.888077 119.167751 
L 94.047972 119.167751 
L 94.13934 118.728931 
L 94.230709 119.167751 
L 94.322077 118.728931 
L 94.413445 119.167751 
L 94.550498 118.290111 
L 94.596182 118.290111 
L 94.710392 118.728931 
L 94.778919 118.728931 
L 94.893129 118.290111 
L 94.961655 118.290111 
L 95.075866 118.728931 
L 95.144392 118.728931 
L 95.23576 118.290111 
L 95.349971 118.728931 
L 95.418497 118.728931 
L 95.509865 118.290111 
L 95.624076 118.728931 
L 95.692602 118.728931 
L 95.78397 118.290111 
L 95.898181 118.728931 
L 95.966707 118.728931 
L 96.058075 118.290111 
L 96.172286 118.728931 
L 96.33218 118.728931 
L 96.446391 119.167751 
L 96.606285 119.167751 
L 96.720496 119.60657 
L 96.88039 119.60657 
L 96.971759 118.728931 
L 96.994601 119.167751 
L 97.063127 119.167751 
L 97.154495 119.60657 
L 97.245864 119.167751 
L 97.337232 119.60657 
L 97.4286 119.167751 
L 97.519969 120.04539 
L 97.542811 119.60657 
L 97.794074 119.60657 
L 97.908284 120.04539 
L 98.068179 120.04539 
L 98.159547 119.60657 
L 98.273758 120.04539 
L 98.342284 120.04539 
L 98.456494 120.48421 
L 98.52502 120.48421 
L 98.616389 119.60657 
L 98.707757 120.48421 
L 98.730599 120.04539 
L 98.981862 120.04539 
L 99.096073 120.48421 
L 99.530072 120.48421 
L 99.644283 120.92303 
L 99.804177 120.92303 
L 99.918388 120.48421 
L 99.986914 120.48421 
L 100.101124 120.92303 
L 100.261019 120.92303 
L 100.352387 120.48421 
L 100.466598 121.361849 
L 100.809229 121.361849 
L 100.900597 121.800669 
L 101.014808 121.361849 
L 101.083334 121.361849 
L 101.197544 121.800669 
L 101.266071 121.800669 
L 101.357439 120.92303 
L 101.380281 121.361849 
L 101.722912 121.361849 
L 101.837123 122.239489 
L 101.905649 122.239489 
L 102.019859 121.800669 
L 102.179754 121.800669 
L 102.271122 122.239489 
L 102.362491 121.800669 
L 102.453859 122.678308 
L 102.476701 122.239489 
L 102.636596 122.239489 
L 102.727964 121.800669 
L 102.842174 122.678308 
L 102.910701 122.678308 
L 103.047753 121.800669 
L 103.093437 121.800669 
L 103.23049 122.678308 
L 103.641647 122.678308 
L 103.733016 122.239489 
L 103.847226 122.678308 
L 104.098489 122.678308 
L 104.189857 123.117128 
L 104.304068 122.678308 
L 104.555331 122.678308 
L 104.669541 123.117128 
L 104.829436 123.117128 
L 104.966488 123.994767 
L 105.103541 123.994767 
L 105.217751 123.555948 
L 105.377646 123.555948 
L 105.469014 123.117128 
L 105.583225 123.555948 
L 105.651751 123.555948 
L 105.765961 123.117128 
L 105.834488 123.117128 
L 105.925856 123.994767 
L 105.948698 123.555948 
L 106.017224 123.555948 
L 106.131435 123.117128 
L 106.291329 123.117128 
L 106.382698 123.994767 
L 106.40554 123.555948 
L 106.656803 123.555948 
L 106.771013 123.117128 
L 106.839539 123.117128 
L 106.930908 123.555948 
L 107.022276 123.117128 
L 107.136486 123.555948 
L 107.296381 123.555948 
L 107.410591 123.117128 
L 107.479118 123.117128 
L 107.570486 122.678308 
L 107.684696 123.117128 
L 107.753223 123.117128 
L 107.844591 123.555948 
L 107.935959 122.678308 
L 107.958801 123.117128 
L 108.027328 123.117128 
L 108.118696 123.555948 
L 108.255748 122.678308 
L 108.301433 122.678308 
L 108.392801 123.117128 
L 108.507011 122.678308 
L 108.575538 122.678308 
L 108.666906 123.117128 
L 108.758274 122.678308 
L 108.849643 123.117128 
L 108.963853 122.678308 
L 109.397853 122.678308 
L 109.489221 123.117128 
L 109.580589 122.678308 
L 109.6948 123.117128 
L 109.946063 123.117128 
L 110.060273 122.678308 
L 110.585641 122.678308 
L 110.677009 123.117128 
L 110.79122 122.678308 
L 110.859746 122.678308 
L 110.951114 122.239489 
L 111.065325 122.678308 
L 111.225219 122.678308 
L 111.316588 122.239489 
L 111.45364 123.117128 
L 111.590693 123.117128 
L 111.704903 122.678308 
L 111.773429 122.678308 
L 111.864798 122.239489 
L 111.979008 122.678308 
L 112.138903 122.678308 
L 112.253113 122.239489 
L 112.321639 122.239489 
L 112.413008 122.678308 
L 112.527218 122.239489 
L 112.595744 122.239489 
L 112.709955 122.678308 
L 112.778481 122.678308 
L 112.869849 123.117128 
L 112.98406 122.678308 
L 113.41806 122.678308 
L 113.509428 123.117128 
L 113.623638 122.678308 
L 114.057638 122.678308 
L 114.171848 122.239489 
L 114.240375 122.239489 
L 114.354585 122.678308 
L 114.423111 122.678308 
L 114.537322 122.239489 
L 114.788585 122.239489 
L 114.879953 122.678308 
L 114.971321 122.239489 
L 115.06269 122.678308 
L 115.154058 122.239489 
L 115.245426 122.678308 
L 115.359637 122.239489 
L 115.702268 122.239489 
L 115.816478 122.678308 
L 115.976373 122.678308 
L 116.090583 122.239489 
L 116.433215 122.239489 
L 116.524583 122.678308 
L 116.615951 121.800669 
L 116.638793 122.239489 
L 116.981425 122.239489 
L 117.095635 122.678308 
L 117.164161 122.678308 
L 117.278372 122.239489 
L 117.346898 122.239489 
L 117.438266 122.678308 
L 117.552477 122.239489 
L 117.712371 122.239489 
L 117.826582 122.678308 
L 117.986476 122.678308 
L 118.100687 122.239489 
L 118.260581 122.239489 
L 118.35195 121.800669 
L 118.443318 122.678308 
L 118.46616 122.239489 
L 118.626055 122.239489 
L 118.717423 122.678308 
L 118.831634 122.239489 
L 119.44837 122.239489 
L 119.539738 123.117128 
L 119.56258 122.678308 
L 119.813843 122.678308 
L 119.905211 122.239489 
L 120.019422 122.678308 
L 120.087948 122.678308 
L 120.179317 122.239489 
L 120.293527 122.678308 
L 120.453422 122.678308 
L 120.54479 123.117128 
L 120.636158 122.678308 
L 120.750369 123.117128 
L 121.001632 123.117128 
L 121.093 122.678308 
L 121.20721 123.117128 
L 121.367105 123.117128 
L 121.458473 122.678308 
L 121.549842 123.117128 
L 121.664052 122.678308 
L 121.732578 122.678308 
L 121.823947 123.555948 
L 121.938157 122.678308 
L 122.006683 122.678308 
L 122.120894 123.117128 
L 122.280788 123.117128 
L 122.394999 123.555948 
L 122.463525 123.555948 
L 122.577735 123.117128 
L 122.73763 123.117128 
L 122.85184 123.555948 
L 122.920367 123.555948 
L 123.011735 123.994767 
L 123.148787 123.117128 
L 123.194472 123.117128 
L 123.308682 123.555948 
L 123.377208 123.555948 
L 123.468577 123.117128 
L 123.559945 123.555948 
L 123.651313 123.117128 
L 123.765524 123.994767 
L 123.83405 123.994767 
L 123.94826 123.555948 
L 124.016787 123.555948 
L 124.108155 123.117128 
L 124.199523 123.555948 
L 124.290892 123.117128 
L 124.405102 123.555948 
L 124.564997 123.555948 
L 124.656365 123.994767 
L 124.747733 123.555948 
L 124.861944 123.994767 
L 124.93047 123.994767 
L 125.021838 123.555948 
L 125.136049 123.994767 
L 125.204575 123.994767 
L 125.295943 123.555948 
L 125.410154 123.994767 
L 125.844153 123.994767 
L 125.958364 123.555948 
L 126.02689 123.555948 
L 126.163943 124.433587 
L 126.483732 124.433587 
L 126.5751 123.994767 
L 126.689311 124.433587 
L 126.849205 124.433587 
L 126.963416 123.994767 
L 127.031942 123.994767 
L 127.146152 124.433587 
L 127.306047 124.433587 
L 127.397415 124.872407 
L 127.488784 124.433587 
L 127.602994 124.872407 
L 127.945625 124.872407 
L 128.059836 125.311226 
L 128.128362 125.311226 
L 128.21973 124.872407 
L 128.333941 125.311226 
L 128.950677 125.311226 
L 129.042045 124.872407 
L 129.156256 125.750046 
L 129.224782 125.750046 
L 129.31615 126.188866 
L 129.430361 125.750046 
L 129.498887 125.750046 
L 129.590255 125.311226 
L 129.704466 126.188866 
L 129.772992 126.188866 
L 129.86436 125.750046 
L 129.955729 126.188866 
L 130.069939 125.750046 
L 130.229834 125.750046 
L 130.321202 125.311226 
L 130.435412 125.750046 
L 130.595307 125.750046 
L 130.686675 124.872407 
L 130.800886 125.750046 
L 130.869412 125.750046 
L 130.983622 126.188866 
L 131.052149 126.188866 
L 131.166359 125.750046 
L 131.234885 125.750046 
L 131.326254 126.627685 
L 131.417622 125.750046 
L 131.440464 126.188866 
L 131.50899 126.188866 
L 131.600359 126.627685 
L 131.714569 126.188866 
L 132.0572 126.188866 
L 132.148569 126.627685 
L 132.262779 125.750046 
L 132.331305 125.750046 
L 132.445516 126.188866 
L 133.519094 126.188866 
L 133.610462 125.750046 
L 133.70183 126.627685 
L 133.793199 125.750046 
L 133.816041 126.188866 
L 133.884567 126.188866 
L 133.975935 126.627685 
L 134.067304 126.188866 
L 134.158672 126.627685 
L 134.272883 126.188866 
L 134.980987 126.188866 
L 135.095198 126.627685 
L 135.255092 126.627685 
L 135.369303 126.188866 
L 135.437829 126.188866 
L 135.552039 126.627685 
L 135.803302 126.627685 
L 135.894671 126.188866 
L 135.986039 127.066505 
L 136.008881 126.627685 
L 136.260144 126.627685 
L 136.351512 126.188866 
L 136.442881 127.066505 
L 136.465723 126.627685 
L 136.534249 126.627685 
L 136.625617 127.066505 
L 136.716986 126.627685 
L 136.808354 127.066505 
L 136.945406 126.188866 
L 136.991091 126.188866 
L 137.105301 126.627685 
L 137.265196 126.627685 
L 137.356564 126.188866 
L 137.447932 126.627685 
L 137.539301 126.188866 
L 137.653511 126.627685 
L 138.270247 126.627685 
L 138.384458 127.505325 
L 138.544352 127.505325 
L 138.635721 126.627685 
L 138.658563 127.066505 
L 138.727089 127.066505 
L 138.841299 126.627685 
L 139.183931 126.627685 
L 139.275299 127.066505 
L 139.366667 126.627685 
L 139.458036 127.505325 
L 139.480878 127.066505 
L 139.640772 127.066505 
L 139.754983 126.627685 
L 139.823509 126.627685 
L 139.846351 127.066505 
L 139.960562 175.336669 
L 140.16614 175.336669 
L 140.280351 174.45903 
L 140.348877 174.45903 
L 140.48593 173.58139 
L 140.531614 173.58139 
L 140.668666 172.703751 
L 140.805719 172.703751 
L 140.919929 172.264931 
L 140.988455 172.264931 
L 141.125508 171.387292 
L 141.171192 171.387292 
L 141.285402 170.509652 
L 141.353929 170.509652 
L 141.468139 170.070833 
L 141.536665 170.070833 
L 141.650876 169.632013 
L 141.719402 169.632013 
L 141.833613 169.193193 
L 141.902139 169.193193 
L 141.993507 170.070833 
L 142.107718 169.193193 
L 142.176244 169.193193 
L 142.290454 168.754374 
L 142.450349 168.754374 
L 142.564559 168.315554 
L 142.724454 168.315554 
L 142.838664 167.876734 
L 142.90719 167.876734 
L 143.021401 168.315554 
L 143.181295 168.315554 
L 143.295506 167.876734 
L 143.4554 167.876734 
L 143.569611 167.437915 
L 143.638137 167.437915 
L 143.752348 167.876734 
L 143.820874 167.876734 
L 143.912242 167.437915 
L 144.049295 168.315554 
L 144.094979 168.315554 
L 144.209189 168.754374 
L 144.277716 168.754374 
L 144.414768 169.632013 
L 144.551821 169.632013 
L 144.666031 169.193193 
L 144.734557 169.193193 
L 144.825926 169.632013 
L 144.917294 168.315554 
L 144.940136 169.193193 
L 145.008662 169.193193 
L 145.122873 168.754374 
L 145.191399 168.754374 
L 145.305609 169.193193 
L 145.465504 169.193193 
L 145.556872 168.754374 
L 145.693925 169.632013 
L 145.739609 169.632013 
L 145.830977 169.193193 
L 145.922346 169.632013 
L 146.036556 169.193193 
L 146.196451 169.193193 
L 146.287819 169.632013 
L 146.402029 169.193193 
L 146.470556 169.193193 
L 146.584766 169.632013 
L 146.653292 169.632013 
L 146.767503 169.193193 
L 146.836029 169.193193 
L 146.950239 169.632013 
L 147.384239 169.632013 
L 147.475607 170.070833 
L 147.566976 169.632013 
L 147.681186 170.070833 
L 147.749712 170.070833 
L 147.863923 170.509652 
L 148.023817 170.509652 
L 148.115186 170.948472 
L 148.229396 170.070833 
L 148.389291 170.070833 
L 148.503501 169.632013 
L 148.572027 169.632013 
L 148.686238 170.070833 
L 148.754764 170.070833 
L 148.868974 170.509652 
L 148.937501 170.509652 
L 149.074553 169.632013 
L 149.120237 169.632013 
L 149.234448 170.070833 
L 149.302974 170.070833 
L 149.440027 169.193193 
L 149.485711 169.193193 
L 149.577079 168.754374 
L 149.668447 169.193193 
L 149.782658 168.754374 
L 149.851184 168.754374 
L 149.965395 168.315554 
L 150.125289 168.315554 
L 150.2395 167.876734 
L 150.399394 167.876734 
L 150.536447 166.999095 
L 150.764868 166.999095 
L 150.879078 166.121456 
L 151.038973 166.121456 
L 151.176025 165.243816 
L 151.221709 165.243816 
L 151.313078 165.682636 
L 151.472972 164.366177 
L 151.495814 164.366177 
L 151.587183 164.804997 
L 151.678551 163.927357 
L 151.792761 164.804997 
L 151.861288 164.804997 
L 151.99834 165.682636 
L 152.044024 165.682636 
L 152.135393 166.121456 
L 152.249603 165.243816 
L 152.318129 165.243816 
L 152.409498 164.366177 
L 152.523708 165.243816 
L 152.592234 165.243816 
L 152.683603 165.682636 
L 152.797813 165.243816 
L 153.140444 165.243816 
L 153.254655 164.804997 
L 153.323181 164.804997 
L 153.414549 164.366177 
L 153.505918 164.804997 
L 153.620128 164.366177 
L 153.780023 164.366177 
L 153.871391 163.049718 
L 153.894233 163.488538 
L 153.962759 163.488538 
L 154.099812 162.172079 
L 154.419601 162.172079 
L 154.556654 160.85562 
L 154.602338 160.85562 
L 154.693706 159.97798 
L 154.716548 160.4168 
L 154.785074 160.4168 
L 154.899285 159.97798 
L 155.241916 159.97798 
L 155.333284 159.539161 
L 155.424653 159.97798 
L 155.516021 159.100341 
L 155.538863 159.539161 
L 155.607389 159.539161 
L 155.744442 158.661521 
L 155.881494 158.661521 
L 155.972863 159.100341 
L 156.064231 158.661521 
L 156.155599 159.100341 
L 156.292652 158.222702 
L 156.338336 158.222702 
L 156.452547 158.661521 
L 156.612441 158.661521 
L 156.749494 159.539161 
L 156.795178 159.539161 
L 156.886546 159.97798 
L 157.023599 159.100341 
L 157.069283 159.100341 
L 157.183493 160.4168 
L 157.252019 160.4168 
L 157.343388 159.97798 
L 157.434756 160.4168 
L 157.571809 159.539161 
L 157.617493 159.539161 
L 157.754545 157.783882 
L 157.800229 157.783882 
L 157.937282 156.467423 
L 157.982966 156.467423 
L 158.142861 155.150964 
L 158.165703 155.150964 
L 158.279913 154.712144 
L 158.34844 154.712144 
L 158.46265 153.834505 
L 158.531176 153.834505 
L 158.645387 154.273325 
L 158.805281 154.273325 
L 158.919492 154.712144 
L 158.988018 154.712144 
L 159.102228 155.150964 
L 159.262123 155.150964 
L 159.353491 154.712144 
L 159.467702 155.589784 
L 159.536228 155.589784 
L 159.650438 156.028603 
L 159.718965 156.028603 
L 159.810333 156.467423 
L 159.947385 155.589784 
L 160.175806 155.589784 
L 160.290017 155.150964 
L 160.358543 155.150964 
L 160.449911 155.589784 
L 160.564122 155.150964 
L 160.632648 155.150964 
L 160.724016 154.712144 
L 160.815385 155.150964 
L 160.906753 154.273325 
L 160.929595 154.712144 
L 160.998121 154.712144 
L 161.112332 154.273325 
L 161.363595 154.273325 
L 161.454963 153.834505 
L 161.546331 154.273325 
L 161.660542 153.834505 
L 161.729068 153.834505 
L 161.820436 153.395685 
L 161.934647 153.834505 
L 162.003173 153.834505 
L 162.140226 152.956866 
L 162.277278 152.956866 
L 162.368646 152.079226 
L 162.391488 152.518046 
L 162.460015 152.518046 
L 162.642751 154.273325 
L 163.008225 154.273325 
L 163.122435 154.712144 
L 163.190961 154.712144 
L 163.350856 156.028603 
L 163.373698 156.028603 
L 163.510751 156.906243 
L 163.647803 156.906243 
L 163.762014 156.028603 
L 163.83054 156.028603 
L 163.921908 156.467423 
L 164.036119 155.589784 
L 164.104645 155.589784 
L 164.218855 155.150964 
L 164.37875 155.150964 
L 164.515802 153.834505 
L 164.744223 153.834505 
L 164.904118 152.518046 
L 165.018328 152.518046 
L 165.155381 151.640407 
L 165.292433 151.640407 
L 165.406644 151.201587 
L 165.566538 151.201587 
L 165.680749 150.762767 
L 165.749275 150.762767 
L 165.863485 149.885128 
L 166.02338 149.885128 
L 166.183274 148.568669 
L 166.206117 148.568669 
L 166.297485 149.007489 
L 166.411695 148.568669 
L 166.480222 148.568669 
L 166.57159 148.129849 
L 166.662958 148.568669 
L 166.800011 147.69103 
L 166.937063 147.69103 
L 167.074116 146.81339 
L 167.1198 146.81339 
L 167.211168 146.37457 
L 167.302537 146.81339 
L 167.416747 146.37457 
L 167.485273 146.37457 
L 167.599484 145.935751 
L 167.66801 145.935751 
L 167.759378 145.496931 
L 167.850747 145.935751 
L 167.964957 145.496931 
L 168.21622 145.496931 
L 168.307588 145.935751 
L 168.398957 145.496931 
L 168.490325 145.935751 
L 168.581693 145.058111 
L 168.673062 145.935751 
L 168.695904 145.496931 
L 168.947167 145.496931 
L 169.061377 145.058111 
L 169.129903 145.058111 
L 169.244114 145.496931 
L 169.31264 145.496931 
L 169.449693 144.619292 
L 169.495377 144.619292 
L 169.609587 145.058111 
L 169.769482 145.058111 
L 169.883692 145.496931 
L 170.317692 145.496931 
L 170.40906 145.935751 
L 170.523271 145.496931 
L 170.591797 145.496931 
L 170.728849 146.37457 
L 170.774533 146.37457 
L 170.888744 145.935751 
L 170.95727 145.935751 
L 171.048638 145.496931 
L 171.162849 145.935751 
L 171.322743 145.935751 
L 171.414112 145.496931 
L 171.50548 146.37457 
L 171.528322 145.935751 
L 171.596848 145.935751 
L 171.711059 146.37457 
L 171.779585 146.37457 
L 171.870953 145.496931 
L 171.893796 145.935751 
L 172.145058 145.935751 
L 172.236427 146.81339 
L 172.327795 145.935751 
L 172.350637 146.37457 
L 172.419164 146.37457 
L 172.510532 145.935751 
L 172.624742 146.37457 
L 172.876005 146.37457 
L 172.967374 146.81339 
L 173.104426 145.935751 
L 173.332847 145.935751 
L 173.447057 146.37457 
L 173.515584 146.37457 
L 173.606952 145.935751 
L 173.721162 146.37457 
L 174.063794 146.37457 
L 174.155162 146.81339 
L 174.24653 146.37457 
L 174.360741 146.81339 
L 174.429267 146.81339 
L 174.520635 146.37457 
L 174.634846 146.81339 
L 174.886109 146.81339 
L 174.977477 147.25221 
L 175.068845 146.81339 
L 175.160214 147.25221 
L 175.274424 146.81339 
L 175.434319 146.81339 
L 175.525687 146.37457 
L 175.617055 146.81339 
L 175.708424 146.37457 
L 175.822634 147.25221 
L 175.89116 147.25221 
L 176.005371 146.81339 
L 176.256634 146.81339 
L 176.348002 147.69103 
L 176.370844 147.25221 
L 176.43937 147.25221 
L 176.530739 147.69103 
L 176.622107 147.25221 
L 176.736317 147.69103 
L 176.804844 147.69103 
L 176.896212 147.25221 
L 176.98758 147.69103 
L 177.078949 146.81339 
L 177.193159 147.69103 
L 177.444422 147.69103 
L 177.53579 147.25221 
L 177.627159 148.129849 
L 177.718527 147.25221 
L 177.809895 148.129849 
L 177.832738 147.69103 
L 177.901264 147.69103 
L 177.992632 147.25221 
L 178.106843 147.69103 
L 178.358105 147.69103 
L 178.449474 148.129849 
L 178.540842 147.69103 
L 178.63221 148.129849 
L 178.746421 147.69103 
L 178.814947 147.69103 
L 178.929158 148.129849 
L 179.18042 148.129849 
L 179.271789 148.568669 
L 179.385999 148.129849 
L 179.545894 148.129849 
L 179.682946 149.007489 
L 179.728631 149.007489 
L 179.865683 148.129849 
L 179.911367 148.129849 
L 180.025578 148.568669 
L 180.185472 148.568669 
L 180.276841 149.007489 
L 180.368209 148.568669 
L 180.482419 149.007489 
L 180.550946 149.007489 
L 180.642314 148.568669 
L 180.733682 149.007489 
L 180.825051 148.568669 
L 180.962103 149.446308 
L 181.099156 149.446308 
L 181.190524 149.007489 
L 181.304734 149.446308 
L 181.373261 149.446308 
L 181.487471 148.568669 
L 181.738734 148.568669 
L 181.830102 149.007489 
L 181.921471 148.129849 
L 182.012839 149.007489 
L 182.035681 148.568669 
L 182.286944 148.568669 
L 182.378312 149.007489 
L 182.492523 148.568669 
L 182.835154 148.568669 
L 182.926522 149.007489 
L 183.040733 148.568669 
L 183.474732 148.568669 
L 183.566101 149.446308 
L 183.588943 149.007489 
L 183.657469 149.007489 
L 183.794522 148.129849 
L 183.840206 148.129849 
L 183.954416 149.007489 
L 184.022942 149.007489 
L 184.114311 148.568669 
L 184.205679 149.007489 
L 184.297047 148.568669 
L 184.388416 149.446308 
L 184.411258 149.007489 
L 184.479784 149.007489 
L 184.593994 149.446308 
L 184.662521 149.446308 
L 184.753889 149.885128 
L 184.845257 149.007489 
L 184.868099 149.446308 
L 185.210731 149.446308 
L 185.347783 150.323948 
L 185.393467 150.323948 
L 185.484836 149.885128 
L 185.599046 150.323948 
L 185.667572 150.323948 
L 185.781783 150.762767 
L 185.850309 150.762767 
L 185.941677 150.323948 
L 186.07873 151.201587 
L 186.124414 151.201587 
L 186.215782 150.762767 
L 186.329993 151.201587 
L 186.581256 151.201587 
L 186.695466 151.640407 
L 187.494939 151.640407 
L 187.60915 152.079226 
L 188.043149 152.079226 
L 188.180202 152.956866 
L 188.225886 152.956866 
L 188.317254 152.518046 
L 188.408623 153.395685 
L 188.431465 152.956866 
L 188.499991 152.956866 
L 188.591359 153.395685 
L 188.70557 152.956866 
L 188.774096 152.956866 
L 188.865464 153.395685 
L 188.956833 152.956866 
L 189.048201 153.395685 
L 189.139569 152.956866 
L 189.25378 153.395685 
L 189.413674 153.395685 
L 189.505043 153.834505 
L 189.596411 152.956866 
L 189.619253 153.395685 
L 189.961884 153.395685 
L 190.076095 152.956866 
L 190.327358 152.956866 
L 190.418726 153.834505 
L 190.441568 153.395685 
L 190.510094 153.395685 
L 190.601463 152.956866 
L 190.715673 153.395685 
L 190.784199 153.395685 
L 190.89841 153.834505 
L 190.966936 153.834505 
L 191.058304 153.395685 
L 191.172515 153.834505 
L 191.241041 153.834505 
L 191.355251 153.395685 
L 191.423778 153.395685 
L 191.56083 154.273325 
L 191.606514 154.273325 
L 191.697883 153.395685 
L 191.789251 154.273325 
L 191.880619 153.395685 
L 191.903461 153.834505 
L 192.154724 153.834505 
L 192.246093 153.395685 
L 192.405987 154.712144 
L 192.428829 154.712144 
L 192.565882 153.395685 
L 192.611566 153.395685 
L 192.748619 154.273325 
L 192.885671 154.273325 
L 192.977039 153.834505 
L 193.068408 154.273325 
L 193.159776 153.395685 
L 193.251144 154.273325 
L 193.273987 153.834505 
L 193.433881 153.834505 
L 193.525249 154.273325 
L 193.63946 153.834505 
L 193.707986 153.834505 
L 193.799354 154.273325 
L 193.936407 153.395685 
L 193.982091 153.395685 
L 194.096302 154.273325 
L 194.256196 154.273325 
L 194.347565 154.712144 
L 194.461775 154.273325 
L 194.530301 154.273325 
L 194.62167 154.712144 
L 194.73588 154.273325 
L 194.895775 154.273325 
L 194.987143 153.834505 
L 195.101353 154.273325 
L 195.16988 154.273325 
L 195.28409 153.834505 
L 195.443985 153.834505 
L 195.558195 154.273325 
L 195.71809 154.273325 
L 195.809458 153.834505 
L 195.900826 154.273325 
L 195.992195 153.834505 
L 196.106405 154.273325 
L 196.174931 154.273325 
L 196.311984 153.395685 
L 196.357668 153.395685 
L 196.471878 153.834505 
L 196.540405 153.834505 
L 196.631773 153.395685 
L 196.745983 153.834505 
L 196.81451 153.834505 
L 196.905878 153.395685 
L 197.020088 153.834505 
L 197.088615 153.834505 
L 197.179983 154.273325 
L 197.294193 153.834505 
L 197.36272 153.834505 
L 197.47693 154.273325 
L 197.545456 154.273325 
L 197.659667 153.834505 
L 198.367771 153.834505 
L 198.45914 154.273325 
L 198.550508 153.834505 
L 198.664718 154.273325 
L 198.733245 154.273325 
L 198.824613 154.712144 
L 198.915981 153.834505 
L 198.938823 154.273325 
L 199.00735 154.273325 
L 199.098718 153.834505 
L 199.190086 154.273325 
L 199.304297 153.834505 
L 199.372823 153.834505 
L 199.487034 154.273325 
L 199.646928 154.273325 
L 199.783981 155.150964 
L 199.829665 155.150964 
L 199.943875 154.712144 
L 200.012401 154.712144 
L 200.10377 154.273325 
L 200.195138 154.712144 
L 200.286506 154.273325 
L 200.400717 154.712144 
L 200.469243 154.712144 
L 200.583454 155.150964 
L 200.834716 155.150964 
L 200.926085 155.589784 
L 201.017453 155.150964 
L 201.108822 155.589784 
L 201.20019 155.150964 
L 201.3144 156.028603 
L 201.382927 156.028603 
L 201.474295 155.589784 
L 201.565663 156.467423 
L 201.588505 156.028603 
L 201.657032 156.028603 
L 201.771242 156.467423 
L 201.839768 156.467423 
L 201.953979 156.028603 
L 202.022505 156.028603 
L 202.113873 156.467423 
L 202.205242 156.028603 
L 202.319452 156.467423 
L 202.387978 156.467423 
L 202.479347 156.028603 
L 202.616399 156.906243 
L 202.662083 156.906243 
L 202.776294 156.467423 
L 202.936188 156.467423 
L 203.027557 156.906243 
L 203.118925 156.467423 
L 203.233135 156.906243 
L 203.39303 156.906243 
L 203.484398 157.345062 
L 203.621451 156.467423 
L 203.667135 156.467423 
L 203.804187 157.345062 
L 204.032608 157.345062 
L 204.192503 158.661521 
L 204.215345 158.661521 
L 204.306713 158.222702 
L 204.443766 159.100341 
L 204.48945 159.100341 
L 204.60366 158.661521 
L 205.03766 158.661521 
L 205.129028 159.100341 
L 205.243239 158.661521 
L 205.58587 158.661521 
L 205.677238 158.222702 
L 205.768607 159.100341 
L 205.791449 158.661521 
L 205.951343 158.661521 
L 206.065554 159.100341 
L 206.13408 159.100341 
L 206.225448 158.222702 
L 206.24829 158.661521 
L 206.499553 158.661521 
L 206.613764 159.100341 
L 206.68229 159.100341 
L 206.773658 159.97798 
L 206.865027 159.100341 
L 206.887869 159.539161 
L 206.956395 159.539161 
L 207.047763 160.4168 
L 207.161974 159.539161 
L 207.321868 159.539161 
L 207.413237 159.100341 
L 207.527447 159.539161 
L 207.595973 159.539161 
L 207.687342 160.4168 
L 207.710184 159.97798 
L 207.77871 159.97798 
L 207.870078 159.539161 
L 207.984289 159.97798 
L 208.144183 159.97798 
L 208.235552 159.539161 
L 208.349762 159.97798 
L 208.418289 159.97798 
L 208.509657 160.4168 
L 208.601025 159.97798 
L 208.715236 160.4168 
L 208.87513 160.4168 
L 208.966499 159.97798 
L 209.103551 160.85562 
L 209.149235 160.85562 
L 209.240604 159.97798 
L 209.263446 160.4168 
L 209.42334 160.4168 
L 209.537551 160.85562 
L 209.606077 160.85562 
L 209.720287 161.294439 
L 209.97155 161.294439 
L 210.085761 160.85562 
L 210.154287 160.85562 
L 210.245655 161.294439 
L 210.359866 160.85562 
L 210.611129 160.85562 
L 210.702497 160.4168 
L 210.793865 160.85562 
L 210.908076 160.4168 
L 211.342075 160.4168 
L 211.433444 160.85562 
L 211.547654 160.4168 
L 211.61618 160.4168 
L 211.707549 160.85562 
L 211.821759 159.97798 
L 211.890285 159.97798 
L 212.004496 160.4168 
L 212.255759 160.4168 
L 212.392811 159.539161 
L 212.438495 159.539161 
L 212.529864 159.97798 
L 212.666916 159.100341 
L 212.7126 159.100341 
L 212.849653 159.97798 
L 212.895337 159.97798 
L 212.986705 160.4168 
L 213.078074 159.539161 
L 213.100916 159.97798 
L 213.169442 159.97798 
L 213.26081 159.539161 
L 213.397863 160.4168 
L 213.443547 160.4168 
L 213.534915 160.85562 
L 213.649126 160.4168 
L 213.900389 160.4168 
L 213.991757 160.85562 
L 214.105968 160.4168 
L 214.174494 160.4168 
L 214.288704 159.97798 
L 214.35723 159.97798 
L 214.448599 159.539161 
L 214.539967 160.4168 
L 214.562809 159.97798 
L 215.088177 159.97798 
L 215.179545 159.100341 
L 215.202388 159.539161 
L 215.270914 159.539161 
L 215.385124 159.100341 
L 215.636387 159.100341 
L 215.750598 158.661521 
L 215.819124 158.661521 
L 215.910492 159.100341 
L 216.001861 158.661521 
L 216.093229 159.100341 
L 216.184597 158.661521 
L 216.298808 159.100341 
L 216.641439 159.100341 
L 216.755649 158.661521 
L 216.824176 158.661521 
L 216.961228 159.539161 
L 217.006912 159.539161 
L 217.121123 159.100341 
L 217.189649 159.100341 
L 217.303859 158.661521 
L 217.372386 158.661521 
L 217.486596 159.100341 
L 217.646491 159.100341 
L 217.737859 158.661521 
L 217.852069 159.100341 
L 218.103332 159.100341 
L 218.194701 158.661521 
L 218.286069 159.539161 
L 218.308911 159.100341 
L 218.560174 159.100341 
L 218.651542 159.539161 
L 218.765753 159.100341 
L 218.834279 159.100341 
L 218.948489 159.539161 
L 219.108384 159.539161 
L 219.199752 159.97798 
L 219.313963 159.539161 
L 219.473857 159.539161 
L 219.565226 160.4168 
L 219.588068 159.97798 
L 219.747962 159.97798 
L 219.839331 159.539161 
L 219.976383 160.4168 
L 220.022067 160.4168 
L 220.136278 159.97798 
L 220.296172 159.97798 
L 220.387541 159.539161 
L 220.501751 160.4168 
L 221.209856 160.4168 
L 221.301224 159.97798 
L 221.415435 160.4168 
L 221.666697 160.4168 
L 221.758066 159.539161 
L 221.780908 159.97798 
L 221.849434 159.97798 
L 221.963645 160.4168 
L 222.032171 160.4168 
L 222.123539 159.97798 
L 222.214907 160.4168 
L 222.329118 159.97798 
L 222.397644 159.97798 
L 222.489012 159.539161 
L 222.580381 159.97798 
L 222.694591 159.539161 
L 222.763118 159.539161 
L 222.854486 160.4168 
L 222.877328 159.97798 
L 222.945854 159.97798 
L 223.037223 159.539161 
L 223.128591 160.4168 
L 223.219959 159.539161 
L 223.33417 160.4168 
L 223.402696 160.4168 
L 223.494064 159.539161 
L 223.516906 159.97798 
L 223.585433 159.97798 
L 223.676801 159.539161 
L 223.791011 159.97798 
L 224.042274 159.97798 
L 224.133643 159.539161 
L 224.247853 159.97798 
L 224.316379 159.97798 
L 224.43059 159.539161 
L 224.590484 159.539161 
L 224.704695 159.97798 
L 225.047326 159.97798 
L 225.138694 160.85562 
L 225.230063 159.97798 
L 225.252905 160.4168 
L 225.595536 160.4168 
L 225.686904 159.97798 
L 225.823957 160.85562 
L 225.869641 160.85562 
L 225.983851 160.4168 
L 226.143746 160.4168 
L 226.235114 160.85562 
L 226.349325 160.4168 
L 226.600588 160.4168 
L 226.691956 159.539161 
L 226.783324 160.4168 
L 226.874693 159.539161 
L 226.897535 159.97798 
L 226.966061 159.97798 
L 227.103114 159.100341 
L 227.148798 159.100341 
L 227.240166 160.85562 
L 227.263008 160.4168 
L 227.331534 160.4168 
L 227.468587 163.049718 
L 227.605639 163.049718 
L 227.742692 163.927357 
L 227.788376 163.927357 
L 227.879744 164.804997 
L 227.902586 164.366177 
L 227.971113 164.366177 
L 228.131007 165.682636 
L 228.153849 165.682636 
L 228.26806 166.121456 
L 228.336586 166.121456 
L 228.427954 166.999095 
L 228.450797 166.560275 
L 228.519323 166.560275 
L 228.679217 167.876734 
L 228.702059 167.876734 
L 228.793428 167.437915 
L 228.884796 168.315554 
L 228.907638 167.876734 
L 229.158901 167.876734 
L 229.250269 167.437915 
L 229.387322 168.315554 
L 229.433006 168.315554 
L 229.524374 167.876734 
L 229.684269 169.193193 
L 229.707111 169.193193 
L 229.798479 169.632013 
L 229.889848 169.193193 
L 229.981216 170.070833 
L 230.004058 169.632013 
L 230.072585 169.632013 
L 230.186795 169.193193 
L 230.255321 169.193193 
L 230.34669 169.632013 
L 230.4609 169.193193 
L 230.712163 169.193193 
L 230.803531 169.632013 
L 230.8949 168.754374 
L 230.917742 169.193193 
L 231.077636 169.193193 
L 231.169005 169.632013 
L 231.283215 169.193193 
L 231.351741 169.193193 
L 231.488794 170.070833 
L 231.534478 170.070833 
L 231.648688 169.193193 
L 231.717215 169.193193 
L 231.854267 170.509652 
L 231.99132 170.509652 
L 232.128372 171.387292 
L 232.174056 171.387292 
L 232.265425 170.509652 
L 232.288267 170.948472 
L 232.356793 170.948472 
L 232.448161 170.070833 
L 232.471003 170.509652 
L 232.53953 170.509652 
L 232.630898 170.070833 
L 232.722266 170.509652 
L 232.836477 170.070833 
L 232.905003 170.070833 
L 232.996371 170.509652 
L 233.110582 170.070833 
L 233.361845 170.070833 
L 233.453213 170.509652 
L 233.567423 169.632013 
L 233.63595 169.632013 
L 233.75016 170.070833 
L 233.910055 170.070833 
L 234.001423 169.632013 
L 234.092791 170.070833 
L 234.207002 169.632013 
L 234.366896 169.632013 
L 234.481107 169.193193 
L 234.549633 169.193193 
L 234.641001 170.070833 
L 234.663843 169.632013 
L 234.823738 169.632013 
L 234.960791 170.509652 
L 235.006475 170.509652 
L 235.097843 170.070833 
L 235.189211 170.948472 
L 235.326264 169.632013 
L 235.463316 169.632013 
L 235.600369 168.754374 
L 235.737421 168.754374 
L 235.851632 168.315554 
L 235.920158 168.315554 
L 236.034369 169.193193 
L 236.102895 169.193193 
L 236.194263 168.754374 
L 236.308474 169.193193 
L 236.377 169.193193 
L 236.49121 168.754374 
L 236.559736 168.754374 
L 236.651105 169.193193 
L 236.765315 168.754374 
L 236.92521 168.754374 
L 237.016578 169.193193 
L 237.130789 168.754374 
L 237.199315 168.754374 
L 237.290683 168.315554 
L 237.382052 168.754374 
L 237.496262 168.315554 
L 237.564788 168.315554 
L 237.656157 168.754374 
L 237.770367 168.315554 
L 238.112998 168.315554 
L 238.227209 167.876734 
L 238.295735 167.876734 
L 238.432787 166.999095 
L 238.478472 166.999095 
L 238.592682 167.437915 
L 238.661208 167.437915 
L 238.775419 166.999095 
L 238.843945 166.999095 
L 238.958155 166.121456 
L 239.392155 166.121456 
L 239.483523 165.682636 
L 239.597734 166.121456 
L 239.66626 166.121456 
L 239.78047 165.682636 
L 239.940365 165.682636 
L 240.031733 166.121456 
L 240.123102 165.243816 
L 240.145944 165.682636 
L 240.305838 165.682636 
L 240.397207 166.121456 
L 240.511417 165.243816 
L 240.945417 165.243816 
L 241.059627 165.682636 
L 241.31089 165.682636 
L 241.402258 165.243816 
L 241.516469 165.682636 
L 241.584995 165.682636 
L 241.676363 166.121456 
L 241.790574 165.682636 
L 241.950468 165.682636 
L 242.041837 164.804997 
L 242.064679 165.243816 
L 242.315942 165.243816 
L 242.40731 164.804997 
L 242.498678 165.682636 
L 242.521521 165.243816 
L 242.681415 165.243816 
L 242.795626 166.121456 
L 243.046888 166.121456 
L 243.183941 166.999095 
L 243.320993 166.999095 
L 243.458046 166.121456 
L 243.686467 166.121456 
L 243.800677 165.682636 
L 243.869203 165.682636 
L 243.960572 165.243816 
L 244.074782 165.682636 
L 244.143308 165.682636 
L 244.257519 164.804997 
L 244.326045 164.804997 
L 244.417414 165.243816 
L 244.554466 163.488538 
L 244.60015 163.488538 
L 244.691519 163.049718 
L 244.805729 163.488538 
L 244.965624 163.488538 
L 245.125518 164.804997 
L 245.331097 164.804997 
L 245.445307 165.243816 
L 245.605202 165.243816 
L 245.69657 164.804997 
L 245.810781 165.243816 
L 245.970675 165.243816 
L 246.107728 164.366177 
L 246.336149 164.366177 
L 246.473201 163.488538 
L 246.610254 163.488538 
L 246.724464 162.610898 
L 246.79299 162.610898 
L 246.907201 162.172079 
L 246.975727 162.172079 
L 247.089937 161.733259 
L 247.158464 161.733259 
L 247.295516 160.85562 
L 247.3412 160.85562 
L 247.432569 160.4168 
L 247.546779 160.85562 
L 247.615305 160.85562 
L 247.752358 159.97798 
L 247.798042 159.97798 
L 247.912252 160.4168 
L 248.163515 160.4168 
L 248.254884 159.97798 
L 248.369094 160.4168 
L 248.43762 160.4168 
L 248.574673 159.100341 
L 248.711725 159.100341 
L 248.803094 158.661521 
L 248.940146 159.539161 
L 248.98583 159.539161 
L 249.122883 160.85562 
L 249.442672 160.85562 
L 249.556882 161.294439 
L 249.625409 161.294439 
L 249.739619 160.85562 
L 250.08225 160.85562 
L 250.196461 160.4168 
L 250.447724 160.4168 
L 250.561934 160.85562 
L 250.63046 160.85562 
L 250.744671 160.4168 
L 250.904565 160.4168 
L 250.995934 160.85562 
L 251.087302 160.4168 
L 251.17867 161.294439 
L 251.201513 160.85562 
L 251.361407 160.85562 
L 251.49846 159.97798 
L 251.544144 159.97798 
L 251.635512 159.539161 
L 251.749723 159.97798 
L 251.909617 159.97798 
L 252.023828 160.4168 
L 252.092354 160.4168 
L 252.183722 159.97798 
L 252.275091 160.4168 
L 252.412143 159.539161 
L 252.457827 159.539161 
L 252.59488 160.4168 
L 252.640564 160.4168 
L 252.754774 161.294439 
L 252.823301 161.294439 
L 252.937511 259.590046 
L 252.960353 259.590046 
L 253.051721 249.497193 
L 253.14309 294.2568 
L 253.165932 273.632275 
L 253.234458 273.632275 
L 253.371511 270.121718 
L 253.417195 270.121718 
L 253.508563 277.142833 
L 253.645616 229.750308 
L 253.6913 229.750308 
L 253.828352 137.598177 
L 253.874036 137.598177 
L 254.011089 87.133915 
L 254.056773 87.133915 
L 254.170984 82.745718 
L 254.23951 82.745718 
L 254.376562 89.328013 
L 254.422246 89.328013 
L 254.513615 91.083292 
L 254.604983 79.235161 
L 254.627825 80.55162 
L 254.696351 80.55162 
L 254.833404 71.336407 
L 254.879088 71.336407 
L 254.970456 65.192931 
L 254.993299 66.94821 
L 255.061825 66.94821 
L 255.221719 74.408144 
L 255.244562 74.408144 
L 255.381614 67.825849 
L 255.427298 67.825849 
L 255.518667 67.38703 
L 255.610035 67.825849 
L 255.701403 67.38703 
L 255.838456 68.264669 
L 255.88414 68.264669 
L 256.021192 66.94821 
L 256.158245 66.94821 
L 256.272455 66.07057 
L 256.43235 66.07057 
L 256.54656 65.192931 
L 256.615087 65.192931 
L 256.729297 64.754111 
L 256.797823 64.754111 
L 256.889192 64.315292 
L 256.98056 65.192931 
L 257.071928 63.876472 
L 257.09477 64.315292 
L 257.163297 64.315292 
L 257.323191 63.218243 
L 257.52877 63.218243 
L 257.665822 62.121193 
L 257.711507 62.121193 
L 257.825717 61.682374 
L 257.985612 61.682374 
L 258.07698 62.121193 
L 258.19119 61.682374 
L 258.259717 61.682374 
L 258.419611 60.365915 
L 258.442453 60.365915 
L 258.533822 60.804734 
L 258.62519 59.927095 
L 258.648032 60.365915 
L 258.716558 60.365915 
L 258.807927 59.927095 
L 258.922137 60.365915 
L 259.082032 60.365915 
L 259.196242 59.927095 
L 259.356137 59.927095 
L 259.447505 59.707685 
L 259.538873 60.365915 
L 259.653084 59.707685 
L 259.72161 59.707685 
L 259.812978 59.268866 
L 259.904347 59.927095 
L 259.927189 59.707685 
L 259.995715 59.707685 
L 260.15561 58.610636 
L 260.178452 58.610636 
L 260.292662 59.707685 
L 260.452557 59.707685 
L 260.543925 58.610636 
L 260.635293 59.707685 
L 260.726662 58.610636 
L 260.749504 59.268866 
L 261.092135 59.268866 
L 261.183503 59.707685 
L 261.274872 59.268866 
L 261.389082 59.707685 
L 261.457608 59.707685 
L 261.617503 58.610636 
L 261.731713 58.610636 
L 261.823082 58.171816 
L 261.982976 59.268866 
L 262.005818 59.268866 
L 262.097187 58.610636 
L 262.188555 59.707685 
L 262.211397 59.268866 
L 262.279924 59.268866 
L 262.394134 58.610636 
L 262.46266 58.610636 
L 262.576871 59.707685 
L 262.736765 59.707685 
L 262.850976 59.268866 
L 262.919502 59.268866 
L 263.033712 59.707685 
L 263.193607 59.707685 
L 263.307817 59.268866 
L 263.376344 59.268866 
L 263.467712 59.927095 
L 263.490554 59.707685 
L 263.55908 59.707685 
L 263.650449 59.927095 
L 263.764659 59.707685 
L 263.833185 59.707685 
L 263.947396 59.268866 
L 264.015922 59.268866 
L 264.130132 59.707685 
L 264.198659 59.707685 
L 264.312869 59.268866 
L 264.746869 59.268866 
L 264.838237 58.610636 
L 264.929605 59.707685 
L 265.020974 58.610636 
L 265.043816 59.268866 
L 265.295079 59.268866 
L 265.386447 59.707685 
L 265.500657 59.268866 
L 265.660552 59.268866 
L 265.75192 59.707685 
L 265.843289 59.268866 
L 265.957499 59.927095 
L 266.026025 59.927095 
L 266.140236 59.707685 
L 266.30013 59.707685 
L 266.414341 59.268866 
L 266.574235 59.268866 
L 266.688446 59.707685 
L 266.84834 59.707685 
L 266.939709 59.268866 
L 267.031077 59.707685 
L 267.145287 59.268866 
L 267.305182 59.268866 
L 267.419392 58.610636 
L 267.487919 58.610636 
L 267.579287 58.171816 
L 267.693498 58.610636 
L 267.853392 58.610636 
L 267.990445 57.732997 
L 268.127497 57.732997 
L 268.218865 58.171816 
L 268.310234 57.732997 
L 268.424444 58.171816 
L 268.858444 58.171816 
L 268.972654 57.732997 
L 269.315285 57.732997 
L 269.406654 56.855357 
L 269.429496 57.294177 
L 269.772127 57.294177 
L 269.863496 57.732997 
L 269.954864 57.294177 
L 270.046232 57.732997 
L 270.160443 57.294177 
L 270.228969 57.294177 
L 270.320337 56.855357 
L 270.434548 57.294177 
L 270.868547 57.294177 
L 270.959916 57.732997 
L 271.096968 56.855357 
L 271.142652 56.855357 
L 271.256863 57.294177 
L 271.416757 57.294177 
L 271.530968 56.855357 
L 271.599494 56.855357 
L 271.690862 56.416538 
L 271.805073 56.855357 
L 272.056336 56.855357 
L 272.193388 57.732997 
L 272.239072 57.732997 
L 272.353283 57.294177 
L 272.513177 57.294177 
L 272.604546 57.732997 
L 272.718756 57.294177 
L 272.787282 57.294177 
L 272.878651 57.732997 
L 272.992861 57.294177 
L 273.061387 57.294177 
L 273.175598 57.732997 
L 273.244124 57.732997 
L 273.335492 57.294177 
L 273.449703 57.732997 
L 273.518229 57.732997 
L 273.609597 58.171816 
L 273.700966 57.732997 
L 273.815176 58.171816 
L 274.157807 58.171816 
L 274.249176 57.732997 
L 274.386228 58.610636 
L 274.431912 58.610636 
L 274.568965 57.732997 
L 274.614649 57.732997 
L 274.751702 58.610636 
L 274.888754 58.610636 
L 274.980122 59.268866 
L 275.094333 58.610636 
L 275.162859 58.610636 
L 275.254227 59.268866 
L 275.345596 58.610636 
L 275.436964 59.707685 
L 275.459806 59.268866 
L 275.528332 59.268866 
L 275.619701 58.610636 
L 275.733911 59.268866 
L 276.167911 59.268866 
L 276.259279 58.610636 
L 276.396332 59.707685 
L 276.442016 59.707685 
L 276.533384 59.927095 
L 276.647595 59.707685 
L 276.716121 59.707685 
L 276.830331 59.268866 
L 276.990226 59.268866 
L 277.127278 59.927095 
L 277.172963 59.927095 
L 277.287173 59.707685 
L 277.629804 59.707685 
L 277.744015 59.268866 
L 277.812541 59.268866 
L 277.903909 59.707685 
L 277.995278 59.268866 
L 278.13233 59.927095 
L 278.178014 59.927095 
L 278.292225 59.707685 
L 278.452119 59.707685 
L 278.543488 59.927095 
L 278.657698 59.707685 
L 278.726224 59.707685 
L 278.817593 59.927095 
L 278.908961 59.268866 
L 279.000329 59.927095 
L 279.023171 59.707685 
L 279.091698 59.707685 
L 279.183066 60.365915 
L 279.274434 59.707685 
L 279.297276 59.927095 
L 279.365803 59.927095 
L 279.480013 59.707685 
L 279.548539 59.707685 
L 279.639908 59.927095 
L 279.754118 59.707685 
L 279.822644 59.707685 
L 279.914013 59.927095 
L 280.028223 59.707685 
L 280.279486 59.707685 
L 280.370854 59.927095 
L 280.485065 59.707685 
L 280.553591 59.707685 
L 280.644959 59.927095 
L 280.75917 59.707685 
L 280.919064 59.707685 
L 281.010433 59.927095 
L 281.170327 59.268866 
L 281.193169 59.268866 
L 281.30738 59.707685 
L 281.467274 59.707685 
L 281.581485 59.268866 
L 281.650011 59.268866 
L 281.764221 59.707685 
L 281.924116 59.707685 
L 282.015484 59.268866 
L 282.129695 59.707685 
L 282.289589 59.707685 
L 282.380958 59.927095 
L 282.540852 59.268866 
L 282.563694 59.268866 
L 282.677905 59.707685 
L 282.746431 59.707685 
L 282.837799 60.365915 
L 282.95201 59.707685 
L 283.020536 59.707685 
L 283.111904 59.927095 
L 283.271799 59.268866 
L 283.294641 59.268866 
L 283.408852 59.707685 
L 283.568746 59.707685 
L 283.660114 59.927095 
L 283.774325 59.707685 
L 284.208325 59.707685 
L 284.299693 59.927095 
L 284.413903 59.707685 
L 284.48243 59.707685 
L 284.573798 60.365915 
L 284.59664 59.927095 
L 284.847903 59.927095 
L 284.962113 59.707685 
L 285.03064 59.707685 
L 285.14485 59.927095 
L 285.396113 59.927095 
L 285.487481 60.365915 
L 285.601692 59.927095 
L 285.670218 59.927095 
L 285.761586 60.365915 
L 285.875797 59.927095 
L 285.944323 59.927095 
L 286.035691 59.707685 
L 286.149902 60.365915 
L 286.401165 60.365915 
L 286.515375 59.927095 
L 286.583901 59.927095 
L 286.67527 59.707685 
L 286.78948 60.365915 
L 287.040743 60.365915 
L 287.132111 59.707685 
L 287.246322 60.365915 
L 287.406216 60.365915 
L 287.520427 60.804734 
L 287.588953 60.804734 
L 287.703163 60.365915 
L 287.954426 60.365915 
L 288.045795 60.804734 
L 288.137163 60.365915 
L 288.251373 60.804734 
L 288.411268 60.804734 
L 288.525478 61.243554 
L 288.776741 61.243554 
L 288.890952 60.804734 
L 289.324951 60.804734 
L 289.41632 61.243554 
L 289.53053 60.804734 
L 289.690425 60.804734 
L 289.781793 61.243554 
L 289.896004 60.804734 
L 289.96453 60.804734 
L 290.055898 61.682374 
L 290.07874 61.243554 
L 290.147266 61.243554 
L 290.261477 60.804734 
L 290.421371 60.804734 
L 290.51274 61.243554 
L 290.604108 60.804734 
L 290.741161 61.682374 
L 290.786845 61.682374 
L 290.901055 60.804734 
L 290.969581 60.804734 
L 291.083792 61.243554 
L 291.243687 61.243554 
L 291.335055 60.804734 
L 291.426423 61.682374 
L 291.517792 60.804734 
L 291.540634 61.243554 
L 291.883265 61.243554 
L 291.974633 60.804734 
L 292.088844 61.243554 
L 292.15737 61.243554 
L 292.27158 60.804734 
L 292.340107 60.804734 
L 292.454317 61.243554 
L 292.614212 61.243554 
L 292.728422 60.804734 
L 292.888317 60.804734 
L 292.979685 61.243554 
L 293.071053 60.804734 
L 293.162422 61.243554 
L 293.276632 60.804734 
L 293.345158 60.804734 
L 293.459369 61.243554 
L 293.527895 61.243554 
L 293.642105 60.804734 
L 294.35021 60.804734 
L 294.441578 61.243554 
L 294.555789 60.804734 
L 295.081157 60.804734 
L 295.172525 61.243554 
L 295.286735 60.804734 
L 295.355262 60.804734 
L 295.469472 61.243554 
L 295.537998 61.243554 
L 295.652209 60.804734 
L 295.812103 60.804734 
L 295.926314 61.243554 
L 296.086208 61.243554 
L 296.177577 60.365915 
L 296.200419 60.804734 
L 296.268945 60.804734 
L 296.383155 61.243554 
L 296.451682 61.243554 
L 296.565892 60.804734 
L 296.908523 60.804734 
L 296.999892 61.243554 
L 297.114102 60.804734 
L 297.273997 60.804734 
L 297.365365 61.243554 
L 297.456733 60.804734 
L 297.570944 61.243554 
L 297.63947 61.243554 
L 297.730838 60.365915 
L 297.753681 60.804734 
L 298.18768 60.804734 
L 298.301891 60.365915 
L 298.73589 60.365915 
L 298.827259 60.804734 
L 298.918627 59.927095 
L 298.941469 60.365915 
L 299.009995 60.365915 
L 299.101364 59.927095 
L 299.192732 60.365915 
L 299.306942 59.927095 
L 299.375469 59.927095 
L 299.489679 60.365915 
L 299.649574 60.365915 
L 299.740942 59.927095 
L 299.855152 60.365915 
L 299.923679 60.365915 
L 300.015047 59.927095 
L 300.106415 60.365915 
L 300.220626 59.927095 
L 300.38052 59.927095 
L 300.471889 60.365915 
L 300.586099 59.927095 
L 300.654625 59.927095 
L 300.768836 59.707685 
L 300.837362 59.707685 
L 300.92873 59.268866 
L 301.020099 59.927095 
L 301.042941 59.707685 
L 301.294204 59.707685 
L 301.385572 59.927095 
L 301.545467 59.268866 
L 301.568309 59.268866 
L 301.705361 59.927095 
L 301.842414 59.927095 
L 301.933782 59.268866 
L 301.956624 59.707685 
L 302.390624 59.707685 
L 302.481992 58.610636 
L 302.504834 59.268866 
L 303.12157 59.268866 
L 303.212939 59.707685 
L 303.327149 59.268866 
L 303.395675 59.268866 
L 303.487044 59.707685 
L 303.601254 59.268866 
L 303.66978 59.268866 
L 303.761149 59.707685 
L 303.852517 59.268866 
L 303.966728 59.707685 
L 304.583464 59.707685 
L 304.674832 59.268866 
L 304.789043 59.707685 
L 305.131674 59.707685 
L 305.223042 59.927095 
L 305.337253 59.707685 
L 305.497147 59.707685 
L 305.611358 59.927095 
L 305.862621 59.927095 
L 305.976831 59.707685 
L 306.136726 59.707685 
L 306.250936 59.927095 
L 306.319462 59.927095 
L 306.410831 59.707685 
L 306.525041 59.927095 
L 306.593567 59.927095 
L 306.684936 59.707685 
L 306.799146 59.927095 
L 306.959041 59.927095 
L 307.050409 59.707685 
L 307.141777 59.927095 
L 307.233146 59.707685 
L 307.324514 59.927095 
L 307.415882 59.707685 
L 307.507251 60.365915 
L 307.530093 59.927095 
L 307.689987 59.927095 
L 307.781356 59.707685 
L 307.895566 59.927095 
L 307.964092 59.927095 
L 308.078303 59.707685 
L 308.238197 59.707685 
L 308.329566 60.365915 
L 308.352408 59.927095 
L 308.512302 59.927095 
L 308.603671 59.707685 
L 308.695039 60.365915 
L 308.717881 59.927095 
L 308.786407 59.927095 
L 308.877776 60.804734 
L 308.900618 60.365915 
L 309.151881 60.365915 
L 309.243249 59.927095 
L 309.334617 61.243554 
L 309.425986 59.927095 
L 309.448828 60.804734 
L 309.517354 60.804734 
L 309.608722 60.365915 
L 309.700091 60.804734 
L 309.791459 60.365915 
L 309.882827 60.804734 
L 309.974196 60.365915 
L 310.088406 60.804734 
L 310.339669 60.804734 
L 310.453879 61.243554 
L 310.522406 61.243554 
L 310.613774 60.804734 
L 310.727984 61.243554 
L 310.887879 61.243554 
L 310.979247 61.682374 
L 311.093458 61.243554 
L 311.253352 61.243554 
L 311.344721 61.682374 
L 311.436089 60.804734 
L 311.458931 61.243554 
L 311.710194 61.243554 
L 311.801562 61.682374 
L 311.915773 61.243554 
L 312.075667 61.243554 
L 312.189878 62.121193 
L 312.258404 62.121193 
L 312.372615 61.682374 
L 312.441141 61.682374 
L 312.555351 62.121193 
L 312.715246 62.121193 
L 312.806614 61.682374 
L 312.897983 62.560013 
L 312.989351 61.682374 
L 313.012193 62.121193 
L 313.080719 62.121193 
L 313.172088 62.560013 
L 313.263456 61.682374 
L 313.354824 62.560013 
L 313.377666 62.121193 
L 313.446193 62.121193 
L 313.560403 61.682374 
L 313.628929 61.682374 
L 313.74314 62.560013 
L 314.268508 62.560013 
L 314.359876 63.218243 
L 314.451244 62.121193 
L 314.474086 62.560013 
L 314.542613 62.560013 
L 314.633981 63.218243 
L 314.725349 62.560013 
L 314.83956 63.218243 
L 314.908086 63.218243 
L 314.999454 62.560013 
L 315.113665 63.218243 
L 315.182191 63.218243 
L 315.273559 62.121193 
L 315.38777 63.218243 
L 315.456296 63.218243 
L 315.547664 62.560013 
L 315.661875 63.218243 
L 315.913138 63.218243 
L 316.004506 62.560013 
L 316.118716 63.218243 
L 316.278611 63.218243 
L 316.392821 62.560013 
L 316.461348 62.560013 
L 316.552716 63.437652 
L 316.644084 62.560013 
L 316.666926 63.218243 
L 316.735453 63.218243 
L 316.826821 62.560013 
L 316.941031 63.218243 
L 317.100926 63.218243 
L 317.192294 62.560013 
L 317.306505 63.218243 
L 317.466399 63.218243 
L 317.58061 62.560013 
L 317.649136 62.560013 
L 317.763346 63.218243 
L 318.105978 63.218243 
L 318.197346 62.560013 
L 318.288714 63.218243 
L 318.380083 62.560013 
L 318.494293 63.218243 
L 319.111029 63.218243 
L 319.202398 62.560013 
L 319.316608 63.218243 
L 319.567871 63.218243 
L 319.682082 62.560013 
L 319.750608 62.560013 
L 319.864818 62.121193 
L 319.933345 62.121193 
L 320.024713 62.560013 
L 320.161765 61.682374 
L 320.20745 61.682374 
L 320.32166 62.121193 
L 320.481555 62.121193 
L 320.595765 61.682374 
L 320.938396 61.682374 
L 321.029765 61.243554 
L 321.121133 61.682374 
L 321.235343 61.243554 
L 321.486606 61.243554 
L 321.577975 60.804734 
L 321.692185 61.243554 
L 321.85208 61.243554 
L 321.96629 60.804734 
L 322.034816 60.804734 
L 322.126185 61.243554 
L 322.240395 60.804734 
L 322.308921 60.804734 
L 322.423132 61.243554 
L 322.491658 61.243554 
L 322.62871 60.365915 
L 322.765763 60.365915 
L 322.879973 60.804734 
L 323.49671 60.804734 
L 323.588078 61.243554 
L 323.725131 60.365915 
L 323.862183 60.365915 
L 323.976393 60.804734 
L 324.136288 60.804734 
L 324.227656 61.243554 
L 324.319025 60.804734 
L 324.410393 61.243554 
L 324.501761 60.365915 
L 324.524603 60.804734 
L 324.59313 60.804734 
L 324.684498 61.243554 
L 324.775866 60.804734 
L 324.867235 61.243554 
L 324.981445 60.804734 
L 325.415445 60.804734 
L 325.506813 61.243554 
L 325.621024 60.804734 
L 326.23776 60.804734 
L 326.329128 61.243554 
L 326.443339 60.804734 
L 326.511865 60.804734 
L 326.626075 61.243554 
L 326.78597 61.243554 
L 326.923022 60.365915 
L 326.968706 60.365915 
L 327.060075 60.804734 
L 327.151443 60.365915 
L 327.242812 61.243554 
L 327.265654 60.804734 
L 327.973758 60.804734 
L 328.065127 60.365915 
L 328.156495 60.804734 
L 328.247863 60.365915 
L 328.339232 60.804734 
L 328.453442 60.365915 
L 328.887442 60.365915 
L 329.001652 60.804734 
L 329.161547 60.804734 
L 329.252915 60.365915 
L 329.367125 60.804734 
L 329.52702 60.804734 
L 329.64123 60.365915 
L 329.801125 60.365915 
L 329.892493 60.804734 
L 329.983862 60.365915 
L 330.098072 60.804734 
L 330.714808 60.804734 
L 330.829019 61.243554 
L 330.897545 61.243554 
L 330.988913 60.804734 
L 331.103124 61.243554 
L 331.17165 61.243554 
L 331.263018 60.804734 
L 331.377229 61.243554 
L 331.445755 61.243554 
L 331.537123 60.804734 
L 331.651334 61.243554 
L 331.71986 61.243554 
L 331.83407 60.804734 
L 331.902597 60.804734 
L 332.016807 61.243554 
L 332.176702 61.243554 
L 332.290912 60.804734 
L 332.542175 60.804734 
L 332.656386 61.243554 
L 332.907648 61.243554 
L 332.999017 60.804734 
L 333.113227 61.243554 
L 333.273122 61.243554 
L 333.36449 60.804734 
L 333.478701 61.243554 
L 333.547227 61.243554 
L 333.638595 60.804734 
L 333.752806 61.682374 
L 333.821332 61.682374 
L 333.9127 60.804734 
L 333.935542 61.243554 
L 334.186805 61.243554 
L 334.278174 60.804734 
L 334.392384 61.243554 
L 334.552279 61.243554 
L 334.666489 61.682374 
L 334.735015 61.682374 
L 334.872068 60.804734 
L 334.917752 60.804734 
L 335.00912 61.682374 
L 335.031962 61.243554 
L 335.100489 61.243554 
L 335.214699 60.804734 
L 335.465962 60.804734 
L 335.55733 61.243554 
L 335.648699 60.804734 
L 335.740067 61.243554 
L 335.831435 60.804734 
L 335.922804 61.243554 
L 336.037014 60.804734 
L 336.562382 60.804734 
L 336.65375 60.365915 
L 336.767961 60.804734 
L 336.836487 60.804734 
L 336.950697 61.243554 
L 337.019224 61.243554 
L 337.133434 60.804734 
L 337.293329 60.804734 
L 337.384697 60.365915 
L 337.476065 61.243554 
L 337.498907 60.804734 
L 337.75017 60.804734 
L 337.864381 61.243554 
L 337.932907 61.243554 
L 338.024275 60.365915 
L 338.115644 61.243554 
L 338.138486 60.804734 
L 338.663854 60.804734 
L 338.755222 61.243554 
L 338.84659 60.365915 
L 338.869432 60.804734 
L 338.937959 60.804734 
L 339.052169 60.365915 
L 339.120695 60.365915 
L 339.212064 60.804734 
L 339.303432 60.365915 
L 339.3948 60.804734 
L 339.486169 60.365915 
L 339.577537 60.804734 
L 339.668905 60.365915 
L 339.760274 60.804734 
L 339.874484 60.365915 
L 340.125747 60.365915 
L 340.217115 59.927095 
L 340.308484 60.365915 
L 340.399852 59.927095 
L 340.49122 60.804734 
L 340.514063 60.365915 
L 340.582589 60.365915 
L 340.696799 59.927095 
L 341.130799 59.927095 
L 341.222167 60.365915 
L 341.35922 59.707685 
L 341.404904 59.707685 
L 341.496272 59.927095 
L 341.610483 59.707685 
L 341.861746 59.707685 
L 341.953114 59.927095 
L 342.044482 59.268866 
L 342.158693 59.927095 
L 342.409956 59.927095 
L 342.524166 59.707685 
L 342.592692 59.707685 
L 342.706903 59.927095 
L 343.140902 59.927095 
L 343.255113 59.707685 
L 343.323639 59.707685 
L 343.415007 59.268866 
L 343.529218 59.707685 
L 343.780481 59.707685 
L 343.871849 59.927095 
L 343.963217 59.268866 
L 343.986059 59.707685 
L 344.054586 59.707685 
L 344.145954 60.365915 
L 344.260164 59.707685 
L 344.328691 59.707685 
L 344.420059 59.927095 
L 344.534269 59.707685 
L 344.602796 59.707685 
L 344.717006 60.365915 
L 344.876901 60.365915 
L 344.968269 59.927095 
L 345.082479 60.365915 
L 345.151006 60.365915 
L 345.242374 60.804734 
L 345.356584 60.365915 
L 345.425111 60.365915 
L 345.539321 60.804734 
L 345.607847 60.804734 
L 345.722058 60.365915 
L 345.790584 60.365915 
L 345.881952 60.804734 
L 345.973321 60.365915 
L 346.110373 61.682374 
L 346.156057 61.682374 
L 346.270268 61.243554 
L 346.430162 61.243554 
L 346.521531 61.682374 
L 346.612899 61.243554 
L 346.727109 61.682374 
L 346.795636 61.682374 
L 346.887004 60.804734 
L 346.909846 61.243554 
L 346.978372 61.243554 
L 347.069741 61.682374 
L 347.183951 61.243554 
L 347.526582 61.243554 
L 347.617951 61.682374 
L 347.709319 61.243554 
L 347.82353 61.682374 
L 347.983424 61.682374 
L 348.074792 62.121193 
L 348.189003 61.682374 
L 348.440266 61.682374 
L 348.531634 62.121193 
L 348.623003 61.682374 
L 348.737213 62.121193 
L 348.897108 62.121193 
L 348.988476 61.682374 
L 349.079844 62.560013 
L 349.102686 62.121193 
L 349.171213 62.121193 
L 349.262581 62.560013 
L 349.376791 62.121193 
L 349.536686 62.121193 
L 349.650896 63.218243 
L 349.719423 63.218243 
L 349.810791 62.121193 
L 349.833633 62.560013 
L 349.902159 62.560013 
L 349.993528 61.682374 
L 350.084896 62.560013 
L 350.221948 61.243554 
L 350.267633 61.243554 
L 350.359001 61.682374 
L 350.473211 61.243554 
L 350.541738 61.243554 
L 350.633106 61.682374 
L 350.724474 60.804734 
L 350.747316 61.243554 
L 350.815843 61.243554 
L 350.930053 60.804734 
L 350.998579 60.804734 
L 351.089948 59.927095 
L 351.11279 60.365915 
L 351.272684 60.365915 
L 351.364053 59.927095 
L 351.478263 60.365915 
L 351.638158 60.365915 
L 351.752368 59.927095 
L 351.820894 59.927095 
L 351.912263 59.707685 
L 352.026473 59.927095 
L 352.094999 59.927095 
L 352.20921 59.707685 
L 353.282788 59.707685 
L 353.396998 59.268866 
L 353.465524 59.268866 
L 353.556893 59.707685 
L 353.648261 59.268866 
L 353.762471 59.707685 
L 353.922366 59.707685 
L 354.013734 59.268866 
L 354.127945 59.707685 
L 354.196471 59.707685 
L 354.287839 59.268866 
L 354.379208 59.707685 
L 354.470576 59.268866 
L 354.561944 59.707685 
L 354.653313 58.610636 
L 354.676155 59.268866 
L 354.836049 59.268866 
L 354.927418 58.171816 
L 354.95026 58.610636 
L 355.110154 58.610636 
L 355.224365 59.268866 
L 355.384259 59.268866 
L 355.49847 58.610636 
L 355.566996 58.610636 
L 355.681207 58.171816 
L 355.841101 58.171816 
L 355.955312 58.610636 
L 356.115206 58.610636 
L 356.206575 58.171816 
L 356.366469 59.268866 
L 356.389311 59.268866 
L 356.48068 58.171816 
L 356.572048 59.268866 
L 356.663416 57.732997 
L 356.686258 58.171816 
L 356.754785 58.171816 
L 356.846153 58.610636 
L 356.960363 58.171816 
L 357.02889 58.171816 
L 357.120258 58.610636 
L 357.234468 58.171816 
L 357.485731 58.171816 
L 357.5771 58.610636 
L 357.668468 57.732997 
L 357.80552 59.268866 
L 357.851205 59.268866 
L 357.965415 58.171816 
L 358.033941 58.171816 
L 358.148152 58.610636 
L 358.399415 58.610636 
L 358.490783 57.732997 
L 358.513625 58.171816 
L 358.582151 58.171816 
L 358.67352 58.610636 
L 358.810572 57.732997 
L 359.038993 57.732997 
L 359.130361 58.171816 
L 359.22173 57.732997 
L 359.33594 58.171816 
L 359.495835 58.171816 
L 359.610045 57.732997 
L 359.678571 57.732997 
L 359.76994 58.610636 
L 359.792782 58.171816 
L 359.861308 58.171816 
L 359.952676 57.294177 
L 359.975518 57.732997 
L 360.044045 57.732997 
L 360.135413 58.171816 
L 360.226781 57.732997 
L 360.31815 58.171816 
L 360.409518 57.732997 
L 360.523728 58.171816 
L 360.592255 58.171816 
L 360.706465 57.732997 
L 360.774991 57.732997 
L 360.889202 58.171816 
L 361.049096 58.171816 
L 361.140465 57.294177 
L 361.254675 58.171816 
L 361.597306 58.171816 
L 361.688675 57.732997 
L 361.780043 58.171816 
L 361.894254 57.732997 
L 361.96278 57.732997 
L 362.054148 58.171816 
L 362.168359 57.294177 
L 362.236885 57.294177 
L 362.328253 57.732997 
L 362.442464 57.294177 
L 362.51099 57.294177 
L 362.6252 57.732997 
L 362.693726 57.732997 
L 362.785095 58.171816 
L 362.899305 57.732997 
L 363.150568 57.732997 
L 363.241937 57.294177 
L 363.333305 57.732997 
L 363.447515 57.294177 
L 363.516042 57.294177 
L 363.60741 56.855357 
L 363.72162 57.294177 
L 363.790147 57.294177 
L 363.881515 57.732997 
L 363.972883 57.294177 
L 364.087094 57.732997 
L 364.246988 57.732997 
L 364.361199 57.294177 
L 364.612462 57.294177 
L 364.749514 56.416538 
L 364.795198 56.416538 
L 364.932251 57.294177 
L 365.069303 57.294177 
L 365.183514 56.855357 
L 365.25204 56.855357 
L 365.343408 56.416538 
L 365.434777 56.855357 
L 365.526145 56.416538 
L 365.617513 56.855357 
L 365.731724 56.416538 
L 365.80025 56.416538 
L 365.91446 56.855357 
L 365.982987 56.855357 
L 366.074355 57.294177 
L 366.188565 56.855357 
L 366.34846 56.855357 
L 366.439828 56.416538 
L 366.531197 56.855357 
L 366.645407 56.416538 
L 366.713933 56.416538 
L 366.850986 57.294177 
L 366.89667 57.294177 
L 367.01088 56.416538 
L 367.262143 56.416538 
L 367.353512 57.294177 
L 367.467722 56.416538 
L 367.627617 56.416538 
L 367.718985 56.855357 
L 367.87888 55.758308 
L 367.901722 55.758308 
L 367.99309 56.416538 
L 368.015932 55.977718 
L 368.084458 55.977718 
L 368.198669 56.416538 
L 368.358563 56.416538 
L 368.449932 56.855357 
L 368.564142 56.416538 
L 369.08951 56.416538 
L 369.180878 55.977718 
L 369.295089 56.416538 
L 369.363615 56.416538 
L 369.454983 55.977718 
L 369.569194 56.416538 
L 369.729088 56.416538 
L 369.820457 56.855357 
L 369.934667 55.977718 
L 370.368667 55.977718 
L 370.482877 56.416538 
L 370.551404 56.416538 
L 370.665614 55.977718 
L 370.73414 55.977718 
L 370.825509 56.416538 
L 370.939719 55.977718 
L 371.099614 55.977718 
L 371.190982 56.416538 
L 371.305192 55.977718 
L 371.556455 55.977718 
L 371.647824 56.416538 
L 371.784876 55.758308 
L 371.83056 55.758308 
L 371.944771 55.977718 
L 372.37877 55.977718 
L 372.470139 56.416538 
L 372.584349 55.977718 
L 372.652875 55.977718 
L 372.767086 56.416538 
L 372.92698 56.416538 
L 373.018349 55.977718 
L 373.109717 56.416538 
L 373.201085 55.977718 
L 373.292454 56.416538 
L 373.406664 55.977718 
L 373.47519 55.977718 
L 373.589401 56.416538 
L 373.749295 56.416538 
L 373.840664 55.977718 
L 373.954874 56.416538 
L 374.114769 56.416538 
L 374.206137 55.977718 
L 374.320347 56.416538 
L 374.480242 56.416538 
L 374.594452 55.977718 
L 374.754347 55.977718 
L 374.845715 56.416538 
L 374.959926 55.977718 
L 375.028452 55.977718 
L 375.11982 56.416538 
L 375.211189 55.977718 
L 375.302557 56.416538 
L 375.393925 55.977718 
L 375.508136 56.855357 
L 376.398977 56.855357 
L 376.513188 57.294177 
L 376.581714 57.294177 
L 376.695924 56.855357 
L 376.76445 56.855357 
L 376.878661 57.294177 
L 376.947187 57.294177 
L 377.038555 56.855357 
L 377.129924 57.294177 
L 377.221292 56.855357 
L 377.335503 57.294177 
L 377.404029 57.294177 
L 377.495397 56.855357 
L 377.586766 57.294177 
L 377.678134 56.416538 
L 377.769502 57.294177 
L 377.792344 56.855357 
L 377.952239 56.855357 
L 378.043607 57.294177 
L 378.134976 56.855357 
L 378.226344 57.294177 
L 378.317712 56.855357 
L 378.409081 57.294177 
L 378.500449 56.855357 
L 378.591817 57.294177 
L 378.683186 56.855357 
L 378.774554 57.732997 
L 378.797396 57.294177 
L 378.957291 57.294177 
L 379.048659 57.732997 
L 379.185711 56.855357 
L 379.231396 56.855357 
L 379.322764 57.294177 
L 379.414132 56.855357 
L 379.528343 57.294177 
L 380.145079 57.294177 
L 380.259289 57.732997 
L 380.327816 57.732997 
L 380.442026 57.294177 
L 380.510552 57.294177 
L 380.601921 57.732997 
L 380.716131 56.855357 
L 380.784657 56.855357 
L 380.898868 57.294177 
L 381.332867 57.294177 
L 381.46992 58.171816 
L 381.515604 58.171816 
L 381.629814 57.294177 
L 381.698341 57.294177 
L 381.789709 57.732997 
L 381.903919 57.294177 
L 382.063814 57.294177 
L 382.155182 56.855357 
L 382.269393 57.294177 
L 382.429287 57.294177 
L 382.543498 56.855357 
L 382.612024 56.855357 
L 382.703392 57.732997 
L 382.726234 57.294177 
L 382.886129 57.294177 
L 382.977497 56.855357 
L 383.091708 57.294177 
L 383.251602 57.294177 
L 383.342971 56.855357 
L 383.434339 57.294177 
L 383.54855 56.855357 
L 383.617076 56.855357 
L 383.708444 57.294177 
L 383.799812 56.855357 
L 383.891181 57.294177 
L 384.028233 56.416538 
L 384.073917 56.416538 
L 384.165286 57.294177 
L 384.256654 56.416538 
L 384.279496 56.855357 
L 384.348022 56.855357 
L 384.439391 56.416538 
L 384.530759 57.294177 
L 384.64497 56.416538 
L 384.804864 56.416538 
L 384.896233 55.977718 
L 384.987601 56.855357 
L 385.010443 56.416538 
L 385.078969 56.416538 
L 385.19318 56.855357 
L 385.444443 56.855357 
L 385.535811 55.977718 
L 385.627179 56.855357 
L 385.650021 56.416538 
L 385.718548 56.416538 
L 385.809916 56.855357 
L 385.924126 56.416538 
L 386.266758 56.416538 
L 386.380968 55.977718 
L 386.997704 55.977718 
L 387.089073 56.416538 
L 387.226125 55.758308 
L 387.363178 55.758308 
L 387.454546 55.977718 
L 387.545914 55.758308 
L 387.660125 55.977718 
L 387.728651 55.977718 
L 387.820019 56.416538 
L 387.93423 55.758308 
L 388.002756 55.758308 
L 388.116966 55.977718 
L 388.185493 55.977718 
L 388.368229 55.100079 
L 388.48244 55.758308 
L 388.550966 55.758308 
L 388.665176 55.100079 
L 389.007808 55.100079 
L 389.099176 55.758308 
L 389.213386 55.100079 
L 389.373281 55.100079 
L 389.464649 55.758308 
L 389.556018 54.661259 
L 389.57886 55.100079 
L 389.738754 55.100079 
L 389.852965 54.661259 
L 389.921491 54.661259 
L 390.035702 55.100079 
L 390.104228 55.100079 
L 390.218438 54.661259 
L 390.652438 54.661259 
L 390.743806 54.222439 
L 390.835174 54.661259 
L 390.926543 54.222439 
L 391.040753 54.661259 
L 391.200648 54.661259 
L 391.314858 54.222439 
L 391.383384 54.222439 
L 391.497595 54.661259 
L 391.566121 54.661259 
L 391.680332 54.222439 
L 391.748858 54.222439 
L 391.840226 53.78362 
L 391.954437 54.222439 
L 392.388436 54.222439 
L 392.479805 54.661259 
L 392.594015 54.222439 
L 392.662541 54.222439 
L 392.75391 54.661259 
L 392.86812 54.222439 
L 392.936646 54.222439 
L 393.050857 54.661259 
L 393.119383 54.661259 
L 393.279277 53.3448 
L 393.30212 53.3448 
L 393.439172 54.222439 
L 393.484856 54.222439 
L 393.576225 53.3448 
L 393.690435 54.222439 
L 393.85033 54.222439 
L 393.941698 53.78362 
L 394.055908 54.222439 
L 394.215803 54.222439 
L 394.307171 54.661259 
L 394.39854 53.78362 
L 394.421382 54.222439 
L 394.672645 54.222439 
L 394.764013 53.78362 
L 394.855381 54.222439 
L 394.94675 53.78362 
L 395.06096 54.222439 
L 395.312223 54.222439 
L 395.426433 53.3448 
L 395.49496 53.3448 
L 395.632012 54.222439 
L 395.860433 54.222439 
L 395.951801 53.3448 
L 395.974643 53.78362 
L 396.134538 53.78362 
L 396.248748 54.222439 
L 396.317275 54.222439 
L 396.454327 53.3448 
L 396.500011 53.3448 
L 396.59138 53.78362 
L 396.682748 53.3448 
L 396.796958 53.78362 
L 396.956853 53.78362 
L 397.048221 53.3448 
L 397.162432 53.78362 
L 397.230958 53.78362 
L 397.322326 53.3448 
L 397.436537 53.78362 
L 397.870536 53.78362 
L 397.961905 53.3448 
L 398.098957 54.222439 
L 398.144641 54.222439 
L 398.258852 53.78362 
L 398.418746 53.78362 
L 398.487273 53.3448 
L 398.487273 53.3448 
" style="fill:none;stroke:#1f77b4;stroke-linecap:square;stroke-width:1.5;"/>
   </g>
   <g id="patch_3">
    <path d="M 57.6 306.3024 
L 57.6 41.2992 
" style="fill:none;stroke:#000000;stroke-linecap:square;stroke-linejoin:miter;stroke-width:0.8;"/>
   </g>
   <g id="patch_4">
    <path d="M 414.72 306.3024 
L 414.72 41.2992 
" style="fill:none;stroke:#000000;stroke-linecap:square;stroke-linejoin:miter;stroke-width:0.8;"/>
   </g>
   <g id="patch_5">
    <path d="M 57.6 306.3024 
L 414.72 306.3024 
" style="fill:none;stroke:#000000;stroke-linecap:square;stroke-linejoin:miter;stroke-width:0.8;"/>
   </g>
   <g id="patch_6">
    <path d="M 57.6 41.2992 
L 414.72 41.2992 
" style="fill:none;stroke:#000000;stroke-linecap:square;stroke-linejoin:miter;stroke-width:0.8;"/>
   </g>
   <g id="text_17">
    <!-- Tempertura -->
    <g transform="translate(200.709375 35.2992)scale(0.12 -0.12)">
     <use xlink:href="#DejaVuSans-84"/>
     <use x="60.818359" xlink:href="#DejaVuSans-101"/>
     <use x="122.341797" xlink:href="#DejaVuSans-109"/>
     <use x="219.753906" xlink:href="#DejaVuSans-112"/>
     <use x="283.230469" xlink:href="#DejaVuSans-101"/>
     <use x="344.753906" xlink:href="#DejaVuSans-114"/>
     <use x="385.867188" xlink:href="#DejaVuSans-116"/>
     <use x="425.076172" xlink:href="#DejaVuSans-117"/>
     <use x="488.455078" xlink:href="#DejaVuSans-114"/>
     <use x="529.568359" xlink:href="#DejaVuSans-97"/>
    </g>
   </g>
  </g>
 </g>
 <defs>
  <clipPath id="pab39e8aa86">
   <rect height="265.0032" width="357.12" x="57.6" y="41.2992"/>
  </clipPath>
 </defs>
</svg>
