<?xml version="1.0" encoding="utf-8" standalone="no"?>
<!DOCTYPE svg PUBLIC "-//W3C//DTD SVG 1.1//EN"
  "http://www.w3.org/Graphics/SVG/1.1/DTD/svg11.dtd">
<!-- Created with matplotlib (https://matplotlib.org/) -->
<svg height="344.16pt" version="1.1" viewBox="0 0 460.8 344.16" width="460.8pt" xmlns="http://www.w3.org/2000/svg" xmlns:xlink="http://www.w3.org/1999/xlink">
 <defs>
  <style type="text/css">
*{stroke-linecap:butt;stroke-linejoin:round;}
  </style>
 </defs>
 <g id="figure_1">
  <g id="patch_1">
   <path d="M 0 344.16 
L 460.8 344.16 
L 460.8 0 
L 0 0 
z
" style="fill:#ffffff;"/>
  </g>
  <g id="axes_1">
   <g id="patch_2">
    <path d="M 57.6 306.3024 
L 414.72 306.3024 
L 414.72 41.2992 
L 57.6 41.2992 
z
" style="fill:#ffffff;"/>
   </g>
   <g id="matplotlib.axis_1">
    <g id="xtick_1">
     <g id="line2d_1">
      <defs>
       <path d="M 0 0 
L 0 3.5 
" id="m4b2fb18dba" style="stroke:#000000;stroke-width:0.8;"/>
      </defs>
      <g>
       <use style="stroke:#000000;stroke-width:0.8;" x="73.832727" xlink:href="#m4b2fb18dba" y="306.3024"/>
      </g>
     </g>
     <g id="text_1">
      <!-- 0 -->
      <defs>
       <path d="M 31.78125 66.40625 
Q 24.171875 66.40625 20.328125 58.90625 
Q 16.5 51.421875 16.5 36.375 
Q 16.5 21.390625 20.328125 13.890625 
Q 24.171875 6.390625 31.78125 6.390625 
Q 39.453125 6.390625 43.28125 13.890625 
Q 47.125 21.390625 47.125 36.375 
Q 47.125 51.421875 43.28125 58.90625 
Q 39.453125 66.40625 31.78125 66.40625 
z
M 31.78125 74.21875 
Q 44.046875 74.21875 50.515625 64.515625 
Q 56.984375 54.828125 56.984375 36.375 
Q 56.984375 17.96875 50.515625 8.265625 
Q 44.046875 -1.421875 31.78125 -1.421875 
Q 19.53125 -1.421875 13.0625 8.265625 
Q 6.59375 17.96875 6.59375 36.375 
Q 6.59375 54.828125 13.0625 64.515625 
Q 19.53125 74.21875 31.78125 74.21875 
z
" id="DejaVuSans-48"/>
      </defs>
      <g transform="translate(70.651477 320.900838)scale(0.1 -0.1)">
       <use xlink:href="#DejaVuSans-48"/>
      </g>
     </g>
    </g>
    <g id="xtick_2">
     <g id="line2d_2">
      <g>
       <use style="stroke:#000000;stroke-width:0.8;" x="130.779674" xlink:href="#m4b2fb18dba" y="306.3024"/>
      </g>
     </g>
     <g id="text_2">
      <!-- 1000 -->
      <defs>
       <path d="M 12.40625 8.296875 
L 28.515625 8.296875 
L 28.515625 63.921875 
L 10.984375 60.40625 
L 10.984375 69.390625 
L 28.421875 72.90625 
L 38.28125 72.90625 
L 38.28125 8.296875 
L 54.390625 8.296875 
L 54.390625 0 
L 12.40625 0 
z
" id="DejaVuSans-49"/>
      </defs>
      <g transform="translate(118.054674 320.900838)scale(0.1 -0.1)">
       <use xlink:href="#DejaVuSans-49"/>
       <use x="63.623047" xlink:href="#DejaVuSans-48"/>
       <use x="127.246094" xlink:href="#DejaVuSans-48"/>
       <use x="190.869141" xlink:href="#DejaVuSans-48"/>
      </g>
     </g>
    </g>
    <g id="xtick_3">
     <g id="line2d_3">
      <g>
       <use style="stroke:#000000;stroke-width:0.8;" x="187.726621" xlink:href="#m4b2fb18dba" y="306.3024"/>
      </g>
     </g>
     <g id="text_3">
      <!-- 2000 -->
      <defs>
       <path d="M 19.1875 8.296875 
L 53.609375 8.296875 
L 53.609375 0 
L 7.328125 0 
L 7.328125 8.296875 
Q 12.9375 14.109375 22.625 23.890625 
Q 32.328125 33.6875 34.8125 36.53125 
Q 39.546875 41.84375 41.421875 45.53125 
Q 43.3125 49.21875 43.3125 52.78125 
Q 43.3125 58.59375 39.234375 62.25 
Q 35.15625 65.921875 28.609375 65.921875 
Q 23.96875 65.921875 18.8125 64.3125 
Q 13.671875 62.703125 7.8125 59.421875 
L 7.8125 69.390625 
Q 13.765625 71.78125 18.9375 73 
Q 24.125 74.21875 28.421875 74.21875 
Q 39.75 74.21875 46.484375 68.546875 
Q 53.21875 62.890625 53.21875 53.421875 
Q 53.21875 48.921875 51.53125 44.890625 
Q 49.859375 40.875 45.40625 35.40625 
Q 44.1875 33.984375 37.640625 27.21875 
Q 31.109375 20.453125 19.1875 8.296875 
z
" id="DejaVuSans-50"/>
      </defs>
      <g transform="translate(175.001621 320.900838)scale(0.1 -0.1)">
       <use xlink:href="#DejaVuSans-50"/>
       <use x="63.623047" xlink:href="#DejaVuSans-48"/>
       <use x="127.246094" xlink:href="#DejaVuSans-48"/>
       <use x="190.869141" xlink:href="#DejaVuSans-48"/>
      </g>
     </g>
    </g>
    <g id="xtick_4">
     <g id="line2d_4">
      <g>
       <use style="stroke:#000000;stroke-width:0.8;" x="244.673569" xlink:href="#m4b2fb18dba" y="306.3024"/>
      </g>
     </g>
     <g id="text_4">
      <!-- 3000 -->
      <defs>
       <path d="M 40.578125 39.3125 
Q 47.65625 37.796875 51.625 33 
Q 55.609375 28.21875 55.609375 21.1875 
Q 55.609375 10.40625 48.1875 4.484375 
Q 40.765625 -1.421875 27.09375 -1.421875 
Q 22.515625 -1.421875 17.65625 -0.515625 
Q 12.796875 0.390625 7.625 2.203125 
L 7.625 11.71875 
Q 11.71875 9.328125 16.59375 8.109375 
Q 21.484375 6.890625 26.8125 6.890625 
Q 36.078125 6.890625 40.9375 10.546875 
Q 45.796875 14.203125 45.796875 21.1875 
Q 45.796875 27.640625 41.28125 31.265625 
Q 36.765625 34.90625 28.71875 34.90625 
L 20.21875 34.90625 
L 20.21875 43.015625 
L 29.109375 43.015625 
Q 36.375 43.015625 40.234375 45.921875 
Q 44.09375 48.828125 44.09375 54.296875 
Q 44.09375 59.90625 40.109375 62.90625 
Q 36.140625 65.921875 28.71875 65.921875 
Q 24.65625 65.921875 20.015625 65.03125 
Q 15.375 64.15625 9.8125 62.3125 
L 9.8125 71.09375 
Q 15.4375 72.65625 20.34375 73.4375 
Q 25.25 74.21875 29.59375 74.21875 
Q 40.828125 74.21875 47.359375 69.109375 
Q 53.90625 64.015625 53.90625 55.328125 
Q 53.90625 49.265625 50.4375 45.09375 
Q 46.96875 40.921875 40.578125 39.3125 
z
" id="DejaVuSans-51"/>
      </defs>
      <g transform="translate(231.948569 320.900838)scale(0.1 -0.1)">
       <use xlink:href="#DejaVuSans-51"/>
       <use x="63.623047" xlink:href="#DejaVuSans-48"/>
       <use x="127.246094" xlink:href="#DejaVuSans-48"/>
       <use x="190.869141" xlink:href="#DejaVuSans-48"/>
      </g>
     </g>
    </g>
    <g id="xtick_5">
     <g id="line2d_5">
      <g>
       <use style="stroke:#000000;stroke-width:0.8;" x="301.620516" xlink:href="#m4b2fb18dba" y="306.3024"/>
      </g>
     </g>
     <g id="text_5">
      <!-- 4000 -->
      <defs>
       <path d="M 37.796875 64.3125 
L 12.890625 25.390625 
L 37.796875 25.390625 
z
M 35.203125 72.90625 
L 47.609375 72.90625 
L 47.609375 25.390625 
L 58.015625 25.390625 
L 58.015625 17.1875 
L 47.609375 17.1875 
L 47.609375 0 
L 37.796875 0 
L 37.796875 17.1875 
L 4.890625 17.1875 
L 4.890625 26.703125 
z
" id="DejaVuSans-52"/>
      </defs>
      <g transform="translate(288.895516 320.900838)scale(0.1 -0.1)">
       <use xlink:href="#DejaVuSans-52"/>
       <use x="63.623047" xlink:href="#DejaVuSans-48"/>
       <use x="127.246094" xlink:href="#DejaVuSans-48"/>
       <use x="190.869141" xlink:href="#DejaVuSans-48"/>
      </g>
     </g>
    </g>
    <g id="xtick_6">
     <g id="line2d_6">
      <g>
       <use style="stroke:#000000;stroke-width:0.8;" x="358.567463" xlink:href="#m4b2fb18dba" y="306.3024"/>
      </g>
     </g>
     <g id="text_6">
      <!-- 5000 -->
      <defs>
       <path d="M 10.796875 72.90625 
L 49.515625 72.90625 
L 49.515625 64.59375 
L 19.828125 64.59375 
L 19.828125 46.734375 
Q 21.96875 47.46875 24.109375 47.828125 
Q 26.265625 48.1875 28.421875 48.1875 
Q 40.625 48.1875 47.75 41.5 
Q 54.890625 34.8125 54.890625 23.390625 
Q 54.890625 11.625 47.5625 5.09375 
Q 40.234375 -1.421875 26.90625 -1.421875 
Q 22.3125 -1.421875 17.546875 -0.640625 
Q 12.796875 0.140625 7.71875 1.703125 
L 7.71875 11.625 
Q 12.109375 9.234375 16.796875 8.0625 
Q 21.484375 6.890625 26.703125 6.890625 
Q 35.15625 6.890625 40.078125 11.328125 
Q 45.015625 15.765625 45.015625 23.390625 
Q 45.015625 31 40.078125 35.4375 
Q 35.15625 39.890625 26.703125 39.890625 
Q 22.75 39.890625 18.8125 39.015625 
Q 14.890625 38.140625 10.796875 36.28125 
z
" id="DejaVuSans-53"/>
      </defs>
      <g transform="translate(345.842463 320.900838)scale(0.1 -0.1)">
       <use xlink:href="#DejaVuSans-53"/>
       <use x="63.623047" xlink:href="#DejaVuSans-48"/>
       <use x="127.246094" xlink:href="#DejaVuSans-48"/>
       <use x="190.869141" xlink:href="#DejaVuSans-48"/>
      </g>
     </g>
    </g>
    <g id="text_7">
     <!-- Muestras -->
     <defs>
      <path d="M 9.8125 72.90625 
L 24.515625 72.90625 
L 43.109375 23.296875 
L 61.8125 72.90625 
L 76.515625 72.90625 
L 76.515625 0 
L 66.890625 0 
L 66.890625 64.015625 
L 48.09375 14.015625 
L 38.1875 14.015625 
L 19.390625 64.015625 
L 19.390625 0 
L 9.8125 0 
z
" id="DejaVuSans-77"/>
      <path d="M 8.5 21.578125 
L 8.5 54.6875 
L 17.484375 54.6875 
L 17.484375 21.921875 
Q 17.484375 14.15625 20.5 10.265625 
Q 23.53125 6.390625 29.59375 6.390625 
Q 36.859375 6.390625 41.078125 11.03125 
Q 45.3125 15.671875 45.3125 23.6875 
L 45.3125 54.6875 
L 54.296875 54.6875 
L 54.296875 0 
L 45.3125 0 
L 45.3125 8.40625 
Q 42.046875 3.421875 37.71875 1 
Q 33.40625 -1.421875 27.6875 -1.421875 
Q 18.265625 -1.421875 13.375 4.4375 
Q 8.5 10.296875 8.5 21.578125 
z
M 31.109375 56 
z
" id="DejaVuSans-117"/>
      <path d="M 56.203125 29.59375 
L 56.203125 25.203125 
L 14.890625 25.203125 
Q 15.484375 15.921875 20.484375 11.0625 
Q 25.484375 6.203125 34.421875 6.203125 
Q 39.59375 6.203125 44.453125 7.46875 
Q 49.3125 8.734375 54.109375 11.28125 
L 54.109375 2.78125 
Q 49.265625 0.734375 44.1875 -0.34375 
Q 39.109375 -1.421875 33.890625 -1.421875 
Q 20.796875 -1.421875 13.15625 6.1875 
Q 5.515625 13.8125 5.515625 26.8125 
Q 5.515625 40.234375 12.765625 48.109375 
Q 20.015625 56 32.328125 56 
Q 43.359375 56 49.78125 48.890625 
Q 56.203125 41.796875 56.203125 29.59375 
z
M 47.21875 32.234375 
Q 47.125 39.59375 43.09375 43.984375 
Q 39.0625 48.390625 32.421875 48.390625 
Q 24.90625 48.390625 20.390625 44.140625 
Q 15.875 39.890625 15.1875 32.171875 
z
" id="DejaVuSans-101"/>
      <path d="M 44.28125 53.078125 
L 44.28125 44.578125 
Q 40.484375 46.53125 36.375 47.5 
Q 32.28125 48.484375 27.875 48.484375 
Q 21.1875 48.484375 17.84375 46.4375 
Q 14.5 44.390625 14.5 40.28125 
Q 14.5 37.15625 16.890625 35.375 
Q 19.28125 33.59375 26.515625 31.984375 
L 29.59375 31.296875 
Q 39.15625 29.25 43.1875 25.515625 
Q 47.21875 21.78125 47.21875 15.09375 
Q 47.21875 7.46875 41.1875 3.015625 
Q 35.15625 -1.421875 24.609375 -1.421875 
Q 20.21875 -1.421875 15.453125 -0.5625 
Q 10.6875 0.296875 5.421875 2 
L 5.421875 11.28125 
Q 10.40625 8.6875 15.234375 7.390625 
Q 20.0625 6.109375 24.8125 6.109375 
Q 31.15625 6.109375 34.5625 8.28125 
Q 37.984375 10.453125 37.984375 14.40625 
Q 37.984375 18.0625 35.515625 20.015625 
Q 33.0625 21.96875 24.703125 23.78125 
L 21.578125 24.515625 
Q 13.234375 26.265625 9.515625 29.90625 
Q 5.8125 33.546875 5.8125 39.890625 
Q 5.8125 47.609375 11.28125 51.796875 
Q 16.75 56 26.8125 56 
Q 31.78125 56 36.171875 55.265625 
Q 40.578125 54.546875 44.28125 53.078125 
z
" id="DejaVuSans-115"/>
      <path d="M 18.3125 70.21875 
L 18.3125 54.6875 
L 36.8125 54.6875 
L 36.8125 47.703125 
L 18.3125 47.703125 
L 18.3125 18.015625 
Q 18.3125 11.328125 20.140625 9.421875 
Q 21.96875 7.515625 27.59375 7.515625 
L 36.8125 7.515625 
L 36.8125 0 
L 27.59375 0 
Q 17.1875 0 13.234375 3.875 
Q 9.28125 7.765625 9.28125 18.015625 
L 9.28125 47.703125 
L 2.6875 47.703125 
L 2.6875 54.6875 
L 9.28125 54.6875 
L 9.28125 70.21875 
z
" id="DejaVuSans-116"/>
      <path d="M 41.109375 46.296875 
Q 39.59375 47.171875 37.8125 47.578125 
Q 36.03125 48 33.890625 48 
Q 26.265625 48 22.1875 43.046875 
Q 18.109375 38.09375 18.109375 28.8125 
L 18.109375 0 
L 9.078125 0 
L 9.078125 54.6875 
L 18.109375 54.6875 
L 18.109375 46.1875 
Q 20.953125 51.171875 25.484375 53.578125 
Q 30.03125 56 36.53125 56 
Q 37.453125 56 38.578125 55.875 
Q 39.703125 55.765625 41.0625 55.515625 
z
" id="DejaVuSans-114"/>
      <path d="M 34.28125 27.484375 
Q 23.390625 27.484375 19.1875 25 
Q 14.984375 22.515625 14.984375 16.5 
Q 14.984375 11.71875 18.140625 8.90625 
Q 21.296875 6.109375 26.703125 6.109375 
Q 34.1875 6.109375 38.703125 11.40625 
Q 43.21875 16.703125 43.21875 25.484375 
L 43.21875 27.484375 
z
M 52.203125 31.203125 
L 52.203125 0 
L 43.21875 0 
L 43.21875 8.296875 
Q 40.140625 3.328125 35.546875 0.953125 
Q 30.953125 -1.421875 24.3125 -1.421875 
Q 15.921875 -1.421875 10.953125 3.296875 
Q 6 8.015625 6 15.921875 
Q 6 25.140625 12.171875 29.828125 
Q 18.359375 34.515625 30.609375 34.515625 
L 43.21875 34.515625 
L 43.21875 35.40625 
Q 43.21875 41.609375 39.140625 45 
Q 35.0625 48.390625 27.6875 48.390625 
Q 23 48.390625 18.546875 47.265625 
Q 14.109375 46.140625 10.015625 43.890625 
L 10.015625 52.203125 
Q 14.9375 54.109375 19.578125 55.046875 
Q 24.21875 56 28.609375 56 
Q 40.484375 56 46.34375 49.84375 
Q 52.203125 43.703125 52.203125 31.203125 
z
" id="DejaVuSans-97"/>
     </defs>
     <g transform="translate(213.311562 334.578963)scale(0.1 -0.1)">
      <use xlink:href="#DejaVuSans-77"/>
      <use x="86.279297" xlink:href="#DejaVuSans-117"/>
      <use x="149.658203" xlink:href="#DejaVuSans-101"/>
      <use x="211.181641" xlink:href="#DejaVuSans-115"/>
      <use x="263.28125" xlink:href="#DejaVuSans-116"/>
      <use x="302.490234" xlink:href="#DejaVuSans-114"/>
      <use x="343.603516" xlink:href="#DejaVuSans-97"/>
      <use x="404.882812" xlink:href="#DejaVuSans-115"/>
     </g>
    </g>
   </g>
   <g id="matplotlib.axis_2">
    <g id="ytick_1">
     <g id="line2d_7">
      <defs>
       <path d="M 0 0 
L -3.5 0 
" id="m7104fda726" style="stroke:#000000;stroke-width:0.8;"/>
      </defs>
      <g>
       <use style="stroke:#000000;stroke-width:0.8;" x="57.6" xlink:href="#m7104fda726" y="292.64063"/>
      </g>
     </g>
     <g id="text_8">
      <!-- 100 -->
      <g transform="translate(31.5125 296.439848)scale(0.1 -0.1)">
       <use xlink:href="#DejaVuSans-49"/>
       <use x="63.623047" xlink:href="#DejaVuSans-48"/>
       <use x="127.246094" xlink:href="#DejaVuSans-48"/>
      </g>
     </g>
    </g>
    <g id="ytick_2">
     <g id="line2d_8">
      <g>
       <use style="stroke:#000000;stroke-width:0.8;" x="57.6" xlink:href="#m7104fda726" y="241.333634"/>
      </g>
     </g>
     <g id="text_9">
      <!-- 120 -->
      <g transform="translate(31.5125 245.132852)scale(0.1 -0.1)">
       <use xlink:href="#DejaVuSans-49"/>
       <use x="63.623047" xlink:href="#DejaVuSans-50"/>
       <use x="127.246094" xlink:href="#DejaVuSans-48"/>
      </g>
     </g>
    </g>
    <g id="ytick_3">
     <g id="line2d_9">
      <g>
       <use style="stroke:#000000;stroke-width:0.8;" x="57.6" xlink:href="#m7104fda726" y="190.026638"/>
      </g>
     </g>
     <g id="text_10">
      <!-- 140 -->
      <g transform="translate(31.5125 193.825856)scale(0.1 -0.1)">
       <use xlink:href="#DejaVuSans-49"/>
       <use x="63.623047" xlink:href="#DejaVuSans-52"/>
       <use x="127.246094" xlink:href="#DejaVuSans-48"/>
      </g>
     </g>
    </g>
    <g id="ytick_4">
     <g id="line2d_10">
      <g>
       <use style="stroke:#000000;stroke-width:0.8;" x="57.6" xlink:href="#m7104fda726" y="138.719641"/>
      </g>
     </g>
     <g id="text_11">
      <!-- 160 -->
      <defs>
       <path d="M 33.015625 40.375 
Q 26.375 40.375 22.484375 35.828125 
Q 18.609375 31.296875 18.609375 23.390625 
Q 18.609375 15.53125 22.484375 10.953125 
Q 26.375 6.390625 33.015625 6.390625 
Q 39.65625 6.390625 43.53125 10.953125 
Q 47.40625 15.53125 47.40625 23.390625 
Q 47.40625 31.296875 43.53125 35.828125 
Q 39.65625 40.375 33.015625 40.375 
z
M 52.59375 71.296875 
L 52.59375 62.3125 
Q 48.875 64.0625 45.09375 64.984375 
Q 41.3125 65.921875 37.59375 65.921875 
Q 27.828125 65.921875 22.671875 59.328125 
Q 17.53125 52.734375 16.796875 39.40625 
Q 19.671875 43.65625 24.015625 45.921875 
Q 28.375 48.1875 33.59375 48.1875 
Q 44.578125 48.1875 50.953125 41.515625 
Q 57.328125 34.859375 57.328125 23.390625 
Q 57.328125 12.15625 50.6875 5.359375 
Q 44.046875 -1.421875 33.015625 -1.421875 
Q 20.359375 -1.421875 13.671875 8.265625 
Q 6.984375 17.96875 6.984375 36.375 
Q 6.984375 53.65625 15.1875 63.9375 
Q 23.390625 74.21875 37.203125 74.21875 
Q 40.921875 74.21875 44.703125 73.484375 
Q 48.484375 72.75 52.59375 71.296875 
z
" id="DejaVuSans-54"/>
      </defs>
      <g transform="translate(31.5125 142.51886)scale(0.1 -0.1)">
       <use xlink:href="#DejaVuSans-49"/>
       <use x="63.623047" xlink:href="#DejaVuSans-54"/>
       <use x="127.246094" xlink:href="#DejaVuSans-48"/>
      </g>
     </g>
    </g>
    <g id="ytick_5">
     <g id="line2d_11">
      <g>
       <use style="stroke:#000000;stroke-width:0.8;" x="57.6" xlink:href="#m7104fda726" y="87.412645"/>
      </g>
     </g>
     <g id="text_12">
      <!-- 180 -->
      <defs>
       <path d="M 31.78125 34.625 
Q 24.75 34.625 20.71875 30.859375 
Q 16.703125 27.09375 16.703125 20.515625 
Q 16.703125 13.921875 20.71875 10.15625 
Q 24.75 6.390625 31.78125 6.390625 
Q 38.8125 6.390625 42.859375 10.171875 
Q 46.921875 13.96875 46.921875 20.515625 
Q 46.921875 27.09375 42.890625 30.859375 
Q 38.875 34.625 31.78125 34.625 
z
M 21.921875 38.8125 
Q 15.578125 40.375 12.03125 44.71875 
Q 8.5 49.078125 8.5 55.328125 
Q 8.5 64.0625 14.71875 69.140625 
Q 20.953125 74.21875 31.78125 74.21875 
Q 42.671875 74.21875 48.875 69.140625 
Q 55.078125 64.0625 55.078125 55.328125 
Q 55.078125 49.078125 51.53125 44.71875 
Q 48 40.375 41.703125 38.8125 
Q 48.828125 37.15625 52.796875 32.3125 
Q 56.78125 27.484375 56.78125 20.515625 
Q 56.78125 9.90625 50.3125 4.234375 
Q 43.84375 -1.421875 31.78125 -1.421875 
Q 19.734375 -1.421875 13.25 4.234375 
Q 6.78125 9.90625 6.78125 20.515625 
Q 6.78125 27.484375 10.78125 32.3125 
Q 14.796875 37.15625 21.921875 38.8125 
z
M 18.3125 54.390625 
Q 18.3125 48.734375 21.84375 45.5625 
Q 25.390625 42.390625 31.78125 42.390625 
Q 38.140625 42.390625 41.71875 45.5625 
Q 45.3125 48.734375 45.3125 54.390625 
Q 45.3125 60.0625 41.71875 63.234375 
Q 38.140625 66.40625 31.78125 66.40625 
Q 25.390625 66.40625 21.84375 63.234375 
Q 18.3125 60.0625 18.3125 54.390625 
z
" id="DejaVuSans-56"/>
      </defs>
      <g transform="translate(31.5125 91.211864)scale(0.1 -0.1)">
       <use xlink:href="#DejaVuSans-49"/>
       <use x="63.623047" xlink:href="#DejaVuSans-56"/>
       <use x="127.246094" xlink:href="#DejaVuSans-48"/>
      </g>
     </g>
    </g>
    <g id="text_13">
     <!-- Valor de Ritmo Cardíaco -->
     <defs>
      <path d="M 28.609375 0 
L 0.78125 72.90625 
L 11.078125 72.90625 
L 34.1875 11.53125 
L 57.328125 72.90625 
L 67.578125 72.90625 
L 39.796875 0 
z
" id="DejaVuSans-86"/>
      <path d="M 9.421875 75.984375 
L 18.40625 75.984375 
L 18.40625 0 
L 9.421875 0 
z
" id="DejaVuSans-108"/>
      <path d="M 30.609375 48.390625 
Q 23.390625 48.390625 19.1875 42.75 
Q 14.984375 37.109375 14.984375 27.296875 
Q 14.984375 17.484375 19.15625 11.84375 
Q 23.34375 6.203125 30.609375 6.203125 
Q 37.796875 6.203125 41.984375 11.859375 
Q 46.1875 17.53125 46.1875 27.296875 
Q 46.1875 37.015625 41.984375 42.703125 
Q 37.796875 48.390625 30.609375 48.390625 
z
M 30.609375 56 
Q 42.328125 56 49.015625 48.375 
Q 55.71875 40.765625 55.71875 27.296875 
Q 55.71875 13.875 49.015625 6.21875 
Q 42.328125 -1.421875 30.609375 -1.421875 
Q 18.84375 -1.421875 12.171875 6.21875 
Q 5.515625 13.875 5.515625 27.296875 
Q 5.515625 40.765625 12.171875 48.375 
Q 18.84375 56 30.609375 56 
z
" id="DejaVuSans-111"/>
      <path id="DejaVuSans-32"/>
      <path d="M 45.40625 46.390625 
L 45.40625 75.984375 
L 54.390625 75.984375 
L 54.390625 0 
L 45.40625 0 
L 45.40625 8.203125 
Q 42.578125 3.328125 38.25 0.953125 
Q 33.9375 -1.421875 27.875 -1.421875 
Q 17.96875 -1.421875 11.734375 6.484375 
Q 5.515625 14.40625 5.515625 27.296875 
Q 5.515625 40.1875 11.734375 48.09375 
Q 17.96875 56 27.875 56 
Q 33.9375 56 38.25 53.625 
Q 42.578125 51.265625 45.40625 46.390625 
z
M 14.796875 27.296875 
Q 14.796875 17.390625 18.875 11.75 
Q 22.953125 6.109375 30.078125 6.109375 
Q 37.203125 6.109375 41.296875 11.75 
Q 45.40625 17.390625 45.40625 27.296875 
Q 45.40625 37.203125 41.296875 42.84375 
Q 37.203125 48.484375 30.078125 48.484375 
Q 22.953125 48.484375 18.875 42.84375 
Q 14.796875 37.203125 14.796875 27.296875 
z
" id="DejaVuSans-100"/>
      <path d="M 44.390625 34.1875 
Q 47.5625 33.109375 50.5625 29.59375 
Q 53.5625 26.078125 56.59375 19.921875 
L 66.609375 0 
L 56 0 
L 46.6875 18.703125 
Q 43.0625 26.03125 39.671875 28.421875 
Q 36.28125 30.8125 30.421875 30.8125 
L 19.671875 30.8125 
L 19.671875 0 
L 9.8125 0 
L 9.8125 72.90625 
L 32.078125 72.90625 
Q 44.578125 72.90625 50.734375 67.671875 
Q 56.890625 62.453125 56.890625 51.90625 
Q 56.890625 45.015625 53.6875 40.46875 
Q 50.484375 35.9375 44.390625 34.1875 
z
M 19.671875 64.796875 
L 19.671875 38.921875 
L 32.078125 38.921875 
Q 39.203125 38.921875 42.84375 42.21875 
Q 46.484375 45.515625 46.484375 51.90625 
Q 46.484375 58.296875 42.84375 61.546875 
Q 39.203125 64.796875 32.078125 64.796875 
z
" id="DejaVuSans-82"/>
      <path d="M 9.421875 54.6875 
L 18.40625 54.6875 
L 18.40625 0 
L 9.421875 0 
z
M 9.421875 75.984375 
L 18.40625 75.984375 
L 18.40625 64.59375 
L 9.421875 64.59375 
z
" id="DejaVuSans-105"/>
      <path d="M 52 44.1875 
Q 55.375 50.25 60.0625 53.125 
Q 64.75 56 71.09375 56 
Q 79.640625 56 84.28125 50.015625 
Q 88.921875 44.046875 88.921875 33.015625 
L 88.921875 0 
L 79.890625 0 
L 79.890625 32.71875 
Q 79.890625 40.578125 77.09375 44.375 
Q 74.3125 48.1875 68.609375 48.1875 
Q 61.625 48.1875 57.5625 43.546875 
Q 53.515625 38.921875 53.515625 30.90625 
L 53.515625 0 
L 44.484375 0 
L 44.484375 32.71875 
Q 44.484375 40.625 41.703125 44.40625 
Q 38.921875 48.1875 33.109375 48.1875 
Q 26.21875 48.1875 22.15625 43.53125 
Q 18.109375 38.875 18.109375 30.90625 
L 18.109375 0 
L 9.078125 0 
L 9.078125 54.6875 
L 18.109375 54.6875 
L 18.109375 46.1875 
Q 21.1875 51.21875 25.484375 53.609375 
Q 29.78125 56 35.6875 56 
Q 41.65625 56 45.828125 52.96875 
Q 50 49.953125 52 44.1875 
z
" id="DejaVuSans-109"/>
      <path d="M 64.40625 67.28125 
L 64.40625 56.890625 
Q 59.421875 61.53125 53.78125 63.8125 
Q 48.140625 66.109375 41.796875 66.109375 
Q 29.296875 66.109375 22.65625 58.46875 
Q 16.015625 50.828125 16.015625 36.375 
Q 16.015625 21.96875 22.65625 14.328125 
Q 29.296875 6.6875 41.796875 6.6875 
Q 48.140625 6.6875 53.78125 8.984375 
Q 59.421875 11.28125 64.40625 15.921875 
L 64.40625 5.609375 
Q 59.234375 2.09375 53.4375 0.328125 
Q 47.65625 -1.421875 41.21875 -1.421875 
Q 24.65625 -1.421875 15.125 8.703125 
Q 5.609375 18.84375 5.609375 36.375 
Q 5.609375 53.953125 15.125 64.078125 
Q 24.65625 74.21875 41.21875 74.21875 
Q 47.75 74.21875 53.53125 72.484375 
Q 59.328125 70.75 64.40625 67.28125 
z
" id="DejaVuSans-67"/>
      <path d="M 20.703125 79.984375 
L 30.421875 79.984375 
L 14.5 61.625 
L 7.03125 61.625 
z
M 9.421875 54.6875 
L 18.40625 54.6875 
L 18.40625 0 
L 9.421875 0 
z
M 13.921875 56 
z
" id="DejaVuSans-237"/>
      <path d="M 48.78125 52.59375 
L 48.78125 44.1875 
Q 44.96875 46.296875 41.140625 47.34375 
Q 37.3125 48.390625 33.40625 48.390625 
Q 24.65625 48.390625 19.8125 42.84375 
Q 14.984375 37.3125 14.984375 27.296875 
Q 14.984375 17.28125 19.8125 11.734375 
Q 24.65625 6.203125 33.40625 6.203125 
Q 37.3125 6.203125 41.140625 7.25 
Q 44.96875 8.296875 48.78125 10.40625 
L 48.78125 2.09375 
Q 45.015625 0.34375 40.984375 -0.53125 
Q 36.96875 -1.421875 32.421875 -1.421875 
Q 20.0625 -1.421875 12.78125 6.34375 
Q 5.515625 14.109375 5.515625 27.296875 
Q 5.515625 40.671875 12.859375 48.328125 
Q 20.21875 56 33.015625 56 
Q 37.15625 56 41.109375 55.140625 
Q 45.0625 54.296875 48.78125 52.59375 
z
" id="DejaVuSans-99"/>
     </defs>
     <g transform="translate(25.432812 234.6008)rotate(-90)scale(0.1 -0.1)">
      <use xlink:href="#DejaVuSans-86"/>
      <use x="68.298828" xlink:href="#DejaVuSans-97"/>
      <use x="129.578125" xlink:href="#DejaVuSans-108"/>
      <use x="157.361328" xlink:href="#DejaVuSans-111"/>
      <use x="218.542969" xlink:href="#DejaVuSans-114"/>
      <use x="259.65625" xlink:href="#DejaVuSans-32"/>
      <use x="291.443359" xlink:href="#DejaVuSans-100"/>
      <use x="354.919922" xlink:href="#DejaVuSans-101"/>
      <use x="416.443359" xlink:href="#DejaVuSans-32"/>
      <use x="448.230469" xlink:href="#DejaVuSans-82"/>
      <use x="517.712891" xlink:href="#DejaVuSans-105"/>
      <use x="545.496094" xlink:href="#DejaVuSans-116"/>
      <use x="584.705078" xlink:href="#DejaVuSans-109"/>
      <use x="682.117188" xlink:href="#DejaVuSans-111"/>
      <use x="743.298828" xlink:href="#DejaVuSans-32"/>
      <use x="775.085938" xlink:href="#DejaVuSans-67"/>
      <use x="844.910156" xlink:href="#DejaVuSans-97"/>
      <use x="906.189453" xlink:href="#DejaVuSans-114"/>
      <use x="947.287109" xlink:href="#DejaVuSans-100"/>
      <use x="1010.763672" xlink:href="#DejaVuSans-237"/>
      <use x="1038.546875" xlink:href="#DejaVuSans-97"/>
      <use x="1099.826172" xlink:href="#DejaVuSans-99"/>
      <use x="1154.806641" xlink:href="#DejaVuSans-111"/>
     </g>
    </g>
   </g>
   <g id="line2d_12">
    <path clip-path="url(#padd7cf028f)" d="M 73.832727 84.642068 
L 74.857772 125.50809 
L 75.65503 155.445722 
L 76.39534 166.733261 
L 76.680075 174.685846 
L 77.078703 187.127792 
L 77.70512 208.676731 
L 79.75521 246.669561 
L 79.926051 247.695701 
L 79.982998 247.490473 
L 80.267732 245.617768 
L 81.121937 232.149681 
L 81.349724 229.994787 
L 81.520565 229.840866 
L 81.748353 229.969134 
L 81.919194 229.789559 
L 82.203928 230.174362 
L 82.317822 230.687432 
L 82.887292 234.355882 
L 83.058133 235.176794 
L 83.228974 234.663724 
L 83.28592 234.791992 
L 83.456761 235.176794 
L 83.513708 235.048527 
L 83.741496 236.408162 
L 84.481806 242.744576 
L 84.823488 246.156491 
L 85.222117 245.951263 
L 85.791586 244.412053 
L 85.962427 242.872843 
L 86.247162 237.229074 
L 86.588843 232.43187 
L 86.702737 231.790532 
L 87.158313 228.32731 
L 87.329154 227.147249 
L 87.556942 225.890228 
L 87.727782 224.838434 
L 88.354199 218.963783 
L 88.411146 218.886823 
L 88.468093 218.93813 
L 88.69588 218.963783 
L 88.923668 219.220318 
L 89.094509 219.066397 
L 89.208403 219.476853 
L 89.379244 220.99041 
L 89.663979 227.095942 
L 90.57513 246.259105 
L 91.486281 258.213635 
L 91.600175 258.598438 
L 91.657122 258.444517 
L 91.714069 258.598438 
L 92.397432 254.160383 
L 92.796061 248.952722 
L 93.308583 236.510776 
L 93.878053 220.246458 
L 94.789204 192.46372 
L 96.611506 156.240981 
L 98.319915 114.348818 
L 98.661596 111.783469 
L 98.832437 111.347359 
L 98.889384 111.270399 
L 99.003278 111.578241 
L 99.060225 111.526934 
L 99.117172 111.578241 
L 99.34496 111.270399 
L 99.686641 111.783469 
L 99.857482 111.398666 
L 100.08527 111.655201 
L 100.199164 112.630034 
L 100.768633 122.121828 
L 101.224209 134.486814 
L 101.622837 143.722074 
L 102.647883 160.012045 
L 104.982707 205.803539 
L 105.723018 223.581413 
L 106.406381 234.535457 
L 106.861957 242.488041 
L 107.260585 250.004516 
L 107.54532 250.876735 
L 107.830055 250.902388 
L 107.887002 250.825428 
L 108.171736 249.286218 
L 108.342577 248.260078 
L 109.082888 243.257646 
L 109.139834 243.334606 
L 109.196781 243.206339 
L 109.253728 243.308953 
L 109.481516 243.591141 
L 109.880145 245.746035 
L 109.937092 245.822996 
L 109.994039 245.746035 
L 110.221826 244.335093 
L 110.677402 241.128406 
L 110.848243 241.384941 
L 110.90519 241.256673 
L 111.019084 241.410594 
L 111.303818 241.795397 
L 111.417712 242.154546 
L 111.474659 242.103239 
L 111.816341 240.179226 
L 112.670545 232.43187 
L 113.069174 227.865547 
L 113.353909 226.069802 
L 113.467802 225.813267 
L 113.752537 227.018982 
L 114.094219 229.840866 
L 114.834529 239.871384 
L 115.460946 247.156978 
L 115.916521 256.289623 
L 116.542938 266.910171 
L 117.226301 275.914549 
L 117.511036 279.634306 
L 117.567983 279.608653 
L 117.738823 280.198683 
L 117.852717 281.7892 
L 117.909664 281.224823 
L 118.251346 279.249504 
L 118.36524 279.249504 
L 118.479134 279.300811 
L 118.706922 279.685613 
L 118.763869 279.608653 
L 118.877762 279.300811 
L 118.991656 278.351631 
L 119.845861 265.755764 
L 120.757012 247.952236 
L 121.497322 240.512722 
L 121.72511 237.152113 
L 122.750155 222.555273 
L 123.20573 217.91199 
L 123.376571 218.450713 
L 123.433518 218.373753 
L 123.547412 218.168525 
L 123.718253 217.270652 
L 124.002988 214.192233 
L 124.230775 209.395029 
L 124.857192 195.413872 
L 124.914139 194.849495 
L 124.971086 195.285605 
L 125.141927 196.106517 
L 125.483608 194.849495 
L 125.996131 193.925969 
L 126.053078 193.925969 
L 126.337813 194.823842 
L 126.679494 196.363052 
L 126.850335 196.440012 
L 126.964229 196.773507 
L 127.192017 197.722687 
L 127.362858 199.903234 
L 128.103168 215.090105 
L 128.672637 226.505912 
L 129.92547 250.363665 
L 131.804719 278.274671 
L 132.032507 278.736434 
L 132.431136 279.249504 
L 132.658924 278.531206 
L 132.943658 277.838561 
L 133.057552 277.710294 
L 133.228393 277.812908 
L 133.342287 277.582026 
L 133.456181 277.043303 
L 133.740916 274.888409 
L 134.652067 269.860323 
L 135.9049 252.108103 
L 136.588263 247.695701 
L 136.702157 247.105671 
L 136.872998 245.951263 
L 136.929945 246.028224 
L 137.043839 245.899956 
L 137.157732 245.617768 
L 137.499414 244.232479 
L 137.556361 243.898983 
L 138.524459 253.467738 
L 138.866141 259.239775 
L 138.923088 258.701052 
L 139.207823 252.441598 
L 140.062027 219.861656 
L 140.460655 209.010226 
L 140.916231 202.212049 
L 141.030125 199.851927 
L 141.713488 183.561956 
L 142.226011 175.147609 
L 142.339905 176.096788 
L 144.162207 211.575576 
L 144.503889 212.524755 
L 144.84557 213.884391 
L 144.959464 214.063965 
L 145.41504 212.139953 
L 145.471987 212.216913 
L 145.756721 213.037825 
L 145.927562 214.782263 
L 146.89566 226.531565 
L 146.952607 226.505912 
L 147.009554 226.377644 
L 147.066501 226.403298 
L 147.351236 227.30117 
L 148.091546 232.175335 
L 148.77491 235.818131 
L 148.831857 235.689864 
L 149.230485 234.150654 
L 149.458273 234.073694 
L 149.743008 233.765852 
L 150.027743 233.073207 
L 150.198583 233.329742 
L 150.426371 234.355882 
L 150.654159 235.305062 
L 150.768053 235.484636 
L 150.825 235.356369 
L 150.881947 235.305062 
L 151.052788 235.869438 
L 152.020886 241.667129 
L 152.13478 241.795397 
L 153.273718 252.826401 
L 153.843188 259.214122 
L 154.298764 262.369502 
L 154.35571 262.420809 
L 154.526551 262.036006 
L 156.178013 247.952236 
L 156.576641 245.951263 
L 156.633588 246.079531 
L 157.146111 247.362206 
L 158.000315 259.034547 
L 158.911466 276.863728 
L 159.139254 278.608166 
L 159.310095 278.916008 
L 159.537883 278.454245 
L 159.651777 278.531206 
L 159.76567 278.71078 
L 159.822617 278.659473 
L 160.050405 277.505066 
L 160.392087 275.401479 
L 160.619875 273.451813 
L 160.961556 269.424214 
L 161.07545 269.167679 
L 161.815761 266.525369 
L 162.442177 263.010839 
L 162.499124 263.139107 
L 162.613018 263.729137 
L 163.410275 269.732056 
L 163.751957 268.962451 
L 164.093638 266.16622 
L 164.264479 263.139107 
L 166.200675 198.954055 
L 167.738243 155.57399 
L 168.022978 154.03478 
L 168.5355 158.036725 
L 168.592447 157.959765 
L 168.706341 157.908458 
L 169.161917 158.421528 
L 169.275811 158.72937 
L 169.674439 160.961224 
L 170.016121 162.91089 
L 170.528643 165.399279 
L 170.699484 166.810222 
L 170.984219 171.248277 
L 171.838423 185.614236 
L 171.952317 186.563415 
L 172.863468 195.721714 
L 173.034309 196.13217 
L 173.148203 196.05521 
L 173.432938 196.440012 
L 173.546832 196.619586 
L 173.94546 196.003903 
L 174.230195 197.260924 
L 174.287142 197.543112 
L 174.344089 197.517459 
L 174.457983 197.517459 
L 174.628824 197.030042 
L 174.856611 195.02907 
L 175.369134 187.897397 
L 176.223338 182.12536 
L 177.077542 184.2546 
L 177.419224 186.255573 
L 177.647012 187.33302 
L 177.931747 189.000498 
L 178.216481 191.642808 
L 178.558163 197.132656 
L 179.184579 209.70287 
L 181.291616 254.750413 
L 181.804139 259.291082 
L 182.202768 260.907253 
L 182.544449 262.241234 
L 182.601396 262.164274 
L 182.772237 261.676858 
L 183.4556 256.392237 
L 183.740335 249.850595 
L 184.138964 241.923664 
L 184.480646 239.999652 
L 184.879274 237.434302 
L 185.050115 237.152113 
L 185.107062 237.229074 
L 185.164009 237.177767 
L 185.505691 235.51029 
L 185.733478 236.382508 
L 185.847372 236.587736 
L 185.904319 236.459469 
L 185.961266 236.510776 
L 186.07516 236.459469 
L 186.587683 234.073694 
L 186.701576 233.894119 
L 186.872417 234.355882 
L 187.043258 235.946399 
L 187.612728 243.206339 
L 187.726621 243.43722 
L 187.840515 243.822023 
L 188.409985 247.02871 
L 188.466932 246.772175 
L 188.69472 245.899956 
L 188.922507 244.796856 
L 189.378083 239.614849 
L 189.491977 239.204393 
L 190.403128 245.515154 
L 190.517022 244.97643 
L 190.915651 242.744576 
L 191.143438 241.974971 
L 191.257332 241.513208 
L 191.826802 244.206825 
L 193.136581 264.806584 
L 193.193528 264.806584 
L 193.364369 263.985672 
L 193.53521 262.549076 
L 193.762998 260.702025 
L 193.876892 260.778985 
L 194.503308 262.57473 
L 194.674149 262.189927 
L 195.414459 254.493878 
L 196.32561 238.845244 
L 196.610345 237.357341 
L 196.724239 237.306034 
L 196.838133 237.613876 
L 197.407602 242.180199 
L 197.692337 245.361233 
L 197.806231 245.002084 
L 197.920125 244.719895 
L 197.977072 244.873816 
L 198.034019 244.719895 
L 198.090966 244.668588 
L 198.489594 241.333634 
L 198.831276 238.460442 
L 199.742427 231.662265 
L 200.027162 228.76342 
L 200.368844 226.839407 
L 201.109154 221.272598 
L 201.166101 221.452173 
L 201.336942 221.246945 
L 201.507783 222.221778 
L 202.191146 229.35345 
L 203.04535 242.539348 
L 203.443979 246.926096 
L 203.61482 247.156978 
L 203.785661 246.900443 
L 203.956501 245.951263 
L 204.525971 241.025792 
L 204.639865 241.000138 
L 204.753759 241.256673 
L 204.810706 241.154059 
L 204.9246 241.205366 
L 205.494069 237.742144 
L 206.120485 228.301657 
L 206.348273 224.838434 
L 207.430265 185.28074 
L 209.252567 98.777145 
L 209.878984 78.356961 
L 210.391506 73.688024 
L 210.733188 72.148814 
L 210.790135 72.584924 
L 211.07487 74.791124 
L 211.131817 74.765471 
L 211.245711 74.662857 
L 211.416551 75.688997 
L 211.473498 76.125106 
L 211.701286 73.636717 
L 211.872127 72.48231 
L 211.929074 72.354042 
L 212.156862 74.149787 
L 212.726331 80.563161 
L 212.840225 80.794043 
L 213.12496 82.025411 
L 213.466642 83.436353 
L 214.093058 88.310518 
L 214.548634 93.364257 
L 215.061156 100.034166 
L 215.288944 101.983832 
L 215.345891 101.983832 
L 215.516732 99.803285 
L 216.143148 87.617873 
L 216.370936 85.309059 
L 216.769565 80.280973 
L 217.452928 66.505044 
L 217.908503 57.577627 
L 218.307132 55.47404 
L 218.53492 53.3448 
L 218.933549 67.325956 
L 220.243328 137.642195 
L 221.040586 188.35916 
L 221.837843 234.868952 
L 222.065631 243.206339 
L 222.236471 245.822996 
L 222.350365 245.874303 
L 222.464259 245.771689 
L 222.6351 246.259105 
L 223.147623 249.286218 
L 223.489304 250.902388 
L 223.603198 250.876735 
L 223.774039 250.132783 
L 224.001827 247.310899 
L 224.742137 237.280381 
L 224.856031 237.152113 
L 224.912978 237.280381 
L 225.311607 242.539348 
L 225.824129 251.030656 
L 226.165811 254.468225 
L 226.73528 256.93096 
L 226.906121 257.187495 
L 227.133909 258.598438 
L 227.703378 263.344335 
L 227.931166 264.242207 
L 227.988113 264.216554 
L 228.329795 262.549076 
L 228.78537 256.392237 
L 229.867362 238.768284 
L 230.09515 236.202934 
L 230.493779 232.098374 
L 230.778513 230.995274 
L 230.892407 230.559164 
L 231.063248 229.404757 
L 231.518824 224.864088 
L 232.031346 217.604148 
L 232.373028 214.012658 
L 232.657763 213.063479 
L 232.771657 213.191746 
L 232.885551 213.371321 
L 233.398073 210.882931 
L 233.739755 212.011685 
L 233.796702 211.960378 
L 233.910596 211.703843 
L 234.252277 209.856791 
L 234.366171 209.728524 
L 234.423118 209.856791 
L 234.650906 210.241594 
L 234.821747 210.600743 
L 234.878694 210.549436 
L 235.049535 209.908098 
L 235.106481 209.985059 
L 235.163428 209.985059 
L 236.017633 213.80743 
L 236.131527 214.448768 
L 236.188473 214.397461 
L 236.928784 211.319041 
L 237.384359 208.497156 
L 237.612147 209.266761 
L 237.782988 209.523296 
L 238.352457 207.342749 
L 238.466351 207.342749 
L 238.637192 206.701411 
L 239.092768 203.879526 
L 240.744229 185.075512 
L 240.858123 184.126333 
L 240.972017 182.12536 
L 241.427593 173.736666 
L 241.940115 167.374599 
L 242.509585 160.089005 
L 242.566532 159.83247 
L 242.623478 159.883777 
L 242.737372 159.806817 
L 243.079054 159.062865 
L 243.306842 158.088032 
L 243.591577 158.421528 
L 243.648524 158.29326 
L 244.559675 151.674658 
L 244.673569 151.623351 
L 244.958303 150.315023 
L 245.129144 149.827606 
L 245.186091 149.878913 
L 245.356932 150.084141 
L 245.470826 150.058488 
L 245.641667 150.648518 
L 245.926401 147.647059 
L 246.495871 140.438426 
L 246.666712 138.463106 
L 247.179234 131.844504 
L 247.407022 129.792224 
L 248.147332 118.632952 
L 249.229324 96.46833 
L 249.514059 92.928147 
L 249.798794 85.796475 
L 250.254369 74.021519 
L 250.311316 73.611063 
L 250.368263 73.636717 
L 250.482157 73.893252 
L 251.051627 81.255806 
L 251.393308 88.002676 
L 252.133619 111.475627 
L 252.646141 126.149427 
L 253.101717 138.257878 
L 253.728133 157.754537 
L 254.582337 150.44329 
L 255.892117 133.075872 
L 256.233799 129.740917 
L 256.689374 124.353683 
L 256.917162 123.507117 
L 257.088003 124.40499 
L 257.201897 126.09812 
L 257.600526 133.152832 
L 258.397783 145.82566 
L 258.739465 148.339703 
L 258.853358 148.416664 
L 259.138093 150.905053 
L 259.707563 161.37168 
L 260.049244 166.245845 
L 260.789555 170.324751 
L 261.24513 171.479158 
L 261.643759 173.916241 
L 262.042387 178.687791 
L 262.384069 181.689251 
L 262.441016 181.894479 
L 262.497963 181.868825 
L 262.668804 179.842199 
L 263.124379 176.096788 
L 263.29522 174.839767 
L 263.693849 169.247304 
L 264.320265 158.011072 
L 264.718894 149.186269 
L 265.743939 136.410827 
L 265.91478 135.128152 
L 266.142568 136.35952 
L 266.768984 141.926329 
L 267.680135 151.854232 
L 268.762127 166.604994 
L 269.046862 167.759401 
L 269.217703 167.631134 
L 269.445491 167.964629 
L 269.616331 168.349432 
L 270.185801 169.426879 
L 270.299695 169.5808 
L 270.413589 170.068216 
L 270.869164 173.095329 
L 271.096952 173.557092 
L 271.495581 174.506271 
L 271.780315 174.044508 
L 272.178944 171.735693 
L 272.349785 172.967061 
L 272.577573 175.994174 
L 273.033148 182.894965 
L 273.488724 189.590528 
L 274.172087 207.394056 
L 275.652708 255.90482 
L 276.336071 264.755277 
L 276.7347 266.987132 
L 277.304169 272.194792 
L 277.418063 272.194792 
L 277.531957 272.040871 
L 278.04448 267.679776 
L 278.443108 263.318681 
L 278.78479 260.368529 
L 279.126472 260.317222 
L 279.183419 260.496797 
L 279.240365 260.368529 
L 279.582047 258.47017 
L 279.695941 258.854973 
L 279.923729 260.317222 
L 280.09457 261.676858 
L 280.265411 261.599897 
L 280.607092 259.624578 
L 281.176562 257.290109 
L 281.518243 255.879167 
L 281.802978 254.493878 
L 282.201607 255.366097 
L 282.258554 255.109562 
L 282.657182 259.368043 
L 283.283599 262.933879 
L 283.340546 262.933879 
L 283.45444 262.702997 
L 283.682227 263.703484 
L 284.593379 273.092664 
L 284.878113 276.607193 
L 285.333689 284.35455 
L 285.50453 285.072848 
L 285.618424 285.021541 
L 285.675371 285.38069 
L 286.130946 280.24999 
L 286.529575 277.043303 
L 287.212938 268.346767 
L 287.383779 265.396615 
L 287.440726 265.447922 
L 287.497673 265.396615 
L 287.725461 263.318681 
L 288.29493 255.956127 
L 289.03524 243.847676 
L 290.003338 231.636611 
L 290.458914 226.916368 
L 291.711747 213.29436 
L 291.882588 212.858251 
L 292.281216 214.474421 
L 292.679845 218.681595 
L 293.477102 222.298738 
L 293.534049 222.144817 
L 293.761837 222.042203 
L 294.103519 221.452173 
L 295.242458 217.014117 
L 296.836972 206.521837 
L 297.178654 202.545545 
L 297.406442 200.031502 
L 297.463389 200.211076 
L 297.577282 200.416304 
L 298.032858 203.417763 
L 298.716221 210.21594 
L 298.944009 211.113813 
L 299.000956 211.062506 
L 299.513479 210.72901 
L 299.798213 210.882931 
L 299.912107 211.370348 
L 300.367683 218.194178 
L 300.937152 229.661292 
L 301.335781 233.637584 
L 301.563569 233.945426 
L 301.90525 233.381049 
L 302.189985 233.381049 
L 302.987242 230.764392 
L 303.101136 230.687432 
L 303.328924 230.430897 
L 303.727553 228.455578 
L 303.955341 227.81424 
L 304.183128 228.942994 
L 304.240075 229.071262 
L 304.923439 239.460928 
L 304.980386 240.897524 
L 305.037333 240.487068 
L 305.26512 237.613876 
L 306.005431 224.351018 
L 307.713839 179.457396 
L 308.397202 155.189187 
L 308.454149 155.343108 
L 308.62499 156.112713 
L 308.966672 159.165479 
L 309.479194 164.4501 
L 309.877823 172.402684 
L 310.618133 189.436607 
L 310.959815 194.182504 
L 311.586231 198.877094 
L 311.757072 197.979222 
L 312.098754 200.493265 
L 312.55433 207.265788 
L 312.839064 213.191746 
L 313.579375 227.22421 
L 314.889154 244.46336 
L 315.173889 248.593574 
L 315.230836 248.337039 
L 315.686412 245.822996 
L 316.141987 240.358801 
L 317.793449 213.448281 
L 318.7046 198.543599 
L 318.989335 196.363052 
L 319.615751 189.847063 
L 319.843539 189.077458 
L 320.640796 185.845117 
L 320.982478 183.100193 
L 321.381106 178.662138 
L 321.665841 175.660679 
L 322.121417 168.734234 
L 322.520045 162.782623 
L 322.975621 160.012045 
L 323.260356 157.138853 
L 323.488143 156.369248 
L 323.715931 156.625783 
L 323.943719 158.036725 
L 325.082658 174.711499 
L 325.822968 187.281713 
L 326.221597 190.591014 
L 326.677172 195.670407 
L 326.791066 195.798675 
L 326.848013 195.721714 
L 326.961907 195.336912 
L 327.189695 193.182018 
L 327.531377 189.462261 
L 327.588324 189.513568 
L 327.873058 189.077458 
L 327.986952 189.051805 
L 328.21474 189.89837 
L 328.727263 197.466152 
L 329.068944 205.623964 
L 329.695361 221.016063 
L 331.403769 256.520504 
L 331.859345 260.52245 
L 331.973239 260.881599 
L 333.055231 252.056796 
L 333.681647 248.850108 
L 333.738594 248.978376 
L 333.852488 249.337525 
L 334.308063 251.13327 
L 334.36501 251.081963 
L 334.820586 252.364638 
L 335.105321 253.724273 
L 335.560896 255.879167 
L 335.731737 255.956127 
L 336.756782 242.308466 
L 337.72488 226.018495 
L 337.952668 225.094969 
L 338.123509 224.351018 
L 338.351297 221.965243 
L 339.091607 215.474908 
L 339.148554 215.295333 
L 339.604129 218.809862 
L 339.718023 219.52816 
L 340.230546 228.686459 
L 341.08475 244.360746 
L 341.483379 248.131811 
L 342.109795 257.572298 
L 342.223689 257.751872 
L 342.622318 258.957587 
L 342.736212 258.957587 
L 342.850105 259.111508 
L 342.907052 259.085854 
L 342.963999 258.957587 
L 343.13484 259.49631 
L 343.305681 259.034547 
L 343.590416 259.49631 
L 343.647363 259.41935 
L 343.70431 259.291082 
L 344.216832 253.955155 
L 344.330726 253.442085 
L 344.786302 250.389318 
L 345.18493 242.154546 
L 345.583559 234.868952 
L 346.096081 230.89266 
L 346.323869 230.302629 
L 346.380816 230.37959 
L 346.608604 229.789559 
L 346.722498 229.661292 
L 347.121126 228.199043 
L 347.348914 230.815699 
L 347.633649 234.073694 
L 347.918384 236.023359 
L 348.146171 236.587736 
L 348.487853 241.641476 
L 349.228163 256.802693 
L 350.424049 243.822023 
L 350.708784 241.590169 
L 351.278254 224.73582 
L 352.303299 191.642808 
L 352.64498 181.637944 
L 353.043609 184.818977 
L 353.613078 190.206212 
L 354.068654 195.10603 
L 354.182548 197.517459 
L 354.581177 210.421168 
L 355.093699 232.534484 
L 355.834009 262.318195 
L 356.346532 277.120263 
L 356.859054 289.63917 
L 356.916001 289.1261 
L 357.257683 283.995401 
L 358.396622 257.495337 
L 358.795251 247.567434 
L 359.250826 239.794424 
L 359.421667 236.382508 
L 360.275871 212.088646 
L 360.389765 212.986518 
L 361.243969 222.60658 
L 361.585651 222.914422 
L 361.927333 221.657401 
L 362.15512 216.654968 
L 362.781537 204.726092 
L 362.838484 204.597824 
L 362.895431 204.649131 
L 363.180166 204.777399 
L 363.294059 204.469557 
L 363.4649 203.879526 
L 363.863529 202.212049 
L 364.091317 201.698979 
L 364.831627 196.311745 
L 364.888574 196.311745 
L 365.173309 197.030042 
L 365.34415 197.286577 
L 366.710876 216.526701 
L 367.052558 220.374726 
L 367.109505 220.426033 
L 367.735921 217.219345 
L 368.020656 218.93813 
L 369.330436 231.40573 
L 370.241587 244.155518 
L 370.412428 245.4895 
L 370.640216 249.799288 
L 371.209685 263.472602 
L 371.665261 272.374366 
L 372.177783 281.404397 
L 372.462518 287.048167 
L 372.576412 286.9199 
L 372.861147 284.559778 
L 373.088934 284.559778 
L 373.430616 282.943607 
L 374.626502 294.2568 
L 374.797343 293.66677 
L 375.309865 291.742757 
L 375.765441 286.047681 
L 375.822388 285.021541 
L 375.879335 285.38069 
L 376.164069 286.612058 
L 376.277963 286.868593 
L 376.619645 284.688045 
L 376.790486 284.046708 
L 377.189115 281.404397 
L 377.587743 278.146403 
L 377.758584 277.633333 
L 377.872478 277.325491 
L 378.271107 275.324518 
L 378.555841 275.016676 
L 378.726682 275.504093 
L 379.353098 279.095583 
L 379.580886 279.993455 
L 379.69478 279.993455 
L 379.751727 279.993455 
L 379.922568 279.352118 
L 380.26425 275.965856 
L 380.719825 277.299838 
L 380.776772 277.299838 
L 380.890666 276.863728 
L 381.517082 270.450354 
L 382.485181 264.370475 
L 382.769915 262.549076 
L 382.826862 262.420809 
L 382.883809 263.0878 
L 382.940756 262.549076 
L 383.168544 261.394669 
L 383.225491 261.266402 
L 383.282438 261.343362 
L 383.453279 261.933392 
L 383.510226 262.164274 
L 383.567173 262.06166 
L 384.193589 251.543726 
L 384.421377 250.774121 
L 384.535271 250.568893 
L 384.933899 251.158923 
L 384.990846 251.081963 
L 385.218634 250.645853 
L 385.560316 248.644881 
L 386.642308 227.942508 
L 387.097883 222.221778 
L 387.268724 221.400866 
L 387.7243 217.039771 
L 388.46461 200.801107 
L 389.261867 173.018368 
L 389.603549 168.298125 
L 390.286912 160.653382 
L 390.799435 146.030888 
L 392.393949 97.853619 
L 392.792578 87.233071 
L 393.191207 74.201094 
L 393.589835 66.299817 
L 393.703729 66.32547 
L 393.760676 66.24851 
L 393.87457 64.965835 
L 394.330146 58.885956 
L 394.444039 58.501153 
L 395.469085 63.811427 
L 395.582978 63.041822 
L 395.639925 63.24705 
L 395.696872 63.298357 
L 395.753819 63.17009 
L 395.981607 62.14395 
L 396.095501 61.759147 
L 396.323289 65.555865 
L 396.49413 67.197689 
L 396.66497 67.146382 
L 396.721917 67.069421 
L 396.778864 67.146382 
L 396.835811 67.146382 
L 396.892758 67.274649 
L 396.949705 67.223342 
L 397.177493 66.428084 
L 397.23444 66.582005 
L 397.690015 72.405349 
L 397.917803 75.355501 
L 398.031697 75.150273 
L 398.088644 75.175927 
L 398.259485 75.817264 
L 398.430326 77.022979 
L 398.487273 77.587356 
L 398.487273 77.587356 
" style="fill:none;stroke:#1f77b4;stroke-linecap:square;stroke-width:1.5;"/>
   </g>
   <g id="patch_3">
    <path d="M 57.6 306.3024 
L 57.6 41.2992 
" style="fill:none;stroke:#000000;stroke-linecap:square;stroke-linejoin:miter;stroke-width:0.8;"/>
   </g>
   <g id="patch_4">
    <path d="M 414.72 306.3024 
L 414.72 41.2992 
" style="fill:none;stroke:#000000;stroke-linecap:square;stroke-linejoin:miter;stroke-width:0.8;"/>
   </g>
   <g id="patch_5">
    <path d="M 57.6 306.3024 
L 414.72 306.3024 
" style="fill:none;stroke:#000000;stroke-linecap:square;stroke-linejoin:miter;stroke-width:0.8;"/>
   </g>
   <g id="patch_6">
    <path d="M 57.6 41.2992 
L 414.72 41.2992 
" style="fill:none;stroke:#000000;stroke-linecap:square;stroke-linejoin:miter;stroke-width:0.8;"/>
   </g>
   <g id="text_14">
    <!-- Ritmo Cardíaco -->
    <g transform="translate(190.094063 35.2992)scale(0.12 -0.12)">
     <use xlink:href="#DejaVuSans-82"/>
     <use x="69.482422" xlink:href="#DejaVuSans-105"/>
     <use x="97.265625" xlink:href="#DejaVuSans-116"/>
     <use x="136.474609" xlink:href="#DejaVuSans-109"/>
     <use x="233.886719" xlink:href="#DejaVuSans-111"/>
     <use x="295.068359" xlink:href="#DejaVuSans-32"/>
     <use x="326.855469" xlink:href="#DejaVuSans-67"/>
     <use x="396.679688" xlink:href="#DejaVuSans-97"/>
     <use x="457.958984" xlink:href="#DejaVuSans-114"/>
     <use x="499.056641" xlink:href="#DejaVuSans-100"/>
     <use x="562.533203" xlink:href="#DejaVuSans-237"/>
     <use x="590.316406" xlink:href="#DejaVuSans-97"/>
     <use x="651.595703" xlink:href="#DejaVuSans-99"/>
     <use x="706.576172" xlink:href="#DejaVuSans-111"/>
    </g>
   </g>
  </g>
 </g>
 <defs>
  <clipPath id="padd7cf028f">
   <rect height="265.0032" width="357.12" x="57.6" y="41.2992"/>
  </clipPath>
 </defs>
</svg>
