<?xml version="1.0" encoding="utf-8" standalone="no"?>
<!DOCTYPE svg PUBLIC "-//W3C//DTD SVG 1.1//EN"
  "http://www.w3.org/Graphics/SVG/1.1/DTD/svg11.dtd">
<!-- Created with matplotlib (https://matplotlib.org/) -->
<svg height="344.16pt" version="1.1" viewBox="0 0 460.8 344.16" width="460.8pt" xmlns="http://www.w3.org/2000/svg" xmlns:xlink="http://www.w3.org/1999/xlink">
 <defs>
  <style type="text/css">
*{stroke-linecap:butt;stroke-linejoin:round;}
  </style>
 </defs>
 <g id="figure_1">
  <g id="patch_1">
   <path d="M 0 344.16 
L 460.8 344.16 
L 460.8 0 
L 0 0 
z
" style="fill:#ffffff;"/>
  </g>
  <g id="axes_1">
   <g id="patch_2">
    <path d="M 57.6 306.3024 
L 414.72 306.3024 
L 414.72 41.2992 
L 57.6 41.2992 
z
" style="fill:#ffffff;"/>
   </g>
   <g id="matplotlib.axis_1">
    <g id="xtick_1">
     <g id="line2d_1">
      <defs>
       <path d="M 0 0 
L 0 3.5 
" id="m6e2514f551" style="stroke:#000000;stroke-width:0.8;"/>
      </defs>
      <g>
       <use style="stroke:#000000;stroke-width:0.8;" x="73.832727" xlink:href="#m6e2514f551" y="306.3024"/>
      </g>
     </g>
     <g id="text_1">
      <!-- 0 -->
      <defs>
       <path d="M 31.78125 66.40625 
Q 24.171875 66.40625 20.328125 58.90625 
Q 16.5 51.421875 16.5 36.375 
Q 16.5 21.390625 20.328125 13.890625 
Q 24.171875 6.390625 31.78125 6.390625 
Q 39.453125 6.390625 43.28125 13.890625 
Q 47.125 21.390625 47.125 36.375 
Q 47.125 51.421875 43.28125 58.90625 
Q 39.453125 66.40625 31.78125 66.40625 
z
M 31.78125 74.21875 
Q 44.046875 74.21875 50.515625 64.515625 
Q 56.984375 54.828125 56.984375 36.375 
Q 56.984375 17.96875 50.515625 8.265625 
Q 44.046875 -1.421875 31.78125 -1.421875 
Q 19.53125 -1.421875 13.0625 8.265625 
Q 6.59375 17.96875 6.59375 36.375 
Q 6.59375 54.828125 13.0625 64.515625 
Q 19.53125 74.21875 31.78125 74.21875 
z
" id="DejaVuSans-48"/>
      </defs>
      <g transform="translate(70.651477 320.900838)scale(0.1 -0.1)">
       <use xlink:href="#DejaVuSans-48"/>
      </g>
     </g>
    </g>
    <g id="xtick_2">
     <g id="line2d_2">
      <g>
       <use style="stroke:#000000;stroke-width:0.8;" x="130.779674" xlink:href="#m6e2514f551" y="306.3024"/>
      </g>
     </g>
     <g id="text_2">
      <!-- 1000 -->
      <defs>
       <path d="M 12.40625 8.296875 
L 28.515625 8.296875 
L 28.515625 63.921875 
L 10.984375 60.40625 
L 10.984375 69.390625 
L 28.421875 72.90625 
L 38.28125 72.90625 
L 38.28125 8.296875 
L 54.390625 8.296875 
L 54.390625 0 
L 12.40625 0 
z
" id="DejaVuSans-49"/>
      </defs>
      <g transform="translate(118.054674 320.900838)scale(0.1 -0.1)">
       <use xlink:href="#DejaVuSans-49"/>
       <use x="63.623047" xlink:href="#DejaVuSans-48"/>
       <use x="127.246094" xlink:href="#DejaVuSans-48"/>
       <use x="190.869141" xlink:href="#DejaVuSans-48"/>
      </g>
     </g>
    </g>
    <g id="xtick_3">
     <g id="line2d_3">
      <g>
       <use style="stroke:#000000;stroke-width:0.8;" x="187.726621" xlink:href="#m6e2514f551" y="306.3024"/>
      </g>
     </g>
     <g id="text_3">
      <!-- 2000 -->
      <defs>
       <path d="M 19.1875 8.296875 
L 53.609375 8.296875 
L 53.609375 0 
L 7.328125 0 
L 7.328125 8.296875 
Q 12.9375 14.109375 22.625 23.890625 
Q 32.328125 33.6875 34.8125 36.53125 
Q 39.546875 41.84375 41.421875 45.53125 
Q 43.3125 49.21875 43.3125 52.78125 
Q 43.3125 58.59375 39.234375 62.25 
Q 35.15625 65.921875 28.609375 65.921875 
Q 23.96875 65.921875 18.8125 64.3125 
Q 13.671875 62.703125 7.8125 59.421875 
L 7.8125 69.390625 
Q 13.765625 71.78125 18.9375 73 
Q 24.125 74.21875 28.421875 74.21875 
Q 39.75 74.21875 46.484375 68.546875 
Q 53.21875 62.890625 53.21875 53.421875 
Q 53.21875 48.921875 51.53125 44.890625 
Q 49.859375 40.875 45.40625 35.40625 
Q 44.1875 33.984375 37.640625 27.21875 
Q 31.109375 20.453125 19.1875 8.296875 
z
" id="DejaVuSans-50"/>
      </defs>
      <g transform="translate(175.001621 320.900838)scale(0.1 -0.1)">
       <use xlink:href="#DejaVuSans-50"/>
       <use x="63.623047" xlink:href="#DejaVuSans-48"/>
       <use x="127.246094" xlink:href="#DejaVuSans-48"/>
       <use x="190.869141" xlink:href="#DejaVuSans-48"/>
      </g>
     </g>
    </g>
    <g id="xtick_4">
     <g id="line2d_4">
      <g>
       <use style="stroke:#000000;stroke-width:0.8;" x="244.673569" xlink:href="#m6e2514f551" y="306.3024"/>
      </g>
     </g>
     <g id="text_4">
      <!-- 3000 -->
      <defs>
       <path d="M 40.578125 39.3125 
Q 47.65625 37.796875 51.625 33 
Q 55.609375 28.21875 55.609375 21.1875 
Q 55.609375 10.40625 48.1875 4.484375 
Q 40.765625 -1.421875 27.09375 -1.421875 
Q 22.515625 -1.421875 17.65625 -0.515625 
Q 12.796875 0.390625 7.625 2.203125 
L 7.625 11.71875 
Q 11.71875 9.328125 16.59375 8.109375 
Q 21.484375 6.890625 26.8125 6.890625 
Q 36.078125 6.890625 40.9375 10.546875 
Q 45.796875 14.203125 45.796875 21.1875 
Q 45.796875 27.640625 41.28125 31.265625 
Q 36.765625 34.90625 28.71875 34.90625 
L 20.21875 34.90625 
L 20.21875 43.015625 
L 29.109375 43.015625 
Q 36.375 43.015625 40.234375 45.921875 
Q 44.09375 48.828125 44.09375 54.296875 
Q 44.09375 59.90625 40.109375 62.90625 
Q 36.140625 65.921875 28.71875 65.921875 
Q 24.65625 65.921875 20.015625 65.03125 
Q 15.375 64.15625 9.8125 62.3125 
L 9.8125 71.09375 
Q 15.4375 72.65625 20.34375 73.4375 
Q 25.25 74.21875 29.59375 74.21875 
Q 40.828125 74.21875 47.359375 69.109375 
Q 53.90625 64.015625 53.90625 55.328125 
Q 53.90625 49.265625 50.4375 45.09375 
Q 46.96875 40.921875 40.578125 39.3125 
z
" id="DejaVuSans-51"/>
      </defs>
      <g transform="translate(231.948569 320.900838)scale(0.1 -0.1)">
       <use xlink:href="#DejaVuSans-51"/>
       <use x="63.623047" xlink:href="#DejaVuSans-48"/>
       <use x="127.246094" xlink:href="#DejaVuSans-48"/>
       <use x="190.869141" xlink:href="#DejaVuSans-48"/>
      </g>
     </g>
    </g>
    <g id="xtick_5">
     <g id="line2d_5">
      <g>
       <use style="stroke:#000000;stroke-width:0.8;" x="301.620516" xlink:href="#m6e2514f551" y="306.3024"/>
      </g>
     </g>
     <g id="text_5">
      <!-- 4000 -->
      <defs>
       <path d="M 37.796875 64.3125 
L 12.890625 25.390625 
L 37.796875 25.390625 
z
M 35.203125 72.90625 
L 47.609375 72.90625 
L 47.609375 25.390625 
L 58.015625 25.390625 
L 58.015625 17.1875 
L 47.609375 17.1875 
L 47.609375 0 
L 37.796875 0 
L 37.796875 17.1875 
L 4.890625 17.1875 
L 4.890625 26.703125 
z
" id="DejaVuSans-52"/>
      </defs>
      <g transform="translate(288.895516 320.900838)scale(0.1 -0.1)">
       <use xlink:href="#DejaVuSans-52"/>
       <use x="63.623047" xlink:href="#DejaVuSans-48"/>
       <use x="127.246094" xlink:href="#DejaVuSans-48"/>
       <use x="190.869141" xlink:href="#DejaVuSans-48"/>
      </g>
     </g>
    </g>
    <g id="xtick_6">
     <g id="line2d_6">
      <g>
       <use style="stroke:#000000;stroke-width:0.8;" x="358.567463" xlink:href="#m6e2514f551" y="306.3024"/>
      </g>
     </g>
     <g id="text_6">
      <!-- 5000 -->
      <defs>
       <path d="M 10.796875 72.90625 
L 49.515625 72.90625 
L 49.515625 64.59375 
L 19.828125 64.59375 
L 19.828125 46.734375 
Q 21.96875 47.46875 24.109375 47.828125 
Q 26.265625 48.1875 28.421875 48.1875 
Q 40.625 48.1875 47.75 41.5 
Q 54.890625 34.8125 54.890625 23.390625 
Q 54.890625 11.625 47.5625 5.09375 
Q 40.234375 -1.421875 26.90625 -1.421875 
Q 22.3125 -1.421875 17.546875 -0.640625 
Q 12.796875 0.140625 7.71875 1.703125 
L 7.71875 11.625 
Q 12.109375 9.234375 16.796875 8.0625 
Q 21.484375 6.890625 26.703125 6.890625 
Q 35.15625 6.890625 40.078125 11.328125 
Q 45.015625 15.765625 45.015625 23.390625 
Q 45.015625 31 40.078125 35.4375 
Q 35.15625 39.890625 26.703125 39.890625 
Q 22.75 39.890625 18.8125 39.015625 
Q 14.890625 38.140625 10.796875 36.28125 
z
" id="DejaVuSans-53"/>
      </defs>
      <g transform="translate(345.842463 320.900838)scale(0.1 -0.1)">
       <use xlink:href="#DejaVuSans-53"/>
       <use x="63.623047" xlink:href="#DejaVuSans-48"/>
       <use x="127.246094" xlink:href="#DejaVuSans-48"/>
       <use x="190.869141" xlink:href="#DejaVuSans-48"/>
      </g>
     </g>
    </g>
    <g id="text_7">
     <!-- Muestras -->
     <defs>
      <path d="M 9.8125 72.90625 
L 24.515625 72.90625 
L 43.109375 23.296875 
L 61.8125 72.90625 
L 76.515625 72.90625 
L 76.515625 0 
L 66.890625 0 
L 66.890625 64.015625 
L 48.09375 14.015625 
L 38.1875 14.015625 
L 19.390625 64.015625 
L 19.390625 0 
L 9.8125 0 
z
" id="DejaVuSans-77"/>
      <path d="M 8.5 21.578125 
L 8.5 54.6875 
L 17.484375 54.6875 
L 17.484375 21.921875 
Q 17.484375 14.15625 20.5 10.265625 
Q 23.53125 6.390625 29.59375 6.390625 
Q 36.859375 6.390625 41.078125 11.03125 
Q 45.3125 15.671875 45.3125 23.6875 
L 45.3125 54.6875 
L 54.296875 54.6875 
L 54.296875 0 
L 45.3125 0 
L 45.3125 8.40625 
Q 42.046875 3.421875 37.71875 1 
Q 33.40625 -1.421875 27.6875 -1.421875 
Q 18.265625 -1.421875 13.375 4.4375 
Q 8.5 10.296875 8.5 21.578125 
z
M 31.109375 56 
z
" id="DejaVuSans-117"/>
      <path d="M 56.203125 29.59375 
L 56.203125 25.203125 
L 14.890625 25.203125 
Q 15.484375 15.921875 20.484375 11.0625 
Q 25.484375 6.203125 34.421875 6.203125 
Q 39.59375 6.203125 44.453125 7.46875 
Q 49.3125 8.734375 54.109375 11.28125 
L 54.109375 2.78125 
Q 49.265625 0.734375 44.1875 -0.34375 
Q 39.109375 -1.421875 33.890625 -1.421875 
Q 20.796875 -1.421875 13.15625 6.1875 
Q 5.515625 13.8125 5.515625 26.8125 
Q 5.515625 40.234375 12.765625 48.109375 
Q 20.015625 56 32.328125 56 
Q 43.359375 56 49.78125 48.890625 
Q 56.203125 41.796875 56.203125 29.59375 
z
M 47.21875 32.234375 
Q 47.125 39.59375 43.09375 43.984375 
Q 39.0625 48.390625 32.421875 48.390625 
Q 24.90625 48.390625 20.390625 44.140625 
Q 15.875 39.890625 15.1875 32.171875 
z
" id="DejaVuSans-101"/>
      <path d="M 44.28125 53.078125 
L 44.28125 44.578125 
Q 40.484375 46.53125 36.375 47.5 
Q 32.28125 48.484375 27.875 48.484375 
Q 21.1875 48.484375 17.84375 46.4375 
Q 14.5 44.390625 14.5 40.28125 
Q 14.5 37.15625 16.890625 35.375 
Q 19.28125 33.59375 26.515625 31.984375 
L 29.59375 31.296875 
Q 39.15625 29.25 43.1875 25.515625 
Q 47.21875 21.78125 47.21875 15.09375 
Q 47.21875 7.46875 41.1875 3.015625 
Q 35.15625 -1.421875 24.609375 -1.421875 
Q 20.21875 -1.421875 15.453125 -0.5625 
Q 10.6875 0.296875 5.421875 2 
L 5.421875 11.28125 
Q 10.40625 8.6875 15.234375 7.390625 
Q 20.0625 6.109375 24.8125 6.109375 
Q 31.15625 6.109375 34.5625 8.28125 
Q 37.984375 10.453125 37.984375 14.40625 
Q 37.984375 18.0625 35.515625 20.015625 
Q 33.0625 21.96875 24.703125 23.78125 
L 21.578125 24.515625 
Q 13.234375 26.265625 9.515625 29.90625 
Q 5.8125 33.546875 5.8125 39.890625 
Q 5.8125 47.609375 11.28125 51.796875 
Q 16.75 56 26.8125 56 
Q 31.78125 56 36.171875 55.265625 
Q 40.578125 54.546875 44.28125 53.078125 
z
" id="DejaVuSans-115"/>
      <path d="M 18.3125 70.21875 
L 18.3125 54.6875 
L 36.8125 54.6875 
L 36.8125 47.703125 
L 18.3125 47.703125 
L 18.3125 18.015625 
Q 18.3125 11.328125 20.140625 9.421875 
Q 21.96875 7.515625 27.59375 7.515625 
L 36.8125 7.515625 
L 36.8125 0 
L 27.59375 0 
Q 17.1875 0 13.234375 3.875 
Q 9.28125 7.765625 9.28125 18.015625 
L 9.28125 47.703125 
L 2.6875 47.703125 
L 2.6875 54.6875 
L 9.28125 54.6875 
L 9.28125 70.21875 
z
" id="DejaVuSans-116"/>
      <path d="M 41.109375 46.296875 
Q 39.59375 47.171875 37.8125 47.578125 
Q 36.03125 48 33.890625 48 
Q 26.265625 48 22.1875 43.046875 
Q 18.109375 38.09375 18.109375 28.8125 
L 18.109375 0 
L 9.078125 0 
L 9.078125 54.6875 
L 18.109375 54.6875 
L 18.109375 46.1875 
Q 20.953125 51.171875 25.484375 53.578125 
Q 30.03125 56 36.53125 56 
Q 37.453125 56 38.578125 55.875 
Q 39.703125 55.765625 41.0625 55.515625 
z
" id="DejaVuSans-114"/>
      <path d="M 34.28125 27.484375 
Q 23.390625 27.484375 19.1875 25 
Q 14.984375 22.515625 14.984375 16.5 
Q 14.984375 11.71875 18.140625 8.90625 
Q 21.296875 6.109375 26.703125 6.109375 
Q 34.1875 6.109375 38.703125 11.40625 
Q 43.21875 16.703125 43.21875 25.484375 
L 43.21875 27.484375 
z
M 52.203125 31.203125 
L 52.203125 0 
L 43.21875 0 
L 43.21875 8.296875 
Q 40.140625 3.328125 35.546875 0.953125 
Q 30.953125 -1.421875 24.3125 -1.421875 
Q 15.921875 -1.421875 10.953125 3.296875 
Q 6 8.015625 6 15.921875 
Q 6 25.140625 12.171875 29.828125 
Q 18.359375 34.515625 30.609375 34.515625 
L 43.21875 34.515625 
L 43.21875 35.40625 
Q 43.21875 41.609375 39.140625 45 
Q 35.0625 48.390625 27.6875 48.390625 
Q 23 48.390625 18.546875 47.265625 
Q 14.109375 46.140625 10.015625 43.890625 
L 10.015625 52.203125 
Q 14.9375 54.109375 19.578125 55.046875 
Q 24.21875 56 28.609375 56 
Q 40.484375 56 46.34375 49.84375 
Q 52.203125 43.703125 52.203125 31.203125 
z
" id="DejaVuSans-97"/>
     </defs>
     <g transform="translate(213.311562 334.578963)scale(0.1 -0.1)">
      <use xlink:href="#DejaVuSans-77"/>
      <use x="86.279297" xlink:href="#DejaVuSans-117"/>
      <use x="149.658203" xlink:href="#DejaVuSans-101"/>
      <use x="211.181641" xlink:href="#DejaVuSans-115"/>
      <use x="263.28125" xlink:href="#DejaVuSans-116"/>
      <use x="302.490234" xlink:href="#DejaVuSans-114"/>
      <use x="343.603516" xlink:href="#DejaVuSans-97"/>
      <use x="404.882812" xlink:href="#DejaVuSans-115"/>
     </g>
    </g>
   </g>
   <g id="matplotlib.axis_2">
    <g id="ytick_1">
     <g id="line2d_7">
      <defs>
       <path d="M 0 0 
L -3.5 0 
" id="m3ab15091f0" style="stroke:#000000;stroke-width:0.8;"/>
      </defs>
      <g>
       <use style="stroke:#000000;stroke-width:0.8;" x="57.6" xlink:href="#m3ab15091f0" y="294.2568"/>
      </g>
     </g>
     <g id="text_8">
      <!-- 18.41 -->
      <defs>
       <path d="M 31.78125 34.625 
Q 24.75 34.625 20.71875 30.859375 
Q 16.703125 27.09375 16.703125 20.515625 
Q 16.703125 13.921875 20.71875 10.15625 
Q 24.75 6.390625 31.78125 6.390625 
Q 38.8125 6.390625 42.859375 10.171875 
Q 46.921875 13.96875 46.921875 20.515625 
Q 46.921875 27.09375 42.890625 30.859375 
Q 38.875 34.625 31.78125 34.625 
z
M 21.921875 38.8125 
Q 15.578125 40.375 12.03125 44.71875 
Q 8.5 49.078125 8.5 55.328125 
Q 8.5 64.0625 14.71875 69.140625 
Q 20.953125 74.21875 31.78125 74.21875 
Q 42.671875 74.21875 48.875 69.140625 
Q 55.078125 64.0625 55.078125 55.328125 
Q 55.078125 49.078125 51.53125 44.71875 
Q 48 40.375 41.703125 38.8125 
Q 48.828125 37.15625 52.796875 32.3125 
Q 56.78125 27.484375 56.78125 20.515625 
Q 56.78125 9.90625 50.3125 4.234375 
Q 43.84375 -1.421875 31.78125 -1.421875 
Q 19.734375 -1.421875 13.25 4.234375 
Q 6.78125 9.90625 6.78125 20.515625 
Q 6.78125 27.484375 10.78125 32.3125 
Q 14.796875 37.15625 21.921875 38.8125 
z
M 18.3125 54.390625 
Q 18.3125 48.734375 21.84375 45.5625 
Q 25.390625 42.390625 31.78125 42.390625 
Q 38.140625 42.390625 41.71875 45.5625 
Q 45.3125 48.734375 45.3125 54.390625 
Q 45.3125 60.0625 41.71875 63.234375 
Q 38.140625 66.40625 31.78125 66.40625 
Q 25.390625 66.40625 21.84375 63.234375 
Q 18.3125 60.0625 18.3125 54.390625 
z
" id="DejaVuSans-56"/>
       <path d="M 10.6875 12.40625 
L 21 12.40625 
L 21 0 
L 10.6875 0 
z
" id="DejaVuSans-46"/>
      </defs>
      <g transform="translate(21.971875 298.056019)scale(0.1 -0.1)">
       <use xlink:href="#DejaVuSans-49"/>
       <use x="63.623047" xlink:href="#DejaVuSans-56"/>
       <use x="127.246094" xlink:href="#DejaVuSans-46"/>
       <use x="159.033203" xlink:href="#DejaVuSans-52"/>
       <use x="222.65625" xlink:href="#DejaVuSans-49"/>
      </g>
     </g>
    </g>
    <g id="ytick_2">
     <g id="line2d_8">
      <g>
       <use style="stroke:#000000;stroke-width:0.8;" x="57.6" xlink:href="#m3ab15091f0" y="264.1428"/>
      </g>
     </g>
     <g id="text_9">
      <!-- 18.42 -->
      <g transform="translate(21.971875 267.942019)scale(0.1 -0.1)">
       <use xlink:href="#DejaVuSans-49"/>
       <use x="63.623047" xlink:href="#DejaVuSans-56"/>
       <use x="127.246094" xlink:href="#DejaVuSans-46"/>
       <use x="159.033203" xlink:href="#DejaVuSans-52"/>
       <use x="222.65625" xlink:href="#DejaVuSans-50"/>
      </g>
     </g>
    </g>
    <g id="ytick_3">
     <g id="line2d_9">
      <g>
       <use style="stroke:#000000;stroke-width:0.8;" x="57.6" xlink:href="#m3ab15091f0" y="234.0288"/>
      </g>
     </g>
     <g id="text_10">
      <!-- 18.43 -->
      <g transform="translate(21.971875 237.828019)scale(0.1 -0.1)">
       <use xlink:href="#DejaVuSans-49"/>
       <use x="63.623047" xlink:href="#DejaVuSans-56"/>
       <use x="127.246094" xlink:href="#DejaVuSans-46"/>
       <use x="159.033203" xlink:href="#DejaVuSans-52"/>
       <use x="222.65625" xlink:href="#DejaVuSans-51"/>
      </g>
     </g>
    </g>
    <g id="ytick_4">
     <g id="line2d_10">
      <g>
       <use style="stroke:#000000;stroke-width:0.8;" x="57.6" xlink:href="#m3ab15091f0" y="203.9148"/>
      </g>
     </g>
     <g id="text_11">
      <!-- 18.44 -->
      <g transform="translate(21.971875 207.714019)scale(0.1 -0.1)">
       <use xlink:href="#DejaVuSans-49"/>
       <use x="63.623047" xlink:href="#DejaVuSans-56"/>
       <use x="127.246094" xlink:href="#DejaVuSans-46"/>
       <use x="159.033203" xlink:href="#DejaVuSans-52"/>
       <use x="222.65625" xlink:href="#DejaVuSans-52"/>
      </g>
     </g>
    </g>
    <g id="ytick_5">
     <g id="line2d_11">
      <g>
       <use style="stroke:#000000;stroke-width:0.8;" x="57.6" xlink:href="#m3ab15091f0" y="173.8008"/>
      </g>
     </g>
     <g id="text_12">
      <!-- 18.45 -->
      <g transform="translate(21.971875 177.600019)scale(0.1 -0.1)">
       <use xlink:href="#DejaVuSans-49"/>
       <use x="63.623047" xlink:href="#DejaVuSans-56"/>
       <use x="127.246094" xlink:href="#DejaVuSans-46"/>
       <use x="159.033203" xlink:href="#DejaVuSans-52"/>
       <use x="222.65625" xlink:href="#DejaVuSans-53"/>
      </g>
     </g>
    </g>
    <g id="ytick_6">
     <g id="line2d_12">
      <g>
       <use style="stroke:#000000;stroke-width:0.8;" x="57.6" xlink:href="#m3ab15091f0" y="143.6868"/>
      </g>
     </g>
     <g id="text_13">
      <!-- 18.46 -->
      <defs>
       <path d="M 33.015625 40.375 
Q 26.375 40.375 22.484375 35.828125 
Q 18.609375 31.296875 18.609375 23.390625 
Q 18.609375 15.53125 22.484375 10.953125 
Q 26.375 6.390625 33.015625 6.390625 
Q 39.65625 6.390625 43.53125 10.953125 
Q 47.40625 15.53125 47.40625 23.390625 
Q 47.40625 31.296875 43.53125 35.828125 
Q 39.65625 40.375 33.015625 40.375 
z
M 52.59375 71.296875 
L 52.59375 62.3125 
Q 48.875 64.0625 45.09375 64.984375 
Q 41.3125 65.921875 37.59375 65.921875 
Q 27.828125 65.921875 22.671875 59.328125 
Q 17.53125 52.734375 16.796875 39.40625 
Q 19.671875 43.65625 24.015625 45.921875 
Q 28.375 48.1875 33.59375 48.1875 
Q 44.578125 48.1875 50.953125 41.515625 
Q 57.328125 34.859375 57.328125 23.390625 
Q 57.328125 12.15625 50.6875 5.359375 
Q 44.046875 -1.421875 33.015625 -1.421875 
Q 20.359375 -1.421875 13.671875 8.265625 
Q 6.984375 17.96875 6.984375 36.375 
Q 6.984375 53.65625 15.1875 63.9375 
Q 23.390625 74.21875 37.203125 74.21875 
Q 40.921875 74.21875 44.703125 73.484375 
Q 48.484375 72.75 52.59375 71.296875 
z
" id="DejaVuSans-54"/>
      </defs>
      <g transform="translate(21.971875 147.486019)scale(0.1 -0.1)">
       <use xlink:href="#DejaVuSans-49"/>
       <use x="63.623047" xlink:href="#DejaVuSans-56"/>
       <use x="127.246094" xlink:href="#DejaVuSans-46"/>
       <use x="159.033203" xlink:href="#DejaVuSans-52"/>
       <use x="222.65625" xlink:href="#DejaVuSans-54"/>
      </g>
     </g>
    </g>
    <g id="ytick_7">
     <g id="line2d_13">
      <g>
       <use style="stroke:#000000;stroke-width:0.8;" x="57.6" xlink:href="#m3ab15091f0" y="113.5728"/>
      </g>
     </g>
     <g id="text_14">
      <!-- 18.47 -->
      <defs>
       <path d="M 8.203125 72.90625 
L 55.078125 72.90625 
L 55.078125 68.703125 
L 28.609375 0 
L 18.3125 0 
L 43.21875 64.59375 
L 8.203125 64.59375 
z
" id="DejaVuSans-55"/>
      </defs>
      <g transform="translate(21.971875 117.372019)scale(0.1 -0.1)">
       <use xlink:href="#DejaVuSans-49"/>
       <use x="63.623047" xlink:href="#DejaVuSans-56"/>
       <use x="127.246094" xlink:href="#DejaVuSans-46"/>
       <use x="159.033203" xlink:href="#DejaVuSans-52"/>
       <use x="222.65625" xlink:href="#DejaVuSans-55"/>
      </g>
     </g>
    </g>
    <g id="ytick_8">
     <g id="line2d_14">
      <g>
       <use style="stroke:#000000;stroke-width:0.8;" x="57.6" xlink:href="#m3ab15091f0" y="83.4588"/>
      </g>
     </g>
     <g id="text_15">
      <!-- 18.48 -->
      <g transform="translate(21.971875 87.258019)scale(0.1 -0.1)">
       <use xlink:href="#DejaVuSans-49"/>
       <use x="63.623047" xlink:href="#DejaVuSans-56"/>
       <use x="127.246094" xlink:href="#DejaVuSans-46"/>
       <use x="159.033203" xlink:href="#DejaVuSans-52"/>
       <use x="222.65625" xlink:href="#DejaVuSans-56"/>
      </g>
     </g>
    </g>
    <g id="ytick_9">
     <g id="line2d_15">
      <g>
       <use style="stroke:#000000;stroke-width:0.8;" x="57.6" xlink:href="#m3ab15091f0" y="53.3448"/>
      </g>
     </g>
     <g id="text_16">
      <!-- 18.49 -->
      <defs>
       <path d="M 10.984375 1.515625 
L 10.984375 10.5 
Q 14.703125 8.734375 18.5 7.8125 
Q 22.3125 6.890625 25.984375 6.890625 
Q 35.75 6.890625 40.890625 13.453125 
Q 46.046875 20.015625 46.78125 33.40625 
Q 43.953125 29.203125 39.59375 26.953125 
Q 35.25 24.703125 29.984375 24.703125 
Q 19.046875 24.703125 12.671875 31.3125 
Q 6.296875 37.9375 6.296875 49.421875 
Q 6.296875 60.640625 12.9375 67.421875 
Q 19.578125 74.21875 30.609375 74.21875 
Q 43.265625 74.21875 49.921875 64.515625 
Q 56.59375 54.828125 56.59375 36.375 
Q 56.59375 19.140625 48.40625 8.859375 
Q 40.234375 -1.421875 26.421875 -1.421875 
Q 22.703125 -1.421875 18.890625 -0.6875 
Q 15.09375 0.046875 10.984375 1.515625 
z
M 30.609375 32.421875 
Q 37.25 32.421875 41.125 36.953125 
Q 45.015625 41.5 45.015625 49.421875 
Q 45.015625 57.28125 41.125 61.84375 
Q 37.25 66.40625 30.609375 66.40625 
Q 23.96875 66.40625 20.09375 61.84375 
Q 16.21875 57.28125 16.21875 49.421875 
Q 16.21875 41.5 20.09375 36.953125 
Q 23.96875 32.421875 30.609375 32.421875 
z
" id="DejaVuSans-57"/>
      </defs>
      <g transform="translate(21.971875 57.144019)scale(0.1 -0.1)">
       <use xlink:href="#DejaVuSans-49"/>
       <use x="63.623047" xlink:href="#DejaVuSans-56"/>
       <use x="127.246094" xlink:href="#DejaVuSans-46"/>
       <use x="159.033203" xlink:href="#DejaVuSans-52"/>
       <use x="222.65625" xlink:href="#DejaVuSans-57"/>
      </g>
     </g>
    </g>
    <g id="text_17">
     <!-- Valor de Temperatura -->
     <defs>
      <path d="M 28.609375 0 
L 0.78125 72.90625 
L 11.078125 72.90625 
L 34.1875 11.53125 
L 57.328125 72.90625 
L 67.578125 72.90625 
L 39.796875 0 
z
" id="DejaVuSans-86"/>
      <path d="M 9.421875 75.984375 
L 18.40625 75.984375 
L 18.40625 0 
L 9.421875 0 
z
" id="DejaVuSans-108"/>
      <path d="M 30.609375 48.390625 
Q 23.390625 48.390625 19.1875 42.75 
Q 14.984375 37.109375 14.984375 27.296875 
Q 14.984375 17.484375 19.15625 11.84375 
Q 23.34375 6.203125 30.609375 6.203125 
Q 37.796875 6.203125 41.984375 11.859375 
Q 46.1875 17.53125 46.1875 27.296875 
Q 46.1875 37.015625 41.984375 42.703125 
Q 37.796875 48.390625 30.609375 48.390625 
z
M 30.609375 56 
Q 42.328125 56 49.015625 48.375 
Q 55.71875 40.765625 55.71875 27.296875 
Q 55.71875 13.875 49.015625 6.21875 
Q 42.328125 -1.421875 30.609375 -1.421875 
Q 18.84375 -1.421875 12.171875 6.21875 
Q 5.515625 13.875 5.515625 27.296875 
Q 5.515625 40.765625 12.171875 48.375 
Q 18.84375 56 30.609375 56 
z
" id="DejaVuSans-111"/>
      <path id="DejaVuSans-32"/>
      <path d="M 45.40625 46.390625 
L 45.40625 75.984375 
L 54.390625 75.984375 
L 54.390625 0 
L 45.40625 0 
L 45.40625 8.203125 
Q 42.578125 3.328125 38.25 0.953125 
Q 33.9375 -1.421875 27.875 -1.421875 
Q 17.96875 -1.421875 11.734375 6.484375 
Q 5.515625 14.40625 5.515625 27.296875 
Q 5.515625 40.1875 11.734375 48.09375 
Q 17.96875 56 27.875 56 
Q 33.9375 56 38.25 53.625 
Q 42.578125 51.265625 45.40625 46.390625 
z
M 14.796875 27.296875 
Q 14.796875 17.390625 18.875 11.75 
Q 22.953125 6.109375 30.078125 6.109375 
Q 37.203125 6.109375 41.296875 11.75 
Q 45.40625 17.390625 45.40625 27.296875 
Q 45.40625 37.203125 41.296875 42.84375 
Q 37.203125 48.484375 30.078125 48.484375 
Q 22.953125 48.484375 18.875 42.84375 
Q 14.796875 37.203125 14.796875 27.296875 
z
" id="DejaVuSans-100"/>
      <path d="M -0.296875 72.90625 
L 61.375 72.90625 
L 61.375 64.59375 
L 35.5 64.59375 
L 35.5 0 
L 25.59375 0 
L 25.59375 64.59375 
L -0.296875 64.59375 
z
" id="DejaVuSans-84"/>
      <path d="M 52 44.1875 
Q 55.375 50.25 60.0625 53.125 
Q 64.75 56 71.09375 56 
Q 79.640625 56 84.28125 50.015625 
Q 88.921875 44.046875 88.921875 33.015625 
L 88.921875 0 
L 79.890625 0 
L 79.890625 32.71875 
Q 79.890625 40.578125 77.09375 44.375 
Q 74.3125 48.1875 68.609375 48.1875 
Q 61.625 48.1875 57.5625 43.546875 
Q 53.515625 38.921875 53.515625 30.90625 
L 53.515625 0 
L 44.484375 0 
L 44.484375 32.71875 
Q 44.484375 40.625 41.703125 44.40625 
Q 38.921875 48.1875 33.109375 48.1875 
Q 26.21875 48.1875 22.15625 43.53125 
Q 18.109375 38.875 18.109375 30.90625 
L 18.109375 0 
L 9.078125 0 
L 9.078125 54.6875 
L 18.109375 54.6875 
L 18.109375 46.1875 
Q 21.1875 51.21875 25.484375 53.609375 
Q 29.78125 56 35.6875 56 
Q 41.65625 56 45.828125 52.96875 
Q 50 49.953125 52 44.1875 
z
" id="DejaVuSans-109"/>
      <path d="M 18.109375 8.203125 
L 18.109375 -20.796875 
L 9.078125 -20.796875 
L 9.078125 54.6875 
L 18.109375 54.6875 
L 18.109375 46.390625 
Q 20.953125 51.265625 25.265625 53.625 
Q 29.59375 56 35.59375 56 
Q 45.5625 56 51.78125 48.09375 
Q 58.015625 40.1875 58.015625 27.296875 
Q 58.015625 14.40625 51.78125 6.484375 
Q 45.5625 -1.421875 35.59375 -1.421875 
Q 29.59375 -1.421875 25.265625 0.953125 
Q 20.953125 3.328125 18.109375 8.203125 
z
M 48.6875 27.296875 
Q 48.6875 37.203125 44.609375 42.84375 
Q 40.53125 48.484375 33.40625 48.484375 
Q 26.265625 48.484375 22.1875 42.84375 
Q 18.109375 37.203125 18.109375 27.296875 
Q 18.109375 17.390625 22.1875 11.75 
Q 26.265625 6.109375 33.40625 6.109375 
Q 40.53125 6.109375 44.609375 11.75 
Q 48.6875 17.390625 48.6875 27.296875 
z
" id="DejaVuSans-112"/>
     </defs>
     <g transform="translate(15.892187 228.818769)rotate(-90)scale(0.1 -0.1)">
      <use xlink:href="#DejaVuSans-86"/>
      <use x="68.298828" xlink:href="#DejaVuSans-97"/>
      <use x="129.578125" xlink:href="#DejaVuSans-108"/>
      <use x="157.361328" xlink:href="#DejaVuSans-111"/>
      <use x="218.542969" xlink:href="#DejaVuSans-114"/>
      <use x="259.65625" xlink:href="#DejaVuSans-32"/>
      <use x="291.443359" xlink:href="#DejaVuSans-100"/>
      <use x="354.919922" xlink:href="#DejaVuSans-101"/>
      <use x="416.443359" xlink:href="#DejaVuSans-32"/>
      <use x="448.230469" xlink:href="#DejaVuSans-84"/>
      <use x="509.048828" xlink:href="#DejaVuSans-101"/>
      <use x="570.572266" xlink:href="#DejaVuSans-109"/>
      <use x="667.984375" xlink:href="#DejaVuSans-112"/>
      <use x="731.460938" xlink:href="#DejaVuSans-101"/>
      <use x="792.984375" xlink:href="#DejaVuSans-114"/>
      <use x="834.097656" xlink:href="#DejaVuSans-97"/>
      <use x="895.376953" xlink:href="#DejaVuSans-116"/>
      <use x="934.585938" xlink:href="#DejaVuSans-117"/>
      <use x="997.964844" xlink:href="#DejaVuSans-114"/>
      <use x="1039.078125" xlink:href="#DejaVuSans-97"/>
     </g>
    </g>
   </g>
   <g id="line2d_16">
    <path clip-path="url(#p9de4b79ef1)" d="M 73.832727 234.0288 
L 73.889674 234.0288 
L 74.003568 173.8008 
L 74.34525 173.8008 
L 74.459144 143.6868 
L 74.573038 143.6868 
L 74.686931 173.8008 
L 75.256401 173.8008 
L 75.370295 143.6868 
L 75.484189 143.6868 
L 75.598083 173.8008 
L 76.850915 173.8008 
L 76.964809 143.6868 
L 77.078703 143.6868 
L 77.192597 173.8008 
L 77.762067 173.8008 
L 77.875961 143.6868 
L 77.989854 143.6868 
L 78.103748 234.0288 
L 78.217642 234.0288 
L 78.331536 173.8008 
L 78.44543 173.8008 
L 78.559324 234.0288 
L 78.673218 234.0288 
L 78.787112 173.8008 
L 79.128793 173.8008 
L 79.242687 234.0288 
L 79.584369 234.0288 
L 79.698263 173.8008 
L 79.812157 173.8008 
L 79.926051 143.6868 
L 80.039945 143.6868 
L 80.153838 173.8008 
L 80.267732 173.8008 
L 80.381626 234.0288 
L 80.49552 234.0288 
L 80.609414 173.8008 
L 81.406671 173.8008 
L 81.520565 234.0288 
L 81.862247 234.0288 
L 81.976141 173.8008 
L 82.317822 173.8008 
L 82.431716 234.0288 
L 82.773398 234.0288 
L 82.887292 173.8008 
L 83.001186 173.8008 
L 83.11508 234.0288 
L 83.228974 234.0288 
L 83.342867 143.6868 
L 83.456761 143.6868 
L 83.570655 173.8008 
L 83.912337 173.8008 
L 84.026231 234.0288 
L 84.367912 234.0288 
L 84.481806 173.8008 
L 84.5957 173.8008 
L 84.709594 143.6868 
L 85.051276 143.6868 
L 85.16517 173.8008 
L 85.279064 173.8008 
L 85.392958 143.6868 
L 85.506851 143.6868 
L 85.620745 173.8008 
L 85.962427 173.8008 
L 86.076321 234.0288 
L 86.190215 234.0288 
L 86.304109 173.8008 
L 86.64579 173.8008 
L 86.759684 234.0288 
L 86.873578 234.0288 
L 86.987472 143.6868 
L 87.329154 143.6868 
L 87.443048 173.8008 
L 87.556942 173.8008 
L 87.670835 234.0288 
L 87.784729 234.0288 
L 87.898623 173.8008 
L 88.012517 173.8008 
L 88.126411 234.0288 
L 88.240305 234.0288 
L 88.354199 173.8008 
L 89.151456 173.8008 
L 89.26535 143.6868 
L 89.379244 143.6868 
L 89.493138 173.8008 
L 89.607032 173.8008 
L 89.720926 234.0288 
L 89.834819 234.0288 
L 89.948713 143.6868 
L 90.290395 143.6868 
L 90.404289 173.8008 
L 91.201546 173.8008 
L 91.31544 143.6868 
L 91.657122 143.6868 
L 91.771016 173.8008 
L 92.340485 173.8008 
L 92.454379 234.0288 
L 92.568273 234.0288 
L 92.682167 143.6868 
L 93.023848 143.6868 
L 93.137742 234.0288 
L 93.251636 234.0288 
L 93.36553 173.8008 
L 93.707212 173.8008 
L 93.821106 143.6868 
L 93.935 143.6868 
L 94.048893 173.8008 
L 94.618363 173.8008 
L 94.732257 143.6868 
L 94.846151 143.6868 
L 94.960045 173.8008 
L 95.073939 173.8008 
L 95.187832 143.6868 
L 95.301726 143.6868 
L 95.41562 173.8008 
L 95.529514 173.8008 
L 95.643408 234.0288 
L 95.757302 234.0288 
L 95.871196 173.8008 
L 96.212877 173.8008 
L 96.326771 143.6868 
L 96.896241 143.6868 
L 97.010135 173.8008 
L 97.124029 173.8008 
L 97.237923 143.6868 
L 97.579604 143.6868 
L 97.693498 173.8008 
L 97.807392 173.8008 
L 97.921286 234.0288 
L 98.03518 234.0288 
L 98.149074 173.8008 
L 98.262968 173.8008 
L 98.376861 143.6868 
L 98.946331 143.6868 
L 99.060225 173.8008 
L 99.174119 173.8008 
L 99.288013 143.6868 
L 99.629694 143.6868 
L 99.743588 173.8008 
L 100.08527 173.8008 
L 100.199164 143.6868 
L 100.768633 143.6868 
L 100.882527 294.2568 
L 100.996421 294.2568 
L 101.110315 173.8008 
L 101.224209 173.8008 
L 101.338103 234.0288 
L 101.451997 234.0288 
L 101.565891 173.8008 
L 101.679784 173.8008 
L 101.793678 143.6868 
L 101.907572 143.6868 
L 102.021466 173.8008 
L 102.13536 173.8008 
L 102.249254 143.6868 
L 102.363148 143.6868 
L 102.477042 173.8008 
L 103.957662 173.8008 
L 104.071556 143.6868 
L 104.18545 143.6868 
L 104.299344 53.3448 
L 104.413238 53.3448 
L 104.527132 173.8008 
L 104.641026 173.8008 
L 104.75492 143.6868 
L 104.868813 143.6868 
L 104.982707 173.8008 
L 105.324389 173.8008 
L 105.438283 234.0288 
L 105.552177 234.0288 
L 105.666071 294.2568 
L 105.779965 294.2568 
L 105.893858 143.6868 
L 106.007752 143.6868 
L 106.121646 234.0288 
L 106.23554 234.0288 
L 106.349434 143.6868 
L 106.463328 143.6868 
L 106.577222 173.8008 
L 107.146691 173.8008 
L 107.260585 234.0288 
L 107.602267 234.0288 
L 107.716161 173.8008 
L 108.057842 173.8008 
L 108.171736 234.0288 
L 108.28563 234.0288 
L 108.399524 173.8008 
L 108.741206 173.8008 
L 108.8551 143.6868 
L 108.968994 143.6868 
L 109.082888 234.0288 
L 109.196781 234.0288 
L 109.310675 143.6868 
L 109.424569 143.6868 
L 109.538463 173.8008 
L 109.652357 173.8008 
L 109.766251 234.0288 
L 109.880145 234.0288 
L 109.994039 173.8008 
L 110.107933 173.8008 
L 110.221826 143.6868 
L 110.33572 143.6868 
L 110.449614 173.8008 
L 110.563508 173.8008 
L 110.677402 143.6868 
L 110.791296 143.6868 
L 110.90519 234.0288 
L 111.246872 234.0288 
L 111.360765 173.8008 
L 112.158023 173.8008 
L 112.271917 143.6868 
L 112.613598 143.6868 
L 112.727492 173.8008 
L 112.841386 173.8008 
L 112.95528 234.0288 
L 113.069174 234.0288 
L 113.183068 173.8008 
L 113.296962 173.8008 
L 113.410856 143.6868 
L 113.524749 143.6868 
L 113.638643 173.8008 
L 113.752537 173.8008 
L 113.866431 143.6868 
L 113.980325 143.6868 
L 114.094219 173.8008 
L 114.208113 173.8008 
L 114.322007 143.6868 
L 114.435901 143.6868 
L 114.549794 173.8008 
L 115.57484 173.8008 
L 115.688733 234.0288 
L 116.030415 234.0288 
L 116.144309 173.8008 
L 116.258203 173.8008 
L 116.372097 234.0288 
L 117.169354 234.0288 
L 117.283248 173.8008 
L 117.397142 173.8008 
L 117.511036 234.0288 
L 117.62493 234.0288 
L 117.738823 173.8008 
L 117.852717 173.8008 
L 117.966611 143.6868 
L 118.080505 143.6868 
L 118.194399 173.8008 
L 118.536081 173.8008 
L 118.649975 143.6868 
L 118.763869 143.6868 
L 118.877762 173.8008 
L 118.991656 173.8008 
L 119.10555 143.6868 
L 119.219444 143.6868 
L 119.333338 173.8008 
L 120.130595 173.8008 
L 120.244489 143.6868 
L 120.358383 143.6868 
L 120.472277 173.8008 
L 121.269534 173.8008 
L 121.383428 234.0288 
L 121.497322 234.0288 
L 121.611216 173.8008 
L 123.091837 173.8008 
L 123.20573 234.0288 
L 123.547412 234.0288 
L 123.661306 173.8008 
L 124.002988 173.8008 
L 124.116882 143.6868 
L 124.914139 143.6868 
L 125.028033 173.8008 
L 125.141927 173.8008 
L 125.255821 143.6868 
L 125.369714 143.6868 
L 125.483608 173.8008 
L 126.053078 173.8008 
L 126.166972 234.0288 
L 126.280866 234.0288 
L 126.394759 143.6868 
L 126.508653 143.6868 
L 126.622547 173.8008 
L 127.647592 173.8008 
L 127.761486 143.6868 
L 128.103168 143.6868 
L 128.217062 173.8008 
L 128.330956 173.8008 
L 128.44485 143.6868 
L 128.558743 143.6868 
L 128.672637 173.8008 
L 129.242107 173.8008 
L 129.356001 143.6868 
L 129.697682 143.6868 
L 129.811576 234.0288 
L 129.92547 234.0288 
L 130.039364 173.8008 
L 130.836621 173.8008 
L 130.950515 234.0288 
L 131.064409 234.0288 
L 131.178303 173.8008 
L 131.519985 173.8008 
L 131.633879 143.6868 
L 131.747772 143.6868 
L 131.861666 173.8008 
L 133.114499 173.8008 
L 133.228393 234.0288 
L 133.342287 234.0288 
L 133.456181 173.8008 
L 134.02565 173.8008 
L 134.139544 234.0288 
L 134.253438 234.0288 
L 134.367332 173.8008 
L 134.709014 173.8008 
L 134.822908 143.6868 
L 134.936802 143.6868 
L 135.050695 173.8008 
L 135.164589 173.8008 
L 135.278483 234.0288 
L 135.392377 234.0288 
L 135.506271 173.8008 
L 136.07574 173.8008 
L 136.189634 143.6868 
L 136.303528 143.6868 
L 136.417422 173.8008 
L 136.759104 173.8008 
L 136.872998 143.6868 
L 136.986892 143.6868 
L 137.100786 173.8008 
L 137.670255 173.8008 
L 137.784149 143.6868 
L 137.898043 143.6868 
L 138.011937 173.8008 
L 138.125831 173.8008 
L 138.239724 143.6868 
L 138.581406 143.6868 
L 138.6953 173.8008 
L 139.036982 173.8008 
L 139.150876 234.0288 
L 139.264769 234.0288 
L 139.378663 173.8008 
L 139.492557 173.8008 
L 139.606451 143.6868 
L 139.720345 143.6868 
L 139.834239 173.8008 
L 139.948133 173.8008 
L 140.062027 143.6868 
L 140.175921 143.6868 
L 140.289815 173.8008 
L 140.631496 173.8008 
L 140.74539 143.6868 
L 141.087072 143.6868 
L 141.200966 173.8008 
L 141.31486 173.8008 
L 141.428753 234.0288 
L 141.542647 234.0288 
L 141.656541 173.8008 
L 142.909374 173.8008 
L 143.023268 234.0288 
L 143.137162 234.0288 
L 143.251056 173.8008 
L 143.36495 173.8008 
L 143.478844 234.0288 
L 143.592737 234.0288 
L 143.706631 143.6868 
L 143.820525 143.6868 
L 143.934419 234.0288 
L 144.048313 234.0288 
L 144.162207 173.8008 
L 145.41504 173.8008 
L 145.528934 143.6868 
L 145.642828 143.6868 
L 145.756721 53.3448 
L 145.870615 53.3448 
L 145.984509 173.8008 
L 146.553979 173.8008 
L 146.667873 143.6868 
L 146.781767 143.6868 
L 146.89566 173.8008 
L 147.237342 173.8008 
L 147.351236 143.6868 
L 147.46513 143.6868 
L 147.579024 173.8008 
L 148.376281 173.8008 
L 148.490175 143.6868 
L 148.604069 143.6868 
L 148.717963 173.8008 
L 149.743008 173.8008 
L 149.856902 143.6868 
L 149.970796 143.6868 
L 150.084689 173.8008 
L 150.426371 173.8008 
L 150.540265 143.6868 
L 150.654159 143.6868 
L 150.768053 173.8008 
L 151.337522 173.8008 
L 151.451416 143.6868 
L 151.56531 143.6868 
L 151.679204 173.8008 
L 151.793098 173.8008 
L 151.906992 143.6868 
L 152.248673 143.6868 
L 152.362567 234.0288 
L 152.476461 234.0288 
L 152.590355 173.8008 
L 152.704249 173.8008 
L 152.818143 143.6868 
L 152.932037 143.6868 
L 153.045931 173.8008 
L 153.159825 173.8008 
L 153.273718 234.0288 
L 153.6154 234.0288 
L 153.729294 53.3448 
L 153.843188 53.3448 
L 153.957082 173.8008 
L 154.070976 173.8008 
L 154.18487 143.6868 
L 154.298764 143.6868 
L 154.412657 173.8008 
L 154.526551 173.8008 
L 154.640445 234.0288 
L 154.754339 234.0288 
L 154.868233 173.8008 
L 155.209915 173.8008 
L 155.323809 143.6868 
L 155.437702 143.6868 
L 155.551596 173.8008 
L 155.66549 173.8008 
L 155.779384 143.6868 
L 155.893278 143.6868 
L 156.007172 173.8008 
L 156.348854 173.8008 
L 156.462748 143.6868 
L 156.576641 143.6868 
L 156.690535 173.8008 
L 157.032217 173.8008 
L 157.146111 143.6868 
L 157.71558 143.6868 
L 157.829474 173.8008 
L 158.398944 173.8008 
L 158.512838 234.0288 
L 158.626732 234.0288 
L 158.740625 173.8008 
L 158.854519 173.8008 
L 158.968413 234.0288 
L 159.082307 234.0288 
L 159.196201 143.6868 
L 159.537883 143.6868 
L 159.651777 234.0288 
L 159.76567 234.0288 
L 159.879564 143.6868 
L 159.993458 143.6868 
L 160.107352 234.0288 
L 160.221246 234.0288 
L 160.33514 173.8008 
L 161.132397 173.8008 
L 161.246291 234.0288 
L 161.360185 234.0288 
L 161.474079 173.8008 
L 162.271336 173.8008 
L 162.38523 143.6868 
L 162.499124 143.6868 
L 162.613018 173.8008 
L 162.954699 173.8008 
L 163.068593 143.6868 
L 163.410275 143.6868 
L 163.524169 234.0288 
L 163.638063 234.0288 
L 163.751957 143.6868 
L 163.865851 143.6868 
L 163.979745 173.8008 
L 164.549214 173.8008 
L 164.663108 143.6868 
L 164.777002 143.6868 
L 164.890896 173.8008 
L 165.460365 173.8008 
L 165.574259 143.6868 
L 165.688153 143.6868 
L 165.802047 173.8008 
L 165.915941 173.8008 
L 166.029835 234.0288 
L 166.143729 234.0288 
L 166.257622 173.8008 
L 166.371516 173.8008 
L 166.48541 143.6868 
L 166.827092 143.6868 
L 166.940986 173.8008 
L 167.05488 173.8008 
L 167.168774 143.6868 
L 167.282667 143.6868 
L 167.396561 173.8008 
L 167.738243 173.8008 
L 167.852137 234.0288 
L 168.193819 234.0288 
L 168.307713 173.8008 
L 168.421606 173.8008 
L 168.5355 143.6868 
L 168.649394 143.6868 
L 168.763288 173.8008 
L 169.332758 173.8008 
L 169.446651 234.0288 
L 169.560545 234.0288 
L 169.674439 173.8008 
L 169.788333 173.8008 
L 169.902227 143.6868 
L 170.243909 143.6868 
L 170.357803 173.8008 
L 170.471697 173.8008 
L 170.58559 143.6868 
L 170.927272 143.6868 
L 171.041166 173.8008 
L 171.382848 173.8008 
L 171.496742 143.6868 
L 171.838423 143.6868 
L 171.952317 173.8008 
L 175.25524 173.8008 
L 175.369134 234.0288 
L 175.483028 234.0288 
L 175.596922 173.8008 
L 175.938603 173.8008 
L 176.052497 143.6868 
L 176.166391 143.6868 
L 176.280285 173.8008 
L 176.394179 173.8008 
L 176.508073 143.6868 
L 176.621967 143.6868 
L 176.735861 173.8008 
L 177.077542 173.8008 
L 177.191436 143.6868 
L 177.30533 143.6868 
L 177.419224 173.8008 
L 177.988694 173.8008 
L 178.102587 143.6868 
L 178.444269 143.6868 
L 178.558163 173.8008 
L 178.672057 173.8008 
L 178.785951 143.6868 
L 178.899845 143.6868 
L 179.013739 173.8008 
L 179.127632 173.8008 
L 179.241526 143.6868 
L 179.35542 143.6868 
L 179.469314 173.8008 
L 180.038784 173.8008 
L 180.152678 143.6868 
L 180.266571 143.6868 
L 180.380465 173.8008 
L 180.722147 173.8008 
L 180.836041 143.6868 
L 180.949935 143.6868 
L 181.063829 173.8008 
L 181.633298 173.8008 
L 181.747192 143.6868 
L 181.861086 143.6868 
L 181.97498 173.8008 
L 182.088874 173.8008 
L 182.202768 143.6868 
L 182.316662 143.6868 
L 182.430555 173.8008 
L 184.822327 173.8008 
L 184.936221 143.6868 
L 185.050115 143.6868 
L 185.164009 173.8008 
L 185.277903 173.8008 
L 185.391797 234.0288 
L 185.505691 234.0288 
L 185.619584 143.6868 
L 185.733478 143.6868 
L 185.847372 234.0288 
L 185.961266 234.0288 
L 186.07516 173.8008 
L 187.100205 173.8008 
L 187.214099 234.0288 
L 187.327993 234.0288 
L 187.441887 173.8008 
L 187.555781 173.8008 
L 187.669675 143.6868 
L 187.783568 143.6868 
L 187.897462 173.8008 
L 188.011356 173.8008 
L 188.12525 143.6868 
L 188.466932 143.6868 
L 188.580826 173.8008 
L 188.922507 173.8008 
L 189.036401 143.6868 
L 189.150295 143.6868 
L 189.264189 234.0288 
L 189.378083 234.0288 
L 189.491977 143.6868 
L 189.833659 143.6868 
L 189.947552 173.8008 
L 190.289234 173.8008 
L 190.403128 234.0288 
L 190.74481 234.0288 
L 190.858704 173.8008 
L 191.200385 173.8008 
L 191.314279 234.0288 
L 191.655961 234.0288 
L 191.769855 173.8008 
L 192.111536 173.8008 
L 192.22543 143.6868 
L 192.567112 143.6868 
L 192.681006 173.8008 
L 193.250475 173.8008 
L 193.364369 234.0288 
L 193.706051 234.0288 
L 193.819945 173.8008 
L 194.84499 173.8008 
L 194.958884 143.6868 
L 195.072778 143.6868 
L 195.186672 173.8008 
L 196.211717 173.8008 
L 196.32561 143.6868 
L 196.667292 143.6868 
L 196.781186 173.8008 
L 197.350656 173.8008 
L 197.464549 143.6868 
L 197.578443 143.6868 
L 197.692337 173.8008 
L 198.94517 173.8008 
L 199.059064 143.6868 
L 199.172958 143.6868 
L 199.286852 173.8008 
L 199.400746 173.8008 
L 199.51464 143.6868 
L 199.628533 143.6868 
L 199.742427 173.8008 
L 199.856321 173.8008 
L 199.970215 143.6868 
L 200.084109 143.6868 
L 200.198003 173.8008 
L 200.311897 173.8008 
L 200.425791 294.2568 
L 200.539685 294.2568 
L 200.653578 173.8008 
L 202.134199 173.8008 
L 202.248093 143.6868 
L 202.361987 143.6868 
L 202.475881 234.0288 
L 202.817562 234.0288 
L 202.931456 173.8008 
L 203.273138 173.8008 
L 203.387032 234.0288 
L 203.500926 234.0288 
L 203.61482 143.6868 
L 203.728714 143.6868 
L 203.842608 173.8008 
L 203.956501 173.8008 
L 204.070395 143.6868 
L 204.184289 143.6868 
L 204.298183 173.8008 
L 204.412077 173.8008 
L 204.525971 143.6868 
L 204.639865 143.6868 
L 204.753759 173.8008 
L 204.867653 173.8008 
L 204.981546 234.0288 
L 205.09544 234.0288 
L 205.209334 173.8008 
L 205.778804 173.8008 
L 205.892698 234.0288 
L 206.462167 234.0288 
L 206.576061 173.8008 
L 207.14553 173.8008 
L 207.259424 143.6868 
L 207.601106 143.6868 
L 207.715 173.8008 
L 208.056682 173.8008 
L 208.170575 234.0288 
L 208.512257 234.0288 
L 208.626151 173.8008 
L 209.651196 173.8008 
L 209.76509 234.0288 
L 209.878984 234.0288 
L 209.992878 173.8008 
L 210.106772 173.8008 
L 210.220666 234.0288 
L 210.334559 234.0288 
L 210.448453 173.8008 
L 210.790135 173.8008 
L 210.904029 143.6868 
L 211.017923 143.6868 
L 211.131817 173.8008 
L 211.473498 173.8008 
L 211.587392 143.6868 
L 211.701286 143.6868 
L 211.81518 173.8008 
L 212.840225 173.8008 
L 212.954119 234.0288 
L 213.068013 234.0288 
L 213.181907 143.6868 
L 213.295801 143.6868 
L 213.409695 234.0288 
L 213.523589 234.0288 
L 213.637482 173.8008 
L 214.43474 173.8008 
L 214.548634 143.6868 
L 214.662527 143.6868 
L 214.776421 173.8008 
L 214.890315 173.8008 
L 215.004209 143.6868 
L 215.573679 143.6868 
L 215.687573 173.8008 
L 215.801466 173.8008 
L 215.91536 143.6868 
L 216.029254 143.6868 
L 216.143148 173.8008 
L 216.257042 173.8008 
L 216.370936 234.0288 
L 216.48483 234.0288 
L 216.598724 173.8008 
L 216.712618 173.8008 
L 216.826511 143.6868 
L 216.940405 143.6868 
L 217.054299 173.8008 
L 217.395981 173.8008 
L 217.509875 234.0288 
L 217.623769 234.0288 
L 217.737663 173.8008 
L 217.851557 173.8008 
L 217.96545 234.0288 
L 218.079344 234.0288 
L 218.193238 173.8008 
L 218.307132 173.8008 
L 218.421026 234.0288 
L 220.812798 234.0288 
L 220.926692 294.2568 
L 221.040586 294.2568 
L 221.154479 234.0288 
L 221.723949 234.0288 
L 221.837843 173.8008 
L 222.179524 173.8008 
L 222.293418 234.0288 
L 222.407312 234.0288 
L 222.521206 173.8008 
L 223.090676 173.8008 
L 223.20457 234.0288 
L 223.318463 234.0288 
L 223.432357 294.2568 
L 223.546251 294.2568 
L 223.660145 234.0288 
L 223.774039 234.0288 
L 223.887933 173.8008 
L 224.001827 173.8008 
L 224.115721 294.2568 
L 224.229615 294.2568 
L 224.343508 234.0288 
L 224.457402 234.0288 
L 224.571296 173.8008 
L 225.140766 173.8008 
L 225.25466 234.0288 
L 225.596341 234.0288 
L 225.710235 173.8008 
L 227.190856 173.8008 
L 227.30475 234.0288 
L 227.646431 234.0288 
L 227.760325 173.8008 
L 228.557583 173.8008 
L 228.671476 234.0288 
L 229.013158 234.0288 
L 229.127052 173.8008 
L 229.240946 173.8008 
L 229.35484 234.0288 
L 229.924309 234.0288 
L 230.038203 143.6868 
L 230.152097 143.6868 
L 230.265991 173.8008 
L 230.379885 173.8008 
L 230.493779 234.0288 
L 230.607673 234.0288 
L 230.721567 173.8008 
L 231.063248 173.8008 
L 231.177142 143.6868 
L 231.291036 143.6868 
L 231.40493 234.0288 
L 231.974399 234.0288 
L 232.088293 173.8008 
L 232.202187 173.8008 
L 232.316081 234.0288 
L 232.429975 234.0288 
L 232.543869 173.8008 
L 233.341126 173.8008 
L 233.45502 143.6868 
L 233.568914 143.6868 
L 233.682808 173.8008 
L 234.480065 173.8008 
L 234.593959 234.0288 
L 234.935641 234.0288 
L 235.049535 173.8008 
L 236.302367 173.8008 
L 236.416261 143.6868 
L 236.530155 143.6868 
L 236.644049 173.8008 
L 236.757943 173.8008 
L 236.871837 234.0288 
L 236.985731 234.0288 
L 237.099625 173.8008 
L 237.669094 173.8008 
L 237.782988 294.2568 
L 238.12467 294.2568 
L 238.238564 173.8008 
L 238.580245 173.8008 
L 238.694139 234.0288 
L 239.946972 234.0288 
L 240.060866 173.8008 
L 240.858123 173.8008 
L 240.972017 234.0288 
L 241.085911 234.0288 
L 241.199805 173.8008 
L 241.313699 173.8008 
L 241.427593 234.0288 
L 241.769274 234.0288 
L 241.883168 173.8008 
L 241.997062 173.8008 
L 242.110956 294.2568 
L 242.22485 294.2568 
L 242.338744 234.0288 
L 242.680425 234.0288 
L 242.794319 173.8008 
L 242.908213 173.8008 
L 243.022107 234.0288 
L 243.136001 234.0288 
L 243.249895 173.8008 
L 243.591577 173.8008 
L 243.70547 234.0288 
L 244.047152 234.0288 
L 244.161046 173.8008 
L 244.730516 173.8008 
L 244.844409 143.6868 
L 245.413879 143.6868 
L 245.527773 173.8008 
L 245.869454 173.8008 
L 245.983348 234.0288 
L 246.097242 234.0288 
L 246.211136 173.8008 
L 246.552818 173.8008 
L 246.666712 234.0288 
L 246.780606 234.0288 
L 246.8945 173.8008 
L 247.008393 173.8008 
L 247.122287 234.0288 
L 247.236181 234.0288 
L 247.350075 173.8008 
L 247.691757 173.8008 
L 247.805651 234.0288 
L 247.919545 234.0288 
L 248.033438 173.8008 
L 248.147332 173.8008 
L 248.261226 234.0288 
L 248.830696 234.0288 
L 248.94459 294.2568 
L 249.058484 294.2568 
L 249.172377 173.8008 
L 249.286271 173.8008 
L 249.400165 234.0288 
L 249.514059 234.0288 
L 249.627953 143.6868 
L 249.741847 143.6868 
L 249.855741 173.8008 
L 250.197422 173.8008 
L 250.311316 234.0288 
L 250.652998 234.0288 
L 250.766892 173.8008 
L 250.880786 173.8008 
L 250.99468 143.6868 
L 251.108574 143.6868 
L 251.222468 234.0288 
L 251.791937 234.0288 
L 251.905831 173.8008 
L 252.247513 173.8008 
L 252.361406 234.0288 
L 252.4753 234.0288 
L 252.589194 173.8008 
L 253.158664 173.8008 
L 253.272558 234.0288 
L 253.614239 234.0288 
L 253.728133 173.8008 
L 254.297603 173.8008 
L 254.411497 234.0288 
L 254.753178 234.0288 
L 254.867072 173.8008 
L 255.892117 173.8008 
L 256.006011 143.6868 
L 256.119905 143.6868 
L 256.233799 173.8008 
L 256.347693 173.8008 
L 256.461587 234.0288 
L 256.575481 234.0288 
L 256.689374 173.8008 
L 257.714419 173.8008 
L 257.828313 234.0288 
L 257.942207 234.0288 
L 258.056101 143.6868 
L 258.169995 143.6868 
L 258.283889 234.0288 
L 258.853358 234.0288 
L 258.967252 173.8008 
L 259.081146 173.8008 
L 259.19504 143.6868 
L 259.308934 143.6868 
L 259.422828 234.0288 
L 259.76451 234.0288 
L 259.878403 173.8008 
L 259.992297 173.8008 
L 260.106191 234.0288 
L 260.903449 234.0288 
L 261.017342 173.8008 
L 261.131236 173.8008 
L 261.24513 294.2568 
L 261.586812 294.2568 
L 261.700706 234.0288 
L 262.042387 234.0288 
L 262.156281 173.8008 
L 262.270175 173.8008 
L 262.384069 234.0288 
L 262.497963 234.0288 
L 262.611857 173.8008 
L 262.725751 173.8008 
L 262.839645 234.0288 
L 263.181326 234.0288 
L 263.29522 173.8008 
L 263.86469 173.8008 
L 263.978584 234.0288 
L 264.092478 234.0288 
L 264.206371 173.8008 
L 264.548053 173.8008 
L 264.661947 234.0288 
L 265.003629 234.0288 
L 265.117523 173.8008 
L 265.231416 173.8008 
L 265.34531 234.0288 
L 265.459204 234.0288 
L 265.573098 173.8008 
L 265.686992 173.8008 
L 265.800886 234.0288 
L 265.91478 234.0288 
L 266.028674 173.8008 
L 266.142568 173.8008 
L 266.256462 234.0288 
L 266.598143 234.0288 
L 266.712037 173.8008 
L 266.825931 173.8008 
L 266.939825 234.0288 
L 267.053719 234.0288 
L 267.167613 173.8008 
L 267.509294 173.8008 
L 267.623188 234.0288 
L 267.737082 234.0288 
L 267.850976 173.8008 
L 268.876021 173.8008 
L 268.989915 234.0288 
L 269.331597 234.0288 
L 269.445491 294.2568 
L 269.559384 294.2568 
L 269.673278 234.0288 
L 270.01496 234.0288 
L 270.128854 173.8008 
L 270.470536 173.8008 
L 270.58443 234.0288 
L 270.698323 234.0288 
L 270.812217 173.8008 
L 271.153899 173.8008 
L 271.267793 234.0288 
L 271.381687 234.0288 
L 271.495581 173.8008 
L 271.609475 173.8008 
L 271.723368 234.0288 
L 271.837262 234.0288 
L 271.951156 173.8008 
L 272.06505 173.8008 
L 272.178944 234.0288 
L 272.292838 234.0288 
L 272.406732 173.8008 
L 272.748414 173.8008 
L 272.862307 143.6868 
L 273.203989 143.6868 
L 273.317883 173.8008 
L 273.659565 173.8008 
L 273.773459 234.0288 
L 273.887352 234.0288 
L 274.001246 173.8008 
L 274.798504 173.8008 
L 274.912398 234.0288 
L 275.026291 234.0288 
L 275.140185 143.6868 
L 275.254079 143.6868 
L 275.367973 173.8008 
L 275.481867 173.8008 
L 275.595761 234.0288 
L 275.709655 234.0288 
L 275.823549 173.8008 
L 275.937443 173.8008 
L 276.051336 234.0288 
L 276.16523 234.0288 
L 276.279124 173.8008 
L 276.848594 173.8008 
L 276.962488 234.0288 
L 277.076381 234.0288 
L 277.190275 173.8008 
L 277.304169 173.8008 
L 277.418063 234.0288 
L 277.531957 234.0288 
L 277.645851 173.8008 
L 277.759745 173.8008 
L 277.873639 143.6868 
L 277.987533 143.6868 
L 278.101427 234.0288 
L 278.21532 234.0288 
L 278.329214 143.6868 
L 278.443108 143.6868 
L 278.557002 234.0288 
L 278.670896 234.0288 
L 278.78479 143.6868 
L 278.898684 143.6868 
L 279.012578 173.8008 
L 279.354259 173.8008 
L 279.468153 143.6868 
L 279.582047 143.6868 
L 279.695941 173.8008 
L 280.265411 173.8008 
L 280.379304 234.0288 
L 280.493198 234.0288 
L 280.607092 173.8008 
L 281.176562 173.8008 
L 281.290456 234.0288 
L 281.404349 234.0288 
L 281.518243 173.8008 
L 282.315501 173.8008 
L 282.429395 143.6868 
L 282.543288 143.6868 
L 282.657182 173.8008 
L 282.771076 173.8008 
L 282.88497 234.0288 
L 282.998864 234.0288 
L 283.112758 173.8008 
L 283.226652 173.8008 
L 283.340546 143.6868 
L 283.682227 143.6868 
L 283.796121 173.8008 
L 284.137803 173.8008 
L 284.251697 234.0288 
L 284.365591 234.0288 
L 284.479485 173.8008 
L 284.821166 173.8008 
L 284.93506 294.2568 
L 285.048954 294.2568 
L 285.162848 234.0288 
L 285.276742 234.0288 
L 285.390636 143.6868 
L 285.50453 143.6868 
L 285.618424 234.0288 
L 285.732317 234.0288 
L 285.846211 143.6868 
L 285.960105 143.6868 
L 286.073999 173.8008 
L 286.187893 173.8008 
L 286.301787 143.6868 
L 286.415681 143.6868 
L 286.529575 173.8008 
L 288.237983 173.8008 
L 288.351877 234.0288 
L 288.693559 234.0288 
L 288.807453 173.8008 
L 288.921346 173.8008 
L 289.03524 143.6868 
L 289.149134 143.6868 
L 289.263028 234.0288 
L 289.376922 234.0288 
L 289.490816 173.8008 
L 290.060285 173.8008 
L 290.174179 234.0288 
L 290.288073 234.0288 
L 290.401967 173.8008 
L 290.515861 173.8008 
L 290.629755 143.6868 
L 290.743649 143.6868 
L 290.857543 173.8008 
L 291.199224 173.8008 
L 291.313118 143.6868 
L 291.427012 143.6868 
L 291.540906 173.8008 
L 291.882588 173.8008 
L 291.996482 234.0288 
L 292.110376 234.0288 
L 292.224269 173.8008 
L 292.338163 173.8008 
L 292.452057 143.6868 
L 292.565951 143.6868 
L 292.679845 234.0288 
L 292.793739 234.0288 
L 292.907633 173.8008 
L 293.021527 173.8008 
L 293.135421 234.0288 
L 293.249314 234.0288 
L 293.363208 173.8008 
L 293.477102 173.8008 
L 293.590996 234.0288 
L 293.70489 234.0288 
L 293.818784 173.8008 
L 293.932678 173.8008 
L 294.046572 143.6868 
L 294.160466 143.6868 
L 294.27436 173.8008 
L 294.388253 173.8008 
L 294.502147 234.0288 
L 294.616041 234.0288 
L 294.729935 173.8008 
L 295.527192 173.8008 
L 295.641086 143.6868 
L 295.982768 143.6868 
L 296.096662 173.8008 
L 296.438344 173.8008 
L 296.552237 234.0288 
L 296.666131 234.0288 
L 296.780025 173.8008 
L 297.121707 173.8008 
L 297.235601 234.0288 
L 297.349495 234.0288 
L 297.463389 173.8008 
L 298.260646 173.8008 
L 298.37454 234.0288 
L 298.488434 234.0288 
L 298.602328 173.8008 
L 298.716221 173.8008 
L 298.830115 234.0288 
L 298.944009 234.0288 
L 299.057903 294.2568 
L 299.171797 294.2568 
L 299.285691 173.8008 
L 299.85516 173.8008 
L 299.969054 234.0288 
L 300.310736 234.0288 
L 300.42463 173.8008 
L 300.994099 173.8008 
L 301.107993 234.0288 
L 301.449675 234.0288 
L 301.563569 173.8008 
L 302.133038 173.8008 
L 302.246932 143.6868 
L 302.588614 143.6868 
L 302.702508 234.0288 
L 302.816402 234.0288 
L 302.930295 173.8008 
L 303.271977 173.8008 
L 303.385871 234.0288 
L 303.727553 234.0288 
L 303.841447 173.8008 
L 304.183128 173.8008 
L 304.297022 143.6868 
L 304.410916 143.6868 
L 304.52481 173.8008 
L 304.638704 173.8008 
L 304.752598 143.6868 
L 304.866492 143.6868 
L 304.980386 173.8008 
L 306.688794 173.8008 
L 306.802688 234.0288 
L 306.916582 234.0288 
L 307.030476 143.6868 
L 307.372157 143.6868 
L 307.486051 173.8008 
L 307.827733 173.8008 
L 307.941627 143.6868 
L 308.055521 143.6868 
L 308.169415 173.8008 
L 308.283309 173.8008 
L 308.397202 143.6868 
L 308.511096 143.6868 
L 308.62499 173.8008 
L 308.738884 173.8008 
L 308.852778 143.6868 
L 308.966672 143.6868 
L 309.080566 173.8008 
L 309.19446 173.8008 
L 309.308354 143.6868 
L 309.650035 143.6868 
L 309.763929 173.8008 
L 309.877823 173.8008 
L 309.991717 143.6868 
L 310.105611 143.6868 
L 310.219505 173.8008 
L 310.333399 173.8008 
L 310.447293 143.6868 
L 310.561186 143.6868 
L 310.67508 173.8008 
L 311.24455 173.8008 
L 311.358444 234.0288 
L 311.472338 234.0288 
L 311.586231 173.8008 
L 311.700125 173.8008 
L 311.814019 143.6868 
L 311.927913 143.6868 
L 312.041807 173.8008 
L 312.383489 173.8008 
L 312.497383 143.6868 
L 312.839064 143.6868 
L 312.952958 173.8008 
L 313.066852 173.8008 
L 313.180746 234.0288 
L 313.29464 234.0288 
L 313.408534 173.8008 
L 313.978003 173.8008 
L 314.091897 234.0288 
L 314.205791 234.0288 
L 314.319685 173.8008 
L 314.889154 173.8008 
L 315.003048 143.6868 
L 315.34473 143.6868 
L 315.458624 234.0288 
L 315.800306 234.0288 
L 315.914199 143.6868 
L 316.028093 143.6868 
L 316.141987 173.8008 
L 317.167032 173.8008 
L 317.280926 234.0288 
L 317.39482 234.0288 
L 317.508714 143.6868 
L 317.622608 143.6868 
L 317.736502 234.0288 
L 317.850396 234.0288 
L 317.96429 143.6868 
L 318.533759 143.6868 
L 318.647653 173.8008 
L 319.217122 173.8008 
L 319.331016 234.0288 
L 319.44491 234.0288 
L 319.558804 173.8008 
L 320.811637 173.8008 
L 320.925531 234.0288 
L 321.267212 234.0288 
L 321.381106 143.6868 
L 321.495 143.6868 
L 321.608894 173.8008 
L 321.722788 173.8008 
L 321.836682 143.6868 
L 322.178364 143.6868 
L 322.292257 234.0288 
L 322.406151 234.0288 
L 322.520045 173.8008 
L 322.861727 173.8008 
L 322.975621 143.6868 
L 323.089515 143.6868 
L 323.203409 234.0288 
L 323.54509 234.0288 
L 323.658984 173.8008 
L 323.772878 173.8008 
L 323.886772 234.0288 
L 324.000666 234.0288 
L 324.11456 173.8008 
L 324.456241 173.8008 
L 324.570135 234.0288 
L 324.684029 234.0288 
L 324.797923 173.8008 
L 325.59518 173.8008 
L 325.709074 234.0288 
L 326.050756 234.0288 
L 326.16465 173.8008 
L 326.734119 173.8008 
L 326.848013 234.0288 
L 327.189695 234.0288 
L 327.303589 173.8008 
L 328.100846 173.8008 
L 328.21474 143.6868 
L 328.328634 143.6868 
L 328.442528 173.8008 
L 328.784209 173.8008 
L 328.898103 234.0288 
L 329.239785 234.0288 
L 329.353679 173.8008 
L 331.745451 173.8008 
L 331.859345 234.0288 
L 331.973239 234.0288 
L 332.087132 173.8008 
L 332.428814 173.8008 
L 332.542708 234.0288 
L 332.656602 234.0288 
L 332.770496 173.8008 
L 333.112177 173.8008 
L 333.226071 234.0288 
L 333.339965 234.0288 
L 333.453859 173.8008 
L 333.795541 173.8008 
L 333.909435 234.0288 
L 334.023329 234.0288 
L 334.137222 173.8008 
L 334.251116 173.8008 
L 334.36501 234.0288 
L 334.478904 234.0288 
L 334.592798 143.6868 
L 334.706692 143.6868 
L 334.820586 173.8008 
L 335.162268 173.8008 
L 335.276161 53.3448 
L 335.390055 53.3448 
L 335.503949 173.8008 
L 335.617843 173.8008 
L 335.731737 234.0288 
L 335.845631 234.0288 
L 335.959525 173.8008 
L 336.073419 173.8008 
L 336.187313 234.0288 
L 336.528994 234.0288 
L 336.642888 294.2568 
L 336.756782 294.2568 
L 336.870676 173.8008 
L 337.440145 173.8008 
L 337.554039 143.6868 
L 337.667933 143.6868 
L 337.781827 173.8008 
L 338.806872 173.8008 
L 338.920766 234.0288 
L 339.03466 234.0288 
L 339.148554 173.8008 
L 339.945811 173.8008 
L 340.059705 234.0288 
L 340.173599 234.0288 
L 340.287493 173.8008 
L 340.401387 173.8008 
L 340.515281 234.0288 
L 340.629174 234.0288 
L 340.743068 173.8008 
L 341.08475 173.8008 
L 341.198644 234.0288 
L 341.312538 234.0288 
L 341.426432 173.8008 
L 341.540326 173.8008 
L 341.65422 143.6868 
L 341.768113 143.6868 
L 341.882007 173.8008 
L 342.451477 173.8008 
L 342.565371 143.6868 
L 342.679265 143.6868 
L 342.793158 234.0288 
L 342.907052 234.0288 
L 343.020946 173.8008 
L 343.13484 173.8008 
L 343.248734 143.6868 
L 343.362628 143.6868 
L 343.476522 173.8008 
L 343.590416 173.8008 
L 343.70431 143.6868 
L 344.045991 143.6868 
L 344.159885 173.8008 
L 344.957142 173.8008 
L 345.071036 234.0288 
L 345.412718 234.0288 
L 345.526612 173.8008 
L 345.640506 173.8008 
L 345.7544 234.0288 
L 345.868294 234.0288 
L 345.982187 173.8008 
L 346.096081 173.8008 
L 346.209975 143.6868 
L 346.323869 143.6868 
L 346.437763 173.8008 
L 346.551657 173.8008 
L 346.665551 143.6868 
L 346.779445 143.6868 
L 346.893339 173.8008 
L 347.690596 173.8008 
L 347.80449 143.6868 
L 347.918384 143.6868 
L 348.032278 173.8008 
L 349.057323 173.8008 
L 349.171217 143.6868 
L 349.28511 143.6868 
L 349.399004 173.8008 
L 349.512898 173.8008 
L 349.626792 234.0288 
L 349.968474 234.0288 
L 350.082368 173.8008 
L 350.651837 173.8008 
L 350.765731 234.0288 
L 350.879625 234.0288 
L 350.993519 143.6868 
L 351.335201 143.6868 
L 351.449094 173.8008 
L 351.562988 173.8008 
L 351.676882 234.0288 
L 352.018564 234.0288 
L 352.132458 173.8008 
L 352.246352 173.8008 
L 352.360246 143.6868 
L 352.701927 143.6868 
L 352.815821 173.8008 
L 352.929715 173.8008 
L 353.043609 234.0288 
L 353.157503 234.0288 
L 353.271397 173.8008 
L 353.385291 173.8008 
L 353.499185 234.0288 
L 353.840866 234.0288 
L 353.95476 143.6868 
L 354.068654 143.6868 
L 354.182548 173.8008 
L 354.296442 173.8008 
L 354.410336 234.0288 
L 354.752017 234.0288 
L 354.865911 173.8008 
L 354.979805 173.8008 
L 355.093699 143.6868 
L 355.207593 143.6868 
L 355.321487 234.0288 
L 355.435381 234.0288 
L 355.549275 173.8008 
L 356.57432 173.8008 
L 356.688214 234.0288 
L 357.029895 234.0288 
L 357.143789 173.8008 
L 357.941046 173.8008 
L 358.05494 234.0288 
L 358.168834 234.0288 
L 358.282728 173.8008 
L 358.396622 173.8008 
L 358.510516 143.6868 
L 358.62441 143.6868 
L 358.738304 173.8008 
L 359.079985 173.8008 
L 359.193879 234.0288 
L 359.307773 234.0288 
L 359.421667 173.8008 
L 359.763349 173.8008 
L 359.877243 234.0288 
L 359.991136 234.0288 
L 360.10503 173.8008 
L 360.6745 173.8008 
L 360.788394 143.6868 
L 360.902288 143.6868 
L 361.016182 173.8008 
L 361.130075 173.8008 
L 361.243969 143.6868 
L 361.357863 143.6868 
L 361.471757 234.0288 
L 361.585651 234.0288 
L 361.699545 173.8008 
L 361.813439 173.8008 
L 361.927333 234.0288 
L 362.041227 234.0288 
L 362.15512 173.8008 
L 362.269014 173.8008 
L 362.382908 234.0288 
L 362.496802 234.0288 
L 362.610696 173.8008 
L 363.180166 173.8008 
L 363.294059 143.6868 
L 363.407953 143.6868 
L 363.521847 173.8008 
L 363.635741 173.8008 
L 363.749635 234.0288 
L 364.091317 234.0288 
L 364.205211 173.8008 
L 365.002468 173.8008 
L 365.116362 143.6868 
L 365.230256 143.6868 
L 365.34415 234.0288 
L 365.458043 234.0288 
L 365.571937 173.8008 
L 367.508134 173.8008 
L 367.622027 234.0288 
L 368.191497 234.0288 
L 368.305391 173.8008 
L 368.419285 173.8008 
L 368.533179 234.0288 
L 368.647072 234.0288 
L 368.760966 173.8008 
L 368.87486 173.8008 
L 368.988754 234.0288 
L 369.102648 234.0288 
L 369.216542 173.8008 
L 369.330436 173.8008 
L 369.44433 234.0288 
L 370.469375 234.0288 
L 370.583269 173.8008 
L 370.697163 173.8008 
L 370.811056 143.6868 
L 370.92495 143.6868 
L 371.038844 173.8008 
L 371.152738 173.8008 
L 371.266632 234.0288 
L 371.380526 234.0288 
L 371.49442 173.8008 
L 371.608314 173.8008 
L 371.722208 234.0288 
L 371.836101 234.0288 
L 371.949995 173.8008 
L 372.063889 173.8008 
L 372.177783 234.0288 
L 372.291677 234.0288 
L 372.405571 173.8008 
L 373.658404 173.8008 
L 373.772298 234.0288 
L 373.886192 234.0288 
L 374.000085 173.8008 
L 374.113979 173.8008 
L 374.227873 234.0288 
L 374.341767 234.0288 
L 374.455661 173.8008 
L 375.025131 173.8008 
L 375.139024 143.6868 
L 375.252918 143.6868 
L 375.366812 173.8008 
L 375.708494 173.8008 
L 375.822388 234.0288 
L 375.936282 234.0288 
L 376.050176 173.8008 
L 376.164069 173.8008 
L 376.277963 234.0288 
L 376.391857 234.0288 
L 376.505751 173.8008 
L 377.303008 173.8008 
L 377.416902 234.0288 
L 377.758584 234.0288 
L 377.872478 173.8008 
L 377.986372 173.8008 
L 378.100266 234.0288 
L 378.897523 234.0288 
L 379.011417 173.8008 
L 379.125311 173.8008 
L 379.239205 234.0288 
L 381.630976 234.0288 
L 381.74487 294.2568 
L 381.858764 294.2568 
L 381.972658 234.0288 
L 382.31434 234.0288 
L 382.428234 294.2568 
L 382.542128 294.2568 
L 382.656021 173.8008 
L 382.769915 173.8008 
L 382.883809 234.0288 
L 383.225491 234.0288 
L 383.339385 173.8008 
L 383.453279 173.8008 
L 383.567173 234.0288 
L 383.908854 234.0288 
L 384.022748 294.2568 
L 384.136642 294.2568 
L 384.250536 234.0288 
L 384.592218 234.0288 
L 384.706112 294.2568 
L 384.820005 294.2568 
L 384.933899 173.8008 
L 385.275581 173.8008 
L 385.389475 234.0288 
L 386.41452 234.0288 
L 386.528414 294.2568 
L 386.642308 294.2568 
L 386.756202 173.8008 
L 387.553459 173.8008 
L 387.667353 234.0288 
L 387.781247 234.0288 
L 387.895141 173.8008 
L 388.009034 173.8008 
L 388.122928 234.0288 
L 388.236822 234.0288 
L 388.350716 173.8008 
L 388.692398 173.8008 
L 388.806292 234.0288 
L 388.920186 234.0288 
L 389.03408 173.8008 
L 389.375761 173.8008 
L 389.489655 234.0288 
L 390.059125 234.0288 
L 390.173018 173.8008 
L 390.286912 173.8008 
L 390.400806 234.0288 
L 390.5147 234.0288 
L 390.628594 173.8008 
L 390.742488 173.8008 
L 390.856382 234.0288 
L 390.970276 234.0288 
L 391.08417 173.8008 
L 391.425851 173.8008 
L 391.539745 234.0288 
L 391.653639 234.0288 
L 391.767533 173.8008 
L 392.109215 173.8008 
L 392.223109 143.6868 
L 392.337002 143.6868 
L 392.450896 234.0288 
L 392.56479 234.0288 
L 392.678684 173.8008 
L 392.792578 173.8008 
L 392.906472 234.0288 
L 393.020366 234.0288 
L 393.13426 294.2568 
L 393.248154 294.2568 
L 393.362047 234.0288 
L 393.475941 234.0288 
L 393.589835 173.8008 
L 393.703729 173.8008 
L 393.817623 294.2568 
L 393.931517 294.2568 
L 394.045411 173.8008 
L 394.159305 173.8008 
L 394.273199 234.0288 
L 394.842668 234.0288 
L 394.956562 173.8008 
L 395.298244 173.8008 
L 395.412138 234.0288 
L 395.753819 234.0288 
L 395.867713 173.8008 
L 396.66497 173.8008 
L 396.778864 234.0288 
L 396.892758 234.0288 
L 397.006652 173.8008 
L 397.120546 173.8008 
L 397.23444 234.0288 
L 397.803909 234.0288 
L 397.917803 173.8008 
L 398.259485 173.8008 
L 398.373379 234.0288 
L 398.487273 234.0288 
L 398.487273 234.0288 
" style="fill:none;stroke:#1f77b4;stroke-linecap:square;stroke-width:1.5;"/>
   </g>
   <g id="patch_3">
    <path d="M 57.6 306.3024 
L 57.6 41.2992 
" style="fill:none;stroke:#000000;stroke-linecap:square;stroke-linejoin:miter;stroke-width:0.8;"/>
   </g>
   <g id="patch_4">
    <path d="M 414.72 306.3024 
L 414.72 41.2992 
" style="fill:none;stroke:#000000;stroke-linecap:square;stroke-linejoin:miter;stroke-width:0.8;"/>
   </g>
   <g id="patch_5">
    <path d="M 57.6 306.3024 
L 414.72 306.3024 
" style="fill:none;stroke:#000000;stroke-linecap:square;stroke-linejoin:miter;stroke-width:0.8;"/>
   </g>
   <g id="patch_6">
    <path d="M 57.6 41.2992 
L 414.72 41.2992 
" style="fill:none;stroke:#000000;stroke-linecap:square;stroke-linejoin:miter;stroke-width:0.8;"/>
   </g>
   <g id="text_18">
    <!-- Tempertura -->
    <g transform="translate(200.709375 35.2992)scale(0.12 -0.12)">
     <use xlink:href="#DejaVuSans-84"/>
     <use x="60.818359" xlink:href="#DejaVuSans-101"/>
     <use x="122.341797" xlink:href="#DejaVuSans-109"/>
     <use x="219.753906" xlink:href="#DejaVuSans-112"/>
     <use x="283.230469" xlink:href="#DejaVuSans-101"/>
     <use x="344.753906" xlink:href="#DejaVuSans-114"/>
     <use x="385.867188" xlink:href="#DejaVuSans-116"/>
     <use x="425.076172" xlink:href="#DejaVuSans-117"/>
     <use x="488.455078" xlink:href="#DejaVuSans-114"/>
     <use x="529.568359" xlink:href="#DejaVuSans-97"/>
    </g>
   </g>
  </g>
 </g>
 <defs>
  <clipPath id="p9de4b79ef1">
   <rect height="265.0032" width="357.12" x="57.6" y="41.2992"/>
  </clipPath>
 </defs>
</svg>
