<?xml version="1.0" encoding="utf-8" standalone="no"?>
<!DOCTYPE svg PUBLIC "-//W3C//DTD SVG 1.1//EN"
  "http://www.w3.org/Graphics/SVG/1.1/DTD/svg11.dtd">
<!-- Created with matplotlib (https://matplotlib.org/) -->
<svg height="344.16pt" version="1.1" viewBox="0 0 460.8 344.16" width="460.8pt" xmlns="http://www.w3.org/2000/svg" xmlns:xlink="http://www.w3.org/1999/xlink">
 <defs>
  <style type="text/css">
*{stroke-linecap:butt;stroke-linejoin:round;}
  </style>
 </defs>
 <g id="figure_1">
  <g id="patch_1">
   <path d="M 0 344.16 
L 460.8 344.16 
L 460.8 0 
L 0 0 
z
" style="fill:#ffffff;"/>
  </g>
  <g id="axes_1">
   <g id="patch_2">
    <path d="M 57.6 306.3024 
L 414.72 306.3024 
L 414.72 41.2992 
L 57.6 41.2992 
z
" style="fill:#ffffff;"/>
   </g>
   <g id="matplotlib.axis_1">
    <g id="xtick_1">
     <g id="line2d_1">
      <defs>
       <path d="M 0 0 
L 0 3.5 
" id="mabeb67f670" style="stroke:#000000;stroke-width:0.8;"/>
      </defs>
      <g>
       <use style="stroke:#000000;stroke-width:0.8;" x="73.832727" xlink:href="#mabeb67f670" y="306.3024"/>
      </g>
     </g>
     <g id="text_1">
      <!-- 0 -->
      <defs>
       <path d="M 31.78125 66.40625 
Q 24.171875 66.40625 20.328125 58.90625 
Q 16.5 51.421875 16.5 36.375 
Q 16.5 21.390625 20.328125 13.890625 
Q 24.171875 6.390625 31.78125 6.390625 
Q 39.453125 6.390625 43.28125 13.890625 
Q 47.125 21.390625 47.125 36.375 
Q 47.125 51.421875 43.28125 58.90625 
Q 39.453125 66.40625 31.78125 66.40625 
z
M 31.78125 74.21875 
Q 44.046875 74.21875 50.515625 64.515625 
Q 56.984375 54.828125 56.984375 36.375 
Q 56.984375 17.96875 50.515625 8.265625 
Q 44.046875 -1.421875 31.78125 -1.421875 
Q 19.53125 -1.421875 13.0625 8.265625 
Q 6.59375 17.96875 6.59375 36.375 
Q 6.59375 54.828125 13.0625 64.515625 
Q 19.53125 74.21875 31.78125 74.21875 
z
" id="DejaVuSans-48"/>
      </defs>
      <g transform="translate(70.651477 320.900838)scale(0.1 -0.1)">
       <use xlink:href="#DejaVuSans-48"/>
      </g>
     </g>
    </g>
    <g id="xtick_2">
     <g id="line2d_2">
      <g>
       <use style="stroke:#000000;stroke-width:0.8;" x="115.263884" xlink:href="#mabeb67f670" y="306.3024"/>
      </g>
     </g>
     <g id="text_2">
      <!-- 1000 -->
      <defs>
       <path d="M 12.40625 8.296875 
L 28.515625 8.296875 
L 28.515625 63.921875 
L 10.984375 60.40625 
L 10.984375 69.390625 
L 28.421875 72.90625 
L 38.28125 72.90625 
L 38.28125 8.296875 
L 54.390625 8.296875 
L 54.390625 0 
L 12.40625 0 
z
" id="DejaVuSans-49"/>
      </defs>
      <g transform="translate(102.538884 320.900838)scale(0.1 -0.1)">
       <use xlink:href="#DejaVuSans-49"/>
       <use x="63.623047" xlink:href="#DejaVuSans-48"/>
       <use x="127.246094" xlink:href="#DejaVuSans-48"/>
       <use x="190.869141" xlink:href="#DejaVuSans-48"/>
      </g>
     </g>
    </g>
    <g id="xtick_3">
     <g id="line2d_3">
      <g>
       <use style="stroke:#000000;stroke-width:0.8;" x="156.695041" xlink:href="#mabeb67f670" y="306.3024"/>
      </g>
     </g>
     <g id="text_3">
      <!-- 2000 -->
      <defs>
       <path d="M 19.1875 8.296875 
L 53.609375 8.296875 
L 53.609375 0 
L 7.328125 0 
L 7.328125 8.296875 
Q 12.9375 14.109375 22.625 23.890625 
Q 32.328125 33.6875 34.8125 36.53125 
Q 39.546875 41.84375 41.421875 45.53125 
Q 43.3125 49.21875 43.3125 52.78125 
Q 43.3125 58.59375 39.234375 62.25 
Q 35.15625 65.921875 28.609375 65.921875 
Q 23.96875 65.921875 18.8125 64.3125 
Q 13.671875 62.703125 7.8125 59.421875 
L 7.8125 69.390625 
Q 13.765625 71.78125 18.9375 73 
Q 24.125 74.21875 28.421875 74.21875 
Q 39.75 74.21875 46.484375 68.546875 
Q 53.21875 62.890625 53.21875 53.421875 
Q 53.21875 48.921875 51.53125 44.890625 
Q 49.859375 40.875 45.40625 35.40625 
Q 44.1875 33.984375 37.640625 27.21875 
Q 31.109375 20.453125 19.1875 8.296875 
z
" id="DejaVuSans-50"/>
      </defs>
      <g transform="translate(143.970041 320.900838)scale(0.1 -0.1)">
       <use xlink:href="#DejaVuSans-50"/>
       <use x="63.623047" xlink:href="#DejaVuSans-48"/>
       <use x="127.246094" xlink:href="#DejaVuSans-48"/>
       <use x="190.869141" xlink:href="#DejaVuSans-48"/>
      </g>
     </g>
    </g>
    <g id="xtick_4">
     <g id="line2d_4">
      <g>
       <use style="stroke:#000000;stroke-width:0.8;" x="198.126198" xlink:href="#mabeb67f670" y="306.3024"/>
      </g>
     </g>
     <g id="text_4">
      <!-- 3000 -->
      <defs>
       <path d="M 40.578125 39.3125 
Q 47.65625 37.796875 51.625 33 
Q 55.609375 28.21875 55.609375 21.1875 
Q 55.609375 10.40625 48.1875 4.484375 
Q 40.765625 -1.421875 27.09375 -1.421875 
Q 22.515625 -1.421875 17.65625 -0.515625 
Q 12.796875 0.390625 7.625 2.203125 
L 7.625 11.71875 
Q 11.71875 9.328125 16.59375 8.109375 
Q 21.484375 6.890625 26.8125 6.890625 
Q 36.078125 6.890625 40.9375 10.546875 
Q 45.796875 14.203125 45.796875 21.1875 
Q 45.796875 27.640625 41.28125 31.265625 
Q 36.765625 34.90625 28.71875 34.90625 
L 20.21875 34.90625 
L 20.21875 43.015625 
L 29.109375 43.015625 
Q 36.375 43.015625 40.234375 45.921875 
Q 44.09375 48.828125 44.09375 54.296875 
Q 44.09375 59.90625 40.109375 62.90625 
Q 36.140625 65.921875 28.71875 65.921875 
Q 24.65625 65.921875 20.015625 65.03125 
Q 15.375 64.15625 9.8125 62.3125 
L 9.8125 71.09375 
Q 15.4375 72.65625 20.34375 73.4375 
Q 25.25 74.21875 29.59375 74.21875 
Q 40.828125 74.21875 47.359375 69.109375 
Q 53.90625 64.015625 53.90625 55.328125 
Q 53.90625 49.265625 50.4375 45.09375 
Q 46.96875 40.921875 40.578125 39.3125 
z
" id="DejaVuSans-51"/>
      </defs>
      <g transform="translate(185.401198 320.900838)scale(0.1 -0.1)">
       <use xlink:href="#DejaVuSans-51"/>
       <use x="63.623047" xlink:href="#DejaVuSans-48"/>
       <use x="127.246094" xlink:href="#DejaVuSans-48"/>
       <use x="190.869141" xlink:href="#DejaVuSans-48"/>
      </g>
     </g>
    </g>
    <g id="xtick_5">
     <g id="line2d_5">
      <g>
       <use style="stroke:#000000;stroke-width:0.8;" x="239.557355" xlink:href="#mabeb67f670" y="306.3024"/>
      </g>
     </g>
     <g id="text_5">
      <!-- 4000 -->
      <defs>
       <path d="M 37.796875 64.3125 
L 12.890625 25.390625 
L 37.796875 25.390625 
z
M 35.203125 72.90625 
L 47.609375 72.90625 
L 47.609375 25.390625 
L 58.015625 25.390625 
L 58.015625 17.1875 
L 47.609375 17.1875 
L 47.609375 0 
L 37.796875 0 
L 37.796875 17.1875 
L 4.890625 17.1875 
L 4.890625 26.703125 
z
" id="DejaVuSans-52"/>
      </defs>
      <g transform="translate(226.832355 320.900838)scale(0.1 -0.1)">
       <use xlink:href="#DejaVuSans-52"/>
       <use x="63.623047" xlink:href="#DejaVuSans-48"/>
       <use x="127.246094" xlink:href="#DejaVuSans-48"/>
       <use x="190.869141" xlink:href="#DejaVuSans-48"/>
      </g>
     </g>
    </g>
    <g id="xtick_6">
     <g id="line2d_6">
      <g>
       <use style="stroke:#000000;stroke-width:0.8;" x="280.988512" xlink:href="#mabeb67f670" y="306.3024"/>
      </g>
     </g>
     <g id="text_6">
      <!-- 5000 -->
      <defs>
       <path d="M 10.796875 72.90625 
L 49.515625 72.90625 
L 49.515625 64.59375 
L 19.828125 64.59375 
L 19.828125 46.734375 
Q 21.96875 47.46875 24.109375 47.828125 
Q 26.265625 48.1875 28.421875 48.1875 
Q 40.625 48.1875 47.75 41.5 
Q 54.890625 34.8125 54.890625 23.390625 
Q 54.890625 11.625 47.5625 5.09375 
Q 40.234375 -1.421875 26.90625 -1.421875 
Q 22.3125 -1.421875 17.546875 -0.640625 
Q 12.796875 0.140625 7.71875 1.703125 
L 7.71875 11.625 
Q 12.109375 9.234375 16.796875 8.0625 
Q 21.484375 6.890625 26.703125 6.890625 
Q 35.15625 6.890625 40.078125 11.328125 
Q 45.015625 15.765625 45.015625 23.390625 
Q 45.015625 31 40.078125 35.4375 
Q 35.15625 39.890625 26.703125 39.890625 
Q 22.75 39.890625 18.8125 39.015625 
Q 14.890625 38.140625 10.796875 36.28125 
z
" id="DejaVuSans-53"/>
      </defs>
      <g transform="translate(268.263512 320.900838)scale(0.1 -0.1)">
       <use xlink:href="#DejaVuSans-53"/>
       <use x="63.623047" xlink:href="#DejaVuSans-48"/>
       <use x="127.246094" xlink:href="#DejaVuSans-48"/>
       <use x="190.869141" xlink:href="#DejaVuSans-48"/>
      </g>
     </g>
    </g>
    <g id="xtick_7">
     <g id="line2d_7">
      <g>
       <use style="stroke:#000000;stroke-width:0.8;" x="322.419669" xlink:href="#mabeb67f670" y="306.3024"/>
      </g>
     </g>
     <g id="text_7">
      <!-- 6000 -->
      <defs>
       <path d="M 33.015625 40.375 
Q 26.375 40.375 22.484375 35.828125 
Q 18.609375 31.296875 18.609375 23.390625 
Q 18.609375 15.53125 22.484375 10.953125 
Q 26.375 6.390625 33.015625 6.390625 
Q 39.65625 6.390625 43.53125 10.953125 
Q 47.40625 15.53125 47.40625 23.390625 
Q 47.40625 31.296875 43.53125 35.828125 
Q 39.65625 40.375 33.015625 40.375 
z
M 52.59375 71.296875 
L 52.59375 62.3125 
Q 48.875 64.0625 45.09375 64.984375 
Q 41.3125 65.921875 37.59375 65.921875 
Q 27.828125 65.921875 22.671875 59.328125 
Q 17.53125 52.734375 16.796875 39.40625 
Q 19.671875 43.65625 24.015625 45.921875 
Q 28.375 48.1875 33.59375 48.1875 
Q 44.578125 48.1875 50.953125 41.515625 
Q 57.328125 34.859375 57.328125 23.390625 
Q 57.328125 12.15625 50.6875 5.359375 
Q 44.046875 -1.421875 33.015625 -1.421875 
Q 20.359375 -1.421875 13.671875 8.265625 
Q 6.984375 17.96875 6.984375 36.375 
Q 6.984375 53.65625 15.1875 63.9375 
Q 23.390625 74.21875 37.203125 74.21875 
Q 40.921875 74.21875 44.703125 73.484375 
Q 48.484375 72.75 52.59375 71.296875 
z
" id="DejaVuSans-54"/>
      </defs>
      <g transform="translate(309.694669 320.900838)scale(0.1 -0.1)">
       <use xlink:href="#DejaVuSans-54"/>
       <use x="63.623047" xlink:href="#DejaVuSans-48"/>
       <use x="127.246094" xlink:href="#DejaVuSans-48"/>
       <use x="190.869141" xlink:href="#DejaVuSans-48"/>
      </g>
     </g>
    </g>
    <g id="xtick_8">
     <g id="line2d_8">
      <g>
       <use style="stroke:#000000;stroke-width:0.8;" x="363.850826" xlink:href="#mabeb67f670" y="306.3024"/>
      </g>
     </g>
     <g id="text_8">
      <!-- 7000 -->
      <defs>
       <path d="M 8.203125 72.90625 
L 55.078125 72.90625 
L 55.078125 68.703125 
L 28.609375 0 
L 18.3125 0 
L 43.21875 64.59375 
L 8.203125 64.59375 
z
" id="DejaVuSans-55"/>
      </defs>
      <g transform="translate(351.125826 320.900838)scale(0.1 -0.1)">
       <use xlink:href="#DejaVuSans-55"/>
       <use x="63.623047" xlink:href="#DejaVuSans-48"/>
       <use x="127.246094" xlink:href="#DejaVuSans-48"/>
       <use x="190.869141" xlink:href="#DejaVuSans-48"/>
      </g>
     </g>
    </g>
    <g id="xtick_9">
     <g id="line2d_9">
      <g>
       <use style="stroke:#000000;stroke-width:0.8;" x="405.281982" xlink:href="#mabeb67f670" y="306.3024"/>
      </g>
     </g>
     <g id="text_9">
      <!-- 8000 -->
      <defs>
       <path d="M 31.78125 34.625 
Q 24.75 34.625 20.71875 30.859375 
Q 16.703125 27.09375 16.703125 20.515625 
Q 16.703125 13.921875 20.71875 10.15625 
Q 24.75 6.390625 31.78125 6.390625 
Q 38.8125 6.390625 42.859375 10.171875 
Q 46.921875 13.96875 46.921875 20.515625 
Q 46.921875 27.09375 42.890625 30.859375 
Q 38.875 34.625 31.78125 34.625 
z
M 21.921875 38.8125 
Q 15.578125 40.375 12.03125 44.71875 
Q 8.5 49.078125 8.5 55.328125 
Q 8.5 64.0625 14.71875 69.140625 
Q 20.953125 74.21875 31.78125 74.21875 
Q 42.671875 74.21875 48.875 69.140625 
Q 55.078125 64.0625 55.078125 55.328125 
Q 55.078125 49.078125 51.53125 44.71875 
Q 48 40.375 41.703125 38.8125 
Q 48.828125 37.15625 52.796875 32.3125 
Q 56.78125 27.484375 56.78125 20.515625 
Q 56.78125 9.90625 50.3125 4.234375 
Q 43.84375 -1.421875 31.78125 -1.421875 
Q 19.734375 -1.421875 13.25 4.234375 
Q 6.78125 9.90625 6.78125 20.515625 
Q 6.78125 27.484375 10.78125 32.3125 
Q 14.796875 37.15625 21.921875 38.8125 
z
M 18.3125 54.390625 
Q 18.3125 48.734375 21.84375 45.5625 
Q 25.390625 42.390625 31.78125 42.390625 
Q 38.140625 42.390625 41.71875 45.5625 
Q 45.3125 48.734375 45.3125 54.390625 
Q 45.3125 60.0625 41.71875 63.234375 
Q 38.140625 66.40625 31.78125 66.40625 
Q 25.390625 66.40625 21.84375 63.234375 
Q 18.3125 60.0625 18.3125 54.390625 
z
" id="DejaVuSans-56"/>
      </defs>
      <g transform="translate(392.556982 320.900838)scale(0.1 -0.1)">
       <use xlink:href="#DejaVuSans-56"/>
       <use x="63.623047" xlink:href="#DejaVuSans-48"/>
       <use x="127.246094" xlink:href="#DejaVuSans-48"/>
       <use x="190.869141" xlink:href="#DejaVuSans-48"/>
      </g>
     </g>
    </g>
    <g id="text_10">
     <!-- Muestras -->
     <defs>
      <path d="M 9.8125 72.90625 
L 24.515625 72.90625 
L 43.109375 23.296875 
L 61.8125 72.90625 
L 76.515625 72.90625 
L 76.515625 0 
L 66.890625 0 
L 66.890625 64.015625 
L 48.09375 14.015625 
L 38.1875 14.015625 
L 19.390625 64.015625 
L 19.390625 0 
L 9.8125 0 
z
" id="DejaVuSans-77"/>
      <path d="M 8.5 21.578125 
L 8.5 54.6875 
L 17.484375 54.6875 
L 17.484375 21.921875 
Q 17.484375 14.15625 20.5 10.265625 
Q 23.53125 6.390625 29.59375 6.390625 
Q 36.859375 6.390625 41.078125 11.03125 
Q 45.3125 15.671875 45.3125 23.6875 
L 45.3125 54.6875 
L 54.296875 54.6875 
L 54.296875 0 
L 45.3125 0 
L 45.3125 8.40625 
Q 42.046875 3.421875 37.71875 1 
Q 33.40625 -1.421875 27.6875 -1.421875 
Q 18.265625 -1.421875 13.375 4.4375 
Q 8.5 10.296875 8.5 21.578125 
z
M 31.109375 56 
z
" id="DejaVuSans-117"/>
      <path d="M 56.203125 29.59375 
L 56.203125 25.203125 
L 14.890625 25.203125 
Q 15.484375 15.921875 20.484375 11.0625 
Q 25.484375 6.203125 34.421875 6.203125 
Q 39.59375 6.203125 44.453125 7.46875 
Q 49.3125 8.734375 54.109375 11.28125 
L 54.109375 2.78125 
Q 49.265625 0.734375 44.1875 -0.34375 
Q 39.109375 -1.421875 33.890625 -1.421875 
Q 20.796875 -1.421875 13.15625 6.1875 
Q 5.515625 13.8125 5.515625 26.8125 
Q 5.515625 40.234375 12.765625 48.109375 
Q 20.015625 56 32.328125 56 
Q 43.359375 56 49.78125 48.890625 
Q 56.203125 41.796875 56.203125 29.59375 
z
M 47.21875 32.234375 
Q 47.125 39.59375 43.09375 43.984375 
Q 39.0625 48.390625 32.421875 48.390625 
Q 24.90625 48.390625 20.390625 44.140625 
Q 15.875 39.890625 15.1875 32.171875 
z
" id="DejaVuSans-101"/>
      <path d="M 44.28125 53.078125 
L 44.28125 44.578125 
Q 40.484375 46.53125 36.375 47.5 
Q 32.28125 48.484375 27.875 48.484375 
Q 21.1875 48.484375 17.84375 46.4375 
Q 14.5 44.390625 14.5 40.28125 
Q 14.5 37.15625 16.890625 35.375 
Q 19.28125 33.59375 26.515625 31.984375 
L 29.59375 31.296875 
Q 39.15625 29.25 43.1875 25.515625 
Q 47.21875 21.78125 47.21875 15.09375 
Q 47.21875 7.46875 41.1875 3.015625 
Q 35.15625 -1.421875 24.609375 -1.421875 
Q 20.21875 -1.421875 15.453125 -0.5625 
Q 10.6875 0.296875 5.421875 2 
L 5.421875 11.28125 
Q 10.40625 8.6875 15.234375 7.390625 
Q 20.0625 6.109375 24.8125 6.109375 
Q 31.15625 6.109375 34.5625 8.28125 
Q 37.984375 10.453125 37.984375 14.40625 
Q 37.984375 18.0625 35.515625 20.015625 
Q 33.0625 21.96875 24.703125 23.78125 
L 21.578125 24.515625 
Q 13.234375 26.265625 9.515625 29.90625 
Q 5.8125 33.546875 5.8125 39.890625 
Q 5.8125 47.609375 11.28125 51.796875 
Q 16.75 56 26.8125 56 
Q 31.78125 56 36.171875 55.265625 
Q 40.578125 54.546875 44.28125 53.078125 
z
" id="DejaVuSans-115"/>
      <path d="M 18.3125 70.21875 
L 18.3125 54.6875 
L 36.8125 54.6875 
L 36.8125 47.703125 
L 18.3125 47.703125 
L 18.3125 18.015625 
Q 18.3125 11.328125 20.140625 9.421875 
Q 21.96875 7.515625 27.59375 7.515625 
L 36.8125 7.515625 
L 36.8125 0 
L 27.59375 0 
Q 17.1875 0 13.234375 3.875 
Q 9.28125 7.765625 9.28125 18.015625 
L 9.28125 47.703125 
L 2.6875 47.703125 
L 2.6875 54.6875 
L 9.28125 54.6875 
L 9.28125 70.21875 
z
" id="DejaVuSans-116"/>
      <path d="M 41.109375 46.296875 
Q 39.59375 47.171875 37.8125 47.578125 
Q 36.03125 48 33.890625 48 
Q 26.265625 48 22.1875 43.046875 
Q 18.109375 38.09375 18.109375 28.8125 
L 18.109375 0 
L 9.078125 0 
L 9.078125 54.6875 
L 18.109375 54.6875 
L 18.109375 46.1875 
Q 20.953125 51.171875 25.484375 53.578125 
Q 30.03125 56 36.53125 56 
Q 37.453125 56 38.578125 55.875 
Q 39.703125 55.765625 41.0625 55.515625 
z
" id="DejaVuSans-114"/>
      <path d="M 34.28125 27.484375 
Q 23.390625 27.484375 19.1875 25 
Q 14.984375 22.515625 14.984375 16.5 
Q 14.984375 11.71875 18.140625 8.90625 
Q 21.296875 6.109375 26.703125 6.109375 
Q 34.1875 6.109375 38.703125 11.40625 
Q 43.21875 16.703125 43.21875 25.484375 
L 43.21875 27.484375 
z
M 52.203125 31.203125 
L 52.203125 0 
L 43.21875 0 
L 43.21875 8.296875 
Q 40.140625 3.328125 35.546875 0.953125 
Q 30.953125 -1.421875 24.3125 -1.421875 
Q 15.921875 -1.421875 10.953125 3.296875 
Q 6 8.015625 6 15.921875 
Q 6 25.140625 12.171875 29.828125 
Q 18.359375 34.515625 30.609375 34.515625 
L 43.21875 34.515625 
L 43.21875 35.40625 
Q 43.21875 41.609375 39.140625 45 
Q 35.0625 48.390625 27.6875 48.390625 
Q 23 48.390625 18.546875 47.265625 
Q 14.109375 46.140625 10.015625 43.890625 
L 10.015625 52.203125 
Q 14.9375 54.109375 19.578125 55.046875 
Q 24.21875 56 28.609375 56 
Q 40.484375 56 46.34375 49.84375 
Q 52.203125 43.703125 52.203125 31.203125 
z
" id="DejaVuSans-97"/>
     </defs>
     <g transform="translate(213.311562 334.578963)scale(0.1 -0.1)">
      <use xlink:href="#DejaVuSans-77"/>
      <use x="86.279297" xlink:href="#DejaVuSans-117"/>
      <use x="149.658203" xlink:href="#DejaVuSans-101"/>
      <use x="211.181641" xlink:href="#DejaVuSans-115"/>
      <use x="263.28125" xlink:href="#DejaVuSans-116"/>
      <use x="302.490234" xlink:href="#DejaVuSans-114"/>
      <use x="343.603516" xlink:href="#DejaVuSans-97"/>
      <use x="404.882812" xlink:href="#DejaVuSans-115"/>
     </g>
    </g>
   </g>
   <g id="matplotlib.axis_2">
    <g id="ytick_1">
     <g id="line2d_10">
      <defs>
       <path d="M 0 0 
L -3.5 0 
" id="m4905132705" style="stroke:#000000;stroke-width:0.8;"/>
      </defs>
      <g>
       <use style="stroke:#000000;stroke-width:0.8;" x="57.6" xlink:href="#m4905132705" y="299.039303"/>
      </g>
     </g>
     <g id="text_11">
      <!-- 60 -->
      <g transform="translate(37.875 302.838521)scale(0.1 -0.1)">
       <use xlink:href="#DejaVuSans-54"/>
       <use x="63.623047" xlink:href="#DejaVuSans-48"/>
      </g>
     </g>
    </g>
    <g id="ytick_2">
     <g id="line2d_11">
      <g>
       <use style="stroke:#000000;stroke-width:0.8;" x="57.6" xlink:href="#m4905132705" y="246.484329"/>
      </g>
     </g>
     <g id="text_12">
      <!-- 80 -->
      <g transform="translate(37.875 250.283548)scale(0.1 -0.1)">
       <use xlink:href="#DejaVuSans-56"/>
       <use x="63.623047" xlink:href="#DejaVuSans-48"/>
      </g>
     </g>
    </g>
    <g id="ytick_3">
     <g id="line2d_12">
      <g>
       <use style="stroke:#000000;stroke-width:0.8;" x="57.6" xlink:href="#m4905132705" y="193.929355"/>
      </g>
     </g>
     <g id="text_13">
      <!-- 100 -->
      <g transform="translate(31.5125 197.728574)scale(0.1 -0.1)">
       <use xlink:href="#DejaVuSans-49"/>
       <use x="63.623047" xlink:href="#DejaVuSans-48"/>
       <use x="127.246094" xlink:href="#DejaVuSans-48"/>
      </g>
     </g>
    </g>
    <g id="ytick_4">
     <g id="line2d_13">
      <g>
       <use style="stroke:#000000;stroke-width:0.8;" x="57.6" xlink:href="#m4905132705" y="141.374381"/>
      </g>
     </g>
     <g id="text_14">
      <!-- 120 -->
      <g transform="translate(31.5125 145.1736)scale(0.1 -0.1)">
       <use xlink:href="#DejaVuSans-49"/>
       <use x="63.623047" xlink:href="#DejaVuSans-50"/>
       <use x="127.246094" xlink:href="#DejaVuSans-48"/>
      </g>
     </g>
    </g>
    <g id="ytick_5">
     <g id="line2d_14">
      <g>
       <use style="stroke:#000000;stroke-width:0.8;" x="57.6" xlink:href="#m4905132705" y="88.819407"/>
      </g>
     </g>
     <g id="text_15">
      <!-- 140 -->
      <g transform="translate(31.5125 92.618626)scale(0.1 -0.1)">
       <use xlink:href="#DejaVuSans-49"/>
       <use x="63.623047" xlink:href="#DejaVuSans-52"/>
       <use x="127.246094" xlink:href="#DejaVuSans-48"/>
      </g>
     </g>
    </g>
    <g id="text_16">
     <!-- Valor de Ritmo Cardíaco -->
     <defs>
      <path d="M 28.609375 0 
L 0.78125 72.90625 
L 11.078125 72.90625 
L 34.1875 11.53125 
L 57.328125 72.90625 
L 67.578125 72.90625 
L 39.796875 0 
z
" id="DejaVuSans-86"/>
      <path d="M 9.421875 75.984375 
L 18.40625 75.984375 
L 18.40625 0 
L 9.421875 0 
z
" id="DejaVuSans-108"/>
      <path d="M 30.609375 48.390625 
Q 23.390625 48.390625 19.1875 42.75 
Q 14.984375 37.109375 14.984375 27.296875 
Q 14.984375 17.484375 19.15625 11.84375 
Q 23.34375 6.203125 30.609375 6.203125 
Q 37.796875 6.203125 41.984375 11.859375 
Q 46.1875 17.53125 46.1875 27.296875 
Q 46.1875 37.015625 41.984375 42.703125 
Q 37.796875 48.390625 30.609375 48.390625 
z
M 30.609375 56 
Q 42.328125 56 49.015625 48.375 
Q 55.71875 40.765625 55.71875 27.296875 
Q 55.71875 13.875 49.015625 6.21875 
Q 42.328125 -1.421875 30.609375 -1.421875 
Q 18.84375 -1.421875 12.171875 6.21875 
Q 5.515625 13.875 5.515625 27.296875 
Q 5.515625 40.765625 12.171875 48.375 
Q 18.84375 56 30.609375 56 
z
" id="DejaVuSans-111"/>
      <path id="DejaVuSans-32"/>
      <path d="M 45.40625 46.390625 
L 45.40625 75.984375 
L 54.390625 75.984375 
L 54.390625 0 
L 45.40625 0 
L 45.40625 8.203125 
Q 42.578125 3.328125 38.25 0.953125 
Q 33.9375 -1.421875 27.875 -1.421875 
Q 17.96875 -1.421875 11.734375 6.484375 
Q 5.515625 14.40625 5.515625 27.296875 
Q 5.515625 40.1875 11.734375 48.09375 
Q 17.96875 56 27.875 56 
Q 33.9375 56 38.25 53.625 
Q 42.578125 51.265625 45.40625 46.390625 
z
M 14.796875 27.296875 
Q 14.796875 17.390625 18.875 11.75 
Q 22.953125 6.109375 30.078125 6.109375 
Q 37.203125 6.109375 41.296875 11.75 
Q 45.40625 17.390625 45.40625 27.296875 
Q 45.40625 37.203125 41.296875 42.84375 
Q 37.203125 48.484375 30.078125 48.484375 
Q 22.953125 48.484375 18.875 42.84375 
Q 14.796875 37.203125 14.796875 27.296875 
z
" id="DejaVuSans-100"/>
      <path d="M 44.390625 34.1875 
Q 47.5625 33.109375 50.5625 29.59375 
Q 53.5625 26.078125 56.59375 19.921875 
L 66.609375 0 
L 56 0 
L 46.6875 18.703125 
Q 43.0625 26.03125 39.671875 28.421875 
Q 36.28125 30.8125 30.421875 30.8125 
L 19.671875 30.8125 
L 19.671875 0 
L 9.8125 0 
L 9.8125 72.90625 
L 32.078125 72.90625 
Q 44.578125 72.90625 50.734375 67.671875 
Q 56.890625 62.453125 56.890625 51.90625 
Q 56.890625 45.015625 53.6875 40.46875 
Q 50.484375 35.9375 44.390625 34.1875 
z
M 19.671875 64.796875 
L 19.671875 38.921875 
L 32.078125 38.921875 
Q 39.203125 38.921875 42.84375 42.21875 
Q 46.484375 45.515625 46.484375 51.90625 
Q 46.484375 58.296875 42.84375 61.546875 
Q 39.203125 64.796875 32.078125 64.796875 
z
" id="DejaVuSans-82"/>
      <path d="M 9.421875 54.6875 
L 18.40625 54.6875 
L 18.40625 0 
L 9.421875 0 
z
M 9.421875 75.984375 
L 18.40625 75.984375 
L 18.40625 64.59375 
L 9.421875 64.59375 
z
" id="DejaVuSans-105"/>
      <path d="M 52 44.1875 
Q 55.375 50.25 60.0625 53.125 
Q 64.75 56 71.09375 56 
Q 79.640625 56 84.28125 50.015625 
Q 88.921875 44.046875 88.921875 33.015625 
L 88.921875 0 
L 79.890625 0 
L 79.890625 32.71875 
Q 79.890625 40.578125 77.09375 44.375 
Q 74.3125 48.1875 68.609375 48.1875 
Q 61.625 48.1875 57.5625 43.546875 
Q 53.515625 38.921875 53.515625 30.90625 
L 53.515625 0 
L 44.484375 0 
L 44.484375 32.71875 
Q 44.484375 40.625 41.703125 44.40625 
Q 38.921875 48.1875 33.109375 48.1875 
Q 26.21875 48.1875 22.15625 43.53125 
Q 18.109375 38.875 18.109375 30.90625 
L 18.109375 0 
L 9.078125 0 
L 9.078125 54.6875 
L 18.109375 54.6875 
L 18.109375 46.1875 
Q 21.1875 51.21875 25.484375 53.609375 
Q 29.78125 56 35.6875 56 
Q 41.65625 56 45.828125 52.96875 
Q 50 49.953125 52 44.1875 
z
" id="DejaVuSans-109"/>
      <path d="M 64.40625 67.28125 
L 64.40625 56.890625 
Q 59.421875 61.53125 53.78125 63.8125 
Q 48.140625 66.109375 41.796875 66.109375 
Q 29.296875 66.109375 22.65625 58.46875 
Q 16.015625 50.828125 16.015625 36.375 
Q 16.015625 21.96875 22.65625 14.328125 
Q 29.296875 6.6875 41.796875 6.6875 
Q 48.140625 6.6875 53.78125 8.984375 
Q 59.421875 11.28125 64.40625 15.921875 
L 64.40625 5.609375 
Q 59.234375 2.09375 53.4375 0.328125 
Q 47.65625 -1.421875 41.21875 -1.421875 
Q 24.65625 -1.421875 15.125 8.703125 
Q 5.609375 18.84375 5.609375 36.375 
Q 5.609375 53.953125 15.125 64.078125 
Q 24.65625 74.21875 41.21875 74.21875 
Q 47.75 74.21875 53.53125 72.484375 
Q 59.328125 70.75 64.40625 67.28125 
z
" id="DejaVuSans-67"/>
      <path d="M 20.703125 79.984375 
L 30.421875 79.984375 
L 14.5 61.625 
L 7.03125 61.625 
z
M 9.421875 54.6875 
L 18.40625 54.6875 
L 18.40625 0 
L 9.421875 0 
z
M 13.921875 56 
z
" id="DejaVuSans-237"/>
      <path d="M 48.78125 52.59375 
L 48.78125 44.1875 
Q 44.96875 46.296875 41.140625 47.34375 
Q 37.3125 48.390625 33.40625 48.390625 
Q 24.65625 48.390625 19.8125 42.84375 
Q 14.984375 37.3125 14.984375 27.296875 
Q 14.984375 17.28125 19.8125 11.734375 
Q 24.65625 6.203125 33.40625 6.203125 
Q 37.3125 6.203125 41.140625 7.25 
Q 44.96875 8.296875 48.78125 10.40625 
L 48.78125 2.09375 
Q 45.015625 0.34375 40.984375 -0.53125 
Q 36.96875 -1.421875 32.421875 -1.421875 
Q 20.0625 -1.421875 12.78125 6.34375 
Q 5.515625 14.109375 5.515625 27.296875 
Q 5.515625 40.671875 12.859375 48.328125 
Q 20.21875 56 33.015625 56 
Q 37.15625 56 41.109375 55.140625 
Q 45.0625 54.296875 48.78125 52.59375 
z
" id="DejaVuSans-99"/>
     </defs>
     <g transform="translate(25.432812 234.6008)rotate(-90)scale(0.1 -0.1)">
      <use xlink:href="#DejaVuSans-86"/>
      <use x="68.298828" xlink:href="#DejaVuSans-97"/>
      <use x="129.578125" xlink:href="#DejaVuSans-108"/>
      <use x="157.361328" xlink:href="#DejaVuSans-111"/>
      <use x="218.542969" xlink:href="#DejaVuSans-114"/>
      <use x="259.65625" xlink:href="#DejaVuSans-32"/>
      <use x="291.443359" xlink:href="#DejaVuSans-100"/>
      <use x="354.919922" xlink:href="#DejaVuSans-101"/>
      <use x="416.443359" xlink:href="#DejaVuSans-32"/>
      <use x="448.230469" xlink:href="#DejaVuSans-82"/>
      <use x="517.712891" xlink:href="#DejaVuSans-105"/>
      <use x="545.496094" xlink:href="#DejaVuSans-116"/>
      <use x="584.705078" xlink:href="#DejaVuSans-109"/>
      <use x="682.117188" xlink:href="#DejaVuSans-111"/>
      <use x="743.298828" xlink:href="#DejaVuSans-32"/>
      <use x="775.085938" xlink:href="#DejaVuSans-67"/>
      <use x="844.910156" xlink:href="#DejaVuSans-97"/>
      <use x="906.189453" xlink:href="#DejaVuSans-114"/>
      <use x="947.287109" xlink:href="#DejaVuSans-100"/>
      <use x="1010.763672" xlink:href="#DejaVuSans-237"/>
      <use x="1038.546875" xlink:href="#DejaVuSans-97"/>
      <use x="1099.826172" xlink:href="#DejaVuSans-99"/>
      <use x="1154.806641" xlink:href="#DejaVuSans-111"/>
     </g>
    </g>
   </g>
   <g id="line2d_15">
    <path clip-path="url(#p51c30b7a3a)" d="M 73.832727 200.945444 
L 73.91559 203.9148 
L 74.081314 228.668193 
L 74.454195 245.459507 
L 74.744213 251.109166 
L 74.785644 250.925224 
L 74.868506 250.977779 
L 74.909937 251.109166 
L 75.572836 259.96468 
L 75.655698 260.017235 
L 75.73856 260.201177 
L 75.821423 260.148622 
L 75.904285 260.174899 
L 76.028579 260.805559 
L 76.111441 260.700449 
L 76.235734 260.726727 
L 76.401459 265.08879 
L 76.44289 264.694627 
L 76.608615 265.062512 
L 76.650046 265.009957 
L 77.14722 260.989502 
L 77.230082 261.015779 
L 77.395807 261.777826 
L 77.685825 260.463952 
L 78.265861 251.923769 
L 78.390155 250.898947 
L 78.514448 249.112077 
L 78.59731 249.164632 
L 78.804466 250.636172 
L 79.467365 232.084266 
L 79.840245 213.9528 
L 80.37885 189.462182 
L 80.420281 189.146852 
L 81.166042 210.615559 
L 81.207473 210.799502 
L 81.290336 210.037454 
L 81.870372 227.117821 
L 82.906151 275.967669 
L 84.936277 227.117821 
L 85.433451 217.763036 
L 85.930625 206.884156 
L 86.179212 205.018454 
L 86.220643 205.044732 
L 86.386368 206.200941 
L 86.634955 207.856423 
L 86.717817 207.908978 
L 87.007835 207.146931 
L 87.049266 207.252041 
L 87.339284 208.329418 
L 87.380716 208.30314 
L 87.54644 208.119198 
L 87.753596 209.511905 
L 88.043614 214.872512 
L 88.167908 214.636015 
L 88.375063 214.031632 
L 88.499357 214.37324 
L 88.706513 215.818502 
L 88.747944 215.792224 
L 88.872237 215.082732 
L 89.286549 211.587826 
L 89.493705 210.668114 
L 89.742292 209.433072 
L 89.866585 209.485627 
L 90.073741 209.695847 
L 90.156603 209.643292 
L 90.280897 209.170297 
L 90.40519 207.330873 
L 90.653777 204.44035 
L 90.902364 202.784868 
L 91.150951 200.419894 
L 91.192382 200.551282 
L 91.358107 201.339606 
L 91.813849 206.463716 
L 92.145299 211.141109 
L 92.18673 210.930889 
L 92.642473 207.725036 
L 93.056784 203.783413 
L 93.26394 203.257863 
L 93.595389 200.708947 
L 94.009701 198.081198 
L 94.133994 197.397983 
L 94.548306 190.329339 
L 94.631168 190.460727 
L 94.879755 191.905988 
L 95.04548 192.221318 
L 95.376929 194.139575 
L 95.542653 194.927899 
L 95.708378 194.927899 
L 96.205552 197.818423 
L 96.246983 197.660758 
L 96.454139 196.635936 
L 96.827019 195.584837 
L 96.992744 195.847612 
L 97.034175 195.768779 
L 97.324193 193.66658 
L 97.407056 193.850523 
L 97.738505 196.084109 
L 98.069954 199.10602 
L 98.98144 209.35424 
L 99.7272 221.520716 
L 100.100081 220.338229 
L 100.265805 220.128009 
L 100.307237 220.154287 
L 100.555823 220.522172 
L 100.638686 220.338229 
L 101.13586 218.630193 
L 101.177291 218.498805 
L 102.088776 208.066643 
L 102.21307 207.409706 
L 102.254501 207.777591 
L 102.378794 208.19803 
L 102.420226 208.171753 
L 102.503088 207.725036 
L 103.083124 202.022821 
L 103.248849 200.892889 
L 103.29028 200.945444 
L 103.373142 201.234496 
L 103.621729 203.257863 
L 103.66316 203.205308 
L 104.408921 193.45636 
L 104.616077 191.249051 
L 104.698939 191.222774 
L 104.74037 191.301606 
L 104.906095 192.300151 
L 105.568993 198.974632 
L 105.81758 200.971721 
L 106.14903 196.951266 
L 106.231892 197.345428 
L 106.397617 198.47536 
L 106.811928 202.995088 
L 107.101946 208.30314 
L 107.184809 208.565915 
L 107.22624 208.51336 
L 107.433396 208.040365 
L 107.557689 207.777591 
L 107.764845 206.673936 
L 107.847707 206.726491 
L 107.930569 206.752769 
L 108.593468 197.660758 
L 109.049211 194.270962 
L 109.463522 187.412538 
L 109.712109 179.66068 
L 110.582163 147.207983 
L 110.706457 147.102873 
L 110.747888 147.076596 
L 110.913613 147.891198 
L 111.452218 152.805088 
L 111.825098 156.878098 
L 112.032254 157.613868 
L 112.115116 159.453292 
L 112.61229 181.368716 
L 113.233757 206.148386 
L 113.523776 211.482716 
L 113.772363 210.484172 
L 114.103812 208.066643 
L 114.145243 208.171753 
L 114.228105 208.51336 
L 114.559555 209.958622 
L 114.600986 209.87979 
L 114.891004 209.03891 
L 115.346746 204.781957 
L 115.553902 201.287051 
L 116.009645 192.615481 
L 116.092507 193.062198 
L 116.299663 193.403805 
L 116.755406 194.008187 
L 116.92113 195.584837 
L 117.211149 197.660758 
L 117.294011 197.792146 
L 117.418304 198.396528 
L 117.874047 201.733769 
L 117.956909 201.812601 
L 117.998341 201.760046 
L 118.081203 201.602381 
L 118.164065 201.681214 
L 118.412652 202.259318 
L 118.454083 202.075376 
L 118.70267 200.892889 
L 118.744101 201.103109 
L 119.282706 203.835968 
L 119.531293 203.862245 
L 119.738449 204.75568 
L 119.77988 204.703125 
L 119.904174 204.492905 
L 120.194192 202.206763 
L 120.401348 201.418439 
L 120.774228 200.498727 
L 120.981384 200.183397 
L 121.022815 200.235952 
L 121.064246 200.183397 
L 121.229971 199.368795 
L 121.312833 199.00091 
L 121.354264 199.132297 
L 121.437127 199.053465 
L 121.810007 198.081198 
L 122.017163 198.396528 
L 122.100025 198.26514 
L 122.141456 198.317695 
L 122.307181 199.789235 
L 122.762924 208.066643 
L 123.218666 216.843324 
L 123.34296 217.657926 
L 123.467253 217.106098 
L 123.508684 216.580549 
L 123.591547 216.711936 
L 123.674409 216.843324 
L 123.71584 216.738214 
L 123.881565 216.212664 
L 123.922996 216.265219 
L 124.295876 219.103187 
L 124.378739 218.9718 
L 124.461601 218.814135 
L 124.544463 218.367418 
L 124.710188 216.002444 
L 125.207362 204.44035 
L 125.621673 195.716224 
L 125.745967 194.376072 
L 125.828829 194.40235 
L 125.953123 195.453449 
L 126.077416 196.294329 
L 126.160278 196.635936 
L 126.367434 197.739591 
L 127.030333 194.665125 
L 127.113195 194.849067 
L 127.237489 195.558559 
L 127.527507 198.186308 
L 127.858956 202.653481 
L 128.273267 205.885612 
L 129.930514 233.003978 
L 129.971945 233.003978 
L 130.013376 233.135365 
L 130.427688 226.460884 
L 130.759137 222.098821 
L 131.090586 215.003899 
L 132.250658 174.74679 
L 132.499245 171.067941 
L 132.540677 171.409549 
L 132.872126 174.142407 
L 133.03785 174.22124 
L 133.203575 173.69569 
L 133.286437 173.748245 
L 133.3693 173.774523 
L 133.535024 174.43146 
L 134.032198 180.974554 
L 134.197923 181.631491 
L 134.239354 181.710324 
L 134.363648 180.711779 
L 134.612234 176.507381 
L 134.985115 170.332172 
L 135.52372 161.739434 
L 135.565151 161.818266 
L 135.689445 161.870821 
L 135.8966 161.345271 
L 135.938031 161.292716 
L 135.979463 161.345271 
L 136.103756 161.791988 
L 136.642361 164.629957 
L 136.849517 163.263528 
L 137.056673 164.18324 
L 137.139535 163.841632 
L 137.30526 162.396371 
L 137.512415 156.878098 
L 137.553847 157.482481 
L 137.67814 160.609502 
L 138.38247 187.149763 
L 139.128231 198.186308 
L 140.122578 255.103345 
L 140.246872 254.63035 
L 140.329734 254.367575 
L 140.702615 247.614261 
L 140.744046 246.825936 
L 140.826908 247.141266 
L 140.90977 247.220098 
L 140.992633 247.614261 
L 141.6141 254.183632 
L 141.696962 253.36903 
L 142.152705 248.13981 
L 142.69131 238.916413 
L 142.732741 238.995245 
L 142.774172 238.94269 
L 142.815604 238.863858 
L 143.022759 237.944146 
L 143.809951 234.081355 
L 144.431419 228.825858 
L 144.47285 228.878413 
L 144.514281 228.747025 
L 144.555712 228.825858 
L 144.721437 229.53535 
L 145.218611 236.498884 
L 145.342904 237.996701 
L 145.757216 244.723737 
L 145.92294 245.433229 
L 146.005803 244.855125 
L 146.461545 240.624449 
L 146.62727 240.387952 
L 146.668701 240.440507 
L 146.710132 240.387952 
L 146.834426 240.387952 
L 147.083013 241.938324 
L 147.165875 242.595261 
L 147.207306 242.358763 
L 148.035929 232.951423 
L 148.118792 232.898868 
L 148.491672 234.081355 
L 148.740259 235.263842 
L 148.78169 235.237564 
L 148.823121 235.316397 
L 149.071708 236.446329 
L 149.237433 237.208376 
L 149.278864 237.155821 
L 149.527451 235.053622 
L 149.610313 233.792303 
L 149.651744 233.871135 
L 149.8589 235.316397 
L 150.024625 236.498884 
L 150.397505 239.704737 
L 150.438936 239.389407 
L 150.521799 239.126632 
L 150.56323 239.205465 
L 150.604661 239.25802 
L 150.646092 239.205465 
L 150.728954 239.126632 
L 150.894679 240.125177 
L 151.64044 250.373397 
L 151.806165 252.606983 
L 152.096183 258.624528 
L 152.179045 258.38803 
L 152.220476 258.309198 
L 152.261907 258.38803 
L 152.551925 259.360297 
L 152.71765 259.75446 
L 152.800512 259.807015 
L 152.966237 261.672716 
L 153.173393 262.592428 
L 153.339117 262.828926 
L 153.711998 265.456674 
L 153.753429 265.404119 
L 153.836291 264.826015 
L 154.002016 261.593884 
L 155.452106 230.455062 
L 156.446454 197.818423 
L 156.736472 192.142486 
L 157.109353 185.914721 
L 157.233646 185.862166 
L 157.275077 185.862166 
L 157.523664 186.519104 
L 157.647958 186.571659 
L 157.855113 185.205229 
L 157.979407 185.862166 
L 158.1037 187.438816 
L 158.476581 191.249051 
L 158.642305 192.037376 
L 158.683737 192.089931 
L 158.80803 190.066564 
L 159.098048 185.730779 
L 159.222342 185.047564 
L 159.595222 181.762879 
L 160.050965 172.828533 
L 160.092396 173.301528 
L 160.258121 177.321983 
L 160.631001 184.995009 
L 161.128175 194.533737 
L 161.335331 201.365884 
L 162.37111 236.104721 
L 162.536834 238.653638 
L 162.578265 238.20692 
L 162.785421 233.949968 
L 164.566961 186.177496 
L 164.856979 179.949732 
L 165.271291 175.981831 
L 165.395584 175.062119 
L 165.892758 165.497114 
L 166.141345 162.186151 
L 166.638519 157.718978 
L 166.721381 157.745255 
L 166.928537 159.16424 
L 167.259986 162.343816 
L 167.38428 162.527758 
L 167.425711 162.475203 
L 167.632866 162.580313 
L 167.798591 163.920465 
L 167.881453 165.076674 
L 168.420058 179.529292 
L 169.331544 190.171674 
L 169.704424 187.097208 
L 169.91158 185.967276 
L 170.325892 187.885533 
L 170.367323 188.069475 
L 170.408754 187.964365 
L 170.450185 187.832978 
L 170.491616 187.964365 
L 170.781634 190.171674 
L 171.030221 194.270962 
L 171.817413 206.358606 
L 172.107431 216.449161 
L 172.480312 228.221475 
L 172.77033 231.821491 
L 173.391797 240.887224 
L 174.013265 252.186543 
L 174.054696 252.133988 
L 174.22042 250.898947 
L 174.469007 247.272653 
L 174.966181 237.628816 
L 175.131906 237.234653 
L 175.297631 237.418596 
L 175.62908 235.920779 
L 175.836236 235.368952 
L 176.416272 231.190831 
L 176.499134 230.980612 
L 176.581996 231.033166 
L 176.664859 230.980612 
L 177.037739 234.65946 
L 177.617775 244.303297 
L 177.742069 244.960235 
L 177.7835 244.69746 
L 178.15638 244.0668 
L 178.529261 241.307664 
L 178.86071 240.782114 
L 178.943572 241.281386 
L 179.026435 241.228831 
L 179.109297 241.675549 
L 179.440746 246.221554 
L 179.647902 247.325208 
L 179.855058 247.351486 
L 180.186507 248.639083 
L 180.393663 249.164632 
L 180.600819 248.402585 
L 180.64225 248.533973 
L 180.973699 250.872669 
L 181.01513 250.820114 
L 181.180855 250.557339 
L 181.222286 250.688727 
L 181.595166 251.950046 
L 181.636598 251.687271 
L 181.71946 251.082889 
L 182.09234 245.091622 
L 182.755239 234.081355 
L 182.962395 232.951423 
L 183.003826 233.161643 
L 183.708155 236.420051 
L 183.791018 236.314941 
L 183.915311 235.973334 
L 184.205329 234.712015 
L 184.288192 234.606905 
L 184.329623 234.265297 
L 184.412485 234.396685 
L 184.536779 234.317852 
L 185.158246 232.110543 
L 186.815492 209.091465 
L 186.898354 209.170297 
L 187.146941 210.168842 
L 187.519822 213.84769 
L 187.934133 219.365962 
L 188.099858 220.206842 
L 188.141289 220.417062 
L 188.18272 220.338229 
L 189.177068 215.476894 
L 189.25993 214.47835 
L 189.715673 205.544004 
L 190.544296 189.38335 
L 190.66859 188.358528 
L 190.710021 188.411083 
L 190.834314 188.8578 
L 191.04147 189.935177 
L 191.372919 193.797968 
L 191.787231 199.789235 
L 192.284405 212.060821 
L 192.781579 221.862324 
L 193.568771 238.73247 
L 193.610202 243.85658 
L 193.651633 215.608282 
L 193.693064 223.88569 
L 193.90022 268.557418 
L 194.190238 285.585229 
L 194.231669 285.453842 
L 194.355963 283.535585 
L 194.480256 287.871371 
L 194.521687 287.477208 
L 194.894568 282.116601 
L 195.308879 277.307821 
L 195.391742 277.150156 
L 195.433173 277.228988 
L 195.474604 277.255266 
L 195.847484 273.261088 
L 196.013209 272.893203 
L 196.05464 272.840648 
L 196.137502 275.337009 
L 196.220365 273.891748 
L 197.173281 249.637627 
L 197.753318 243.54125 
L 198.001904 240.624449 
L 198.54051 233.030255 
L 198.789096 229.482795 
L 199.120546 226.592271 
L 199.203408 226.776214 
L 199.28627 226.723659 
L 199.327702 226.776214 
L 199.410564 226.697381 
L 199.451995 226.960156 
L 199.493426 226.828769 
L 199.742013 226.303219 
L 199.866307 226.460884 
L 200.032031 226.907601 
L 200.156325 226.907601 
L 200.612067 222.887146 
L 200.653499 222.887146 
L 200.819223 222.309041 
L 200.860654 222.571816 
L 201.026379 225.409784 
L 201.274966 228.48425 
L 201.440691 230.533894 
L 202.435038 244.776292 
L 202.559332 245.879947 
L 202.600763 245.617172 
L 202.683625 245.380674 
L 202.84935 246.142721 
L 202.890781 246.090166 
L 202.932212 246.168999 
L 203.015074 246.142721 
L 203.139368 246.011334 
L 203.22223 246.037612 
L 203.305093 246.300386 
L 203.470817 244.90768 
L 203.92656 240.755837 
L 204.713752 230.323674 
L 205.00377 228.142643 
L 205.045201 228.16892 
L 205.790962 236.236109 
L 206.329567 241.544161 
L 206.702447 245.512062 
L 207.365346 244.17191 
L 207.489639 242.752926 
L 207.986813 224.279852 
L 208.442556 208.19803 
L 208.898299 203.59947 
L 208.93973 204.256407 
L 209.229748 210.746947 
L 210.099802 236.498884 
L 210.555545 256.469774 
L 210.804132 264.66835 
L 210.886994 263.223088 
L 211.46703 251.687271 
L 211.922773 224.752847 
L 212.295654 210.615559 
L 212.419947 205.176119 
L 212.917121 185.993554 
L 213.745744 163.710245 
L 214.201487 151.018219 
L 214.698661 137.642978 
L 215.817302 109.131905 
L 215.900164 109.263292 
L 216.148751 115.228282 
L 216.604494 127.394758 
L 216.687356 127.000596 
L 216.894512 125.397669 
L 217.267392 116.620988 
L 217.474548 112.258926 
L 217.515979 112.679365 
L 217.640273 113.651632 
L 217.681704 113.5728 
L 217.847429 112.206371 
L 218.468896 94.731842 
L 219.173226 65.616386 
L 219.587537 61.490821 
L 219.836124 60.098114 
L 220.04328 56.182769 
L 220.250436 53.397355 
L 220.291867 53.3448 
L 220.333298 53.397355 
L 220.540454 57.233868 
L 222.031975 95.782941 
L 222.073407 95.651554 
L 222.156269 95.388779 
L 222.321994 96.965428 
L 222.777736 116.489601 
L 223.192048 127.89403 
L 223.440635 132.650255 
L 223.482066 132.440036 
L 223.772084 128.235638 
L 224.020671 123.058973 
L 224.517845 139.140795 
L 225.05645 174.53657 
L 225.470762 196.557104 
L 227.086577 285.375009 
L 227.169439 286.504941 
L 227.252301 286.478664 
L 227.335164 286.557496 
L 227.418026 287.161879 
L 227.625182 290.315177 
L 227.708044 289.921015 
L 228.039493 289.053858 
L 228.163787 288.39692 
L 228.205218 287.556041 
L 228.28808 287.818816 
L 228.370943 288.081591 
L 228.412374 287.923926 
L 228.660961 287.004214 
L 228.868116 285.16479 
L 229.406721 279.93557 
L 229.448153 280.066957 
L 229.613877 279.252355 
L 229.862464 280.592507 
L 229.903895 280.566229 
L 230.111051 279.988125 
L 230.608225 283.745805 
L 230.649656 283.982303 
L 230.939674 288.92247 
L 231.105399 289.2378 
L 231.14683 289.264077 
L 231.188261 289.185245 
L 231.229692 289.13269 
L 231.561142 290.104957 
L 231.975453 291.681606 
L 232.058315 291.996936 
L 232.099747 291.865549 
L 232.596921 284.32391 
L 233.218388 261.515051 
L 233.549837 251.950046 
L 235.165652 207.856423 
L 235.579964 204.387795 
L 235.869982 203.257863 
L 235.911413 203.38925 
L 236.118569 205.044732 
L 236.16 204.887067 
L 236.325725 205.228674 
L 236.491449 204.23013 
L 238.604438 116.147994 
L 238.728732 116.804931 
L 238.811594 117.199093 
L 238.853025 116.988873 
L 238.977319 116.226826 
L 239.433061 128.31447 
L 239.930235 139.876564 
L 240.220253 142.767088 
L 240.510271 147.234261 
L 240.758858 147.996308 
L 240.841721 147.996308 
L 240.966014 147.549591 
L 241.090308 145.499947 
L 241.504619 134.542235 
L 241.794637 129.234182 
L 242.374674 114.256015 
L 242.416105 114.912952 
L 242.747554 129.996229 
L 243.493315 165.497114 
L 244.984836 240.755837 
L 245.067699 241.044889 
L 245.316286 239.336852 
L 245.357717 239.336852 
L 245.896322 241.281386 
L 245.979184 241.228831 
L 246.062046 241.360219 
L 246.227771 240.361674 
L 246.600652 233.266753 
L 247.222119 217.710481 
L 247.594999 207.068098 
L 248.009311 209.380517 
L 248.423622 214.89879 
L 248.755072 222.703203 
L 249.998006 268.373475 
L 250.080869 267.847926 
L 250.288025 265.08879 
L 250.412318 262.592428 
L 250.49518 263.223088 
L 250.578043 263.748638 
L 250.660905 264.300465 
L 250.702336 264.03769 
L 251.240941 261.804104 
L 251.406666 258.91358 
L 252.193858 244.329575 
L 252.235289 244.434685 
L 252.27672 244.329575 
L 252.318151 244.38213 
L 252.483876 244.90768 
L 252.898187 248.901858 
L 253.975397 227.643371 
L 254.182553 226.723659 
L 254.638296 225.646282 
L 254.721158 224.884235 
L 255.218332 219.49735 
L 255.425488 218.840413 
L 255.466919 218.9718 
L 255.674075 221.730936 
L 256.461267 233.08281 
L 257.124165 242.805481 
L 257.497046 242.017156 
L 258.077082 234.606905 
L 258.574256 223.622915 
L 259.402879 199.368795 
L 259.610035 197.266596 
L 260.065778 200.052009 
L 260.604383 203.336695 
L 260.770107 203.652025 
L 260.811538 203.59947 
L 260.935832 203.9148 
L 260.977263 203.835968 
L 261.22585 203.310418 
L 261.764455 206.069554 
L 261.971611 205.360062 
L 262.261629 200.840334 
L 262.385922 200.630114 
L 262.427353 200.682669 
L 262.634509 200.971721 
L 262.717372 200.840334 
L 262.758803 200.892889 
L 262.800234 201.076831 
L 263.38027 214.031632 
L 264.250324 234.843402 
L 264.498911 233.529528 
L 264.581774 233.660915 
L 264.664636 234.186465 
L 264.706067 234.055077 
L 265.327534 232.215653 
L 265.617553 229.351407 
L 266.653331 216.317774 
L 266.694763 216.475439 
L 266.736194 216.606826 
L 267.357661 225.514894 
L 267.68911 227.354318 
L 267.854835 228.69447 
L 268.144853 231.111999 
L 268.186284 230.928057 
L 268.269147 230.796669 
L 268.600596 233.29303 
L 268.76632 233.949968 
L 269.014907 235.395229 
L 269.512081 241.938324 
L 269.802099 245.249287 
L 270.17498 248.901858 
L 270.464998 250.609894 
L 270.630723 251.161721 
L 271.542208 265.456674 
L 271.666501 265.535507 
L 271.790795 265.798282 
L 271.95652 266.139889 
L 271.997951 266.061057 
L 272.163675 264.931125 
L 272.205107 265.009957 
L 272.453693 266.507774 
L 272.577987 266.402664 
L 272.619418 266.376386 
L 273.199454 267.953036 
L 273.323748 267.716538 
L 273.77949 263.249365 
L 274.028077 259.360297 
L 274.069509 259.491685 
L 274.276664 260.463952 
L 274.649545 262.644983 
L 274.690976 262.592428 
L 274.815269 262.434763 
L 275.146719 266.928214 
L 275.229581 267.506318 
L 275.271012 267.453763 
L 275.436737 267.243543 
L 275.602461 267.322376 
L 275.768186 269.135523 
L 276.721103 285.637784 
L 277.011121 288.055313 
L 277.34257 292.154601 
L 277.549726 292.653873 
L 277.591157 292.522486 
L 277.674019 291.681606 
L 277.756882 291.891826 
L 277.881175 292.653873 
L 278.171193 294.2568 
L 278.254055 294.230523 
L 278.668367 292.417376 
L 278.709798 292.391098 
L 279.041247 291.024669 
L 279.49699 274.91657 
L 279.704146 269.818737 
L 279.952733 265.325287 
L 280.242751 261.593884 
L 280.449907 260.201177 
L 280.739925 256.417219 
L 281.154236 250.636172 
L 281.402823 250.609894 
L 281.527117 250.425952 
L 282.107153 267.979313 
L 282.190015 267.716538 
L 282.314309 267.716538 
L 282.811483 269.661072 
L 283.018638 272.499041 
L 283.267225 275.704894 
L 283.557243 278.069868 
L 283.598675 277.754538 
L 283.764399 276.388109 
L 285.297352 245.827392 
L 286.125975 218.44625 
L 286.540287 207.856423 
L 287.493203 192.352706 
L 287.74179 189.514737 
L 287.866084 188.884077 
L 288.487551 185.257784 
L 288.653276 184.916177 
L 288.694707 184.995009 
L 288.819 185.730779 
L 288.901863 186.886988 
L 288.984725 186.781879 
L 289.440468 184.600847 
L 289.730486 186.965821 
L 289.979073 196.162941 
L 290.351953 208.644748 
L 292.009199 251.030334 
L 292.299218 254.367575 
L 292.423511 253.763193 
L 292.630667 252.133988 
L 292.713529 251.923769 
L 292.962116 249.900402 
L 293.334997 242.490151 
L 293.790739 229.719292 
L 294.90938 199.237407 
L 295.199399 195.558559 
L 295.24083 195.821334 
L 295.323692 196.741046 
L 295.945159 223.67547 
L 296.773783 259.22891 
L 297.39525 280.172067 
L 297.436681 279.93557 
L 297.560975 279.51513 
L 297.685268 278.621695 
L 297.850993 273.155978 
L 298.555322 238.679915 
L 299.715395 184.600847 
L 299.963982 183.891355 
L 300.046844 183.470915 
L 300.254 182.235873 
L 300.336862 182.446093 
L 300.502587 182.945365 
L 300.544018 182.840255 
L 300.792605 181.894266 
L 300.834036 181.920543 
L 300.875467 182.025653 
L 301.538366 190.697224 
L 301.70409 192.746868 
L 301.745521 192.746868 
L 301.828384 192.300151 
L 301.994108 190.303062 
L 302.325558 185.967276 
L 302.574145 184.416905 
L 303.195612 180.133674 
L 303.361336 179.608125 
L 303.568492 178.767245 
L 303.817079 175.981831 
L 304.18996 170.805166 
L 304.231391 170.883999 
L 304.355684 170.857721 
L 304.479978 170.673779 
L 304.604271 170.726334 
L 304.811427 171.646046 
L 305.225739 176.192051 
L 305.557188 181.447549 
L 305.847206 180.186229 
L 306.34438 177.190596 
L 306.385811 177.243151 
L 306.510104 177.689868 
L 307.007278 180.869444 
L 307.545883 179.870899 
L 307.711608 177.821255 
L 308.167351 166.994931 
L 308.374506 163.65769 
L 308.4988 160.215339 
L 308.581662 161.161329 
L 309.285992 170.279617 
L 309.327423 170.332172 
L 309.824597 172.828533 
L 309.94889 172.95992 
L 310.156046 172.197873 
L 310.404633 175.929276 
L 310.943238 185.730779 
L 310.984669 187.149763 
L 311.067532 186.913266 
L 311.233256 186.230051 
L 311.481843 184.78479 
L 311.606137 183.996465 
L 311.647568 184.25924 
L 311.896155 185.441727 
L 312.186173 187.491371 
L 312.227604 187.543926 
L 312.476191 186.834434 
L 312.600484 186.886988 
L 313.056227 188.673858 
L 313.304814 189.724957 
L 313.346245 189.672402 
L 313.387676 189.409627 
L 313.429108 189.646125 
L 314.340593 195.689947 
L 314.713473 193.797968 
L 314.837767 193.850523 
L 315.003492 193.719135 
L 315.086354 193.66658 
L 315.624959 191.774601 
L 315.707821 191.643214 
L 315.749252 191.695769 
L 315.873546 192.168763 
L 315.914977 191.958543 
L 316.163564 190.592114 
L 316.246426 190.697224 
L 316.287857 190.592114 
L 316.329289 190.565837 
L 317.116481 185.205229 
L 317.199343 185.178952 
L 317.240774 185.257784 
L 317.323636 185.336617 
L 317.779379 186.703046 
L 317.82081 186.650491 
L 317.945104 186.177496 
L 318.359415 182.682591 
L 318.442278 182.761423 
L 318.52514 182.813978 
L 318.566571 182.761423 
L 318.856589 180.974554 
L 318.939451 180.527837 
L 318.980883 180.711779 
L 319.146607 180.974554 
L 319.22947 180.790612 
L 319.270901 180.869444 
L 319.519488 180.974554 
L 319.685212 181.105941 
L 320.058093 179.476737 
L 320.099524 178.373083 
L 320.140955 179.03002 
L 320.513835 187.097208 
L 321.301027 216.344051 
L 322.751118 275.442119 
L 322.916843 276.966214 
L 323.372585 283.141423 
L 323.994053 287.135601 
L 324.035484 287.293266 
L 324.076915 287.135601 
L 324.159777 286.373554 
L 324.532658 280.119512 
L 324.9884 277.885926 
L 325.236987 277.623151 
L 325.402712 277.701983 
L 325.817024 271.237721 
L 326.107042 263.82747 
L 326.977096 236.288664 
L 327.515701 230.796669 
L 328.344324 222.782036 
L 328.427186 223.097365 
L 328.468618 222.965978 
L 328.800067 224.358685 
L 328.882929 224.542627 
L 328.92436 224.41124 
L 329.131516 223.964523 
L 329.338672 224.332407 
L 329.587259 226.644826 
L 329.960139 232.373318 
L 330.00157 231.427329 
L 330.415882 224.463795 
L 330.581607 222.887146 
L 330.788762 218.814135 
L 331.41023 206.016999 
L 331.78311 201.287051 
L 332.363146 182.761423 
L 332.446009 178.767245 
L 332.528871 179.13513 
L 332.777458 180.475282 
L 332.818889 180.396449 
L 333.067476 179.529292 
L 333.150338 180.002287 
L 333.523219 182.025653 
L 333.730374 181.841711 
L 334.020393 182.367261 
L 334.061824 182.235873 
L 334.186117 181.920543 
L 334.227548 182.025653 
L 334.558998 184.390627 
L 334.600429 183.759968 
L 334.766153 180.081119 
L 335.01474 174.667957 
L 335.304758 170.489837 
L 335.387621 169.491292 
L 335.71907 159.847454 
L 335.967657 152.200706 
L 336.216244 155.485392 
L 336.589124 162.790533 
L 336.879142 167.914643 
L 337.044867 169.543847 
L 337.624903 186.492826 
L 337.914921 191.354161 
L 338.453526 206.148386 
L 338.536389 205.412617 
L 338.826407 201.891434 
L 339.074994 196.767324 
L 339.447874 190.303062 
L 340.483653 174.142407 
L 340.607947 174.037297 
L 341.10512 173.616858 
L 341.395139 173.17014 
L 341.478001 173.117585 
L 341.726588 172.513203 
L 341.80945 172.697146 
L 342.223762 174.273795 
L 342.51378 178.60958 
L 342.845229 183.024198 
L 342.928091 182.104486 
L 343.508128 171.462104 
L 343.549559 172.775978 
L 344.046733 191.038831 
L 344.336751 199.184852 
L 345.579685 229.141187 
L 345.993997 239.441962 
L 347.278363 196.609659 
L 347.816968 187.228596 
L 347.858399 187.307428 
L 347.89983 187.412538 
L 348.231279 197.030098 
L 349.391352 226.329496 
L 349.639939 229.587905 
L 349.971388 231.637549 
L 350.095681 230.639004 
L 350.219975 227.301763 
L 350.509993 215.398062 
L 350.965736 196.373161 
L 351.46291 187.412538 
L 351.960084 183.10303 
L 352.001515 183.155585 
L 352.084377 183.10303 
L 352.125808 183.155585 
L 352.167239 183.20814 
L 352.332964 184.942454 
L 352.747276 196.872434 
L 353.865917 235.447784 
L 354.321659 239.46824 
L 354.363091 239.520795 
L 354.653109 237.208376 
L 354.984558 231.979156 
L 355.108851 232.163098 
L 355.233145 232.609816 
L 355.274576 232.557261 
L 355.39887 231.821491 
L 356.061768 222.834591 
L 356.227493 221.257941 
L 356.766098 212.901701 
L 357.097547 211.403884 
L 357.180409 211.482716 
L 357.22184 211.456439 
L 357.428996 211.325051 
L 357.843308 199.973177 
L 358.174757 192.825701 
L 358.713362 184.942454 
L 358.879087 185.967276 
L 359.293398 198.606748 
L 359.790572 213.295863 
L 360.163453 223.228753 
L 360.577764 237.076988 
L 361.074938 242.674093 
L 361.364956 247.798203 
L 361.447818 247.614261 
L 361.572112 246.878491 
L 361.820699 244.0668 
L 361.986423 243.593805 
L 362.193579 242.148543 
L 362.317873 241.701826 
L 362.359304 241.754381 
L 362.607891 241.806936 
L 363.063634 237.996701 
L 363.105065 238.022978 
L 363.187927 238.469695 
L 363.436514 241.044889 
L 363.477945 241.281386 
L 363.560807 241.176276 
L 363.892257 239.0478 
L 364.140844 237.234653 
L 364.223706 236.577716 
L 364.430862 235.316397 
L 364.472293 235.237564 
L 364.555155 235.631727 
L 364.596586 235.368952 
L 364.72088 234.790847 
L 365.052329 227.827313 
L 365.383778 221.862324 
L 365.756659 217.053543 
L 366.212402 211.719214 
L 366.295264 211.325051 
L 366.378126 210.930889 
L 366.419557 211.009721 
L 366.50242 210.930889 
L 366.626713 210.273952 
L 366.792438 208.565915 
L 367.206749 200.367339 
L 367.621061 198.05492 
L 368.076804 192.536648 
L 368.159666 192.562926 
L 368.283959 192.484093 
L 368.449684 192.352706 
L 368.573977 192.694313 
L 368.615409 192.615481 
L 368.739702 192.273873 
L 368.781133 192.352706 
L 368.946858 195.978999 
L 370.024068 224.62146 
L 370.43838 238.022978 
L 370.686966 240.493062 
L 370.894122 241.097444 
L 371.101278 239.99379 
L 371.18414 240.309119 
L 371.267003 240.387952 
L 371.391296 238.469695 
L 371.805608 233.030255 
L 372.427075 223.544083 
L 372.924249 210.563004 
L 373.214267 209.643292 
L 373.297129 209.56446 
L 373.379992 209.380517 
L 373.421423 209.511905 
L 373.545716 209.87979 
L 373.587147 209.827235 
L 374.084321 204.12502 
L 374.995807 193.45636 
L 375.202963 191.905988 
L 375.492981 189.330795 
L 375.782999 188.411083 
L 375.82443 188.463638 
L 375.907292 188.595025 
L 375.948723 188.54247 
L 376.031586 188.33225 
L 376.321604 187.543926 
L 376.363035 187.570203 
L 376.487328 187.359983 
L 376.653053 187.044653 
L 376.860209 187.359983 
L 376.943071 187.359983 
L 377.067365 188.01692 
L 377.895988 192.668036 
L 377.937419 192.746868 
L 377.97885 192.694313 
L 378.103144 192.405261 
L 378.144575 192.431538 
L 378.35173 193.35125 
L 378.931767 197.687036 
L 379.05606 197.345428 
L 379.387509 195.295784 
L 379.428941 195.427172 
L 379.470372 195.295784 
L 379.801821 194.244685 
L 379.884683 194.50746 
L 379.926114 194.454905 
L 380.091839 194.270962 
L 380.13327 194.323517 
L 380.464719 195.164397 
L 380.547582 194.980454 
L 380.754738 193.062198 
L 381.127618 188.673858 
L 381.169049 188.884077 
L 381.251911 188.75269 
L 381.583361 189.199407 
L 381.707654 189.80379 
L 381.749085 189.59357 
L 381.997672 188.095753 
L 382.039103 188.22714 
L 382.080535 188.148308 
L 382.204828 187.307428 
L 382.909158 179.13513 
L 382.99202 178.8198 
L 383.033451 178.872355 
L 383.323469 179.55557 
L 383.447763 179.397905 
L 383.530625 178.951187 
L 383.903505 176.060664 
L 383.944937 176.113219 
L 384.193524 178.373083 
L 384.649266 187.307428 
L 385.105009 196.215496 
L 385.395027 198.843245 
L 385.519321 199.00091 
L 385.602183 198.974632 
L 385.643614 199.053465 
L 385.85077 200.052009 
L 386.057926 201.418439 
L 386.306513 203.07392 
L 386.430806 203.38925 
L 386.472237 203.336695 
L 386.762255 202.127931 
L 386.969411 198.974632 
L 387.425154 192.300151 
L 387.798034 189.251962 
L 387.839465 189.330795 
L 387.963759 189.409627 
L 388.088052 189.06802 
L 388.253777 188.095753 
L 388.295208 188.200863 
L 388.502364 189.541015 
L 388.543795 189.251962 
L 388.70952 188.489915 
L 388.750951 188.595025 
L 389.289556 190.460727 
L 389.538143 192.300151 
L 389.579574 192.221318 
L 389.703867 191.748324 
L 389.78673 191.905988 
L 389.952454 193.062198 
L 390.283904 194.71768 
L 390.408197 195.453449 
L 390.615353 198.186308 
L 390.822509 200.630114 
L 390.86394 200.630114 
L 391.319683 203.573193 
L 391.443976 203.573193 
L 391.485407 203.520638 
L 391.775425 204.44035 
L 391.816856 204.361517 
L 391.94115 203.862245 
L 392.065443 203.441805 
L 392.106875 203.573193 
L 392.521186 208.82869 
L 392.894067 211.981988 
L 392.935498 211.745491 
L 393.142653 208.72358 
L 393.639827 197.161486 
L 394.054139 194.244685 
L 394.09557 194.113297 
L 394.302726 196.688491 
L 394.758469 207.278318 
L 394.965624 210.694392 
L 395.297074 220.863779 
L 395.711385 238.285753 
L 396.457146 266.796826 
L 396.58144 268.63625 
L 396.622871 268.609973 
L 396.747164 268.42603 
L 396.995751 265.141345 
L 397.285769 261.278554 
L 397.575787 256.285831 
L 398.487273 232.609816 
L 398.487273 232.609816 
" style="fill:none;stroke:#1f77b4;stroke-linecap:square;stroke-width:1.5;"/>
   </g>
   <g id="patch_3">
    <path d="M 57.6 306.3024 
L 57.6 41.2992 
" style="fill:none;stroke:#000000;stroke-linecap:square;stroke-linejoin:miter;stroke-width:0.8;"/>
   </g>
   <g id="patch_4">
    <path d="M 414.72 306.3024 
L 414.72 41.2992 
" style="fill:none;stroke:#000000;stroke-linecap:square;stroke-linejoin:miter;stroke-width:0.8;"/>
   </g>
   <g id="patch_5">
    <path d="M 57.6 306.3024 
L 414.72 306.3024 
" style="fill:none;stroke:#000000;stroke-linecap:square;stroke-linejoin:miter;stroke-width:0.8;"/>
   </g>
   <g id="patch_6">
    <path d="M 57.6 41.2992 
L 414.72 41.2992 
" style="fill:none;stroke:#000000;stroke-linecap:square;stroke-linejoin:miter;stroke-width:0.8;"/>
   </g>
   <g id="text_17">
    <!-- Ritmo Cardíaco -->
    <g transform="translate(190.094063 35.2992)scale(0.12 -0.12)">
     <use xlink:href="#DejaVuSans-82"/>
     <use x="69.482422" xlink:href="#DejaVuSans-105"/>
     <use x="97.265625" xlink:href="#DejaVuSans-116"/>
     <use x="136.474609" xlink:href="#DejaVuSans-109"/>
     <use x="233.886719" xlink:href="#DejaVuSans-111"/>
     <use x="295.068359" xlink:href="#DejaVuSans-32"/>
     <use x="326.855469" xlink:href="#DejaVuSans-67"/>
     <use x="396.679688" xlink:href="#DejaVuSans-97"/>
     <use x="457.958984" xlink:href="#DejaVuSans-114"/>
     <use x="499.056641" xlink:href="#DejaVuSans-100"/>
     <use x="562.533203" xlink:href="#DejaVuSans-237"/>
     <use x="590.316406" xlink:href="#DejaVuSans-97"/>
     <use x="651.595703" xlink:href="#DejaVuSans-99"/>
     <use x="706.576172" xlink:href="#DejaVuSans-111"/>
    </g>
   </g>
  </g>
 </g>
 <defs>
  <clipPath id="p51c30b7a3a">
   <rect height="265.0032" width="357.12" x="57.6" y="41.2992"/>
  </clipPath>
 </defs>
</svg>
