<?xml version="1.0" encoding="utf-8" standalone="no"?>
<!DOCTYPE svg PUBLIC "-//W3C//DTD SVG 1.1//EN"
  "http://www.w3.org/Graphics/SVG/1.1/DTD/svg11.dtd">
<!-- Created with matplotlib (https://matplotlib.org/) -->
<svg height="344.16pt" version="1.1" viewBox="0 0 460.8 344.16" width="460.8pt" xmlns="http://www.w3.org/2000/svg" xmlns:xlink="http://www.w3.org/1999/xlink">
 <defs>
  <style type="text/css">
*{stroke-linecap:butt;stroke-linejoin:round;}
  </style>
 </defs>
 <g id="figure_1">
  <g id="patch_1">
   <path d="M 0 344.16 
L 460.8 344.16 
L 460.8 0 
L 0 0 
z
" style="fill:#ffffff;"/>
  </g>
  <g id="axes_1">
   <g id="patch_2">
    <path d="M 57.6 306.3024 
L 414.72 306.3024 
L 414.72 41.2992 
L 57.6 41.2992 
z
" style="fill:#ffffff;"/>
   </g>
   <g id="matplotlib.axis_1">
    <g id="xtick_1">
     <g id="line2d_1">
      <defs>
       <path d="M 0 0 
L 0 3.5 
" id="m7c9d405759" style="stroke:#000000;stroke-width:0.8;"/>
      </defs>
      <g>
       <use style="stroke:#000000;stroke-width:0.8;" x="73.832727" xlink:href="#m7c9d405759" y="306.3024"/>
      </g>
     </g>
     <g id="text_1">
      <!-- 0 -->
      <defs>
       <path d="M 31.78125 66.40625 
Q 24.171875 66.40625 20.328125 58.90625 
Q 16.5 51.421875 16.5 36.375 
Q 16.5 21.390625 20.328125 13.890625 
Q 24.171875 6.390625 31.78125 6.390625 
Q 39.453125 6.390625 43.28125 13.890625 
Q 47.125 21.390625 47.125 36.375 
Q 47.125 51.421875 43.28125 58.90625 
Q 39.453125 66.40625 31.78125 66.40625 
z
M 31.78125 74.21875 
Q 44.046875 74.21875 50.515625 64.515625 
Q 56.984375 54.828125 56.984375 36.375 
Q 56.984375 17.96875 50.515625 8.265625 
Q 44.046875 -1.421875 31.78125 -1.421875 
Q 19.53125 -1.421875 13.0625 8.265625 
Q 6.59375 17.96875 6.59375 36.375 
Q 6.59375 54.828125 13.0625 64.515625 
Q 19.53125 74.21875 31.78125 74.21875 
z
" id="DejaVuSans-48"/>
      </defs>
      <g transform="translate(70.651477 320.900838)scale(0.1 -0.1)">
       <use xlink:href="#DejaVuSans-48"/>
      </g>
     </g>
    </g>
    <g id="xtick_2">
     <g id="line2d_2">
      <g>
       <use style="stroke:#000000;stroke-width:0.8;" x="115.263884" xlink:href="#m7c9d405759" y="306.3024"/>
      </g>
     </g>
     <g id="text_2">
      <!-- 1000 -->
      <defs>
       <path d="M 12.40625 8.296875 
L 28.515625 8.296875 
L 28.515625 63.921875 
L 10.984375 60.40625 
L 10.984375 69.390625 
L 28.421875 72.90625 
L 38.28125 72.90625 
L 38.28125 8.296875 
L 54.390625 8.296875 
L 54.390625 0 
L 12.40625 0 
z
" id="DejaVuSans-49"/>
      </defs>
      <g transform="translate(102.538884 320.900838)scale(0.1 -0.1)">
       <use xlink:href="#DejaVuSans-49"/>
       <use x="63.623047" xlink:href="#DejaVuSans-48"/>
       <use x="127.246094" xlink:href="#DejaVuSans-48"/>
       <use x="190.869141" xlink:href="#DejaVuSans-48"/>
      </g>
     </g>
    </g>
    <g id="xtick_3">
     <g id="line2d_3">
      <g>
       <use style="stroke:#000000;stroke-width:0.8;" x="156.695041" xlink:href="#m7c9d405759" y="306.3024"/>
      </g>
     </g>
     <g id="text_3">
      <!-- 2000 -->
      <defs>
       <path d="M 19.1875 8.296875 
L 53.609375 8.296875 
L 53.609375 0 
L 7.328125 0 
L 7.328125 8.296875 
Q 12.9375 14.109375 22.625 23.890625 
Q 32.328125 33.6875 34.8125 36.53125 
Q 39.546875 41.84375 41.421875 45.53125 
Q 43.3125 49.21875 43.3125 52.78125 
Q 43.3125 58.59375 39.234375 62.25 
Q 35.15625 65.921875 28.609375 65.921875 
Q 23.96875 65.921875 18.8125 64.3125 
Q 13.671875 62.703125 7.8125 59.421875 
L 7.8125 69.390625 
Q 13.765625 71.78125 18.9375 73 
Q 24.125 74.21875 28.421875 74.21875 
Q 39.75 74.21875 46.484375 68.546875 
Q 53.21875 62.890625 53.21875 53.421875 
Q 53.21875 48.921875 51.53125 44.890625 
Q 49.859375 40.875 45.40625 35.40625 
Q 44.1875 33.984375 37.640625 27.21875 
Q 31.109375 20.453125 19.1875 8.296875 
z
" id="DejaVuSans-50"/>
      </defs>
      <g transform="translate(143.970041 320.900838)scale(0.1 -0.1)">
       <use xlink:href="#DejaVuSans-50"/>
       <use x="63.623047" xlink:href="#DejaVuSans-48"/>
       <use x="127.246094" xlink:href="#DejaVuSans-48"/>
       <use x="190.869141" xlink:href="#DejaVuSans-48"/>
      </g>
     </g>
    </g>
    <g id="xtick_4">
     <g id="line2d_4">
      <g>
       <use style="stroke:#000000;stroke-width:0.8;" x="198.126198" xlink:href="#m7c9d405759" y="306.3024"/>
      </g>
     </g>
     <g id="text_4">
      <!-- 3000 -->
      <defs>
       <path d="M 40.578125 39.3125 
Q 47.65625 37.796875 51.625 33 
Q 55.609375 28.21875 55.609375 21.1875 
Q 55.609375 10.40625 48.1875 4.484375 
Q 40.765625 -1.421875 27.09375 -1.421875 
Q 22.515625 -1.421875 17.65625 -0.515625 
Q 12.796875 0.390625 7.625 2.203125 
L 7.625 11.71875 
Q 11.71875 9.328125 16.59375 8.109375 
Q 21.484375 6.890625 26.8125 6.890625 
Q 36.078125 6.890625 40.9375 10.546875 
Q 45.796875 14.203125 45.796875 21.1875 
Q 45.796875 27.640625 41.28125 31.265625 
Q 36.765625 34.90625 28.71875 34.90625 
L 20.21875 34.90625 
L 20.21875 43.015625 
L 29.109375 43.015625 
Q 36.375 43.015625 40.234375 45.921875 
Q 44.09375 48.828125 44.09375 54.296875 
Q 44.09375 59.90625 40.109375 62.90625 
Q 36.140625 65.921875 28.71875 65.921875 
Q 24.65625 65.921875 20.015625 65.03125 
Q 15.375 64.15625 9.8125 62.3125 
L 9.8125 71.09375 
Q 15.4375 72.65625 20.34375 73.4375 
Q 25.25 74.21875 29.59375 74.21875 
Q 40.828125 74.21875 47.359375 69.109375 
Q 53.90625 64.015625 53.90625 55.328125 
Q 53.90625 49.265625 50.4375 45.09375 
Q 46.96875 40.921875 40.578125 39.3125 
z
" id="DejaVuSans-51"/>
      </defs>
      <g transform="translate(185.401198 320.900838)scale(0.1 -0.1)">
       <use xlink:href="#DejaVuSans-51"/>
       <use x="63.623047" xlink:href="#DejaVuSans-48"/>
       <use x="127.246094" xlink:href="#DejaVuSans-48"/>
       <use x="190.869141" xlink:href="#DejaVuSans-48"/>
      </g>
     </g>
    </g>
    <g id="xtick_5">
     <g id="line2d_5">
      <g>
       <use style="stroke:#000000;stroke-width:0.8;" x="239.557355" xlink:href="#m7c9d405759" y="306.3024"/>
      </g>
     </g>
     <g id="text_5">
      <!-- 4000 -->
      <defs>
       <path d="M 37.796875 64.3125 
L 12.890625 25.390625 
L 37.796875 25.390625 
z
M 35.203125 72.90625 
L 47.609375 72.90625 
L 47.609375 25.390625 
L 58.015625 25.390625 
L 58.015625 17.1875 
L 47.609375 17.1875 
L 47.609375 0 
L 37.796875 0 
L 37.796875 17.1875 
L 4.890625 17.1875 
L 4.890625 26.703125 
z
" id="DejaVuSans-52"/>
      </defs>
      <g transform="translate(226.832355 320.900838)scale(0.1 -0.1)">
       <use xlink:href="#DejaVuSans-52"/>
       <use x="63.623047" xlink:href="#DejaVuSans-48"/>
       <use x="127.246094" xlink:href="#DejaVuSans-48"/>
       <use x="190.869141" xlink:href="#DejaVuSans-48"/>
      </g>
     </g>
    </g>
    <g id="xtick_6">
     <g id="line2d_6">
      <g>
       <use style="stroke:#000000;stroke-width:0.8;" x="280.988512" xlink:href="#m7c9d405759" y="306.3024"/>
      </g>
     </g>
     <g id="text_6">
      <!-- 5000 -->
      <defs>
       <path d="M 10.796875 72.90625 
L 49.515625 72.90625 
L 49.515625 64.59375 
L 19.828125 64.59375 
L 19.828125 46.734375 
Q 21.96875 47.46875 24.109375 47.828125 
Q 26.265625 48.1875 28.421875 48.1875 
Q 40.625 48.1875 47.75 41.5 
Q 54.890625 34.8125 54.890625 23.390625 
Q 54.890625 11.625 47.5625 5.09375 
Q 40.234375 -1.421875 26.90625 -1.421875 
Q 22.3125 -1.421875 17.546875 -0.640625 
Q 12.796875 0.140625 7.71875 1.703125 
L 7.71875 11.625 
Q 12.109375 9.234375 16.796875 8.0625 
Q 21.484375 6.890625 26.703125 6.890625 
Q 35.15625 6.890625 40.078125 11.328125 
Q 45.015625 15.765625 45.015625 23.390625 
Q 45.015625 31 40.078125 35.4375 
Q 35.15625 39.890625 26.703125 39.890625 
Q 22.75 39.890625 18.8125 39.015625 
Q 14.890625 38.140625 10.796875 36.28125 
z
" id="DejaVuSans-53"/>
      </defs>
      <g transform="translate(268.263512 320.900838)scale(0.1 -0.1)">
       <use xlink:href="#DejaVuSans-53"/>
       <use x="63.623047" xlink:href="#DejaVuSans-48"/>
       <use x="127.246094" xlink:href="#DejaVuSans-48"/>
       <use x="190.869141" xlink:href="#DejaVuSans-48"/>
      </g>
     </g>
    </g>
    <g id="xtick_7">
     <g id="line2d_7">
      <g>
       <use style="stroke:#000000;stroke-width:0.8;" x="322.419669" xlink:href="#m7c9d405759" y="306.3024"/>
      </g>
     </g>
     <g id="text_7">
      <!-- 6000 -->
      <defs>
       <path d="M 33.015625 40.375 
Q 26.375 40.375 22.484375 35.828125 
Q 18.609375 31.296875 18.609375 23.390625 
Q 18.609375 15.53125 22.484375 10.953125 
Q 26.375 6.390625 33.015625 6.390625 
Q 39.65625 6.390625 43.53125 10.953125 
Q 47.40625 15.53125 47.40625 23.390625 
Q 47.40625 31.296875 43.53125 35.828125 
Q 39.65625 40.375 33.015625 40.375 
z
M 52.59375 71.296875 
L 52.59375 62.3125 
Q 48.875 64.0625 45.09375 64.984375 
Q 41.3125 65.921875 37.59375 65.921875 
Q 27.828125 65.921875 22.671875 59.328125 
Q 17.53125 52.734375 16.796875 39.40625 
Q 19.671875 43.65625 24.015625 45.921875 
Q 28.375 48.1875 33.59375 48.1875 
Q 44.578125 48.1875 50.953125 41.515625 
Q 57.328125 34.859375 57.328125 23.390625 
Q 57.328125 12.15625 50.6875 5.359375 
Q 44.046875 -1.421875 33.015625 -1.421875 
Q 20.359375 -1.421875 13.671875 8.265625 
Q 6.984375 17.96875 6.984375 36.375 
Q 6.984375 53.65625 15.1875 63.9375 
Q 23.390625 74.21875 37.203125 74.21875 
Q 40.921875 74.21875 44.703125 73.484375 
Q 48.484375 72.75 52.59375 71.296875 
z
" id="DejaVuSans-54"/>
      </defs>
      <g transform="translate(309.694669 320.900838)scale(0.1 -0.1)">
       <use xlink:href="#DejaVuSans-54"/>
       <use x="63.623047" xlink:href="#DejaVuSans-48"/>
       <use x="127.246094" xlink:href="#DejaVuSans-48"/>
       <use x="190.869141" xlink:href="#DejaVuSans-48"/>
      </g>
     </g>
    </g>
    <g id="xtick_8">
     <g id="line2d_8">
      <g>
       <use style="stroke:#000000;stroke-width:0.8;" x="363.850826" xlink:href="#m7c9d405759" y="306.3024"/>
      </g>
     </g>
     <g id="text_8">
      <!-- 7000 -->
      <defs>
       <path d="M 8.203125 72.90625 
L 55.078125 72.90625 
L 55.078125 68.703125 
L 28.609375 0 
L 18.3125 0 
L 43.21875 64.59375 
L 8.203125 64.59375 
z
" id="DejaVuSans-55"/>
      </defs>
      <g transform="translate(351.125826 320.900838)scale(0.1 -0.1)">
       <use xlink:href="#DejaVuSans-55"/>
       <use x="63.623047" xlink:href="#DejaVuSans-48"/>
       <use x="127.246094" xlink:href="#DejaVuSans-48"/>
       <use x="190.869141" xlink:href="#DejaVuSans-48"/>
      </g>
     </g>
    </g>
    <g id="xtick_9">
     <g id="line2d_9">
      <g>
       <use style="stroke:#000000;stroke-width:0.8;" x="405.281982" xlink:href="#m7c9d405759" y="306.3024"/>
      </g>
     </g>
     <g id="text_9">
      <!-- 8000 -->
      <defs>
       <path d="M 31.78125 34.625 
Q 24.75 34.625 20.71875 30.859375 
Q 16.703125 27.09375 16.703125 20.515625 
Q 16.703125 13.921875 20.71875 10.15625 
Q 24.75 6.390625 31.78125 6.390625 
Q 38.8125 6.390625 42.859375 10.171875 
Q 46.921875 13.96875 46.921875 20.515625 
Q 46.921875 27.09375 42.890625 30.859375 
Q 38.875 34.625 31.78125 34.625 
z
M 21.921875 38.8125 
Q 15.578125 40.375 12.03125 44.71875 
Q 8.5 49.078125 8.5 55.328125 
Q 8.5 64.0625 14.71875 69.140625 
Q 20.953125 74.21875 31.78125 74.21875 
Q 42.671875 74.21875 48.875 69.140625 
Q 55.078125 64.0625 55.078125 55.328125 
Q 55.078125 49.078125 51.53125 44.71875 
Q 48 40.375 41.703125 38.8125 
Q 48.828125 37.15625 52.796875 32.3125 
Q 56.78125 27.484375 56.78125 20.515625 
Q 56.78125 9.90625 50.3125 4.234375 
Q 43.84375 -1.421875 31.78125 -1.421875 
Q 19.734375 -1.421875 13.25 4.234375 
Q 6.78125 9.90625 6.78125 20.515625 
Q 6.78125 27.484375 10.78125 32.3125 
Q 14.796875 37.15625 21.921875 38.8125 
z
M 18.3125 54.390625 
Q 18.3125 48.734375 21.84375 45.5625 
Q 25.390625 42.390625 31.78125 42.390625 
Q 38.140625 42.390625 41.71875 45.5625 
Q 45.3125 48.734375 45.3125 54.390625 
Q 45.3125 60.0625 41.71875 63.234375 
Q 38.140625 66.40625 31.78125 66.40625 
Q 25.390625 66.40625 21.84375 63.234375 
Q 18.3125 60.0625 18.3125 54.390625 
z
" id="DejaVuSans-56"/>
      </defs>
      <g transform="translate(392.556982 320.900838)scale(0.1 -0.1)">
       <use xlink:href="#DejaVuSans-56"/>
       <use x="63.623047" xlink:href="#DejaVuSans-48"/>
       <use x="127.246094" xlink:href="#DejaVuSans-48"/>
       <use x="190.869141" xlink:href="#DejaVuSans-48"/>
      </g>
     </g>
    </g>
    <g id="text_10">
     <!-- Muestras -->
     <defs>
      <path d="M 9.8125 72.90625 
L 24.515625 72.90625 
L 43.109375 23.296875 
L 61.8125 72.90625 
L 76.515625 72.90625 
L 76.515625 0 
L 66.890625 0 
L 66.890625 64.015625 
L 48.09375 14.015625 
L 38.1875 14.015625 
L 19.390625 64.015625 
L 19.390625 0 
L 9.8125 0 
z
" id="DejaVuSans-77"/>
      <path d="M 8.5 21.578125 
L 8.5 54.6875 
L 17.484375 54.6875 
L 17.484375 21.921875 
Q 17.484375 14.15625 20.5 10.265625 
Q 23.53125 6.390625 29.59375 6.390625 
Q 36.859375 6.390625 41.078125 11.03125 
Q 45.3125 15.671875 45.3125 23.6875 
L 45.3125 54.6875 
L 54.296875 54.6875 
L 54.296875 0 
L 45.3125 0 
L 45.3125 8.40625 
Q 42.046875 3.421875 37.71875 1 
Q 33.40625 -1.421875 27.6875 -1.421875 
Q 18.265625 -1.421875 13.375 4.4375 
Q 8.5 10.296875 8.5 21.578125 
z
M 31.109375 56 
z
" id="DejaVuSans-117"/>
      <path d="M 56.203125 29.59375 
L 56.203125 25.203125 
L 14.890625 25.203125 
Q 15.484375 15.921875 20.484375 11.0625 
Q 25.484375 6.203125 34.421875 6.203125 
Q 39.59375 6.203125 44.453125 7.46875 
Q 49.3125 8.734375 54.109375 11.28125 
L 54.109375 2.78125 
Q 49.265625 0.734375 44.1875 -0.34375 
Q 39.109375 -1.421875 33.890625 -1.421875 
Q 20.796875 -1.421875 13.15625 6.1875 
Q 5.515625 13.8125 5.515625 26.8125 
Q 5.515625 40.234375 12.765625 48.109375 
Q 20.015625 56 32.328125 56 
Q 43.359375 56 49.78125 48.890625 
Q 56.203125 41.796875 56.203125 29.59375 
z
M 47.21875 32.234375 
Q 47.125 39.59375 43.09375 43.984375 
Q 39.0625 48.390625 32.421875 48.390625 
Q 24.90625 48.390625 20.390625 44.140625 
Q 15.875 39.890625 15.1875 32.171875 
z
" id="DejaVuSans-101"/>
      <path d="M 44.28125 53.078125 
L 44.28125 44.578125 
Q 40.484375 46.53125 36.375 47.5 
Q 32.28125 48.484375 27.875 48.484375 
Q 21.1875 48.484375 17.84375 46.4375 
Q 14.5 44.390625 14.5 40.28125 
Q 14.5 37.15625 16.890625 35.375 
Q 19.28125 33.59375 26.515625 31.984375 
L 29.59375 31.296875 
Q 39.15625 29.25 43.1875 25.515625 
Q 47.21875 21.78125 47.21875 15.09375 
Q 47.21875 7.46875 41.1875 3.015625 
Q 35.15625 -1.421875 24.609375 -1.421875 
Q 20.21875 -1.421875 15.453125 -0.5625 
Q 10.6875 0.296875 5.421875 2 
L 5.421875 11.28125 
Q 10.40625 8.6875 15.234375 7.390625 
Q 20.0625 6.109375 24.8125 6.109375 
Q 31.15625 6.109375 34.5625 8.28125 
Q 37.984375 10.453125 37.984375 14.40625 
Q 37.984375 18.0625 35.515625 20.015625 
Q 33.0625 21.96875 24.703125 23.78125 
L 21.578125 24.515625 
Q 13.234375 26.265625 9.515625 29.90625 
Q 5.8125 33.546875 5.8125 39.890625 
Q 5.8125 47.609375 11.28125 51.796875 
Q 16.75 56 26.8125 56 
Q 31.78125 56 36.171875 55.265625 
Q 40.578125 54.546875 44.28125 53.078125 
z
" id="DejaVuSans-115"/>
      <path d="M 18.3125 70.21875 
L 18.3125 54.6875 
L 36.8125 54.6875 
L 36.8125 47.703125 
L 18.3125 47.703125 
L 18.3125 18.015625 
Q 18.3125 11.328125 20.140625 9.421875 
Q 21.96875 7.515625 27.59375 7.515625 
L 36.8125 7.515625 
L 36.8125 0 
L 27.59375 0 
Q 17.1875 0 13.234375 3.875 
Q 9.28125 7.765625 9.28125 18.015625 
L 9.28125 47.703125 
L 2.6875 47.703125 
L 2.6875 54.6875 
L 9.28125 54.6875 
L 9.28125 70.21875 
z
" id="DejaVuSans-116"/>
      <path d="M 41.109375 46.296875 
Q 39.59375 47.171875 37.8125 47.578125 
Q 36.03125 48 33.890625 48 
Q 26.265625 48 22.1875 43.046875 
Q 18.109375 38.09375 18.109375 28.8125 
L 18.109375 0 
L 9.078125 0 
L 9.078125 54.6875 
L 18.109375 54.6875 
L 18.109375 46.1875 
Q 20.953125 51.171875 25.484375 53.578125 
Q 30.03125 56 36.53125 56 
Q 37.453125 56 38.578125 55.875 
Q 39.703125 55.765625 41.0625 55.515625 
z
" id="DejaVuSans-114"/>
      <path d="M 34.28125 27.484375 
Q 23.390625 27.484375 19.1875 25 
Q 14.984375 22.515625 14.984375 16.5 
Q 14.984375 11.71875 18.140625 8.90625 
Q 21.296875 6.109375 26.703125 6.109375 
Q 34.1875 6.109375 38.703125 11.40625 
Q 43.21875 16.703125 43.21875 25.484375 
L 43.21875 27.484375 
z
M 52.203125 31.203125 
L 52.203125 0 
L 43.21875 0 
L 43.21875 8.296875 
Q 40.140625 3.328125 35.546875 0.953125 
Q 30.953125 -1.421875 24.3125 -1.421875 
Q 15.921875 -1.421875 10.953125 3.296875 
Q 6 8.015625 6 15.921875 
Q 6 25.140625 12.171875 29.828125 
Q 18.359375 34.515625 30.609375 34.515625 
L 43.21875 34.515625 
L 43.21875 35.40625 
Q 43.21875 41.609375 39.140625 45 
Q 35.0625 48.390625 27.6875 48.390625 
Q 23 48.390625 18.546875 47.265625 
Q 14.109375 46.140625 10.015625 43.890625 
L 10.015625 52.203125 
Q 14.9375 54.109375 19.578125 55.046875 
Q 24.21875 56 28.609375 56 
Q 40.484375 56 46.34375 49.84375 
Q 52.203125 43.703125 52.203125 31.203125 
z
" id="DejaVuSans-97"/>
     </defs>
     <g transform="translate(213.311562 334.578963)scale(0.1 -0.1)">
      <use xlink:href="#DejaVuSans-77"/>
      <use x="86.279297" xlink:href="#DejaVuSans-117"/>
      <use x="149.658203" xlink:href="#DejaVuSans-101"/>
      <use x="211.181641" xlink:href="#DejaVuSans-115"/>
      <use x="263.28125" xlink:href="#DejaVuSans-116"/>
      <use x="302.490234" xlink:href="#DejaVuSans-114"/>
      <use x="343.603516" xlink:href="#DejaVuSans-97"/>
      <use x="404.882812" xlink:href="#DejaVuSans-115"/>
     </g>
    </g>
   </g>
   <g id="matplotlib.axis_2">
    <g id="ytick_1">
     <g id="line2d_10">
      <defs>
       <path d="M 0 0 
L -3.5 0 
" id="m787b7d7eb0" style="stroke:#000000;stroke-width:0.8;"/>
      </defs>
      <g>
       <use style="stroke:#000000;stroke-width:0.8;" x="57.6" xlink:href="#m787b7d7eb0" y="284.294274"/>
      </g>
     </g>
     <g id="text_11">
      <!-- 29.5 -->
      <defs>
       <path d="M 10.984375 1.515625 
L 10.984375 10.5 
Q 14.703125 8.734375 18.5 7.8125 
Q 22.3125 6.890625 25.984375 6.890625 
Q 35.75 6.890625 40.890625 13.453125 
Q 46.046875 20.015625 46.78125 33.40625 
Q 43.953125 29.203125 39.59375 26.953125 
Q 35.25 24.703125 29.984375 24.703125 
Q 19.046875 24.703125 12.671875 31.3125 
Q 6.296875 37.9375 6.296875 49.421875 
Q 6.296875 60.640625 12.9375 67.421875 
Q 19.578125 74.21875 30.609375 74.21875 
Q 43.265625 74.21875 49.921875 64.515625 
Q 56.59375 54.828125 56.59375 36.375 
Q 56.59375 19.140625 48.40625 8.859375 
Q 40.234375 -1.421875 26.421875 -1.421875 
Q 22.703125 -1.421875 18.890625 -0.6875 
Q 15.09375 0.046875 10.984375 1.515625 
z
M 30.609375 32.421875 
Q 37.25 32.421875 41.125 36.953125 
Q 45.015625 41.5 45.015625 49.421875 
Q 45.015625 57.28125 41.125 61.84375 
Q 37.25 66.40625 30.609375 66.40625 
Q 23.96875 66.40625 20.09375 61.84375 
Q 16.21875 57.28125 16.21875 49.421875 
Q 16.21875 41.5 20.09375 36.953125 
Q 23.96875 32.421875 30.609375 32.421875 
z
" id="DejaVuSans-57"/>
       <path d="M 10.6875 12.40625 
L 21 12.40625 
L 21 0 
L 10.6875 0 
z
" id="DejaVuSans-46"/>
      </defs>
      <g transform="translate(28.334375 288.093492)scale(0.1 -0.1)">
       <use xlink:href="#DejaVuSans-50"/>
       <use x="63.623047" xlink:href="#DejaVuSans-57"/>
       <use x="127.246094" xlink:href="#DejaVuSans-46"/>
       <use x="159.033203" xlink:href="#DejaVuSans-53"/>
      </g>
     </g>
    </g>
    <g id="ytick_2">
     <g id="line2d_11">
      <g>
       <use style="stroke:#000000;stroke-width:0.8;" x="57.6" xlink:href="#m787b7d7eb0" y="239.010063"/>
      </g>
     </g>
     <g id="text_12">
      <!-- 30.0 -->
      <g transform="translate(28.334375 242.809282)scale(0.1 -0.1)">
       <use xlink:href="#DejaVuSans-51"/>
       <use x="63.623047" xlink:href="#DejaVuSans-48"/>
       <use x="127.246094" xlink:href="#DejaVuSans-46"/>
       <use x="159.033203" xlink:href="#DejaVuSans-48"/>
      </g>
     </g>
    </g>
    <g id="ytick_3">
     <g id="line2d_12">
      <g>
       <use style="stroke:#000000;stroke-width:0.8;" x="57.6" xlink:href="#m787b7d7eb0" y="193.725853"/>
      </g>
     </g>
     <g id="text_13">
      <!-- 30.5 -->
      <g transform="translate(28.334375 197.525071)scale(0.1 -0.1)">
       <use xlink:href="#DejaVuSans-51"/>
       <use x="63.623047" xlink:href="#DejaVuSans-48"/>
       <use x="127.246094" xlink:href="#DejaVuSans-46"/>
       <use x="159.033203" xlink:href="#DejaVuSans-53"/>
      </g>
     </g>
    </g>
    <g id="ytick_4">
     <g id="line2d_13">
      <g>
       <use style="stroke:#000000;stroke-width:0.8;" x="57.6" xlink:href="#m787b7d7eb0" y="148.441642"/>
      </g>
     </g>
     <g id="text_14">
      <!-- 31.0 -->
      <g transform="translate(28.334375 152.240861)scale(0.1 -0.1)">
       <use xlink:href="#DejaVuSans-51"/>
       <use x="63.623047" xlink:href="#DejaVuSans-49"/>
       <use x="127.246094" xlink:href="#DejaVuSans-46"/>
       <use x="159.033203" xlink:href="#DejaVuSans-48"/>
      </g>
     </g>
    </g>
    <g id="ytick_5">
     <g id="line2d_14">
      <g>
       <use style="stroke:#000000;stroke-width:0.8;" x="57.6" xlink:href="#m787b7d7eb0" y="103.157432"/>
      </g>
     </g>
     <g id="text_15">
      <!-- 31.5 -->
      <g transform="translate(28.334375 106.95665)scale(0.1 -0.1)">
       <use xlink:href="#DejaVuSans-51"/>
       <use x="63.623047" xlink:href="#DejaVuSans-49"/>
       <use x="127.246094" xlink:href="#DejaVuSans-46"/>
       <use x="159.033203" xlink:href="#DejaVuSans-53"/>
      </g>
     </g>
    </g>
    <g id="ytick_6">
     <g id="line2d_15">
      <g>
       <use style="stroke:#000000;stroke-width:0.8;" x="57.6" xlink:href="#m787b7d7eb0" y="57.873221"/>
      </g>
     </g>
     <g id="text_16">
      <!-- 32.0 -->
      <g transform="translate(28.334375 61.67244)scale(0.1 -0.1)">
       <use xlink:href="#DejaVuSans-51"/>
       <use x="63.623047" xlink:href="#DejaVuSans-50"/>
       <use x="127.246094" xlink:href="#DejaVuSans-46"/>
       <use x="159.033203" xlink:href="#DejaVuSans-48"/>
      </g>
     </g>
    </g>
    <g id="text_17">
     <!-- Valor de Temperatura -->
     <defs>
      <path d="M 28.609375 0 
L 0.78125 72.90625 
L 11.078125 72.90625 
L 34.1875 11.53125 
L 57.328125 72.90625 
L 67.578125 72.90625 
L 39.796875 0 
z
" id="DejaVuSans-86"/>
      <path d="M 9.421875 75.984375 
L 18.40625 75.984375 
L 18.40625 0 
L 9.421875 0 
z
" id="DejaVuSans-108"/>
      <path d="M 30.609375 48.390625 
Q 23.390625 48.390625 19.1875 42.75 
Q 14.984375 37.109375 14.984375 27.296875 
Q 14.984375 17.484375 19.15625 11.84375 
Q 23.34375 6.203125 30.609375 6.203125 
Q 37.796875 6.203125 41.984375 11.859375 
Q 46.1875 17.53125 46.1875 27.296875 
Q 46.1875 37.015625 41.984375 42.703125 
Q 37.796875 48.390625 30.609375 48.390625 
z
M 30.609375 56 
Q 42.328125 56 49.015625 48.375 
Q 55.71875 40.765625 55.71875 27.296875 
Q 55.71875 13.875 49.015625 6.21875 
Q 42.328125 -1.421875 30.609375 -1.421875 
Q 18.84375 -1.421875 12.171875 6.21875 
Q 5.515625 13.875 5.515625 27.296875 
Q 5.515625 40.765625 12.171875 48.375 
Q 18.84375 56 30.609375 56 
z
" id="DejaVuSans-111"/>
      <path id="DejaVuSans-32"/>
      <path d="M 45.40625 46.390625 
L 45.40625 75.984375 
L 54.390625 75.984375 
L 54.390625 0 
L 45.40625 0 
L 45.40625 8.203125 
Q 42.578125 3.328125 38.25 0.953125 
Q 33.9375 -1.421875 27.875 -1.421875 
Q 17.96875 -1.421875 11.734375 6.484375 
Q 5.515625 14.40625 5.515625 27.296875 
Q 5.515625 40.1875 11.734375 48.09375 
Q 17.96875 56 27.875 56 
Q 33.9375 56 38.25 53.625 
Q 42.578125 51.265625 45.40625 46.390625 
z
M 14.796875 27.296875 
Q 14.796875 17.390625 18.875 11.75 
Q 22.953125 6.109375 30.078125 6.109375 
Q 37.203125 6.109375 41.296875 11.75 
Q 45.40625 17.390625 45.40625 27.296875 
Q 45.40625 37.203125 41.296875 42.84375 
Q 37.203125 48.484375 30.078125 48.484375 
Q 22.953125 48.484375 18.875 42.84375 
Q 14.796875 37.203125 14.796875 27.296875 
z
" id="DejaVuSans-100"/>
      <path d="M -0.296875 72.90625 
L 61.375 72.90625 
L 61.375 64.59375 
L 35.5 64.59375 
L 35.5 0 
L 25.59375 0 
L 25.59375 64.59375 
L -0.296875 64.59375 
z
" id="DejaVuSans-84"/>
      <path d="M 52 44.1875 
Q 55.375 50.25 60.0625 53.125 
Q 64.75 56 71.09375 56 
Q 79.640625 56 84.28125 50.015625 
Q 88.921875 44.046875 88.921875 33.015625 
L 88.921875 0 
L 79.890625 0 
L 79.890625 32.71875 
Q 79.890625 40.578125 77.09375 44.375 
Q 74.3125 48.1875 68.609375 48.1875 
Q 61.625 48.1875 57.5625 43.546875 
Q 53.515625 38.921875 53.515625 30.90625 
L 53.515625 0 
L 44.484375 0 
L 44.484375 32.71875 
Q 44.484375 40.625 41.703125 44.40625 
Q 38.921875 48.1875 33.109375 48.1875 
Q 26.21875 48.1875 22.15625 43.53125 
Q 18.109375 38.875 18.109375 30.90625 
L 18.109375 0 
L 9.078125 0 
L 9.078125 54.6875 
L 18.109375 54.6875 
L 18.109375 46.1875 
Q 21.1875 51.21875 25.484375 53.609375 
Q 29.78125 56 35.6875 56 
Q 41.65625 56 45.828125 52.96875 
Q 50 49.953125 52 44.1875 
z
" id="DejaVuSans-109"/>
      <path d="M 18.109375 8.203125 
L 18.109375 -20.796875 
L 9.078125 -20.796875 
L 9.078125 54.6875 
L 18.109375 54.6875 
L 18.109375 46.390625 
Q 20.953125 51.265625 25.265625 53.625 
Q 29.59375 56 35.59375 56 
Q 45.5625 56 51.78125 48.09375 
Q 58.015625 40.1875 58.015625 27.296875 
Q 58.015625 14.40625 51.78125 6.484375 
Q 45.5625 -1.421875 35.59375 -1.421875 
Q 29.59375 -1.421875 25.265625 0.953125 
Q 20.953125 3.328125 18.109375 8.203125 
z
M 48.6875 27.296875 
Q 48.6875 37.203125 44.609375 42.84375 
Q 40.53125 48.484375 33.40625 48.484375 
Q 26.265625 48.484375 22.1875 42.84375 
Q 18.109375 37.203125 18.109375 27.296875 
Q 18.109375 17.390625 22.1875 11.75 
Q 26.265625 6.109375 33.40625 6.109375 
Q 40.53125 6.109375 44.609375 11.75 
Q 48.6875 17.390625 48.6875 27.296875 
z
" id="DejaVuSans-112"/>
     </defs>
     <g transform="translate(22.254687 228.818769)rotate(-90)scale(0.1 -0.1)">
      <use xlink:href="#DejaVuSans-86"/>
      <use x="68.298828" xlink:href="#DejaVuSans-97"/>
      <use x="129.578125" xlink:href="#DejaVuSans-108"/>
      <use x="157.361328" xlink:href="#DejaVuSans-111"/>
      <use x="218.542969" xlink:href="#DejaVuSans-114"/>
      <use x="259.65625" xlink:href="#DejaVuSans-32"/>
      <use x="291.443359" xlink:href="#DejaVuSans-100"/>
      <use x="354.919922" xlink:href="#DejaVuSans-101"/>
      <use x="416.443359" xlink:href="#DejaVuSans-32"/>
      <use x="448.230469" xlink:href="#DejaVuSans-84"/>
      <use x="509.048828" xlink:href="#DejaVuSans-101"/>
      <use x="570.572266" xlink:href="#DejaVuSans-109"/>
      <use x="667.984375" xlink:href="#DejaVuSans-112"/>
      <use x="731.460938" xlink:href="#DejaVuSans-101"/>
      <use x="792.984375" xlink:href="#DejaVuSans-114"/>
      <use x="834.097656" xlink:href="#DejaVuSans-97"/>
      <use x="895.376953" xlink:href="#DejaVuSans-116"/>
      <use x="934.585938" xlink:href="#DejaVuSans-117"/>
      <use x="997.964844" xlink:href="#DejaVuSans-114"/>
      <use x="1039.078125" xlink:href="#DejaVuSans-97"/>
     </g>
    </g>
   </g>
   <g id="line2d_16">
    <path clip-path="url(#p9874530bc8)" d="M 73.832727 53.3448 
L 74.039883 53.3448 
L 74.164177 58.778905 
L 74.371332 58.778905 
L 74.495626 62.401642 
L 74.537057 62.401642 
L 74.66135 58.778905 
L 74.702782 58.778905 
L 74.827075 57.873221 
L 74.868506 57.873221 
L 74.9928 60.590274 
L 75.034231 60.590274 
L 75.158524 62.401642 
L 75.199955 62.401642 
L 75.324249 64.213011 
L 75.36568 64.213011 
L 75.489974 67.835747 
L 75.531405 67.835747 
L 75.655698 66.024379 
L 75.697129 66.024379 
L 75.821423 67.835747 
L 76.194303 67.835747 
L 76.318597 66.024379 
L 76.360028 66.024379 
L 76.484321 67.835747 
L 77.022926 67.835747 
L 77.14722 69.647116 
L 77.5201 69.647116 
L 77.644394 71.458484 
L 78.017274 71.458484 
L 78.141568 69.647116 
L 78.182999 69.647116 
L 78.307292 71.458484 
L 78.348723 71.458484 
L 78.473017 69.647116 
L 78.514448 69.647116 
L 78.638741 71.458484 
L 78.680173 71.458484 
L 78.804466 73.269853 
L 79.67452 73.269853 
L 79.798814 78.703958 
L 80.00597 78.703958 
L 80.130263 76.892589 
L 80.171694 76.892589 
L 80.295988 80.515326 
L 80.503144 80.515326 
L 80.627437 78.703958 
L 80.668868 78.703958 
L 80.793162 80.515326 
L 80.834593 80.515326 
L 80.958886 76.892589 
L 81.000317 76.892589 
L 81.124611 82.326695 
L 81.166042 82.326695 
L 81.290336 78.703958 
L 81.331767 78.703958 
L 81.45606 73.269853 
L 81.497491 73.269853 
L 81.621785 69.647116 
L 81.663216 69.647116 
L 81.787509 73.269853 
L 81.994665 73.269853 
L 82.118959 75.081221 
L 82.16039 75.081221 
L 82.284683 76.892589 
L 82.326114 76.892589 
L 82.450408 80.515326 
L 82.491839 80.515326 
L 82.616133 78.703958 
L 82.657564 78.703958 
L 82.781857 80.515326 
L 82.823288 80.515326 
L 82.947582 78.703958 
L 83.486187 78.703958 
L 83.61048 80.515326 
L 83.651911 80.515326 
L 83.776205 78.703958 
L 84.149085 78.703958 
L 84.273379 76.892589 
L 84.31481 76.892589 
L 84.439103 75.081221 
L 84.480535 75.081221 
L 84.604828 76.892589 
L 84.646259 76.892589 
L 84.770553 80.515326 
L 84.811984 80.515326 
L 84.936277 76.892589 
L 84.977708 76.892589 
L 85.102002 75.081221 
L 85.143433 75.081221 
L 85.267727 76.892589 
L 85.474882 76.892589 
L 85.599176 75.081221 
L 85.640607 75.081221 
L 85.7649 76.892589 
L 85.806332 76.892589 
L 85.930625 75.081221 
L 85.972056 75.081221 
L 86.09635 76.892589 
L 86.303505 76.892589 
L 86.427799 75.081221 
L 86.634955 75.081221 
L 86.759248 76.892589 
L 86.966404 76.892589 
L 87.090697 75.081221 
L 87.629303 75.081221 
L 87.753596 73.269853 
L 87.795027 73.269853 
L 87.919321 75.081221 
L 88.457926 75.081221 
L 88.582219 73.269853 
L 88.789375 73.269853 
L 88.913668 71.458484 
L 89.120824 71.458484 
L 89.245118 73.269853 
L 89.286549 73.269853 
L 89.410842 71.458484 
L 89.949447 71.458484 
L 90.073741 69.647116 
L 90.446621 69.647116 
L 90.570915 67.835747 
L 90.77807 67.835747 
L 90.902364 69.647116 
L 90.943795 69.647116 
L 91.068089 67.835747 
L 91.10952 67.835747 
L 91.233813 66.024379 
L 91.938143 66.024379 
L 92.062436 64.213011 
L 92.103867 64.213011 
L 92.228161 66.024379 
L 92.269592 66.024379 
L 92.393886 62.401642 
L 92.601041 62.401642 
L 92.725335 64.213011 
L 92.766766 64.213011 
L 92.891059 62.401642 
L 92.932491 62.401642 
L 93.056784 60.590274 
L 93.098215 60.590274 
L 93.222509 62.401642 
L 93.26394 62.401642 
L 93.388233 60.590274 
L 93.429664 60.590274 
L 93.553958 62.401642 
L 93.761114 62.401642 
L 93.885407 60.590274 
L 93.926838 60.590274 
L 94.051132 62.401642 
L 94.424012 62.401642 
L 94.548306 64.213011 
L 94.589737 64.213011 
L 94.71403 62.401642 
L 94.755462 62.401642 
L 94.879755 64.213011 
L 95.252635 64.213011 
L 95.376929 62.401642 
L 95.584085 62.401642 
L 95.708378 64.213011 
L 95.915534 64.213011 
L 96.039827 62.401642 
L 96.246983 62.401642 
L 96.371277 64.213011 
L 96.578432 64.213011 
L 96.702726 66.024379 
L 96.744157 66.024379 
L 96.868451 64.213011 
L 96.909882 64.213011 
L 97.034175 66.024379 
L 97.075606 66.024379 
L 97.1999 64.213011 
L 97.407056 64.213011 
L 97.531349 66.024379 
L 97.57278 66.024379 
L 97.697074 62.401642 
L 97.738505 62.401642 
L 97.862798 66.024379 
L 97.904229 66.024379 
L 98.028523 64.213011 
L 98.069954 64.213011 
L 98.194248 66.024379 
L 98.235679 66.024379 
L 98.359972 64.213011 
L 98.401403 64.213011 
L 98.525697 66.024379 
L 98.567128 66.024379 
L 98.691421 64.213011 
L 98.732853 64.213011 
L 98.857146 66.024379 
L 99.230026 66.024379 
L 99.35432 64.213011 
L 99.395751 64.213011 
L 99.520045 66.024379 
L 99.7272 66.024379 
L 99.851494 64.213011 
L 100.390099 64.213011 
L 100.514392 62.401642 
L 100.721548 62.401642 
L 100.845842 64.213011 
L 100.887273 64.213011 
L 101.011566 66.024379 
L 101.218722 66.024379 
L 101.343015 64.213011 
L 101.384447 64.213011 
L 101.50874 66.024379 
L 102.047345 66.024379 
L 102.171639 64.213011 
L 103.207418 64.213011 
L 103.331711 66.024379 
L 103.373142 66.024379 
L 103.497436 64.213011 
L 103.870316 64.213011 
L 103.994609 66.024379 
L 104.036041 66.024379 
L 104.160334 64.213011 
L 104.36749 64.213011 
L 104.491783 62.401642 
L 104.533215 62.401642 
L 104.657508 64.213011 
L 104.698939 64.213011 
L 104.823233 66.024379 
L 104.864664 66.024379 
L 104.988957 62.401642 
L 105.030388 62.401642 
L 105.154682 66.024379 
L 105.196113 66.024379 
L 105.320407 64.213011 
L 105.527562 64.213011 
L 105.651856 62.401642 
L 105.693287 62.401642 
L 105.81758 64.213011 
L 105.859012 64.213011 
L 105.983305 66.024379 
L 106.024736 66.024379 
L 106.14903 64.213011 
L 106.190461 64.213011 
L 106.314754 62.401642 
L 106.687635 62.401642 
L 106.811928 64.213011 
L 107.350533 64.213011 
L 107.474827 62.401642 
L 107.516258 62.401642 
L 107.640551 64.213011 
L 108.179156 64.213011 
L 108.30345 62.401642 
L 108.510606 62.401642 
L 108.634899 64.213011 
L 108.67633 64.213011 
L 108.800624 62.401642 
L 109.339229 62.401642 
L 109.463522 64.213011 
L 109.504953 64.213011 
L 109.629247 62.401642 
L 109.836403 62.401642 
L 109.960696 60.590274 
L 110.002127 60.590274 
L 110.126421 62.401642 
L 110.499301 62.401642 
L 110.623595 60.590274 
L 110.665026 60.590274 
L 110.789319 62.401642 
L 110.83075 62.401642 
L 110.955044 60.590274 
L 110.996475 60.590274 
L 111.120768 62.401642 
L 111.1622 62.401642 
L 111.286493 60.590274 
L 111.327924 60.590274 
L 111.452218 58.778905 
L 111.493649 58.778905 
L 111.617942 60.590274 
L 111.825098 60.590274 
L 111.949392 58.778905 
L 112.156547 58.778905 
L 112.280841 60.590274 
L 112.487997 60.590274 
L 112.61229 58.778905 
L 112.653721 58.778905 
L 112.778015 60.590274 
L 112.985171 60.590274 
L 113.109464 58.778905 
L 113.150895 58.778905 
L 113.275189 60.590274 
L 113.482344 60.590274 
L 113.606638 58.778905 
L 113.648069 58.778905 
L 113.772363 60.590274 
L 113.979518 60.590274 
L 114.103812 58.778905 
L 114.145243 58.778905 
L 114.269536 60.590274 
L 114.642417 60.590274 
L 114.76671 62.401642 
L 115.139591 62.401642 
L 115.263884 64.213011 
L 115.636765 64.213011 
L 115.761058 60.590274 
L 115.802489 60.590274 
L 115.926783 62.401642 
L 115.968214 62.401642 
L 116.092507 64.213011 
L 116.133938 64.213011 
L 116.258232 62.401642 
L 116.299663 62.401642 
L 116.423957 64.213011 
L 116.465388 64.213011 
L 116.589681 62.401642 
L 116.631112 62.401642 
L 116.755406 66.024379 
L 116.796837 66.024379 
L 116.92113 64.213011 
L 117.294011 64.213011 
L 117.418304 66.024379 
L 117.791185 66.024379 
L 117.915478 64.213011 
L 117.956909 64.213011 
L 118.081203 66.024379 
L 118.288359 66.024379 
L 118.412652 67.835747 
L 118.619808 67.835747 
L 118.744101 64.213011 
L 118.785533 64.213011 
L 118.909826 67.835747 
L 118.951257 67.835747 
L 119.075551 66.024379 
L 119.448431 66.024379 
L 119.572724 67.835747 
L 120.442779 67.835747 
L 120.567072 69.647116 
L 120.939953 69.647116 
L 121.064246 67.835747 
L 121.271402 67.835747 
L 121.395695 69.647116 
L 121.768576 69.647116 
L 121.892869 67.835747 
L 121.9343 67.835747 
L 122.058594 71.458484 
L 122.762924 71.458484 
L 122.887217 73.269853 
L 122.928648 73.269853 
L 123.052942 71.458484 
L 123.260097 71.458484 
L 123.384391 73.269853 
L 123.591547 73.269853 
L 123.71584 69.647116 
L 123.757271 69.647116 
L 123.881565 71.458484 
L 124.42017 71.458484 
L 124.544463 75.081221 
L 124.751619 75.081221 
L 124.875913 73.269853 
L 125.248793 73.269853 
L 125.373086 75.081221 
L 125.414518 75.081221 
L 125.538811 73.269853 
L 125.580242 73.269853 
L 125.704536 76.892589 
L 125.745967 76.892589 
L 125.87026 75.081221 
L 126.077416 75.081221 
L 126.20171 73.269853 
L 126.243141 73.269853 
L 126.367434 76.892589 
L 126.57459 76.892589 
L 126.698883 75.081221 
L 126.740315 75.081221 
L 126.864608 73.269853 
L 126.906039 73.269853 
L 127.030333 75.081221 
L 127.071764 75.081221 
L 127.196057 76.892589 
L 127.900387 76.892589 
L 128.02468 75.081221 
L 128.066112 75.081221 
L 128.190405 76.892589 
L 128.72901 76.892589 
L 128.853304 78.703958 
L 128.894735 78.703958 
L 129.019028 76.892589 
L 129.557633 76.892589 
L 129.681927 78.703958 
L 130.054807 78.703958 
L 130.179101 80.515326 
L 130.220532 80.515326 
L 130.344825 82.326695 
L 130.551981 82.326695 
L 130.676275 80.515326 
L 131.049155 80.515326 
L 131.173448 78.703958 
L 131.21488 78.703958 
L 131.339173 80.515326 
L 131.546329 80.515326 
L 131.670622 78.703958 
L 131.877778 78.703958 
L 132.002072 82.326695 
L 132.043503 82.326695 
L 132.167796 80.515326 
L 132.209227 80.515326 
L 132.333521 78.703958 
L 132.706401 78.703958 
L 132.830695 82.326695 
L 132.872126 82.326695 
L 132.996419 80.515326 
L 133.3693 80.515326 
L 133.493593 78.703958 
L 133.700749 78.703958 
L 133.825042 80.515326 
L 133.866474 80.515326 
L 133.990767 78.703958 
L 134.032198 78.703958 
L 134.156492 80.515326 
L 134.529372 80.515326 
L 134.653666 78.703958 
L 134.860821 78.703958 
L 134.985115 76.892589 
L 135.026546 76.892589 
L 135.150839 78.703958 
L 135.357995 78.703958 
L 135.482289 80.515326 
L 135.52372 80.515326 
L 135.648013 76.892589 
L 135.689445 76.892589 
L 135.813738 78.703958 
L 135.855169 78.703958 
L 135.979463 80.515326 
L 136.020894 80.515326 
L 136.145187 78.703958 
L 136.186618 78.703958 
L 136.310912 76.892589 
L 136.352343 76.892589 
L 136.476637 78.703958 
L 136.518068 78.703958 
L 136.642361 76.892589 
L 136.849517 76.892589 
L 136.97381 78.703958 
L 137.015242 78.703958 
L 137.139535 76.892589 
L 137.180966 76.892589 
L 137.30526 78.703958 
L 137.346691 78.703958 
L 137.470984 76.892589 
L 138.341039 76.892589 
L 138.465332 78.703958 
L 138.506763 78.703958 
L 138.631057 76.892589 
L 138.672488 76.892589 
L 138.796781 78.703958 
L 139.335386 78.703958 
L 139.45968 76.892589 
L 140.495459 76.892589 
L 140.619752 78.703958 
L 140.661183 78.703958 
L 140.785477 76.892589 
L 140.992633 76.892589 
L 141.116926 75.081221 
L 141.158357 75.081221 
L 141.282651 76.892589 
L 141.655531 76.892589 
L 141.779825 75.081221 
L 141.821256 75.081221 
L 141.945549 76.892589 
L 141.98698 76.892589 
L 142.111274 78.703958 
L 142.31843 78.703958 
L 142.442723 76.892589 
L 142.649879 76.892589 
L 142.774172 75.081221 
L 142.815604 75.081221 
L 142.939897 76.892589 
L 143.312777 76.892589 
L 143.437071 75.081221 
L 143.644227 75.081221 
L 143.76852 76.892589 
L 143.809951 76.892589 
L 143.934245 75.081221 
L 144.141401 75.081221 
L 144.265694 76.892589 
L 144.47285 76.892589 
L 144.597143 78.703958 
L 144.638574 78.703958 
L 144.762868 76.892589 
L 145.632922 76.892589 
L 145.757216 78.703958 
L 145.798647 78.703958 
L 145.92294 76.892589 
L 146.792995 76.892589 
L 146.917288 75.081221 
L 147.124444 75.081221 
L 147.248737 76.892589 
L 147.455893 76.892589 
L 147.580187 75.081221 
L 148.118792 75.081221 
L 148.243085 76.892589 
L 148.284516 76.892589 
L 148.40881 75.081221 
L 148.450241 75.081221 
L 148.574534 76.892589 
L 148.615965 76.892589 
L 148.740259 75.081221 
L 148.78169 75.081221 
L 148.905984 76.892589 
L 148.947415 76.892589 
L 149.071708 75.081221 
L 149.776038 75.081221 
L 149.900331 76.892589 
L 150.273212 76.892589 
L 150.397505 75.081221 
L 151.101835 75.081221 
L 151.226128 76.892589 
L 151.26756 76.892589 
L 151.391853 73.269853 
L 151.433284 73.269853 
L 151.557578 75.081221 
L 152.096183 75.081221 
L 152.220476 76.892589 
L 152.427632 76.892589 
L 152.551925 75.081221 
L 152.759081 75.081221 
L 152.883375 76.892589 
L 152.924806 76.892589 
L 153.049099 75.081221 
L 153.42198 75.081221 
L 153.546273 76.892589 
L 153.919154 76.892589 
L 154.043447 75.081221 
L 154.416327 75.081221 
L 154.540621 73.269853 
L 154.582052 73.269853 
L 154.706346 76.892589 
L 154.747777 76.892589 
L 154.87207 75.081221 
L 155.079226 75.081221 
L 155.203519 76.892589 
L 155.244951 76.892589 
L 155.369244 75.081221 
L 156.570748 75.081221 
L 156.695041 78.703958 
L 156.736472 78.703958 
L 156.860766 76.892589 
L 157.233646 76.892589 
L 157.35794 75.081221 
L 157.399371 75.081221 
L 157.523664 76.892589 
L 157.73082 76.892589 
L 157.855113 75.081221 
L 157.896545 75.081221 
L 158.020838 76.892589 
L 158.393719 76.892589 
L 158.518012 78.703958 
L 158.559443 78.703958 
L 158.683737 76.892589 
L 158.725168 76.892589 
L 158.849461 78.703958 
L 159.388066 78.703958 
L 159.51236 76.892589 
L 159.553791 76.892589 
L 159.678084 78.703958 
L 160.050965 78.703958 
L 160.175258 76.892589 
L 160.216689 76.892589 
L 160.340983 78.703958 
L 160.382414 78.703958 
L 160.506708 76.892589 
L 160.713863 76.892589 
L 160.838157 80.515326 
L 160.879588 80.515326 
L 161.003881 76.892589 
L 161.211037 76.892589 
L 161.335331 78.703958 
L 161.708211 78.703958 
L 161.832505 80.515326 
L 162.03966 80.515326 
L 162.163954 78.703958 
L 162.536834 78.703958 
L 162.661128 80.515326 
L 162.868283 80.515326 
L 162.992577 82.326695 
L 163.034008 82.326695 
L 163.158302 80.515326 
L 163.199733 80.515326 
L 163.324026 78.703958 
L 163.365457 78.703958 
L 163.489751 80.515326 
L 163.696907 80.515326 
L 163.8212 78.703958 
L 163.862631 78.703958 
L 163.986925 80.515326 
L 164.028356 80.515326 
L 164.152649 78.703958 
L 164.19408 78.703958 
L 164.318374 82.326695 
L 164.52553 82.326695 
L 164.649823 80.515326 
L 164.856979 80.515326 
L 164.981272 78.703958 
L 165.022704 78.703958 
L 165.146997 80.515326 
L 165.188428 80.515326 
L 165.312722 78.703958 
L 165.354153 78.703958 
L 165.478446 80.515326 
L 165.851327 80.515326 
L 165.97562 82.326695 
L 166.017051 82.326695 
L 166.141345 80.515326 
L 166.182776 80.515326 
L 166.307069 82.326695 
L 166.514225 82.326695 
L 166.638519 80.515326 
L 166.67995 80.515326 
L 166.804243 82.326695 
L 167.011399 82.326695 
L 167.135693 80.515326 
L 167.177124 80.515326 
L 167.301417 82.326695 
L 168.171472 82.326695 
L 168.295765 80.515326 
L 168.502921 80.515326 
L 168.627214 82.326695 
L 168.668645 82.326695 
L 168.792939 84.138063 
L 169.331544 84.138063 
L 169.455837 82.326695 
L 169.497269 82.326695 
L 169.621562 84.138063 
L 169.994442 84.138063 
L 170.118736 82.326695 
L 170.325892 82.326695 
L 170.450185 84.138063 
L 170.823066 84.138063 
L 170.947359 85.949432 
L 170.98879 85.949432 
L 171.113084 84.138063 
L 171.154515 84.138063 
L 171.278808 85.949432 
L 171.983138 85.949432 
L 172.107431 87.7608 
L 172.314587 87.7608 
L 172.438881 85.949432 
L 172.480312 85.949432 
L 172.604605 87.7608 
L 173.806109 87.7608 
L 173.930402 85.949432 
L 173.971833 85.949432 
L 174.096127 89.572168 
L 174.303283 89.572168 
L 174.427576 91.383537 
L 174.469007 91.383537 
L 174.593301 89.572168 
L 174.800457 89.572168 
L 174.92475 87.7608 
L 174.966181 87.7608 
L 175.090475 91.383537 
L 175.297631 91.383537 
L 175.421924 89.572168 
L 175.463355 89.572168 
L 175.587649 91.383537 
L 175.62908 91.383537 
L 175.753373 89.572168 
L 176.126254 89.572168 
L 176.250547 87.7608 
L 176.291978 87.7608 
L 176.416272 89.572168 
L 176.789152 89.572168 
L 176.913446 85.949432 
L 176.954877 85.949432 
L 177.07917 89.572168 
L 177.286326 89.572168 
L 177.41062 91.383537 
L 177.617775 91.383537 
L 177.742069 89.572168 
L 177.949225 89.572168 
L 178.073518 93.194905 
L 178.114949 93.194905 
L 178.239243 89.572168 
L 178.280674 89.572168 
L 178.404967 91.383537 
L 178.446398 91.383537 
L 178.570692 93.194905 
L 178.612123 93.194905 
L 178.736417 91.383537 
L 179.440746 91.383537 
L 179.56504 93.194905 
L 179.606471 93.194905 
L 179.730764 89.572168 
L 179.93792 89.572168 
L 180.062214 91.383537 
L 182.09234 91.383537 
L 182.216634 89.572168 
L 182.258065 89.572168 
L 182.382358 93.194905 
L 182.42379 93.194905 
L 182.548083 89.572168 
L 182.589514 89.572168 
L 182.713808 91.383537 
L 182.755239 91.383537 
L 182.879532 93.194905 
L 182.920963 93.194905 
L 183.045257 91.383537 
L 183.086688 91.383537 
L 183.210981 93.194905 
L 183.252413 93.194905 
L 183.376706 91.383537 
L 184.743934 91.383537 
L 184.868228 93.194905 
L 185.241108 93.194905 
L 185.365402 91.383537 
L 185.572557 91.383537 
L 185.696851 93.194905 
L 186.235456 93.194905 
L 186.359749 91.383537 
L 186.401181 91.383537 
L 186.525474 95.006274 
L 186.566905 95.006274 
L 186.691199 93.194905 
L 187.064079 93.194905 
L 187.188373 91.383537 
L 187.229804 91.383537 
L 187.354097 95.006274 
L 187.395528 95.006274 
L 187.519822 93.194905 
L 187.561253 93.194905 
L 187.685546 95.006274 
L 187.726978 95.006274 
L 187.851271 93.194905 
L 187.892702 93.194905 
L 188.016996 95.006274 
L 188.058427 95.006274 
L 188.18272 93.194905 
L 188.224151 93.194905 
L 188.348445 91.383537 
L 188.389876 91.383537 
L 188.51417 93.194905 
L 188.88705 93.194905 
L 189.011343 91.383537 
L 189.052775 91.383537 
L 189.177068 93.194905 
L 189.218499 93.194905 
L 189.342793 91.383537 
L 189.384224 91.383537 
L 189.508517 93.194905 
L 190.710021 93.194905 
L 190.834314 96.817642 
L 191.207195 96.817642 
L 191.331488 93.194905 
L 191.372919 93.194905 
L 191.497213 95.006274 
L 191.538644 95.006274 
L 191.662937 93.194905 
L 192.367267 93.194905 
L 192.491561 95.006274 
L 192.532992 95.006274 
L 192.657285 93.194905 
L 192.698716 93.194905 
L 192.82301 96.817642 
L 192.864441 96.817642 
L 192.988735 95.006274 
L 193.19589 95.006274 
L 193.320184 93.194905 
L 193.52734 93.194905 
L 193.568771 95.006274 
L 193.693064 294.2568 
L 194.148807 294.2568 
L 194.2731 290.634063 
L 194.480256 290.634063 
L 194.60455 288.822695 
L 194.645981 288.822695 
L 194.770274 287.011326 
L 194.811705 287.011326 
L 194.935999 285.199958 
L 194.97743 285.199958 
L 195.101724 283.388589 
L 195.308879 283.388589 
L 195.433173 281.577221 
L 195.640329 281.577221 
L 195.764622 279.765853 
L 195.806053 279.765853 
L 195.930347 277.954484 
L 195.971778 277.954484 
L 196.096071 274.331747 
L 196.303227 274.331747 
L 196.427521 272.520379 
L 196.634676 272.520379 
L 196.75897 270.709011 
L 196.966126 270.709011 
L 197.090419 268.897642 
L 197.297575 268.897642 
L 197.421868 272.520379 
L 197.463299 272.520379 
L 197.587593 268.897642 
L 197.794749 268.897642 
L 197.919042 267.086274 
L 198.291923 267.086274 
L 198.416216 265.274905 
L 198.789096 265.274905 
L 198.91339 263.463537 
L 199.120546 263.463537 
L 199.244839 265.274905 
L 199.61772 265.274905 
L 199.742013 263.463537 
L 200.114893 263.463537 
L 200.239187 261.652168 
L 200.446343 261.652168 
L 200.570636 263.463537 
L 200.777792 263.463537 
L 200.902085 261.652168 
L 200.943517 261.652168 
L 201.06781 263.463537 
L 201.109241 263.463537 
L 201.233535 265.274905 
L 201.274966 265.274905 
L 201.399259 267.086274 
L 201.606415 267.086274 
L 201.730709 268.897642 
L 201.77214 268.897642 
L 201.896433 270.709011 
L 202.103589 270.709011 
L 202.227883 268.897642 
L 202.435038 268.897642 
L 202.559332 270.709011 
L 202.600763 270.709011 
L 202.725056 265.274905 
L 202.766488 265.274905 
L 202.890781 268.897642 
L 202.932212 268.897642 
L 203.056506 267.086274 
L 203.263661 267.086274 
L 203.387955 268.897642 
L 203.760835 268.897642 
L 203.885129 267.086274 
L 203.92656 267.086274 
L 204.050853 268.897642 
L 204.092285 268.897642 
L 204.216578 270.709011 
L 204.258009 270.709011 
L 204.382303 268.897642 
L 204.423734 268.897642 
L 204.548027 270.709011 
L 204.589458 270.709011 
L 204.713752 268.897642 
L 205.086632 268.897642 
L 205.210926 270.709011 
L 205.252357 270.709011 
L 205.37665 268.897642 
L 205.583806 268.897642 
L 205.7081 270.709011 
L 205.915255 270.709011 
L 206.039549 268.897642 
L 206.246705 268.897642 
L 206.370998 270.709011 
L 207.241052 270.709011 
L 207.365346 272.520379 
L 207.406777 272.520379 
L 207.531071 270.709011 
L 207.572502 270.709011 
L 207.696795 272.520379 
L 207.903951 272.520379 
L 208.028244 274.331747 
L 208.401125 274.331747 
L 208.525418 276.143116 
L 208.56685 276.143116 
L 208.691143 272.520379 
L 209.064023 272.520379 
L 209.188317 270.709011 
L 209.395473 270.709011 
L 209.519766 272.520379 
L 209.726922 272.520379 
L 209.851215 274.331747 
L 210.058371 274.331747 
L 210.182665 272.520379 
L 210.224096 272.520379 
L 210.348389 270.709011 
L 210.38982 270.709011 
L 210.514114 272.520379 
L 210.72127 272.520379 
L 210.845563 270.709011 
L 210.886994 270.709011 
L 211.011288 268.897642 
L 211.052719 268.897642 
L 211.177012 267.086274 
L 211.218444 267.086274 
L 211.342737 268.897642 
L 211.384168 268.897642 
L 211.508462 267.086274 
L 211.715617 267.086274 
L 211.839911 265.274905 
L 212.212791 265.274905 
L 212.337085 263.463537 
L 212.709965 263.463537 
L 212.834259 261.652168 
L 212.87569 261.652168 
L 212.999983 259.8408 
L 213.372864 259.8408 
L 213.497157 256.218063 
L 213.870038 256.218063 
L 213.994331 254.406695 
L 214.035762 254.406695 
L 214.160056 252.595326 
L 214.201487 252.595326 
L 214.32578 254.406695 
L 214.367211 254.406695 
L 214.491505 252.595326 
L 214.532936 252.595326 
L 214.65723 248.972589 
L 214.698661 248.972589 
L 214.822954 250.783958 
L 214.864385 250.783958 
L 214.988679 247.161221 
L 215.03011 247.161221 
L 215.154403 250.783958 
L 215.361559 250.783958 
L 215.485853 252.595326 
L 215.527284 252.595326 
L 215.651577 254.406695 
L 215.693008 254.406695 
L 215.817302 256.218063 
L 215.858733 256.218063 
L 215.983027 252.595326 
L 216.190182 252.595326 
L 216.314476 248.972589 
L 216.355907 248.972589 
L 216.4802 252.595326 
L 216.687356 252.595326 
L 216.81165 254.406695 
L 216.853081 254.406695 
L 216.977374 252.595326 
L 217.681704 252.595326 
L 217.805997 250.783958 
L 218.013153 250.783958 
L 218.137447 248.972589 
L 218.178878 248.972589 
L 218.303171 250.783958 
L 218.344603 250.783958 
L 218.468896 248.972589 
L 218.841776 248.972589 
L 218.96607 243.538484 
L 219.007501 243.538484 
L 219.131795 245.349853 
L 219.173226 245.349853 
L 219.297519 241.727116 
L 219.33895 241.727116 
L 219.463244 239.915747 
L 220.001849 239.915747 
L 220.126142 236.293011 
L 220.167573 236.293011 
L 220.291867 234.481642 
L 220.333298 234.481642 
L 220.457592 230.858905 
L 220.499023 230.858905 
L 220.623316 232.670274 
L 220.664747 232.670274 
L 220.789041 230.858905 
L 221.49337 230.858905 
L 221.617664 229.047537 
L 221.659095 229.047537 
L 221.783389 230.858905 
L 221.82482 230.858905 
L 221.949113 227.236168 
L 221.990544 227.236168 
L 222.114838 229.047537 
L 222.156269 229.047537 
L 222.280562 227.236168 
L 222.321994 227.236168 
L 222.446287 225.4248 
L 222.653443 225.4248 
L 222.777736 227.236168 
L 222.819167 227.236168 
L 222.943461 225.4248 
L 222.984892 225.4248 
L 223.109186 227.236168 
L 223.150617 227.236168 
L 223.27491 225.4248 
L 223.316341 225.4248 
L 223.440635 223.613432 
L 223.482066 223.613432 
L 223.606359 225.4248 
L 223.97924 225.4248 
L 224.103533 227.236168 
L 224.144964 227.236168 
L 224.269258 229.047537 
L 224.310689 229.047537 
L 224.434983 230.858905 
L 224.476414 230.858905 
L 224.600707 229.047537 
L 224.642138 229.047537 
L 224.766432 227.236168 
L 224.807863 227.236168 
L 224.932156 232.670274 
L 225.139312 232.670274 
L 225.263606 230.858905 
L 225.305037 230.858905 
L 225.42933 232.670274 
L 225.470762 232.670274 
L 225.595055 230.858905 
L 225.636486 230.858905 
L 225.76078 229.047537 
L 225.802211 229.047537 
L 225.926504 225.4248 
L 225.967935 225.4248 
L 226.092229 221.802063 
L 226.13366 221.802063 
L 226.257954 218.179326 
L 226.299385 218.179326 
L 226.423678 216.367958 
L 226.465109 216.367958 
L 226.589403 214.556589 
L 226.630834 214.556589 
L 226.755127 210.933853 
L 226.796559 210.933853 
L 226.920852 209.122484 
L 227.128008 209.122484 
L 227.252301 205.499747 
L 227.459457 205.499747 
L 227.583751 207.311116 
L 227.956631 207.311116 
L 228.080924 209.122484 
L 228.28808 209.122484 
L 228.412374 210.933853 
L 228.785254 210.933853 
L 228.909548 209.122484 
L 228.950979 209.122484 
L 229.075272 212.745221 
L 229.282428 212.745221 
L 229.406721 214.556589 
L 229.613877 214.556589 
L 229.738171 216.367958 
L 229.779602 216.367958 
L 229.903895 214.556589 
L 229.945326 214.556589 
L 230.06962 212.745221 
L 230.4425 212.745221 
L 230.566794 210.933853 
L 230.77395 210.933853 
L 230.898243 212.745221 
L 230.939674 212.745221 
L 231.063968 210.933853 
L 231.271123 210.933853 
L 231.395417 209.122484 
L 231.436848 209.122484 
L 231.561142 210.933853 
L 231.602573 210.933853 
L 231.726866 207.311116 
L 231.768297 207.311116 
L 231.892591 209.122484 
L 231.934022 209.122484 
L 232.058315 207.311116 
L 232.596921 207.311116 
L 232.721214 205.499747 
L 232.762645 205.499747 
L 232.886939 207.311116 
L 232.92837 207.311116 
L 233.052663 205.499747 
L 233.259819 205.499747 
L 233.384112 203.688379 
L 233.425544 203.688379 
L 233.549837 205.499747 
L 233.756993 205.499747 
L 233.881286 203.688379 
L 233.922718 203.688379 
L 234.047011 201.877011 
L 234.254167 201.877011 
L 234.37846 198.254274 
L 234.419891 198.254274 
L 234.544185 200.065642 
L 234.585616 200.065642 
L 234.70991 201.877011 
L 234.751341 201.877011 
L 234.875634 207.311116 
L 235.579964 207.311116 
L 235.704257 209.122484 
L 235.911413 209.122484 
L 236.035707 210.933853 
L 236.077138 210.933853 
L 236.201431 214.556589 
L 236.242862 214.556589 
L 236.367156 216.367958 
L 236.408587 216.367958 
L 236.53288 218.179326 
L 236.740036 218.179326 
L 236.86433 214.556589 
L 237.071485 214.556589 
L 237.195779 216.367958 
L 237.23721 216.367958 
L 237.361504 212.745221 
L 237.568659 212.745221 
L 237.692953 210.933853 
L 238.065833 210.933853 
L 238.190127 207.311116 
L 238.231558 207.311116 
L 238.355851 205.499747 
L 238.728732 205.499747 
L 238.853025 203.688379 
L 238.894456 203.688379 
L 239.01875 200.065642 
L 239.225906 200.065642 
L 239.350199 198.254274 
L 239.39163 198.254274 
L 239.515924 196.442905 
L 239.723079 196.442905 
L 239.847373 194.631537 
L 240.220253 194.631537 
L 240.344547 192.820168 
L 240.551703 192.820168 
L 240.675996 189.197432 
L 241.048877 189.197432 
L 241.17317 187.386063 
L 241.214601 187.386063 
L 241.338895 183.763326 
L 241.380326 183.763326 
L 241.504619 185.574695 
L 241.54605 185.574695 
L 241.670344 183.763326 
L 241.8775 183.763326 
L 242.001793 181.951958 
L 242.043224 181.951958 
L 242.167518 183.763326 
L 242.208949 183.763326 
L 242.333242 181.951958 
L 242.374674 181.951958 
L 242.498967 180.140589 
L 242.706123 180.140589 
L 242.830416 178.329221 
L 242.871847 178.329221 
L 242.996141 176.517853 
L 243.037572 176.517853 
L 243.161866 174.706484 
L 243.203297 174.706484 
L 243.32759 176.517853 
L 243.369021 176.517853 
L 243.493315 174.706484 
L 243.700471 174.706484 
L 243.824764 172.895116 
L 244.03192 172.895116 
L 244.156213 171.083747 
L 244.197644 171.083747 
L 244.321938 172.895116 
L 244.363369 172.895116 
L 244.487663 171.083747 
L 245.026268 171.083747 
L 245.150561 172.895116 
L 245.191992 172.895116 
L 245.316286 171.083747 
L 245.357717 171.083747 
L 245.48201 172.895116 
L 245.523441 172.895116 
L 245.647735 169.272379 
L 245.689166 169.272379 
L 245.81346 172.895116 
L 245.854891 172.895116 
L 245.979184 171.083747 
L 246.352065 171.083747 
L 246.476358 169.272379 
L 246.683514 169.272379 
L 246.807807 171.083747 
L 247.014963 171.083747 
L 247.139257 169.272379 
L 247.180688 169.272379 
L 247.304981 167.461011 
L 247.346412 167.461011 
L 247.470706 169.272379 
L 247.843586 169.272379 
L 247.96788 171.083747 
L 248.837934 171.083747 
L 248.962227 172.895116 
L 249.003659 172.895116 
L 249.127952 171.083747 
L 249.335108 171.083747 
L 249.459401 172.895116 
L 249.500833 172.895116 
L 249.625126 174.706484 
L 249.666557 174.706484 
L 249.790851 172.895116 
L 249.998006 172.895116 
L 250.1223 171.083747 
L 250.163731 171.083747 
L 250.288025 172.895116 
L 250.660905 172.895116 
L 250.785198 171.083747 
L 250.82663 171.083747 
L 250.950923 174.706484 
L 250.992354 174.706484 
L 251.116648 172.895116 
L 251.158079 172.895116 
L 251.282372 174.706484 
L 251.489528 174.706484 
L 251.613822 171.083747 
L 251.655253 171.083747 
L 251.779546 172.895116 
L 252.152427 172.895116 
L 252.27672 176.517853 
L 252.318151 176.517853 
L 252.442445 172.895116 
L 252.483876 172.895116 
L 252.608169 174.706484 
L 252.6496 174.706484 
L 252.773894 172.895116 
L 252.815325 172.895116 
L 252.939619 174.706484 
L 253.478224 174.706484 
L 253.602517 176.517853 
L 253.643948 176.517853 
L 253.768242 174.706484 
L 253.809673 174.706484 
L 253.933966 172.895116 
L 254.306847 172.895116 
L 254.43114 174.706484 
L 254.638296 174.706484 
L 254.762589 172.895116 
L 254.804021 172.895116 
L 254.928314 174.706484 
L 255.632644 174.706484 
L 255.756937 176.517853 
L 255.798368 176.517853 
L 255.922662 174.706484 
L 255.964093 174.706484 
L 256.088386 176.517853 
L 256.295542 176.517853 
L 256.419836 174.706484 
L 256.461267 174.706484 
L 256.58556 176.517853 
L 257.124165 176.517853 
L 257.248459 178.329221 
L 257.28989 178.329221 
L 257.414183 176.517853 
L 257.455615 176.517853 
L 257.579908 178.329221 
L 257.621339 178.329221 
L 257.745633 176.517853 
L 258.118513 176.517853 
L 258.242807 174.706484 
L 258.284238 174.706484 
L 258.408531 176.517853 
L 258.449962 176.517853 
L 258.574256 174.706484 
L 258.615687 174.706484 
L 258.739981 178.329221 
L 258.947136 178.329221 
L 259.07143 176.517853 
L 259.610035 176.517853 
L 259.734328 180.140589 
L 259.775759 180.140589 
L 259.900053 178.329221 
L 259.941484 178.329221 
L 260.065778 180.140589 
L 260.107209 180.140589 
L 260.231502 178.329221 
L 260.272933 178.329221 
L 260.397227 180.140589 
L 260.604383 180.140589 
L 260.728676 178.329221 
L 260.770107 178.329221 
L 260.894401 180.140589 
L 260.935832 180.140589 
L 261.060125 176.517853 
L 261.101556 176.517853 
L 261.22585 180.140589 
L 261.764455 180.140589 
L 261.888748 178.329221 
L 261.93018 178.329221 
L 262.054473 181.951958 
L 262.095904 181.951958 
L 262.220198 178.329221 
L 262.261629 178.329221 
L 262.385922 181.951958 
L 262.427353 181.951958 
L 262.551647 180.140589 
L 262.593078 180.140589 
L 262.717372 178.329221 
L 262.758803 178.329221 
L 262.883096 180.140589 
L 263.421701 180.140589 
L 263.545995 181.951958 
L 263.587426 181.951958 
L 263.711719 180.140589 
L 263.75315 180.140589 
L 263.877444 181.951958 
L 263.918875 181.951958 
L 264.043169 180.140589 
L 264.250324 180.140589 
L 264.374618 181.951958 
L 264.913223 181.951958 
L 265.037516 183.763326 
L 265.078948 183.763326 
L 265.203241 181.951958 
L 265.576121 181.951958 
L 265.700415 183.763326 
L 265.741846 183.763326 
L 265.866139 185.574695 
L 265.907571 185.574695 
L 266.031864 183.763326 
L 266.073295 183.763326 
L 266.197589 181.951958 
L 266.23902 181.951958 
L 266.363313 183.763326 
L 266.736194 183.763326 
L 266.860487 185.574695 
L 266.901918 185.574695 
L 267.026212 183.763326 
L 267.067643 183.763326 
L 267.191937 185.574695 
L 267.399092 185.574695 
L 267.523386 183.763326 
L 267.564817 183.763326 
L 267.68911 185.574695 
L 267.730542 185.574695 
L 267.854835 183.763326 
L 267.896266 183.763326 
L 268.02056 185.574695 
L 268.061991 185.574695 
L 268.186284 187.386063 
L 268.39344 187.386063 
L 268.517734 185.574695 
L 268.559165 185.574695 
L 268.683458 187.386063 
L 268.890614 187.386063 
L 269.014907 183.763326 
L 269.553512 183.763326 
L 269.677806 185.574695 
L 269.719237 185.574695 
L 269.843531 181.951958 
L 269.884962 181.951958 
L 270.009255 185.574695 
L 270.050686 185.574695 
L 270.17498 183.763326 
L 270.54786 183.763326 
L 270.672154 185.574695 
L 270.713585 185.574695 
L 270.837878 183.763326 
L 271.542208 183.763326 
L 271.666501 185.574695 
L 271.707933 185.574695 
L 271.832226 183.763326 
L 272.70228 183.763326 
L 272.826574 187.386063 
L 272.868005 187.386063 
L 272.992298 185.574695 
L 273.03373 185.574695 
L 273.158023 183.763326 
L 273.199454 183.763326 
L 273.323748 181.951958 
L 273.365179 181.951958 
L 273.489472 185.574695 
L 273.696628 185.574695 
L 273.820922 183.763326 
L 273.862353 183.763326 
L 273.986646 185.574695 
L 274.028077 185.574695 
L 274.152371 183.763326 
L 274.193802 183.763326 
L 274.318096 187.386063 
L 274.359527 187.386063 
L 274.48382 185.574695 
L 274.525251 185.574695 
L 274.649545 187.386063 
L 274.856701 187.386063 
L 274.980994 189.197432 
L 275.022425 189.197432 
L 275.146719 185.574695 
L 275.18815 185.574695 
L 275.312443 187.386063 
L 275.851048 187.386063 
L 275.975342 189.197432 
L 276.016773 189.197432 
L 276.141066 191.0088 
L 276.182498 191.0088 
L 276.306791 189.197432 
L 276.348222 189.197432 
L 276.472516 191.0088 
L 276.679671 191.0088 
L 276.803965 192.820168 
L 277.011121 192.820168 
L 277.135414 191.0088 
L 277.176845 191.0088 
L 277.301139 192.820168 
L 277.34257 192.820168 
L 277.466863 194.631537 
L 277.508295 194.631537 
L 277.632588 192.820168 
L 277.674019 192.820168 
L 277.798313 194.631537 
L 278.336918 194.631537 
L 278.461211 196.442905 
L 279.994164 196.442905 
L 280.118457 198.254274 
L 280.988512 198.254274 
L 281.112805 200.065642 
L 281.154236 200.065642 
L 281.27853 201.877011 
L 281.319961 201.877011 
L 281.444254 200.065642 
L 281.485686 200.065642 
L 281.609979 203.688379 
L 281.65141 203.688379 
L 281.775704 201.877011 
L 281.817135 201.877011 
L 281.941428 203.688379 
L 281.98286 203.688379 
L 282.107153 201.877011 
L 282.314309 201.877011 
L 282.438602 203.688379 
L 282.480033 203.688379 
L 282.604327 201.877011 
L 282.645758 201.877011 
L 282.770052 203.688379 
L 282.811483 203.688379 
L 282.935776 201.877011 
L 282.977207 201.877011 
L 283.101501 203.688379 
L 283.474381 203.688379 
L 283.598675 205.499747 
L 283.640106 205.499747 
L 283.764399 201.877011 
L 283.80583 201.877011 
L 283.930124 203.688379 
L 284.468729 203.688379 
L 284.593022 201.877011 
L 285.131627 201.877011 
L 285.255921 205.499747 
L 285.297352 205.499747 
L 285.421646 203.688379 
L 285.463077 203.688379 
L 285.58737 201.877011 
L 285.628801 201.877011 
L 285.753095 203.688379 
L 285.960251 203.688379 
L 286.084544 205.499747 
L 286.2917 205.499747 
L 286.415993 203.688379 
L 286.457424 203.688379 
L 286.581718 205.499747 
L 286.788874 205.499747 
L 286.913167 203.688379 
L 287.120323 203.688379 
L 287.244616 205.499747 
L 287.286048 205.499747 
L 287.410341 207.311116 
L 287.451772 207.311116 
L 287.576066 203.688379 
L 287.617497 203.688379 
L 287.74179 207.311116 
L 287.783221 207.311116 
L 287.907515 203.688379 
L 287.948946 203.688379 
L 288.07324 205.499747 
L 288.44612 205.499747 
L 288.570413 203.688379 
L 288.611845 203.688379 
L 288.736138 205.499747 
L 288.777569 205.499747 
L 288.901863 209.122484 
L 288.943294 209.122484 
L 289.067587 205.499747 
L 289.109019 205.499747 
L 289.233312 203.688379 
L 289.274743 203.688379 
L 289.399037 205.499747 
L 289.440468 205.499747 
L 289.564761 207.311116 
L 289.771917 207.311116 
L 289.89621 205.499747 
L 289.937642 205.499747 
L 290.061935 207.311116 
L 290.103366 207.311116 
L 290.22766 203.688379 
L 290.269091 203.688379 
L 290.393384 207.311116 
L 290.434816 207.311116 
L 290.559109 205.499747 
L 290.766265 205.499747 
L 290.890558 207.311116 
L 290.931989 207.311116 
L 291.056283 205.499747 
L 291.263439 205.499747 
L 291.387732 207.311116 
L 291.429163 207.311116 
L 291.553457 205.499747 
L 291.594888 205.499747 
L 291.719181 203.688379 
L 291.760613 203.688379 
L 291.884906 207.311116 
L 292.257786 207.311116 
L 292.38208 209.122484 
L 292.423511 209.122484 
L 292.547805 207.311116 
L 292.75496 207.311116 
L 292.879254 209.122484 
L 292.920685 209.122484 
L 293.044978 207.311116 
L 293.417859 207.311116 
L 293.542152 205.499747 
L 293.583583 205.499747 
L 293.707877 207.311116 
L 293.915033 207.311116 
L 294.039326 205.499747 
L 294.412207 205.499747 
L 294.5365 207.311116 
L 294.90938 207.311116 
L 295.033674 205.499747 
L 295.075105 205.499747 
L 295.199399 207.311116 
L 295.24083 207.311116 
L 295.365123 205.499747 
L 295.406554 205.499747 
L 295.530848 207.311116 
L 295.738004 207.311116 
L 295.862297 205.499747 
L 295.903728 205.499747 
L 296.028022 203.688379 
L 296.069453 203.688379 
L 296.193746 205.499747 
L 296.400902 205.499747 
L 296.525196 203.688379 
L 296.566627 203.688379 
L 296.69092 205.499747 
L 296.898076 205.499747 
L 297.022369 203.688379 
L 297.063801 203.688379 
L 297.188094 205.499747 
L 297.39525 205.499747 
L 297.519543 207.311116 
L 297.560975 207.311116 
L 297.685268 205.499747 
L 297.892424 205.499747 
L 298.016717 207.311116 
L 298.223873 207.311116 
L 298.348167 205.499747 
L 299.715395 205.499747 
L 299.839688 207.311116 
L 299.881119 207.311116 
L 300.005413 205.499747 
L 300.046844 205.499747 
L 300.171137 207.311116 
L 300.378293 207.311116 
L 300.502587 209.122484 
L 300.544018 209.122484 
L 300.668311 205.499747 
L 300.709742 205.499747 
L 300.834036 207.311116 
L 300.875467 207.311116 
L 300.999761 205.499747 
L 301.041192 205.499747 
L 301.165485 207.311116 
L 301.206916 207.311116 
L 301.33121 205.499747 
L 301.538366 205.499747 
L 301.662659 207.311116 
L 302.035539 207.311116 
L 302.159833 209.122484 
L 302.201264 209.122484 
L 302.325558 210.933853 
L 302.366989 210.933853 
L 302.491282 209.122484 
L 302.698438 209.122484 
L 302.822731 207.311116 
L 302.864163 207.311116 
L 302.988456 209.122484 
L 303.029887 209.122484 
L 303.154181 207.311116 
L 303.195612 207.311116 
L 303.319905 209.122484 
L 303.527061 209.122484 
L 303.651355 210.933853 
L 304.18996 210.933853 
L 304.314253 212.745221 
L 304.355684 212.745221 
L 304.479978 210.933853 
L 304.521409 210.933853 
L 304.645702 212.745221 
L 304.687134 212.745221 
L 304.811427 210.933853 
L 304.852858 210.933853 
L 304.977152 214.556589 
L 305.184307 214.556589 
L 305.308601 212.745221 
L 305.350032 212.745221 
L 305.474325 216.367958 
L 305.515757 216.367958 
L 305.64005 214.556589 
L 305.681481 214.556589 
L 305.805775 216.367958 
L 306.012931 216.367958 
L 306.137224 214.556589 
L 306.34438 214.556589 
L 306.468673 216.367958 
L 306.510104 216.367958 
L 306.634398 214.556589 
L 306.675829 214.556589 
L 306.800123 216.367958 
L 307.007278 216.367958 
L 307.131572 214.556589 
L 307.173003 214.556589 
L 307.297296 216.367958 
L 307.338728 216.367958 
L 307.463021 218.179326 
L 307.504452 218.179326 
L 307.628746 216.367958 
L 308.001626 216.367958 
L 308.12592 218.179326 
L 308.167351 218.179326 
L 308.291644 216.367958 
L 308.333075 216.367958 
L 308.457369 218.179326 
L 308.830249 218.179326 
L 308.954543 219.990695 
L 308.995974 219.990695 
L 309.120267 218.179326 
L 309.161698 218.179326 
L 309.285992 216.367958 
L 309.327423 216.367958 
L 309.451717 218.179326 
L 309.493148 218.179326 
L 309.617441 219.990695 
L 309.990322 219.990695 
L 310.114615 221.802063 
L 310.156046 221.802063 
L 310.28034 225.4248 
L 310.321771 225.4248 
L 310.446064 223.613432 
L 310.487495 223.613432 
L 310.611789 225.4248 
L 310.65322 225.4248 
L 310.777514 227.236168 
L 310.818945 227.236168 
L 310.943238 225.4248 
L 311.813292 225.4248 
L 311.937586 227.236168 
L 311.979017 227.236168 
L 312.103311 225.4248 
L 312.80764 225.4248 
L 312.931934 223.613432 
L 312.973365 223.613432 
L 313.097658 227.236168 
L 313.13909 227.236168 
L 313.263383 225.4248 
L 313.470539 225.4248 
L 313.594832 227.236168 
L 313.801988 227.236168 
L 313.926281 223.613432 
L 313.967713 223.613432 
L 314.092006 225.4248 
L 314.464887 225.4248 
L 314.58918 227.236168 
L 314.796336 227.236168 
L 314.920629 230.858905 
L 314.96206 230.858905 
L 315.086354 227.236168 
L 315.127785 227.236168 
L 315.252079 229.047537 
L 315.29351 229.047537 
L 315.417803 232.670274 
L 315.459234 232.670274 
L 315.583528 229.047537 
L 315.956408 229.047537 
L 316.080702 227.236168 
L 316.122133 227.236168 
L 316.246426 229.047537 
L 316.453582 229.047537 
L 316.577876 232.670274 
L 316.619307 232.670274 
L 316.7436 230.858905 
L 316.785031 230.858905 
L 316.909325 229.047537 
L 316.950756 229.047537 
L 317.075049 230.858905 
L 317.44793 230.858905 
L 317.572223 229.047537 
L 317.613654 229.047537 
L 317.737948 230.858905 
L 317.945104 230.858905 
L 318.069397 232.670274 
L 318.110828 232.670274 
L 318.235122 230.858905 
L 318.276553 230.858905 
L 318.400846 232.670274 
L 318.773727 232.670274 
L 318.89802 230.858905 
L 318.939451 230.858905 
L 319.063745 232.670274 
L 319.105176 232.670274 
L 319.22947 234.481642 
L 319.270901 234.481642 
L 319.395194 230.858905 
L 319.436625 230.858905 
L 319.560919 232.670274 
L 319.768075 232.670274 
L 319.892368 234.481642 
L 320.099524 234.481642 
L 320.223817 236.293011 
L 320.762422 236.293011 
L 320.886716 234.481642 
L 321.093872 234.481642 
L 321.218165 236.293011 
L 321.259596 236.293011 
L 321.38389 234.481642 
L 321.922495 234.481642 
L 322.046788 232.670274 
L 322.088219 232.670274 
L 322.212513 234.481642 
L 322.253944 234.481642 
L 322.378238 232.670274 
L 323.248292 232.670274 
L 323.372585 234.481642 
L 323.414016 234.481642 
L 323.53831 232.670274 
L 323.745466 232.670274 
L 323.869759 234.481642 
L 323.91119 234.481642 
L 324.035484 230.858905 
L 324.24264 230.858905 
L 324.366933 232.670274 
L 324.905538 232.670274 
L 325.029832 230.858905 
L 325.071263 230.858905 
L 325.195556 229.047537 
L 325.236987 229.047537 
L 325.361281 230.858905 
L 325.402712 230.858905 
L 325.527005 229.047537 
L 325.568437 229.047537 
L 325.69273 227.236168 
L 325.734161 227.236168 
L 325.858455 229.047537 
L 325.899886 229.047537 
L 326.024179 230.858905 
L 326.06561 230.858905 
L 326.189904 232.670274 
L 326.231335 232.670274 
L 326.355629 229.047537 
L 326.39706 229.047537 
L 326.521353 230.858905 
L 326.562784 230.858905 
L 326.687078 229.047537 
L 326.728509 229.047537 
L 326.852802 230.858905 
L 326.894234 230.858905 
L 327.018527 232.670274 
L 327.059958 232.670274 
L 327.184252 234.481642 
L 327.225683 234.481642 
L 327.349976 232.670274 
L 327.888581 232.670274 
L 328.012875 234.481642 
L 328.054306 234.481642 
L 328.178599 232.670274 
L 328.385755 232.670274 
L 328.510049 230.858905 
L 328.717205 230.858905 
L 328.841498 229.047537 
L 328.882929 229.047537 
L 329.007223 232.670274 
L 329.048654 232.670274 
L 329.172947 230.858905 
L 330.043002 230.858905 
L 330.167295 227.236168 
L 330.208726 227.236168 
L 330.33302 229.047537 
L 330.374451 229.047537 
L 330.498744 227.236168 
L 331.037349 227.236168 
L 331.161643 225.4248 
L 331.368799 225.4248 
L 331.493092 227.236168 
L 331.534523 227.236168 
L 331.658817 225.4248 
L 331.700248 225.4248 
L 331.824541 227.236168 
L 331.865972 227.236168 
L 331.990266 225.4248 
L 332.031697 225.4248 
L 332.155991 227.236168 
L 332.86032 227.236168 
L 332.984614 225.4248 
L 333.191769 225.4248 
L 333.316063 227.236168 
L 333.357494 227.236168 
L 333.481788 229.047537 
L 333.523219 229.047537 
L 333.647512 227.236168 
L 333.854668 227.236168 
L 333.978961 225.4248 
L 334.186117 225.4248 
L 334.310411 227.236168 
L 334.683291 227.236168 
L 334.807585 225.4248 
L 334.849016 225.4248 
L 334.973309 227.236168 
L 335.511914 227.236168 
L 335.636208 225.4248 
L 335.677639 225.4248 
L 335.801932 229.047537 
L 335.843363 229.047537 
L 335.967657 227.236168 
L 336.340537 227.236168 
L 336.464831 229.047537 
L 336.506262 229.047537 
L 336.630555 227.236168 
L 336.837711 227.236168 
L 336.962005 229.047537 
L 337.334885 229.047537 
L 337.459179 230.858905 
L 337.50061 230.858905 
L 337.624903 229.047537 
L 337.997784 229.047537 
L 338.122077 232.670274 
L 338.163508 232.670274 
L 338.287802 230.858905 
L 338.494958 230.858905 
L 338.619251 229.047537 
L 338.660682 229.047537 
L 338.784976 230.858905 
L 338.826407 230.858905 
L 338.9507 232.670274 
L 338.992131 232.670274 
L 339.116425 230.858905 
L 339.489305 230.858905 
L 339.613599 229.047537 
L 339.65503 229.047537 
L 339.779323 232.670274 
L 341.146552 232.670274 
L 341.270845 230.858905 
L 341.312276 230.858905 
L 341.43657 232.670274 
L 341.975175 232.670274 
L 342.099468 229.047537 
L 342.140899 229.047537 
L 342.265193 230.858905 
L 342.306624 230.858905 
L 342.430917 232.670274 
L 342.638073 232.670274 
L 342.762367 230.858905 
L 342.803798 230.858905 
L 342.928091 232.670274 
L 342.969522 232.670274 
L 343.093816 230.858905 
L 343.300972 230.858905 
L 343.425265 229.047537 
L 343.466696 229.047537 
L 343.59099 230.858905 
L 343.632421 230.858905 
L 343.756714 229.047537 
L 343.96387 229.047537 
L 344.088164 232.670274 
L 344.129595 232.670274 
L 344.253888 230.858905 
L 344.29532 230.858905 
L 344.419613 229.047537 
L 344.461044 229.047537 
L 344.585338 232.670274 
L 344.626769 232.670274 
L 344.751062 229.047537 
L 344.792493 229.047537 
L 344.916787 232.670274 
L 345.123943 232.670274 
L 345.248236 229.047537 
L 345.289667 229.047537 
L 345.413961 230.858905 
L 345.455392 230.858905 
L 345.579685 229.047537 
L 345.621117 229.047537 
L 345.74541 230.858905 
L 346.284015 230.858905 
L 346.408309 229.047537 
L 346.44974 229.047537 
L 346.574033 230.858905 
L 346.781189 230.858905 
L 346.905482 229.047537 
L 347.278363 229.047537 
L 347.402656 230.858905 
L 348.106986 230.858905 
L 348.231279 234.481642 
L 348.272711 234.481642 
L 348.397004 230.858905 
L 348.438435 230.858905 
L 348.562729 232.670274 
L 349.101334 232.670274 
L 349.225627 230.858905 
L 349.267058 230.858905 
L 349.391352 232.670274 
L 349.432783 232.670274 
L 349.557076 234.481642 
L 349.598508 234.481642 
L 349.722801 232.670274 
L 350.095681 232.670274 
L 350.219975 234.481642 
L 350.261406 234.481642 
L 350.3857 232.670274 
L 350.924305 232.670274 
L 351.048598 229.047537 
L 351.090029 229.047537 
L 351.214323 232.670274 
L 351.255754 232.670274 
L 351.380047 229.047537 
L 351.421478 229.047537 
L 351.545772 230.858905 
L 351.587203 230.858905 
L 351.711497 229.047537 
L 351.752928 229.047537 
L 351.877221 227.236168 
L 351.918652 227.236168 
L 352.042946 234.481642 
L 352.084377 234.481642 
L 352.20867 232.670274 
L 352.250102 232.670274 
L 352.374395 238.104379 
L 352.415826 238.104379 
L 352.54012 243.538484 
L 352.747276 243.538484 
L 352.871569 245.349853 
L 352.913 245.349853 
L 353.037294 247.161221 
L 353.078725 247.161221 
L 353.203018 250.783958 
L 353.244449 250.783958 
L 353.368743 248.972589 
L 353.410174 248.972589 
L 353.534467 250.783958 
L 353.575899 250.783958 
L 353.700192 254.406695 
L 353.741623 254.406695 
L 353.865917 256.218063 
L 354.073073 256.218063 
L 354.197366 259.8408 
L 354.238797 259.8408 
L 354.363091 258.029432 
L 354.404522 258.029432 
L 354.528815 259.8408 
L 354.570246 259.8408 
L 354.69454 263.463537 
L 354.735971 263.463537 
L 354.860265 261.652168 
L 354.901696 261.652168 
L 355.025989 265.274905 
L 355.06742 265.274905 
L 355.191714 263.463537 
L 355.564594 263.463537 
L 355.688888 261.652168 
L 355.730319 261.652168 
L 355.854612 263.463537 
L 355.896043 263.463537 
L 356.020337 265.274905 
L 356.061768 265.274905 
L 356.186062 263.463537 
L 356.227493 263.463537 
L 356.351786 265.274905 
L 356.393217 265.274905 
L 356.517511 268.897642 
L 356.558942 268.897642 
L 356.683235 270.709011 
L 356.724667 270.709011 
L 356.84896 268.897642 
L 356.890391 268.897642 
L 357.014685 272.520379 
L 357.056116 272.520379 
L 357.180409 270.709011 
L 357.22184 270.709011 
L 357.346134 268.897642 
L 357.55329 268.897642 
L 357.677583 270.709011 
L 357.719014 270.709011 
L 357.843308 268.897642 
L 358.381913 268.897642 
L 358.506206 270.709011 
L 358.547637 270.709011 
L 358.671931 267.086274 
L 358.713362 267.086274 
L 358.837656 268.897642 
L 359.044811 268.897642 
L 359.169105 270.709011 
L 359.210536 270.709011 
L 359.334829 268.897642 
L 359.541985 268.897642 
L 359.666279 270.709011 
L 359.70771 270.709011 
L 359.832003 272.520379 
L 359.873434 272.520379 
L 359.997728 268.897642 
L 360.204884 268.897642 
L 360.329177 272.520379 
L 360.370608 272.520379 
L 360.494902 274.331747 
L 360.702058 274.331747 
L 360.826351 276.143116 
L 360.867782 276.143116 
L 360.992076 277.954484 
L 361.033507 277.954484 
L 361.1578 274.331747 
L 361.199232 274.331747 
L 361.323525 276.143116 
L 361.364956 276.143116 
L 361.48925 272.520379 
L 361.530681 272.520379 
L 361.654974 274.331747 
L 361.696405 274.331747 
L 361.820699 272.520379 
L 361.86213 272.520379 
L 361.986423 274.331747 
L 362.027855 274.331747 
L 362.152148 272.520379 
L 362.359304 272.520379 
L 362.483597 274.331747 
L 362.525029 274.331747 
L 362.649322 272.520379 
L 363.187927 272.520379 
L 363.312221 274.331747 
L 363.353652 274.331747 
L 363.477945 270.709011 
L 363.685101 270.709011 
L 363.809394 272.520379 
L 364.182275 272.520379 
L 364.306568 270.709011 
L 364.347999 270.709011 
L 364.472293 272.520379 
L 364.513724 272.520379 
L 364.638018 270.709011 
L 365.010898 270.709011 
L 365.135191 268.897642 
L 365.342347 268.897642 
L 365.466641 272.520379 
L 365.508072 272.520379 
L 365.632365 270.709011 
L 365.839521 270.709011 
L 365.963815 272.520379 
L 366.005246 272.520379 
L 366.129539 274.331747 
L 366.17097 274.331747 
L 366.295264 272.520379 
L 366.336695 272.520379 
L 366.460988 276.143116 
L 366.50242 276.143116 
L 366.626713 272.520379 
L 366.668144 272.520379 
L 366.792438 270.709011 
L 366.999593 270.709011 
L 367.123887 268.897642 
L 367.165318 268.897642 
L 367.289612 267.086274 
L 367.496767 267.086274 
L 367.621061 265.274905 
L 367.828217 265.274905 
L 367.95251 268.897642 
L 368.159666 268.897642 
L 368.283959 267.086274 
L 368.325391 267.086274 
L 368.449684 268.897642 
L 368.65684 268.897642 
L 368.781133 267.086274 
L 368.988289 267.086274 
L 369.112582 268.897642 
L 369.154014 268.897642 
L 369.278307 267.086274 
L 369.651188 267.086274 
L 369.775481 268.897642 
L 369.816912 268.897642 
L 369.941206 267.086274 
L 370.148361 267.086274 
L 370.272655 265.274905 
L 370.314086 265.274905 
L 370.43838 267.086274 
L 370.479811 267.086274 
L 370.604104 265.274905 
L 370.81126 265.274905 
L 370.935553 267.086274 
L 370.976985 267.086274 
L 371.101278 265.274905 
L 371.805608 265.274905 
L 371.929901 263.463537 
L 372.137057 263.463537 
L 372.26135 261.652168 
L 372.302782 261.652168 
L 372.427075 259.8408 
L 372.468506 259.8408 
L 372.5928 261.652168 
L 372.799955 261.652168 
L 372.924249 259.8408 
L 373.131405 259.8408 
L 373.255698 256.218063 
L 374.125752 256.218063 
L 374.250046 254.406695 
L 374.291477 254.406695 
L 374.415771 256.218063 
L 374.622926 256.218063 
L 374.74722 254.406695 
L 375.1201 254.406695 
L 375.244394 256.218063 
L 375.285825 256.218063 
L 375.410118 252.595326 
L 375.451549 252.595326 
L 375.575843 254.406695 
L 375.782999 254.406695 
L 375.907292 256.218063 
L 375.948723 256.218063 
L 376.073017 252.595326 
L 376.943071 252.595326 
L 377.067365 254.406695 
L 377.60597 254.406695 
L 377.730263 252.595326 
L 377.771694 252.595326 
L 377.895988 254.406695 
L 378.103144 254.406695 
L 378.227437 256.218063 
L 378.268868 256.218063 
L 378.393162 254.406695 
L 378.766042 254.406695 
L 378.890336 250.783958 
L 378.931767 250.783958 
L 379.05606 252.595326 
L 379.428941 252.595326 
L 379.553234 250.783958 
L 379.594665 250.783958 
L 379.718959 254.406695 
L 379.76039 254.406695 
L 379.884683 252.595326 
L 380.091839 252.595326 
L 380.216133 256.218063 
L 380.754738 256.218063 
L 380.879031 258.029432 
L 380.920462 258.029432 
L 381.044756 259.8408 
L 381.251911 259.8408 
L 381.376205 258.029432 
L 381.417636 258.029432 
L 381.54193 256.218063 
L 381.91481 256.218063 
L 382.039103 254.406695 
L 382.246259 254.406695 
L 382.370553 252.595326 
L 382.411984 252.595326 
L 382.536277 254.406695 
L 382.743433 254.406695 
L 382.867727 250.783958 
L 383.074882 250.783958 
L 383.199176 252.595326 
L 383.240607 252.595326 
L 383.3649 247.161221 
L 383.406332 247.161221 
L 383.530625 245.349853 
L 383.572056 245.349853 
L 383.69635 243.538484 
L 383.737781 243.538484 
L 383.862074 245.349853 
L 384.234955 245.349853 
L 384.359248 247.161221 
L 384.400679 247.161221 
L 384.524973 250.783958 
L 384.897853 250.783958 
L 385.022147 252.595326 
L 385.395027 252.595326 
L 385.519321 250.783958 
L 385.560752 250.783958 
L 385.685045 252.595326 
L 386.057926 252.595326 
L 386.182219 250.783958 
L 386.22365 250.783958 
L 386.347944 248.972589 
L 386.720824 248.972589 
L 386.845118 247.161221 
L 386.886549 247.161221 
L 387.010842 245.349853 
L 387.217998 245.349853 
L 387.342292 241.727116 
L 387.549447 241.727116 
L 387.673741 239.915747 
L 387.880897 239.915747 
L 388.00519 238.104379 
L 388.212346 238.104379 
L 388.336639 236.293011 
L 388.37807 236.293011 
L 388.502364 234.481642 
L 388.543795 234.481642 
L 388.668089 232.670274 
L 388.70952 232.670274 
L 388.833813 234.481642 
L 389.040969 234.481642 
L 389.165262 232.670274 
L 389.206694 232.670274 
L 389.330987 230.858905 
L 389.372418 230.858905 
L 389.496712 232.670274 
L 390.035317 232.670274 
L 390.15961 230.858905 
L 390.201041 230.858905 
L 390.325335 232.670274 
L 390.532491 232.670274 
L 390.656784 229.047537 
L 390.698215 229.047537 
L 390.822509 227.236168 
L 391.029664 227.236168 
L 391.153958 225.4248 
L 391.195389 225.4248 
L 391.319683 227.236168 
L 391.361114 227.236168 
L 391.485407 229.047537 
L 391.526838 229.047537 
L 391.651132 232.670274 
L 391.692563 232.670274 
L 391.816856 234.481642 
L 392.355462 234.481642 
L 392.479755 236.293011 
L 392.686911 236.293011 
L 392.811204 234.481642 
L 393.515534 234.481642 
L 393.639827 232.670274 
L 394.178432 232.670274 
L 394.302726 234.481642 
L 394.509882 234.481642 
L 394.634175 232.670274 
L 395.007056 232.670274 
L 395.131349 234.481642 
L 395.17278 234.481642 
L 395.297074 232.670274 
L 395.338505 232.670274 
L 395.462798 236.293011 
L 395.504229 236.293011 
L 395.628523 234.481642 
L 395.835679 234.481642 
L 395.959972 232.670274 
L 396.001403 232.670274 
L 396.125697 230.858905 
L 396.167128 230.858905 
L 396.291421 229.047537 
L 396.332853 229.047537 
L 396.457146 230.858905 
L 396.830026 230.858905 
L 396.95432 232.670274 
L 397.161476 232.670274 
L 397.285769 230.858905 
L 397.3272 230.858905 
L 397.451494 232.670274 
L 397.492925 232.670274 
L 397.617218 230.858905 
L 397.65865 230.858905 
L 397.782943 229.047537 
L 397.824374 229.047537 
L 397.948668 230.858905 
L 397.990099 230.858905 
L 398.114392 232.670274 
L 398.155823 232.670274 
L 398.280117 236.293011 
L 398.487273 236.293011 
L 398.487273 236.293011 
" style="fill:none;stroke:#1f77b4;stroke-linecap:square;stroke-width:1.5;"/>
   </g>
   <g id="patch_3">
    <path d="M 57.6 306.3024 
L 57.6 41.2992 
" style="fill:none;stroke:#000000;stroke-linecap:square;stroke-linejoin:miter;stroke-width:0.8;"/>
   </g>
   <g id="patch_4">
    <path d="M 414.72 306.3024 
L 414.72 41.2992 
" style="fill:none;stroke:#000000;stroke-linecap:square;stroke-linejoin:miter;stroke-width:0.8;"/>
   </g>
   <g id="patch_5">
    <path d="M 57.6 306.3024 
L 414.72 306.3024 
" style="fill:none;stroke:#000000;stroke-linecap:square;stroke-linejoin:miter;stroke-width:0.8;"/>
   </g>
   <g id="patch_6">
    <path d="M 57.6 41.2992 
L 414.72 41.2992 
" style="fill:none;stroke:#000000;stroke-linecap:square;stroke-linejoin:miter;stroke-width:0.8;"/>
   </g>
   <g id="text_18">
    <!-- Tempertura -->
    <g transform="translate(200.709375 35.2992)scale(0.12 -0.12)">
     <use xlink:href="#DejaVuSans-84"/>
     <use x="60.818359" xlink:href="#DejaVuSans-101"/>
     <use x="122.341797" xlink:href="#DejaVuSans-109"/>
     <use x="219.753906" xlink:href="#DejaVuSans-112"/>
     <use x="283.230469" xlink:href="#DejaVuSans-101"/>
     <use x="344.753906" xlink:href="#DejaVuSans-114"/>
     <use x="385.867188" xlink:href="#DejaVuSans-116"/>
     <use x="425.076172" xlink:href="#DejaVuSans-117"/>
     <use x="488.455078" xlink:href="#DejaVuSans-114"/>
     <use x="529.568359" xlink:href="#DejaVuSans-97"/>
    </g>
   </g>
  </g>
 </g>
 <defs>
  <clipPath id="p9874530bc8">
   <rect height="265.0032" width="357.12" x="57.6" y="41.2992"/>
  </clipPath>
 </defs>
</svg>
