<?xml version="1.0" encoding="utf-8" standalone="no"?>
<!DOCTYPE svg PUBLIC "-//W3C//DTD SVG 1.1//EN"
  "http://www.w3.org/Graphics/SVG/1.1/DTD/svg11.dtd">
<!-- Created with matplotlib (https://matplotlib.org/) -->
<svg height="344.16pt" version="1.1" viewBox="0 0 460.8 344.16" width="460.8pt" xmlns="http://www.w3.org/2000/svg" xmlns:xlink="http://www.w3.org/1999/xlink">
 <defs>
  <style type="text/css">
*{stroke-linecap:butt;stroke-linejoin:round;}
  </style>
 </defs>
 <g id="figure_1">
  <g id="patch_1">
   <path d="M 0 344.16 
L 460.8 344.16 
L 460.8 0 
L 0 0 
z
" style="fill:#ffffff;"/>
  </g>
  <g id="axes_1">
   <g id="patch_2">
    <path d="M 57.6 306.3024 
L 414.72 306.3024 
L 414.72 41.2992 
L 57.6 41.2992 
z
" style="fill:#ffffff;"/>
   </g>
   <g id="matplotlib.axis_1">
    <g id="xtick_1">
     <g id="line2d_1">
      <defs>
       <path d="M 0 0 
L 0 3.5 
" id="m744b1a6caa" style="stroke:#000000;stroke-width:0.8;"/>
      </defs>
      <g>
       <use style="stroke:#000000;stroke-width:0.8;" x="73.832727" xlink:href="#m744b1a6caa" y="306.3024"/>
      </g>
     </g>
     <g id="text_1">
      <!-- 0 -->
      <defs>
       <path d="M 31.78125 66.40625 
Q 24.171875 66.40625 20.328125 58.90625 
Q 16.5 51.421875 16.5 36.375 
Q 16.5 21.390625 20.328125 13.890625 
Q 24.171875 6.390625 31.78125 6.390625 
Q 39.453125 6.390625 43.28125 13.890625 
Q 47.125 21.390625 47.125 36.375 
Q 47.125 51.421875 43.28125 58.90625 
Q 39.453125 66.40625 31.78125 66.40625 
z
M 31.78125 74.21875 
Q 44.046875 74.21875 50.515625 64.515625 
Q 56.984375 54.828125 56.984375 36.375 
Q 56.984375 17.96875 50.515625 8.265625 
Q 44.046875 -1.421875 31.78125 -1.421875 
Q 19.53125 -1.421875 13.0625 8.265625 
Q 6.59375 17.96875 6.59375 36.375 
Q 6.59375 54.828125 13.0625 64.515625 
Q 19.53125 74.21875 31.78125 74.21875 
z
" id="DejaVuSans-48"/>
      </defs>
      <g transform="translate(70.651477 320.900838)scale(0.1 -0.1)">
       <use xlink:href="#DejaVuSans-48"/>
      </g>
     </g>
    </g>
    <g id="xtick_2">
     <g id="line2d_2">
      <g>
       <use style="stroke:#000000;stroke-width:0.8;" x="123.232384" xlink:href="#m744b1a6caa" y="306.3024"/>
      </g>
     </g>
     <g id="text_2">
      <!-- 1000 -->
      <defs>
       <path d="M 12.40625 8.296875 
L 28.515625 8.296875 
L 28.515625 63.921875 
L 10.984375 60.40625 
L 10.984375 69.390625 
L 28.421875 72.90625 
L 38.28125 72.90625 
L 38.28125 8.296875 
L 54.390625 8.296875 
L 54.390625 0 
L 12.40625 0 
z
" id="DejaVuSans-49"/>
      </defs>
      <g transform="translate(110.507384 320.900838)scale(0.1 -0.1)">
       <use xlink:href="#DejaVuSans-49"/>
       <use x="63.623047" xlink:href="#DejaVuSans-48"/>
       <use x="127.246094" xlink:href="#DejaVuSans-48"/>
       <use x="190.869141" xlink:href="#DejaVuSans-48"/>
      </g>
     </g>
    </g>
    <g id="xtick_3">
     <g id="line2d_3">
      <g>
       <use style="stroke:#000000;stroke-width:0.8;" x="172.632041" xlink:href="#m744b1a6caa" y="306.3024"/>
      </g>
     </g>
     <g id="text_3">
      <!-- 2000 -->
      <defs>
       <path d="M 19.1875 8.296875 
L 53.609375 8.296875 
L 53.609375 0 
L 7.328125 0 
L 7.328125 8.296875 
Q 12.9375 14.109375 22.625 23.890625 
Q 32.328125 33.6875 34.8125 36.53125 
Q 39.546875 41.84375 41.421875 45.53125 
Q 43.3125 49.21875 43.3125 52.78125 
Q 43.3125 58.59375 39.234375 62.25 
Q 35.15625 65.921875 28.609375 65.921875 
Q 23.96875 65.921875 18.8125 64.3125 
Q 13.671875 62.703125 7.8125 59.421875 
L 7.8125 69.390625 
Q 13.765625 71.78125 18.9375 73 
Q 24.125 74.21875 28.421875 74.21875 
Q 39.75 74.21875 46.484375 68.546875 
Q 53.21875 62.890625 53.21875 53.421875 
Q 53.21875 48.921875 51.53125 44.890625 
Q 49.859375 40.875 45.40625 35.40625 
Q 44.1875 33.984375 37.640625 27.21875 
Q 31.109375 20.453125 19.1875 8.296875 
z
" id="DejaVuSans-50"/>
      </defs>
      <g transform="translate(159.907041 320.900838)scale(0.1 -0.1)">
       <use xlink:href="#DejaVuSans-50"/>
       <use x="63.623047" xlink:href="#DejaVuSans-48"/>
       <use x="127.246094" xlink:href="#DejaVuSans-48"/>
       <use x="190.869141" xlink:href="#DejaVuSans-48"/>
      </g>
     </g>
    </g>
    <g id="xtick_4">
     <g id="line2d_4">
      <g>
       <use style="stroke:#000000;stroke-width:0.8;" x="222.031698" xlink:href="#m744b1a6caa" y="306.3024"/>
      </g>
     </g>
     <g id="text_4">
      <!-- 3000 -->
      <defs>
       <path d="M 40.578125 39.3125 
Q 47.65625 37.796875 51.625 33 
Q 55.609375 28.21875 55.609375 21.1875 
Q 55.609375 10.40625 48.1875 4.484375 
Q 40.765625 -1.421875 27.09375 -1.421875 
Q 22.515625 -1.421875 17.65625 -0.515625 
Q 12.796875 0.390625 7.625 2.203125 
L 7.625 11.71875 
Q 11.71875 9.328125 16.59375 8.109375 
Q 21.484375 6.890625 26.8125 6.890625 
Q 36.078125 6.890625 40.9375 10.546875 
Q 45.796875 14.203125 45.796875 21.1875 
Q 45.796875 27.640625 41.28125 31.265625 
Q 36.765625 34.90625 28.71875 34.90625 
L 20.21875 34.90625 
L 20.21875 43.015625 
L 29.109375 43.015625 
Q 36.375 43.015625 40.234375 45.921875 
Q 44.09375 48.828125 44.09375 54.296875 
Q 44.09375 59.90625 40.109375 62.90625 
Q 36.140625 65.921875 28.71875 65.921875 
Q 24.65625 65.921875 20.015625 65.03125 
Q 15.375 64.15625 9.8125 62.3125 
L 9.8125 71.09375 
Q 15.4375 72.65625 20.34375 73.4375 
Q 25.25 74.21875 29.59375 74.21875 
Q 40.828125 74.21875 47.359375 69.109375 
Q 53.90625 64.015625 53.90625 55.328125 
Q 53.90625 49.265625 50.4375 45.09375 
Q 46.96875 40.921875 40.578125 39.3125 
z
" id="DejaVuSans-51"/>
      </defs>
      <g transform="translate(209.306698 320.900838)scale(0.1 -0.1)">
       <use xlink:href="#DejaVuSans-51"/>
       <use x="63.623047" xlink:href="#DejaVuSans-48"/>
       <use x="127.246094" xlink:href="#DejaVuSans-48"/>
       <use x="190.869141" xlink:href="#DejaVuSans-48"/>
      </g>
     </g>
    </g>
    <g id="xtick_5">
     <g id="line2d_5">
      <g>
       <use style="stroke:#000000;stroke-width:0.8;" x="271.431355" xlink:href="#m744b1a6caa" y="306.3024"/>
      </g>
     </g>
     <g id="text_5">
      <!-- 4000 -->
      <defs>
       <path d="M 37.796875 64.3125 
L 12.890625 25.390625 
L 37.796875 25.390625 
z
M 35.203125 72.90625 
L 47.609375 72.90625 
L 47.609375 25.390625 
L 58.015625 25.390625 
L 58.015625 17.1875 
L 47.609375 17.1875 
L 47.609375 0 
L 37.796875 0 
L 37.796875 17.1875 
L 4.890625 17.1875 
L 4.890625 26.703125 
z
" id="DejaVuSans-52"/>
      </defs>
      <g transform="translate(258.706355 320.900838)scale(0.1 -0.1)">
       <use xlink:href="#DejaVuSans-52"/>
       <use x="63.623047" xlink:href="#DejaVuSans-48"/>
       <use x="127.246094" xlink:href="#DejaVuSans-48"/>
       <use x="190.869141" xlink:href="#DejaVuSans-48"/>
      </g>
     </g>
    </g>
    <g id="xtick_6">
     <g id="line2d_6">
      <g>
       <use style="stroke:#000000;stroke-width:0.8;" x="320.831012" xlink:href="#m744b1a6caa" y="306.3024"/>
      </g>
     </g>
     <g id="text_6">
      <!-- 5000 -->
      <defs>
       <path d="M 10.796875 72.90625 
L 49.515625 72.90625 
L 49.515625 64.59375 
L 19.828125 64.59375 
L 19.828125 46.734375 
Q 21.96875 47.46875 24.109375 47.828125 
Q 26.265625 48.1875 28.421875 48.1875 
Q 40.625 48.1875 47.75 41.5 
Q 54.890625 34.8125 54.890625 23.390625 
Q 54.890625 11.625 47.5625 5.09375 
Q 40.234375 -1.421875 26.90625 -1.421875 
Q 22.3125 -1.421875 17.546875 -0.640625 
Q 12.796875 0.140625 7.71875 1.703125 
L 7.71875 11.625 
Q 12.109375 9.234375 16.796875 8.0625 
Q 21.484375 6.890625 26.703125 6.890625 
Q 35.15625 6.890625 40.078125 11.328125 
Q 45.015625 15.765625 45.015625 23.390625 
Q 45.015625 31 40.078125 35.4375 
Q 35.15625 39.890625 26.703125 39.890625 
Q 22.75 39.890625 18.8125 39.015625 
Q 14.890625 38.140625 10.796875 36.28125 
z
" id="DejaVuSans-53"/>
      </defs>
      <g transform="translate(308.106012 320.900838)scale(0.1 -0.1)">
       <use xlink:href="#DejaVuSans-53"/>
       <use x="63.623047" xlink:href="#DejaVuSans-48"/>
       <use x="127.246094" xlink:href="#DejaVuSans-48"/>
       <use x="190.869141" xlink:href="#DejaVuSans-48"/>
      </g>
     </g>
    </g>
    <g id="xtick_7">
     <g id="line2d_7">
      <g>
       <use style="stroke:#000000;stroke-width:0.8;" x="370.230669" xlink:href="#m744b1a6caa" y="306.3024"/>
      </g>
     </g>
     <g id="text_7">
      <!-- 6000 -->
      <defs>
       <path d="M 33.015625 40.375 
Q 26.375 40.375 22.484375 35.828125 
Q 18.609375 31.296875 18.609375 23.390625 
Q 18.609375 15.53125 22.484375 10.953125 
Q 26.375 6.390625 33.015625 6.390625 
Q 39.65625 6.390625 43.53125 10.953125 
Q 47.40625 15.53125 47.40625 23.390625 
Q 47.40625 31.296875 43.53125 35.828125 
Q 39.65625 40.375 33.015625 40.375 
z
M 52.59375 71.296875 
L 52.59375 62.3125 
Q 48.875 64.0625 45.09375 64.984375 
Q 41.3125 65.921875 37.59375 65.921875 
Q 27.828125 65.921875 22.671875 59.328125 
Q 17.53125 52.734375 16.796875 39.40625 
Q 19.671875 43.65625 24.015625 45.921875 
Q 28.375 48.1875 33.59375 48.1875 
Q 44.578125 48.1875 50.953125 41.515625 
Q 57.328125 34.859375 57.328125 23.390625 
Q 57.328125 12.15625 50.6875 5.359375 
Q 44.046875 -1.421875 33.015625 -1.421875 
Q 20.359375 -1.421875 13.671875 8.265625 
Q 6.984375 17.96875 6.984375 36.375 
Q 6.984375 53.65625 15.1875 63.9375 
Q 23.390625 74.21875 37.203125 74.21875 
Q 40.921875 74.21875 44.703125 73.484375 
Q 48.484375 72.75 52.59375 71.296875 
z
" id="DejaVuSans-54"/>
      </defs>
      <g transform="translate(357.505669 320.900838)scale(0.1 -0.1)">
       <use xlink:href="#DejaVuSans-54"/>
       <use x="63.623047" xlink:href="#DejaVuSans-48"/>
       <use x="127.246094" xlink:href="#DejaVuSans-48"/>
       <use x="190.869141" xlink:href="#DejaVuSans-48"/>
      </g>
     </g>
    </g>
    <g id="text_8">
     <!-- Muestras -->
     <defs>
      <path d="M 9.8125 72.90625 
L 24.515625 72.90625 
L 43.109375 23.296875 
L 61.8125 72.90625 
L 76.515625 72.90625 
L 76.515625 0 
L 66.890625 0 
L 66.890625 64.015625 
L 48.09375 14.015625 
L 38.1875 14.015625 
L 19.390625 64.015625 
L 19.390625 0 
L 9.8125 0 
z
" id="DejaVuSans-77"/>
      <path d="M 8.5 21.578125 
L 8.5 54.6875 
L 17.484375 54.6875 
L 17.484375 21.921875 
Q 17.484375 14.15625 20.5 10.265625 
Q 23.53125 6.390625 29.59375 6.390625 
Q 36.859375 6.390625 41.078125 11.03125 
Q 45.3125 15.671875 45.3125 23.6875 
L 45.3125 54.6875 
L 54.296875 54.6875 
L 54.296875 0 
L 45.3125 0 
L 45.3125 8.40625 
Q 42.046875 3.421875 37.71875 1 
Q 33.40625 -1.421875 27.6875 -1.421875 
Q 18.265625 -1.421875 13.375 4.4375 
Q 8.5 10.296875 8.5 21.578125 
z
M 31.109375 56 
z
" id="DejaVuSans-117"/>
      <path d="M 56.203125 29.59375 
L 56.203125 25.203125 
L 14.890625 25.203125 
Q 15.484375 15.921875 20.484375 11.0625 
Q 25.484375 6.203125 34.421875 6.203125 
Q 39.59375 6.203125 44.453125 7.46875 
Q 49.3125 8.734375 54.109375 11.28125 
L 54.109375 2.78125 
Q 49.265625 0.734375 44.1875 -0.34375 
Q 39.109375 -1.421875 33.890625 -1.421875 
Q 20.796875 -1.421875 13.15625 6.1875 
Q 5.515625 13.8125 5.515625 26.8125 
Q 5.515625 40.234375 12.765625 48.109375 
Q 20.015625 56 32.328125 56 
Q 43.359375 56 49.78125 48.890625 
Q 56.203125 41.796875 56.203125 29.59375 
z
M 47.21875 32.234375 
Q 47.125 39.59375 43.09375 43.984375 
Q 39.0625 48.390625 32.421875 48.390625 
Q 24.90625 48.390625 20.390625 44.140625 
Q 15.875 39.890625 15.1875 32.171875 
z
" id="DejaVuSans-101"/>
      <path d="M 44.28125 53.078125 
L 44.28125 44.578125 
Q 40.484375 46.53125 36.375 47.5 
Q 32.28125 48.484375 27.875 48.484375 
Q 21.1875 48.484375 17.84375 46.4375 
Q 14.5 44.390625 14.5 40.28125 
Q 14.5 37.15625 16.890625 35.375 
Q 19.28125 33.59375 26.515625 31.984375 
L 29.59375 31.296875 
Q 39.15625 29.25 43.1875 25.515625 
Q 47.21875 21.78125 47.21875 15.09375 
Q 47.21875 7.46875 41.1875 3.015625 
Q 35.15625 -1.421875 24.609375 -1.421875 
Q 20.21875 -1.421875 15.453125 -0.5625 
Q 10.6875 0.296875 5.421875 2 
L 5.421875 11.28125 
Q 10.40625 8.6875 15.234375 7.390625 
Q 20.0625 6.109375 24.8125 6.109375 
Q 31.15625 6.109375 34.5625 8.28125 
Q 37.984375 10.453125 37.984375 14.40625 
Q 37.984375 18.0625 35.515625 20.015625 
Q 33.0625 21.96875 24.703125 23.78125 
L 21.578125 24.515625 
Q 13.234375 26.265625 9.515625 29.90625 
Q 5.8125 33.546875 5.8125 39.890625 
Q 5.8125 47.609375 11.28125 51.796875 
Q 16.75 56 26.8125 56 
Q 31.78125 56 36.171875 55.265625 
Q 40.578125 54.546875 44.28125 53.078125 
z
" id="DejaVuSans-115"/>
      <path d="M 18.3125 70.21875 
L 18.3125 54.6875 
L 36.8125 54.6875 
L 36.8125 47.703125 
L 18.3125 47.703125 
L 18.3125 18.015625 
Q 18.3125 11.328125 20.140625 9.421875 
Q 21.96875 7.515625 27.59375 7.515625 
L 36.8125 7.515625 
L 36.8125 0 
L 27.59375 0 
Q 17.1875 0 13.234375 3.875 
Q 9.28125 7.765625 9.28125 18.015625 
L 9.28125 47.703125 
L 2.6875 47.703125 
L 2.6875 54.6875 
L 9.28125 54.6875 
L 9.28125 70.21875 
z
" id="DejaVuSans-116"/>
      <path d="M 41.109375 46.296875 
Q 39.59375 47.171875 37.8125 47.578125 
Q 36.03125 48 33.890625 48 
Q 26.265625 48 22.1875 43.046875 
Q 18.109375 38.09375 18.109375 28.8125 
L 18.109375 0 
L 9.078125 0 
L 9.078125 54.6875 
L 18.109375 54.6875 
L 18.109375 46.1875 
Q 20.953125 51.171875 25.484375 53.578125 
Q 30.03125 56 36.53125 56 
Q 37.453125 56 38.578125 55.875 
Q 39.703125 55.765625 41.0625 55.515625 
z
" id="DejaVuSans-114"/>
      <path d="M 34.28125 27.484375 
Q 23.390625 27.484375 19.1875 25 
Q 14.984375 22.515625 14.984375 16.5 
Q 14.984375 11.71875 18.140625 8.90625 
Q 21.296875 6.109375 26.703125 6.109375 
Q 34.1875 6.109375 38.703125 11.40625 
Q 43.21875 16.703125 43.21875 25.484375 
L 43.21875 27.484375 
z
M 52.203125 31.203125 
L 52.203125 0 
L 43.21875 0 
L 43.21875 8.296875 
Q 40.140625 3.328125 35.546875 0.953125 
Q 30.953125 -1.421875 24.3125 -1.421875 
Q 15.921875 -1.421875 10.953125 3.296875 
Q 6 8.015625 6 15.921875 
Q 6 25.140625 12.171875 29.828125 
Q 18.359375 34.515625 30.609375 34.515625 
L 43.21875 34.515625 
L 43.21875 35.40625 
Q 43.21875 41.609375 39.140625 45 
Q 35.0625 48.390625 27.6875 48.390625 
Q 23 48.390625 18.546875 47.265625 
Q 14.109375 46.140625 10.015625 43.890625 
L 10.015625 52.203125 
Q 14.9375 54.109375 19.578125 55.046875 
Q 24.21875 56 28.609375 56 
Q 40.484375 56 46.34375 49.84375 
Q 52.203125 43.703125 52.203125 31.203125 
z
" id="DejaVuSans-97"/>
     </defs>
     <g transform="translate(213.311562 334.578963)scale(0.1 -0.1)">
      <use xlink:href="#DejaVuSans-77"/>
      <use x="86.279297" xlink:href="#DejaVuSans-117"/>
      <use x="149.658203" xlink:href="#DejaVuSans-101"/>
      <use x="211.181641" xlink:href="#DejaVuSans-115"/>
      <use x="263.28125" xlink:href="#DejaVuSans-116"/>
      <use x="302.490234" xlink:href="#DejaVuSans-114"/>
      <use x="343.603516" xlink:href="#DejaVuSans-97"/>
      <use x="404.882812" xlink:href="#DejaVuSans-115"/>
     </g>
    </g>
   </g>
   <g id="matplotlib.axis_2">
    <g id="ytick_1">
     <g id="line2d_8">
      <defs>
       <path d="M 0 0 
L -3.5 0 
" id="mdc477c15d8" style="stroke:#000000;stroke-width:0.8;"/>
      </defs>
      <g>
       <use style="stroke:#000000;stroke-width:0.8;" x="57.6" xlink:href="#mdc477c15d8" y="271.347595"/>
      </g>
     </g>
     <g id="text_9">
      <!-- 70 -->
      <defs>
       <path d="M 8.203125 72.90625 
L 55.078125 72.90625 
L 55.078125 68.703125 
L 28.609375 0 
L 18.3125 0 
L 43.21875 64.59375 
L 8.203125 64.59375 
z
" id="DejaVuSans-55"/>
      </defs>
      <g transform="translate(37.875 275.146813)scale(0.1 -0.1)">
       <use xlink:href="#DejaVuSans-55"/>
       <use x="63.623047" xlink:href="#DejaVuSans-48"/>
      </g>
     </g>
    </g>
    <g id="ytick_2">
     <g id="line2d_9">
      <g>
       <use style="stroke:#000000;stroke-width:0.8;" x="57.6" xlink:href="#mdc477c15d8" y="228.365971"/>
      </g>
     </g>
     <g id="text_10">
      <!-- 80 -->
      <defs>
       <path d="M 31.78125 34.625 
Q 24.75 34.625 20.71875 30.859375 
Q 16.703125 27.09375 16.703125 20.515625 
Q 16.703125 13.921875 20.71875 10.15625 
Q 24.75 6.390625 31.78125 6.390625 
Q 38.8125 6.390625 42.859375 10.171875 
Q 46.921875 13.96875 46.921875 20.515625 
Q 46.921875 27.09375 42.890625 30.859375 
Q 38.875 34.625 31.78125 34.625 
z
M 21.921875 38.8125 
Q 15.578125 40.375 12.03125 44.71875 
Q 8.5 49.078125 8.5 55.328125 
Q 8.5 64.0625 14.71875 69.140625 
Q 20.953125 74.21875 31.78125 74.21875 
Q 42.671875 74.21875 48.875 69.140625 
Q 55.078125 64.0625 55.078125 55.328125 
Q 55.078125 49.078125 51.53125 44.71875 
Q 48 40.375 41.703125 38.8125 
Q 48.828125 37.15625 52.796875 32.3125 
Q 56.78125 27.484375 56.78125 20.515625 
Q 56.78125 9.90625 50.3125 4.234375 
Q 43.84375 -1.421875 31.78125 -1.421875 
Q 19.734375 -1.421875 13.25 4.234375 
Q 6.78125 9.90625 6.78125 20.515625 
Q 6.78125 27.484375 10.78125 32.3125 
Q 14.796875 37.15625 21.921875 38.8125 
z
M 18.3125 54.390625 
Q 18.3125 48.734375 21.84375 45.5625 
Q 25.390625 42.390625 31.78125 42.390625 
Q 38.140625 42.390625 41.71875 45.5625 
Q 45.3125 48.734375 45.3125 54.390625 
Q 45.3125 60.0625 41.71875 63.234375 
Q 38.140625 66.40625 31.78125 66.40625 
Q 25.390625 66.40625 21.84375 63.234375 
Q 18.3125 60.0625 18.3125 54.390625 
z
" id="DejaVuSans-56"/>
      </defs>
      <g transform="translate(37.875 232.16519)scale(0.1 -0.1)">
       <use xlink:href="#DejaVuSans-56"/>
       <use x="63.623047" xlink:href="#DejaVuSans-48"/>
      </g>
     </g>
    </g>
    <g id="ytick_3">
     <g id="line2d_10">
      <g>
       <use style="stroke:#000000;stroke-width:0.8;" x="57.6" xlink:href="#mdc477c15d8" y="185.384348"/>
      </g>
     </g>
     <g id="text_11">
      <!-- 90 -->
      <defs>
       <path d="M 10.984375 1.515625 
L 10.984375 10.5 
Q 14.703125 8.734375 18.5 7.8125 
Q 22.3125 6.890625 25.984375 6.890625 
Q 35.75 6.890625 40.890625 13.453125 
Q 46.046875 20.015625 46.78125 33.40625 
Q 43.953125 29.203125 39.59375 26.953125 
Q 35.25 24.703125 29.984375 24.703125 
Q 19.046875 24.703125 12.671875 31.3125 
Q 6.296875 37.9375 6.296875 49.421875 
Q 6.296875 60.640625 12.9375 67.421875 
Q 19.578125 74.21875 30.609375 74.21875 
Q 43.265625 74.21875 49.921875 64.515625 
Q 56.59375 54.828125 56.59375 36.375 
Q 56.59375 19.140625 48.40625 8.859375 
Q 40.234375 -1.421875 26.421875 -1.421875 
Q 22.703125 -1.421875 18.890625 -0.6875 
Q 15.09375 0.046875 10.984375 1.515625 
z
M 30.609375 32.421875 
Q 37.25 32.421875 41.125 36.953125 
Q 45.015625 41.5 45.015625 49.421875 
Q 45.015625 57.28125 41.125 61.84375 
Q 37.25 66.40625 30.609375 66.40625 
Q 23.96875 66.40625 20.09375 61.84375 
Q 16.21875 57.28125 16.21875 49.421875 
Q 16.21875 41.5 20.09375 36.953125 
Q 23.96875 32.421875 30.609375 32.421875 
z
" id="DejaVuSans-57"/>
      </defs>
      <g transform="translate(37.875 189.183566)scale(0.1 -0.1)">
       <use xlink:href="#DejaVuSans-57"/>
       <use x="63.623047" xlink:href="#DejaVuSans-48"/>
      </g>
     </g>
    </g>
    <g id="ytick_4">
     <g id="line2d_11">
      <g>
       <use style="stroke:#000000;stroke-width:0.8;" x="57.6" xlink:href="#mdc477c15d8" y="142.402724"/>
      </g>
     </g>
     <g id="text_12">
      <!-- 100 -->
      <g transform="translate(31.5125 146.201943)scale(0.1 -0.1)">
       <use xlink:href="#DejaVuSans-49"/>
       <use x="63.623047" xlink:href="#DejaVuSans-48"/>
       <use x="127.246094" xlink:href="#DejaVuSans-48"/>
      </g>
     </g>
    </g>
    <g id="ytick_5">
     <g id="line2d_12">
      <g>
       <use style="stroke:#000000;stroke-width:0.8;" x="57.6" xlink:href="#mdc477c15d8" y="99.4211"/>
      </g>
     </g>
     <g id="text_13">
      <!-- 110 -->
      <g transform="translate(31.5125 103.220319)scale(0.1 -0.1)">
       <use xlink:href="#DejaVuSans-49"/>
       <use x="63.623047" xlink:href="#DejaVuSans-49"/>
       <use x="127.246094" xlink:href="#DejaVuSans-48"/>
      </g>
     </g>
    </g>
    <g id="ytick_6">
     <g id="line2d_13">
      <g>
       <use style="stroke:#000000;stroke-width:0.8;" x="57.6" xlink:href="#mdc477c15d8" y="56.439477"/>
      </g>
     </g>
     <g id="text_14">
      <!-- 120 -->
      <g transform="translate(31.5125 60.238696)scale(0.1 -0.1)">
       <use xlink:href="#DejaVuSans-49"/>
       <use x="63.623047" xlink:href="#DejaVuSans-50"/>
       <use x="127.246094" xlink:href="#DejaVuSans-48"/>
      </g>
     </g>
    </g>
    <g id="text_15">
     <!-- Valor de Ritmo Cardíaco -->
     <defs>
      <path d="M 28.609375 0 
L 0.78125 72.90625 
L 11.078125 72.90625 
L 34.1875 11.53125 
L 57.328125 72.90625 
L 67.578125 72.90625 
L 39.796875 0 
z
" id="DejaVuSans-86"/>
      <path d="M 9.421875 75.984375 
L 18.40625 75.984375 
L 18.40625 0 
L 9.421875 0 
z
" id="DejaVuSans-108"/>
      <path d="M 30.609375 48.390625 
Q 23.390625 48.390625 19.1875 42.75 
Q 14.984375 37.109375 14.984375 27.296875 
Q 14.984375 17.484375 19.15625 11.84375 
Q 23.34375 6.203125 30.609375 6.203125 
Q 37.796875 6.203125 41.984375 11.859375 
Q 46.1875 17.53125 46.1875 27.296875 
Q 46.1875 37.015625 41.984375 42.703125 
Q 37.796875 48.390625 30.609375 48.390625 
z
M 30.609375 56 
Q 42.328125 56 49.015625 48.375 
Q 55.71875 40.765625 55.71875 27.296875 
Q 55.71875 13.875 49.015625 6.21875 
Q 42.328125 -1.421875 30.609375 -1.421875 
Q 18.84375 -1.421875 12.171875 6.21875 
Q 5.515625 13.875 5.515625 27.296875 
Q 5.515625 40.765625 12.171875 48.375 
Q 18.84375 56 30.609375 56 
z
" id="DejaVuSans-111"/>
      <path id="DejaVuSans-32"/>
      <path d="M 45.40625 46.390625 
L 45.40625 75.984375 
L 54.390625 75.984375 
L 54.390625 0 
L 45.40625 0 
L 45.40625 8.203125 
Q 42.578125 3.328125 38.25 0.953125 
Q 33.9375 -1.421875 27.875 -1.421875 
Q 17.96875 -1.421875 11.734375 6.484375 
Q 5.515625 14.40625 5.515625 27.296875 
Q 5.515625 40.1875 11.734375 48.09375 
Q 17.96875 56 27.875 56 
Q 33.9375 56 38.25 53.625 
Q 42.578125 51.265625 45.40625 46.390625 
z
M 14.796875 27.296875 
Q 14.796875 17.390625 18.875 11.75 
Q 22.953125 6.109375 30.078125 6.109375 
Q 37.203125 6.109375 41.296875 11.75 
Q 45.40625 17.390625 45.40625 27.296875 
Q 45.40625 37.203125 41.296875 42.84375 
Q 37.203125 48.484375 30.078125 48.484375 
Q 22.953125 48.484375 18.875 42.84375 
Q 14.796875 37.203125 14.796875 27.296875 
z
" id="DejaVuSans-100"/>
      <path d="M 44.390625 34.1875 
Q 47.5625 33.109375 50.5625 29.59375 
Q 53.5625 26.078125 56.59375 19.921875 
L 66.609375 0 
L 56 0 
L 46.6875 18.703125 
Q 43.0625 26.03125 39.671875 28.421875 
Q 36.28125 30.8125 30.421875 30.8125 
L 19.671875 30.8125 
L 19.671875 0 
L 9.8125 0 
L 9.8125 72.90625 
L 32.078125 72.90625 
Q 44.578125 72.90625 50.734375 67.671875 
Q 56.890625 62.453125 56.890625 51.90625 
Q 56.890625 45.015625 53.6875 40.46875 
Q 50.484375 35.9375 44.390625 34.1875 
z
M 19.671875 64.796875 
L 19.671875 38.921875 
L 32.078125 38.921875 
Q 39.203125 38.921875 42.84375 42.21875 
Q 46.484375 45.515625 46.484375 51.90625 
Q 46.484375 58.296875 42.84375 61.546875 
Q 39.203125 64.796875 32.078125 64.796875 
z
" id="DejaVuSans-82"/>
      <path d="M 9.421875 54.6875 
L 18.40625 54.6875 
L 18.40625 0 
L 9.421875 0 
z
M 9.421875 75.984375 
L 18.40625 75.984375 
L 18.40625 64.59375 
L 9.421875 64.59375 
z
" id="DejaVuSans-105"/>
      <path d="M 52 44.1875 
Q 55.375 50.25 60.0625 53.125 
Q 64.75 56 71.09375 56 
Q 79.640625 56 84.28125 50.015625 
Q 88.921875 44.046875 88.921875 33.015625 
L 88.921875 0 
L 79.890625 0 
L 79.890625 32.71875 
Q 79.890625 40.578125 77.09375 44.375 
Q 74.3125 48.1875 68.609375 48.1875 
Q 61.625 48.1875 57.5625 43.546875 
Q 53.515625 38.921875 53.515625 30.90625 
L 53.515625 0 
L 44.484375 0 
L 44.484375 32.71875 
Q 44.484375 40.625 41.703125 44.40625 
Q 38.921875 48.1875 33.109375 48.1875 
Q 26.21875 48.1875 22.15625 43.53125 
Q 18.109375 38.875 18.109375 30.90625 
L 18.109375 0 
L 9.078125 0 
L 9.078125 54.6875 
L 18.109375 54.6875 
L 18.109375 46.1875 
Q 21.1875 51.21875 25.484375 53.609375 
Q 29.78125 56 35.6875 56 
Q 41.65625 56 45.828125 52.96875 
Q 50 49.953125 52 44.1875 
z
" id="DejaVuSans-109"/>
      <path d="M 64.40625 67.28125 
L 64.40625 56.890625 
Q 59.421875 61.53125 53.78125 63.8125 
Q 48.140625 66.109375 41.796875 66.109375 
Q 29.296875 66.109375 22.65625 58.46875 
Q 16.015625 50.828125 16.015625 36.375 
Q 16.015625 21.96875 22.65625 14.328125 
Q 29.296875 6.6875 41.796875 6.6875 
Q 48.140625 6.6875 53.78125 8.984375 
Q 59.421875 11.28125 64.40625 15.921875 
L 64.40625 5.609375 
Q 59.234375 2.09375 53.4375 0.328125 
Q 47.65625 -1.421875 41.21875 -1.421875 
Q 24.65625 -1.421875 15.125 8.703125 
Q 5.609375 18.84375 5.609375 36.375 
Q 5.609375 53.953125 15.125 64.078125 
Q 24.65625 74.21875 41.21875 74.21875 
Q 47.75 74.21875 53.53125 72.484375 
Q 59.328125 70.75 64.40625 67.28125 
z
" id="DejaVuSans-67"/>
      <path d="M 20.703125 79.984375 
L 30.421875 79.984375 
L 14.5 61.625 
L 7.03125 61.625 
z
M 9.421875 54.6875 
L 18.40625 54.6875 
L 18.40625 0 
L 9.421875 0 
z
M 13.921875 56 
z
" id="DejaVuSans-237"/>
      <path d="M 48.78125 52.59375 
L 48.78125 44.1875 
Q 44.96875 46.296875 41.140625 47.34375 
Q 37.3125 48.390625 33.40625 48.390625 
Q 24.65625 48.390625 19.8125 42.84375 
Q 14.984375 37.3125 14.984375 27.296875 
Q 14.984375 17.28125 19.8125 11.734375 
Q 24.65625 6.203125 33.40625 6.203125 
Q 37.3125 6.203125 41.140625 7.25 
Q 44.96875 8.296875 48.78125 10.40625 
L 48.78125 2.09375 
Q 45.015625 0.34375 40.984375 -0.53125 
Q 36.96875 -1.421875 32.421875 -1.421875 
Q 20.0625 -1.421875 12.78125 6.34375 
Q 5.515625 14.109375 5.515625 27.296875 
Q 5.515625 40.671875 12.859375 48.328125 
Q 20.21875 56 33.015625 56 
Q 37.15625 56 41.109375 55.140625 
Q 45.0625 54.296875 48.78125 52.59375 
z
" id="DejaVuSans-99"/>
     </defs>
     <g transform="translate(25.432812 234.6008)rotate(-90)scale(0.1 -0.1)">
      <use xlink:href="#DejaVuSans-86"/>
      <use x="68.298828" xlink:href="#DejaVuSans-97"/>
      <use x="129.578125" xlink:href="#DejaVuSans-108"/>
      <use x="157.361328" xlink:href="#DejaVuSans-111"/>
      <use x="218.542969" xlink:href="#DejaVuSans-114"/>
      <use x="259.65625" xlink:href="#DejaVuSans-32"/>
      <use x="291.443359" xlink:href="#DejaVuSans-100"/>
      <use x="354.919922" xlink:href="#DejaVuSans-101"/>
      <use x="416.443359" xlink:href="#DejaVuSans-32"/>
      <use x="448.230469" xlink:href="#DejaVuSans-82"/>
      <use x="517.712891" xlink:href="#DejaVuSans-105"/>
      <use x="545.496094" xlink:href="#DejaVuSans-116"/>
      <use x="584.705078" xlink:href="#DejaVuSans-109"/>
      <use x="682.117188" xlink:href="#DejaVuSans-111"/>
      <use x="743.298828" xlink:href="#DejaVuSans-32"/>
      <use x="775.085938" xlink:href="#DejaVuSans-67"/>
      <use x="844.910156" xlink:href="#DejaVuSans-97"/>
      <use x="906.189453" xlink:href="#DejaVuSans-114"/>
      <use x="947.287109" xlink:href="#DejaVuSans-100"/>
      <use x="1010.763672" xlink:href="#DejaVuSans-237"/>
      <use x="1038.546875" xlink:href="#DejaVuSans-97"/>
      <use x="1099.826172" xlink:href="#DejaVuSans-99"/>
      <use x="1154.806641" xlink:href="#DejaVuSans-111"/>
     </g>
    </g>
   </g>
   <g id="line2d_14">
    <path clip-path="url(#p2f1132cb06)" d="M 73.832727 134.794977 
L 73.980926 135.095848 
L 74.178525 134.537087 
L 74.376123 134.021307 
L 74.573722 133.935344 
L 74.672521 133.720436 
L 75.215918 132.430987 
L 75.364117 133.29062 
L 75.512316 133.935344 
L 75.561715 133.892363 
L 76.006312 132.430987 
L 76.25331 132.216079 
L 77.241304 135.95548 
L 77.488302 137.115984 
L 77.636501 137.330892 
L 78.179897 138.835249 
L 78.229297 138.749286 
L 78.476295 138.31947 
L 78.723293 138.620341 
L 79.019691 138.233507 
L 79.365489 139.479974 
L 79.464288 139.39401 
L 79.563087 139.737863 
L 79.908885 142.488687 
L 80.205283 144.766713 
L 80.353482 144.895658 
L 80.60048 144.207952 
L 80.847479 144.207952 
L 80.995678 144.852677 
L 81.242676 146.056162 
L 81.539074 152.374461 
L 81.934271 166.816286 
L 82.675266 196.989386 
L 82.724666 196.430625 
L 83.218662 190.456179 
L 83.317461 190.198289 
L 83.860858 192.562279 
L 83.910257 192.476315 
L 84.157256 192.476315 
L 84.305455 191.100903 
L 84.601852 184.39577 
L 86.33084 124.221497 
L 86.38024 123.576773 
L 86.42964 123.619755 
L 86.923636 128.218788 
L 87.071835 130.238925 
L 87.86223 178.29238 
L 88.899623 233.652711 
L 89.492419 273.496676 
L 89.937015 293.397168 
L 90.035815 294.2568 
L 90.875609 229.741383 
L 91.468405 192.820168 
L 92.653997 129.85209 
L 92.999794 112.014716 
L 93.394991 115.195356 
L 93.59259 116.527787 
L 94.185386 123.920626 
L 94.234786 123.705718 
L 94.531184 122.416269 
L 94.580583 122.545214 
L 94.876981 124.264479 
L 95.519177 128.433696 
L 95.716775 128.949476 
L 95.815575 129.164384 
L 95.963774 129.723145 
L 96.013173 129.637182 
L 96.161372 129.508237 
L 96.50717 132.946767 
L 96.605969 133.075712 
L 96.902367 132.602914 
L 96.951767 132.645895 
L 97.198765 134.107271 
L 98.038559 139.179102 
L 98.384357 140.898367 
L 98.483156 140.898367 
L 98.581955 141.414147 
L 99.125352 146.185107 
L 99.174751 145.927217 
L 99.273551 145.626346 
L 99.32295 145.755291 
L 99.520549 147.560519 
L 99.866346 150.655196 
L 100.607341 154.007762 
L 100.75554 154.093726 
L 101.101338 155.211248 
L 101.200137 155.082303 
L 101.595334 154.22267 
L 101.891732 153.019185 
L 102.089331 153.062167 
L 102.385729 153.792854 
L 102.484528 153.491983 
L 102.682127 153.062167 
L 102.879726 153.491983 
L 103.027925 153.577946 
L 103.225523 154.093726 
L 103.472521 155.855972 
L 103.67012 157.016476 
L 103.768919 156.58666 
L 104.065317 155.168266 
L 104.213516 155.211248 
L 104.361715 155.641064 
L 104.411115 155.598082 
L 104.460515 155.512119 
L 104.509914 155.641064 
L 104.608714 155.812991 
L 104.658113 155.641064 
L 105.497907 142.316761 
L 105.843705 139.608918 
L 105.991904 139.694882 
L 106.090703 139.694882 
L 106.189503 139.39401 
L 106.387101 137.330892 
L 106.831698 132.302042 
L 107.325695 127.660027 
L 107.375094 127.788972 
L 107.622093 130.024016 
L 108.116089 140.124698 
L 108.659485 145.712309 
L 108.955883 148.076298 
L 109.202882 148.11928 
L 109.351081 149.150839 
L 109.845077 154.73845 
L 110.289674 159.896245 
L 110.339074 159.939226 
L 110.783671 158.520833 
L 111.030669 157.790145 
L 111.129468 157.876108 
L 111.277667 157.446292 
L 111.574065 156.58666 
L 111.623465 156.58666 
L 112.018662 155.512119 
L 112.068062 155.598082 
L 112.512659 157.016476 
L 112.809057 158.864686 
L 113.500652 153.234093 
L 113.74765 152.374461 
L 113.846449 152.417442 
L 113.994648 152.503406 
L 114.093448 152.417442 
L 114.291046 153.491983 
L 114.488645 154.523542 
L 114.538045 154.523542 
L 114.735643 154.093726 
L 114.834443 154.093726 
L 115.032041 154.523542 
L 115.081441 154.437579 
L 115.328439 153.878817 
L 115.575437 152.374461 
L 115.723636 150.870104 
L 115.773036 150.354324 
L 115.822436 150.569232 
L 116.365832 153.449001 
L 116.61283 153.792854 
L 116.66223 153.878817 
L 116.71163 153.792854 
L 116.909228 153.449001 
L 116.958628 153.491983 
L 117.156226 153.878817 
L 117.650223 152.503406 
L 117.946621 151.987626 
L 117.996021 152.073589 
L 118.193619 152.202534 
L 118.292419 151.987626 
L 118.539417 151.428865 
L 118.934614 152.159553 
L 119.082813 152.417442 
L 119.428611 153.363038 
L 119.675609 153.449001 
L 119.972007 154.22267 
L 120.021407 154.093726 
L 120.367204 152.63235 
L 120.713002 152.202534 
L 120.96 151.29992 
L 121.206998 150.655196 
L 121.453997 150.053453 
L 121.700995 148.506115 
L 122.540789 143.692173 
L 122.688988 143.821118 
L 122.837187 143.176393 
L 122.985386 142.746577 
L 123.232384 143.477265 
L 123.380583 142.488687 
L 123.528782 141.629055 
L 123.627581 142.101853 
L 124.417976 147.431574 
L 124.763774 148.549096 
L 125.109571 150.053453 
L 125.25777 150.784141 
L 125.504768 152.073589 
L 125.652967 152.073589 
L 125.751767 152.417442 
L 126.048165 153.878817 
L 126.196364 154.351615 
L 126.542161 156.672623 
L 127.332556 153.577946 
L 127.826552 153.491983 
L 127.925352 153.277075 
L 128.22175 151.55781 
L 128.765146 148.549096 
L 129.407341 145.712309 
L 129.456741 145.841254 
L 129.65434 146.357033 
L 129.703739 146.27107 
L 129.950738 145.927217 
L 130.197736 146.142125 
L 131.531527 141.886945 
L 131.630326 141.972908 
L 132.124322 144.551805 
L 132.42072 146.915794 
L 132.914717 147.86139 
L 132.964117 147.775427 
L 133.112316 147.689464 
L 133.705111 148.849968 
L 133.90271 150.139416 
L 134.199108 152.63235 
L 134.248508 152.63235 
L 134.446106 152.159553 
L 134.495506 152.202534 
L 134.742504 152.417442 
L 134.841304 152.202534 
L 135.038902 150.999049 
L 135.532899 147.560519 
L 135.681098 147.345611 
L 135.977496 147.904372 
L 136.026895 147.775427 
L 136.323293 147.216666 
L 136.471492 147.474556 
L 136.570292 147.044739 
L 136.718491 145.325474 
L 137.163087 140.124698 
L 137.212487 140.038735 
L 137.261887 140.16768 
L 137.459485 140.597496 
L 137.508885 140.554514 
L 137.657084 139.522955 
L 137.953482 137.760709 
L 138.595678 135.310756 
L 139.287273 130.238925 
L 139.435472 129.5942 
L 139.484871 129.5942 
L 139.63307 130.496814 
L 139.880069 132.946767 
L 140.176467 133.462546 
L 140.324666 133.376583 
L 140.522264 133.161675 
L 140.621063 133.462546 
L 140.966861 135.224793 
L 141.213859 133.677454 
L 141.362058 133.462546 
L 141.460858 133.376583 
L 141.757256 134.107271 
L 142.053654 135.826536 
L 142.300652 137.115984 
L 142.399451 137.330892 
L 142.745249 138.448415 
L 143.239245 141.543092 
L 143.288645 141.414147 
L 143.535643 140.898367 
L 143.683842 141.027312 
L 143.832041 140.769422 
L 143.881441 140.683459 
L 143.93084 140.769422 
L 144.227238 143.821118 
L 144.523636 140.812404 
L 144.770635 140.16768 
L 144.869434 140.124698 
L 144.918834 140.038735 
L 144.968233 140.124698 
L 145.017633 140.124698 
L 145.41283 138.534378 
L 145.857427 133.892363 
L 146.450223 127.273193 
L 146.549022 126.585487 
L 146.647822 126.800395 
L 146.746621 127.273193 
L 147.191218 135.181811 
L 147.487616 148.291206 
L 148.228611 185.169439 
L 148.870806 225.787074 
L 149.463602 262.192509 
L 149.76 269.972183 
L 149.8094 269.843238 
L 150.204597 268.424844 
L 150.599794 258.023291 
L 151.19259 229.65542 
L 152.67458 160.326061 
L 152.872178 157.446292 
L 153.168576 152.288497 
L 153.563774 146.400015 
L 154.10717 142.531669 
L 154.403568 140.597496 
L 155.095163 133.892363 
L 155.49036 132.645895 
L 155.786758 132.173098 
L 155.934957 133.462546 
L 156.577153 140.554514 
L 156.873551 142.316761 
L 157.367547 144.766713 
L 157.762744 147.775427 
L 158.306141 150.483269 
L 158.651938 152.159553 
L 158.750738 151.944644 
L 159.343533 147.689464 
L 159.936329 145.497401 
L 160.035129 145.540383 
L 160.380926 146.357033 
L 160.529125 146.400015 
L 160.726724 146.571941 
L 160.776123 146.571941 
L 161.072521 145.626346 
L 161.121921 145.712309 
L 161.418319 146.185107 
L 161.615918 145.927217 
L 161.862916 146.056162 
L 162.011115 144.981621 
L 162.258113 143.477265 
L 162.505111 143.176393 
L 162.801509 143.907081 
L 162.949708 144.036026 
L 163.048508 143.821118 
L 163.295506 143.176393 
L 163.344906 143.262356 
L 163.493105 143.907081 
L 163.740103 144.766713 
L 164.036501 145.110566 
L 164.1353 144.895658 
L 164.629297 141.758 
L 164.826895 141.199239 
L 164.876295 141.24222 
L 165.172693 143.692173 
L 165.469091 145.497401 
L 165.716089 146.357033 
L 165.913688 147.044739 
L 166.160686 146.142125 
L 166.506484 144.207952 
L 166.654683 143.477265 
L 166.802882 143.907081 
L 167.148679 144.981621 
L 167.296878 144.981621 
L 167.494477 146.185107 
L 167.741475 147.259647 
L 167.790875 147.259647 
L 168.087273 148.076298 
L 168.235472 147.259647 
L 168.53187 145.540383 
L 168.729468 144.766713 
L 168.877667 144.42286 
L 169.174065 145.325474 
L 169.223465 145.282493 
L 169.96446 142.531669 
L 170.013859 142.703595 
L 170.162058 143.606209 
L 170.409057 145.19653 
L 170.557256 145.540383 
L 171.100652 149.365747 
L 171.693448 154.22267 
L 172.483842 158.005053 
L 172.879039 161.09973 
L 172.928439 161.185693 
L 172.977839 161.09973 
L 173.126038 160.669914 
L 173.471835 159.079594 
L 173.620034 158.821704 
L 173.916432 157.962072 
L 174.26223 169.266239 
L 174.31163 168.492569 
L 174.855026 161.228675 
L 175.052624 160.326061 
L 175.102024 160.369043 
L 175.447822 162.260234 
L 175.546621 161.228675 
L 175.892419 156.801568 
L 176.139417 156.801568 
L 176.386415 157.231384 
L 176.831012 156.457715 
L 176.880412 156.672623 
L 177.226209 146.915794 
L 177.275609 147.86139 
L 177.769605 155.855972 
L 178.066003 157.747164 
L 178.461201 156.285788 
L 179.004597 159.681337 
L 179.103396 159.896245 
L 179.202196 160.240098 
L 179.399794 161.443583 
L 179.893791 156.500697 
L 180.931184 140.382588 
L 181.227581 138.018598 
L 181.47458 137.373874 
L 181.523979 137.330892 
L 181.573379 137.588782 
L 181.622779 137.373874 
L 182.215575 133.806399 
L 182.363774 133.247638 
L 182.610772 134.751995 
L 182.80837 135.439701 
L 182.956569 135.826536 
L 183.252967 140.812404 
L 183.549365 146.829831 
L 183.648165 146.915794 
L 183.746964 147.431574 
L 184.043362 154.781432 
L 184.586758 167.761882 
L 184.932556 171.845136 
L 185.130154 172.575824 
L 185.327753 172.618805 
L 185.574751 173.865272 
L 185.624151 173.779309 
L 185.82175 173.693346 
L 185.920549 174.123162 
L 185.969949 174.080181 
L 186.068748 173.693346 
L 186.365146 169.266239 
L 186.612144 166.816286 
L 186.661544 166.816286 
L 186.760343 165.827709 
L 187.056741 159.939226 
L 187.600137 148.076298 
L 187.896535 145.411438 
L 188.192933 143.993044 
L 188.242333 144.036026 
L 188.489331 143.692173 
L 188.58813 143.692173 
L 188.835129 144.42286 
L 188.983328 143.993044 
L 189.378525 151.729736 
L 189.674923 157.446292 
L 189.823122 160.970785 
L 190.465317 183.794027 
L 190.613516 182.160726 
L 190.959314 180.097608 
L 191.799108 176.873986 
L 191.947307 176.573115 
L 193.132899 146.357033 
L 193.429297 135.95548 
L 193.478696 136.686168 
L 193.725695 138.190525 
L 193.972693 139.952771 
L 194.46669 142.961485 
L 194.664288 143.34832 
L 194.812487 143.391301 
L 195.010086 144.465842 
L 195.80048 150.483269 
L 196.096878 151.127994 
L 196.146278 151.127994 
L 196.393276 150.569232 
L 196.442676 150.655196 
L 196.739074 152.073589 
L 196.788473 151.987626 
L 197.035472 151.342902 
L 197.134271 151.428865 
L 197.33187 150.870104 
L 197.578868 150.354324 
L 197.677667 150.569232 
L 198.023465 152.288497 
L 198.122264 152.374461 
L 198.270463 153.019185 
L 198.418662 153.663909 
L 198.468062 153.577946 
L 198.66566 153.019185 
L 198.863259 151.772718 
L 199.060858 148.978912 
L 199.554854 141.672036 
L 199.703053 141.113275 
L 200.888645 185.255403 
L 201.53084 203.135758 
L 201.679039 203.436629 
L 201.777839 203.866446 
L 202.024837 206.961123 
L 202.469434 212.548734 
L 202.617633 212.763642 
L 202.667033 212.677679 
L 204.49482 139.694882 
L 204.692419 138.405433 
L 205.087616 136.901076 
L 205.137015 136.944058 
L 205.828611 140.597496 
L 206.026209 140.769422 
L 206.125009 140.812404 
L 206.273208 141.027312 
L 206.421407 141.113275 
L 206.569605 141.758 
L 206.816604 142.402724 
L 207.014202 142.187816 
L 207.162401 142.83254 
L 207.458799 145.626346 
L 207.705798 147.130703 
L 207.853997 148.076298 
L 208.150395 150.483269 
L 208.199794 150.354324 
L 208.545592 148.549096 
L 208.79259 148.849968 
L 209.187787 148.291206 
L 209.335986 148.291206 
L 209.632384 146.915794 
L 209.681784 147.001758 
L 209.928782 147.904372 
L 210.22518 148.764004 
L 210.373379 148.935931 
L 210.521578 148.506115 
L 210.719177 147.345611 
L 211.064974 144.207952 
L 211.114374 144.250934 
L 211.262573 145.282493 
L 212.201166 153.234093 
L 212.546964 156.58666 
L 212.645763 156.285788 
L 213.238559 153.363038 
L 213.287959 153.449001 
L 213.436158 153.449001 
L 213.683156 152.718314 
L 213.781955 153.234093 
L 213.831355 153.706891 
L 214.127753 160.884822 
L 214.918148 180.441461 
L 215.313345 193.980672 
L 216.350738 235.028123 
L 216.943533 217.921437 
L 217.931527 166.601378 
L 219.166518 99.93688 
L 219.314717 91.340555 
L 219.413516 91.598445 
L 219.660515 93.05982 
L 220.006312 94.693122 
L 220.105111 94.779085 
L 220.401509 93.704545 
L 220.944906 83.861753 
L 221.340103 80.509186 
L 221.587101 75.910152 
L 221.982298 62.542867 
L 222.377496 58.803466 
L 222.673894 56.224569 
L 222.970292 53.3448 
L 223.019691 53.3448 
L 223.16789 54.376359 
L 223.464288 56.654385 
L 223.513688 56.568422 
L 223.563087 56.439477 
L 224.551081 138.31947 
L 225.687273 202.362089 
L 226.230669 236.53248 
L 226.527067 253.639166 
L 226.625866 251.017287 
L 226.922264 244.398117 
L 226.971664 244.355135 
L 227.268062 242.206054 
L 227.366861 242.764815 
L 227.46566 241.389403 
L 227.811458 247.836647 
L 227.959657 247.148941 
L 228.256055 242.63587 
L 228.750051 228.795787 
L 228.94765 226.001982 
L 228.99705 226.001982 
L 229.145249 226.947578 
L 229.491046 231.804501 
L 229.688645 234.254454 
L 229.738045 234.254454 
L 230.034443 228.365971 
L 230.38024 223.208176 
L 230.627238 220.070518 
L 230.874237 222.348544 
L 231.467033 231.50363 
L 231.714031 233.523766 
L 231.763431 233.437803 
L 231.961029 231.073813 
L 232.504425 221.059095 
L 232.751424 217.706528 
L 232.998422 216.846896 
L 233.097221 216.889878 
L 233.146621 216.889878 
L 233.34422 215.686392 
L 233.393619 215.686392 
L 233.690017 214.611852 
L 233.887616 215.256576 
L 234.134614 214.611852 
L 235.419005 200.986677 
L 235.468405 201.201585 
L 235.764803 203.952409 
L 236.406998 213.752219 
L 236.653997 214.82676 
L 236.703396 214.697815 
L 236.851595 213.666256 
L 236.950395 213.838182 
L 236.999794 213.623274 
L 237.345592 209.325112 
L 237.493791 211.818046 
L 237.888988 224.067809 
L 238.382985 237.478075 
L 238.778182 248.567334 
L 239.222779 260.946042 
L 239.766175 265.888928 
L 240.013173 270.917778 
L 240.309571 279.943919 
L 240.40837 279.943919 
L 240.556569 279.643048 
L 240.803568 280.373736 
L 240.951767 279.600066 
L 241.099966 281.233368 
L 241.149365 280.889515 
L 241.346964 278.568507 
L 242.334957 260.516226 
L 242.631355 258.796961 
L 242.927753 255.444394 
L 243.619348 245.343712 
L 243.767547 243.925319 
L 244.162744 237.306149 
L 244.261544 237.60702 
L 244.360343 237.950873 
L 244.409743 237.735965 
L 244.656741 239.111377 
L 244.706141 239.025414 
L 244.80494 238.810506 
L 244.85434 238.896469 
L 245.002539 239.240322 
L 245.101338 238.466653 
L 245.150738 238.595598 
L 245.249537 239.45523 
L 245.447136 240.744679 
L 245.496535 240.830642 
L 245.694134 242.850778 
L 245.941132 245.042841 
L 246.583328 232.148354 
L 246.929125 221.617856 
L 247.176123 217.620565 
L 247.867719 198.364798 
L 248.411115 182.80545 
L 248.707513 175.92839 
L 249.10271 168.406606 
L 249.349708 166.472433 
L 249.497907 167.97679 
L 249.843705 173.908254 
L 250.090703 177.647655 
L 250.288302 179.581828 
L 251.128096 194.410488 
L 251.819691 207.863737 
L 252.560686 228.666842 
L 253.005283 235.457939 
L 253.104082 235.543902 
L 253.202882 235.028123 
L 253.351081 235.586884 
L 253.40048 235.543902 
L 253.548679 236.231608 
L 253.696878 236.661424 
L 254.141475 238.595598 
L 254.437873 240.056973 
L 254.684871 241.260458 
L 254.93187 240.744679 
L 254.981269 240.830642 
L 255.030669 240.916605 
L 255.178868 240.486789 
L 255.228268 240.529771 
L 255.277667 240.529771 
L 255.376467 239.412248 
L 255.969262 228.795787 
L 256.018662 228.881751 
L 256.068062 228.666842 
L 256.117461 228.795787 
L 256.166861 228.881751 
L 256.36446 227.936155 
L 256.611458 228.795787 
L 256.858456 229.65542 
L 257.006655 230.085236 
L 257.253654 228.580879 
L 257.599451 225.271294 
L 257.648851 225.357257 
L 257.74765 225.486202 
L 257.79705 225.443221 
L 258.044048 224.282717 
L 258.192247 224.841478 
L 258.291046 225.443221 
L 258.587444 232.363262 
L 259.22964 243.9683 
L 259.427238 245.988437 
L 259.526038 246.289308 
L 259.674237 246.934032 
L 259.723636 246.848069 
L 259.822436 246.504216 
L 259.970635 245.988437 
L 260.118834 246.977014 
L 260.267033 249.126095 
L 260.316432 248.696279 
L 260.563431 248.008573 
L 261.106827 242.549907 
L 261.255026 238.810506 
L 261.897221 215.557447 
L 262.14422 201.201585 
L 262.588816 179.8827 
L 263.47801 143.907081 
L 263.873208 135.224793 
L 264.120206 133.892363 
L 264.169605 134.021307 
L 264.811801 143.563228 
L 265.0094 150.569232 
L 265.552796 174.85385 
L 266.787787 221.574875 
L 266.985386 222.907305 
L 267.034786 222.77836 
L 267.084185 222.649415 
L 267.133585 222.907305 
L 267.726381 216.975841 
L 267.973379 211.517175 
L 268.368576 196.645533 
L 269.455369 151.213957 
L 269.850566 146.27107 
L 270.146964 143.391301 
L 270.196364 143.477265 
L 270.443362 144.551805 
L 270.492762 144.250934 
L 270.542161 144.465842 
L 270.838559 145.755291 
L 271.085557 148.849968 
L 271.332556 155.812991 
L 273.209743 237.60702 
L 273.901338 252.779533 
L 274.444734 260.602189 
L 274.494134 260.688152 
L 275.136329 252.779533 
L 275.235129 252.220772 
L 275.383328 251.232195 
L 275.432727 251.232195 
L 275.580926 249.856783 
L 275.827925 245.644584 
L 276.173722 237.907892 
L 276.321921 237.048259 
L 276.618319 234.598307 
L 277.062916 228.365971 
L 277.556913 215.471484 
L 277.85331 209.754928 
L 278.495506 185.599256 
L 279.779897 139.608918 
L 280.076295 134.966903 
L 280.422093 129.422274 
L 281.064288 117.172511 
L 281.657084 113.605036 
L 281.805283 113.905908 
L 281.904082 113.948889 
L 282.052281 115.195356 
L 282.595678 121.255765 
L 282.793276 122.760122 
L 282.990875 122.71714 
L 283.040274 122.932049 
L 283.929468 139.90979 
L 284.868062 185.470311 
L 285.806655 227.850192 
L 286.152453 235.243031 
L 286.350051 236.962296 
L 286.54765 241.690274 
L 286.893448 250.802379 
L 286.992247 250.157654 
L 287.288645 243.538484 
L 287.881441 223.938864 
L 288.375437 206.746214 
L 289.017633 193.679801 
L 289.264631 194.926268 
L 289.363431 194.840305 
L 289.610429 191.100903 
L 289.709228 188.307098 
L 290.153825 176.014354 
L 290.647822 166.38647 
L 292.031012 184.309807 
L 292.37681 189.768473 
L 292.623808 188.479024 
L 292.920206 192.261407 
L 293.068405 193.249985 
L 293.364803 195.399066 
L 293.414202 195.270121 
L 293.463602 195.399066 
L 293.513002 195.570992 
L 293.908199 188.736914 
L 295.686587 136.47126 
L 296.131184 132.087134 
L 296.279383 131.786263 
L 296.328782 131.872226 
L 296.427581 132.516951 
L 296.773379 139.179102 
L 297.267376 148.721023 
L 297.316775 148.764004 
L 297.563774 149.494692 
L 297.613173 149.494692 
L 297.860172 150.999049 
L 298.10717 153.363038 
L 298.354168 155.383174 
L 298.798765 153.491983 
L 298.897564 153.792854 
L 299.045763 154.007762 
L 299.58916 151.29992 
L 299.885557 148.205243 
L 300.083156 147.560519 
L 300.132556 147.431574 
L 300.428954 151.213957 
L 300.774751 155.082303 
L 300.97235 153.878817 
L 301.02175 154.007762 
L 301.318148 151.858681 
L 301.515746 153.062167 
L 301.812144 156.58666 
L 301.960343 157.016476 
L 302.059142 156.887531 
L 302.108542 156.930513 
L 302.256741 157.6612 
L 302.306141 157.360329 
L 302.503739 156.801568 
L 302.800137 159.036612 
L 302.948336 159.681337 
L 303.096535 160.240098 
L 303.392933 159.50941 
L 303.541132 159.079594 
L 303.738731 155.512119 
L 303.78813 155.598082 
L 304.035129 155.812991 
L 304.232727 157.360329 
L 304.430326 158.649778 
L 304.627925 158.735741 
L 304.677324 158.821704 
L 304.776123 158.391888 
L 305.072521 161.830418 
L 305.566518 167.847845 
L 305.714717 168.320643 
L 305.961715 171.071467 
L 306.109914 172.403897 
L 306.455712 178.937104 
L 306.70271 186.888704 
L 308.036501 227.80721 
L 308.530497 235.543902 
L 308.678696 236.661424 
L 309.419691 227.162486 
L 310.259485 211.302267 
L 310.704082 206.35938 
L 311.00048 204.296262 
L 311.09928 203.350666 
L 311.198079 206.961123 
L 311.247479 206.230435 
L 311.445077 205.155894 
L 311.494477 205.155894 
L 311.593276 205.499747 
L 311.889674 210.184744 
L 313.322264 239.971009 
L 313.371664 239.971009 
L 313.668062 242.034127 
L 313.96446 246.934032 
L 314.063259 247.40683 
L 314.162058 243.624447 
L 314.211458 244.355135 
L 314.557256 247.492794 
L 315.001852 251.919901 
L 315.199451 253.639166 
L 315.29825 253.725129 
L 315.39705 253.639166 
L 315.792247 263.310031 
L 316.73084 229.096659 
L 317.126038 212.118917 
L 317.224837 213.021531 
L 317.274237 212.97855 
L 317.422436 212.591715 
L 317.570635 211.689101 
L 317.718834 212.247862 
L 318.015232 210.227726 
L 318.163431 210.743505 
L 318.21283 210.657542 
L 318.31163 210.87245 
L 318.361029 211.173322 
L 318.756226 202.276126 
L 319.299623 211.38823 
L 319.69482 216.546025 
L 320.090017 231.804501 
L 320.139417 230.815924 
L 320.337015 230.214181 
L 320.435815 230.386107 
L 320.534614 230.300144 
L 320.831012 226.345835 
L 321.028611 224.196754 
L 321.868405 208.078645 
L 322.066003 206.35938 
L 322.214202 206.316398 
L 322.263602 206.10149 
L 322.313002 206.230435 
L 322.5106 208.250571 
L 323.004597 226.431798 
L 323.498593 242.549907 
L 323.547993 243.495503 
L 323.597393 243.323576 
L 323.696192 242.334999 
L 324.239588 226.560743 
L 324.486587 225.486202 
L 324.634786 226.345835 
L 324.931184 230.429089 
L 325.326381 237.392112 
L 325.47458 240.271881 
L 325.523979 240.099954 
L 325.573379 240.185918 
L 325.968576 195.270121 
L 326.610772 155.383174 
L 326.80837 152.933222 
L 326.85777 152.417442 
L 326.90717 152.847259 
L 327.154168 154.136707 
L 327.203568 153.706891 
L 327.549365 148.764004 
L 328.537358 117.129529 
L 328.883156 137.760709 
L 329.080755 141.843963 
L 329.327753 145.411438 
L 329.525352 146.614923 
L 329.77235 150.268361 
L 329.920549 151.55781 
L 330.019348 151.772718 
L 330.068748 151.729736 
L 330.414545 147.86139 
L 330.463945 147.775427 
L 331.056741 143.262356 
L 331.600137 134.451124 
L 332.044734 128.218788 
L 332.192933 125.940762 
L 332.242333 125.983744 
L 332.68693 124.995166 
L 332.933928 125.725854 
L 333.131527 124.436405 
L 333.279726 124.135534 
L 333.427925 123.791681 
L 333.477324 123.920626 
L 333.674923 124.694295 
L 334.11952 130.281906 
L 334.662916 145.626346 
L 335.305111 165.05404 
L 335.403911 165.612801 
L 335.848508 175.197703 
L 336.441304 203.350666 
L 336.638902 213.838182 
L 336.737702 213.623274 
L 337.132899 211.904009 
L 337.478696 203.307685 
L 337.676295 195.613974 
L 338.269091 174.509997 
L 338.318491 174.509997 
L 338.36789 174.33807 
L 338.664288 167.332066 
L 339.010086 154.73845 
L 339.602882 133.677454 
L 339.652281 133.591491 
L 339.701681 133.677454 
L 339.751081 133.677454 
L 339.998079 132.731859 
L 340.096878 133.03273 
L 340.393276 133.892363 
L 340.492075 133.892363 
L 340.837873 131.657318 
L 340.936672 131.528373 
L 340.986072 131.571355 
L 341.28247 134.150252 
L 341.33187 134.150252 
L 341.529468 131.743281 
L 341.578868 131.786263 
L 341.776467 132.087134 
L 342.023465 131.356447 
L 342.221063 129.164384 
L 342.319863 129.207366 
L 342.517461 128.734568 
L 342.566861 128.734568 
L 343.703053 180.785314 
L 344.691046 226.947578 
L 345.53084 258.582052 
L 345.58024 258.324163 
L 345.679039 257.077696 
L 345.827238 253.639166 
L 346.518834 221.617856 
L 346.568233 222.563452 
L 346.815232 227.506339 
L 347.655026 249.942746 
L 347.753825 250.372562 
L 347.852624 249.942746 
L 348.099623 251.662011 
L 348.149022 251.576048 
L 348.247822 251.919901 
L 348.49482 249.727838 
L 348.593619 249.77082 
L 348.791218 253.295313 
L 349.482813 281.792129 
L 349.631012 281.749148 
L 349.680412 282.393872 
L 350.421407 262.536362 
L 350.668405 257.292604 
L 350.717804 257.249622 
L 351.014202 255.530357 
L 351.063602 255.573339 
L 351.261201 256.604898 
L 351.557599 261.117968 
L 353.237187 199.697228 
L 354.323979 169.782018 
L 354.521578 167.675919 
L 355.163774 190.198289 
L 355.262573 188.736914 
L 355.756569 180.097608 
L 356.102367 175.713482 
L 356.448165 171.114449 
L 356.843362 169.910963 
L 357.040961 167.890827 
L 357.732556 159.681337 
L 357.781955 159.724318 
L 358.028954 160.798859 
L 358.078353 159.380465 
L 358.127753 160.455006 
L 358.62175 168.707478 
L 358.671149 168.707478 
L 358.769949 169.481147 
L 359.659142 181.21513 
L 359.906141 183.879991 
L 361.38813 215.600429 
L 361.882127 229.784365 
L 362.178525 235.586884 
L 362.968919 249.212059 
L 363.166518 251.060268 
L 363.215918 251.662011 
L 363.265317 251.146232 
L 363.314717 250.630452 
L 363.364117 251.060268 
L 363.611115 251.704993 
L 363.709914 250.84536 
L 363.907513 248.653297 
L 363.956913 248.567334 
L 364.006312 248.223481 
L 364.055712 248.481371 
L 364.35211 249.126095 
L 364.401509 249.212059 
L 364.450909 249.126095 
L 364.500309 248.99715 
L 364.846106 246.33229 
L 364.895506 246.33229 
L 365.438902 251.704993 
L 365.685901 253.080405 
L 366.525695 245.042841 
L 366.871492 238.982432 
L 367.019691 240.099954 
L 367.118491 239.971009 
L 367.26669 239.627156 
L 367.563087 229.784365 
L 367.859485 219.683683 
L 368.205283 208.379516 
L 368.452281 205.370802 
L 368.798079 199.48232 
L 369.637873 181.430038 
L 369.786072 179.667792 
L 369.934271 174.724905 
L 370.230669 161.529546 
L 370.280069 161.744455 
L 370.428268 160.884822 
L 370.477667 161.013767 
L 371.119863 168.320643 
L 371.169262 168.320643 
L 371.56446 164.108444 
L 371.860858 162.733032 
L 372.058456 163.764591 
L 372.256055 163.807573 
L 372.404254 163.678628 
L 372.503053 163.334775 
L 372.552453 163.377756 
L 372.799451 163.764591 
L 372.99705 167.246102 
L 373.441647 180.097608 
L 374.133242 186.974668 
L 374.479039 188.951822 
L 374.726038 190.241271 
L 374.923636 191.960536 
L 375.565832 200.513879 
L 375.714031 200.084063 
L 375.91163 197.849018 
L 376.751424 186.158017 
L 376.850223 185.384348 
L 377.34422 196.55957 
L 377.443019 196.215717 
L 377.640617 195.828882 
L 377.887616 195.828882 
L 378.035815 195.184158 
L 378.67801 192.820168 
L 378.826209 192.906132 
L 378.974408 192.992095 
L 379.073208 193.035077 
L 379.221407 193.207003 
L 379.567204 191.616683 
L 379.814202 190.971959 
L 380.604597 171.759173 
L 380.950395 168.062753 
L 381.691389 150.913085 
L 382.037187 146.571941 
L 382.629983 139.179102 
L 383.173379 136.299333 
L 383.222779 136.385297 
L 383.272178 136.299333 
L 383.420377 136.041444 
L 383.617976 135.525664 
L 383.815575 134.751995 
L 383.914374 135.439701 
L 384.45777 143.34832 
L 384.605969 143.606209 
L 384.704768 143.821118 
L 384.951767 145.970199 
L 385.692762 156.156844 
L 386.186758 166.816286 
L 386.433756 167.761882 
L 386.483156 167.847845 
L 387.224151 173.564401 
L 387.619348 177.733619 
L 388.212144 179.066049 
L 388.261544 179.066049 
L 388.360343 178.593251 
L 388.706141 173.220548 
L 389.200137 162.475142 
L 389.249537 162.260234 
L 389.298937 162.303216 
L 389.397736 163.033903 
L 389.792933 168.105735 
L 390.632727 190.198289 
L 391.274923 210.313689 
L 391.71952 219.898591 
L 391.966518 221.918728 
L 392.262916 224.712533 
L 392.312316 224.841478 
L 392.707513 219.640702 
L 393.349708 198.837596 
L 394.634099 159.079594 
L 394.683499 158.821704 
L 394.732899 159.079594 
L 395.078696 162.088308 
L 395.276295 164.108444 
L 395.523293 166.902249 
L 395.572693 167.031194 
L 395.770292 167.97679 
L 395.869091 168.191698 
L 396.01729 167.847845 
L 396.06669 168.062753 
L 396.214889 168.492569 
L 396.264288 168.320643 
L 396.363087 168.277661 
L 396.461887 167.632937 
L 396.659485 165.311929 
L 396.955883 161.443583 
L 397.005283 161.400602 
L 397.202882 161.959363 
L 397.252281 161.744455 
L 397.548679 160.111153 
L 397.746278 164.022481 
L 397.795678 164.194407 
L 397.845077 164.108444 
L 397.993276 163.46372 
L 398.141475 161.959363 
L 398.487273 153.491983 
L 398.487273 153.491983 
" style="fill:none;stroke:#1f77b4;stroke-linecap:square;stroke-width:1.5;"/>
   </g>
   <g id="patch_3">
    <path d="M 57.6 306.3024 
L 57.6 41.2992 
" style="fill:none;stroke:#000000;stroke-linecap:square;stroke-linejoin:miter;stroke-width:0.8;"/>
   </g>
   <g id="patch_4">
    <path d="M 414.72 306.3024 
L 414.72 41.2992 
" style="fill:none;stroke:#000000;stroke-linecap:square;stroke-linejoin:miter;stroke-width:0.8;"/>
   </g>
   <g id="patch_5">
    <path d="M 57.6 306.3024 
L 414.72 306.3024 
" style="fill:none;stroke:#000000;stroke-linecap:square;stroke-linejoin:miter;stroke-width:0.8;"/>
   </g>
   <g id="patch_6">
    <path d="M 57.6 41.2992 
L 414.72 41.2992 
" style="fill:none;stroke:#000000;stroke-linecap:square;stroke-linejoin:miter;stroke-width:0.8;"/>
   </g>
   <g id="text_16">
    <!-- Ritmo Cardíaco -->
    <g transform="translate(190.094063 35.2992)scale(0.12 -0.12)">
     <use xlink:href="#DejaVuSans-82"/>
     <use x="69.482422" xlink:href="#DejaVuSans-105"/>
     <use x="97.265625" xlink:href="#DejaVuSans-116"/>
     <use x="136.474609" xlink:href="#DejaVuSans-109"/>
     <use x="233.886719" xlink:href="#DejaVuSans-111"/>
     <use x="295.068359" xlink:href="#DejaVuSans-32"/>
     <use x="326.855469" xlink:href="#DejaVuSans-67"/>
     <use x="396.679688" xlink:href="#DejaVuSans-97"/>
     <use x="457.958984" xlink:href="#DejaVuSans-114"/>
     <use x="499.056641" xlink:href="#DejaVuSans-100"/>
     <use x="562.533203" xlink:href="#DejaVuSans-237"/>
     <use x="590.316406" xlink:href="#DejaVuSans-97"/>
     <use x="651.595703" xlink:href="#DejaVuSans-99"/>
     <use x="706.576172" xlink:href="#DejaVuSans-111"/>
    </g>
   </g>
  </g>
 </g>
 <defs>
  <clipPath id="p2f1132cb06">
   <rect height="265.0032" width="357.12" x="57.6" y="41.2992"/>
  </clipPath>
 </defs>
</svg>
