<?xml version="1.0" encoding="utf-8" standalone="no"?>
<!DOCTYPE svg PUBLIC "-//W3C//DTD SVG 1.1//EN"
  "http://www.w3.org/Graphics/SVG/1.1/DTD/svg11.dtd">
<!-- Created with matplotlib (https://matplotlib.org/) -->
<svg height="344.16pt" version="1.1" viewBox="0 0 460.8 344.16" width="460.8pt" xmlns="http://www.w3.org/2000/svg" xmlns:xlink="http://www.w3.org/1999/xlink">
 <defs>
  <style type="text/css">
*{stroke-linecap:butt;stroke-linejoin:round;}
  </style>
 </defs>
 <g id="figure_1">
  <g id="patch_1">
   <path d="M 0 344.16 
L 460.8 344.16 
L 460.8 0 
L 0 0 
z
" style="fill:#ffffff;"/>
  </g>
  <g id="axes_1">
   <g id="patch_2">
    <path d="M 57.6 306.3024 
L 414.72 306.3024 
L 414.72 41.2992 
L 57.6 41.2992 
z
" style="fill:#ffffff;"/>
   </g>
   <g id="matplotlib.axis_1">
    <g id="xtick_1">
     <g id="line2d_1">
      <defs>
       <path d="M 0 0 
L 0 3.5 
" id="mb4c83ec2d5" style="stroke:#000000;stroke-width:0.8;"/>
      </defs>
      <g>
       <use style="stroke:#000000;stroke-width:0.8;" x="73.832727" xlink:href="#mb4c83ec2d5" y="306.3024"/>
      </g>
     </g>
     <g id="text_1">
      <!-- 0 -->
      <defs>
       <path d="M 31.78125 66.40625 
Q 24.171875 66.40625 20.328125 58.90625 
Q 16.5 51.421875 16.5 36.375 
Q 16.5 21.390625 20.328125 13.890625 
Q 24.171875 6.390625 31.78125 6.390625 
Q 39.453125 6.390625 43.28125 13.890625 
Q 47.125 21.390625 47.125 36.375 
Q 47.125 51.421875 43.28125 58.90625 
Q 39.453125 66.40625 31.78125 66.40625 
z
M 31.78125 74.21875 
Q 44.046875 74.21875 50.515625 64.515625 
Q 56.984375 54.828125 56.984375 36.375 
Q 56.984375 17.96875 50.515625 8.265625 
Q 44.046875 -1.421875 31.78125 -1.421875 
Q 19.53125 -1.421875 13.0625 8.265625 
Q 6.59375 17.96875 6.59375 36.375 
Q 6.59375 54.828125 13.0625 64.515625 
Q 19.53125 74.21875 31.78125 74.21875 
z
" id="DejaVuSans-48"/>
      </defs>
      <g transform="translate(70.651477 320.900838)scale(0.1 -0.1)">
       <use xlink:href="#DejaVuSans-48"/>
      </g>
     </g>
    </g>
    <g id="xtick_2">
     <g id="line2d_2">
      <g>
       <use style="stroke:#000000;stroke-width:0.8;" x="123.232384" xlink:href="#mb4c83ec2d5" y="306.3024"/>
      </g>
     </g>
     <g id="text_2">
      <!-- 1000 -->
      <defs>
       <path d="M 12.40625 8.296875 
L 28.515625 8.296875 
L 28.515625 63.921875 
L 10.984375 60.40625 
L 10.984375 69.390625 
L 28.421875 72.90625 
L 38.28125 72.90625 
L 38.28125 8.296875 
L 54.390625 8.296875 
L 54.390625 0 
L 12.40625 0 
z
" id="DejaVuSans-49"/>
      </defs>
      <g transform="translate(110.507384 320.900838)scale(0.1 -0.1)">
       <use xlink:href="#DejaVuSans-49"/>
       <use x="63.623047" xlink:href="#DejaVuSans-48"/>
       <use x="127.246094" xlink:href="#DejaVuSans-48"/>
       <use x="190.869141" xlink:href="#DejaVuSans-48"/>
      </g>
     </g>
    </g>
    <g id="xtick_3">
     <g id="line2d_3">
      <g>
       <use style="stroke:#000000;stroke-width:0.8;" x="172.632041" xlink:href="#mb4c83ec2d5" y="306.3024"/>
      </g>
     </g>
     <g id="text_3">
      <!-- 2000 -->
      <defs>
       <path d="M 19.1875 8.296875 
L 53.609375 8.296875 
L 53.609375 0 
L 7.328125 0 
L 7.328125 8.296875 
Q 12.9375 14.109375 22.625 23.890625 
Q 32.328125 33.6875 34.8125 36.53125 
Q 39.546875 41.84375 41.421875 45.53125 
Q 43.3125 49.21875 43.3125 52.78125 
Q 43.3125 58.59375 39.234375 62.25 
Q 35.15625 65.921875 28.609375 65.921875 
Q 23.96875 65.921875 18.8125 64.3125 
Q 13.671875 62.703125 7.8125 59.421875 
L 7.8125 69.390625 
Q 13.765625 71.78125 18.9375 73 
Q 24.125 74.21875 28.421875 74.21875 
Q 39.75 74.21875 46.484375 68.546875 
Q 53.21875 62.890625 53.21875 53.421875 
Q 53.21875 48.921875 51.53125 44.890625 
Q 49.859375 40.875 45.40625 35.40625 
Q 44.1875 33.984375 37.640625 27.21875 
Q 31.109375 20.453125 19.1875 8.296875 
z
" id="DejaVuSans-50"/>
      </defs>
      <g transform="translate(159.907041 320.900838)scale(0.1 -0.1)">
       <use xlink:href="#DejaVuSans-50"/>
       <use x="63.623047" xlink:href="#DejaVuSans-48"/>
       <use x="127.246094" xlink:href="#DejaVuSans-48"/>
       <use x="190.869141" xlink:href="#DejaVuSans-48"/>
      </g>
     </g>
    </g>
    <g id="xtick_4">
     <g id="line2d_4">
      <g>
       <use style="stroke:#000000;stroke-width:0.8;" x="222.031698" xlink:href="#mb4c83ec2d5" y="306.3024"/>
      </g>
     </g>
     <g id="text_4">
      <!-- 3000 -->
      <defs>
       <path d="M 40.578125 39.3125 
Q 47.65625 37.796875 51.625 33 
Q 55.609375 28.21875 55.609375 21.1875 
Q 55.609375 10.40625 48.1875 4.484375 
Q 40.765625 -1.421875 27.09375 -1.421875 
Q 22.515625 -1.421875 17.65625 -0.515625 
Q 12.796875 0.390625 7.625 2.203125 
L 7.625 11.71875 
Q 11.71875 9.328125 16.59375 8.109375 
Q 21.484375 6.890625 26.8125 6.890625 
Q 36.078125 6.890625 40.9375 10.546875 
Q 45.796875 14.203125 45.796875 21.1875 
Q 45.796875 27.640625 41.28125 31.265625 
Q 36.765625 34.90625 28.71875 34.90625 
L 20.21875 34.90625 
L 20.21875 43.015625 
L 29.109375 43.015625 
Q 36.375 43.015625 40.234375 45.921875 
Q 44.09375 48.828125 44.09375 54.296875 
Q 44.09375 59.90625 40.109375 62.90625 
Q 36.140625 65.921875 28.71875 65.921875 
Q 24.65625 65.921875 20.015625 65.03125 
Q 15.375 64.15625 9.8125 62.3125 
L 9.8125 71.09375 
Q 15.4375 72.65625 20.34375 73.4375 
Q 25.25 74.21875 29.59375 74.21875 
Q 40.828125 74.21875 47.359375 69.109375 
Q 53.90625 64.015625 53.90625 55.328125 
Q 53.90625 49.265625 50.4375 45.09375 
Q 46.96875 40.921875 40.578125 39.3125 
z
" id="DejaVuSans-51"/>
      </defs>
      <g transform="translate(209.306698 320.900838)scale(0.1 -0.1)">
       <use xlink:href="#DejaVuSans-51"/>
       <use x="63.623047" xlink:href="#DejaVuSans-48"/>
       <use x="127.246094" xlink:href="#DejaVuSans-48"/>
       <use x="190.869141" xlink:href="#DejaVuSans-48"/>
      </g>
     </g>
    </g>
    <g id="xtick_5">
     <g id="line2d_5">
      <g>
       <use style="stroke:#000000;stroke-width:0.8;" x="271.431355" xlink:href="#mb4c83ec2d5" y="306.3024"/>
      </g>
     </g>
     <g id="text_5">
      <!-- 4000 -->
      <defs>
       <path d="M 37.796875 64.3125 
L 12.890625 25.390625 
L 37.796875 25.390625 
z
M 35.203125 72.90625 
L 47.609375 72.90625 
L 47.609375 25.390625 
L 58.015625 25.390625 
L 58.015625 17.1875 
L 47.609375 17.1875 
L 47.609375 0 
L 37.796875 0 
L 37.796875 17.1875 
L 4.890625 17.1875 
L 4.890625 26.703125 
z
" id="DejaVuSans-52"/>
      </defs>
      <g transform="translate(258.706355 320.900838)scale(0.1 -0.1)">
       <use xlink:href="#DejaVuSans-52"/>
       <use x="63.623047" xlink:href="#DejaVuSans-48"/>
       <use x="127.246094" xlink:href="#DejaVuSans-48"/>
       <use x="190.869141" xlink:href="#DejaVuSans-48"/>
      </g>
     </g>
    </g>
    <g id="xtick_6">
     <g id="line2d_6">
      <g>
       <use style="stroke:#000000;stroke-width:0.8;" x="320.831012" xlink:href="#mb4c83ec2d5" y="306.3024"/>
      </g>
     </g>
     <g id="text_6">
      <!-- 5000 -->
      <defs>
       <path d="M 10.796875 72.90625 
L 49.515625 72.90625 
L 49.515625 64.59375 
L 19.828125 64.59375 
L 19.828125 46.734375 
Q 21.96875 47.46875 24.109375 47.828125 
Q 26.265625 48.1875 28.421875 48.1875 
Q 40.625 48.1875 47.75 41.5 
Q 54.890625 34.8125 54.890625 23.390625 
Q 54.890625 11.625 47.5625 5.09375 
Q 40.234375 -1.421875 26.90625 -1.421875 
Q 22.3125 -1.421875 17.546875 -0.640625 
Q 12.796875 0.140625 7.71875 1.703125 
L 7.71875 11.625 
Q 12.109375 9.234375 16.796875 8.0625 
Q 21.484375 6.890625 26.703125 6.890625 
Q 35.15625 6.890625 40.078125 11.328125 
Q 45.015625 15.765625 45.015625 23.390625 
Q 45.015625 31 40.078125 35.4375 
Q 35.15625 39.890625 26.703125 39.890625 
Q 22.75 39.890625 18.8125 39.015625 
Q 14.890625 38.140625 10.796875 36.28125 
z
" id="DejaVuSans-53"/>
      </defs>
      <g transform="translate(308.106012 320.900838)scale(0.1 -0.1)">
       <use xlink:href="#DejaVuSans-53"/>
       <use x="63.623047" xlink:href="#DejaVuSans-48"/>
       <use x="127.246094" xlink:href="#DejaVuSans-48"/>
       <use x="190.869141" xlink:href="#DejaVuSans-48"/>
      </g>
     </g>
    </g>
    <g id="xtick_7">
     <g id="line2d_7">
      <g>
       <use style="stroke:#000000;stroke-width:0.8;" x="370.230669" xlink:href="#mb4c83ec2d5" y="306.3024"/>
      </g>
     </g>
     <g id="text_7">
      <!-- 6000 -->
      <defs>
       <path d="M 33.015625 40.375 
Q 26.375 40.375 22.484375 35.828125 
Q 18.609375 31.296875 18.609375 23.390625 
Q 18.609375 15.53125 22.484375 10.953125 
Q 26.375 6.390625 33.015625 6.390625 
Q 39.65625 6.390625 43.53125 10.953125 
Q 47.40625 15.53125 47.40625 23.390625 
Q 47.40625 31.296875 43.53125 35.828125 
Q 39.65625 40.375 33.015625 40.375 
z
M 52.59375 71.296875 
L 52.59375 62.3125 
Q 48.875 64.0625 45.09375 64.984375 
Q 41.3125 65.921875 37.59375 65.921875 
Q 27.828125 65.921875 22.671875 59.328125 
Q 17.53125 52.734375 16.796875 39.40625 
Q 19.671875 43.65625 24.015625 45.921875 
Q 28.375 48.1875 33.59375 48.1875 
Q 44.578125 48.1875 50.953125 41.515625 
Q 57.328125 34.859375 57.328125 23.390625 
Q 57.328125 12.15625 50.6875 5.359375 
Q 44.046875 -1.421875 33.015625 -1.421875 
Q 20.359375 -1.421875 13.671875 8.265625 
Q 6.984375 17.96875 6.984375 36.375 
Q 6.984375 53.65625 15.1875 63.9375 
Q 23.390625 74.21875 37.203125 74.21875 
Q 40.921875 74.21875 44.703125 73.484375 
Q 48.484375 72.75 52.59375 71.296875 
z
" id="DejaVuSans-54"/>
      </defs>
      <g transform="translate(357.505669 320.900838)scale(0.1 -0.1)">
       <use xlink:href="#DejaVuSans-54"/>
       <use x="63.623047" xlink:href="#DejaVuSans-48"/>
       <use x="127.246094" xlink:href="#DejaVuSans-48"/>
       <use x="190.869141" xlink:href="#DejaVuSans-48"/>
      </g>
     </g>
    </g>
    <g id="text_8">
     <!-- Muestras -->
     <defs>
      <path d="M 9.8125 72.90625 
L 24.515625 72.90625 
L 43.109375 23.296875 
L 61.8125 72.90625 
L 76.515625 72.90625 
L 76.515625 0 
L 66.890625 0 
L 66.890625 64.015625 
L 48.09375 14.015625 
L 38.1875 14.015625 
L 19.390625 64.015625 
L 19.390625 0 
L 9.8125 0 
z
" id="DejaVuSans-77"/>
      <path d="M 8.5 21.578125 
L 8.5 54.6875 
L 17.484375 54.6875 
L 17.484375 21.921875 
Q 17.484375 14.15625 20.5 10.265625 
Q 23.53125 6.390625 29.59375 6.390625 
Q 36.859375 6.390625 41.078125 11.03125 
Q 45.3125 15.671875 45.3125 23.6875 
L 45.3125 54.6875 
L 54.296875 54.6875 
L 54.296875 0 
L 45.3125 0 
L 45.3125 8.40625 
Q 42.046875 3.421875 37.71875 1 
Q 33.40625 -1.421875 27.6875 -1.421875 
Q 18.265625 -1.421875 13.375 4.4375 
Q 8.5 10.296875 8.5 21.578125 
z
M 31.109375 56 
z
" id="DejaVuSans-117"/>
      <path d="M 56.203125 29.59375 
L 56.203125 25.203125 
L 14.890625 25.203125 
Q 15.484375 15.921875 20.484375 11.0625 
Q 25.484375 6.203125 34.421875 6.203125 
Q 39.59375 6.203125 44.453125 7.46875 
Q 49.3125 8.734375 54.109375 11.28125 
L 54.109375 2.78125 
Q 49.265625 0.734375 44.1875 -0.34375 
Q 39.109375 -1.421875 33.890625 -1.421875 
Q 20.796875 -1.421875 13.15625 6.1875 
Q 5.515625 13.8125 5.515625 26.8125 
Q 5.515625 40.234375 12.765625 48.109375 
Q 20.015625 56 32.328125 56 
Q 43.359375 56 49.78125 48.890625 
Q 56.203125 41.796875 56.203125 29.59375 
z
M 47.21875 32.234375 
Q 47.125 39.59375 43.09375 43.984375 
Q 39.0625 48.390625 32.421875 48.390625 
Q 24.90625 48.390625 20.390625 44.140625 
Q 15.875 39.890625 15.1875 32.171875 
z
" id="DejaVuSans-101"/>
      <path d="M 44.28125 53.078125 
L 44.28125 44.578125 
Q 40.484375 46.53125 36.375 47.5 
Q 32.28125 48.484375 27.875 48.484375 
Q 21.1875 48.484375 17.84375 46.4375 
Q 14.5 44.390625 14.5 40.28125 
Q 14.5 37.15625 16.890625 35.375 
Q 19.28125 33.59375 26.515625 31.984375 
L 29.59375 31.296875 
Q 39.15625 29.25 43.1875 25.515625 
Q 47.21875 21.78125 47.21875 15.09375 
Q 47.21875 7.46875 41.1875 3.015625 
Q 35.15625 -1.421875 24.609375 -1.421875 
Q 20.21875 -1.421875 15.453125 -0.5625 
Q 10.6875 0.296875 5.421875 2 
L 5.421875 11.28125 
Q 10.40625 8.6875 15.234375 7.390625 
Q 20.0625 6.109375 24.8125 6.109375 
Q 31.15625 6.109375 34.5625 8.28125 
Q 37.984375 10.453125 37.984375 14.40625 
Q 37.984375 18.0625 35.515625 20.015625 
Q 33.0625 21.96875 24.703125 23.78125 
L 21.578125 24.515625 
Q 13.234375 26.265625 9.515625 29.90625 
Q 5.8125 33.546875 5.8125 39.890625 
Q 5.8125 47.609375 11.28125 51.796875 
Q 16.75 56 26.8125 56 
Q 31.78125 56 36.171875 55.265625 
Q 40.578125 54.546875 44.28125 53.078125 
z
" id="DejaVuSans-115"/>
      <path d="M 18.3125 70.21875 
L 18.3125 54.6875 
L 36.8125 54.6875 
L 36.8125 47.703125 
L 18.3125 47.703125 
L 18.3125 18.015625 
Q 18.3125 11.328125 20.140625 9.421875 
Q 21.96875 7.515625 27.59375 7.515625 
L 36.8125 7.515625 
L 36.8125 0 
L 27.59375 0 
Q 17.1875 0 13.234375 3.875 
Q 9.28125 7.765625 9.28125 18.015625 
L 9.28125 47.703125 
L 2.6875 47.703125 
L 2.6875 54.6875 
L 9.28125 54.6875 
L 9.28125 70.21875 
z
" id="DejaVuSans-116"/>
      <path d="M 41.109375 46.296875 
Q 39.59375 47.171875 37.8125 47.578125 
Q 36.03125 48 33.890625 48 
Q 26.265625 48 22.1875 43.046875 
Q 18.109375 38.09375 18.109375 28.8125 
L 18.109375 0 
L 9.078125 0 
L 9.078125 54.6875 
L 18.109375 54.6875 
L 18.109375 46.1875 
Q 20.953125 51.171875 25.484375 53.578125 
Q 30.03125 56 36.53125 56 
Q 37.453125 56 38.578125 55.875 
Q 39.703125 55.765625 41.0625 55.515625 
z
" id="DejaVuSans-114"/>
      <path d="M 34.28125 27.484375 
Q 23.390625 27.484375 19.1875 25 
Q 14.984375 22.515625 14.984375 16.5 
Q 14.984375 11.71875 18.140625 8.90625 
Q 21.296875 6.109375 26.703125 6.109375 
Q 34.1875 6.109375 38.703125 11.40625 
Q 43.21875 16.703125 43.21875 25.484375 
L 43.21875 27.484375 
z
M 52.203125 31.203125 
L 52.203125 0 
L 43.21875 0 
L 43.21875 8.296875 
Q 40.140625 3.328125 35.546875 0.953125 
Q 30.953125 -1.421875 24.3125 -1.421875 
Q 15.921875 -1.421875 10.953125 3.296875 
Q 6 8.015625 6 15.921875 
Q 6 25.140625 12.171875 29.828125 
Q 18.359375 34.515625 30.609375 34.515625 
L 43.21875 34.515625 
L 43.21875 35.40625 
Q 43.21875 41.609375 39.140625 45 
Q 35.0625 48.390625 27.6875 48.390625 
Q 23 48.390625 18.546875 47.265625 
Q 14.109375 46.140625 10.015625 43.890625 
L 10.015625 52.203125 
Q 14.9375 54.109375 19.578125 55.046875 
Q 24.21875 56 28.609375 56 
Q 40.484375 56 46.34375 49.84375 
Q 52.203125 43.703125 52.203125 31.203125 
z
" id="DejaVuSans-97"/>
     </defs>
     <g transform="translate(213.311562 334.578963)scale(0.1 -0.1)">
      <use xlink:href="#DejaVuSans-77"/>
      <use x="86.279297" xlink:href="#DejaVuSans-117"/>
      <use x="149.658203" xlink:href="#DejaVuSans-101"/>
      <use x="211.181641" xlink:href="#DejaVuSans-115"/>
      <use x="263.28125" xlink:href="#DejaVuSans-116"/>
      <use x="302.490234" xlink:href="#DejaVuSans-114"/>
      <use x="343.603516" xlink:href="#DejaVuSans-97"/>
      <use x="404.882812" xlink:href="#DejaVuSans-115"/>
     </g>
    </g>
   </g>
   <g id="matplotlib.axis_2">
    <g id="ytick_1">
     <g id="line2d_8">
      <defs>
       <path d="M 0 0 
L -3.5 0 
" id="mc9bc2917a3" style="stroke:#000000;stroke-width:0.8;"/>
      </defs>
      <g>
       <use style="stroke:#000000;stroke-width:0.8;" x="57.6" xlink:href="#mc9bc2917a3" y="303.766484"/>
      </g>
     </g>
     <g id="text_9">
      <!-- 33.1 -->
      <defs>
       <path d="M 10.6875 12.40625 
L 21 12.40625 
L 21 0 
L 10.6875 0 
z
" id="DejaVuSans-46"/>
      </defs>
      <g transform="translate(28.334375 307.565703)scale(0.1 -0.1)">
       <use xlink:href="#DejaVuSans-51"/>
       <use x="63.623047" xlink:href="#DejaVuSans-51"/>
       <use x="127.246094" xlink:href="#DejaVuSans-46"/>
       <use x="159.033203" xlink:href="#DejaVuSans-49"/>
      </g>
     </g>
    </g>
    <g id="ytick_2">
     <g id="line2d_9">
      <g>
       <use style="stroke:#000000;stroke-width:0.8;" x="57.6" xlink:href="#mc9bc2917a3" y="272.067537"/>
      </g>
     </g>
     <g id="text_10">
      <!-- 33.2 -->
      <g transform="translate(28.334375 275.866756)scale(0.1 -0.1)">
       <use xlink:href="#DejaVuSans-51"/>
       <use x="63.623047" xlink:href="#DejaVuSans-51"/>
       <use x="127.246094" xlink:href="#DejaVuSans-46"/>
       <use x="159.033203" xlink:href="#DejaVuSans-50"/>
      </g>
     </g>
    </g>
    <g id="ytick_3">
     <g id="line2d_10">
      <g>
       <use style="stroke:#000000;stroke-width:0.8;" x="57.6" xlink:href="#mc9bc2917a3" y="240.368589"/>
      </g>
     </g>
     <g id="text_11">
      <!-- 33.3 -->
      <g transform="translate(28.334375 244.167808)scale(0.1 -0.1)">
       <use xlink:href="#DejaVuSans-51"/>
       <use x="63.623047" xlink:href="#DejaVuSans-51"/>
       <use x="127.246094" xlink:href="#DejaVuSans-46"/>
       <use x="159.033203" xlink:href="#DejaVuSans-51"/>
      </g>
     </g>
    </g>
    <g id="ytick_4">
     <g id="line2d_11">
      <g>
       <use style="stroke:#000000;stroke-width:0.8;" x="57.6" xlink:href="#mc9bc2917a3" y="208.669642"/>
      </g>
     </g>
     <g id="text_12">
      <!-- 33.4 -->
      <g transform="translate(28.334375 212.468861)scale(0.1 -0.1)">
       <use xlink:href="#DejaVuSans-51"/>
       <use x="63.623047" xlink:href="#DejaVuSans-51"/>
       <use x="127.246094" xlink:href="#DejaVuSans-46"/>
       <use x="159.033203" xlink:href="#DejaVuSans-52"/>
      </g>
     </g>
    </g>
    <g id="ytick_5">
     <g id="line2d_12">
      <g>
       <use style="stroke:#000000;stroke-width:0.8;" x="57.6" xlink:href="#mc9bc2917a3" y="176.970695"/>
      </g>
     </g>
     <g id="text_13">
      <!-- 33.5 -->
      <g transform="translate(28.334375 180.769913)scale(0.1 -0.1)">
       <use xlink:href="#DejaVuSans-51"/>
       <use x="63.623047" xlink:href="#DejaVuSans-51"/>
       <use x="127.246094" xlink:href="#DejaVuSans-46"/>
       <use x="159.033203" xlink:href="#DejaVuSans-53"/>
      </g>
     </g>
    </g>
    <g id="ytick_6">
     <g id="line2d_13">
      <g>
       <use style="stroke:#000000;stroke-width:0.8;" x="57.6" xlink:href="#mc9bc2917a3" y="145.271747"/>
      </g>
     </g>
     <g id="text_14">
      <!-- 33.6 -->
      <g transform="translate(28.334375 149.070966)scale(0.1 -0.1)">
       <use xlink:href="#DejaVuSans-51"/>
       <use x="63.623047" xlink:href="#DejaVuSans-51"/>
       <use x="127.246094" xlink:href="#DejaVuSans-46"/>
       <use x="159.033203" xlink:href="#DejaVuSans-54"/>
      </g>
     </g>
    </g>
    <g id="ytick_7">
     <g id="line2d_14">
      <g>
       <use style="stroke:#000000;stroke-width:0.8;" x="57.6" xlink:href="#mc9bc2917a3" y="113.5728"/>
      </g>
     </g>
     <g id="text_15">
      <!-- 33.7 -->
      <defs>
       <path d="M 8.203125 72.90625 
L 55.078125 72.90625 
L 55.078125 68.703125 
L 28.609375 0 
L 18.3125 0 
L 43.21875 64.59375 
L 8.203125 64.59375 
z
" id="DejaVuSans-55"/>
      </defs>
      <g transform="translate(28.334375 117.372019)scale(0.1 -0.1)">
       <use xlink:href="#DejaVuSans-51"/>
       <use x="63.623047" xlink:href="#DejaVuSans-51"/>
       <use x="127.246094" xlink:href="#DejaVuSans-46"/>
       <use x="159.033203" xlink:href="#DejaVuSans-55"/>
      </g>
     </g>
    </g>
    <g id="ytick_8">
     <g id="line2d_15">
      <g>
       <use style="stroke:#000000;stroke-width:0.8;" x="57.6" xlink:href="#mc9bc2917a3" y="81.873853"/>
      </g>
     </g>
     <g id="text_16">
      <!-- 33.8 -->
      <defs>
       <path d="M 31.78125 34.625 
Q 24.75 34.625 20.71875 30.859375 
Q 16.703125 27.09375 16.703125 20.515625 
Q 16.703125 13.921875 20.71875 10.15625 
Q 24.75 6.390625 31.78125 6.390625 
Q 38.8125 6.390625 42.859375 10.171875 
Q 46.921875 13.96875 46.921875 20.515625 
Q 46.921875 27.09375 42.890625 30.859375 
Q 38.875 34.625 31.78125 34.625 
z
M 21.921875 38.8125 
Q 15.578125 40.375 12.03125 44.71875 
Q 8.5 49.078125 8.5 55.328125 
Q 8.5 64.0625 14.71875 69.140625 
Q 20.953125 74.21875 31.78125 74.21875 
Q 42.671875 74.21875 48.875 69.140625 
Q 55.078125 64.0625 55.078125 55.328125 
Q 55.078125 49.078125 51.53125 44.71875 
Q 48 40.375 41.703125 38.8125 
Q 48.828125 37.15625 52.796875 32.3125 
Q 56.78125 27.484375 56.78125 20.515625 
Q 56.78125 9.90625 50.3125 4.234375 
Q 43.84375 -1.421875 31.78125 -1.421875 
Q 19.734375 -1.421875 13.25 4.234375 
Q 6.78125 9.90625 6.78125 20.515625 
Q 6.78125 27.484375 10.78125 32.3125 
Q 14.796875 37.15625 21.921875 38.8125 
z
M 18.3125 54.390625 
Q 18.3125 48.734375 21.84375 45.5625 
Q 25.390625 42.390625 31.78125 42.390625 
Q 38.140625 42.390625 41.71875 45.5625 
Q 45.3125 48.734375 45.3125 54.390625 
Q 45.3125 60.0625 41.71875 63.234375 
Q 38.140625 66.40625 31.78125 66.40625 
Q 25.390625 66.40625 21.84375 63.234375 
Q 18.3125 60.0625 18.3125 54.390625 
z
" id="DejaVuSans-56"/>
      </defs>
      <g transform="translate(28.334375 85.673071)scale(0.1 -0.1)">
       <use xlink:href="#DejaVuSans-51"/>
       <use x="63.623047" xlink:href="#DejaVuSans-51"/>
       <use x="127.246094" xlink:href="#DejaVuSans-46"/>
       <use x="159.033203" xlink:href="#DejaVuSans-56"/>
      </g>
     </g>
    </g>
    <g id="ytick_9">
     <g id="line2d_16">
      <g>
       <use style="stroke:#000000;stroke-width:0.8;" x="57.6" xlink:href="#mc9bc2917a3" y="50.174905"/>
      </g>
     </g>
     <g id="text_17">
      <!-- 33.9 -->
      <defs>
       <path d="M 10.984375 1.515625 
L 10.984375 10.5 
Q 14.703125 8.734375 18.5 7.8125 
Q 22.3125 6.890625 25.984375 6.890625 
Q 35.75 6.890625 40.890625 13.453125 
Q 46.046875 20.015625 46.78125 33.40625 
Q 43.953125 29.203125 39.59375 26.953125 
Q 35.25 24.703125 29.984375 24.703125 
Q 19.046875 24.703125 12.671875 31.3125 
Q 6.296875 37.9375 6.296875 49.421875 
Q 6.296875 60.640625 12.9375 67.421875 
Q 19.578125 74.21875 30.609375 74.21875 
Q 43.265625 74.21875 49.921875 64.515625 
Q 56.59375 54.828125 56.59375 36.375 
Q 56.59375 19.140625 48.40625 8.859375 
Q 40.234375 -1.421875 26.421875 -1.421875 
Q 22.703125 -1.421875 18.890625 -0.6875 
Q 15.09375 0.046875 10.984375 1.515625 
z
M 30.609375 32.421875 
Q 37.25 32.421875 41.125 36.953125 
Q 45.015625 41.5 45.015625 49.421875 
Q 45.015625 57.28125 41.125 61.84375 
Q 37.25 66.40625 30.609375 66.40625 
Q 23.96875 66.40625 20.09375 61.84375 
Q 16.21875 57.28125 16.21875 49.421875 
Q 16.21875 41.5 20.09375 36.953125 
Q 23.96875 32.421875 30.609375 32.421875 
z
" id="DejaVuSans-57"/>
      </defs>
      <g transform="translate(28.334375 53.974124)scale(0.1 -0.1)">
       <use xlink:href="#DejaVuSans-51"/>
       <use x="63.623047" xlink:href="#DejaVuSans-51"/>
       <use x="127.246094" xlink:href="#DejaVuSans-46"/>
       <use x="159.033203" xlink:href="#DejaVuSans-57"/>
      </g>
     </g>
    </g>
    <g id="text_18">
     <!-- Valor de Temperatura -->
     <defs>
      <path d="M 28.609375 0 
L 0.78125 72.90625 
L 11.078125 72.90625 
L 34.1875 11.53125 
L 57.328125 72.90625 
L 67.578125 72.90625 
L 39.796875 0 
z
" id="DejaVuSans-86"/>
      <path d="M 9.421875 75.984375 
L 18.40625 75.984375 
L 18.40625 0 
L 9.421875 0 
z
" id="DejaVuSans-108"/>
      <path d="M 30.609375 48.390625 
Q 23.390625 48.390625 19.1875 42.75 
Q 14.984375 37.109375 14.984375 27.296875 
Q 14.984375 17.484375 19.15625 11.84375 
Q 23.34375 6.203125 30.609375 6.203125 
Q 37.796875 6.203125 41.984375 11.859375 
Q 46.1875 17.53125 46.1875 27.296875 
Q 46.1875 37.015625 41.984375 42.703125 
Q 37.796875 48.390625 30.609375 48.390625 
z
M 30.609375 56 
Q 42.328125 56 49.015625 48.375 
Q 55.71875 40.765625 55.71875 27.296875 
Q 55.71875 13.875 49.015625 6.21875 
Q 42.328125 -1.421875 30.609375 -1.421875 
Q 18.84375 -1.421875 12.171875 6.21875 
Q 5.515625 13.875 5.515625 27.296875 
Q 5.515625 40.765625 12.171875 48.375 
Q 18.84375 56 30.609375 56 
z
" id="DejaVuSans-111"/>
      <path id="DejaVuSans-32"/>
      <path d="M 45.40625 46.390625 
L 45.40625 75.984375 
L 54.390625 75.984375 
L 54.390625 0 
L 45.40625 0 
L 45.40625 8.203125 
Q 42.578125 3.328125 38.25 0.953125 
Q 33.9375 -1.421875 27.875 -1.421875 
Q 17.96875 -1.421875 11.734375 6.484375 
Q 5.515625 14.40625 5.515625 27.296875 
Q 5.515625 40.1875 11.734375 48.09375 
Q 17.96875 56 27.875 56 
Q 33.9375 56 38.25 53.625 
Q 42.578125 51.265625 45.40625 46.390625 
z
M 14.796875 27.296875 
Q 14.796875 17.390625 18.875 11.75 
Q 22.953125 6.109375 30.078125 6.109375 
Q 37.203125 6.109375 41.296875 11.75 
Q 45.40625 17.390625 45.40625 27.296875 
Q 45.40625 37.203125 41.296875 42.84375 
Q 37.203125 48.484375 30.078125 48.484375 
Q 22.953125 48.484375 18.875 42.84375 
Q 14.796875 37.203125 14.796875 27.296875 
z
" id="DejaVuSans-100"/>
      <path d="M -0.296875 72.90625 
L 61.375 72.90625 
L 61.375 64.59375 
L 35.5 64.59375 
L 35.5 0 
L 25.59375 0 
L 25.59375 64.59375 
L -0.296875 64.59375 
z
" id="DejaVuSans-84"/>
      <path d="M 52 44.1875 
Q 55.375 50.25 60.0625 53.125 
Q 64.75 56 71.09375 56 
Q 79.640625 56 84.28125 50.015625 
Q 88.921875 44.046875 88.921875 33.015625 
L 88.921875 0 
L 79.890625 0 
L 79.890625 32.71875 
Q 79.890625 40.578125 77.09375 44.375 
Q 74.3125 48.1875 68.609375 48.1875 
Q 61.625 48.1875 57.5625 43.546875 
Q 53.515625 38.921875 53.515625 30.90625 
L 53.515625 0 
L 44.484375 0 
L 44.484375 32.71875 
Q 44.484375 40.625 41.703125 44.40625 
Q 38.921875 48.1875 33.109375 48.1875 
Q 26.21875 48.1875 22.15625 43.53125 
Q 18.109375 38.875 18.109375 30.90625 
L 18.109375 0 
L 9.078125 0 
L 9.078125 54.6875 
L 18.109375 54.6875 
L 18.109375 46.1875 
Q 21.1875 51.21875 25.484375 53.609375 
Q 29.78125 56 35.6875 56 
Q 41.65625 56 45.828125 52.96875 
Q 50 49.953125 52 44.1875 
z
" id="DejaVuSans-109"/>
      <path d="M 18.109375 8.203125 
L 18.109375 -20.796875 
L 9.078125 -20.796875 
L 9.078125 54.6875 
L 18.109375 54.6875 
L 18.109375 46.390625 
Q 20.953125 51.265625 25.265625 53.625 
Q 29.59375 56 35.59375 56 
Q 45.5625 56 51.78125 48.09375 
Q 58.015625 40.1875 58.015625 27.296875 
Q 58.015625 14.40625 51.78125 6.484375 
Q 45.5625 -1.421875 35.59375 -1.421875 
Q 29.59375 -1.421875 25.265625 0.953125 
Q 20.953125 3.328125 18.109375 8.203125 
z
M 48.6875 27.296875 
Q 48.6875 37.203125 44.609375 42.84375 
Q 40.53125 48.484375 33.40625 48.484375 
Q 26.265625 48.484375 22.1875 42.84375 
Q 18.109375 37.203125 18.109375 27.296875 
Q 18.109375 17.390625 22.1875 11.75 
Q 26.265625 6.109375 33.40625 6.109375 
Q 40.53125 6.109375 44.609375 11.75 
Q 48.6875 17.390625 48.6875 27.296875 
z
" id="DejaVuSans-112"/>
     </defs>
     <g transform="translate(22.254687 228.818769)rotate(-90)scale(0.1 -0.1)">
      <use xlink:href="#DejaVuSans-86"/>
      <use x="68.298828" xlink:href="#DejaVuSans-97"/>
      <use x="129.578125" xlink:href="#DejaVuSans-108"/>
      <use x="157.361328" xlink:href="#DejaVuSans-111"/>
      <use x="218.542969" xlink:href="#DejaVuSans-114"/>
      <use x="259.65625" xlink:href="#DejaVuSans-32"/>
      <use x="291.443359" xlink:href="#DejaVuSans-100"/>
      <use x="354.919922" xlink:href="#DejaVuSans-101"/>
      <use x="416.443359" xlink:href="#DejaVuSans-32"/>
      <use x="448.230469" xlink:href="#DejaVuSans-84"/>
      <use x="509.048828" xlink:href="#DejaVuSans-101"/>
      <use x="570.572266" xlink:href="#DejaVuSans-109"/>
      <use x="667.984375" xlink:href="#DejaVuSans-112"/>
      <use x="731.460938" xlink:href="#DejaVuSans-101"/>
      <use x="792.984375" xlink:href="#DejaVuSans-114"/>
      <use x="834.097656" xlink:href="#DejaVuSans-97"/>
      <use x="895.376953" xlink:href="#DejaVuSans-116"/>
      <use x="934.585938" xlink:href="#DejaVuSans-117"/>
      <use x="997.964844" xlink:href="#DejaVuSans-114"/>
      <use x="1039.078125" xlink:href="#DejaVuSans-97"/>
     </g>
    </g>
   </g>
   <g id="line2d_17">
    <path clip-path="url(#p7e9b194eac)" d="M 73.832727 78.703958 
L 74.227925 78.703958 
L 74.376123 72.364168 
L 74.425523 72.364168 
L 74.573722 78.703958 
L 75.018319 78.703958 
L 75.166518 85.043747 
L 75.215918 85.043747 
L 75.364117 78.703958 
L 75.413516 78.703958 
L 75.561715 85.043747 
L 75.808714 85.043747 
L 75.956913 78.703958 
L 76.203911 78.703958 
L 76.35211 85.043747 
L 76.796707 85.043747 
L 76.944906 91.383537 
L 77.191904 91.383537 
L 77.340103 85.043747 
L 77.389503 85.043747 
L 77.537702 91.383537 
L 77.7847 91.383537 
L 77.932899 85.043747 
L 77.982298 85.043747 
L 78.130497 97.723326 
L 78.179897 97.723326 
L 78.328096 85.043747 
L 78.575094 85.043747 
L 78.723293 91.383537 
L 79.16789 91.383537 
L 79.316089 85.043747 
L 79.365489 85.043747 
L 79.513688 91.383537 
L 79.760686 91.383537 
L 79.908885 97.723326 
L 80.155883 97.723326 
L 80.304082 91.383537 
L 80.551081 91.383537 
L 80.69928 85.043747 
L 80.748679 85.043747 
L 80.896878 91.383537 
L 80.946278 91.383537 
L 81.094477 97.723326 
L 81.539074 97.723326 
L 81.687273 91.383537 
L 81.736672 91.383537 
L 81.884871 97.723326 
L 82.724666 97.723326 
L 82.872864 104.063116 
L 83.317461 104.063116 
L 83.46566 97.723326 
L 83.712659 97.723326 
L 83.860858 91.383537 
L 83.910257 91.383537 
L 84.058456 97.723326 
L 84.107856 97.723326 
L 84.256055 104.063116 
L 84.305455 104.063116 
L 84.453654 97.723326 
L 84.700652 97.723326 
L 84.848851 104.063116 
L 85.293448 104.063116 
L 85.441647 97.723326 
L 85.688645 97.723326 
L 85.836844 104.063116 
L 85.886244 104.063116 
L 86.034443 97.723326 
L 86.083842 97.723326 
L 86.232041 104.063116 
L 86.676638 104.063116 
L 86.824837 110.402905 
L 87.467033 110.402905 
L 87.615232 104.063116 
L 87.86223 104.063116 
L 88.010429 110.402905 
L 88.059828 110.402905 
L 88.208027 104.063116 
L 88.257427 104.063116 
L 88.405626 110.402905 
L 88.652624 110.402905 
L 88.800823 119.912589 
L 88.850223 119.912589 
L 88.998422 110.402905 
L 90.233413 110.402905 
L 90.381612 119.912589 
L 90.628611 119.912589 
L 90.77681 110.402905 
L 90.826209 110.402905 
L 90.974408 119.912589 
L 91.221407 119.912589 
L 91.369605 110.402905 
L 91.814202 110.402905 
L 91.962401 119.912589 
L 92.406998 119.912589 
L 92.555197 126.252379 
L 93.790189 126.252379 
L 93.938388 119.912589 
L 94.185386 119.912589 
L 94.333585 126.252379 
L 94.382985 126.252379 
L 94.531184 119.912589 
L 94.580583 119.912589 
L 94.728782 126.252379 
L 94.778182 126.252379 
L 94.926381 119.912589 
L 94.97578 119.912589 
L 95.123979 126.252379 
L 95.568576 126.252379 
L 95.716775 119.912589 
L 95.766175 119.912589 
L 95.914374 126.252379 
L 97.544563 126.252379 
L 97.692762 129.422274 
L 97.742161 129.422274 
L 97.89036 126.252379 
L 97.93976 126.252379 
L 98.087959 129.422274 
L 98.334957 129.422274 
L 98.483156 126.252379 
L 98.532556 126.252379 
L 98.680755 129.422274 
L 99.718148 129.422274 
L 99.866346 135.762063 
L 100.113345 135.762063 
L 100.261544 129.422274 
L 100.310943 129.422274 
L 100.459142 135.762063 
L 101.496535 135.762063 
L 101.644734 142.101853 
L 101.891732 142.101853 
L 102.039931 135.762063 
L 102.682127 135.762063 
L 102.830326 142.101853 
L 102.879726 142.101853 
L 103.027925 135.762063 
L 103.077324 135.762063 
L 103.225523 142.101853 
L 104.262916 142.101853 
L 104.411115 154.781432 
L 104.460515 154.781432 
L 104.608714 142.101853 
L 105.05331 142.101853 
L 105.201509 148.441642 
L 105.250909 148.441642 
L 105.399108 154.781432 
L 105.448508 154.781432 
L 105.596707 142.101853 
L 105.646106 142.101853 
L 105.794305 148.441642 
L 105.843705 148.441642 
L 105.991904 142.101853 
L 106.041304 142.101853 
L 106.189503 148.441642 
L 107.029297 148.441642 
L 107.177496 154.781432 
L 107.226895 154.781432 
L 107.375094 148.441642 
L 108.214889 148.441642 
L 108.363087 154.781432 
L 108.610086 154.781432 
L 108.758285 148.441642 
L 108.807684 148.441642 
L 108.955883 154.781432 
L 110.981269 154.781432 
L 111.129468 161.121221 
L 111.178868 161.121221 
L 111.327067 154.781432 
L 111.376467 154.781432 
L 111.524666 167.461011 
L 111.574065 167.461011 
L 111.722264 161.121221 
L 111.771664 161.121221 
L 111.919863 167.461011 
L 112.957256 167.461011 
L 113.105455 176.970695 
L 113.154854 176.970695 
L 113.303053 167.461011 
L 113.352453 167.461011 
L 113.500652 176.970695 
L 114.142847 176.970695 
L 114.291046 167.461011 
L 114.340446 167.461011 
L 114.488645 180.140589 
L 115.526038 180.140589 
L 115.674237 176.970695 
L 115.723636 176.970695 
L 115.871835 180.140589 
L 116.316432 180.140589 
L 116.464631 176.970695 
L 116.514031 176.970695 
L 116.66223 180.140589 
L 116.909228 180.140589 
L 117.057427 176.970695 
L 117.304425 176.970695 
L 117.452624 180.140589 
L 117.502024 180.140589 
L 117.650223 176.970695 
L 118.292419 176.970695 
L 118.440617 180.140589 
L 118.490017 180.140589 
L 118.638216 176.970695 
L 118.687616 176.970695 
L 118.835815 180.140589 
L 119.082813 180.140589 
L 119.231012 186.480379 
L 119.280412 186.480379 
L 119.428611 180.140589 
L 119.675609 180.140589 
L 119.823808 186.480379 
L 120.070806 186.480379 
L 120.219005 180.140589 
L 120.268405 180.140589 
L 120.416604 186.480379 
L 121.058799 186.480379 
L 121.206998 192.820168 
L 121.453997 192.820168 
L 121.602196 186.480379 
L 122.046792 186.480379 
L 122.194991 192.820168 
L 122.244391 192.820168 
L 122.39259 199.159958 
L 124.813173 199.159958 
L 124.961372 192.820168 
L 125.010772 192.820168 
L 125.158971 199.159958 
L 125.405969 199.159958 
L 125.554168 192.820168 
L 125.603568 192.820168 
L 125.751767 199.159958 
L 125.801166 199.159958 
L 125.949365 192.820168 
L 125.998765 192.820168 
L 126.146964 199.159958 
L 126.78916 199.159958 
L 126.937358 205.499747 
L 126.986758 205.499747 
L 127.134957 199.159958 
L 127.184357 199.159958 
L 127.332556 192.820168 
L 127.381955 192.820168 
L 127.530154 199.159958 
L 127.579554 199.159958 
L 127.727753 205.499747 
L 127.777153 205.499747 
L 127.925352 192.820168 
L 127.974751 192.820168 
L 128.12295 199.159958 
L 128.17235 199.159958 
L 128.320549 192.820168 
L 128.962744 192.820168 
L 129.110943 199.159958 
L 129.160343 199.159958 
L 129.308542 192.820168 
L 129.55554 192.820168 
L 129.703739 199.159958 
L 129.753139 199.159958 
L 129.901338 192.820168 
L 130.148336 192.820168 
L 130.296535 186.480379 
L 130.345935 186.480379 
L 130.494134 192.820168 
L 131.333928 192.820168 
L 131.482127 186.480379 
L 131.729125 186.480379 
L 131.877324 180.140589 
L 131.926724 180.140589 
L 132.074923 192.820168 
L 132.124322 192.820168 
L 132.272521 180.140589 
L 133.112316 180.140589 
L 133.260515 176.970695 
L 133.507513 176.970695 
L 133.655712 167.461011 
L 133.705111 167.461011 
L 133.85331 176.970695 
L 133.90271 176.970695 
L 134.050909 167.461011 
L 134.100309 167.461011 
L 134.248508 180.140589 
L 134.297907 180.140589 
L 134.446106 167.461011 
L 134.693105 167.461011 
L 134.841304 176.970695 
L 135.483499 176.970695 
L 135.631698 180.140589 
L 135.681098 180.140589 
L 135.829297 176.970695 
L 136.076295 176.970695 
L 136.224494 167.461011 
L 137.657084 167.461011 
L 137.805283 161.121221 
L 137.854683 161.121221 
L 138.002882 167.461011 
L 138.052281 167.461011 
L 138.20048 161.121221 
L 138.645077 161.121221 
L 138.793276 167.461011 
L 138.842676 167.461011 
L 138.990875 161.121221 
L 139.63307 161.121221 
L 139.781269 154.781432 
L 139.830669 154.781432 
L 139.978868 161.121221 
L 140.028268 161.121221 
L 140.176467 154.781432 
L 140.423465 154.781432 
L 140.571664 161.121221 
L 140.818662 161.121221 
L 140.966861 154.781432 
L 141.609057 154.781432 
L 141.757256 148.441642 
L 141.806655 148.441642 
L 141.954854 154.781432 
L 142.004254 154.781432 
L 142.152453 148.441642 
L 142.201852 148.441642 
L 142.350051 154.781432 
L 142.399451 154.781432 
L 142.54765 142.101853 
L 142.59705 142.101853 
L 142.745249 148.441642 
L 142.794648 148.441642 
L 142.942847 142.101853 
L 143.189846 142.101853 
L 143.338045 148.441642 
L 143.387444 148.441642 
L 143.535643 142.101853 
L 143.585043 142.101853 
L 143.733242 148.441642 
L 143.782642 148.441642 
L 143.93084 142.101853 
L 144.573036 142.101853 
L 144.721235 135.762063 
L 144.968233 135.762063 
L 145.116432 142.101853 
L 145.363431 142.101853 
L 145.51163 135.762063 
L 145.758628 135.762063 
L 145.906827 129.422274 
L 145.956226 129.422274 
L 146.104425 135.762063 
L 146.746621 135.762063 
L 146.89482 129.422274 
L 147.141818 129.422274 
L 147.290017 126.252379 
L 147.339417 126.252379 
L 147.487616 129.422274 
L 147.932213 129.422274 
L 148.080412 126.252379 
L 148.129811 126.252379 
L 148.27801 129.422274 
L 148.32741 129.422274 
L 148.475609 126.252379 
L 148.920206 126.252379 
L 149.068405 119.912589 
L 149.117804 119.912589 
L 149.266003 126.252379 
L 149.908199 126.252379 
L 150.056398 110.402905 
L 150.105798 110.402905 
L 150.253997 126.252379 
L 150.303396 126.252379 
L 150.451595 110.402905 
L 150.500995 110.402905 
L 150.649194 119.912589 
L 150.698593 119.912589 
L 150.846792 110.402905 
L 151.093791 110.402905 
L 151.24199 119.912589 
L 151.291389 119.912589 
L 151.439588 110.402905 
L 151.686587 110.402905 
L 151.834786 104.063116 
L 151.884185 104.063116 
L 152.032384 110.402905 
L 152.279383 110.402905 
L 152.427581 104.063116 
L 153.267376 104.063116 
L 153.415575 97.723326 
L 153.464974 97.723326 
L 153.613173 104.063116 
L 153.860172 104.063116 
L 154.00837 97.723326 
L 154.05777 97.723326 
L 154.205969 104.063116 
L 154.255369 104.063116 
L 154.403568 97.723326 
L 154.452967 97.723326 
L 154.601166 104.063116 
L 154.650566 104.063116 
L 154.798765 97.723326 
L 154.848165 97.723326 
L 154.996364 104.063116 
L 155.243362 104.063116 
L 155.391561 97.723326 
L 156.033756 97.723326 
L 156.181955 91.383537 
L 156.231355 91.383537 
L 156.379554 97.723326 
L 156.428954 97.723326 
L 156.577153 91.383537 
L 157.219348 91.383537 
L 157.367547 97.723326 
L 157.416947 97.723326 
L 157.565146 91.383537 
L 158.800137 91.383537 
L 158.948336 85.043747 
L 159.392933 85.043747 
L 159.541132 91.383537 
L 159.590532 91.383537 
L 159.738731 85.043747 
L 159.78813 85.043747 
L 159.936329 78.703958 
L 159.985729 78.703958 
L 160.133928 85.043747 
L 160.183328 85.043747 
L 160.331527 91.383537 
L 161.171321 91.383537 
L 161.31952 85.043747 
L 161.566518 85.043747 
L 161.714717 91.383537 
L 161.961715 91.383537 
L 162.109914 85.043747 
L 162.75211 85.043747 
L 162.900309 91.383537 
L 162.949708 91.383537 
L 163.097907 85.043747 
L 163.344906 85.043747 
L 163.493105 78.703958 
L 163.542504 78.703958 
L 163.690703 85.043747 
L 165.320892 85.043747 
L 165.469091 78.703958 
L 165.716089 78.703958 
L 165.864288 85.043747 
L 166.308885 85.043747 
L 166.457084 78.703958 
L 166.506484 78.703958 
L 166.654683 85.043747 
L 166.704082 85.043747 
L 166.852281 78.703958 
L 167.09928 78.703958 
L 167.247479 85.043747 
L 167.296878 85.043747 
L 167.445077 78.703958 
L 167.494477 78.703958 
L 167.642676 85.043747 
L 167.692075 85.043747 
L 167.840274 78.703958 
L 167.889674 78.703958 
L 168.037873 91.383537 
L 168.087273 91.383537 
L 168.235472 78.703958 
L 168.284871 78.703958 
L 168.43307 85.043747 
L 168.48247 85.043747 
L 168.630669 78.703958 
L 168.680069 78.703958 
L 168.828268 72.364168 
L 168.877667 72.364168 
L 169.025866 78.703958 
L 169.668062 78.703958 
L 169.816261 72.364168 
L 170.260858 72.364168 
L 170.409057 78.703958 
L 170.458456 78.703958 
L 170.606655 72.364168 
L 170.853654 72.364168 
L 171.001852 78.703958 
L 171.248851 78.703958 
L 171.39705 72.364168 
L 172.236844 72.364168 
L 172.385043 78.703958 
L 172.434443 78.703958 
L 172.582642 72.364168 
L 172.632041 72.364168 
L 172.78024 78.703958 
L 172.82964 78.703958 
L 172.977839 72.364168 
L 173.224837 72.364168 
L 173.373036 85.043747 
L 173.422436 85.043747 
L 173.570635 72.364168 
L 173.620034 72.364168 
L 173.768233 78.703958 
L 174.21283 78.703958 
L 174.361029 72.364168 
L 174.410429 72.364168 
L 174.558628 78.703958 
L 174.608027 78.703958 
L 174.756226 85.043747 
L 174.805626 85.043747 
L 174.953825 78.703958 
L 175.200823 78.703958 
L 175.349022 72.364168 
L 175.398422 72.364168 
L 175.546621 85.043747 
L 175.596021 85.043747 
L 175.74422 72.364168 
L 175.991218 72.364168 
L 176.139417 85.043747 
L 176.188816 85.043747 
L 176.337015 78.703958 
L 176.386415 78.703958 
L 176.534614 72.364168 
L 176.584014 72.364168 
L 176.732213 78.703958 
L 176.979211 78.703958 
L 177.12741 72.364168 
L 177.17681 72.364168 
L 177.325009 78.703958 
L 177.572007 78.703958 
L 177.720206 72.364168 
L 177.769605 72.364168 
L 177.917804 78.703958 
L 178.164803 78.703958 
L 178.313002 72.364168 
L 178.757599 72.364168 
L 178.905798 78.703958 
L 179.547993 78.703958 
L 179.696192 72.364168 
L 179.94319 72.364168 
L 180.091389 78.703958 
L 180.140789 78.703958 
L 180.288988 72.364168 
L 180.535986 72.364168 
L 180.684185 78.703958 
L 180.733585 78.703958 
L 180.881784 72.364168 
L 181.128782 72.364168 
L 181.276981 78.703958 
L 181.326381 78.703958 
L 181.47458 72.364168 
L 181.919177 72.364168 
L 182.067376 85.043747 
L 182.314374 85.043747 
L 182.462573 78.703958 
L 182.709571 78.703958 
L 182.85777 72.364168 
L 183.104768 72.364168 
L 183.252967 69.194274 
L 183.302367 69.194274 
L 183.450566 78.703958 
L 183.499966 78.703958 
L 183.648165 72.364168 
L 183.895163 72.364168 
L 184.043362 69.194274 
L 184.092762 69.194274 
L 184.240961 72.364168 
L 184.29036 72.364168 
L 184.438559 78.703958 
L 184.487959 78.703958 
L 184.636158 69.194274 
L 184.685557 69.194274 
L 184.833756 72.364168 
L 185.475952 72.364168 
L 185.624151 78.703958 
L 185.673551 78.703958 
L 185.82175 72.364168 
L 187.056741 72.364168 
L 187.20494 69.194274 
L 187.451938 69.194274 
L 187.600137 72.364168 
L 187.649537 72.364168 
L 187.797736 59.684589 
L 187.847136 59.684589 
L 187.995334 69.194274 
L 188.044734 69.194274 
L 188.192933 72.364168 
L 188.242333 72.364168 
L 188.390532 69.194274 
L 188.439931 69.194274 
L 188.58813 72.364168 
L 189.032727 72.364168 
L 189.180926 69.194274 
L 189.230326 69.194274 
L 189.378525 72.364168 
L 189.625523 72.364168 
L 189.773722 78.703958 
L 189.823122 78.703958 
L 189.971321 72.364168 
L 190.415918 72.364168 
L 190.564117 78.703958 
L 190.613516 78.703958 
L 190.761715 72.364168 
L 190.811115 72.364168 
L 190.959314 69.194274 
L 191.008714 69.194274 
L 191.156913 72.364168 
L 191.601509 72.364168 
L 191.749708 69.194274 
L 191.799108 69.194274 
L 191.947307 72.364168 
L 192.391904 72.364168 
L 192.540103 69.194274 
L 192.589503 69.194274 
L 192.737702 78.703958 
L 192.787101 78.703958 
L 192.9353 72.364168 
L 192.9847 72.364168 
L 193.132899 78.703958 
L 193.379897 78.703958 
L 193.528096 72.364168 
L 193.577496 72.364168 
L 193.725695 78.703958 
L 193.775094 78.703958 
L 193.923293 72.364168 
L 193.972693 72.364168 
L 194.120892 78.703958 
L 194.36789 78.703958 
L 194.516089 72.364168 
L 194.565489 72.364168 
L 194.713688 78.703958 
L 194.763087 78.703958 
L 194.911286 85.043747 
L 194.960686 85.043747 
L 195.108885 72.364168 
L 195.158285 72.364168 
L 195.306484 85.043747 
L 195.355883 85.043747 
L 195.504082 78.703958 
L 196.541475 78.703958 
L 196.689674 72.364168 
L 196.739074 72.364168 
L 196.887273 78.703958 
L 197.134271 78.703958 
L 197.28247 72.364168 
L 197.33187 72.364168 
L 197.480069 85.043747 
L 197.529468 85.043747 
L 197.677667 78.703958 
L 198.122264 78.703958 
L 198.270463 85.043747 
L 198.517461 85.043747 
L 198.66566 78.703958 
L 198.912659 78.703958 
L 199.060858 91.383537 
L 199.110257 91.383537 
L 199.258456 78.703958 
L 199.703053 78.703958 
L 199.851252 85.043747 
L 199.900652 85.043747 
L 200.048851 78.703958 
L 200.09825 78.703958 
L 200.246449 85.043747 
L 200.295849 85.043747 
L 200.444048 78.703958 
L 201.086244 78.703958 
L 201.234443 85.043747 
L 201.283842 85.043747 
L 201.432041 78.703958 
L 201.876638 78.703958 
L 202.024837 85.043747 
L 202.074237 85.043747 
L 202.222436 78.703958 
L 202.271835 78.703958 
L 202.420034 85.043747 
L 202.469434 85.043747 
L 202.617633 78.703958 
L 203.06223 78.703958 
L 203.210429 85.043747 
L 203.457427 85.043747 
L 203.605626 78.703958 
L 203.655026 78.703958 
L 203.803225 85.043747 
L 204.050223 85.043747 
L 204.198422 78.703958 
L 204.247822 78.703958 
L 204.396021 85.043747 
L 204.643019 85.043747 
L 204.791218 78.703958 
L 205.038216 78.703958 
L 205.186415 85.043747 
L 205.235815 85.043747 
L 205.384014 91.383537 
L 205.433413 91.383537 
L 205.581612 85.043747 
L 206.223808 85.043747 
L 206.372007 91.383537 
L 206.421407 91.383537 
L 206.569605 85.043747 
L 207.4094 85.043747 
L 207.557599 91.383537 
L 207.606998 91.383537 
L 207.755197 85.043747 
L 207.804597 85.043747 
L 207.952796 97.723326 
L 208.002196 97.723326 
L 208.150395 85.043747 
L 208.199794 85.043747 
L 208.347993 91.383537 
L 208.397393 91.383537 
L 208.545592 78.703958 
L 208.594991 78.703958 
L 208.74319 85.043747 
L 208.79259 85.043747 
L 208.940789 91.383537 
L 209.187787 91.383537 
L 209.335986 85.043747 
L 209.582985 85.043747 
L 209.731184 78.703958 
L 209.780583 78.703958 
L 209.928782 85.043747 
L 209.978182 85.043747 
L 210.126381 78.703958 
L 210.373379 78.703958 
L 210.521578 85.043747 
L 211.558971 85.043747 
L 211.70717 91.383537 
L 211.756569 91.383537 
L 211.904768 78.703958 
L 211.954168 78.703958 
L 212.102367 91.383537 
L 212.151767 91.383537 
L 212.299966 78.703958 
L 212.349365 78.703958 
L 212.497564 85.043747 
L 212.546964 85.043747 
L 212.695163 91.383537 
L 212.744563 91.383537 
L 212.892762 85.043747 
L 213.534957 85.043747 
L 213.683156 91.383537 
L 213.732556 91.383537 
L 213.880755 85.043747 
L 213.930154 85.043747 
L 214.078353 78.703958 
L 214.127753 78.703958 
L 214.275952 85.043747 
L 214.325352 85.043747 
L 214.473551 78.703958 
L 214.52295 78.703958 
L 214.671149 91.383537 
L 214.720549 91.383537 
L 214.868748 85.043747 
L 215.115746 85.043747 
L 215.263945 91.383537 
L 215.313345 91.383537 
L 215.461544 85.043747 
L 215.708542 85.043747 
L 215.856741 91.383537 
L 215.906141 91.383537 
L 216.05434 85.043747 
L 216.103739 85.043747 
L 216.251938 91.383537 
L 216.498937 91.383537 
L 216.647136 78.703958 
L 216.696535 78.703958 
L 216.844734 85.043747 
L 217.289331 85.043747 
L 217.43753 91.383537 
L 217.48693 91.383537 
L 217.635129 85.043747 
L 217.882127 85.043747 
L 218.030326 78.703958 
L 218.079726 78.703958 
L 218.227925 85.043747 
L 218.277324 85.043747 
L 218.425523 78.703958 
L 218.474923 78.703958 
L 218.623122 91.383537 
L 218.672521 91.383537 
L 218.82072 85.043747 
L 219.462916 85.043747 
L 219.611115 91.383537 
L 219.660515 91.383537 
L 219.808714 97.723326 
L 219.858113 97.723326 
L 220.006312 85.043747 
L 220.055712 85.043747 
L 220.203911 91.383537 
L 220.648508 91.383537 
L 220.796707 85.043747 
L 221.043705 85.043747 
L 221.191904 78.703958 
L 221.241304 78.703958 
L 221.389503 85.043747 
L 221.438902 85.043747 
L 221.587101 78.703958 
L 221.636501 78.703958 
L 221.7847 85.043747 
L 222.229297 85.043747 
L 222.377496 91.383537 
L 222.426895 91.383537 
L 222.575094 85.043747 
L 223.019691 85.043747 
L 223.16789 78.703958 
L 223.414889 78.703958 
L 223.563087 85.043747 
L 223.810086 85.043747 
L 223.958285 78.703958 
L 224.007684 78.703958 
L 224.155883 85.043747 
L 224.402882 85.043747 
L 224.551081 78.703958 
L 224.60048 78.703958 
L 224.748679 85.043747 
L 224.798079 85.043747 
L 224.946278 78.703958 
L 224.995678 78.703958 
L 225.143877 85.043747 
L 225.390875 85.043747 
L 225.539074 78.703958 
L 225.588473 78.703958 
L 225.736672 85.043747 
L 226.378868 85.043747 
L 226.527067 91.383537 
L 226.971664 91.383537 
L 227.119863 97.723326 
L 227.169262 97.723326 
L 227.317461 91.383537 
L 227.366861 91.383537 
L 227.51506 85.043747 
L 227.56446 85.043747 
L 227.712659 91.383537 
L 228.157256 91.383537 
L 228.305455 78.703958 
L 228.354854 78.703958 
L 228.503053 91.383537 
L 228.552453 91.383537 
L 228.700652 85.043747 
L 228.750051 85.043747 
L 228.89825 91.383537 
L 229.738045 91.383537 
L 229.886244 85.043747 
L 230.726038 85.043747 
L 230.874237 91.383537 
L 230.923636 91.383537 
L 231.071835 85.043747 
L 231.121235 85.043747 
L 231.269434 91.383537 
L 231.318834 91.383537 
L 231.467033 97.723326 
L 231.91163 97.723326 
L 232.059828 91.383537 
L 232.109228 91.383537 
L 232.257427 104.063116 
L 232.504425 104.063116 
L 232.652624 97.723326 
L 232.702024 97.723326 
L 232.850223 91.383537 
L 232.899623 91.383537 
L 233.047822 97.723326 
L 233.29482 97.723326 
L 233.443019 104.063116 
L 234.085214 104.063116 
L 234.233413 110.402905 
L 234.480412 110.402905 
L 234.628611 104.063116 
L 234.67801 104.063116 
L 234.826209 110.402905 
L 235.270806 110.402905 
L 235.419005 119.912589 
L 235.468405 119.912589 
L 235.616604 104.063116 
L 235.666003 104.063116 
L 235.814202 110.402905 
L 235.863602 110.402905 
L 236.011801 119.912589 
L 236.061201 119.912589 
L 236.2094 104.063116 
L 236.456398 104.063116 
L 236.604597 110.402905 
L 236.653997 110.402905 
L 236.802196 119.912589 
L 236.851595 119.912589 
L 236.999794 110.402905 
L 237.049194 110.402905 
L 237.197393 104.063116 
L 237.246792 104.063116 
L 237.394991 119.912589 
L 237.444391 119.912589 
L 237.59259 110.402905 
L 237.64199 110.402905 
L 237.790189 119.912589 
L 238.827581 119.912589 
L 238.97578 126.252379 
L 239.02518 126.252379 
L 239.173379 119.912589 
L 240.013173 119.912589 
L 240.161372 129.422274 
L 240.40837 129.422274 
L 240.556569 126.252379 
L 240.803568 126.252379 
L 240.951767 119.912589 
L 241.001166 119.912589 
L 241.149365 126.252379 
L 241.198765 126.252379 
L 241.346964 129.422274 
L 241.98916 129.422274 
L 242.137358 126.252379 
L 242.186758 126.252379 
L 242.334957 129.422274 
L 242.384357 129.422274 
L 242.532556 126.252379 
L 242.581955 126.252379 
L 242.730154 129.422274 
L 242.779554 129.422274 
L 242.927753 126.252379 
L 243.174751 126.252379 
L 243.32295 129.422274 
L 243.569949 129.422274 
L 243.718148 126.252379 
L 243.767547 126.252379 
L 243.915746 129.422274 
L 244.557942 129.422274 
L 244.706141 119.912589 
L 244.75554 119.912589 
L 244.903739 126.252379 
L 244.953139 126.252379 
L 245.101338 129.422274 
L 245.348336 129.422274 
L 245.496535 126.252379 
L 245.545935 126.252379 
L 245.694134 129.422274 
L 245.941132 129.422274 
L 246.089331 126.252379 
L 246.138731 126.252379 
L 246.28693 129.422274 
L 246.336329 129.422274 
L 246.484528 135.762063 
L 246.731527 135.762063 
L 246.879726 129.422274 
L 247.324322 129.422274 
L 247.472521 135.762063 
L 247.521921 135.762063 
L 247.67012 129.422274 
L 247.71952 129.422274 
L 247.867719 135.762063 
L 249.10271 135.762063 
L 249.250909 142.101853 
L 249.497907 142.101853 
L 249.646106 135.762063 
L 249.695506 135.762063 
L 249.843705 142.101853 
L 249.893105 142.101853 
L 250.041304 135.762063 
L 250.090703 135.762063 
L 250.238902 142.101853 
L 250.288302 142.101853 
L 250.436501 148.441642 
L 250.485901 148.441642 
L 250.634099 142.101853 
L 250.683499 142.101853 
L 250.831698 148.441642 
L 250.881098 148.441642 
L 251.029297 142.101853 
L 251.078696 142.101853 
L 251.226895 148.441642 
L 251.473894 148.441642 
L 251.622093 142.101853 
L 251.869091 142.101853 
L 252.01729 148.441642 
L 252.264288 148.441642 
L 252.412487 154.781432 
L 252.659485 154.781432 
L 252.807684 148.441642 
L 253.252281 148.441642 
L 253.40048 161.121221 
L 253.44988 161.121221 
L 253.598079 148.441642 
L 253.647479 148.441642 
L 253.795678 154.781432 
L 253.845077 154.781432 
L 253.993276 161.121221 
L 254.042676 161.121221 
L 254.190875 154.781432 
L 254.240274 154.781432 
L 254.388473 161.121221 
L 254.437873 161.121221 
L 254.586072 154.781432 
L 254.635472 154.781432 
L 254.783671 161.121221 
L 255.425866 161.121221 
L 255.574065 154.781432 
L 255.821063 154.781432 
L 255.969262 161.121221 
L 256.018662 161.121221 
L 256.166861 176.970695 
L 256.216261 176.970695 
L 256.36446 167.461011 
L 256.611458 167.461011 
L 256.759657 161.121221 
L 256.809057 161.121221 
L 256.957256 167.461011 
L 258.192247 167.461011 
L 258.340446 176.970695 
L 258.785043 176.970695 
L 258.933242 167.461011 
L 258.982642 167.461011 
L 259.13084 176.970695 
L 259.18024 176.970695 
L 259.328439 180.140589 
L 259.575437 180.140589 
L 259.723636 176.970695 
L 259.773036 176.970695 
L 259.921235 186.480379 
L 259.970635 186.480379 
L 260.118834 176.970695 
L 260.168233 176.970695 
L 260.316432 180.140589 
L 261.353825 180.140589 
L 261.502024 186.480379 
L 261.551424 186.480379 
L 261.699623 180.140589 
L 261.946621 180.140589 
L 262.09482 186.480379 
L 262.341818 186.480379 
L 262.490017 192.820168 
L 262.539417 192.820168 
L 262.687616 186.480379 
L 262.934614 186.480379 
L 263.082813 192.820168 
L 264.317804 192.820168 
L 264.466003 186.480379 
L 264.515403 186.480379 
L 264.663602 192.820168 
L 264.713002 192.820168 
L 264.861201 186.480379 
L 264.9106 186.480379 
L 265.058799 192.820168 
L 266.096192 192.820168 
L 266.244391 199.159958 
L 266.688988 199.159958 
L 266.837187 192.820168 
L 266.886587 192.820168 
L 267.034786 199.159958 
L 267.281784 199.159958 
L 267.429983 192.820168 
L 267.479383 192.820168 
L 267.627581 205.499747 
L 267.676981 205.499747 
L 267.82518 199.159958 
L 268.664974 199.159958 
L 268.813173 205.499747 
L 269.455369 205.499747 
L 269.603568 211.839537 
L 269.652967 211.839537 
L 269.801166 205.499747 
L 270.838559 205.499747 
L 270.986758 211.839537 
L 271.431355 211.839537 
L 271.579554 218.179326 
L 272.024151 218.179326 
L 272.17235 211.839537 
L 272.22175 211.839537 
L 272.369949 218.179326 
L 272.814545 218.179326 
L 272.962744 211.839537 
L 273.012144 211.839537 
L 273.160343 218.179326 
L 274.000137 218.179326 
L 274.148336 227.689011 
L 274.197736 227.689011 
L 274.345935 218.179326 
L 274.395334 218.179326 
L 274.543533 211.839537 
L 274.592933 211.839537 
L 274.741132 218.179326 
L 276.371321 218.179326 
L 276.51952 227.689011 
L 276.568919 227.689011 
L 276.717118 211.839537 
L 276.766518 211.839537 
L 276.914717 218.179326 
L 277.161715 218.179326 
L 277.309914 227.689011 
L 277.359314 227.689011 
L 277.507513 218.179326 
L 277.556913 218.179326 
L 277.705111 227.689011 
L 277.754511 227.689011 
L 277.90271 218.179326 
L 279.137702 218.179326 
L 279.285901 211.839537 
L 279.3353 211.839537 
L 279.483499 218.179326 
L 279.532899 218.179326 
L 279.681098 227.689011 
L 279.730497 227.689011 
L 279.878696 211.839537 
L 279.928096 211.839537 
L 280.076295 218.179326 
L 280.125695 218.179326 
L 280.273894 211.839537 
L 280.323293 211.839537 
L 280.471492 218.179326 
L 280.520892 218.179326 
L 280.669091 211.839537 
L 280.718491 211.839537 
L 280.86669 218.179326 
L 280.916089 218.179326 
L 281.064288 227.689011 
L 281.113688 227.689011 
L 281.261887 218.179326 
L 281.706484 218.179326 
L 281.854683 227.689011 
L 281.904082 227.689011 
L 282.052281 218.179326 
L 282.29928 218.179326 
L 282.447479 227.689011 
L 283.880069 227.689011 
L 284.028268 218.179326 
L 284.077667 218.179326 
L 284.225866 227.689011 
L 284.472864 227.689011 
L 284.621063 230.858905 
L 284.670463 230.858905 
L 284.818662 227.689011 
L 285.06566 227.689011 
L 285.213859 230.858905 
L 285.658456 230.858905 
L 285.806655 227.689011 
L 285.856055 227.689011 
L 286.004254 230.858905 
L 286.053654 230.858905 
L 286.201852 218.179326 
L 286.251252 218.179326 
L 286.399451 227.689011 
L 286.448851 227.689011 
L 286.59705 230.858905 
L 286.844048 230.858905 
L 286.992247 227.689011 
L 287.041647 227.689011 
L 287.189846 230.858905 
L 287.832041 230.858905 
L 287.98024 237.198695 
L 288.02964 237.198695 
L 288.177839 227.689011 
L 288.227238 227.689011 
L 288.375437 230.858905 
L 288.622436 230.858905 
L 288.770635 227.689011 
L 289.215232 227.689011 
L 289.363431 237.198695 
L 289.41283 237.198695 
L 289.561029 227.689011 
L 289.808027 227.689011 
L 289.956226 230.858905 
L 290.005626 230.858905 
L 290.153825 227.689011 
L 291.388816 227.689011 
L 291.537015 230.858905 
L 291.586415 230.858905 
L 291.734614 227.689011 
L 291.981612 227.689011 
L 292.129811 218.179326 
L 292.179211 218.179326 
L 292.32741 230.858905 
L 292.37681 230.858905 
L 292.525009 237.198695 
L 292.574408 237.198695 
L 292.722607 227.689011 
L 293.562401 227.689011 
L 293.7106 230.858905 
L 293.76 230.858905 
L 293.908199 227.689011 
L 293.957599 227.689011 
L 294.105798 230.858905 
L 294.155197 230.858905 
L 294.303396 227.689011 
L 295.14319 227.689011 
L 295.291389 218.179326 
L 295.340789 218.179326 
L 295.488988 227.689011 
L 295.538388 227.689011 
L 295.686587 218.179326 
L 295.933585 218.179326 
L 296.081784 227.689011 
L 296.131184 227.689011 
L 296.279383 218.179326 
L 296.328782 218.179326 
L 296.476981 227.689011 
L 296.526381 227.689011 
L 296.67458 230.858905 
L 296.723979 230.858905 
L 296.872178 218.179326 
L 296.921578 218.179326 
L 297.069777 227.689011 
L 297.316775 227.689011 
L 297.464974 218.179326 
L 297.909571 218.179326 
L 298.05777 227.689011 
L 298.304768 227.689011 
L 298.452967 218.179326 
L 298.699966 218.179326 
L 298.848165 227.689011 
L 299.095163 227.689011 
L 299.243362 218.179326 
L 299.687959 218.179326 
L 299.836158 227.689011 
L 299.885557 227.689011 
L 300.033756 218.179326 
L 300.675952 218.179326 
L 300.824151 227.689011 
L 301.071149 227.689011 
L 301.219348 218.179326 
L 301.268748 218.179326 
L 301.416947 227.689011 
L 301.466346 227.689011 
L 301.614545 218.179326 
L 301.663945 218.179326 
L 301.812144 227.689011 
L 301.861544 227.689011 
L 302.009743 218.179326 
L 302.651938 218.179326 
L 302.800137 211.839537 
L 302.849537 211.839537 
L 302.997736 218.179326 
L 303.047136 218.179326 
L 303.195334 211.839537 
L 303.244734 211.839537 
L 303.392933 218.179326 
L 304.232727 218.179326 
L 304.380926 227.689011 
L 304.627925 227.689011 
L 304.776123 230.858905 
L 304.825523 230.858905 
L 304.973722 227.689011 
L 305.22072 227.689011 
L 305.368919 230.858905 
L 305.615918 230.858905 
L 305.764117 227.689011 
L 306.011115 227.689011 
L 306.159314 237.198695 
L 306.406312 237.198695 
L 306.554511 230.858905 
L 307.591904 230.858905 
L 307.740103 237.198695 
L 308.382298 237.198695 
L 308.530497 230.858905 
L 308.777496 230.858905 
L 308.925695 237.198695 
L 308.975094 237.198695 
L 309.123293 249.878274 
L 309.172693 249.878274 
L 309.320892 256.218063 
L 309.370292 256.218063 
L 309.518491 249.878274 
L 309.56789 249.878274 
L 309.716089 262.557853 
L 309.765489 262.557853 
L 309.913688 256.218063 
L 310.555883 256.218063 
L 310.704082 262.557853 
L 310.753482 262.557853 
L 310.901681 256.218063 
L 311.543877 256.218063 
L 311.692075 262.557853 
L 311.939074 262.557853 
L 312.087273 256.218063 
L 312.136672 256.218063 
L 312.284871 268.897642 
L 312.334271 268.897642 
L 312.48247 262.557853 
L 312.53187 262.557853 
L 312.680069 256.218063 
L 312.729468 256.218063 
L 312.877667 262.557853 
L 313.124666 262.557853 
L 313.272864 268.897642 
L 313.322264 268.897642 
L 313.470463 262.557853 
L 313.717461 262.557853 
L 313.86566 268.897642 
L 313.91506 268.897642 
L 314.063259 262.557853 
L 314.903053 262.557853 
L 315.051252 268.897642 
L 315.693448 268.897642 
L 315.841647 278.407326 
L 316.681441 278.407326 
L 316.82964 284.747116 
L 316.879039 284.747116 
L 317.027238 278.407326 
L 317.274237 278.407326 
L 317.422436 284.747116 
L 318.064631 284.747116 
L 318.21283 278.407326 
L 318.26223 278.407326 
L 318.410429 284.747116 
L 318.657427 284.747116 
L 318.805626 287.917011 
L 319.64542 287.917011 
L 319.793619 284.747116 
L 319.843019 284.747116 
L 319.991218 287.917011 
L 320.633413 287.917011 
L 320.781612 294.2568 
L 320.831012 294.2568 
L 320.979211 287.917011 
L 321.423808 287.917011 
L 321.572007 284.747116 
L 323.004597 284.747116 
L 323.152796 287.917011 
L 323.597393 287.917011 
L 323.745592 284.747116 
L 323.794991 284.747116 
L 323.94319 294.2568 
L 323.99259 294.2568 
L 324.140789 284.747116 
L 324.190189 284.747116 
L 324.338388 287.917011 
L 324.387787 287.917011 
L 324.535986 284.747116 
L 324.585386 284.747116 
L 324.733585 287.917011 
L 324.782985 287.917011 
L 324.931184 278.407326 
L 324.980583 278.407326 
L 325.128782 287.917011 
L 325.968576 287.917011 
L 326.116775 284.747116 
L 326.166175 284.747116 
L 326.314374 294.2568 
L 326.363774 294.2568 
L 326.511973 284.747116 
L 326.561372 284.747116 
L 326.709571 287.917011 
L 326.758971 287.917011 
L 326.90717 284.747116 
L 327.746964 284.747116 
L 327.895163 278.407326 
L 327.944563 278.407326 
L 328.092762 284.747116 
L 328.142161 284.747116 
L 328.29036 278.407326 
L 328.33976 278.407326 
L 328.487959 287.917011 
L 328.537358 287.917011 
L 328.685557 284.747116 
L 328.932556 284.747116 
L 329.080755 278.407326 
L 330.118148 278.407326 
L 330.266346 284.747116 
L 330.315746 284.747116 
L 330.463945 278.407326 
L 330.710943 278.407326 
L 330.859142 284.747116 
L 330.908542 284.747116 
L 331.056741 278.407326 
L 331.303739 278.407326 
L 331.451938 268.897642 
L 331.698937 268.897642 
L 331.847136 284.747116 
L 331.896535 284.747116 
L 332.044734 268.897642 
L 332.094134 268.897642 
L 332.242333 284.747116 
L 332.291732 284.747116 
L 332.439931 268.897642 
L 332.68693 268.897642 
L 332.835129 262.557853 
L 333.279726 262.557853 
L 333.427925 268.897642 
L 333.674923 268.897642 
L 333.823122 262.557853 
L 334.07012 262.557853 
L 334.218319 268.897642 
L 334.267719 268.897642 
L 334.415918 262.557853 
L 334.662916 262.557853 
L 334.811115 249.878274 
L 334.860515 249.878274 
L 335.008714 268.897642 
L 335.058113 268.897642 
L 335.206312 262.557853 
L 335.45331 262.557853 
L 335.601509 268.897642 
L 335.650909 268.897642 
L 335.799108 262.557853 
L 335.848508 262.557853 
L 335.996707 268.897642 
L 336.243705 268.897642 
L 336.391904 262.557853 
L 336.441304 262.557853 
L 336.589503 256.218063 
L 336.638902 256.218063 
L 336.787101 249.878274 
L 336.836501 249.878274 
L 336.9847 262.557853 
L 337.231698 262.557853 
L 337.379897 249.878274 
L 337.429297 249.878274 
L 337.577496 256.218063 
L 337.824494 256.218063 
L 337.972693 249.878274 
L 338.022093 249.878274 
L 338.170292 243.538484 
L 338.219691 243.538484 
L 338.36789 249.878274 
L 339.010086 249.878274 
L 339.158285 243.538484 
L 339.207684 243.538484 
L 339.355883 256.218063 
L 339.602882 256.218063 
L 339.751081 243.538484 
L 339.80048 243.538484 
L 339.948679 256.218063 
L 339.998079 256.218063 
L 340.146278 249.878274 
L 340.195678 249.878274 
L 340.343877 256.218063 
L 340.393276 256.218063 
L 340.541475 249.878274 
L 341.183671 249.878274 
L 341.33187 243.538484 
L 341.381269 243.538484 
L 341.529468 237.198695 
L 341.578868 237.198695 
L 341.727067 243.538484 
L 341.974065 243.538484 
L 342.122264 237.198695 
L 342.171664 237.198695 
L 342.319863 243.538484 
L 342.369262 243.538484 
L 342.517461 237.198695 
L 342.566861 237.198695 
L 342.71506 243.538484 
L 342.76446 243.538484 
L 342.912659 237.198695 
L 343.357256 237.198695 
L 343.505455 230.858905 
L 343.554854 230.858905 
L 343.703053 237.198695 
L 343.752453 237.198695 
L 343.900652 227.689011 
L 344.14765 227.689011 
L 344.295849 230.858905 
L 344.345249 230.858905 
L 344.493448 227.689011 
L 344.542847 227.689011 
L 344.691046 230.858905 
L 345.728439 230.858905 
L 345.876638 227.689011 
L 346.321235 227.689011 
L 346.469434 230.858905 
L 346.518834 230.858905 
L 346.667033 227.689011 
L 346.716432 227.689011 
L 346.864631 230.858905 
L 346.914031 230.858905 
L 347.06223 227.689011 
L 347.11163 227.689011 
L 347.259828 218.179326 
L 347.309228 218.179326 
L 347.457427 227.689011 
L 347.506827 227.689011 
L 347.655026 218.179326 
L 347.704425 218.179326 
L 347.852624 227.689011 
L 348.099623 227.689011 
L 348.247822 218.179326 
L 348.49482 218.179326 
L 348.643019 227.689011 
L 348.692419 227.689011 
L 348.840617 218.179326 
L 348.890017 218.179326 
L 349.038216 227.689011 
L 349.087616 227.689011 
L 349.235815 218.179326 
L 349.285214 218.179326 
L 349.433413 227.689011 
L 349.680412 227.689011 
L 349.828611 218.179326 
L 349.87801 218.179326 
L 350.026209 227.689011 
L 350.075609 227.689011 
L 350.223808 218.179326 
L 351.656398 218.179326 
L 351.804597 211.839537 
L 351.853997 211.839537 
L 352.002196 205.499747 
L 352.051595 205.499747 
L 352.199794 211.839537 
L 352.249194 211.839537 
L 352.397393 218.179326 
L 352.644391 218.179326 
L 352.79259 211.839537 
L 353.039588 211.839537 
L 353.187787 218.179326 
L 353.237187 218.179326 
L 353.385386 227.689011 
L 353.632384 227.689011 
L 353.780583 211.839537 
L 354.027581 211.839537 
L 354.17578 218.179326 
L 354.22518 218.179326 
L 354.373379 205.499747 
L 354.422779 205.499747 
L 354.570978 211.839537 
L 354.817976 211.839537 
L 354.966175 218.179326 
L 355.015575 218.179326 
L 355.163774 211.839537 
L 356.201166 211.839537 
L 356.349365 205.499747 
L 356.596364 205.499747 
L 356.744563 211.839537 
L 356.793962 211.839537 
L 356.942161 205.499747 
L 356.991561 205.499747 
L 357.13976 199.159958 
L 357.18916 199.159958 
L 357.337358 192.820168 
L 357.386758 192.820168 
L 357.534957 199.159958 
L 357.584357 199.159958 
L 357.732556 205.499747 
L 357.979554 205.499747 
L 358.127753 199.159958 
L 358.374751 199.159958 
L 358.52295 192.820168 
L 358.57235 192.820168 
L 358.720549 199.159958 
L 358.769949 199.159958 
L 358.918148 192.820168 
L 358.967547 192.820168 
L 359.115746 199.159958 
L 359.165146 199.159958 
L 359.313345 192.820168 
L 359.362744 192.820168 
L 359.510943 199.159958 
L 359.560343 199.159958 
L 359.708542 192.820168 
L 360.153139 192.820168 
L 360.301338 186.480379 
L 360.350738 186.480379 
L 360.498937 180.140589 
L 360.745935 180.140589 
L 360.894134 192.820168 
L 360.943533 192.820168 
L 361.091732 186.480379 
L 361.338731 186.480379 
L 361.48693 180.140589 
L 361.733928 180.140589 
L 361.882127 176.970695 
L 362.91952 176.970695 
L 363.067719 167.461011 
L 363.512316 167.461011 
L 363.660515 161.121221 
L 363.709914 161.121221 
L 363.858113 167.461011 
L 363.907513 167.461011 
L 364.055712 161.121221 
L 364.105111 161.121221 
L 364.25331 167.461011 
L 364.500309 167.461011 
L 364.648508 161.121221 
L 364.697907 161.121221 
L 364.846106 167.461011 
L 364.895506 167.461011 
L 365.043705 161.121221 
L 365.883499 161.121221 
L 366.031698 154.781432 
L 366.871492 154.781432 
L 367.019691 148.441642 
L 367.464288 148.441642 
L 367.612487 142.101853 
L 367.661887 142.101853 
L 367.810086 148.441642 
L 367.859485 148.441642 
L 368.007684 142.101853 
L 368.057084 142.101853 
L 368.205283 154.781432 
L 368.254683 154.781432 
L 368.402882 142.101853 
L 369.440274 142.101853 
L 369.588473 135.762063 
L 370.823465 135.762063 
L 370.971664 129.422274 
L 371.218662 129.422274 
L 371.366861 126.252379 
L 371.613859 126.252379 
L 371.762058 129.422274 
L 371.811458 129.422274 
L 371.959657 119.912589 
L 372.009057 119.912589 
L 372.157256 129.422274 
L 372.206655 129.422274 
L 372.354854 126.252379 
L 372.404254 126.252379 
L 372.552453 119.912589 
L 372.601852 119.912589 
L 372.750051 126.252379 
L 372.99705 126.252379 
L 373.145249 119.912589 
L 373.392247 119.912589 
L 373.540446 126.252379 
L 373.589846 126.252379 
L 373.738045 110.402905 
L 373.787444 110.402905 
L 373.935643 119.912589 
L 373.985043 119.912589 
L 374.133242 110.402905 
L 375.368233 110.402905 
L 375.516432 104.063116 
L 375.565832 104.063116 
L 375.714031 110.402905 
L 375.763431 110.402905 
L 375.91163 104.063116 
L 375.961029 104.063116 
L 376.109228 97.723326 
L 376.158628 97.723326 
L 376.306827 110.402905 
L 376.356226 110.402905 
L 376.504425 104.063116 
L 376.553825 104.063116 
L 376.702024 97.723326 
L 376.751424 97.723326 
L 376.899623 104.063116 
L 376.949022 104.063116 
L 377.097221 97.723326 
L 377.146621 97.723326 
L 377.29482 104.063116 
L 377.541818 104.063116 
L 377.690017 97.723326 
L 377.739417 97.723326 
L 377.887616 104.063116 
L 377.937015 104.063116 
L 378.085214 97.723326 
L 378.134614 97.723326 
L 378.282813 91.383537 
L 378.72741 91.383537 
L 378.875609 85.043747 
L 378.925009 85.043747 
L 379.073208 91.383537 
L 380.308199 91.383537 
L 380.456398 85.043747 
L 380.505798 85.043747 
L 380.653997 91.383537 
L 380.900995 91.383537 
L 381.049194 85.043747 
L 381.098593 85.043747 
L 381.246792 91.383537 
L 381.493791 91.383537 
L 381.64199 85.043747 
L 383.272178 85.043747 
L 383.420377 78.703958 
L 383.469777 78.703958 
L 383.617976 85.043747 
L 384.062573 85.043747 
L 384.210772 78.703958 
L 384.45777 78.703958 
L 384.605969 85.043747 
L 384.655369 85.043747 
L 384.803568 78.703958 
L 384.852967 78.703958 
L 385.001166 72.364168 
L 385.248165 72.364168 
L 385.396364 78.703958 
L 385.643362 78.703958 
L 385.791561 72.364168 
L 385.840961 72.364168 
L 385.98916 85.043747 
L 386.038559 85.043747 
L 386.186758 72.364168 
L 386.236158 72.364168 
L 386.384357 78.703958 
L 386.433756 78.703958 
L 386.581955 72.364168 
L 386.631355 72.364168 
L 386.779554 78.703958 
L 387.42175 78.703958 
L 387.569949 72.364168 
L 387.816947 72.364168 
L 387.965146 78.703958 
L 388.014545 78.703958 
L 388.162744 72.364168 
L 388.212144 72.364168 
L 388.360343 78.703958 
L 388.409743 78.703958 
L 388.557942 72.364168 
L 388.607341 72.364168 
L 388.75554 78.703958 
L 388.80494 78.703958 
L 388.953139 69.194274 
L 389.002539 69.194274 
L 389.150738 72.364168 
L 389.595334 72.364168 
L 389.743533 78.703958 
L 389.990532 78.703958 
L 390.138731 69.194274 
L 390.18813 69.194274 
L 390.336329 72.364168 
L 390.780926 72.364168 
L 390.929125 69.194274 
L 390.978525 69.194274 
L 391.126724 78.703958 
L 391.176123 78.703958 
L 391.324322 72.364168 
L 391.768919 72.364168 
L 391.917118 59.684589 
L 391.966518 59.684589 
L 392.114717 69.194274 
L 392.164117 69.194274 
L 392.312316 72.364168 
L 392.559314 72.364168 
L 392.707513 69.194274 
L 392.954511 69.194274 
L 393.10271 59.684589 
L 393.15211 59.684589 
L 393.300309 69.194274 
L 393.349708 69.194274 
L 393.497907 59.684589 
L 393.547307 59.684589 
L 393.695506 72.364168 
L 393.744906 72.364168 
L 393.893105 59.684589 
L 393.942504 59.684589 
L 394.090703 69.194274 
L 394.337702 69.194274 
L 394.485901 59.684589 
L 394.5353 59.684589 
L 394.683499 69.194274 
L 394.732899 69.194274 
L 394.881098 59.684589 
L 394.930497 59.684589 
L 395.078696 69.194274 
L 396.313688 69.194274 
L 396.461887 59.684589 
L 396.511286 59.684589 
L 396.659485 69.194274 
L 396.708885 69.194274 
L 396.857084 53.3448 
L 396.906484 53.3448 
L 397.054683 59.684589 
L 397.104082 59.684589 
L 397.252281 53.3448 
L 397.301681 53.3448 
L 397.44988 59.684589 
L 398.092075 59.684589 
L 398.240274 53.3448 
L 398.487273 53.3448 
L 398.487273 53.3448 
" style="fill:none;stroke:#1f77b4;stroke-linecap:square;stroke-width:1.5;"/>
   </g>
   <g id="patch_3">
    <path d="M 57.6 306.3024 
L 57.6 41.2992 
" style="fill:none;stroke:#000000;stroke-linecap:square;stroke-linejoin:miter;stroke-width:0.8;"/>
   </g>
   <g id="patch_4">
    <path d="M 414.72 306.3024 
L 414.72 41.2992 
" style="fill:none;stroke:#000000;stroke-linecap:square;stroke-linejoin:miter;stroke-width:0.8;"/>
   </g>
   <g id="patch_5">
    <path d="M 57.6 306.3024 
L 414.72 306.3024 
" style="fill:none;stroke:#000000;stroke-linecap:square;stroke-linejoin:miter;stroke-width:0.8;"/>
   </g>
   <g id="patch_6">
    <path d="M 57.6 41.2992 
L 414.72 41.2992 
" style="fill:none;stroke:#000000;stroke-linecap:square;stroke-linejoin:miter;stroke-width:0.8;"/>
   </g>
   <g id="text_19">
    <!-- Tempertura -->
    <g transform="translate(200.709375 35.2992)scale(0.12 -0.12)">
     <use xlink:href="#DejaVuSans-84"/>
     <use x="60.818359" xlink:href="#DejaVuSans-101"/>
     <use x="122.341797" xlink:href="#DejaVuSans-109"/>
     <use x="219.753906" xlink:href="#DejaVuSans-112"/>
     <use x="283.230469" xlink:href="#DejaVuSans-101"/>
     <use x="344.753906" xlink:href="#DejaVuSans-114"/>
     <use x="385.867188" xlink:href="#DejaVuSans-116"/>
     <use x="425.076172" xlink:href="#DejaVuSans-117"/>
     <use x="488.455078" xlink:href="#DejaVuSans-114"/>
     <use x="529.568359" xlink:href="#DejaVuSans-97"/>
    </g>
   </g>
  </g>
 </g>
 <defs>
  <clipPath id="p7e9b194eac">
   <rect height="265.0032" width="357.12" x="57.6" y="41.2992"/>
  </clipPath>
 </defs>
</svg>
