<?xml version="1.0" encoding="utf-8" standalone="no"?>
<!DOCTYPE svg PUBLIC "-//W3C//DTD SVG 1.1//EN"
  "http://www.w3.org/Graphics/SVG/1.1/DTD/svg11.dtd">
<!-- Created with matplotlib (https://matplotlib.org/) -->
<svg height="344.16pt" version="1.1" viewBox="0 0 460.8 344.16" width="460.8pt" xmlns="http://www.w3.org/2000/svg" xmlns:xlink="http://www.w3.org/1999/xlink">
 <defs>
  <style type="text/css">
*{stroke-linecap:butt;stroke-linejoin:round;}
  </style>
 </defs>
 <g id="figure_1">
  <g id="patch_1">
   <path d="M 0 344.16 
L 460.8 344.16 
L 460.8 0 
L 0 0 
z
" style="fill:#ffffff;"/>
  </g>
  <g id="axes_1">
   <g id="patch_2">
    <path d="M 57.6 306.3024 
L 414.72 306.3024 
L 414.72 41.2992 
L 57.6 41.2992 
z
" style="fill:#ffffff;"/>
   </g>
   <g id="matplotlib.axis_1">
    <g id="xtick_1">
     <g id="line2d_1">
      <defs>
       <path d="M 0 0 
L 0 3.5 
" id="m995d90f2c9" style="stroke:#000000;stroke-width:0.8;"/>
      </defs>
      <g>
       <use style="stroke:#000000;stroke-width:0.8;" x="73.832727" xlink:href="#m995d90f2c9" y="306.3024"/>
      </g>
     </g>
     <g id="text_1">
      <!-- 0 -->
      <defs>
       <path d="M 31.78125 66.40625 
Q 24.171875 66.40625 20.328125 58.90625 
Q 16.5 51.421875 16.5 36.375 
Q 16.5 21.390625 20.328125 13.890625 
Q 24.171875 6.390625 31.78125 6.390625 
Q 39.453125 6.390625 43.28125 13.890625 
Q 47.125 21.390625 47.125 36.375 
Q 47.125 51.421875 43.28125 58.90625 
Q 39.453125 66.40625 31.78125 66.40625 
z
M 31.78125 74.21875 
Q 44.046875 74.21875 50.515625 64.515625 
Q 56.984375 54.828125 56.984375 36.375 
Q 56.984375 17.96875 50.515625 8.265625 
Q 44.046875 -1.421875 31.78125 -1.421875 
Q 19.53125 -1.421875 13.0625 8.265625 
Q 6.59375 17.96875 6.59375 36.375 
Q 6.59375 54.828125 13.0625 64.515625 
Q 19.53125 74.21875 31.78125 74.21875 
z
" id="DejaVuSans-48"/>
      </defs>
      <g transform="translate(70.651477 320.900838)scale(0.1 -0.1)">
       <use xlink:href="#DejaVuSans-48"/>
      </g>
     </g>
    </g>
    <g id="xtick_2">
     <g id="line2d_2">
      <g>
       <use style="stroke:#000000;stroke-width:0.8;" x="123.852687" xlink:href="#m995d90f2c9" y="306.3024"/>
      </g>
     </g>
     <g id="text_2">
      <!-- 2000 -->
      <defs>
       <path d="M 19.1875 8.296875 
L 53.609375 8.296875 
L 53.609375 0 
L 7.328125 0 
L 7.328125 8.296875 
Q 12.9375 14.109375 22.625 23.890625 
Q 32.328125 33.6875 34.8125 36.53125 
Q 39.546875 41.84375 41.421875 45.53125 
Q 43.3125 49.21875 43.3125 52.78125 
Q 43.3125 58.59375 39.234375 62.25 
Q 35.15625 65.921875 28.609375 65.921875 
Q 23.96875 65.921875 18.8125 64.3125 
Q 13.671875 62.703125 7.8125 59.421875 
L 7.8125 69.390625 
Q 13.765625 71.78125 18.9375 73 
Q 24.125 74.21875 28.421875 74.21875 
Q 39.75 74.21875 46.484375 68.546875 
Q 53.21875 62.890625 53.21875 53.421875 
Q 53.21875 48.921875 51.53125 44.890625 
Q 49.859375 40.875 45.40625 35.40625 
Q 44.1875 33.984375 37.640625 27.21875 
Q 31.109375 20.453125 19.1875 8.296875 
z
" id="DejaVuSans-50"/>
      </defs>
      <g transform="translate(111.127687 320.900838)scale(0.1 -0.1)">
       <use xlink:href="#DejaVuSans-50"/>
       <use x="63.623047" xlink:href="#DejaVuSans-48"/>
       <use x="127.246094" xlink:href="#DejaVuSans-48"/>
       <use x="190.869141" xlink:href="#DejaVuSans-48"/>
      </g>
     </g>
    </g>
    <g id="xtick_3">
     <g id="line2d_3">
      <g>
       <use style="stroke:#000000;stroke-width:0.8;" x="173.872646" xlink:href="#m995d90f2c9" y="306.3024"/>
      </g>
     </g>
     <g id="text_3">
      <!-- 4000 -->
      <defs>
       <path d="M 37.796875 64.3125 
L 12.890625 25.390625 
L 37.796875 25.390625 
z
M 35.203125 72.90625 
L 47.609375 72.90625 
L 47.609375 25.390625 
L 58.015625 25.390625 
L 58.015625 17.1875 
L 47.609375 17.1875 
L 47.609375 0 
L 37.796875 0 
L 37.796875 17.1875 
L 4.890625 17.1875 
L 4.890625 26.703125 
z
" id="DejaVuSans-52"/>
      </defs>
      <g transform="translate(161.147646 320.900838)scale(0.1 -0.1)">
       <use xlink:href="#DejaVuSans-52"/>
       <use x="63.623047" xlink:href="#DejaVuSans-48"/>
       <use x="127.246094" xlink:href="#DejaVuSans-48"/>
       <use x="190.869141" xlink:href="#DejaVuSans-48"/>
      </g>
     </g>
    </g>
    <g id="xtick_4">
     <g id="line2d_4">
      <g>
       <use style="stroke:#000000;stroke-width:0.8;" x="223.892605" xlink:href="#m995d90f2c9" y="306.3024"/>
      </g>
     </g>
     <g id="text_4">
      <!-- 6000 -->
      <defs>
       <path d="M 33.015625 40.375 
Q 26.375 40.375 22.484375 35.828125 
Q 18.609375 31.296875 18.609375 23.390625 
Q 18.609375 15.53125 22.484375 10.953125 
Q 26.375 6.390625 33.015625 6.390625 
Q 39.65625 6.390625 43.53125 10.953125 
Q 47.40625 15.53125 47.40625 23.390625 
Q 47.40625 31.296875 43.53125 35.828125 
Q 39.65625 40.375 33.015625 40.375 
z
M 52.59375 71.296875 
L 52.59375 62.3125 
Q 48.875 64.0625 45.09375 64.984375 
Q 41.3125 65.921875 37.59375 65.921875 
Q 27.828125 65.921875 22.671875 59.328125 
Q 17.53125 52.734375 16.796875 39.40625 
Q 19.671875 43.65625 24.015625 45.921875 
Q 28.375 48.1875 33.59375 48.1875 
Q 44.578125 48.1875 50.953125 41.515625 
Q 57.328125 34.859375 57.328125 23.390625 
Q 57.328125 12.15625 50.6875 5.359375 
Q 44.046875 -1.421875 33.015625 -1.421875 
Q 20.359375 -1.421875 13.671875 8.265625 
Q 6.984375 17.96875 6.984375 36.375 
Q 6.984375 53.65625 15.1875 63.9375 
Q 23.390625 74.21875 37.203125 74.21875 
Q 40.921875 74.21875 44.703125 73.484375 
Q 48.484375 72.75 52.59375 71.296875 
z
" id="DejaVuSans-54"/>
      </defs>
      <g transform="translate(211.167605 320.900838)scale(0.1 -0.1)">
       <use xlink:href="#DejaVuSans-54"/>
       <use x="63.623047" xlink:href="#DejaVuSans-48"/>
       <use x="127.246094" xlink:href="#DejaVuSans-48"/>
       <use x="190.869141" xlink:href="#DejaVuSans-48"/>
      </g>
     </g>
    </g>
    <g id="xtick_5">
     <g id="line2d_5">
      <g>
       <use style="stroke:#000000;stroke-width:0.8;" x="273.912564" xlink:href="#m995d90f2c9" y="306.3024"/>
      </g>
     </g>
     <g id="text_5">
      <!-- 8000 -->
      <defs>
       <path d="M 31.78125 34.625 
Q 24.75 34.625 20.71875 30.859375 
Q 16.703125 27.09375 16.703125 20.515625 
Q 16.703125 13.921875 20.71875 10.15625 
Q 24.75 6.390625 31.78125 6.390625 
Q 38.8125 6.390625 42.859375 10.171875 
Q 46.921875 13.96875 46.921875 20.515625 
Q 46.921875 27.09375 42.890625 30.859375 
Q 38.875 34.625 31.78125 34.625 
z
M 21.921875 38.8125 
Q 15.578125 40.375 12.03125 44.71875 
Q 8.5 49.078125 8.5 55.328125 
Q 8.5 64.0625 14.71875 69.140625 
Q 20.953125 74.21875 31.78125 74.21875 
Q 42.671875 74.21875 48.875 69.140625 
Q 55.078125 64.0625 55.078125 55.328125 
Q 55.078125 49.078125 51.53125 44.71875 
Q 48 40.375 41.703125 38.8125 
Q 48.828125 37.15625 52.796875 32.3125 
Q 56.78125 27.484375 56.78125 20.515625 
Q 56.78125 9.90625 50.3125 4.234375 
Q 43.84375 -1.421875 31.78125 -1.421875 
Q 19.734375 -1.421875 13.25 4.234375 
Q 6.78125 9.90625 6.78125 20.515625 
Q 6.78125 27.484375 10.78125 32.3125 
Q 14.796875 37.15625 21.921875 38.8125 
z
M 18.3125 54.390625 
Q 18.3125 48.734375 21.84375 45.5625 
Q 25.390625 42.390625 31.78125 42.390625 
Q 38.140625 42.390625 41.71875 45.5625 
Q 45.3125 48.734375 45.3125 54.390625 
Q 45.3125 60.0625 41.71875 63.234375 
Q 38.140625 66.40625 31.78125 66.40625 
Q 25.390625 66.40625 21.84375 63.234375 
Q 18.3125 60.0625 18.3125 54.390625 
z
" id="DejaVuSans-56"/>
      </defs>
      <g transform="translate(261.187564 320.900838)scale(0.1 -0.1)">
       <use xlink:href="#DejaVuSans-56"/>
       <use x="63.623047" xlink:href="#DejaVuSans-48"/>
       <use x="127.246094" xlink:href="#DejaVuSans-48"/>
       <use x="190.869141" xlink:href="#DejaVuSans-48"/>
      </g>
     </g>
    </g>
    <g id="xtick_6">
     <g id="line2d_6">
      <g>
       <use style="stroke:#000000;stroke-width:0.8;" x="323.932523" xlink:href="#m995d90f2c9" y="306.3024"/>
      </g>
     </g>
     <g id="text_6">
      <!-- 10000 -->
      <defs>
       <path d="M 12.40625 8.296875 
L 28.515625 8.296875 
L 28.515625 63.921875 
L 10.984375 60.40625 
L 10.984375 69.390625 
L 28.421875 72.90625 
L 38.28125 72.90625 
L 38.28125 8.296875 
L 54.390625 8.296875 
L 54.390625 0 
L 12.40625 0 
z
" id="DejaVuSans-49"/>
      </defs>
      <g transform="translate(308.026273 320.900838)scale(0.1 -0.1)">
       <use xlink:href="#DejaVuSans-49"/>
       <use x="63.623047" xlink:href="#DejaVuSans-48"/>
       <use x="127.246094" xlink:href="#DejaVuSans-48"/>
       <use x="190.869141" xlink:href="#DejaVuSans-48"/>
       <use x="254.492188" xlink:href="#DejaVuSans-48"/>
      </g>
     </g>
    </g>
    <g id="xtick_7">
     <g id="line2d_7">
      <g>
       <use style="stroke:#000000;stroke-width:0.8;" x="373.952483" xlink:href="#m995d90f2c9" y="306.3024"/>
      </g>
     </g>
     <g id="text_7">
      <!-- 12000 -->
      <g transform="translate(358.046233 320.900838)scale(0.1 -0.1)">
       <use xlink:href="#DejaVuSans-49"/>
       <use x="63.623047" xlink:href="#DejaVuSans-50"/>
       <use x="127.246094" xlink:href="#DejaVuSans-48"/>
       <use x="190.869141" xlink:href="#DejaVuSans-48"/>
       <use x="254.492188" xlink:href="#DejaVuSans-48"/>
      </g>
     </g>
    </g>
    <g id="text_8">
     <!-- Muestras -->
     <defs>
      <path d="M 9.8125 72.90625 
L 24.515625 72.90625 
L 43.109375 23.296875 
L 61.8125 72.90625 
L 76.515625 72.90625 
L 76.515625 0 
L 66.890625 0 
L 66.890625 64.015625 
L 48.09375 14.015625 
L 38.1875 14.015625 
L 19.390625 64.015625 
L 19.390625 0 
L 9.8125 0 
z
" id="DejaVuSans-77"/>
      <path d="M 8.5 21.578125 
L 8.5 54.6875 
L 17.484375 54.6875 
L 17.484375 21.921875 
Q 17.484375 14.15625 20.5 10.265625 
Q 23.53125 6.390625 29.59375 6.390625 
Q 36.859375 6.390625 41.078125 11.03125 
Q 45.3125 15.671875 45.3125 23.6875 
L 45.3125 54.6875 
L 54.296875 54.6875 
L 54.296875 0 
L 45.3125 0 
L 45.3125 8.40625 
Q 42.046875 3.421875 37.71875 1 
Q 33.40625 -1.421875 27.6875 -1.421875 
Q 18.265625 -1.421875 13.375 4.4375 
Q 8.5 10.296875 8.5 21.578125 
z
M 31.109375 56 
z
" id="DejaVuSans-117"/>
      <path d="M 56.203125 29.59375 
L 56.203125 25.203125 
L 14.890625 25.203125 
Q 15.484375 15.921875 20.484375 11.0625 
Q 25.484375 6.203125 34.421875 6.203125 
Q 39.59375 6.203125 44.453125 7.46875 
Q 49.3125 8.734375 54.109375 11.28125 
L 54.109375 2.78125 
Q 49.265625 0.734375 44.1875 -0.34375 
Q 39.109375 -1.421875 33.890625 -1.421875 
Q 20.796875 -1.421875 13.15625 6.1875 
Q 5.515625 13.8125 5.515625 26.8125 
Q 5.515625 40.234375 12.765625 48.109375 
Q 20.015625 56 32.328125 56 
Q 43.359375 56 49.78125 48.890625 
Q 56.203125 41.796875 56.203125 29.59375 
z
M 47.21875 32.234375 
Q 47.125 39.59375 43.09375 43.984375 
Q 39.0625 48.390625 32.421875 48.390625 
Q 24.90625 48.390625 20.390625 44.140625 
Q 15.875 39.890625 15.1875 32.171875 
z
" id="DejaVuSans-101"/>
      <path d="M 44.28125 53.078125 
L 44.28125 44.578125 
Q 40.484375 46.53125 36.375 47.5 
Q 32.28125 48.484375 27.875 48.484375 
Q 21.1875 48.484375 17.84375 46.4375 
Q 14.5 44.390625 14.5 40.28125 
Q 14.5 37.15625 16.890625 35.375 
Q 19.28125 33.59375 26.515625 31.984375 
L 29.59375 31.296875 
Q 39.15625 29.25 43.1875 25.515625 
Q 47.21875 21.78125 47.21875 15.09375 
Q 47.21875 7.46875 41.1875 3.015625 
Q 35.15625 -1.421875 24.609375 -1.421875 
Q 20.21875 -1.421875 15.453125 -0.5625 
Q 10.6875 0.296875 5.421875 2 
L 5.421875 11.28125 
Q 10.40625 8.6875 15.234375 7.390625 
Q 20.0625 6.109375 24.8125 6.109375 
Q 31.15625 6.109375 34.5625 8.28125 
Q 37.984375 10.453125 37.984375 14.40625 
Q 37.984375 18.0625 35.515625 20.015625 
Q 33.0625 21.96875 24.703125 23.78125 
L 21.578125 24.515625 
Q 13.234375 26.265625 9.515625 29.90625 
Q 5.8125 33.546875 5.8125 39.890625 
Q 5.8125 47.609375 11.28125 51.796875 
Q 16.75 56 26.8125 56 
Q 31.78125 56 36.171875 55.265625 
Q 40.578125 54.546875 44.28125 53.078125 
z
" id="DejaVuSans-115"/>
      <path d="M 18.3125 70.21875 
L 18.3125 54.6875 
L 36.8125 54.6875 
L 36.8125 47.703125 
L 18.3125 47.703125 
L 18.3125 18.015625 
Q 18.3125 11.328125 20.140625 9.421875 
Q 21.96875 7.515625 27.59375 7.515625 
L 36.8125 7.515625 
L 36.8125 0 
L 27.59375 0 
Q 17.1875 0 13.234375 3.875 
Q 9.28125 7.765625 9.28125 18.015625 
L 9.28125 47.703125 
L 2.6875 47.703125 
L 2.6875 54.6875 
L 9.28125 54.6875 
L 9.28125 70.21875 
z
" id="DejaVuSans-116"/>
      <path d="M 41.109375 46.296875 
Q 39.59375 47.171875 37.8125 47.578125 
Q 36.03125 48 33.890625 48 
Q 26.265625 48 22.1875 43.046875 
Q 18.109375 38.09375 18.109375 28.8125 
L 18.109375 0 
L 9.078125 0 
L 9.078125 54.6875 
L 18.109375 54.6875 
L 18.109375 46.1875 
Q 20.953125 51.171875 25.484375 53.578125 
Q 30.03125 56 36.53125 56 
Q 37.453125 56 38.578125 55.875 
Q 39.703125 55.765625 41.0625 55.515625 
z
" id="DejaVuSans-114"/>
      <path d="M 34.28125 27.484375 
Q 23.390625 27.484375 19.1875 25 
Q 14.984375 22.515625 14.984375 16.5 
Q 14.984375 11.71875 18.140625 8.90625 
Q 21.296875 6.109375 26.703125 6.109375 
Q 34.1875 6.109375 38.703125 11.40625 
Q 43.21875 16.703125 43.21875 25.484375 
L 43.21875 27.484375 
z
M 52.203125 31.203125 
L 52.203125 0 
L 43.21875 0 
L 43.21875 8.296875 
Q 40.140625 3.328125 35.546875 0.953125 
Q 30.953125 -1.421875 24.3125 -1.421875 
Q 15.921875 -1.421875 10.953125 3.296875 
Q 6 8.015625 6 15.921875 
Q 6 25.140625 12.171875 29.828125 
Q 18.359375 34.515625 30.609375 34.515625 
L 43.21875 34.515625 
L 43.21875 35.40625 
Q 43.21875 41.609375 39.140625 45 
Q 35.0625 48.390625 27.6875 48.390625 
Q 23 48.390625 18.546875 47.265625 
Q 14.109375 46.140625 10.015625 43.890625 
L 10.015625 52.203125 
Q 14.9375 54.109375 19.578125 55.046875 
Q 24.21875 56 28.609375 56 
Q 40.484375 56 46.34375 49.84375 
Q 52.203125 43.703125 52.203125 31.203125 
z
" id="DejaVuSans-97"/>
     </defs>
     <g transform="translate(213.311562 334.578963)scale(0.1 -0.1)">
      <use xlink:href="#DejaVuSans-77"/>
      <use x="86.279297" xlink:href="#DejaVuSans-117"/>
      <use x="149.658203" xlink:href="#DejaVuSans-101"/>
      <use x="211.181641" xlink:href="#DejaVuSans-115"/>
      <use x="263.28125" xlink:href="#DejaVuSans-116"/>
      <use x="302.490234" xlink:href="#DejaVuSans-114"/>
      <use x="343.603516" xlink:href="#DejaVuSans-97"/>
      <use x="404.882812" xlink:href="#DejaVuSans-115"/>
     </g>
    </g>
   </g>
   <g id="matplotlib.axis_2">
    <g id="ytick_1">
     <g id="line2d_8">
      <defs>
       <path d="M 0 0 
L -3.5 0 
" id="med08190b34" style="stroke:#000000;stroke-width:0.8;"/>
      </defs>
      <g>
       <use style="stroke:#000000;stroke-width:0.8;" x="57.6" xlink:href="#med08190b34" y="287.753135"/>
      </g>
     </g>
     <g id="text_9">
      <!-- 60 -->
      <g transform="translate(37.875 291.552354)scale(0.1 -0.1)">
       <use xlink:href="#DejaVuSans-54"/>
       <use x="63.623047" xlink:href="#DejaVuSans-48"/>
      </g>
     </g>
    </g>
    <g id="ytick_2">
     <g id="line2d_9">
      <g>
       <use style="stroke:#000000;stroke-width:0.8;" x="57.6" xlink:href="#med08190b34" y="255.234812"/>
      </g>
     </g>
     <g id="text_10">
      <!-- 80 -->
      <g transform="translate(37.875 259.03403)scale(0.1 -0.1)">
       <use xlink:href="#DejaVuSans-56"/>
       <use x="63.623047" xlink:href="#DejaVuSans-48"/>
      </g>
     </g>
    </g>
    <g id="ytick_3">
     <g id="line2d_10">
      <g>
       <use style="stroke:#000000;stroke-width:0.8;" x="57.6" xlink:href="#med08190b34" y="222.716488"/>
      </g>
     </g>
     <g id="text_11">
      <!-- 100 -->
      <g transform="translate(31.5125 226.515707)scale(0.1 -0.1)">
       <use xlink:href="#DejaVuSans-49"/>
       <use x="63.623047" xlink:href="#DejaVuSans-48"/>
       <use x="127.246094" xlink:href="#DejaVuSans-48"/>
      </g>
     </g>
    </g>
    <g id="ytick_4">
     <g id="line2d_11">
      <g>
       <use style="stroke:#000000;stroke-width:0.8;" x="57.6" xlink:href="#med08190b34" y="190.198165"/>
      </g>
     </g>
     <g id="text_12">
      <!-- 120 -->
      <g transform="translate(31.5125 193.997383)scale(0.1 -0.1)">
       <use xlink:href="#DejaVuSans-49"/>
       <use x="63.623047" xlink:href="#DejaVuSans-50"/>
       <use x="127.246094" xlink:href="#DejaVuSans-48"/>
      </g>
     </g>
    </g>
    <g id="ytick_5">
     <g id="line2d_12">
      <g>
       <use style="stroke:#000000;stroke-width:0.8;" x="57.6" xlink:href="#med08190b34" y="157.679841"/>
      </g>
     </g>
     <g id="text_13">
      <!-- 140 -->
      <g transform="translate(31.5125 161.47906)scale(0.1 -0.1)">
       <use xlink:href="#DejaVuSans-49"/>
       <use x="63.623047" xlink:href="#DejaVuSans-52"/>
       <use x="127.246094" xlink:href="#DejaVuSans-48"/>
      </g>
     </g>
    </g>
    <g id="ytick_6">
     <g id="line2d_13">
      <g>
       <use style="stroke:#000000;stroke-width:0.8;" x="57.6" xlink:href="#med08190b34" y="125.161518"/>
      </g>
     </g>
     <g id="text_14">
      <!-- 160 -->
      <g transform="translate(31.5125 128.960736)scale(0.1 -0.1)">
       <use xlink:href="#DejaVuSans-49"/>
       <use x="63.623047" xlink:href="#DejaVuSans-54"/>
       <use x="127.246094" xlink:href="#DejaVuSans-48"/>
      </g>
     </g>
    </g>
    <g id="ytick_7">
     <g id="line2d_14">
      <g>
       <use style="stroke:#000000;stroke-width:0.8;" x="57.6" xlink:href="#med08190b34" y="92.643194"/>
      </g>
     </g>
     <g id="text_15">
      <!-- 180 -->
      <g transform="translate(31.5125 96.442413)scale(0.1 -0.1)">
       <use xlink:href="#DejaVuSans-49"/>
       <use x="63.623047" xlink:href="#DejaVuSans-56"/>
       <use x="127.246094" xlink:href="#DejaVuSans-48"/>
      </g>
     </g>
    </g>
    <g id="ytick_8">
     <g id="line2d_15">
      <g>
       <use style="stroke:#000000;stroke-width:0.8;" x="57.6" xlink:href="#med08190b34" y="60.12487"/>
      </g>
     </g>
     <g id="text_16">
      <!-- 200 -->
      <g transform="translate(31.5125 63.924089)scale(0.1 -0.1)">
       <use xlink:href="#DejaVuSans-50"/>
       <use x="63.623047" xlink:href="#DejaVuSans-48"/>
       <use x="127.246094" xlink:href="#DejaVuSans-48"/>
      </g>
     </g>
    </g>
    <g id="text_17">
     <!-- Valor de Ritmo Cardíaco -->
     <defs>
      <path d="M 28.609375 0 
L 0.78125 72.90625 
L 11.078125 72.90625 
L 34.1875 11.53125 
L 57.328125 72.90625 
L 67.578125 72.90625 
L 39.796875 0 
z
" id="DejaVuSans-86"/>
      <path d="M 9.421875 75.984375 
L 18.40625 75.984375 
L 18.40625 0 
L 9.421875 0 
z
" id="DejaVuSans-108"/>
      <path d="M 30.609375 48.390625 
Q 23.390625 48.390625 19.1875 42.75 
Q 14.984375 37.109375 14.984375 27.296875 
Q 14.984375 17.484375 19.15625 11.84375 
Q 23.34375 6.203125 30.609375 6.203125 
Q 37.796875 6.203125 41.984375 11.859375 
Q 46.1875 17.53125 46.1875 27.296875 
Q 46.1875 37.015625 41.984375 42.703125 
Q 37.796875 48.390625 30.609375 48.390625 
z
M 30.609375 56 
Q 42.328125 56 49.015625 48.375 
Q 55.71875 40.765625 55.71875 27.296875 
Q 55.71875 13.875 49.015625 6.21875 
Q 42.328125 -1.421875 30.609375 -1.421875 
Q 18.84375 -1.421875 12.171875 6.21875 
Q 5.515625 13.875 5.515625 27.296875 
Q 5.515625 40.765625 12.171875 48.375 
Q 18.84375 56 30.609375 56 
z
" id="DejaVuSans-111"/>
      <path id="DejaVuSans-32"/>
      <path d="M 45.40625 46.390625 
L 45.40625 75.984375 
L 54.390625 75.984375 
L 54.390625 0 
L 45.40625 0 
L 45.40625 8.203125 
Q 42.578125 3.328125 38.25 0.953125 
Q 33.9375 -1.421875 27.875 -1.421875 
Q 17.96875 -1.421875 11.734375 6.484375 
Q 5.515625 14.40625 5.515625 27.296875 
Q 5.515625 40.1875 11.734375 48.09375 
Q 17.96875 56 27.875 56 
Q 33.9375 56 38.25 53.625 
Q 42.578125 51.265625 45.40625 46.390625 
z
M 14.796875 27.296875 
Q 14.796875 17.390625 18.875 11.75 
Q 22.953125 6.109375 30.078125 6.109375 
Q 37.203125 6.109375 41.296875 11.75 
Q 45.40625 17.390625 45.40625 27.296875 
Q 45.40625 37.203125 41.296875 42.84375 
Q 37.203125 48.484375 30.078125 48.484375 
Q 22.953125 48.484375 18.875 42.84375 
Q 14.796875 37.203125 14.796875 27.296875 
z
" id="DejaVuSans-100"/>
      <path d="M 44.390625 34.1875 
Q 47.5625 33.109375 50.5625 29.59375 
Q 53.5625 26.078125 56.59375 19.921875 
L 66.609375 0 
L 56 0 
L 46.6875 18.703125 
Q 43.0625 26.03125 39.671875 28.421875 
Q 36.28125 30.8125 30.421875 30.8125 
L 19.671875 30.8125 
L 19.671875 0 
L 9.8125 0 
L 9.8125 72.90625 
L 32.078125 72.90625 
Q 44.578125 72.90625 50.734375 67.671875 
Q 56.890625 62.453125 56.890625 51.90625 
Q 56.890625 45.015625 53.6875 40.46875 
Q 50.484375 35.9375 44.390625 34.1875 
z
M 19.671875 64.796875 
L 19.671875 38.921875 
L 32.078125 38.921875 
Q 39.203125 38.921875 42.84375 42.21875 
Q 46.484375 45.515625 46.484375 51.90625 
Q 46.484375 58.296875 42.84375 61.546875 
Q 39.203125 64.796875 32.078125 64.796875 
z
" id="DejaVuSans-82"/>
      <path d="M 9.421875 54.6875 
L 18.40625 54.6875 
L 18.40625 0 
L 9.421875 0 
z
M 9.421875 75.984375 
L 18.40625 75.984375 
L 18.40625 64.59375 
L 9.421875 64.59375 
z
" id="DejaVuSans-105"/>
      <path d="M 52 44.1875 
Q 55.375 50.25 60.0625 53.125 
Q 64.75 56 71.09375 56 
Q 79.640625 56 84.28125 50.015625 
Q 88.921875 44.046875 88.921875 33.015625 
L 88.921875 0 
L 79.890625 0 
L 79.890625 32.71875 
Q 79.890625 40.578125 77.09375 44.375 
Q 74.3125 48.1875 68.609375 48.1875 
Q 61.625 48.1875 57.5625 43.546875 
Q 53.515625 38.921875 53.515625 30.90625 
L 53.515625 0 
L 44.484375 0 
L 44.484375 32.71875 
Q 44.484375 40.625 41.703125 44.40625 
Q 38.921875 48.1875 33.109375 48.1875 
Q 26.21875 48.1875 22.15625 43.53125 
Q 18.109375 38.875 18.109375 30.90625 
L 18.109375 0 
L 9.078125 0 
L 9.078125 54.6875 
L 18.109375 54.6875 
L 18.109375 46.1875 
Q 21.1875 51.21875 25.484375 53.609375 
Q 29.78125 56 35.6875 56 
Q 41.65625 56 45.828125 52.96875 
Q 50 49.953125 52 44.1875 
z
" id="DejaVuSans-109"/>
      <path d="M 64.40625 67.28125 
L 64.40625 56.890625 
Q 59.421875 61.53125 53.78125 63.8125 
Q 48.140625 66.109375 41.796875 66.109375 
Q 29.296875 66.109375 22.65625 58.46875 
Q 16.015625 50.828125 16.015625 36.375 
Q 16.015625 21.96875 22.65625 14.328125 
Q 29.296875 6.6875 41.796875 6.6875 
Q 48.140625 6.6875 53.78125 8.984375 
Q 59.421875 11.28125 64.40625 15.921875 
L 64.40625 5.609375 
Q 59.234375 2.09375 53.4375 0.328125 
Q 47.65625 -1.421875 41.21875 -1.421875 
Q 24.65625 -1.421875 15.125 8.703125 
Q 5.609375 18.84375 5.609375 36.375 
Q 5.609375 53.953125 15.125 64.078125 
Q 24.65625 74.21875 41.21875 74.21875 
Q 47.75 74.21875 53.53125 72.484375 
Q 59.328125 70.75 64.40625 67.28125 
z
" id="DejaVuSans-67"/>
      <path d="M 20.703125 79.984375 
L 30.421875 79.984375 
L 14.5 61.625 
L 7.03125 61.625 
z
M 9.421875 54.6875 
L 18.40625 54.6875 
L 18.40625 0 
L 9.421875 0 
z
M 13.921875 56 
z
" id="DejaVuSans-237"/>
      <path d="M 48.78125 52.59375 
L 48.78125 44.1875 
Q 44.96875 46.296875 41.140625 47.34375 
Q 37.3125 48.390625 33.40625 48.390625 
Q 24.65625 48.390625 19.8125 42.84375 
Q 14.984375 37.3125 14.984375 27.296875 
Q 14.984375 17.28125 19.8125 11.734375 
Q 24.65625 6.203125 33.40625 6.203125 
Q 37.3125 6.203125 41.140625 7.25 
Q 44.96875 8.296875 48.78125 10.40625 
L 48.78125 2.09375 
Q 45.015625 0.34375 40.984375 -0.53125 
Q 36.96875 -1.421875 32.421875 -1.421875 
Q 20.0625 -1.421875 12.78125 6.34375 
Q 5.515625 14.109375 5.515625 27.296875 
Q 5.515625 40.671875 12.859375 48.328125 
Q 20.21875 56 33.015625 56 
Q 37.15625 56 41.109375 55.140625 
Q 45.0625 54.296875 48.78125 52.59375 
z
" id="DejaVuSans-99"/>
     </defs>
     <g transform="translate(25.432812 234.6008)rotate(-90)scale(0.1 -0.1)">
      <use xlink:href="#DejaVuSans-86"/>
      <use x="68.298828" xlink:href="#DejaVuSans-97"/>
      <use x="129.578125" xlink:href="#DejaVuSans-108"/>
      <use x="157.361328" xlink:href="#DejaVuSans-111"/>
      <use x="218.542969" xlink:href="#DejaVuSans-114"/>
      <use x="259.65625" xlink:href="#DejaVuSans-32"/>
      <use x="291.443359" xlink:href="#DejaVuSans-100"/>
      <use x="354.919922" xlink:href="#DejaVuSans-101"/>
      <use x="416.443359" xlink:href="#DejaVuSans-32"/>
      <use x="448.230469" xlink:href="#DejaVuSans-82"/>
      <use x="517.712891" xlink:href="#DejaVuSans-105"/>
      <use x="545.496094" xlink:href="#DejaVuSans-116"/>
      <use x="584.705078" xlink:href="#DejaVuSans-109"/>
      <use x="682.117188" xlink:href="#DejaVuSans-111"/>
      <use x="743.298828" xlink:href="#DejaVuSans-32"/>
      <use x="775.085938" xlink:href="#DejaVuSans-67"/>
      <use x="844.910156" xlink:href="#DejaVuSans-97"/>
      <use x="906.189453" xlink:href="#DejaVuSans-114"/>
      <use x="947.287109" xlink:href="#DejaVuSans-100"/>
      <use x="1010.763672" xlink:href="#DejaVuSans-237"/>
      <use x="1038.546875" xlink:href="#DejaVuSans-97"/>
      <use x="1099.826172" xlink:href="#DejaVuSans-99"/>
      <use x="1154.806641" xlink:href="#DejaVuSans-111"/>
     </g>
    </g>
   </g>
   <g id="line2d_16">
    <path clip-path="url(#pbf1548e6ae)" d="M 73.832727 292.094331 
L 73.857737 294.2568 
L 74.057817 247.641783 
L 74.307917 226.260985 
L 74.432967 222.472601 
L 74.457977 224.635069 
L 74.558017 231.659027 
L 74.608037 229.740446 
L 74.883146 223.724556 
L 75.283306 212.39192 
L 75.533406 200.636547 
L 75.908556 191.287528 
L 76.033605 180.97922 
L 76.233685 172.768343 
L 76.508795 166.297197 
L 76.608835 165.679349 
L 76.633845 165.972014 
L 77.209075 173.402451 
L 77.359134 177.629833 
L 78.309514 233.15487 
L 78.784703 246.487383 
L 78.959773 249.462809 
L 79.034803 249.592883 
L 79.234883 247.918189 
L 79.434963 244.146063 
L 79.459973 244.422469 
L 79.610033 245.75572 
L 79.635043 245.528092 
L 79.860132 243.609511 
L 80.160252 237.707435 
L 80.285302 234.471862 
L 80.710472 220.310132 
L 80.735482 220.326391 
L 80.935561 222.228713 
L 80.960571 221.529569 
L 81.335721 211.286297 
L 81.360731 211.709036 
L 81.485781 212.310625 
L 81.735881 210.977373 
L 81.810911 211.091188 
L 82.010991 212.473216 
L 82.036001 212.310625 
L 82.31111 209.822973 
L 82.5362 207.595468 
L 82.58622 207.676764 
L 82.68626 207.725541 
L 82.86133 206.945101 
L 82.88634 206.294735 
L 82.93636 207.465394 
L 83.06141 208.814905 
L 83.411549 215.643753 
L 84.361929 234.423085 
L 84.486979 235.691299 
L 84.536999 235.918928 
L 84.612028 235.853891 
L 84.712068 235.886409 
L 85.112228 233.967828 
L 85.487378 232.276875 
L 85.587418 232.309394 
L 85.662448 231.98421 
L 85.812508 231.122475 
L 85.887537 231.252548 
L 86.012587 231.707805 
L 86.162647 232.309394 
L 86.187657 232.17932 
L 86.212667 232.016729 
L 86.237677 232.19558 
L 86.312707 233.854014 
L 86.712867 244.910244 
L 86.912947 238.406579 
L 87.838316 204.018452 
L 88.213466 184.458681 
L 88.238476 184.718827 
L 88.338515 188.523471 
L 88.863725 215.611235 
L 89.664044 247.804375 
L 89.764084 247.674302 
L 89.789094 247.723079 
L 90.289294 232.260616 
L 90.864523 212.749622 
L 91.064603 209.432753 
L 91.439753 205.205371 
L 91.464763 205.237889 
L 91.514783 205.61185 
L 91.539793 205.514295 
L 91.614823 204.668819 
L 91.664843 204.880188 
L 91.739873 205.563073 
L 92.215062 214.310502 
L 92.315102 214.14791 
L 92.465162 213.985318 
L 92.490172 213.887763 
L 92.515182 214.14791 
L 92.665242 217.107077 
L 92.990372 223.122967 
L 93.165442 224.049739 
L 93.190451 223.968444 
L 93.340511 223.610742 
L 93.365521 223.64326 
L 93.390531 223.773334 
L 93.865721 206.945101 
L 93.890731 207.026397 
L 93.990771 207.075175 
L 94.66604 200.76662 
L 94.69105 200.815397 
L 94.89113 200.799138 
L 95.36632 216.131528 
L 95.54139 218.2127 
L 95.59141 217.83874 
L 95.691449 216.342897 
L 95.991569 208.32713 
L 96.966958 156.834365 
L 97.442148 131.632664 
L 97.767278 123.1779 
L 97.817298 122.917753 
L 97.867318 123.161641 
L 97.942348 123.340491 
L 97.967358 123.242936 
L 97.992368 123.129122 
L 98.017378 123.259196 
L 98.242467 128.624719 
L 98.717657 153.371163 
L 99.292887 178.930566 
L 99.517976 182.52384 
L 99.542986 182.361249 
L 100.043186 176.085212 
L 100.118216 176.296581 
L 100.493366 180.816628 
L 101.193645 198.864298 
L 101.818894 212.554512 
L 101.993964 209.67664 
L 102.494164 199.303295 
L 102.719254 197.921266 
L 102.869314 198.132636 
L 102.894324 198.05134 
L 103.044383 197.059531 
L 103.269473 195.238505 
L 103.369513 196.913198 
L 103.794683 211.205002 
L 104.194843 223.561965 
L 104.219853 223.610742 
L 104.244862 223.578224 
L 104.494962 222.147418 
L 104.544982 222.440082 
L 104.820092 223.822111 
L 104.895122 223.935925 
L 104.920132 223.903407 
L 104.995162 223.529446 
L 105.045182 223.740815 
L 105.220252 224.374923 
L 105.245262 224.261109 
L 105.345302 224.147294 
L 105.395322 224.22859 
L 105.470351 224.635069 
L 105.495361 224.212331 
L 105.620411 222.342527 
L 105.670431 222.830302 
L 106.145621 227.708051 
L 106.245661 227.643014 
L 106.345701 227.236535 
L 106.420731 227.399127 
L 106.495761 227.708051 
L 106.545781 227.675533 
L 106.670831 226.456095 
L 106.89592 222.960376 
L 107.971349 199.465887 
L 108.371509 196.083981 
L 108.471549 195.856353 
L 108.496559 195.937649 
L 108.671629 197.514787 
L 108.946739 199.384591 
L 109.021769 199.108185 
L 109.121809 198.376523 
L 109.246858 198.165154 
L 109.421928 197.888748 
L 109.471948 198.035081 
L 109.596998 199.173222 
L 110.047178 204.750114 
L 110.722447 217.107077 
L 110.922527 217.789962 
L 110.947537 217.676148 
L 111.047577 217.139596 
L 111.122607 217.318446 
L 111.147617 217.350965 
L 111.197637 217.269669 
L 111.422727 216.164046 
L 112.348096 204.294858 
L 112.423126 204.148525 
L 112.448136 204.229821 
L 112.798276 206.863805 
L 112.998355 209.839232 
L 113.123405 211.546444 
L 113.173425 211.205002 
L 113.273465 210.327007 
L 113.298475 210.879818 
L 113.673625 220.440206 
L 113.973745 227.643014 
L 114.198834 229.626632 
L 114.548974 224.309886 
L 114.598994 223.65952 
L 114.649014 223.984703 
L 114.774064 225.724433 
L 114.899114 225.513064 
L 114.999154 225.431768 
L 115.024164 225.480546 
L 115.174224 225.968321 
L 115.224244 225.773211 
L 115.449333 224.098517 
L 115.699433 221.448274 
L 115.724443 221.90353 
L 116.049573 225.561842 
L 116.074583 225.675656 
L 116.149613 225.561842 
L 116.324683 224.700106 
L 116.649812 220.245096 
L 117.024962 195.563688 
L 117.900311 104.593678 
L 118.400511 62.157266 
L 118.675621 53.816316 
L 118.700631 53.3448 
L 118.775661 53.621206 
L 118.850691 53.53991 
L 119.15081 59.441986 
L 119.50095 63.701886 
L 119.65101 66.498462 
L 120.351289 79.635865 
L 120.401309 79.473273 
L 120.501349 78.465205 
L 120.701429 77.148213 
L 120.826479 78.741611 
L 121.151609 89.960432 
L 122.126998 131.470072 
L 122.302068 132.965915 
L 122.327078 133.047211 
L 122.377098 132.884619 
L 122.552168 129.226308 
L 122.977337 116.983159 
L 123.377497 111.259934 
L 123.577577 109.6015 
L 123.677617 109.715314 
L 123.777657 110.495754 
L 124.377896 121.665798 
L 124.602986 123.74697 
L 124.627996 123.405528 
L 124.778056 120.365065 
L 125.203225 109.227539 
L 125.253245 109.390131 
L 125.328275 109.146243 
L 125.353285 109.227539 
L 125.378295 109.422649 
L 125.603385 119.747217 
L 125.678415 245.804498 
L 125.728435 242.698998 
L 125.853485 238.569171 
L 125.903505 238.861836 
L 125.953525 240.699121 
L 126.278655 251.430168 
L 126.503744 258.486644 
L 126.578774 257.966351 
L 126.778854 257.088356 
L 126.803864 257.185911 
L 127.053964 258.275275 
L 127.078974 261.331997 
L 127.179014 260.356448 
L 127.379094 266.404856 
L 127.804263 274.778324 
L 127.854283 275.152285 
L 127.879293 274.794583 
L 127.954323 273.68896 
L 128.029353 273.932848 
L 128.329473 275.64006 
L 128.504543 276.046539 
L 128.529553 276.241649 
L 128.604583 276.095316 
L 128.754643 275.607541 
L 128.804662 275.233581 
L 129.154802 265.104123 
L 129.604982 251.413909 
L 129.655002 250.22699 
L 130.580371 211.952923 
L 130.880491 199.677256 
L 130.930511 200.165031 
L 131.205621 205.124075 
L 131.4057 211.448889 
L 131.45572 211.302557 
L 131.50574 211.383852 
L 131.53075 211.286297 
L 131.6558 210.392044 
L 131.68081 210.8473 
L 132.156 225.935802 
L 132.38109 231.463917 
L 132.4061 230.732255 
L 132.731229 215.31857 
L 132.981329 208.375908 
L 133.031349 208.034465 
L 133.131389 208.050724 
L 133.181409 208.245834 
L 133.231429 208.050724 
L 133.406499 207.758059 
L 133.431509 207.790578 
L 134.056758 220.92798 
L 134.431908 230.325776 
L 134.556958 231.691545 
L 134.606978 231.626509 
L 134.807058 231.366362 
L 134.832068 231.382621 
L 134.932107 231.951692 
L 134.957117 231.740323 
L 135.132187 229.919297 
L 135.182207 229.756705 
L 135.232227 229.919297 
L 135.357277 230.228221 
L 135.407297 230.114407 
L 135.457317 229.333967 
L 135.882487 213.773949 
L 136.107577 207.709282 
L 136.182606 207.384099 
L 136.432706 203.28679 
L 136.707816 191.222492 
L 137.157996 176.491691 
L 137.208016 176.345359 
L 137.233026 176.540469 
L 137.558155 179.272008 
L 137.583165 178.898047 
L 137.658195 179.190712 
L 137.958315 188.409657 
L 138.283445 203.969675 
L 139.208814 240.406456 
L 140.109173 253.33249 
L 140.134183 253.365008 
L 140.159193 253.251194 
L 140.309253 252.958529 
L 140.334263 253.007307 
L 140.434303 253.234935 
L 140.459313 253.153639 
L 140.509333 253.202417 
L 140.709413 251.218799 
L 140.884483 247.397896 
L 141.784842 207.237766 
L 142.360071 201.091803 
L 142.735221 215.367347 
L 143.485521 253.007307 
L 143.56055 253.202417 
L 143.6856 253.413786 
L 144.06075 254.698259 
L 144.28584 255.917697 
L 144.33586 255.690068 
L 144.58596 252.031757 
L 144.961109 242.227482 
L 145.036139 243.007922 
L 145.236219 245.609388 
L 145.636379 254.177966 
L 145.711409 253.33249 
L 145.886479 250.926134 
L 145.961508 251.251317 
L 146.111568 251.706574 
L 146.161588 251.527723 
L 146.811848 244.503765 
L 147.161988 236.26037 
L 147.212007 236.487998 
L 147.512127 237.723695 
L 147.687197 241.008045 
L 148.187397 251.706574 
L 148.762626 262.583953 
L 148.862666 263.039209 
L 148.887676 262.746544 
L 149.137776 257.185911 
L 149.537936 248.617333 
L 149.788035 244.129804 
L 150.488315 205.530554 
L 150.838455 192.880926 
L 151.263624 172.475678 
L 151.388674 173.939003 
L 151.588754 176.491691 
L 151.988914 188.92995 
L 152.289033 199.026889 
L 153.489512 249.186404 
L 153.639572 250.389582 
L 153.689592 250.194472 
L 153.714602 250.145694 
L 153.739612 250.308286 
L 153.914682 251.365131 
L 153.939692 251.20254 
L 154.089752 250.161953 
L 154.114762 250.194472 
L 154.339852 252.877233 
L 154.539932 254.665741 
L 154.564941 254.714519 
L 154.589951 254.551927 
L 154.815041 251.739092 
L 155.365261 241.853522 
L 156.61576 208.278353 
L 157.165979 203.416863 
L 157.341049 201.872243 
L 157.566139 201.043026 
L 157.591149 201.059285 
L 157.666179 201.205617 
L 159.166778 264.144832 
L 159.241808 263.965982 
L 159.466897 263.526984 
L 159.716997 262.388843 
L 159.817037 261.575885 
L 160.117157 258.698013 
L 160.317237 257.543613 
L 160.342247 257.348503 
L 160.392267 257.673686 
L 160.642367 259.429675 
L 160.692386 259.868673 
L 160.742406 259.494712 
L 161.317636 252.877233 
L 161.342646 252.909752 
L 161.467696 253.251194 
L 161.492706 253.121121 
L 161.742806 250.568432 
L 162.217995 242.390074 
L 162.243005 242.438851 
L 162.418075 244.942762 
L 162.518115 245.75572 
L 162.543125 245.641906 
L 163.168374 240.065014 
L 163.243404 240.975527 
L 163.868654 249.462809 
L 164.093744 252.503273 
L 164.218794 253.966597 
L 164.268814 253.90156 
L 164.318834 253.852783 
L 164.343844 253.934079 
L 164.418873 254.29178 
L 164.668973 256.860728 
L 164.693983 256.340435 
L 164.894063 254.470631 
L 165.044123 253.153639 
L 165.394263 245.837016 
L 165.794422 230.715996 
L 166.319632 216.586784 
L 166.869851 199.303295 
L 166.894861 198.896816 
L 166.944881 199.872366 
L 167.144961 202.441313 
L 167.194981 202.229944 
L 167.270011 202.148649 
L 167.420071 200.230067 
L 167.520111 200.392659 
L 167.570131 200.555251 
L 168.09534 191.824081 
L 168.39546 187.873105 
L 168.72059 183.174207 
L 168.77061 182.71895 
L 168.84564 182.91406 
L 168.92067 183.564427 
L 168.94568 183.255503 
L 169.07073 182.068584 
L 169.12075 182.556359 
L 169.645959 191.368824 
L 170.021109 198.539115 
L 170.296219 200.717842 
L 170.646358 204.620041 
L 171.046518 213.091064 
L 171.146558 212.928473 
L 171.171568 212.912214 
L 171.196578 212.960991 
L 171.296618 213.156101 
L 171.321628 213.123583 
L 171.396658 212.717104 
L 171.471688 212.928473 
L 171.546718 213.416248 
L 171.821827 218.001331 
L 172.121947 224.504996 
L 172.171967 224.504996 
L 172.221987 224.342404 
L 172.272007 224.456219 
L 172.347037 224.716365 
L 172.447077 225.431768 
L 172.497097 225.39925 
L 172.547117 225.480546 
L 173.297416 235.040933 
L 173.322426 235.398634 
L 173.397456 234.992155 
L 173.497496 234.179197 
L 173.572526 234.374307 
L 173.797616 236.097778 
L 173.822626 236.016483 
L 173.947676 234.471862 
L 173.997696 234.69949 
L 174.322825 236.910736 
L 174.397855 236.829441 
L 174.422865 236.813181 
L 174.572925 238.943132 
L 175.098135 246.812566 
L 175.373245 252.031757 
L 175.498294 253.283712 
L 175.523304 253.169898 
L 175.623344 252.763419 
L 175.748394 251.462686 
L 176.148554 245.77198 
L 176.198574 245.934571 
L 176.323624 246.487383 
L 176.373644 246.34105 
L 176.548714 245.235427 
L 176.748793 243.642029 
L 176.773803 243.804621 
L 177.374043 254.259262 
L 177.574123 256.893246 
L 177.699173 255.511217 
L 177.824223 253.885301 
L 177.874242 254.145448 
L 178.274402 256.535545 
L 178.299412 256.259139 
L 178.374442 255.283589 
L 178.524502 253.413786 
L 178.574522 253.804006 
L 178.774602 255.023443 
L 178.874642 255.316108 
L 179.324821 258.210238 
L 179.374841 258.291534 
L 179.424861 258.210238 
L 179.449871 258.210238 
L 179.549911 259.023196 
L 179.649951 259.657304 
L 179.699971 259.592267 
L 179.749991 259.380898 
L 179.950071 258.324052 
L 180.000091 258.275275 
L 180.250191 256.324176 
L 180.55031 253.608896 
L 180.62534 253.088602 
L 180.70037 253.234935 
L 180.82542 253.495081 
L 180.85043 253.365008 
L 181.07552 252.421977 
L 181.700769 258.56794 
L 181.925859 260.063783 
L 182.100929 261.28322 
L 182.150949 260.974296 
L 182.275999 260.30767 
L 182.326019 260.388966 
L 182.376039 260.519039 
L 182.751189 262.63273 
L 182.851228 262.551435 
L 182.926258 262.43762 
L 182.976278 262.925395 
L 183.051308 262.746544 
L 183.101328 262.681508 
L 183.501488 256.942024 
L 183.926658 247.755597 
L 183.951668 247.788116 
L 183.976678 247.869411 
L 184.026697 247.674302 
L 184.251787 245.885794 
L 184.301807 245.918312 
L 184.451867 247.51171 
L 184.476877 246.780048 
L 184.576917 244.097286 
L 184.802007 237.918804 
L 184.952067 237.23592 
L 185.052107 237.300956 
L 185.177157 236.26037 
L 185.427256 243.089218 
L 185.477276 242.438851 
L 185.877436 237.479807 
L 186.027496 234.878341 
L 186.252586 239.268315 
L 186.277596 238.650467 
L 186.527695 234.91086 
L 186.552705 234.91086 
L 186.627735 235.67504 
L 186.677755 236.049001 
L 187.102925 219.789839 
L 187.303005 217.432261 
L 187.328015 217.383483 
L 187.353025 217.399742 
L 187.453065 218.60292 
L 187.603125 218.521624 
L 187.778194 219.627247 
L 187.978274 223.822111 
L 188.078314 223.496928 
L 188.178354 221.952308 
L 188.228374 222.472601 
L 188.528494 225.756951 
L 188.578514 225.236658 
L 188.678554 223.122967 
L 189.178753 210.977373 
L 189.453863 209.172606 
L 189.503883 209.595345 
L 189.904043 217.562334 
L 190.004083 219.009399 
L 190.154142 223.204263 
L 190.579312 234.13042 
L 190.854422 241.577116 
L 191.129532 247.381637 
L 191.304602 251.982979 
L 192.029891 273.152408 
L 192.355021 275.119767 
L 192.555101 275.266099 
L 192.65514 274.875879 
L 192.90524 270.924903 
L 193.13033 261.933586 
L 193.68055 239.382129 
L 194.080709 228.846192 
L 194.530889 220.521501 
L 194.705959 219.269546 
L 194.831009 218.60292 
L 194.881029 218.619179 
L 194.981069 218.196441 
L 195.031089 217.871258 
L 195.106118 217.920035 
L 195.181148 217.952554 
L 195.381228 215.529939 
L 195.881428 206.668696 
L 196.456657 196.701829 
L 196.756777 194.55562 
L 196.781787 194.75073 
L 197.156937 207.384099 
L 197.457057 219.513433 
L 198.282386 256.974542 
L 198.457456 253.576377 
L 198.982665 236.097778 
L 199.432845 212.229329 
L 200.333204 161.58204 
L 200.608314 157.793655 
L 200.633324 157.874951 
L 201.133524 173.695115 
L 201.658733 208.684832 
L 201.908833 218.814289 
L 202.133923 224.131035 
L 202.233963 223.724556 
L 202.258973 223.64326 
L 202.308993 223.805852 
L 202.459052 224.293627 
L 202.659132 224.960253 
L 202.709152 224.456219 
L 202.784182 224.61881 
L 202.909232 224.309886 
L 203.034282 224.456219 
L 203.084302 224.61881 
L 203.284382 221.041795 
L 203.309392 221.090572 
L 203.509472 222.716488 
L 203.934641 226.813797 
L 204.059691 228.293381 
L 204.234761 229.626632 
L 204.409831 229.106339 
L 204.584901 227.187758 
L 204.634921 227.594237 
L 204.759971 227.91942 
L 204.93504 229.057561 
L 204.96005 229.008784 
L 205.06009 228.781156 
L 205.0851 228.846192 
L 205.23516 231.301326 
L 205.51027 237.057069 
L 205.53528 236.829441 
L 205.71035 235.593744 
L 205.8354 235.105969 
L 205.88542 235.349857 
L 205.91043 235.349857 
L 205.96045 235.236043 
L 205.98546 235.512449 
L 206.585699 242.715257 
L 206.610709 242.601443 
L 206.760769 241.121859 
L 207.010869 236.780663 
L 207.185939 238.861836 
L 207.511068 245.511833 
L 207.611108 244.780171 
L 207.761168 244.129804 
L 207.911228 245.918312 
L 208.761567 256.04777 
L 209.336797 260.958037 
L 209.361807 260.275152 
L 209.536877 257.381021 
L 209.586897 257.462317 
L 209.661927 257.462317 
L 209.836996 254.828333 
L 210.112106 250.438359 
L 210.337196 248.032003 
L 210.837396 233.041056 
L 210.862406 233.073574 
L 211.087495 232.114284 
L 211.162525 231.626509 
L 211.187535 231.821619 
L 211.637715 240.569048 
L 212.037875 231.902915 
L 212.062885 231.902915 
L 212.187935 228.813674 
L 212.463044 214.261724 
L 212.763164 188.198288 
L 213.263364 147.241459 
L 213.738553 139.632172 
L 213.788573 140.396352 
L 214.188733 154.054048 
L 214.914022 208.359648 
L 215.764362 234.862082 
L 215.789372 234.748268 
L 215.914421 233.317462 
L 215.964441 233.333721 
L 216.039471 233.610127 
L 216.214541 233.984087 
L 216.264561 234.260493 
L 217.23995 248.29215 
L 217.26496 248.129558 
L 217.365 247.479192 
L 217.41502 247.593006 
L 217.46504 247.836893 
L 217.6151 249.332736 
L 218.1153 257.299725 
L 218.16532 257.478576 
L 218.21534 257.267207 
L 218.24035 257.185911 
L 218.34039 257.218429 
L 218.415419 257.137134 
L 218.615499 255.429922 
L 218.890609 252.340681 
L 219.065679 250.714765 
L 219.140709 249.137626 
L 220.391208 200.96173 
L 220.616298 196.831903 
L 220.666318 197.07579 
L 220.916417 199.514664 
L 221.866797 219.871135 
L 221.891807 220.001208 
L 221.916817 219.741062 
L 222.216936 214.749499 
L 222.467036 211.416371 
L 222.667116 210.8473 
L 223.067276 207.595468 
L 223.117296 208.001947 
L 223.167316 208.733609 
L 223.967635 225.773211 
L 224.042665 225.480546 
L 224.342785 224.22859 
L 224.842984 220.846685 
L 225.393204 223.692038 
L 225.518254 226.212208 
L 226.393603 245.267946 
L 226.843783 253.657673 
L 227.519052 264.502534 
L 227.594082 265.022827 
L 227.644102 264.827717 
L 227.794162 263.965982 
L 228.269351 256.779432 
L 228.819571 242.796553 
L 228.994641 242.064891 
L 229.194721 241.577116 
L 229.244741 241.821003 
L 229.369791 244.064768 
L 230.02005 256.177843 
L 230.22013 258.275275 
L 230.27015 258.128943 
L 230.34518 257.706204 
L 230.44522 257.836278 
L 230.62029 258.37283 
L 230.670309 258.128943 
L 230.820369 257.754982 
L 230.920409 257.868796 
L 230.945419 257.885055 
L 230.970429 257.7875 
L 231.095479 257.59239 
L 231.220529 258.600458 
L 231.245539 258.291534 
L 231.420609 257.299725 
L 231.495639 257.462317 
L 231.520649 257.511094 
L 231.545659 257.381021 
L 231.645699 255.998992 
L 232.245938 231.041179 
L 232.871188 187.677995 
L 233.221327 176.654283 
L 233.396397 174.508074 
L 233.746537 170.069322 
L 233.996637 175.434846 
L 234.271747 184.426162 
L 234.696916 200.392659 
L 234.721926 200.473955 
L 234.746936 200.197549 
L 235.047056 197.644861 
L 235.097076 197.709897 
L 235.172106 198.81552 
L 235.422206 205.237889 
L 235.622285 211.302557 
L 235.672305 210.392044 
L 236.022445 203.4819 
L 236.047455 204.148525 
L 236.572665 224.61881 
L 236.822764 231.203771 
L 236.972824 233.122352 
L 237.022844 232.667095 
L 237.623084 225.269177 
L 237.698114 225.350472 
L 237.898194 225.968321 
L 237.923204 225.935802 
L 238.023243 225.366732 
L 238.298353 223.561965 
L 238.473423 222.310009 
L 238.548453 222.635192 
L 238.848573 224.667588 
L 238.873583 224.586292 
L 239.273742 219.822357 
L 239.373782 218.131405 
L 239.423802 218.163923 
L 239.648892 219.269546 
L 239.748932 219.18825 
L 239.823962 219.38336 
L 240.099072 220.310132 
L 240.149092 220.277614 
L 240.324162 219.350842 
L 240.374182 219.627247 
L 240.649291 221.773457 
L 240.824361 222.472601 
L 240.849371 222.440082 
L 241.099471 219.822357 
L 241.124481 219.741062 
L 241.149491 219.838617 
L 241.524641 222.602674 
L 241.82476 227.512941 
L 242.57506 245.284205 
L 242.77514 246.178459 
L 242.85017 245.641906 
L 243.300349 239.626016 
L 243.925599 221.464533 
L 245.126078 181.694623 
L 245.226118 182.426285 
L 245.326158 183.450613 
L 245.626277 192.067968 
L 246.451607 214.391797 
L 246.576657 215.399865 
L 246.626676 216.407933 
L 246.701706 216.294119 
L 246.751726 216.212823 
L 246.801746 216.342897 
L 246.851766 216.456711 
L 246.901786 216.407933 
L 247.051846 214.798276 
L 247.376976 210.310748 
L 247.527036 211.302557 
L 247.702106 213.725172 
L 248.002225 224.504996 
L 248.202305 228.927488 
L 248.377375 230.276998 
L 249.152684 251.170021 
L 249.452804 254.30804 
L 249.702904 258.535422 
L 249.852964 261.136887 
L 249.877974 260.600335 
L 250.078054 254.389335 
L 251.628672 195.205986 
L 251.803742 194.100363 
L 252.003822 193.449997 
L 252.303942 192.116746 
L 252.328952 191.986672 
L 252.378972 192.311856 
L 252.504022 192.42567 
L 252.979211 189.499021 
L 253.079251 189.71039 
L 253.704501 191.385083 
L 253.929591 191.791563 
L 254.22971 193.645107 
L 254.47981 194.864544 
L 254.80494 195.205986 
L 255.00502 196.620534 
L 255.430189 201.986057 
L 255.480209 202.099871 
L 255.530229 202.034834 
L 255.730309 201.579578 
L 255.755319 201.709651 
L 255.980409 203.644491 
L 256.230509 205.286667 
L 256.280529 205.237889 
L 256.505618 204.05097 
L 256.530628 203.969675 
L 256.605658 204.018452 
L 256.930788 204.863929 
L 257.581048 212.278106 
L 257.756117 213.56258 
L 257.856157 214.554389 
L 257.931187 214.505612 
L 257.956197 214.505612 
L 258.106257 213.204879 
L 258.431387 209.140088 
L 259.006616 195.807575 
L 259.181686 186.133374 
L 259.256716 187.482885 
L 259.606856 194.311733 
L 259.656876 194.55562 
L 259.731906 194.393028 
L 259.756916 194.458065 
L 259.781926 194.230437 
L 260.182085 191.336306 
L 260.307135 190.929827 
L 260.357155 190.978604 
L 260.407175 191.173714 
L 260.482205 193.238628 
L 260.682285 203.742046 
L 260.757315 201.937279 
L 261.132465 192.100487 
L 261.207495 192.637039 
L 261.307535 194.149141 
L 261.532624 197.157086 
L 261.582644 197.222123 
L 261.607654 197.189604 
L 262.107854 220.1638 
L 262.307934 226.830056 
L 262.708093 243.121736 
L 262.958193 250.03188 
L 263.108253 257.559872 
L 263.183283 256.486767 
L 263.483403 252.145571 
L 263.533423 252.35694 
L 263.633463 252.600828 
L 263.658473 252.584568 
L 263.783522 251.20254 
L 264.008612 246.828825 
L 264.058632 247.462932 
L 264.233702 250.161953 
L 264.408772 252.015498 
L 264.583842 250.974911 
L 264.608852 251.300095 
L 264.883962 257.511094 
L 265.534221 271.900453 
L 265.634261 271.493974 
L 265.759311 271.006199 
L 265.784321 271.136272 
L 265.834341 271.3639 
L 266.38456 254.616964 
L 266.78472 245.154131 
L 266.95979 244.585061 
L 267.20989 242.47137 
L 267.33494 240.796676 
L 267.38496 241.577116 
L 267.660069 243.934694 
L 267.685079 243.934694 
L 267.810129 245.641906 
L 267.910169 246.53616 
L 267.960189 246.487383 
L 268.035219 246.649974 
L 268.135259 246.975158 
L 268.185279 246.893862 
L 268.385359 244.373692 
L 268.785518 237.837509 
L 269.285718 232.114284 
L 269.385758 232.260616 
L 269.435778 232.504504 
L 269.460788 232.439467 
L 270.586237 218.456588 
L 270.611247 218.456588 
L 270.811327 216.001454 
L 271.261506 202.603905 
L 272.111846 183.336798 
L 273.337335 143.257965 
L 273.887554 130.689633 
L 273.962584 131.453813 
L 274.337734 135.518604 
L 275.088033 160.476417 
L 276.113442 229.09008 
L 276.638652 249.511587 
L 277.063822 254.064152 
L 277.113842 254.047893 
L 277.338931 255.722587 
L 277.564021 259.429675 
L 277.789111 261.608403 
L 277.839131 261.738476 
L 277.889151 261.608403 
L 277.989191 260.811704 
L 278.464381 255.283589 
L 278.5144 255.202293 
L 278.53941 255.348626 
L 278.61444 255.527477 
L 278.66446 255.478699 
L 278.83953 254.210485 
L 279.06462 253.072343 
L 279.08963 253.153639 
L 279.21468 253.641414 
L 279.71488 263.770872 
L 280.215079 260.405225 
L 280.265099 260.714149 
L 280.490189 262.583953 
L 280.565219 262.226251 
L 281.215478 249.170144 
L 281.240488 249.869288 
L 281.615638 257.917573 
L 281.690668 258.210238 
L 281.715678 258.128943 
L 281.865738 256.291657 
L 282.190867 250.926134 
L 282.365937 247.723079 
L 282.766097 237.951323 
L 283.741486 198.604151 
L 283.991586 195.482392 
L 284.316716 192.149264 
L 284.616836 186.865036 
L 284.691865 187.596699 
L 284.866935 188.360879 
L 285.592225 195.433615 
L 285.792305 198.409041 
L 286.067414 206.733732 
L 286.767694 231.951692 
L 287.017794 236.016483 
L 287.167853 236.26037 
L 287.192863 236.341666 
L 287.267893 236.211592 
L 287.543003 233.236166 
L 287.768093 231.057438 
L 287.868133 232.228098 
L 288.243283 236.943255 
L 288.293303 236.992032 
L 288.318312 236.618072 
L 288.368332 237.382252 
L 288.768492 243.902176 
L 289.068612 254.29178 
L 289.293702 259.836155 
L 289.393742 260.275152 
L 289.418752 260.242634 
L 289.543802 259.836155 
L 289.568811 259.949969 
L 289.768891 261.364516 
L 290.018991 263.120505 
L 290.144041 265.884563 
L 290.494181 271.819157 
L 290.569211 272.030526 
L 291.06941 263.80339 
L 291.41955 258.535422 
L 291.5446 257.218429 
L 291.86973 248.162076 
L 292.144839 241.577116 
L 292.319909 241.089341 
L 292.369929 241.040564 
L 292.544999 240.634084 
L 292.645039 240.926749 
L 292.670049 240.877972 
L 292.795099 239.788608 
L 293.020189 237.512325 
L 293.120229 237.43103 
L 293.320308 238.97565 
L 293.695458 245.267946 
L 294.220668 257.543613 
L 294.620827 269.055099 
L 294.695857 268.941285 
L 294.745877 268.973803 
L 294.920947 269.835539 
L 295.020987 270.40461 
L 295.071007 270.225759 
L 295.171047 269.868057 
L 295.246077 270.030649 
L 295.371127 270.518424 
L 295.421147 270.437128 
L 295.646237 268.941285 
L 295.996376 265.673194 
L 296.096416 264.291165 
L 296.146436 264.421238 
L 296.246476 263.722094 
L 296.521586 262.096178 
L 296.871726 260.876741 
L 296.946755 260.145079 
L 297.271885 256.015252 
L 297.396935 256.584322 
L 297.647035 258.128943 
L 297.972165 259.819895 
L 298.122225 260.30767 
L 298.397334 258.210238 
L 298.422344 258.356571 
L 298.797494 257.185911 
L 299.272684 249.576623 
L 299.647833 246.129681 
L 299.822903 244.861467 
L 299.922943 244.2111 
L 299.972963 244.341173 
L 300.047993 244.454987 
L 300.073003 244.389951 
L 300.098013 244.341173 
L 300.123023 244.422469 
L 300.198053 244.666357 
L 300.248073 244.617579 
L 300.298093 244.471247 
L 300.323103 244.633838 
L 300.723262 245.804498 
L 301.023382 248.893739 
L 301.098412 249.186404 
L 301.148432 249.05633 
L 301.298492 249.576623 
L 301.398532 249.83677 
L 301.423542 249.787993 
L 301.448552 249.706697 
L 301.473562 249.820511 
L 301.598612 250.438359 
L 301.623622 250.308286 
L 301.748672 249.83677 
L 301.773682 249.901807 
L 301.948751 252.226867 
L 302.273881 257.153393 
L 302.373921 257.234689 
L 302.398931 257.137134 
L 302.999171 245.593129 
L 303.64943 230.813551 
L 303.99957 227.187758 
L 304.04959 227.025166 
L 304.09961 227.187758 
L 304.499769 229.09008 
L 304.549789 229.057561 
L 304.699849 228.439713 
L 304.899929 224.131035 
L 305.425139 202.766497 
L 305.500168 200.311363 
L 305.575198 200.717842 
L 305.625218 200.799138 
L 305.825298 205.02652 
L 306.175438 213.237397 
L 306.600608 234.146679 
L 307.125817 259.006937 
L 307.175837 259.218306 
L 307.200847 258.974419 
L 307.225857 258.698013 
L 307.300887 258.893123 
L 307.475957 259.494712 
L 307.550987 259.592267 
L 307.575997 259.462194 
L 307.776077 259.657304 
L 307.801087 259.624785 
L 307.876117 259.380898 
L 308.251266 256.324176 
L 309.026576 236.618072 
L 309.201645 233.642645 
L 309.476755 227.805606 
L 309.951945 215.594975 
L 310.277075 210.603413 
L 310.302085 210.684708 
L 310.627214 222.342527 
L 310.702244 221.464533 
L 310.927334 220.147541 
L 310.977354 220.228836 
L 311.077394 221.448274 
L 311.802683 233.447535 
L 312.127813 228.732378 
L 312.552983 237.349734 
L 313.103202 249.901807 
L 313.228252 250.633469 
L 313.528372 255.446181 
L 314.028572 262.795322 
L 314.053582 262.876618 
L 314.503761 257.998869 
L 314.678831 256.291657 
L 315.104001 247.625524 
L 315.57919 237.43103 
L 315.72925 236.585553 
L 315.80428 235.918928 
L 316.05438 232.439467 
L 316.07939 232.341912 
L 316.12941 232.553281 
L 316.22945 233.658904 
L 316.52957 237.561103 
L 316.554579 237.479807 
L 316.754659 236.861959 
L 316.829689 237.105846 
L 317.054779 238.601689 
L 317.304879 240.877972 
L 317.655019 246.34105 
L 317.705039 246.780048 
L 317.780068 246.666233 
L 317.930128 245.674425 
L 317.955138 245.365501 
L 317.980148 245.853275 
L 318.380308 250.568432 
L 318.530368 251.300095 
L 318.555378 251.20254 
L 318.705438 250.22699 
L 318.755458 250.682246 
L 318.780468 251.088725 
L 318.805478 250.552173 
L 320.131007 214.863313 
L 320.431126 210.798523 
L 320.456136 211.416371 
L 321.081386 230.390813 
L 321.506555 242.146187 
L 321.706635 245.154131 
L 322.206835 253.413786 
L 322.256855 253.820265 
L 322.331885 253.690191 
L 322.556975 253.072343 
L 322.606995 252.877233 
L 322.632005 253.072343 
L 322.807074 254.779555 
L 322.832084 254.340558 
L 322.932124 251.00743 
L 323.407314 227.72431 
L 323.607394 224.781402 
L 323.857494 220.35891 
L 323.932523 220.684093 
L 324.182623 221.871012 
L 324.207633 221.936048 
L 324.232643 221.773457 
L 324.307673 220.472724 
L 324.357693 220.846685 
L 324.482743 225.448027 
L 324.782863 239.105723 
L 324.807873 239.024427 
L 325.032963 235.105969 
L 325.858292 219.38336 
L 325.883302 219.415878 
L 325.933322 219.545952 
L 325.983342 219.464656 
L 326.008352 219.432138 
L 326.033362 219.545952 
L 326.108392 220.326391 
L 326.358492 225.39925 
L 326.883701 238.130174 
L 326.933721 237.756213 
L 327.208831 234.309271 
L 327.258851 234.455603 
L 327.358891 234.992155 
L 327.383901 234.878341 
L 327.634 232.553281 
L 327.83408 228.374676 
L 328.20923 221.253164 
L 328.30927 221.058054 
L 328.43432 222.358787 
L 329.234639 239.983718 
L 330.260048 279.265853 
L 330.310068 280.143848 
L 330.360088 279.753628 
L 331.110388 268.697398 
L 331.510547 261.543367 
L 331.585577 261.169406 
L 331.685617 260.275152 
L 331.760647 260.405225 
L 331.810667 260.470262 
L 332.385897 272.420746 
L 332.435917 272.388227 
L 332.585976 272.030526 
L 333.061166 258.519162 
L 333.736435 230.927365 
L 333.886495 227.72431 
L 333.961525 228.569786 
L 334.011545 227.968197 
L 334.261645 225.675656 
L 334.361685 225.025289 
L 334.436715 225.155362 
L 334.486735 225.366732 
L 334.536755 225.236658 
L 334.736835 224.635069 
L 334.786855 224.781402 
L 335.036954 225.935802 
L 335.136994 226.895093 
L 335.187014 226.651205 
L 335.587174 220.115022 
L 335.812264 217.107077 
L 335.937314 215.188496 
L 336.837673 195.482392 
L 336.987733 191.824081 
L 337.012743 192.100487 
L 337.387893 200.311363 
L 337.637992 207.15647 
L 338.238232 234.455603 
L 338.763441 262.762804 
L 339.538751 286.175997 
L 339.763841 289.005091 
L 340.43911 292.679661 
L 340.63919 292.988585 
L 340.71422 293.08614 
L 340.73923 293.151177 
L 340.78925 293.069881 
L 340.9143 292.90729 
L 341.789649 239.382129 
L 342.464918 194.994617 
L 342.840068 188.198288 
L 342.865078 188.198288 
L 343.215218 192.913445 
L 343.490328 196.002685 
L 343.515338 196.132759 
L 343.540348 195.937649 
L 343.690407 194.832026 
L 343.740427 195.043395 
L 343.890487 195.53117 
L 343.940507 195.449874 
L 344.040547 194.100363 
L 344.165597 191.791563 
L 344.565757 214.798276 
L 345.666196 290.354601 
L 345.816256 289.102646 
L 345.866276 288.891277 
L 345.891286 289.167682 
L 345.991326 290.403379 
L 346.066355 290.061936 
L 346.116375 289.655457 
L 346.216415 289.866826 
L 346.241425 289.948122 
L 346.266435 289.818049 
L 346.441505 288.517316 
L 346.541545 288.842499 
L 346.741625 289.785531 
L 346.941705 290.923672 
L 347.141785 289.899345 
L 347.341864 288.127096 
L 348.442304 271.932971 
L 349.092563 267.721848 
L 349.142583 267.185296 
L 349.417693 263.283097 
L 349.642783 260.844223 
L 349.717812 261.136887 
L 350.167992 264.209869 
L 350.768232 273.932848 
L 351.043341 275.363654 
L 351.068351 275.396172 
L 351.093361 275.314877 
L 351.143381 275.103507 
L 351.593561 271.331382 
L 351.643581 271.038717 
L 351.768631 269.055099 
L 351.893681 265.754489 
L 352.39388 241.284451 
L 352.694 226.699983 
L 353.14418 200.148772 
L 353.644379 165.110278 
L 355.144978 259.332121 
L 355.770228 219.984949 
L 356.195397 209.10757 
L 356.270427 209.546567 
L 356.445497 212.521994 
L 356.495517 212.440698 
L 356.520527 212.424439 
L 356.545537 212.473216 
L 356.645577 213.416248 
L 356.820647 219.171991 
L 357.320846 237.561103 
L 358.171186 258.047647 
L 358.271225 259.023196 
L 358.321245 258.698013 
L 358.696395 260.275152 
L 359.046535 263.770872 
L 359.196595 264.096055 
L 359.396675 263.478207 
L 359.471705 262.990432 
L 359.521724 263.283097 
L 359.821844 266.90889 
L 359.971904 266.778817 
L 360.046934 266.421115 
L 360.222004 265.673194 
L 360.472104 264.58383 
L 360.497114 264.616348 
L 360.697194 265.201678 
L 360.747213 265.104123 
L 360.822243 264.535052 
L 361.297433 253.641414 
L 361.597553 248.080781 
L 361.922683 241.040564 
L 362.322842 231.772841 
L 362.522922 232.878464 
L 362.547932 232.602059 
L 362.647972 232.098025 
L 362.723002 232.276875 
L 362.823042 232.667095 
L 362.873062 232.520763 
L 362.898072 232.553281 
L 362.923082 232.439467 
L 363.123162 230.894847 
L 363.448291 228.521009 
L 363.473301 228.569786 
L 363.498311 228.439713 
L 363.573341 227.951938 
L 363.598351 227.72431 
L 363.648371 227.968197 
L 364.073541 232.358171 
L 364.323641 239.349611 
L 364.373661 240.113791 
L 364.44869 239.658535 
L 364.4737 239.674794 
L 364.49871 239.577239 
L 364.9739 236.049001 
L 365.849249 213.253656 
L 365.874259 213.286174 
L 366.149369 218.293996 
L 366.649569 239.75609 
L 367.074738 262.714026 
L 367.624958 279.70485 
L 367.649968 279.379667 
L 367.900068 278.371599 
L 368.050128 277.867565 
L 368.075138 277.753751 
L 368.825437 252.844715 
L 369.500706 222.066122 
L 369.600746 223.090449 
L 369.750806 225.480546 
L 370.301026 246.080904 
L 370.976295 276.826979 
L 371.001305 276.371722 
L 371.251405 266.827594 
L 371.976694 232.098025 
L 372.676974 214.944609 
L 373.152163 209.30268 
L 373.552323 196.246573 
L 373.652363 197.2709 
L 373.702383 197.514787 
L 374.127553 201.855984 
L 374.227592 203.579455 
L 374.252602 288.289688 
L 374.352642 281.021842 
L 374.377652 280.842992 
L 374.402662 280.891769 
L 374.677772 245.072836 
L 374.952882 234.943378 
L 375.102942 233.870273 
L 375.127952 233.919051 
L 375.177972 233.902791 
L 375.202982 233.854014 
L 375.353042 232.894723 
L 375.528111 231.724064 
L 375.553121 232.00047 
L 375.628151 234.374307 
L 375.678171 233.252425 
L 375.978291 217.0583 
L 376.378451 211.546444 
L 376.478491 210.766004 
L 377.07873 198.213931 
L 377.15376 196.132759 
L 377.20378 197.027013 
L 377.70398 208.083243 
L 378.404259 230.683477 
L 379.079529 252.031757 
L 379.129549 252.503273 
L 379.229588 252.389458 
L 379.454678 250.731024 
L 380.029908 235.447412 
L 380.505097 219.741062 
L 380.705177 216.424193 
L 381.080327 213.334952 
L 381.755596 211.139965 
L 381.830626 211.091188 
L 382.030706 210.603413 
L 382.055716 210.635931 
L 382.430866 211.448889 
L 382.505896 211.286297 
L 382.655956 210.440821 
L 382.881045 207.384099 
L 383.306215 200.067476 
L 383.406255 198.929335 
L 383.456275 199.417109 
L 383.856435 206.099625 
L 384.031505 208.375908 
L 384.256594 213.416248 
L 384.481684 222.602674 
L 384.831824 234.618195 
L 384.906854 236.130297 
L 384.981884 235.528708 
L 385.156954 232.715873 
L 385.407053 227.886902 
L 385.432063 228.11453 
L 385.457073 228.293381 
L 385.482083 227.838124 
L 385.507093 227.236535 
L 385.557113 228.000716 
L 386.932662 269.494097 
L 387.107732 274.062921 
L 387.132742 273.656442 
L 387.207772 274.176735 
L 387.282802 274.550696 
L 387.307812 274.453141 
L 387.632942 270.518424 
L 387.908051 266.177228 
L 389.35863 207.319062 
L 389.38364 207.400358 
L 389.75879 209.546567 
L 390.00889 210.635931 
L 390.05891 210.684708 
L 390.233979 213.074805 
L 390.659149 218.196441 
L 390.734179 218.537884 
L 390.759189 218.375292 
L 390.884239 216.66808 
L 390.934259 215.12346 
L 390.959269 216.131528 
L 391.359429 228.488491 
L 391.909648 239.821126 
L 392.434858 257.754982 
L 392.509888 257.218429 
L 392.759987 253.072343 
L 392.860027 252.795937 
L 393.085117 247.788116 
L 393.135137 248.275891 
L 393.210167 248.698629 
L 393.235177 248.519778 
L 393.410247 246.097163 
L 393.685357 241.772226 
L 393.710367 242.097409 
L 394.035496 244.959022 
L 394.285596 247.267822 
L 394.460666 251.446427 
L 394.660746 255.07222 
L 394.685756 254.87711 
L 394.835816 253.478822 
L 395.185955 264.372461 
L 395.536095 266.095932 
L 396.036295 273.607665 
L 396.336414 280.647882 
L 396.436454 279.005706 
L 396.561504 276.046539 
L 396.636534 276.501795 
L 396.786594 278.16023 
L 396.886634 278.761819 
L 396.911644 278.485413 
L 397.011684 277.96512 
L 397.036694 278.127712 
L 397.436854 280.761696 
L 397.636933 282.02991 
L 397.661943 281.363285 
L 398.487273 257.072097 
L 398.487273 257.072097 
" style="fill:none;stroke:#1f77b4;stroke-linecap:square;stroke-width:1.5;"/>
   </g>
   <g id="patch_3">
    <path d="M 57.6 306.3024 
L 57.6 41.2992 
" style="fill:none;stroke:#000000;stroke-linecap:square;stroke-linejoin:miter;stroke-width:0.8;"/>
   </g>
   <g id="patch_4">
    <path d="M 414.72 306.3024 
L 414.72 41.2992 
" style="fill:none;stroke:#000000;stroke-linecap:square;stroke-linejoin:miter;stroke-width:0.8;"/>
   </g>
   <g id="patch_5">
    <path d="M 57.6 306.3024 
L 414.72 306.3024 
" style="fill:none;stroke:#000000;stroke-linecap:square;stroke-linejoin:miter;stroke-width:0.8;"/>
   </g>
   <g id="patch_6">
    <path d="M 57.6 41.2992 
L 414.72 41.2992 
" style="fill:none;stroke:#000000;stroke-linecap:square;stroke-linejoin:miter;stroke-width:0.8;"/>
   </g>
   <g id="text_18">
    <!-- Ritmo Cardíaco -->
    <g transform="translate(190.094063 35.2992)scale(0.12 -0.12)">
     <use xlink:href="#DejaVuSans-82"/>
     <use x="69.482422" xlink:href="#DejaVuSans-105"/>
     <use x="97.265625" xlink:href="#DejaVuSans-116"/>
     <use x="136.474609" xlink:href="#DejaVuSans-109"/>
     <use x="233.886719" xlink:href="#DejaVuSans-111"/>
     <use x="295.068359" xlink:href="#DejaVuSans-32"/>
     <use x="326.855469" xlink:href="#DejaVuSans-67"/>
     <use x="396.679688" xlink:href="#DejaVuSans-97"/>
     <use x="457.958984" xlink:href="#DejaVuSans-114"/>
     <use x="499.056641" xlink:href="#DejaVuSans-100"/>
     <use x="562.533203" xlink:href="#DejaVuSans-237"/>
     <use x="590.316406" xlink:href="#DejaVuSans-97"/>
     <use x="651.595703" xlink:href="#DejaVuSans-99"/>
     <use x="706.576172" xlink:href="#DejaVuSans-111"/>
    </g>
   </g>
  </g>
 </g>
 <defs>
  <clipPath id="pbf1548e6ae">
   <rect height="265.0032" width="357.12" x="57.6" y="41.2992"/>
  </clipPath>
 </defs>
</svg>
