<?xml version="1.0" encoding="utf-8" standalone="no"?>
<!DOCTYPE svg PUBLIC "-//W3C//DTD SVG 1.1//EN"
  "http://www.w3.org/Graphics/SVG/1.1/DTD/svg11.dtd">
<!-- Created with matplotlib (https://matplotlib.org/) -->
<svg height="344.16pt" version="1.1" viewBox="0 0 460.8 344.16" width="460.8pt" xmlns="http://www.w3.org/2000/svg" xmlns:xlink="http://www.w3.org/1999/xlink">
 <defs>
  <style type="text/css">
*{stroke-linecap:butt;stroke-linejoin:round;}
  </style>
 </defs>
 <g id="figure_1">
  <g id="patch_1">
   <path d="M 0 344.16 
L 460.8 344.16 
L 460.8 0 
L 0 0 
z
" style="fill:#ffffff;"/>
  </g>
  <g id="axes_1">
   <g id="patch_2">
    <path d="M 57.6 306.3024 
L 414.72 306.3024 
L 414.72 41.2992 
L 57.6 41.2992 
z
" style="fill:#ffffff;"/>
   </g>
   <g id="matplotlib.axis_1">
    <g id="xtick_1">
     <g id="line2d_1">
      <defs>
       <path d="M 0 0 
L 0 3.5 
" id="mad839049e7" style="stroke:#000000;stroke-width:0.8;"/>
      </defs>
      <g>
       <use style="stroke:#000000;stroke-width:0.8;" x="73.832727" xlink:href="#mad839049e7" y="306.3024"/>
      </g>
     </g>
     <g id="text_1">
      <!-- 0 -->
      <defs>
       <path d="M 31.78125 66.40625 
Q 24.171875 66.40625 20.328125 58.90625 
Q 16.5 51.421875 16.5 36.375 
Q 16.5 21.390625 20.328125 13.890625 
Q 24.171875 6.390625 31.78125 6.390625 
Q 39.453125 6.390625 43.28125 13.890625 
Q 47.125 21.390625 47.125 36.375 
Q 47.125 51.421875 43.28125 58.90625 
Q 39.453125 66.40625 31.78125 66.40625 
z
M 31.78125 74.21875 
Q 44.046875 74.21875 50.515625 64.515625 
Q 56.984375 54.828125 56.984375 36.375 
Q 56.984375 17.96875 50.515625 8.265625 
Q 44.046875 -1.421875 31.78125 -1.421875 
Q 19.53125 -1.421875 13.0625 8.265625 
Q 6.59375 17.96875 6.59375 36.375 
Q 6.59375 54.828125 13.0625 64.515625 
Q 19.53125 74.21875 31.78125 74.21875 
z
" id="DejaVuSans-48"/>
      </defs>
      <g transform="translate(70.651477 320.900838)scale(0.1 -0.1)">
       <use xlink:href="#DejaVuSans-48"/>
      </g>
     </g>
    </g>
    <g id="xtick_2">
     <g id="line2d_2">
      <g>
       <use style="stroke:#000000;stroke-width:0.8;" x="123.852687" xlink:href="#mad839049e7" y="306.3024"/>
      </g>
     </g>
     <g id="text_2">
      <!-- 2000 -->
      <defs>
       <path d="M 19.1875 8.296875 
L 53.609375 8.296875 
L 53.609375 0 
L 7.328125 0 
L 7.328125 8.296875 
Q 12.9375 14.109375 22.625 23.890625 
Q 32.328125 33.6875 34.8125 36.53125 
Q 39.546875 41.84375 41.421875 45.53125 
Q 43.3125 49.21875 43.3125 52.78125 
Q 43.3125 58.59375 39.234375 62.25 
Q 35.15625 65.921875 28.609375 65.921875 
Q 23.96875 65.921875 18.8125 64.3125 
Q 13.671875 62.703125 7.8125 59.421875 
L 7.8125 69.390625 
Q 13.765625 71.78125 18.9375 73 
Q 24.125 74.21875 28.421875 74.21875 
Q 39.75 74.21875 46.484375 68.546875 
Q 53.21875 62.890625 53.21875 53.421875 
Q 53.21875 48.921875 51.53125 44.890625 
Q 49.859375 40.875 45.40625 35.40625 
Q 44.1875 33.984375 37.640625 27.21875 
Q 31.109375 20.453125 19.1875 8.296875 
z
" id="DejaVuSans-50"/>
      </defs>
      <g transform="translate(111.127687 320.900838)scale(0.1 -0.1)">
       <use xlink:href="#DejaVuSans-50"/>
       <use x="63.623047" xlink:href="#DejaVuSans-48"/>
       <use x="127.246094" xlink:href="#DejaVuSans-48"/>
       <use x="190.869141" xlink:href="#DejaVuSans-48"/>
      </g>
     </g>
    </g>
    <g id="xtick_3">
     <g id="line2d_3">
      <g>
       <use style="stroke:#000000;stroke-width:0.8;" x="173.872646" xlink:href="#mad839049e7" y="306.3024"/>
      </g>
     </g>
     <g id="text_3">
      <!-- 4000 -->
      <defs>
       <path d="M 37.796875 64.3125 
L 12.890625 25.390625 
L 37.796875 25.390625 
z
M 35.203125 72.90625 
L 47.609375 72.90625 
L 47.609375 25.390625 
L 58.015625 25.390625 
L 58.015625 17.1875 
L 47.609375 17.1875 
L 47.609375 0 
L 37.796875 0 
L 37.796875 17.1875 
L 4.890625 17.1875 
L 4.890625 26.703125 
z
" id="DejaVuSans-52"/>
      </defs>
      <g transform="translate(161.147646 320.900838)scale(0.1 -0.1)">
       <use xlink:href="#DejaVuSans-52"/>
       <use x="63.623047" xlink:href="#DejaVuSans-48"/>
       <use x="127.246094" xlink:href="#DejaVuSans-48"/>
       <use x="190.869141" xlink:href="#DejaVuSans-48"/>
      </g>
     </g>
    </g>
    <g id="xtick_4">
     <g id="line2d_4">
      <g>
       <use style="stroke:#000000;stroke-width:0.8;" x="223.892605" xlink:href="#mad839049e7" y="306.3024"/>
      </g>
     </g>
     <g id="text_4">
      <!-- 6000 -->
      <defs>
       <path d="M 33.015625 40.375 
Q 26.375 40.375 22.484375 35.828125 
Q 18.609375 31.296875 18.609375 23.390625 
Q 18.609375 15.53125 22.484375 10.953125 
Q 26.375 6.390625 33.015625 6.390625 
Q 39.65625 6.390625 43.53125 10.953125 
Q 47.40625 15.53125 47.40625 23.390625 
Q 47.40625 31.296875 43.53125 35.828125 
Q 39.65625 40.375 33.015625 40.375 
z
M 52.59375 71.296875 
L 52.59375 62.3125 
Q 48.875 64.0625 45.09375 64.984375 
Q 41.3125 65.921875 37.59375 65.921875 
Q 27.828125 65.921875 22.671875 59.328125 
Q 17.53125 52.734375 16.796875 39.40625 
Q 19.671875 43.65625 24.015625 45.921875 
Q 28.375 48.1875 33.59375 48.1875 
Q 44.578125 48.1875 50.953125 41.515625 
Q 57.328125 34.859375 57.328125 23.390625 
Q 57.328125 12.15625 50.6875 5.359375 
Q 44.046875 -1.421875 33.015625 -1.421875 
Q 20.359375 -1.421875 13.671875 8.265625 
Q 6.984375 17.96875 6.984375 36.375 
Q 6.984375 53.65625 15.1875 63.9375 
Q 23.390625 74.21875 37.203125 74.21875 
Q 40.921875 74.21875 44.703125 73.484375 
Q 48.484375 72.75 52.59375 71.296875 
z
" id="DejaVuSans-54"/>
      </defs>
      <g transform="translate(211.167605 320.900838)scale(0.1 -0.1)">
       <use xlink:href="#DejaVuSans-54"/>
       <use x="63.623047" xlink:href="#DejaVuSans-48"/>
       <use x="127.246094" xlink:href="#DejaVuSans-48"/>
       <use x="190.869141" xlink:href="#DejaVuSans-48"/>
      </g>
     </g>
    </g>
    <g id="xtick_5">
     <g id="line2d_5">
      <g>
       <use style="stroke:#000000;stroke-width:0.8;" x="273.912564" xlink:href="#mad839049e7" y="306.3024"/>
      </g>
     </g>
     <g id="text_5">
      <!-- 8000 -->
      <defs>
       <path d="M 31.78125 34.625 
Q 24.75 34.625 20.71875 30.859375 
Q 16.703125 27.09375 16.703125 20.515625 
Q 16.703125 13.921875 20.71875 10.15625 
Q 24.75 6.390625 31.78125 6.390625 
Q 38.8125 6.390625 42.859375 10.171875 
Q 46.921875 13.96875 46.921875 20.515625 
Q 46.921875 27.09375 42.890625 30.859375 
Q 38.875 34.625 31.78125 34.625 
z
M 21.921875 38.8125 
Q 15.578125 40.375 12.03125 44.71875 
Q 8.5 49.078125 8.5 55.328125 
Q 8.5 64.0625 14.71875 69.140625 
Q 20.953125 74.21875 31.78125 74.21875 
Q 42.671875 74.21875 48.875 69.140625 
Q 55.078125 64.0625 55.078125 55.328125 
Q 55.078125 49.078125 51.53125 44.71875 
Q 48 40.375 41.703125 38.8125 
Q 48.828125 37.15625 52.796875 32.3125 
Q 56.78125 27.484375 56.78125 20.515625 
Q 56.78125 9.90625 50.3125 4.234375 
Q 43.84375 -1.421875 31.78125 -1.421875 
Q 19.734375 -1.421875 13.25 4.234375 
Q 6.78125 9.90625 6.78125 20.515625 
Q 6.78125 27.484375 10.78125 32.3125 
Q 14.796875 37.15625 21.921875 38.8125 
z
M 18.3125 54.390625 
Q 18.3125 48.734375 21.84375 45.5625 
Q 25.390625 42.390625 31.78125 42.390625 
Q 38.140625 42.390625 41.71875 45.5625 
Q 45.3125 48.734375 45.3125 54.390625 
Q 45.3125 60.0625 41.71875 63.234375 
Q 38.140625 66.40625 31.78125 66.40625 
Q 25.390625 66.40625 21.84375 63.234375 
Q 18.3125 60.0625 18.3125 54.390625 
z
" id="DejaVuSans-56"/>
      </defs>
      <g transform="translate(261.187564 320.900838)scale(0.1 -0.1)">
       <use xlink:href="#DejaVuSans-56"/>
       <use x="63.623047" xlink:href="#DejaVuSans-48"/>
       <use x="127.246094" xlink:href="#DejaVuSans-48"/>
       <use x="190.869141" xlink:href="#DejaVuSans-48"/>
      </g>
     </g>
    </g>
    <g id="xtick_6">
     <g id="line2d_6">
      <g>
       <use style="stroke:#000000;stroke-width:0.8;" x="323.932523" xlink:href="#mad839049e7" y="306.3024"/>
      </g>
     </g>
     <g id="text_6">
      <!-- 10000 -->
      <defs>
       <path d="M 12.40625 8.296875 
L 28.515625 8.296875 
L 28.515625 63.921875 
L 10.984375 60.40625 
L 10.984375 69.390625 
L 28.421875 72.90625 
L 38.28125 72.90625 
L 38.28125 8.296875 
L 54.390625 8.296875 
L 54.390625 0 
L 12.40625 0 
z
" id="DejaVuSans-49"/>
      </defs>
      <g transform="translate(308.026273 320.900838)scale(0.1 -0.1)">
       <use xlink:href="#DejaVuSans-49"/>
       <use x="63.623047" xlink:href="#DejaVuSans-48"/>
       <use x="127.246094" xlink:href="#DejaVuSans-48"/>
       <use x="190.869141" xlink:href="#DejaVuSans-48"/>
       <use x="254.492188" xlink:href="#DejaVuSans-48"/>
      </g>
     </g>
    </g>
    <g id="xtick_7">
     <g id="line2d_7">
      <g>
       <use style="stroke:#000000;stroke-width:0.8;" x="373.952483" xlink:href="#mad839049e7" y="306.3024"/>
      </g>
     </g>
     <g id="text_7">
      <!-- 12000 -->
      <g transform="translate(358.046233 320.900838)scale(0.1 -0.1)">
       <use xlink:href="#DejaVuSans-49"/>
       <use x="63.623047" xlink:href="#DejaVuSans-50"/>
       <use x="127.246094" xlink:href="#DejaVuSans-48"/>
       <use x="190.869141" xlink:href="#DejaVuSans-48"/>
       <use x="254.492188" xlink:href="#DejaVuSans-48"/>
      </g>
     </g>
    </g>
    <g id="text_8">
     <!-- Muestras -->
     <defs>
      <path d="M 9.8125 72.90625 
L 24.515625 72.90625 
L 43.109375 23.296875 
L 61.8125 72.90625 
L 76.515625 72.90625 
L 76.515625 0 
L 66.890625 0 
L 66.890625 64.015625 
L 48.09375 14.015625 
L 38.1875 14.015625 
L 19.390625 64.015625 
L 19.390625 0 
L 9.8125 0 
z
" id="DejaVuSans-77"/>
      <path d="M 8.5 21.578125 
L 8.5 54.6875 
L 17.484375 54.6875 
L 17.484375 21.921875 
Q 17.484375 14.15625 20.5 10.265625 
Q 23.53125 6.390625 29.59375 6.390625 
Q 36.859375 6.390625 41.078125 11.03125 
Q 45.3125 15.671875 45.3125 23.6875 
L 45.3125 54.6875 
L 54.296875 54.6875 
L 54.296875 0 
L 45.3125 0 
L 45.3125 8.40625 
Q 42.046875 3.421875 37.71875 1 
Q 33.40625 -1.421875 27.6875 -1.421875 
Q 18.265625 -1.421875 13.375 4.4375 
Q 8.5 10.296875 8.5 21.578125 
z
M 31.109375 56 
z
" id="DejaVuSans-117"/>
      <path d="M 56.203125 29.59375 
L 56.203125 25.203125 
L 14.890625 25.203125 
Q 15.484375 15.921875 20.484375 11.0625 
Q 25.484375 6.203125 34.421875 6.203125 
Q 39.59375 6.203125 44.453125 7.46875 
Q 49.3125 8.734375 54.109375 11.28125 
L 54.109375 2.78125 
Q 49.265625 0.734375 44.1875 -0.34375 
Q 39.109375 -1.421875 33.890625 -1.421875 
Q 20.796875 -1.421875 13.15625 6.1875 
Q 5.515625 13.8125 5.515625 26.8125 
Q 5.515625 40.234375 12.765625 48.109375 
Q 20.015625 56 32.328125 56 
Q 43.359375 56 49.78125 48.890625 
Q 56.203125 41.796875 56.203125 29.59375 
z
M 47.21875 32.234375 
Q 47.125 39.59375 43.09375 43.984375 
Q 39.0625 48.390625 32.421875 48.390625 
Q 24.90625 48.390625 20.390625 44.140625 
Q 15.875 39.890625 15.1875 32.171875 
z
" id="DejaVuSans-101"/>
      <path d="M 44.28125 53.078125 
L 44.28125 44.578125 
Q 40.484375 46.53125 36.375 47.5 
Q 32.28125 48.484375 27.875 48.484375 
Q 21.1875 48.484375 17.84375 46.4375 
Q 14.5 44.390625 14.5 40.28125 
Q 14.5 37.15625 16.890625 35.375 
Q 19.28125 33.59375 26.515625 31.984375 
L 29.59375 31.296875 
Q 39.15625 29.25 43.1875 25.515625 
Q 47.21875 21.78125 47.21875 15.09375 
Q 47.21875 7.46875 41.1875 3.015625 
Q 35.15625 -1.421875 24.609375 -1.421875 
Q 20.21875 -1.421875 15.453125 -0.5625 
Q 10.6875 0.296875 5.421875 2 
L 5.421875 11.28125 
Q 10.40625 8.6875 15.234375 7.390625 
Q 20.0625 6.109375 24.8125 6.109375 
Q 31.15625 6.109375 34.5625 8.28125 
Q 37.984375 10.453125 37.984375 14.40625 
Q 37.984375 18.0625 35.515625 20.015625 
Q 33.0625 21.96875 24.703125 23.78125 
L 21.578125 24.515625 
Q 13.234375 26.265625 9.515625 29.90625 
Q 5.8125 33.546875 5.8125 39.890625 
Q 5.8125 47.609375 11.28125 51.796875 
Q 16.75 56 26.8125 56 
Q 31.78125 56 36.171875 55.265625 
Q 40.578125 54.546875 44.28125 53.078125 
z
" id="DejaVuSans-115"/>
      <path d="M 18.3125 70.21875 
L 18.3125 54.6875 
L 36.8125 54.6875 
L 36.8125 47.703125 
L 18.3125 47.703125 
L 18.3125 18.015625 
Q 18.3125 11.328125 20.140625 9.421875 
Q 21.96875 7.515625 27.59375 7.515625 
L 36.8125 7.515625 
L 36.8125 0 
L 27.59375 0 
Q 17.1875 0 13.234375 3.875 
Q 9.28125 7.765625 9.28125 18.015625 
L 9.28125 47.703125 
L 2.6875 47.703125 
L 2.6875 54.6875 
L 9.28125 54.6875 
L 9.28125 70.21875 
z
" id="DejaVuSans-116"/>
      <path d="M 41.109375 46.296875 
Q 39.59375 47.171875 37.8125 47.578125 
Q 36.03125 48 33.890625 48 
Q 26.265625 48 22.1875 43.046875 
Q 18.109375 38.09375 18.109375 28.8125 
L 18.109375 0 
L 9.078125 0 
L 9.078125 54.6875 
L 18.109375 54.6875 
L 18.109375 46.1875 
Q 20.953125 51.171875 25.484375 53.578125 
Q 30.03125 56 36.53125 56 
Q 37.453125 56 38.578125 55.875 
Q 39.703125 55.765625 41.0625 55.515625 
z
" id="DejaVuSans-114"/>
      <path d="M 34.28125 27.484375 
Q 23.390625 27.484375 19.1875 25 
Q 14.984375 22.515625 14.984375 16.5 
Q 14.984375 11.71875 18.140625 8.90625 
Q 21.296875 6.109375 26.703125 6.109375 
Q 34.1875 6.109375 38.703125 11.40625 
Q 43.21875 16.703125 43.21875 25.484375 
L 43.21875 27.484375 
z
M 52.203125 31.203125 
L 52.203125 0 
L 43.21875 0 
L 43.21875 8.296875 
Q 40.140625 3.328125 35.546875 0.953125 
Q 30.953125 -1.421875 24.3125 -1.421875 
Q 15.921875 -1.421875 10.953125 3.296875 
Q 6 8.015625 6 15.921875 
Q 6 25.140625 12.171875 29.828125 
Q 18.359375 34.515625 30.609375 34.515625 
L 43.21875 34.515625 
L 43.21875 35.40625 
Q 43.21875 41.609375 39.140625 45 
Q 35.0625 48.390625 27.6875 48.390625 
Q 23 48.390625 18.546875 47.265625 
Q 14.109375 46.140625 10.015625 43.890625 
L 10.015625 52.203125 
Q 14.9375 54.109375 19.578125 55.046875 
Q 24.21875 56 28.609375 56 
Q 40.484375 56 46.34375 49.84375 
Q 52.203125 43.703125 52.203125 31.203125 
z
" id="DejaVuSans-97"/>
     </defs>
     <g transform="translate(213.311562 334.578963)scale(0.1 -0.1)">
      <use xlink:href="#DejaVuSans-77"/>
      <use x="86.279297" xlink:href="#DejaVuSans-117"/>
      <use x="149.658203" xlink:href="#DejaVuSans-101"/>
      <use x="211.181641" xlink:href="#DejaVuSans-115"/>
      <use x="263.28125" xlink:href="#DejaVuSans-116"/>
      <use x="302.490234" xlink:href="#DejaVuSans-114"/>
      <use x="343.603516" xlink:href="#DejaVuSans-97"/>
      <use x="404.882812" xlink:href="#DejaVuSans-115"/>
     </g>
    </g>
   </g>
   <g id="matplotlib.axis_2">
    <g id="ytick_1">
     <g id="line2d_8">
      <defs>
       <path d="M 0 0 
L -3.5 0 
" id="mcef47ded3a" style="stroke:#000000;stroke-width:0.8;"/>
      </defs>
      <g>
       <use style="stroke:#000000;stroke-width:0.8;" x="57.6" xlink:href="#mcef47ded3a" y="271.165432"/>
      </g>
     </g>
     <g id="text_9">
      <!-- 26 -->
      <g transform="translate(37.875 274.964651)scale(0.1 -0.1)">
       <use xlink:href="#DejaVuSans-50"/>
       <use x="63.623047" xlink:href="#DejaVuSans-54"/>
      </g>
     </g>
    </g>
    <g id="ytick_2">
     <g id="line2d_9">
      <g>
       <use style="stroke:#000000;stroke-width:0.8;" x="57.6" xlink:href="#mcef47ded3a" y="223.554365"/>
      </g>
     </g>
     <g id="text_10">
      <!-- 28 -->
      <g transform="translate(37.875 227.353584)scale(0.1 -0.1)">
       <use xlink:href="#DejaVuSans-50"/>
       <use x="63.623047" xlink:href="#DejaVuSans-56"/>
      </g>
     </g>
    </g>
    <g id="ytick_3">
     <g id="line2d_10">
      <g>
       <use style="stroke:#000000;stroke-width:0.8;" x="57.6" xlink:href="#mcef47ded3a" y="175.943298"/>
      </g>
     </g>
     <g id="text_11">
      <!-- 30 -->
      <defs>
       <path d="M 40.578125 39.3125 
Q 47.65625 37.796875 51.625 33 
Q 55.609375 28.21875 55.609375 21.1875 
Q 55.609375 10.40625 48.1875 4.484375 
Q 40.765625 -1.421875 27.09375 -1.421875 
Q 22.515625 -1.421875 17.65625 -0.515625 
Q 12.796875 0.390625 7.625 2.203125 
L 7.625 11.71875 
Q 11.71875 9.328125 16.59375 8.109375 
Q 21.484375 6.890625 26.8125 6.890625 
Q 36.078125 6.890625 40.9375 10.546875 
Q 45.796875 14.203125 45.796875 21.1875 
Q 45.796875 27.640625 41.28125 31.265625 
Q 36.765625 34.90625 28.71875 34.90625 
L 20.21875 34.90625 
L 20.21875 43.015625 
L 29.109375 43.015625 
Q 36.375 43.015625 40.234375 45.921875 
Q 44.09375 48.828125 44.09375 54.296875 
Q 44.09375 59.90625 40.109375 62.90625 
Q 36.140625 65.921875 28.71875 65.921875 
Q 24.65625 65.921875 20.015625 65.03125 
Q 15.375 64.15625 9.8125 62.3125 
L 9.8125 71.09375 
Q 15.4375 72.65625 20.34375 73.4375 
Q 25.25 74.21875 29.59375 74.21875 
Q 40.828125 74.21875 47.359375 69.109375 
Q 53.90625 64.015625 53.90625 55.328125 
Q 53.90625 49.265625 50.4375 45.09375 
Q 46.96875 40.921875 40.578125 39.3125 
z
" id="DejaVuSans-51"/>
      </defs>
      <g transform="translate(37.875 179.742517)scale(0.1 -0.1)">
       <use xlink:href="#DejaVuSans-51"/>
       <use x="63.623047" xlink:href="#DejaVuSans-48"/>
      </g>
     </g>
    </g>
    <g id="ytick_4">
     <g id="line2d_11">
      <g>
       <use style="stroke:#000000;stroke-width:0.8;" x="57.6" xlink:href="#mcef47ded3a" y="128.332231"/>
      </g>
     </g>
     <g id="text_12">
      <!-- 32 -->
      <g transform="translate(37.875 132.13145)scale(0.1 -0.1)">
       <use xlink:href="#DejaVuSans-51"/>
       <use x="63.623047" xlink:href="#DejaVuSans-50"/>
      </g>
     </g>
    </g>
    <g id="ytick_5">
     <g id="line2d_12">
      <g>
       <use style="stroke:#000000;stroke-width:0.8;" x="57.6" xlink:href="#mcef47ded3a" y="80.721164"/>
      </g>
     </g>
     <g id="text_13">
      <!-- 34 -->
      <g transform="translate(37.875 84.520382)scale(0.1 -0.1)">
       <use xlink:href="#DejaVuSans-51"/>
       <use x="63.623047" xlink:href="#DejaVuSans-52"/>
      </g>
     </g>
    </g>
    <g id="text_14">
     <!-- Valor de Temperatura -->
     <defs>
      <path d="M 28.609375 0 
L 0.78125 72.90625 
L 11.078125 72.90625 
L 34.1875 11.53125 
L 57.328125 72.90625 
L 67.578125 72.90625 
L 39.796875 0 
z
" id="DejaVuSans-86"/>
      <path d="M 9.421875 75.984375 
L 18.40625 75.984375 
L 18.40625 0 
L 9.421875 0 
z
" id="DejaVuSans-108"/>
      <path d="M 30.609375 48.390625 
Q 23.390625 48.390625 19.1875 42.75 
Q 14.984375 37.109375 14.984375 27.296875 
Q 14.984375 17.484375 19.15625 11.84375 
Q 23.34375 6.203125 30.609375 6.203125 
Q 37.796875 6.203125 41.984375 11.859375 
Q 46.1875 17.53125 46.1875 27.296875 
Q 46.1875 37.015625 41.984375 42.703125 
Q 37.796875 48.390625 30.609375 48.390625 
z
M 30.609375 56 
Q 42.328125 56 49.015625 48.375 
Q 55.71875 40.765625 55.71875 27.296875 
Q 55.71875 13.875 49.015625 6.21875 
Q 42.328125 -1.421875 30.609375 -1.421875 
Q 18.84375 -1.421875 12.171875 6.21875 
Q 5.515625 13.875 5.515625 27.296875 
Q 5.515625 40.765625 12.171875 48.375 
Q 18.84375 56 30.609375 56 
z
" id="DejaVuSans-111"/>
      <path id="DejaVuSans-32"/>
      <path d="M 45.40625 46.390625 
L 45.40625 75.984375 
L 54.390625 75.984375 
L 54.390625 0 
L 45.40625 0 
L 45.40625 8.203125 
Q 42.578125 3.328125 38.25 0.953125 
Q 33.9375 -1.421875 27.875 -1.421875 
Q 17.96875 -1.421875 11.734375 6.484375 
Q 5.515625 14.40625 5.515625 27.296875 
Q 5.515625 40.1875 11.734375 48.09375 
Q 17.96875 56 27.875 56 
Q 33.9375 56 38.25 53.625 
Q 42.578125 51.265625 45.40625 46.390625 
z
M 14.796875 27.296875 
Q 14.796875 17.390625 18.875 11.75 
Q 22.953125 6.109375 30.078125 6.109375 
Q 37.203125 6.109375 41.296875 11.75 
Q 45.40625 17.390625 45.40625 27.296875 
Q 45.40625 37.203125 41.296875 42.84375 
Q 37.203125 48.484375 30.078125 48.484375 
Q 22.953125 48.484375 18.875 42.84375 
Q 14.796875 37.203125 14.796875 27.296875 
z
" id="DejaVuSans-100"/>
      <path d="M -0.296875 72.90625 
L 61.375 72.90625 
L 61.375 64.59375 
L 35.5 64.59375 
L 35.5 0 
L 25.59375 0 
L 25.59375 64.59375 
L -0.296875 64.59375 
z
" id="DejaVuSans-84"/>
      <path d="M 52 44.1875 
Q 55.375 50.25 60.0625 53.125 
Q 64.75 56 71.09375 56 
Q 79.640625 56 84.28125 50.015625 
Q 88.921875 44.046875 88.921875 33.015625 
L 88.921875 0 
L 79.890625 0 
L 79.890625 32.71875 
Q 79.890625 40.578125 77.09375 44.375 
Q 74.3125 48.1875 68.609375 48.1875 
Q 61.625 48.1875 57.5625 43.546875 
Q 53.515625 38.921875 53.515625 30.90625 
L 53.515625 0 
L 44.484375 0 
L 44.484375 32.71875 
Q 44.484375 40.625 41.703125 44.40625 
Q 38.921875 48.1875 33.109375 48.1875 
Q 26.21875 48.1875 22.15625 43.53125 
Q 18.109375 38.875 18.109375 30.90625 
L 18.109375 0 
L 9.078125 0 
L 9.078125 54.6875 
L 18.109375 54.6875 
L 18.109375 46.1875 
Q 21.1875 51.21875 25.484375 53.609375 
Q 29.78125 56 35.6875 56 
Q 41.65625 56 45.828125 52.96875 
Q 50 49.953125 52 44.1875 
z
" id="DejaVuSans-109"/>
      <path d="M 18.109375 8.203125 
L 18.109375 -20.796875 
L 9.078125 -20.796875 
L 9.078125 54.6875 
L 18.109375 54.6875 
L 18.109375 46.390625 
Q 20.953125 51.265625 25.265625 53.625 
Q 29.59375 56 35.59375 56 
Q 45.5625 56 51.78125 48.09375 
Q 58.015625 40.1875 58.015625 27.296875 
Q 58.015625 14.40625 51.78125 6.484375 
Q 45.5625 -1.421875 35.59375 -1.421875 
Q 29.59375 -1.421875 25.265625 0.953125 
Q 20.953125 3.328125 18.109375 8.203125 
z
M 48.6875 27.296875 
Q 48.6875 37.203125 44.609375 42.84375 
Q 40.53125 48.484375 33.40625 48.484375 
Q 26.265625 48.484375 22.1875 42.84375 
Q 18.109375 37.203125 18.109375 27.296875 
Q 18.109375 17.390625 22.1875 11.75 
Q 26.265625 6.109375 33.40625 6.109375 
Q 40.53125 6.109375 44.609375 11.75 
Q 48.6875 17.390625 48.6875 27.296875 
z
" id="DejaVuSans-112"/>
     </defs>
     <g transform="translate(31.795312 228.818769)rotate(-90)scale(0.1 -0.1)">
      <use xlink:href="#DejaVuSans-86"/>
      <use x="68.298828" xlink:href="#DejaVuSans-97"/>
      <use x="129.578125" xlink:href="#DejaVuSans-108"/>
      <use x="157.361328" xlink:href="#DejaVuSans-111"/>
      <use x="218.542969" xlink:href="#DejaVuSans-114"/>
      <use x="259.65625" xlink:href="#DejaVuSans-32"/>
      <use x="291.443359" xlink:href="#DejaVuSans-100"/>
      <use x="354.919922" xlink:href="#DejaVuSans-101"/>
      <use x="416.443359" xlink:href="#DejaVuSans-32"/>
      <use x="448.230469" xlink:href="#DejaVuSans-84"/>
      <use x="509.048828" xlink:href="#DejaVuSans-101"/>
      <use x="570.572266" xlink:href="#DejaVuSans-109"/>
      <use x="667.984375" xlink:href="#DejaVuSans-112"/>
      <use x="731.460938" xlink:href="#DejaVuSans-101"/>
      <use x="792.984375" xlink:href="#DejaVuSans-114"/>
      <use x="834.097656" xlink:href="#DejaVuSans-97"/>
      <use x="895.376953" xlink:href="#DejaVuSans-116"/>
      <use x="934.585938" xlink:href="#DejaVuSans-117"/>
      <use x="997.964844" xlink:href="#DejaVuSans-114"/>
      <use x="1039.078125" xlink:href="#DejaVuSans-97"/>
     </g>
    </g>
   </g>
   <g id="line2d_13">
    <path clip-path="url(#p11f353db3e)" d="M 73.832727 294.2568 
L 73.957777 294.2568 
L 74.082827 293.780689 
L 74.558017 293.780689 
L 74.658057 292.352357 
L 74.758097 293.304579 
L 74.883146 291.876247 
L 75.158256 291.876247 
L 75.283306 290.924025 
L 75.558416 290.924025 
L 75.683466 289.971804 
L 75.858536 289.971804 
L 75.983586 289.019583 
L 76.058615 289.019583 
L 76.183665 288.543472 
L 76.458775 288.543472 
L 76.608835 287.591251 
L 76.658855 287.591251 
L 76.758895 288.067361 
L 76.883945 286.639029 
L 77.059015 286.639029 
L 77.209075 285.686808 
L 77.259094 285.686808 
L 77.409154 284.734587 
L 77.559214 284.734587 
L 77.709274 283.782365 
L 77.759294 283.782365 
L 77.859334 284.258476 
L 77.984384 283.782365 
L 78.059414 283.782365 
L 78.184464 282.354033 
L 78.259494 282.354033 
L 78.359534 282.830144 
L 78.509593 281.877923 
L 78.559613 281.877923 
L 78.709673 280.925701 
L 78.759693 280.925701 
L 78.859733 280.449591 
L 78.959773 280.925701 
L 79.084823 279.497369 
L 79.159853 279.497369 
L 79.284903 279.97348 
L 79.359933 279.97348 
L 79.509993 278.069037 
L 79.560013 278.069037 
L 79.660053 278.545148 
L 79.810112 277.592926 
L 79.860132 277.592926 
L 79.985182 277.116816 
L 80.060212 277.116816 
L 80.185262 276.640705 
L 80.260292 276.640705 
L 80.385342 275.212373 
L 80.460372 275.212373 
L 80.560412 275.688484 
L 80.685462 275.212373 
L 80.860532 275.212373 
L 80.960571 274.260152 
L 81.060611 274.736262 
L 81.185661 273.30793 
L 81.260691 273.30793 
L 81.360731 272.83182 
L 81.460771 273.784041 
L 81.585821 272.355709 
L 81.660851 272.355709 
L 81.810911 271.403488 
L 81.860931 271.403488 
L 81.960971 271.879598 
L 82.086021 271.403488 
L 82.16105 271.403488 
L 82.2861 269.975156 
L 82.36113 269.975156 
L 82.48618 269.499045 
L 82.56121 269.499045 
L 82.68626 269.022934 
L 82.76129 269.022934 
L 82.88634 268.546824 
L 82.96137 268.546824 
L 83.08642 268.070713 
L 83.16145 268.070713 
L 83.26149 266.642381 
L 83.36153 267.594602 
L 83.486579 266.16627 
L 83.561609 266.16627 
L 83.661649 266.642381 
L 83.786699 266.16627 
L 83.861729 266.16627 
L 84.011789 265.214049 
L 84.061809 265.214049 
L 84.186859 264.737938 
L 84.361929 264.737938 
L 84.511989 263.785717 
L 84.562009 263.785717 
L 84.687058 263.309606 
L 84.962168 263.309606 
L 85.087218 262.357385 
L 85.162248 262.357385 
L 85.287298 261.881274 
L 85.362328 261.881274 
L 85.487378 261.405164 
L 85.562408 261.405164 
L 85.687458 260.929053 
L 85.762488 260.929053 
L 85.862527 259.976832 
L 85.962567 260.452942 
L 86.087617 259.500721 
L 86.162647 259.500721 
L 86.287697 259.02461 
L 86.462767 259.02461 
L 86.587817 258.5485 
L 86.662847 258.5485 
L 86.812907 257.596278 
L 86.962967 257.596278 
L 87.088016 257.120168 
L 87.263086 257.120168 
L 87.438156 255.691836 
L 87.663246 255.691836 
L 87.813306 254.739614 
L 88.063406 254.739614 
L 88.188456 254.263504 
L 88.363525 254.263504 
L 88.513585 253.311282 
L 88.763685 253.311282 
L 88.913745 252.359061 
L 89.063805 252.359061 
L 89.213865 251.40684 
L 89.363925 251.40684 
L 89.463965 251.88295 
L 89.589014 250.930729 
L 89.664044 250.930729 
L 89.789094 250.454618 
L 90.064204 250.454618 
L 90.189254 249.978508 
L 90.264284 249.978508 
L 90.414344 249.026286 
L 90.664444 249.026286 
L 90.839513 247.597954 
L 90.864523 247.597954 
L 90.964563 248.074065 
L 91.089613 247.597954 
L 91.164643 247.597954 
L 91.264683 247.121843 
L 91.364723 247.597954 
L 91.464763 246.645733 
L 91.564803 247.121843 
L 91.714863 246.169622 
L 91.764883 246.169622 
L 91.864923 245.693511 
L 91.964962 246.645733 
L 92.090012 245.217401 
L 92.365122 245.217401 
L 92.490172 244.74129 
L 92.565202 244.74129 
L 92.665242 245.217401 
L 92.790292 244.265179 
L 92.965362 244.265179 
L 93.140432 242.836847 
L 93.165442 242.836847 
L 93.265481 243.789069 
L 93.415541 242.836847 
L 93.565601 242.836847 
L 93.715661 241.884626 
L 93.765681 241.884626 
L 93.865721 242.360737 
L 93.990771 241.884626 
L 94.065801 241.884626 
L 94.215861 240.932405 
L 94.46596 240.932405 
L 94.59101 240.456294 
L 94.76608 240.456294 
L 94.89113 239.980183 
L 94.96616 239.980183 
L 95.09121 239.504073 
L 95.26628 239.504073 
L 95.36632 238.551851 
L 95.49137 239.027962 
L 95.666439 239.027962 
L 95.791489 238.551851 
L 95.866519 238.551851 
L 95.966559 237.59963 
L 96.066599 238.075741 
L 96.191649 237.59963 
L 96.366719 237.59963 
L 96.491769 237.123519 
L 96.566799 237.123519 
L 96.691849 236.647409 
L 96.766879 236.647409 
L 96.891928 236.171298 
L 96.966958 236.171298 
L 97.092008 235.695187 
L 97.467158 235.695187 
L 97.567198 234.742966 
L 97.667238 235.219077 
L 97.767278 234.742966 
L 97.867318 235.219077 
L 98.017378 234.266855 
L 98.167437 234.266855 
L 98.267477 233.790745 
L 98.367517 234.266855 
L 98.517577 233.314634 
L 98.867717 233.314634 
L 98.992767 232.838523 
L 99.067797 232.838523 
L 99.217857 231.886302 
L 99.367916 231.886302 
L 99.492966 232.362413 
L 99.567996 232.362413 
L 99.693046 231.410191 
L 99.768076 231.410191 
L 99.868116 231.886302 
L 99.993166 230.934081 
L 100.068196 230.934081 
L 100.168236 230.45797 
L 100.293286 230.934081 
L 100.368316 230.934081 
L 100.493366 230.45797 
L 100.668435 230.45797 
L 100.793485 229.981859 
L 100.868515 229.981859 
L 100.993565 229.505749 
L 101.068595 229.505749 
L 101.193645 229.029638 
L 101.268675 229.029638 
L 101.368715 228.553527 
L 101.468755 229.029638 
L 101.568795 228.553527 
L 101.668835 229.029638 
L 101.793884 228.553527 
L 101.868914 228.553527 
L 101.993964 228.077417 
L 102.369114 228.077417 
L 102.494164 227.601306 
L 102.569194 227.601306 
L 102.694244 227.125195 
L 102.769274 227.125195 
L 102.869314 226.649085 
L 102.969354 227.125195 
L 103.094403 226.649085 
L 103.269473 226.649085 
L 103.369513 225.696863 
L 103.494563 226.172974 
L 103.569593 226.172974 
L 103.694643 225.696863 
L 103.869713 225.696863 
L 103.969753 225.220753 
L 104.069793 226.172974 
L 104.194843 225.220753 
L 104.269872 225.220753 
L 104.419932 224.268531 
L 104.569992 224.268531 
L 104.670032 224.744642 
L 104.795082 224.268531 
L 104.870112 224.268531 
L 104.970152 223.792421 
L 105.095202 224.268531 
L 105.270272 224.268531 
L 105.395322 223.792421 
L 105.570391 223.792421 
L 105.670431 222.840199 
L 105.795481 223.31631 
L 105.870511 223.31631 
L 105.970551 222.840199 
L 106.070591 223.792421 
L 106.220651 222.840199 
L 106.370711 222.840199 
L 106.495761 222.364089 
L 106.570791 222.364089 
L 106.670831 221.887978 
L 106.79588 222.364089 
L 106.87091 222.364089 
L 106.97095 221.887978 
L 107.096 222.364089 
L 107.17103 222.364089 
L 107.29608 221.887978 
L 107.47115 221.887978 
L 107.62121 220.935757 
L 107.67123 220.935757 
L 107.77127 221.411867 
L 107.87131 220.459646 
L 107.971349 220.935757 
L 108.071389 219.983535 
L 108.171429 220.459646 
L 108.271469 219.983535 
L 108.396519 220.459646 
L 108.571589 220.459646 
L 108.671629 219.983535 
L 108.796679 220.459646 
L 108.871709 220.459646 
L 108.996759 219.983535 
L 109.171828 219.983535 
L 109.271868 219.031314 
L 109.371908 219.507425 
L 109.471948 219.031314 
L 109.571988 219.507425 
L 109.697038 219.031314 
L 109.872108 219.031314 
L 110.022168 218.079092 
L 110.072188 218.079092 
L 110.172228 218.555203 
L 110.297278 218.079092 
L 110.472347 218.079092 
L 110.572387 218.555203 
L 110.697437 218.079092 
L 110.772467 218.079092 
L 110.872507 217.602982 
L 110.997557 218.079092 
L 111.072587 218.079092 
L 111.197637 217.602982 
L 111.472747 217.602982 
L 111.622806 216.65076 
L 111.672826 216.65076 
L 111.797876 217.126871 
L 111.972946 217.126871 
L 112.072986 216.65076 
L 112.173026 217.126871 
L 112.298076 215.698539 
L 112.473146 215.698539 
L 112.573186 216.65076 
L 112.723246 215.698539 
L 113.073385 215.698539 
L 113.173425 215.222428 
L 113.273465 215.698539 
L 113.398515 215.222428 
L 113.773665 215.222428 
L 113.898715 214.746318 
L 113.973745 214.746318 
L 114.098794 214.270207 
L 114.173824 214.270207 
L 114.273864 214.746318 
L 114.373904 213.794096 
L 114.498954 214.270207 
L 114.573984 214.270207 
L 114.674024 213.794096 
L 114.799074 214.270207 
L 114.874104 214.270207 
L 114.974144 213.317986 
L 115.099194 213.794096 
L 115.174224 213.794096 
L 115.299273 213.317986 
L 115.574383 213.317986 
L 115.699433 212.365764 
L 115.774463 212.365764 
L 115.874503 212.841875 
L 115.974543 212.365764 
L 116.074583 212.841875 
L 116.199633 212.365764 
L 116.274663 212.365764 
L 116.374703 211.889654 
L 116.474743 212.365764 
L 116.599792 211.413543 
L 116.674822 211.413543 
L 116.774862 210.937432 
L 116.874902 211.889654 
L 116.999952 211.413543 
L 117.074982 211.413543 
L 117.200032 210.937432 
L 117.375102 210.937432 
L 117.500152 210.461322 
L 117.675222 210.461322 
L 117.825281 209.5091 
L 117.875301 209.5091 
L 118.000351 209.985211 
L 118.175421 209.985211 
L 118.300471 209.03299 
L 118.375501 209.03299 
L 118.475541 209.5091 
L 118.600591 209.03299 
L 118.875701 209.03299 
L 119.00075 208.556879 
L 119.27586 208.556879 
L 119.40091 208.080768 
L 119.67602 208.080768 
L 119.77606 207.604658 
L 119.8761 208.556879 
L 120.00115 207.604658 
L 120.07618 207.604658 
L 120.226239 206.652436 
L 120.276259 206.652436 
L 120.376299 207.604658 
L 120.526359 206.652436 
L 120.776459 206.652436 
L 120.876499 207.128547 
L 121.001549 206.176326 
L 121.076579 206.176326 
L 121.201629 205.700215 
L 121.276659 205.700215 
L 121.401709 206.176326 
L 121.576778 206.176326 
L 121.676818 205.224104 
L 121.776858 205.700215 
L 121.901908 205.224104 
L 121.976938 205.224104 
L 122.101988 204.747994 
L 122.177018 204.747994 
L 122.277058 204.271883 
L 122.377098 205.224104 
L 122.477138 204.271883 
L 122.577178 204.747994 
L 122.677217 204.271883 
L 122.802267 204.747994 
L 122.877297 204.747994 
L 123.052367 203.319662 
L 123.077377 203.319662 
L 123.177417 203.795772 
L 123.302467 203.319662 
L 123.377497 203.319662 
L 123.477537 203.795772 
L 123.627597 202.843551 
L 123.677617 202.843551 
L 123.802667 203.795772 
L 123.877696 203.795772 
L 124.002746 203.319662 
L 124.177816 203.319662 
L 124.327876 202.36744 
L 124.377896 202.36744 
L 124.477936 202.843551 
L 124.602986 202.36744 
L 124.878096 202.36744 
L 125.003146 201.89133 
L 125.078176 201.89133 
L 125.178215 202.36744 
L 125.328275 201.415219 
L 125.478335 201.415219 
L 125.578375 201.89133 
L 125.603385 201.415219 
L 125.728435 134.283614 
L 125.753445 134.283614 
L 125.853485 134.759725 
L 125.953525 134.283614 
L 126.053565 134.759725 
L 126.178615 134.283614 
L 126.553764 134.283614 
L 126.653804 133.807504 
L 126.778854 134.283614 
L 126.853884 134.283614 
L 126.953924 133.807504 
L 127.053964 134.759725 
L 127.154004 133.807504 
L 127.279054 134.283614 
L 127.454124 134.283614 
L 127.579173 133.807504 
L 127.654203 133.807504 
L 127.754243 134.283614 
L 127.854283 133.807504 
L 127.954323 134.283614 
L 128.054363 133.807504 
L 128.154403 134.283614 
L 128.279453 133.807504 
L 128.454523 133.807504 
L 128.554563 133.331393 
L 128.654603 133.807504 
L 128.754643 132.855282 
L 128.854682 133.807504 
L 128.979732 132.855282 
L 129.054762 132.855282 
L 129.179812 133.807504 
L 129.254842 133.807504 
L 129.379892 133.331393 
L 129.454922 133.331393 
L 129.579972 132.855282 
L 129.655002 132.855282 
L 129.780052 133.331393 
L 129.855082 133.331393 
L 129.980132 132.855282 
L 130.255241 132.855282 
L 130.355281 132.379172 
L 130.480331 132.855282 
L 130.855481 132.855282 
L 131.005541 131.903061 
L 131.35568 131.903061 
L 131.45572 132.379172 
L 131.58077 131.903061 
L 131.85588 131.903061 
L 131.95592 131.42695 
L 132.05596 131.903061 
L 132.18101 131.42695 
L 132.35608 131.42695 
L 132.481129 130.95084 
L 132.656199 130.95084 
L 132.781249 131.42695 
L 132.856279 131.42695 
L 132.956319 130.95084 
L 133.081369 131.42695 
L 133.256439 131.42695 
L 133.406499 130.474729 
L 133.456519 130.474729 
L 133.581569 130.95084 
L 133.956718 130.95084 
L 134.056758 129.998618 
L 134.156798 130.474729 
L 134.281848 129.998618 
L 134.356878 129.998618 
L 134.456918 130.474729 
L 134.581968 129.998618 
L 135.257237 129.998618 
L 135.382287 129.522508 
L 135.457317 129.522508 
L 135.582367 129.998618 
L 135.657397 129.998618 
L 135.807457 129.046397 
L 135.857477 129.046397 
L 135.957517 129.522508 
L 136.082567 129.046397 
L 136.157596 129.046397 
L 136.257636 129.522508 
L 136.382686 129.046397 
L 136.457716 129.046397 
L 136.582766 129.522508 
L 136.657796 129.522508 
L 136.757836 129.046397 
L 136.857876 129.522508 
L 136.982926 129.046397 
L 137.057956 129.046397 
L 137.157996 128.570286 
L 137.258036 129.046397 
L 137.358076 128.332231 
L 137.383085 128.570286 
L 137.558155 128.570286 
L 137.658195 128.332231 
L 137.783245 128.570286 
L 138.058355 128.570286 
L 138.158395 129.046397 
L 138.283445 128.332231 
L 138.358475 128.332231 
L 138.458515 129.046397 
L 138.583565 128.570286 
L 138.958714 128.570286 
L 139.083764 128.332231 
L 139.158794 128.332231 
L 139.258834 127.618065 
L 139.383884 128.570286 
L 139.458914 128.570286 
L 139.583964 128.332231 
L 140.559353 128.332231 
L 140.659393 127.618065 
L 140.759433 128.332231 
L 140.859473 127.618065 
L 140.959513 128.570286 
L 140.984523 128.332231 
L 141.059552 128.332231 
L 141.184602 127.618065 
L 141.259632 127.618065 
L 141.384682 128.332231 
L 141.759832 128.332231 
L 141.859872 127.141954 
L 141.884882 127.618065 
L 141.959912 127.618065 
L 142.059952 128.332231 
L 142.185002 127.618065 
L 142.360071 127.618065 
L 142.485121 128.332231 
L 142.660191 128.332231 
L 142.760231 128.570286 
L 142.885281 127.618065 
L 142.960311 127.618065 
L 143.085361 128.332231 
L 143.160391 128.332231 
L 143.260431 128.570286 
L 143.360471 127.618065 
L 143.485521 128.332231 
L 143.96071 128.332231 
L 144.08576 128.570286 
L 144.16079 128.570286 
L 144.28584 128.332231 
L 144.36087 128.332231 
L 144.46091 127.618065 
L 144.58596 128.332231 
L 144.66099 128.332231 
L 144.761029 127.141954 
L 144.861069 128.332231 
L 144.961109 127.618065 
L 145.086159 128.332231 
L 145.261229 128.332231 
L 145.386279 127.618065 
L 145.461309 127.618065 
L 145.561349 128.332231 
L 145.661389 127.618065 
L 145.761429 128.332231 
L 145.861469 127.618065 
L 145.961508 128.332231 
L 146.061548 127.618065 
L 146.161588 128.332231 
L 146.261628 127.618065 
L 146.361668 128.570286 
L 146.386678 128.332231 
L 146.461708 128.332231 
L 146.561748 127.618065 
L 146.686798 128.570286 
L 146.961908 128.570286 
L 147.061948 127.618065 
L 147.186997 128.332231 
L 147.362067 128.332231 
L 147.462107 128.570286 
L 147.587157 128.332231 
L 147.762227 128.332231 
L 147.862267 128.570286 
L 147.987317 128.332231 
L 148.162387 128.332231 
L 148.262427 129.046397 
L 148.387477 128.570286 
L 148.462506 128.570286 
L 148.587556 128.332231 
L 148.662586 128.332231 
L 148.762626 128.570286 
L 148.862666 128.332231 
L 148.962706 129.046397 
L 149.087756 128.332231 
L 149.162786 128.332231 
L 149.287836 129.046397 
L 149.462906 129.046397 
L 149.587956 128.570286 
L 149.763025 128.570286 
L 149.863065 129.046397 
L 149.963105 128.570286 
L 150.063145 129.046397 
L 150.188195 128.570286 
L 150.263225 128.570286 
L 150.363265 129.522508 
L 150.488315 129.046397 
L 150.763425 129.046397 
L 150.863465 129.522508 
L 150.963504 129.046397 
L 151.063544 129.522508 
L 151.188594 129.046397 
L 151.263624 129.046397 
L 151.363664 129.998618 
L 151.513724 129.046397 
L 151.563744 129.046397 
L 151.663784 129.998618 
L 151.788834 129.522508 
L 152.264023 129.522508 
L 152.389073 129.998618 
L 152.464103 129.998618 
L 152.564143 129.522508 
L 152.689193 129.998618 
L 153.064343 129.998618 
L 153.164383 130.474729 
L 153.264423 129.998618 
L 153.364462 130.474729 
L 153.464502 129.998618 
L 153.589552 130.474729 
L 153.864662 130.474729 
L 153.964702 130.95084 
L 154.064742 130.474729 
L 154.189792 130.95084 
L 154.364862 130.95084 
L 154.464902 131.42695 
L 154.614961 130.474729 
L 154.664981 130.474729 
L 154.765021 130.95084 
L 154.865061 130.474729 
L 155.015121 131.42695 
L 155.065141 131.42695 
L 155.165181 130.95084 
L 155.290231 131.42695 
L 155.465301 131.42695 
L 155.565341 130.95084 
L 155.715401 131.903061 
L 155.765421 131.903061 
L 155.86546 131.42695 
L 155.9655 131.903061 
L 156.09055 131.42695 
L 156.16558 131.42695 
L 156.29063 131.903061 
L 156.56574 131.903061 
L 156.69079 132.379172 
L 156.9659 132.379172 
L 157.065939 132.855282 
L 157.165979 132.379172 
L 157.291029 132.855282 
L 157.766219 132.855282 
L 157.891269 133.331393 
L 157.966299 133.331393 
L 158.091349 133.807504 
L 158.166379 133.807504 
L 158.291428 133.331393 
L 158.666578 133.331393 
L 158.791628 133.807504 
L 159.066738 133.807504 
L 159.166778 133.331393 
L 159.266818 134.283614 
L 159.366858 133.807504 
L 159.491907 134.759725 
L 159.566937 134.759725 
L 159.666977 134.283614 
L 159.792027 134.759725 
L 159.867057 134.759725 
L 159.967097 135.235836 
L 160.092147 134.759725 
L 160.267217 134.759725 
L 160.392267 135.235836 
L 160.467297 135.235836 
L 160.567337 134.283614 
L 160.692386 134.759725 
L 160.767416 134.759725 
L 160.892466 135.235836 
L 161.367656 135.235836 
L 161.467696 134.759725 
L 161.567736 135.711946 
L 161.667776 135.235836 
L 161.767816 136.188057 
L 161.892866 135.711946 
L 162.067935 135.711946 
L 162.167975 136.188057 
L 162.293025 135.711946 
L 162.368055 135.711946 
L 162.493105 136.188057 
L 162.668175 136.188057 
L 162.768215 135.711946 
L 162.918275 136.664168 
L 162.968295 136.664168 
L 163.093345 136.188057 
L 163.168374 136.188057 
L 163.293424 136.664168 
L 163.568534 136.664168 
L 163.693584 137.140278 
L 163.768614 137.140278 
L 163.893664 136.664168 
L 164.068734 136.664168 
L 164.168774 136.188057 
L 164.268814 137.616389 
L 164.293824 137.140278 
L 164.368853 137.140278 
L 164.493903 137.616389 
L 164.568933 137.616389 
L 164.668973 137.140278 
L 164.794023 137.616389 
L 164.869053 137.616389 
L 164.994103 138.0925 
L 165.069133 138.0925 
L 165.194183 137.616389 
L 165.269213 137.616389 
L 165.394263 138.0925 
L 165.669372 138.0925 
L 165.794422 137.616389 
L 165.869452 137.616389 
L 165.969492 138.56861 
L 166.069532 138.0925 
L 166.169572 138.56861 
L 166.294622 138.0925 
L 166.469692 138.0925 
L 166.594742 138.56861 
L 166.869851 138.56861 
L 166.969891 139.044721 
L 167.094941 138.56861 
L 167.169971 138.56861 
L 167.295021 139.520832 
L 167.670171 139.520832 
L 167.770211 139.044721 
L 167.895261 139.520832 
L 167.970291 139.520832 
L 168.07033 139.996942 
L 168.19538 139.520832 
L 168.27041 139.520832 
L 168.37045 140.473053 
L 168.47049 139.520832 
L 168.62055 140.473053 
L 168.67057 140.473053 
L 168.79562 139.996942 
L 168.97069 139.996942 
L 169.12075 140.949164 
L 169.17077 140.949164 
L 169.295819 140.473053 
L 169.370849 140.473053 
L 169.470889 140.949164 
L 169.595939 140.473053 
L 169.771009 140.473053 
L 169.871049 141.425274 
L 170.021109 140.473053 
L 170.171169 140.473053 
L 170.271209 141.425274 
L 170.396259 140.949164 
L 170.471289 140.949164 
L 170.596338 141.425274 
L 170.671368 141.425274 
L 170.771408 141.901385 
L 170.871448 140.949164 
L 170.971488 141.901385 
L 171.071528 141.425274 
L 171.171568 141.901385 
L 171.296618 141.425274 
L 171.371648 141.425274 
L 171.471688 141.901385 
L 171.571728 141.425274 
L 171.696778 141.901385 
L 171.771807 141.901385 
L 171.871847 142.377496 
L 171.971887 141.901385 
L 172.096937 142.377496 
L 172.272007 142.377496 
L 172.372047 141.901385 
L 172.472087 142.377496 
L 172.597137 141.901385 
L 172.672167 141.901385 
L 172.772207 142.377496 
L 172.872247 141.901385 
L 173.047316 143.329717 
L 173.072326 143.329717 
L 173.197376 142.377496 
L 173.472486 142.377496 
L 173.597536 143.329717 
L 173.672566 143.329717 
L 173.772606 142.853606 
L 173.872646 143.805828 
L 174.022706 142.853606 
L 174.072726 142.853606 
L 174.172766 143.805828 
L 174.272805 142.853606 
L 174.372845 143.805828 
L 174.497895 143.329717 
L 174.672965 143.329717 
L 174.798015 143.805828 
L 174.873045 143.805828 
L 174.998095 144.281938 
L 175.073125 144.281938 
L 175.173165 143.805828 
L 175.273205 144.758049 
L 175.373245 144.281938 
L 175.473284 144.758049 
L 175.573324 144.281938 
L 175.673364 144.758049 
L 175.773404 144.281938 
L 175.873444 145.23416 
L 175.998494 144.758049 
L 176.173564 144.758049 
L 176.298614 145.23416 
L 176.473684 145.23416 
L 176.573724 144.281938 
L 176.723783 145.23416 
L 177.274003 145.23416 
L 177.424063 146.186381 
L 177.474083 146.186381 
L 177.599133 145.71027 
L 177.674163 145.71027 
L 177.774203 146.186381 
L 177.874242 145.71027 
L 177.974282 146.186381 
L 178.074322 145.71027 
L 178.199372 146.186381 
L 178.274402 146.186381 
L 178.374442 145.71027 
L 178.499492 146.186381 
L 178.574522 146.186381 
L 178.674562 145.71027 
L 178.824622 146.662492 
L 178.874642 146.662492 
L 178.974682 146.186381 
L 179.099731 146.662492 
L 179.875041 146.662492 
L 180.000091 147.138602 
L 180.075121 147.138602 
L 180.175161 146.662492 
L 180.275201 147.138602 
L 180.37524 146.662492 
L 180.50029 147.138602 
L 180.87544 147.138602 
L 180.97548 147.614713 
L 181.10053 147.138602 
L 181.17556 147.138602 
L 181.30061 147.614713 
L 181.37564 147.614713 
L 181.47568 147.138602 
L 181.600729 148.090824 
L 181.875839 148.090824 
L 181.975879 147.614713 
L 182.100929 148.090824 
L 182.175959 148.090824 
L 182.275999 148.566934 
L 182.376039 148.090824 
L 182.501089 148.566934 
L 182.676159 148.566934 
L 182.776198 148.090824 
L 182.901248 148.566934 
L 183.176358 148.566934 
L 183.276398 149.043045 
L 183.376438 148.566934 
L 183.476478 149.043045 
L 183.576518 148.566934 
L 183.701568 149.043045 
L 183.876638 149.043045 
L 183.976678 148.566934 
L 184.101727 149.043045 
L 184.376837 149.043045 
L 184.476877 149.519156 
L 184.601927 149.043045 
L 184.676957 149.043045 
L 184.776997 148.566934 
L 184.902047 149.043045 
L 185.277196 149.043045 
L 185.427256 149.995266 
L 185.477276 149.995266 
L 185.577316 149.043045 
L 185.702366 149.519156 
L 185.977476 149.519156 
L 186.077516 149.043045 
L 186.177556 150.471377 
L 186.277596 149.519156 
L 186.427656 150.471377 
L 186.577715 150.471377 
L 186.677755 149.995266 
L 186.777795 150.947488 
L 186.877835 149.995266 
L 187.027895 150.947488 
L 187.077915 150.947488 
L 187.202965 150.471377 
L 187.277995 150.471377 
L 187.378035 150.947488 
L 187.478075 150.471377 
L 187.578115 151.423598 
L 187.678155 150.471377 
L 187.803204 150.947488 
L 188.378434 150.947488 
L 188.478474 151.423598 
L 188.578514 150.947488 
L 188.703564 151.423598 
L 189.078713 151.423598 
L 189.178753 151.899709 
L 189.278793 150.947488 
L 189.428853 151.899709 
L 189.578913 151.899709 
L 189.678953 150.947488 
L 189.854023 152.37582 
L 189.879033 152.37582 
L 190.004083 151.899709 
L 190.279192 151.899709 
L 190.379232 152.37582 
L 190.479272 151.423598 
L 190.629332 152.37582 
L 190.879432 152.37582 
L 191.004482 151.899709 
L 191.079512 151.899709 
L 191.204562 152.37582 
L 191.679751 152.37582 
L 191.779791 152.85193 
L 191.904841 152.37582 
L 191.979871 152.37582 
L 192.104921 152.85193 
L 192.179951 152.85193 
L 192.305001 152.37582 
L 192.480071 152.37582 
L 192.580111 152.85193 
L 192.68015 152.37582 
L 192.78019 153.328041 
L 192.88023 152.85193 
L 192.98027 153.328041 
L 193.08031 152.85193 
L 193.20536 153.328041 
L 193.58051 153.328041 
L 193.68055 153.804152 
L 193.78059 152.85193 
L 193.930649 153.804152 
L 193.980669 153.804152 
L 194.130729 152.85193 
L 194.180749 152.85193 
L 194.305799 153.804152 
L 194.380829 153.804152 
L 194.480869 153.328041 
L 194.580909 154.280262 
L 194.680949 153.328041 
L 194.831009 154.280262 
L 194.981069 154.280262 
L 195.106118 153.804152 
L 195.181148 153.804152 
L 195.306198 154.280262 
L 195.381228 154.280262 
L 195.506278 153.804152 
L 195.581308 153.804152 
L 195.681348 154.280262 
L 195.781388 153.328041 
L 195.906438 154.756373 
L 195.981468 154.756373 
L 196.106518 154.280262 
L 196.481667 154.280262 
L 196.606717 153.804152 
L 196.781787 153.804152 
L 196.881827 153.328041 
L 196.981867 154.756373 
L 197.006877 154.280262 
L 197.382027 154.280262 
L 197.482067 153.804152 
L 197.582106 154.756373 
L 197.682146 154.280262 
L 197.782186 155.232484 
L 197.907236 154.756373 
L 198.282386 154.756373 
L 198.382426 154.280262 
L 198.482466 154.756373 
L 198.582506 153.804152 
L 198.757575 155.232484 
L 198.882625 155.232484 
L 199.007675 154.756373 
L 199.182745 154.756373 
L 199.282785 154.280262 
L 199.432845 155.232484 
L 199.482865 155.232484 
L 199.607915 154.756373 
L 199.682945 154.756373 
L 199.782985 155.232484 
L 199.883025 154.756373 
L 199.983064 155.232484 
L 200.108114 154.756373 
L 200.283184 154.756373 
L 200.408234 155.232484 
L 200.483264 155.232484 
L 200.608314 155.708594 
L 200.683344 155.708594 
L 200.808394 155.232484 
L 200.883424 155.232484 
L 201.008474 155.708594 
L 201.083504 155.708594 
L 201.183544 156.184705 
L 201.283583 155.232484 
L 201.383623 155.708594 
L 201.508673 155.232484 
L 201.583703 155.232484 
L 201.708753 155.708594 
L 201.783783 155.708594 
L 201.883823 155.232484 
L 201.983863 156.184705 
L 202.108913 155.708594 
L 202.183943 155.708594 
L 202.283983 156.184705 
L 202.384023 155.708594 
L 202.484062 156.184705 
L 202.584102 155.708594 
L 202.684142 156.184705 
L 202.809192 155.708594 
L 202.884222 155.708594 
L 203.034282 156.660816 
L 203.184342 156.660816 
L 203.334402 155.708594 
L 203.384422 155.708594 
L 203.509472 156.660816 
L 204.084701 156.660816 
L 204.184741 157.136926 
L 204.284781 156.660816 
L 204.409831 157.136926 
L 204.584901 157.136926 
L 204.684941 156.184705 
L 204.784981 156.660816 
L 204.88502 156.184705 
L 204.98506 157.136926 
L 205.0851 156.660816 
L 205.18514 157.136926 
L 205.28518 156.660816 
L 205.41023 157.136926 
L 205.5853 157.136926 
L 205.71035 157.613037 
L 205.78538 157.613037 
L 205.88542 158.089148 
L 206.01047 157.613037 
L 206.0855 157.613037 
L 206.185539 158.089148 
L 206.310589 157.613037 
L 206.485659 157.613037 
L 206.585699 157.136926 
L 206.710749 157.613037 
L 206.985859 157.613037 
L 207.135919 158.565258 
L 207.185939 158.565258 
L 207.285979 158.089148 
L 207.411028 158.565258 
L 207.586098 158.565258 
L 207.686138 158.089148 
L 207.836198 159.041369 
L 207.886218 159.041369 
L 208.011268 158.565258 
L 208.186338 158.565258 
L 208.286378 159.041369 
L 208.411428 158.565258 
L 208.486458 158.565258 
L 208.586497 158.089148 
L 208.686537 159.041369 
L 208.786577 158.565258 
L 208.886617 159.041369 
L 208.986657 158.565258 
L 209.111707 159.041369 
L 209.286777 159.041369 
L 209.386817 158.565258 
L 209.511867 159.041369 
L 210.387216 159.041369 
L 210.487256 159.51748 
L 210.587296 159.041369 
L 210.737356 159.993591 
L 210.787376 159.993591 
L 210.912426 159.041369 
L 211.087495 159.041369 
L 211.187535 159.51748 
L 211.287575 159.041369 
L 211.437635 159.993591 
L 211.487655 159.993591 
L 211.612705 159.51748 
L 211.787775 159.51748 
L 211.887815 160.469701 
L 212.037875 159.51748 
L 212.087895 159.51748 
L 212.187935 160.469701 
L 212.312984 159.51748 
L 212.388014 159.51748 
L 212.488054 160.469701 
L 212.613104 159.993591 
L 212.688134 159.993591 
L 212.813184 160.469701 
L 213.088294 160.469701 
L 213.188334 159.993591 
L 213.313384 160.469701 
L 213.488453 160.469701 
L 213.588493 159.993591 
L 213.713543 160.469701 
L 213.788573 160.469701 
L 213.913623 159.993591 
L 213.988653 159.993591 
L 214.113703 160.469701 
L 214.388813 160.469701 
L 214.488853 159.993591 
L 214.588893 160.469701 
L 214.688932 159.993591 
L 214.838992 160.945812 
L 214.889012 160.945812 
L 214.989052 160.469701 
L 215.089092 160.945812 
L 215.189132 160.469701 
L 215.289172 160.945812 
L 215.389212 160.469701 
L 215.489252 161.421923 
L 215.589292 160.469701 
L 215.739352 161.421923 
L 215.989451 161.421923 
L 216.089491 160.945812 
L 216.214541 161.421923 
L 216.589691 161.421923 
L 216.714741 160.945812 
L 216.789771 160.945812 
L 216.914821 161.421923 
L 216.989851 161.421923 
L 217.089891 160.945812 
L 217.21494 161.421923 
L 217.28997 161.421923 
L 217.41502 161.898033 
L 217.49005 161.898033 
L 217.6151 161.421923 
L 217.69013 161.421923 
L 217.79017 161.898033 
L 217.89021 161.421923 
L 218.01526 161.898033 
L 218.09029 161.898033 
L 218.21534 161.421923 
L 218.29037 161.421923 
L 218.415419 161.898033 
L 218.490449 161.898033 
L 218.590489 161.421923 
L 218.690529 162.374144 
L 218.840589 161.421923 
L 218.890609 161.421923 
L 219.015659 161.898033 
L 219.090689 161.898033 
L 219.215739 162.374144 
L 219.290769 162.374144 
L 219.415819 161.898033 
L 219.590889 161.898033 
L 219.690928 162.850255 
L 219.815978 162.374144 
L 219.891008 162.374144 
L 219.991048 161.898033 
L 220.141108 162.850255 
L 220.191128 162.850255 
L 220.316178 162.374144 
L 220.691328 162.374144 
L 220.816378 162.850255 
L 220.891407 162.850255 
L 220.991447 162.374144 
L 221.091487 162.850255 
L 221.191527 162.374144 
L 221.291567 162.850255 
L 221.416617 161.898033 
L 221.491647 161.898033 
L 221.591687 162.850255 
L 221.691727 162.374144 
L 221.791767 162.850255 
L 221.941827 161.898033 
L 221.991847 161.898033 
L 222.116896 162.850255 
L 222.291966 162.850255 
L 222.392006 163.326365 
L 222.492046 162.850255 
L 222.592086 163.802476 
L 222.717136 162.850255 
L 223.192326 162.850255 
L 223.292365 163.326365 
L 223.392405 162.850255 
L 223.492445 163.326365 
L 223.617495 162.850255 
L 223.692525 162.850255 
L 223.817575 163.326365 
L 224.192725 163.326365 
L 224.292765 163.802476 
L 224.417815 163.326365 
L 224.592884 163.326365 
L 224.692924 163.802476 
L 224.792964 163.326365 
L 224.918014 163.802476 
L 225.293164 163.802476 
L 225.393204 163.326365 
L 225.518254 163.802476 
L 225.893403 163.802476 
L 225.993443 163.326365 
L 226.093483 164.278587 
L 226.193523 163.802476 
L 226.293563 164.278587 
L 226.418613 163.802476 
L 226.593683 163.802476 
L 226.693723 164.278587 
L 226.818773 163.802476 
L 227.394002 163.802476 
L 227.494042 163.326365 
L 227.619092 163.802476 
L 227.994242 163.802476 
L 228.094282 164.278587 
L 228.219331 163.802476 
L 228.594481 163.802476 
L 228.694521 164.278587 
L 228.819571 163.802476 
L 228.894601 163.802476 
L 229.019651 164.278587 
L 229.094681 164.278587 
L 229.194721 163.802476 
L 229.294761 164.278587 
L 229.394801 163.802476 
L 229.49484 164.754697 
L 229.6449 163.802476 
L 229.79496 163.802476 
L 229.94502 164.754697 
L 229.99504 164.754697 
L 230.12009 164.278587 
L 230.29516 164.278587 
L 230.3952 163.802476 
L 230.49524 164.754697 
L 230.59528 163.802476 
L 230.745339 164.754697 
L 230.795359 164.754697 
L 230.920409 164.278587 
L 230.995439 164.278587 
L 231.095479 164.754697 
L 231.220529 164.278587 
L 231.295559 164.278587 
L 231.395599 163.802476 
L 231.545659 164.754697 
L 231.595679 164.754697 
L 231.720729 164.278587 
L 231.895798 164.278587 
L 232.020848 164.754697 
L 232.095878 164.754697 
L 232.195918 165.230808 
L 232.320968 164.754697 
L 232.496038 164.754697 
L 232.621088 165.230808 
L 232.896198 165.230808 
L 233.021248 164.754697 
L 233.096277 164.754697 
L 233.196317 165.706919 
L 233.346377 164.754697 
L 233.496437 164.754697 
L 233.596477 165.230808 
L 233.696517 164.754697 
L 233.821567 165.230808 
L 234.496836 165.230808 
L 234.596876 164.754697 
L 234.696916 165.706919 
L 234.796956 164.754697 
L 234.896996 165.706919 
L 235.022046 165.230808 
L 235.197116 165.230808 
L 235.297156 165.706919 
L 235.422206 165.230808 
L 235.597275 165.230808 
L 235.722325 165.706919 
L 235.797355 165.706919 
L 235.897395 166.183029 
L 236.022445 165.706919 
L 236.197515 165.706919 
L 236.297555 166.183029 
L 236.397595 165.230808 
L 236.522645 165.706919 
L 236.597675 165.706919 
L 236.697715 166.183029 
L 236.822764 165.706919 
L 236.897794 165.706919 
L 237.022844 166.183029 
L 237.097874 166.183029 
L 237.197914 165.706919 
L 237.322964 166.183029 
L 237.698114 166.183029 
L 237.798154 166.65914 
L 237.898194 165.706919 
L 237.998234 166.65914 
L 238.098273 166.183029 
L 238.248333 167.135251 
L 238.298353 167.135251 
L 238.423403 166.65914 
L 238.498433 166.65914 
L 238.598473 167.135251 
L 238.698513 166.183029 
L 238.848573 167.135251 
L 238.998633 167.135251 
L 239.123683 166.65914 
L 239.198713 166.65914 
L 239.323762 167.135251 
L 239.598872 167.135251 
L 239.698912 166.65914 
L 239.823962 167.611361 
L 239.898992 167.611361 
L 239.999032 167.135251 
L 240.099072 167.611361 
L 240.199112 167.135251 
L 240.299152 168.087472 
L 240.399192 167.611361 
L 240.499231 168.087472 
L 240.599271 167.135251 
L 240.749331 168.087472 
L 241.299551 168.087472 
L 241.399591 167.611361 
L 241.499631 168.087472 
L 241.599671 167.611361 
L 241.69971 168.563583 
L 241.82476 168.087472 
L 241.89979 168.087472 
L 241.99983 168.563583 
L 242.09987 168.087472 
L 242.22492 168.563583 
L 242.60007 168.563583 
L 242.70011 169.515804 
L 242.80015 168.563583 
L 242.925199 169.039693 
L 243.200309 169.039693 
L 243.325359 169.515804 
L 243.500429 169.515804 
L 243.625479 169.991915 
L 243.800549 169.991915 
L 243.900589 169.515804 
L 244.025639 169.991915 
L 244.100669 169.991915 
L 244.200708 169.515804 
L 244.300748 169.991915 
L 244.425798 169.515804 
L 244.500828 169.515804 
L 244.625878 170.468025 
L 244.900988 170.468025 
L 245.001028 169.991915 
L 245.101068 170.944136 
L 245.201108 170.468025 
L 245.326158 170.944136 
L 245.401187 170.944136 
L 245.526237 171.420247 
L 245.801347 171.420247 
L 245.901387 171.896357 
L 246.001427 171.420247 
L 246.151487 172.372468 
L 246.201507 172.372468 
L 246.301547 171.420247 
L 246.426597 172.372468 
L 246.501627 172.372468 
L 246.626676 171.896357 
L 246.701706 171.896357 
L 246.801746 172.372468 
L 246.901786 171.896357 
L 247.001826 172.848579 
L 247.101866 172.372468 
L 247.201906 172.848579 
L 247.301946 172.372468 
L 247.426996 172.848579 
L 247.502026 172.848579 
L 247.627076 173.324689 
L 247.702106 173.324689 
L 247.802146 173.8008 
L 247.902185 173.324689 
L 248.002225 173.8008 
L 248.102265 173.324689 
L 248.252325 174.276911 
L 248.302345 174.276911 
L 248.427395 173.8008 
L 248.502425 173.8008 
L 248.627475 174.276911 
L 248.702505 174.276911 
L 248.802545 174.753021 
L 248.902585 174.276911 
L 249.027635 174.753021 
L 249.102664 174.753021 
L 249.252724 175.705243 
L 249.402784 175.705243 
L 249.502824 175.229132 
L 249.627874 175.705243 
L 249.702904 175.705243 
L 249.802944 175.229132 
L 249.953004 176.181353 
L 250.203104 176.181353 
L 250.303143 175.705243 
L 250.428193 176.181353 
L 250.503223 176.181353 
L 250.603263 177.133575 
L 250.728313 176.657464 
L 250.803343 176.657464 
L 250.928393 177.133575 
L 251.003423 177.133575 
L 251.103463 177.609685 
L 251.203503 177.133575 
L 251.303543 177.609685 
L 251.403583 177.133575 
L 251.503622 178.085796 
L 251.628672 177.609685 
L 251.703702 177.609685 
L 251.853762 178.561907 
L 252.103862 178.561907 
L 252.228912 179.038017 
L 252.303942 179.038017 
L 252.428992 178.561907 
L 252.504022 178.561907 
L 252.629072 179.038017 
L 252.704102 179.038017 
L 252.829151 179.514128 
L 252.904181 179.514128 
L 253.004221 179.990239 
L 253.104261 179.514128 
L 253.229311 179.990239 
L 253.404381 179.990239 
L 253.554441 180.94246 
L 253.604461 180.94246 
L 253.704501 180.466349 
L 253.804541 181.418571 
L 253.929591 180.94246 
L 254.2047 180.94246 
L 254.32975 181.418571 
L 254.60486 181.418571 
L 254.72991 181.894681 
L 255.00502 181.894681 
L 255.15508 182.846903 
L 255.205099 182.846903 
L 255.330149 182.370792 
L 255.505219 182.370792 
L 255.630269 182.846903 
L 255.805339 182.846903 
L 255.930389 183.799124 
L 256.405579 183.799124 
L 256.505618 183.323013 
L 256.655678 184.275235 
L 256.705698 184.275235 
L 256.805738 183.799124 
L 256.930788 184.275235 
L 257.105858 184.275235 
L 257.230908 184.751345 
L 257.305938 184.751345 
L 257.405978 184.275235 
L 257.556038 185.227456 
L 257.606058 185.227456 
L 257.706097 184.751345 
L 257.831147 185.227456 
L 258.306337 185.227456 
L 258.406377 185.703567 
L 258.506417 185.227456 
L 258.606457 185.703567 
L 258.706497 185.227456 
L 258.806537 185.703567 
L 258.906576 185.227456 
L 259.031626 185.703567 
L 259.306736 185.703567 
L 259.406776 186.179677 
L 259.506816 185.703567 
L 259.631866 186.179677 
L 259.806936 186.179677 
L 259.906976 185.703567 
L 260.007016 186.655788 
L 260.157075 185.703567 
L 260.207095 185.703567 
L 260.307135 185.227456 
L 260.457195 186.179677 
L 260.607255 186.179677 
L 260.732305 185.703567 
L 260.807335 185.703567 
L 260.907375 186.655788 
L 261.007415 186.179677 
L 261.107455 186.655788 
L 261.232505 186.179677 
L 261.307535 186.179677 
L 261.432584 185.703567 
L 261.907774 185.703567 
L 262.007814 185.227456 
L 262.132864 185.703567 
L 262.508014 185.703567 
L 262.633063 185.227456 
L 263.408373 185.227456 
L 263.533423 184.275235 
L 263.608453 184.275235 
L 263.708493 184.751345 
L 263.833542 184.275235 
L 263.908572 184.275235 
L 264.008612 184.751345 
L 264.133662 184.275235 
L 264.308732 184.275235 
L 264.408772 183.799124 
L 264.508812 184.275235 
L 264.633862 183.799124 
L 265.009011 183.799124 
L 265.134061 183.323013 
L 265.509211 183.323013 
L 265.634261 182.846903 
L 265.709291 182.846903 
L 265.809331 183.323013 
L 265.909371 182.370792 
L 266.034421 182.846903 
L 266.109451 182.846903 
L 266.25951 181.894681 
L 266.70969 181.894681 
L 266.80973 180.94246 
L 266.90977 181.894681 
L 267.00981 181.418571 
L 267.10985 181.894681 
L 267.20989 180.94246 
L 267.35995 181.894681 
L 267.40997 181.894681 
L 267.535019 181.418571 
L 267.610049 181.418571 
L 267.760109 180.466349 
L 267.810129 180.466349 
L 267.910169 180.94246 
L 268.010209 179.990239 
L 268.135259 180.466349 
L 268.310329 180.466349 
L 268.460389 179.514128 
L 268.510409 179.514128 
L 268.635459 179.990239 
L 268.810528 179.990239 
L 268.935578 179.514128 
L 269.010608 179.514128 
L 269.110648 179.990239 
L 269.235698 179.038017 
L 269.510808 179.038017 
L 269.610848 178.561907 
L 269.735898 179.038017 
L 269.910967 179.038017 
L 270.011007 178.561907 
L 270.136057 179.038017 
L 270.211087 179.038017 
L 270.336137 178.561907 
L 270.411167 178.561907 
L 270.511207 178.085796 
L 270.636257 178.561907 
L 270.711287 178.561907 
L 270.836337 178.085796 
L 271.011407 178.085796 
L 271.111447 177.609685 
L 271.211486 178.085796 
L 271.311526 177.133575 
L 271.436576 178.085796 
L 271.711686 178.085796 
L 271.811726 177.609685 
L 271.936776 178.085796 
L 272.011806 178.085796 
L 272.111846 177.133575 
L 272.236896 177.609685 
L 272.512005 177.609685 
L 272.612045 178.085796 
L 272.737095 177.609685 
L 272.812125 177.609685 
L 272.937175 177.133575 
L 273.012205 177.133575 
L 273.137255 178.085796 
L 273.312325 178.085796 
L 273.462385 177.133575 
L 273.512405 177.133575 
L 273.612444 178.085796 
L 273.737494 177.609685 
L 273.812524 177.609685 
L 273.912564 178.085796 
L 274.012604 177.133575 
L 274.112644 178.085796 
L 274.237694 177.609685 
L 274.512804 177.609685 
L 274.612844 178.085796 
L 274.737894 177.609685 
L 275.313123 177.609685 
L 275.438173 178.085796 
L 275.513203 178.085796 
L 275.613243 177.609685 
L 275.738293 178.085796 
L 275.813323 178.085796 
L 275.938373 178.561907 
L 276.113442 178.561907 
L 276.238492 178.085796 
L 276.413562 178.085796 
L 276.513602 178.561907 
L 276.638652 178.085796 
L 276.813722 178.085796 
L 276.913762 178.561907 
L 277.038812 178.085796 
L 277.213882 178.085796 
L 277.338931 178.561907 
L 277.413961 178.561907 
L 277.514001 179.038017 
L 277.614041 178.561907 
L 277.739091 179.038017 
L 277.814121 179.038017 
L 277.914161 178.561907 
L 278.014201 179.038017 
L 278.139251 178.561907 
L 278.214281 178.561907 
L 278.339331 179.514128 
L 278.414361 179.514128 
L 278.53941 179.990239 
L 278.71448 179.990239 
L 278.83953 179.514128 
L 279.0146 179.514128 
L 279.13965 179.990239 
L 279.31472 179.990239 
L 279.41476 179.514128 
L 279.53981 180.466349 
L 279.61484 180.466349 
L 279.71488 179.990239 
L 279.814919 180.466349 
L 279.914959 179.990239 
L 280.014999 180.466349 
L 280.140049 179.990239 
L 280.315119 179.990239 
L 280.415159 179.514128 
L 280.565219 180.466349 
L 280.915359 180.466349 
L 281.015398 180.94246 
L 281.115438 180.466349 
L 281.240488 180.94246 
L 281.315518 180.94246 
L 281.440568 181.418571 
L 281.615638 181.418571 
L 281.715678 180.94246 
L 281.840728 181.418571 
L 281.915758 181.418571 
L 282.015798 180.94246 
L 282.140848 181.418571 
L 282.315917 181.418571 
L 282.440967 181.894681 
L 282.716077 181.894681 
L 282.816117 182.370792 
L 282.916157 181.894681 
L 283.041207 182.370792 
L 283.116237 182.370792 
L 283.216277 182.846903 
L 283.316317 182.370792 
L 283.441366 182.846903 
L 284.016596 182.846903 
L 284.166656 183.799124 
L 284.416756 183.799124 
L 284.541806 184.275235 
L 284.816915 184.275235 
L 284.916955 184.751345 
L 285.042005 184.275235 
L 285.117035 184.275235 
L 285.242085 184.751345 
L 285.317115 184.751345 
L 285.467175 185.703567 
L 285.617235 185.703567 
L 285.717275 185.227456 
L 285.842325 185.703567 
L 285.917354 185.703567 
L 286.017394 185.227456 
L 286.142444 186.179677 
L 286.317514 186.179677 
L 286.442564 186.655788 
L 286.617634 186.655788 
L 286.742684 187.131899 
L 287.017794 187.131899 
L 287.117833 187.608009 
L 287.217873 187.131899 
L 287.342923 188.08412 
L 287.618033 188.08412 
L 287.768093 189.036342 
L 288.018193 189.036342 
L 288.118233 189.512452 
L 288.218273 189.036342 
L 288.368332 189.988563 
L 288.818512 189.988563 
L 288.943562 190.464674 
L 289.018592 190.464674 
L 289.143642 190.940784 
L 289.518792 190.940784 
L 289.618831 190.464674 
L 289.743881 191.893006 
L 289.818911 191.893006 
L 289.943961 192.369116 
L 290.219071 192.369116 
L 290.319111 191.893006 
L 290.469171 192.845227 
L 290.519191 192.845227 
L 290.619231 191.893006 
L 290.769291 192.845227 
L 290.81931 192.845227 
L 290.94436 193.321338 
L 291.01939 193.321338 
L 291.11943 193.797448 
L 291.26949 192.845227 
L 291.31951 192.845227 
L 291.41955 193.321338 
L 291.51959 192.845227 
L 291.64464 194.273559 
L 292.419949 194.273559 
L 292.544999 194.74967 
L 292.820109 194.74967 
L 292.920149 195.22578 
L 293.020189 194.74967 
L 293.120229 195.22578 
L 293.245278 194.74967 
L 293.320308 194.74967 
L 293.470368 195.701891 
L 293.620428 195.701891 
L 293.745478 195.22578 
L 293.920548 195.22578 
L 294.045598 195.701891 
L 294.120628 195.701891 
L 294.220668 195.22578 
L 294.345718 195.701891 
L 294.520787 195.701891 
L 294.620827 196.178002 
L 294.745877 195.701891 
L 294.820907 195.701891 
L 294.945957 196.178002 
L 295.020987 196.178002 
L 295.146037 195.701891 
L 295.421147 195.701891 
L 295.521187 195.22578 
L 295.696256 196.654112 
L 295.721266 196.654112 
L 295.821306 195.701891 
L 295.946356 196.178002 
L 296.121426 196.178002 
L 296.271486 195.22578 
L 296.321506 195.22578 
L 296.446556 195.701891 
L 296.721666 195.701891 
L 296.821706 196.178002 
L 296.921745 195.701891 
L 297.021785 196.178002 
L 297.171845 195.22578 
L 297.221865 195.22578 
L 297.371925 196.178002 
L 297.421945 196.178002 
L 297.546995 195.701891 
L 297.622025 195.701891 
L 297.722065 195.22578 
L 297.822105 195.701891 
L 297.947155 195.22578 
L 298.022185 195.22578 
L 298.147234 195.701891 
L 298.222264 195.701891 
L 298.347314 195.22578 
L 298.822504 195.22578 
L 298.922544 194.74967 
L 299.047594 195.22578 
L 299.422743 195.22578 
L 299.522783 194.74967 
L 299.622823 195.22578 
L 299.722863 194.74967 
L 299.847913 195.22578 
L 299.922943 195.22578 
L 300.022983 194.74967 
L 300.123023 195.22578 
L 300.223063 194.74967 
L 300.323103 195.701891 
L 300.448153 194.273559 
L 300.523183 194.273559 
L 300.648232 194.74967 
L 301.023382 194.74967 
L 301.148432 194.273559 
L 301.923741 194.273559 
L 302.023781 193.797448 
L 302.148831 194.273559 
L 302.223861 194.273559 
L 302.348911 193.797448 
L 302.423941 193.797448 
L 302.523981 194.74967 
L 302.674041 193.797448 
L 303.12422 193.797448 
L 303.24927 193.321338 
L 303.42434 193.321338 
L 303.54939 193.797448 
L 303.72446 193.797448 
L 303.8245 192.845227 
L 303.94955 193.797448 
L 304.22466 193.797448 
L 304.349709 193.321338 
L 304.424739 193.321338 
L 304.524779 193.797448 
L 304.649829 193.321338 
L 304.924939 193.321338 
L 305.049989 192.845227 
L 305.125019 192.845227 
L 305.250069 193.321338 
L 305.425139 193.321338 
L 305.525178 192.845227 
L 305.625218 193.321338 
L 305.775278 192.369116 
L 305.825298 192.369116 
L 305.950348 192.845227 
L 306.025378 192.845227 
L 306.125418 193.321338 
L 306.225458 192.845227 
L 306.325498 193.321338 
L 306.475558 192.369116 
L 306.725657 192.369116 
L 306.850707 192.845227 
L 306.925737 192.845227 
L 307.050787 191.416895 
L 307.125817 191.416895 
L 307.250867 191.893006 
L 307.325897 191.893006 
L 307.425937 192.369116 
L 307.550987 191.893006 
L 307.626017 191.893006 
L 307.726057 191.416895 
L 307.876117 192.369116 
L 307.926137 192.369116 
L 308.051186 191.893006 
L 308.626416 191.893006 
L 308.726456 192.369116 
L 308.851506 191.893006 
L 309.026576 191.893006 
L 309.126616 191.416895 
L 309.226655 192.369116 
L 309.326695 191.416895 
L 309.451745 191.893006 
L 309.626815 191.893006 
L 309.776875 190.940784 
L 309.926935 190.940784 
L 310.026975 191.416895 
L 310.152025 190.940784 
L 310.227055 190.940784 
L 310.352105 191.416895 
L 310.427134 191.416895 
L 310.527174 190.940784 
L 310.652224 191.416895 
L 310.827294 191.416895 
L 310.927334 190.940784 
L 311.052384 191.416895 
L 311.227454 191.416895 
L 311.327494 190.940784 
L 311.427534 191.416895 
L 311.552584 190.940784 
L 311.827693 190.940784 
L 311.952743 191.416895 
L 312.027773 191.416895 
L 312.127813 190.940784 
L 312.252863 191.416895 
L 312.327893 191.416895 
L 312.452943 190.940784 
L 312.628013 190.940784 
L 312.728053 191.416895 
L 312.853103 190.940784 
L 313.128212 190.940784 
L 313.228252 191.416895 
L 313.328292 190.464674 
L 313.453342 190.940784 
L 313.728452 190.940784 
L 313.853502 190.464674 
L 313.928532 190.464674 
L 314.053582 190.940784 
L 314.128611 190.940784 
L 314.228651 191.416895 
L 314.353701 190.940784 
L 314.428731 190.940784 
L 314.553781 190.464674 
L 314.628811 190.464674 
L 314.728851 190.940784 
L 314.853901 190.464674 
L 314.928931 190.464674 
L 315.028971 191.416895 
L 315.179031 190.464674 
L 315.42913 190.464674 
L 315.55418 190.940784 
L 315.92933 190.940784 
L 316.05438 190.464674 
L 316.22945 190.464674 
L 316.32949 190.940784 
L 316.45454 190.464674 
L 316.629609 190.464674 
L 316.729649 190.940784 
L 316.854699 190.464674 
L 317.029769 190.464674 
L 317.154819 190.940784 
L 317.229849 190.940784 
L 317.329889 190.464674 
L 317.429929 190.940784 
L 317.579989 189.988563 
L 317.730049 189.988563 
L 317.830088 190.464674 
L 317.930128 189.512452 
L 318.055178 189.988563 
L 318.330288 189.988563 
L 318.430328 190.464674 
L 318.580388 189.512452 
L 318.830488 189.512452 
L 318.930528 189.988563 
L 319.030567 189.512452 
L 319.130607 189.988563 
L 319.230647 189.512452 
L 319.355697 189.988563 
L 319.430727 189.988563 
L 319.530767 189.512452 
L 319.630807 190.464674 
L 319.755857 189.988563 
L 319.830887 189.988563 
L 319.930927 189.512452 
L 320.030967 189.988563 
L 320.131007 189.512452 
L 320.256056 189.988563 
L 320.331086 189.988563 
L 320.431126 189.036342 
L 320.581186 189.988563 
L 320.631206 189.988563 
L 320.756256 189.512452 
L 321.131406 189.512452 
L 321.256456 189.036342 
L 321.431526 189.036342 
L 321.556575 189.512452 
L 321.631605 189.512452 
L 321.756655 189.036342 
L 322.832084 189.036342 
L 322.932124 188.08412 
L 323.057174 189.036342 
L 323.132204 189.036342 
L 323.257254 188.560231 
L 323.432324 188.560231 
L 323.532364 189.036342 
L 323.657414 188.560231 
L 323.732444 188.560231 
L 323.832484 189.036342 
L 324.007553 187.608009 
L 324.032563 187.608009 
L 324.157613 188.560231 
L 324.332683 188.560231 
L 324.457733 188.08412 
L 324.632803 188.08412 
L 324.757853 187.608009 
L 324.832883 187.608009 
L 324.932923 188.08412 
L 325.032963 187.608009 
L 325.133003 188.560231 
L 325.258052 188.08412 
L 325.333082 188.08412 
L 325.433122 187.608009 
L 325.558172 188.08412 
L 325.633202 188.08412 
L 325.758252 187.608009 
L 325.933322 187.608009 
L 326.033362 187.131899 
L 326.158412 188.08412 
L 326.233442 188.08412 
L 326.383501 187.131899 
L 326.433521 187.131899 
L 326.558571 186.655788 
L 326.633601 186.655788 
L 326.733641 187.131899 
L 326.858691 186.655788 
L 326.933721 186.655788 
L 327.033761 186.179677 
L 327.158811 186.655788 
L 327.533961 186.655788 
L 327.634 185.703567 
L 327.73404 186.655788 
L 327.83408 185.703567 
L 327.95913 186.179677 
L 328.03416 186.179677 
L 328.1342 185.703567 
L 328.28426 186.655788 
L 328.33428 186.655788 
L 328.43432 185.703567 
L 328.55937 186.179677 
L 328.6344 186.179677 
L 328.75945 185.703567 
L 329.134599 185.703567 
L 329.234639 186.179677 
L 329.359689 185.703567 
L 329.534759 185.703567 
L 329.634799 185.227456 
L 329.759849 185.703567 
L 329.834879 185.703567 
L 329.934919 185.227456 
L 330.059968 185.703567 
L 330.134998 185.703567 
L 330.260048 185.227456 
L 330.335078 185.227456 
L 330.435118 184.751345 
L 330.560168 185.227456 
L 330.635198 185.227456 
L 330.735238 184.751345 
L 330.860288 185.227456 
L 330.935318 185.227456 
L 331.060368 184.275235 
L 331.135398 184.275235 
L 331.260448 184.751345 
L 331.335477 184.751345 
L 331.460527 184.275235 
L 331.635597 184.275235 
L 331.735637 184.751345 
L 331.835677 183.323013 
L 331.935717 184.275235 
L 332.035757 183.323013 
L 332.135797 184.275235 
L 332.235837 183.323013 
L 332.360887 183.799124 
L 332.535956 183.799124 
L 332.661006 182.846903 
L 332.836076 182.846903 
L 332.936116 183.323013 
L 333.061166 182.370792 
L 333.136196 182.370792 
L 333.261246 182.846903 
L 333.536356 182.846903 
L 333.661406 182.370792 
L 333.836475 182.370792 
L 333.986535 181.418571 
L 334.036555 181.418571 
L 334.161605 182.370792 
L 334.236635 182.370792 
L 334.361685 181.894681 
L 334.436715 181.894681 
L 334.536755 181.418571 
L 334.636795 181.894681 
L 334.736835 181.418571 
L 334.836875 181.894681 
L 334.961924 181.418571 
L 335.036954 181.418571 
L 335.136994 180.466349 
L 335.237034 180.94246 
L 335.337074 180.466349 
L 335.437114 180.94246 
L 335.537154 180.466349 
L 335.637194 180.94246 
L 335.762244 180.466349 
L 335.937314 180.466349 
L 336.087374 179.514128 
L 336.237433 179.514128 
L 336.337473 179.990239 
L 336.462523 179.514128 
L 336.837673 179.514128 
L 336.962723 179.038017 
L 337.237833 179.038017 
L 337.337873 178.561907 
L 337.437912 179.038017 
L 337.562962 178.561907 
L 337.738032 178.561907 
L 337.838072 178.085796 
L 337.938112 178.561907 
L 338.063162 178.085796 
L 338.138192 178.085796 
L 338.238232 177.609685 
L 338.338272 178.085796 
L 338.463322 177.609685 
L 338.538352 177.609685 
L 338.663401 177.133575 
L 338.738431 177.133575 
L 338.838471 177.609685 
L 338.938511 177.133575 
L 339.038551 177.609685 
L 339.188611 176.657464 
L 339.238631 176.657464 
L 339.363681 177.133575 
L 339.438711 177.133575 
L 339.563761 176.657464 
L 339.638791 176.657464 
L 339.738831 176.181353 
L 339.86388 176.657464 
L 339.93891 176.657464 
L 340.08897 175.705243 
L 340.13899 175.705243 
L 340.23903 176.181353 
L 340.33907 175.705243 
L 340.43911 176.181353 
L 340.53915 175.229132 
L 340.6642 175.705243 
L 340.93931 175.705243 
L 341.06436 175.229132 
L 341.339469 175.229132 
L 341.489529 174.276911 
L 341.539549 174.276911 
L 341.664599 174.753021 
L 341.739629 174.753021 
L 341.839669 175.229132 
L 341.989729 174.276911 
L 342.139789 174.276911 
L 342.239829 173.8008 
L 342.339868 174.753021 
L 342.489928 173.8008 
L 342.639988 173.8008 
L 342.740028 174.753021 
L 342.865078 173.8008 
L 343.140188 173.8008 
L 343.240228 173.324689 
L 343.340268 173.8008 
L 343.465318 173.324689 
L 343.540348 173.324689 
L 343.640387 172.848579 
L 343.790447 173.8008 
L 343.840467 173.8008 
L 343.965517 173.324689 
L 344.140587 173.324689 
L 344.240627 172.848579 
L 344.340667 173.324689 
L 344.465717 172.848579 
L 344.640787 172.848579 
L 344.765837 172.372468 
L 344.840866 172.372468 
L 344.940906 171.896357 
L 345.065956 172.848579 
L 345.140986 172.848579 
L 345.241026 171.896357 
L 345.341066 172.372468 
L 345.441106 171.896357 
L 345.541146 172.372468 
L 345.641186 171.896357 
L 345.741226 172.372468 
L 345.841266 171.896357 
L 345.941306 172.372468 
L 346.066355 171.896357 
L 346.441505 171.896357 
L 346.541545 171.420247 
L 346.666595 171.896357 
L 346.841665 171.896357 
L 346.966715 171.420247 
L 347.141785 171.420247 
L 347.241824 171.896357 
L 347.366874 171.420247 
L 347.641984 171.420247 
L 347.767034 171.896357 
L 347.842064 171.896357 
L 347.967114 171.420247 
L 348.142184 171.420247 
L 348.267234 170.944136 
L 348.342264 170.944136 
L 348.467313 171.420247 
L 348.542343 171.420247 
L 348.642383 171.896357 
L 348.792443 170.944136 
L 348.842463 170.944136 
L 348.967513 171.420247 
L 349.342663 171.420247 
L 349.442703 171.896357 
L 349.567753 171.420247 
L 349.642783 171.420247 
L 349.742822 171.896357 
L 349.867872 170.944136 
L 350.042942 170.944136 
L 350.142982 171.420247 
L 350.268032 170.944136 
L 350.343062 170.944136 
L 350.443102 171.420247 
L 350.568152 170.468025 
L 350.643182 170.468025 
L 350.743222 171.420247 
L 350.843262 170.944136 
L 350.943301 171.420247 
L 351.093361 170.468025 
L 351.143381 170.468025 
L 351.243421 170.944136 
L 351.343461 170.468025 
L 351.468511 170.944136 
L 351.643581 170.944136 
L 351.743621 170.468025 
L 351.843661 170.944136 
L 351.943701 170.468025 
L 352.068751 170.944136 
L 352.14378 170.944136 
L 352.24382 171.420247 
L 352.39388 170.468025 
L 352.74402 170.468025 
L 352.84406 170.944136 
L 352.9441 170.468025 
L 353.04414 170.944136 
L 353.14418 170.468025 
L 353.24422 170.944136 
L 353.369269 170.468025 
L 353.544339 170.468025 
L 353.644379 170.944136 
L 353.744419 170.468025 
L 353.844459 170.944136 
L 353.944499 170.468025 
L 354.044539 170.944136 
L 354.169589 170.468025 
L 354.244619 170.468025 
L 354.369669 170.944136 
L 354.544739 170.944136 
L 354.669788 170.468025 
L 354.744818 170.468025 
L 354.869868 170.944136 
L 354.944898 170.944136 
L 355.069948 170.468025 
L 355.245018 170.468025 
L 355.395078 171.420247 
L 355.445098 171.420247 
L 355.595158 170.468025 
L 355.645178 170.468025 
L 355.745218 169.991915 
L 355.845257 170.944136 
L 355.945297 170.468025 
L 356.045337 171.420247 
L 356.145377 170.468025 
L 356.270427 170.944136 
L 356.345457 170.944136 
L 356.470507 170.468025 
L 356.545537 170.468025 
L 356.645577 171.420247 
L 356.745617 170.944136 
L 356.845657 171.420247 
L 356.970707 170.944136 
L 357.345856 170.944136 
L 357.470906 170.468025 
L 357.545936 170.468025 
L 357.670986 170.944136 
L 358.046136 170.944136 
L 358.146176 170.468025 
L 358.271225 170.944136 
L 358.346255 170.944136 
L 358.446295 170.468025 
L 358.546335 170.944136 
L 358.671385 170.468025 
L 358.746415 170.468025 
L 358.871465 170.944136 
L 358.946495 170.944136 
L 359.046535 169.991915 
L 359.171585 170.468025 
L 359.246615 170.468025 
L 359.346655 169.991915 
L 359.496714 170.944136 
L 359.546734 170.944136 
L 359.696794 169.991915 
L 359.746814 169.991915 
L 359.871864 170.468025 
L 360.146974 170.468025 
L 360.247014 169.991915 
L 360.397074 170.944136 
L 360.447094 170.944136 
L 360.572144 170.468025 
L 360.747213 170.468025 
L 360.847253 170.944136 
L 360.947293 170.468025 
L 361.072343 170.944136 
L 361.247413 170.944136 
L 361.372463 170.468025 
L 361.947693 170.468025 
L 362.072742 170.944136 
L 362.147772 170.944136 
L 362.272822 170.468025 
L 362.347852 170.468025 
L 362.472902 170.944136 
L 362.748012 170.944136 
L 362.873062 170.468025 
L 363.048132 170.468025 
L 363.173182 170.944136 
L 363.248211 170.944136 
L 363.348251 170.468025 
L 363.448291 170.944136 
L 363.573341 170.468025 
L 363.648371 170.468025 
L 363.773421 170.944136 
L 363.948491 170.944136 
L 364.048531 170.468025 
L 364.148571 170.944136 
L 364.273621 170.468025 
L 364.44869 170.468025 
L 364.57374 170.944136 
L 364.84885 170.944136 
L 364.94889 170.468025 
L 365.07394 170.944136 
L 365.34905 170.944136 
L 365.44909 170.468025 
L 365.54913 170.944136 
L 365.649169 170.468025 
L 365.774219 170.944136 
L 365.849249 170.944136 
L 365.949289 169.515804 
L 366.074339 171.420247 
L 366.149369 171.420247 
L 366.274419 170.468025 
L 366.449489 170.468025 
L 366.574539 171.420247 
L 366.749609 171.420247 
L 366.874658 170.944136 
L 367.049728 170.944136 
L 367.149768 171.420247 
L 367.274818 170.944136 
L 367.449888 170.944136 
L 367.574938 171.420247 
L 367.649968 171.420247 
L 367.800028 170.468025 
L 367.950088 170.468025 
L 368.050128 170.944136 
L 368.150167 170.468025 
L 368.275217 170.944136 
L 368.350247 170.944136 
L 368.450287 170.468025 
L 368.575337 170.944136 
L 368.850447 170.944136 
L 368.950487 170.468025 
L 369.075537 170.944136 
L 369.150567 170.944136 
L 369.250607 171.420247 
L 369.350646 170.944136 
L 369.475696 171.420247 
L 369.750806 171.420247 
L 369.875856 170.944136 
L 370.150966 170.944136 
L 370.251006 170.468025 
L 370.351046 170.944136 
L 370.451086 170.468025 
L 370.576135 170.944136 
L 370.751205 170.944136 
L 370.851245 171.420247 
L 371.001305 170.468025 
L 371.151365 170.468025 
L 371.251405 171.420247 
L 371.376455 170.944136 
L 371.651565 170.944136 
L 371.751605 171.896357 
L 371.876654 170.944136 
L 372.151764 170.944136 
L 372.276814 171.420247 
L 372.351844 171.420247 
L 372.451884 170.468025 
L 372.576934 170.944136 
L 372.952084 170.944136 
L 373.052123 171.420247 
L 373.152163 170.944136 
L 373.252203 171.896357 
L 373.377253 170.944136 
L 373.452283 170.944136 
L 373.577333 171.420247 
L 373.652363 171.420247 
L 373.752403 170.944136 
L 373.877453 171.420247 
L 373.952483 171.420247 
L 374.077533 170.944136 
L 374.227592 170.944136 
L 374.352642 53.820911 
L 374.477692 53.820911 
L 374.577732 53.3448 
L 374.727792 54.297021 
L 374.777812 54.297021 
L 374.902862 53.820911 
L 375.478091 53.820911 
L 375.578131 53.3448 
L 375.678171 53.820911 
L 375.778211 53.3448 
L 375.878251 54.773132 
L 375.978291 53.820911 
L 376.103341 54.297021 
L 376.178371 54.297021 
L 376.303421 53.820911 
L 376.87865 53.820911 
L 376.97869 54.297021 
L 377.10374 53.3448 
L 377.17877 53.3448 
L 377.30382 53.820911 
L 377.47889 53.820911 
L 377.57893 54.297021 
L 377.67897 53.820911 
L 377.80402 54.297021 
L 377.87905 54.297021 
L 377.979089 53.820911 
L 378.104139 54.297021 
L 378.379249 54.297021 
L 378.479289 53.820911 
L 378.604339 54.297021 
L 378.779409 54.297021 
L 378.879449 54.773132 
L 378.979489 54.297021 
L 379.079529 55.249243 
L 379.204578 54.297021 
L 379.379648 54.297021 
L 379.479688 53.820911 
L 379.579728 54.297021 
L 379.704778 53.820911 
L 379.779808 53.820911 
L 379.879848 54.297021 
L 380.004898 53.820911 
L 380.079928 53.820911 
L 380.179968 53.3448 
L 380.280008 54.297021 
L 380.405057 53.820911 
L 380.680167 53.820911 
L 380.805217 54.297021 
L 380.880247 54.297021 
L 381.030307 53.3448 
L 381.080327 53.3448 
L 381.180367 54.297021 
L 381.330427 53.3448 
L 381.380447 53.3448 
L 381.505497 53.820911 
L 381.580527 53.820911 
L 381.680566 53.3448 
L 381.805616 53.820911 
L 381.880646 53.820911 
L 381.980686 54.297021 
L 382.080726 53.820911 
L 382.205776 54.297021 
L 382.280806 54.297021 
L 382.405856 54.773132 
L 382.480886 54.773132 
L 382.580926 53.820911 
L 382.680966 54.773132 
L 382.781006 54.297021 
L 382.881045 54.773132 
L 383.006095 54.297021 
L 383.081125 54.297021 
L 383.181165 54.773132 
L 383.306215 54.297021 
L 383.481285 54.297021 
L 383.606335 53.820911 
L 383.681365 53.820911 
L 383.781405 54.773132 
L 383.931465 53.820911 
L 383.981485 53.820911 
L 384.081524 53.3448 
L 384.206574 53.820911 
L 384.281604 53.820911 
L 384.406654 54.297021 
L 384.481684 54.297021 
L 384.606734 53.820911 
L 384.681764 53.820911 
L 384.781804 54.297021 
L 384.906854 53.820911 
L 384.981884 53.820911 
L 385.106934 54.773132 
L 385.181964 54.773132 
L 385.282003 53.820911 
L 385.407053 54.297021 
L 385.582123 54.297021 
L 385.707173 55.249243 
L 385.782203 55.249243 
L 385.907253 54.773132 
L 386.182363 54.773132 
L 386.282403 54.297021 
L 386.382443 54.773132 
L 386.482483 54.297021 
L 386.582522 54.773132 
L 386.707572 54.297021 
L 386.782602 54.297021 
L 386.882642 54.773132 
L 386.982682 54.297021 
L 387.107732 54.773132 
L 387.482882 54.773132 
L 387.607932 54.297021 
L 387.682962 54.297021 
L 387.783001 54.773132 
L 387.883041 54.297021 
L 388.008091 54.773132 
L 388.083121 54.773132 
L 388.208171 54.297021 
L 388.383241 54.297021 
L 388.508291 54.773132 
L 388.583321 54.773132 
L 388.708371 54.297021 
L 388.883441 54.297021 
L 388.98348 53.820911 
L 389.13354 54.773132 
L 389.18356 54.773132 
L 389.2836 55.249243 
L 389.40865 54.297021 
L 389.48368 54.297021 
L 389.58372 54.773132 
L 389.68376 54.297021 
L 389.80881 54.773132 
L 389.88384 54.773132 
L 390.00889 54.297021 
L 390.08392 54.297021 
L 390.183959 54.773132 
L 390.309009 54.297021 
L 390.384039 54.297021 
L 390.484079 54.773132 
L 390.609129 54.297021 
L 390.884239 54.297021 
L 390.984279 54.773132 
L 391.109329 54.297021 
L 391.384439 54.297021 
L 391.509488 53.820911 
L 391.584518 53.820911 
L 391.684558 54.297021 
L 391.809608 53.820911 
L 391.884638 53.820911 
L 392.034698 54.773132 
L 392.084718 54.773132 
L 392.209768 54.297021 
L 392.384838 54.297021 
L 392.484878 53.820911 
L 392.609928 54.297021 
L 392.885037 54.297021 
L 392.985077 53.820911 
L 393.110127 54.297021 
L 393.185157 54.297021 
L 393.285197 54.773132 
L 393.435257 53.820911 
L 393.485277 53.820911 
L 393.585317 54.773132 
L 393.685357 54.297021 
L 393.810407 54.773132 
L 393.985476 54.773132 
L 394.085516 55.249243 
L 394.210566 54.773132 
L 394.385636 54.773132 
L 394.510686 55.249243 
L 394.585716 55.249243 
L 394.685756 54.773132 
L 394.785796 55.249243 
L 394.885836 54.297021 
L 395.010886 54.773132 
L 395.185955 54.773132 
L 395.311005 55.249243 
L 395.786195 55.249243 
L 395.886235 54.773132 
L 395.986275 55.249243 
L 396.111325 54.773132 
L 396.186355 54.773132 
L 396.286395 55.249243 
L 396.411444 54.773132 
L 396.686554 54.773132 
L 396.786594 54.297021 
L 396.936654 55.249243 
L 396.986674 55.249243 
L 397.086714 54.297021 
L 397.186754 54.773132 
L 397.286794 53.820911 
L 397.436854 54.773132 
L 397.486874 54.773132 
L 397.586913 54.297021 
L 397.711963 54.773132 
L 397.786993 54.773132 
L 397.887033 54.297021 
L 397.987073 55.249243 
L 398.112123 54.773132 
L 398.187153 54.773132 
L 398.312203 54.297021 
L 398.387233 54.297021 
L 398.487273 54.773132 
L 398.487273 54.773132 
" style="fill:none;stroke:#1f77b4;stroke-linecap:square;stroke-width:1.5;"/>
   </g>
   <g id="patch_3">
    <path d="M 57.6 306.3024 
L 57.6 41.2992 
" style="fill:none;stroke:#000000;stroke-linecap:square;stroke-linejoin:miter;stroke-width:0.8;"/>
   </g>
   <g id="patch_4">
    <path d="M 414.72 306.3024 
L 414.72 41.2992 
" style="fill:none;stroke:#000000;stroke-linecap:square;stroke-linejoin:miter;stroke-width:0.8;"/>
   </g>
   <g id="patch_5">
    <path d="M 57.6 306.3024 
L 414.72 306.3024 
" style="fill:none;stroke:#000000;stroke-linecap:square;stroke-linejoin:miter;stroke-width:0.8;"/>
   </g>
   <g id="patch_6">
    <path d="M 57.6 41.2992 
L 414.72 41.2992 
" style="fill:none;stroke:#000000;stroke-linecap:square;stroke-linejoin:miter;stroke-width:0.8;"/>
   </g>
   <g id="text_15">
    <!-- Tempertura -->
    <g transform="translate(200.709375 35.2992)scale(0.12 -0.12)">
     <use xlink:href="#DejaVuSans-84"/>
     <use x="60.818359" xlink:href="#DejaVuSans-101"/>
     <use x="122.341797" xlink:href="#DejaVuSans-109"/>
     <use x="219.753906" xlink:href="#DejaVuSans-112"/>
     <use x="283.230469" xlink:href="#DejaVuSans-101"/>
     <use x="344.753906" xlink:href="#DejaVuSans-114"/>
     <use x="385.867188" xlink:href="#DejaVuSans-116"/>
     <use x="425.076172" xlink:href="#DejaVuSans-117"/>
     <use x="488.455078" xlink:href="#DejaVuSans-114"/>
     <use x="529.568359" xlink:href="#DejaVuSans-97"/>
    </g>
   </g>
  </g>
 </g>
 <defs>
  <clipPath id="p11f353db3e">
   <rect height="265.0032" width="357.12" x="57.6" y="41.2992"/>
  </clipPath>
 </defs>
</svg>
