<?xml version="1.0" encoding="utf-8" standalone="no"?>
<!DOCTYPE svg PUBLIC "-//W3C//DTD SVG 1.1//EN"
  "http://www.w3.org/Graphics/SVG/1.1/DTD/svg11.dtd">
<!-- Created with matplotlib (https://matplotlib.org/) -->
<svg height="344.16pt" version="1.1" viewBox="0 0 460.8 344.16" width="460.8pt" xmlns="http://www.w3.org/2000/svg" xmlns:xlink="http://www.w3.org/1999/xlink">
 <defs>
  <style type="text/css">
*{stroke-linecap:butt;stroke-linejoin:round;}
  </style>
 </defs>
 <g id="figure_1">
  <g id="patch_1">
   <path d="M 0 344.16 
L 460.8 344.16 
L 460.8 0 
L 0 0 
z
" style="fill:#ffffff;"/>
  </g>
  <g id="axes_1">
   <g id="patch_2">
    <path d="M 57.6 306.3024 
L 414.72 306.3024 
L 414.72 41.2992 
L 57.6 41.2992 
z
" style="fill:#ffffff;"/>
   </g>
   <g id="matplotlib.axis_1">
    <g id="xtick_1">
     <g id="line2d_1">
      <defs>
       <path d="M 0 0 
L 0 3.5 
" id="mf0053ff98f" style="stroke:#000000;stroke-width:0.8;"/>
      </defs>
      <g>
       <use style="stroke:#000000;stroke-width:0.8;" x="73.832727" xlink:href="#mf0053ff98f" y="306.3024"/>
      </g>
     </g>
     <g id="text_1">
      <!-- 0 -->
      <defs>
       <path d="M 31.78125 66.40625 
Q 24.171875 66.40625 20.328125 58.90625 
Q 16.5 51.421875 16.5 36.375 
Q 16.5 21.390625 20.328125 13.890625 
Q 24.171875 6.390625 31.78125 6.390625 
Q 39.453125 6.390625 43.28125 13.890625 
Q 47.125 21.390625 47.125 36.375 
Q 47.125 51.421875 43.28125 58.90625 
Q 39.453125 66.40625 31.78125 66.40625 
z
M 31.78125 74.21875 
Q 44.046875 74.21875 50.515625 64.515625 
Q 56.984375 54.828125 56.984375 36.375 
Q 56.984375 17.96875 50.515625 8.265625 
Q 44.046875 -1.421875 31.78125 -1.421875 
Q 19.53125 -1.421875 13.0625 8.265625 
Q 6.59375 17.96875 6.59375 36.375 
Q 6.59375 54.828125 13.0625 64.515625 
Q 19.53125 74.21875 31.78125 74.21875 
z
" id="DejaVuSans-48"/>
      </defs>
      <g transform="translate(70.651477 320.900838)scale(0.1 -0.1)">
       <use xlink:href="#DejaVuSans-48"/>
      </g>
     </g>
    </g>
    <g id="xtick_2">
     <g id="line2d_2">
      <g>
       <use style="stroke:#000000;stroke-width:0.8;" x="113.673507" xlink:href="#mf0053ff98f" y="306.3024"/>
      </g>
     </g>
     <g id="text_2">
      <!-- 5000 -->
      <defs>
       <path d="M 10.796875 72.90625 
L 49.515625 72.90625 
L 49.515625 64.59375 
L 19.828125 64.59375 
L 19.828125 46.734375 
Q 21.96875 47.46875 24.109375 47.828125 
Q 26.265625 48.1875 28.421875 48.1875 
Q 40.625 48.1875 47.75 41.5 
Q 54.890625 34.8125 54.890625 23.390625 
Q 54.890625 11.625 47.5625 5.09375 
Q 40.234375 -1.421875 26.90625 -1.421875 
Q 22.3125 -1.421875 17.546875 -0.640625 
Q 12.796875 0.140625 7.71875 1.703125 
L 7.71875 11.625 
Q 12.109375 9.234375 16.796875 8.0625 
Q 21.484375 6.890625 26.703125 6.890625 
Q 35.15625 6.890625 40.078125 11.328125 
Q 45.015625 15.765625 45.015625 23.390625 
Q 45.015625 31 40.078125 35.4375 
Q 35.15625 39.890625 26.703125 39.890625 
Q 22.75 39.890625 18.8125 39.015625 
Q 14.890625 38.140625 10.796875 36.28125 
z
" id="DejaVuSans-53"/>
      </defs>
      <g transform="translate(100.948507 320.900838)scale(0.1 -0.1)">
       <use xlink:href="#DejaVuSans-53"/>
       <use x="63.623047" xlink:href="#DejaVuSans-48"/>
       <use x="127.246094" xlink:href="#DejaVuSans-48"/>
       <use x="190.869141" xlink:href="#DejaVuSans-48"/>
      </g>
     </g>
    </g>
    <g id="xtick_3">
     <g id="line2d_3">
      <g>
       <use style="stroke:#000000;stroke-width:0.8;" x="153.514287" xlink:href="#mf0053ff98f" y="306.3024"/>
      </g>
     </g>
     <g id="text_3">
      <!-- 10000 -->
      <defs>
       <path d="M 12.40625 8.296875 
L 28.515625 8.296875 
L 28.515625 63.921875 
L 10.984375 60.40625 
L 10.984375 69.390625 
L 28.421875 72.90625 
L 38.28125 72.90625 
L 38.28125 8.296875 
L 54.390625 8.296875 
L 54.390625 0 
L 12.40625 0 
z
" id="DejaVuSans-49"/>
      </defs>
      <g transform="translate(137.608037 320.900838)scale(0.1 -0.1)">
       <use xlink:href="#DejaVuSans-49"/>
       <use x="63.623047" xlink:href="#DejaVuSans-48"/>
       <use x="127.246094" xlink:href="#DejaVuSans-48"/>
       <use x="190.869141" xlink:href="#DejaVuSans-48"/>
       <use x="254.492188" xlink:href="#DejaVuSans-48"/>
      </g>
     </g>
    </g>
    <g id="xtick_4">
     <g id="line2d_4">
      <g>
       <use style="stroke:#000000;stroke-width:0.8;" x="193.355066" xlink:href="#mf0053ff98f" y="306.3024"/>
      </g>
     </g>
     <g id="text_4">
      <!-- 15000 -->
      <g transform="translate(177.448816 320.900838)scale(0.1 -0.1)">
       <use xlink:href="#DejaVuSans-49"/>
       <use x="63.623047" xlink:href="#DejaVuSans-53"/>
       <use x="127.246094" xlink:href="#DejaVuSans-48"/>
       <use x="190.869141" xlink:href="#DejaVuSans-48"/>
       <use x="254.492188" xlink:href="#DejaVuSans-48"/>
      </g>
     </g>
    </g>
    <g id="xtick_5">
     <g id="line2d_5">
      <g>
       <use style="stroke:#000000;stroke-width:0.8;" x="233.195846" xlink:href="#mf0053ff98f" y="306.3024"/>
      </g>
     </g>
     <g id="text_5">
      <!-- 20000 -->
      <defs>
       <path d="M 19.1875 8.296875 
L 53.609375 8.296875 
L 53.609375 0 
L 7.328125 0 
L 7.328125 8.296875 
Q 12.9375 14.109375 22.625 23.890625 
Q 32.328125 33.6875 34.8125 36.53125 
Q 39.546875 41.84375 41.421875 45.53125 
Q 43.3125 49.21875 43.3125 52.78125 
Q 43.3125 58.59375 39.234375 62.25 
Q 35.15625 65.921875 28.609375 65.921875 
Q 23.96875 65.921875 18.8125 64.3125 
Q 13.671875 62.703125 7.8125 59.421875 
L 7.8125 69.390625 
Q 13.765625 71.78125 18.9375 73 
Q 24.125 74.21875 28.421875 74.21875 
Q 39.75 74.21875 46.484375 68.546875 
Q 53.21875 62.890625 53.21875 53.421875 
Q 53.21875 48.921875 51.53125 44.890625 
Q 49.859375 40.875 45.40625 35.40625 
Q 44.1875 33.984375 37.640625 27.21875 
Q 31.109375 20.453125 19.1875 8.296875 
z
" id="DejaVuSans-50"/>
      </defs>
      <g transform="translate(217.289596 320.900838)scale(0.1 -0.1)">
       <use xlink:href="#DejaVuSans-50"/>
       <use x="63.623047" xlink:href="#DejaVuSans-48"/>
       <use x="127.246094" xlink:href="#DejaVuSans-48"/>
       <use x="190.869141" xlink:href="#DejaVuSans-48"/>
       <use x="254.492188" xlink:href="#DejaVuSans-48"/>
      </g>
     </g>
    </g>
    <g id="xtick_6">
     <g id="line2d_6">
      <g>
       <use style="stroke:#000000;stroke-width:0.8;" x="273.036626" xlink:href="#mf0053ff98f" y="306.3024"/>
      </g>
     </g>
     <g id="text_6">
      <!-- 25000 -->
      <g transform="translate(257.130376 320.900838)scale(0.1 -0.1)">
       <use xlink:href="#DejaVuSans-50"/>
       <use x="63.623047" xlink:href="#DejaVuSans-53"/>
       <use x="127.246094" xlink:href="#DejaVuSans-48"/>
       <use x="190.869141" xlink:href="#DejaVuSans-48"/>
       <use x="254.492188" xlink:href="#DejaVuSans-48"/>
      </g>
     </g>
    </g>
    <g id="xtick_7">
     <g id="line2d_7">
      <g>
       <use style="stroke:#000000;stroke-width:0.8;" x="312.877405" xlink:href="#mf0053ff98f" y="306.3024"/>
      </g>
     </g>
     <g id="text_7">
      <!-- 30000 -->
      <defs>
       <path d="M 40.578125 39.3125 
Q 47.65625 37.796875 51.625 33 
Q 55.609375 28.21875 55.609375 21.1875 
Q 55.609375 10.40625 48.1875 4.484375 
Q 40.765625 -1.421875 27.09375 -1.421875 
Q 22.515625 -1.421875 17.65625 -0.515625 
Q 12.796875 0.390625 7.625 2.203125 
L 7.625 11.71875 
Q 11.71875 9.328125 16.59375 8.109375 
Q 21.484375 6.890625 26.8125 6.890625 
Q 36.078125 6.890625 40.9375 10.546875 
Q 45.796875 14.203125 45.796875 21.1875 
Q 45.796875 27.640625 41.28125 31.265625 
Q 36.765625 34.90625 28.71875 34.90625 
L 20.21875 34.90625 
L 20.21875 43.015625 
L 29.109375 43.015625 
Q 36.375 43.015625 40.234375 45.921875 
Q 44.09375 48.828125 44.09375 54.296875 
Q 44.09375 59.90625 40.109375 62.90625 
Q 36.140625 65.921875 28.71875 65.921875 
Q 24.65625 65.921875 20.015625 65.03125 
Q 15.375 64.15625 9.8125 62.3125 
L 9.8125 71.09375 
Q 15.4375 72.65625 20.34375 73.4375 
Q 25.25 74.21875 29.59375 74.21875 
Q 40.828125 74.21875 47.359375 69.109375 
Q 53.90625 64.015625 53.90625 55.328125 
Q 53.90625 49.265625 50.4375 45.09375 
Q 46.96875 40.921875 40.578125 39.3125 
z
" id="DejaVuSans-51"/>
      </defs>
      <g transform="translate(296.971155 320.900838)scale(0.1 -0.1)">
       <use xlink:href="#DejaVuSans-51"/>
       <use x="63.623047" xlink:href="#DejaVuSans-48"/>
       <use x="127.246094" xlink:href="#DejaVuSans-48"/>
       <use x="190.869141" xlink:href="#DejaVuSans-48"/>
       <use x="254.492188" xlink:href="#DejaVuSans-48"/>
      </g>
     </g>
    </g>
    <g id="xtick_8">
     <g id="line2d_8">
      <g>
       <use style="stroke:#000000;stroke-width:0.8;" x="352.718185" xlink:href="#mf0053ff98f" y="306.3024"/>
      </g>
     </g>
     <g id="text_8">
      <!-- 35000 -->
      <g transform="translate(336.811935 320.900838)scale(0.1 -0.1)">
       <use xlink:href="#DejaVuSans-51"/>
       <use x="63.623047" xlink:href="#DejaVuSans-53"/>
       <use x="127.246094" xlink:href="#DejaVuSans-48"/>
       <use x="190.869141" xlink:href="#DejaVuSans-48"/>
       <use x="254.492188" xlink:href="#DejaVuSans-48"/>
      </g>
     </g>
    </g>
    <g id="xtick_9">
     <g id="line2d_9">
      <g>
       <use style="stroke:#000000;stroke-width:0.8;" x="392.558965" xlink:href="#mf0053ff98f" y="306.3024"/>
      </g>
     </g>
     <g id="text_9">
      <!-- 40000 -->
      <defs>
       <path d="M 37.796875 64.3125 
L 12.890625 25.390625 
L 37.796875 25.390625 
z
M 35.203125 72.90625 
L 47.609375 72.90625 
L 47.609375 25.390625 
L 58.015625 25.390625 
L 58.015625 17.1875 
L 47.609375 17.1875 
L 47.609375 0 
L 37.796875 0 
L 37.796875 17.1875 
L 4.890625 17.1875 
L 4.890625 26.703125 
z
" id="DejaVuSans-52"/>
      </defs>
      <g transform="translate(376.652715 320.900838)scale(0.1 -0.1)">
       <use xlink:href="#DejaVuSans-52"/>
       <use x="63.623047" xlink:href="#DejaVuSans-48"/>
       <use x="127.246094" xlink:href="#DejaVuSans-48"/>
       <use x="190.869141" xlink:href="#DejaVuSans-48"/>
       <use x="254.492188" xlink:href="#DejaVuSans-48"/>
      </g>
     </g>
    </g>
    <g id="text_10">
     <!-- Muestras -->
     <defs>
      <path d="M 9.8125 72.90625 
L 24.515625 72.90625 
L 43.109375 23.296875 
L 61.8125 72.90625 
L 76.515625 72.90625 
L 76.515625 0 
L 66.890625 0 
L 66.890625 64.015625 
L 48.09375 14.015625 
L 38.1875 14.015625 
L 19.390625 64.015625 
L 19.390625 0 
L 9.8125 0 
z
" id="DejaVuSans-77"/>
      <path d="M 8.5 21.578125 
L 8.5 54.6875 
L 17.484375 54.6875 
L 17.484375 21.921875 
Q 17.484375 14.15625 20.5 10.265625 
Q 23.53125 6.390625 29.59375 6.390625 
Q 36.859375 6.390625 41.078125 11.03125 
Q 45.3125 15.671875 45.3125 23.6875 
L 45.3125 54.6875 
L 54.296875 54.6875 
L 54.296875 0 
L 45.3125 0 
L 45.3125 8.40625 
Q 42.046875 3.421875 37.71875 1 
Q 33.40625 -1.421875 27.6875 -1.421875 
Q 18.265625 -1.421875 13.375 4.4375 
Q 8.5 10.296875 8.5 21.578125 
z
M 31.109375 56 
z
" id="DejaVuSans-117"/>
      <path d="M 56.203125 29.59375 
L 56.203125 25.203125 
L 14.890625 25.203125 
Q 15.484375 15.921875 20.484375 11.0625 
Q 25.484375 6.203125 34.421875 6.203125 
Q 39.59375 6.203125 44.453125 7.46875 
Q 49.3125 8.734375 54.109375 11.28125 
L 54.109375 2.78125 
Q 49.265625 0.734375 44.1875 -0.34375 
Q 39.109375 -1.421875 33.890625 -1.421875 
Q 20.796875 -1.421875 13.15625 6.1875 
Q 5.515625 13.8125 5.515625 26.8125 
Q 5.515625 40.234375 12.765625 48.109375 
Q 20.015625 56 32.328125 56 
Q 43.359375 56 49.78125 48.890625 
Q 56.203125 41.796875 56.203125 29.59375 
z
M 47.21875 32.234375 
Q 47.125 39.59375 43.09375 43.984375 
Q 39.0625 48.390625 32.421875 48.390625 
Q 24.90625 48.390625 20.390625 44.140625 
Q 15.875 39.890625 15.1875 32.171875 
z
" id="DejaVuSans-101"/>
      <path d="M 44.28125 53.078125 
L 44.28125 44.578125 
Q 40.484375 46.53125 36.375 47.5 
Q 32.28125 48.484375 27.875 48.484375 
Q 21.1875 48.484375 17.84375 46.4375 
Q 14.5 44.390625 14.5 40.28125 
Q 14.5 37.15625 16.890625 35.375 
Q 19.28125 33.59375 26.515625 31.984375 
L 29.59375 31.296875 
Q 39.15625 29.25 43.1875 25.515625 
Q 47.21875 21.78125 47.21875 15.09375 
Q 47.21875 7.46875 41.1875 3.015625 
Q 35.15625 -1.421875 24.609375 -1.421875 
Q 20.21875 -1.421875 15.453125 -0.5625 
Q 10.6875 0.296875 5.421875 2 
L 5.421875 11.28125 
Q 10.40625 8.6875 15.234375 7.390625 
Q 20.0625 6.109375 24.8125 6.109375 
Q 31.15625 6.109375 34.5625 8.28125 
Q 37.984375 10.453125 37.984375 14.40625 
Q 37.984375 18.0625 35.515625 20.015625 
Q 33.0625 21.96875 24.703125 23.78125 
L 21.578125 24.515625 
Q 13.234375 26.265625 9.515625 29.90625 
Q 5.8125 33.546875 5.8125 39.890625 
Q 5.8125 47.609375 11.28125 51.796875 
Q 16.75 56 26.8125 56 
Q 31.78125 56 36.171875 55.265625 
Q 40.578125 54.546875 44.28125 53.078125 
z
" id="DejaVuSans-115"/>
      <path d="M 18.3125 70.21875 
L 18.3125 54.6875 
L 36.8125 54.6875 
L 36.8125 47.703125 
L 18.3125 47.703125 
L 18.3125 18.015625 
Q 18.3125 11.328125 20.140625 9.421875 
Q 21.96875 7.515625 27.59375 7.515625 
L 36.8125 7.515625 
L 36.8125 0 
L 27.59375 0 
Q 17.1875 0 13.234375 3.875 
Q 9.28125 7.765625 9.28125 18.015625 
L 9.28125 47.703125 
L 2.6875 47.703125 
L 2.6875 54.6875 
L 9.28125 54.6875 
L 9.28125 70.21875 
z
" id="DejaVuSans-116"/>
      <path d="M 41.109375 46.296875 
Q 39.59375 47.171875 37.8125 47.578125 
Q 36.03125 48 33.890625 48 
Q 26.265625 48 22.1875 43.046875 
Q 18.109375 38.09375 18.109375 28.8125 
L 18.109375 0 
L 9.078125 0 
L 9.078125 54.6875 
L 18.109375 54.6875 
L 18.109375 46.1875 
Q 20.953125 51.171875 25.484375 53.578125 
Q 30.03125 56 36.53125 56 
Q 37.453125 56 38.578125 55.875 
Q 39.703125 55.765625 41.0625 55.515625 
z
" id="DejaVuSans-114"/>
      <path d="M 34.28125 27.484375 
Q 23.390625 27.484375 19.1875 25 
Q 14.984375 22.515625 14.984375 16.5 
Q 14.984375 11.71875 18.140625 8.90625 
Q 21.296875 6.109375 26.703125 6.109375 
Q 34.1875 6.109375 38.703125 11.40625 
Q 43.21875 16.703125 43.21875 25.484375 
L 43.21875 27.484375 
z
M 52.203125 31.203125 
L 52.203125 0 
L 43.21875 0 
L 43.21875 8.296875 
Q 40.140625 3.328125 35.546875 0.953125 
Q 30.953125 -1.421875 24.3125 -1.421875 
Q 15.921875 -1.421875 10.953125 3.296875 
Q 6 8.015625 6 15.921875 
Q 6 25.140625 12.171875 29.828125 
Q 18.359375 34.515625 30.609375 34.515625 
L 43.21875 34.515625 
L 43.21875 35.40625 
Q 43.21875 41.609375 39.140625 45 
Q 35.0625 48.390625 27.6875 48.390625 
Q 23 48.390625 18.546875 47.265625 
Q 14.109375 46.140625 10.015625 43.890625 
L 10.015625 52.203125 
Q 14.9375 54.109375 19.578125 55.046875 
Q 24.21875 56 28.609375 56 
Q 40.484375 56 46.34375 49.84375 
Q 52.203125 43.703125 52.203125 31.203125 
z
" id="DejaVuSans-97"/>
     </defs>
     <g transform="translate(213.311562 334.578963)scale(0.1 -0.1)">
      <use xlink:href="#DejaVuSans-77"/>
      <use x="86.279297" xlink:href="#DejaVuSans-117"/>
      <use x="149.658203" xlink:href="#DejaVuSans-101"/>
      <use x="211.181641" xlink:href="#DejaVuSans-115"/>
      <use x="263.28125" xlink:href="#DejaVuSans-116"/>
      <use x="302.490234" xlink:href="#DejaVuSans-114"/>
      <use x="343.603516" xlink:href="#DejaVuSans-97"/>
      <use x="404.882812" xlink:href="#DejaVuSans-115"/>
     </g>
    </g>
   </g>
   <g id="matplotlib.axis_2">
    <g id="ytick_1">
     <g id="line2d_10">
      <defs>
       <path d="M 0 0 
L -3.5 0 
" id="m671494b287" style="stroke:#000000;stroke-width:0.8;"/>
      </defs>
      <g>
       <use style="stroke:#000000;stroke-width:0.8;" x="57.6" xlink:href="#m671494b287" y="283.845366"/>
      </g>
     </g>
     <g id="text_11">
      <!-- 60 -->
      <defs>
       <path d="M 33.015625 40.375 
Q 26.375 40.375 22.484375 35.828125 
Q 18.609375 31.296875 18.609375 23.390625 
Q 18.609375 15.53125 22.484375 10.953125 
Q 26.375 6.390625 33.015625 6.390625 
Q 39.65625 6.390625 43.53125 10.953125 
Q 47.40625 15.53125 47.40625 23.390625 
Q 47.40625 31.296875 43.53125 35.828125 
Q 39.65625 40.375 33.015625 40.375 
z
M 52.59375 71.296875 
L 52.59375 62.3125 
Q 48.875 64.0625 45.09375 64.984375 
Q 41.3125 65.921875 37.59375 65.921875 
Q 27.828125 65.921875 22.671875 59.328125 
Q 17.53125 52.734375 16.796875 39.40625 
Q 19.671875 43.65625 24.015625 45.921875 
Q 28.375 48.1875 33.59375 48.1875 
Q 44.578125 48.1875 50.953125 41.515625 
Q 57.328125 34.859375 57.328125 23.390625 
Q 57.328125 12.15625 50.6875 5.359375 
Q 44.046875 -1.421875 33.015625 -1.421875 
Q 20.359375 -1.421875 13.671875 8.265625 
Q 6.984375 17.96875 6.984375 36.375 
Q 6.984375 53.65625 15.1875 63.9375 
Q 23.390625 74.21875 37.203125 74.21875 
Q 40.921875 74.21875 44.703125 73.484375 
Q 48.484375 72.75 52.59375 71.296875 
z
" id="DejaVuSans-54"/>
      </defs>
      <g transform="translate(37.875 287.644585)scale(0.1 -0.1)">
       <use xlink:href="#DejaVuSans-54"/>
       <use x="63.623047" xlink:href="#DejaVuSans-48"/>
      </g>
     </g>
    </g>
    <g id="ytick_2">
     <g id="line2d_11">
      <g>
       <use style="stroke:#000000;stroke-width:0.8;" x="57.6" xlink:href="#m671494b287" y="230.178179"/>
      </g>
     </g>
     <g id="text_12">
      <!-- 80 -->
      <defs>
       <path d="M 31.78125 34.625 
Q 24.75 34.625 20.71875 30.859375 
Q 16.703125 27.09375 16.703125 20.515625 
Q 16.703125 13.921875 20.71875 10.15625 
Q 24.75 6.390625 31.78125 6.390625 
Q 38.8125 6.390625 42.859375 10.171875 
Q 46.921875 13.96875 46.921875 20.515625 
Q 46.921875 27.09375 42.890625 30.859375 
Q 38.875 34.625 31.78125 34.625 
z
M 21.921875 38.8125 
Q 15.578125 40.375 12.03125 44.71875 
Q 8.5 49.078125 8.5 55.328125 
Q 8.5 64.0625 14.71875 69.140625 
Q 20.953125 74.21875 31.78125 74.21875 
Q 42.671875 74.21875 48.875 69.140625 
Q 55.078125 64.0625 55.078125 55.328125 
Q 55.078125 49.078125 51.53125 44.71875 
Q 48 40.375 41.703125 38.8125 
Q 48.828125 37.15625 52.796875 32.3125 
Q 56.78125 27.484375 56.78125 20.515625 
Q 56.78125 9.90625 50.3125 4.234375 
Q 43.84375 -1.421875 31.78125 -1.421875 
Q 19.734375 -1.421875 13.25 4.234375 
Q 6.78125 9.90625 6.78125 20.515625 
Q 6.78125 27.484375 10.78125 32.3125 
Q 14.796875 37.15625 21.921875 38.8125 
z
M 18.3125 54.390625 
Q 18.3125 48.734375 21.84375 45.5625 
Q 25.390625 42.390625 31.78125 42.390625 
Q 38.140625 42.390625 41.71875 45.5625 
Q 45.3125 48.734375 45.3125 54.390625 
Q 45.3125 60.0625 41.71875 63.234375 
Q 38.140625 66.40625 31.78125 66.40625 
Q 25.390625 66.40625 21.84375 63.234375 
Q 18.3125 60.0625 18.3125 54.390625 
z
" id="DejaVuSans-56"/>
      </defs>
      <g transform="translate(37.875 233.977398)scale(0.1 -0.1)">
       <use xlink:href="#DejaVuSans-56"/>
       <use x="63.623047" xlink:href="#DejaVuSans-48"/>
      </g>
     </g>
    </g>
    <g id="ytick_3">
     <g id="line2d_12">
      <g>
       <use style="stroke:#000000;stroke-width:0.8;" x="57.6" xlink:href="#m671494b287" y="176.510993"/>
      </g>
     </g>
     <g id="text_13">
      <!-- 100 -->
      <g transform="translate(31.5125 180.310212)scale(0.1 -0.1)">
       <use xlink:href="#DejaVuSans-49"/>
       <use x="63.623047" xlink:href="#DejaVuSans-48"/>
       <use x="127.246094" xlink:href="#DejaVuSans-48"/>
      </g>
     </g>
    </g>
    <g id="ytick_4">
     <g id="line2d_13">
      <g>
       <use style="stroke:#000000;stroke-width:0.8;" x="57.6" xlink:href="#m671494b287" y="122.843806"/>
      </g>
     </g>
     <g id="text_14">
      <!-- 120 -->
      <g transform="translate(31.5125 126.643025)scale(0.1 -0.1)">
       <use xlink:href="#DejaVuSans-49"/>
       <use x="63.623047" xlink:href="#DejaVuSans-50"/>
       <use x="127.246094" xlink:href="#DejaVuSans-48"/>
      </g>
     </g>
    </g>
    <g id="ytick_5">
     <g id="line2d_14">
      <g>
       <use style="stroke:#000000;stroke-width:0.8;" x="57.6" xlink:href="#m671494b287" y="69.17662"/>
      </g>
     </g>
     <g id="text_15">
      <!-- 140 -->
      <g transform="translate(31.5125 72.975839)scale(0.1 -0.1)">
       <use xlink:href="#DejaVuSans-49"/>
       <use x="63.623047" xlink:href="#DejaVuSans-52"/>
       <use x="127.246094" xlink:href="#DejaVuSans-48"/>
      </g>
     </g>
    </g>
    <g id="text_16">
     <!-- Valor de Ritmo Cardíaco -->
     <defs>
      <path d="M 28.609375 0 
L 0.78125 72.90625 
L 11.078125 72.90625 
L 34.1875 11.53125 
L 57.328125 72.90625 
L 67.578125 72.90625 
L 39.796875 0 
z
" id="DejaVuSans-86"/>
      <path d="M 9.421875 75.984375 
L 18.40625 75.984375 
L 18.40625 0 
L 9.421875 0 
z
" id="DejaVuSans-108"/>
      <path d="M 30.609375 48.390625 
Q 23.390625 48.390625 19.1875 42.75 
Q 14.984375 37.109375 14.984375 27.296875 
Q 14.984375 17.484375 19.15625 11.84375 
Q 23.34375 6.203125 30.609375 6.203125 
Q 37.796875 6.203125 41.984375 11.859375 
Q 46.1875 17.53125 46.1875 27.296875 
Q 46.1875 37.015625 41.984375 42.703125 
Q 37.796875 48.390625 30.609375 48.390625 
z
M 30.609375 56 
Q 42.328125 56 49.015625 48.375 
Q 55.71875 40.765625 55.71875 27.296875 
Q 55.71875 13.875 49.015625 6.21875 
Q 42.328125 -1.421875 30.609375 -1.421875 
Q 18.84375 -1.421875 12.171875 6.21875 
Q 5.515625 13.875 5.515625 27.296875 
Q 5.515625 40.765625 12.171875 48.375 
Q 18.84375 56 30.609375 56 
z
" id="DejaVuSans-111"/>
      <path id="DejaVuSans-32"/>
      <path d="M 45.40625 46.390625 
L 45.40625 75.984375 
L 54.390625 75.984375 
L 54.390625 0 
L 45.40625 0 
L 45.40625 8.203125 
Q 42.578125 3.328125 38.25 0.953125 
Q 33.9375 -1.421875 27.875 -1.421875 
Q 17.96875 -1.421875 11.734375 6.484375 
Q 5.515625 14.40625 5.515625 27.296875 
Q 5.515625 40.1875 11.734375 48.09375 
Q 17.96875 56 27.875 56 
Q 33.9375 56 38.25 53.625 
Q 42.578125 51.265625 45.40625 46.390625 
z
M 14.796875 27.296875 
Q 14.796875 17.390625 18.875 11.75 
Q 22.953125 6.109375 30.078125 6.109375 
Q 37.203125 6.109375 41.296875 11.75 
Q 45.40625 17.390625 45.40625 27.296875 
Q 45.40625 37.203125 41.296875 42.84375 
Q 37.203125 48.484375 30.078125 48.484375 
Q 22.953125 48.484375 18.875 42.84375 
Q 14.796875 37.203125 14.796875 27.296875 
z
" id="DejaVuSans-100"/>
      <path d="M 44.390625 34.1875 
Q 47.5625 33.109375 50.5625 29.59375 
Q 53.5625 26.078125 56.59375 19.921875 
L 66.609375 0 
L 56 0 
L 46.6875 18.703125 
Q 43.0625 26.03125 39.671875 28.421875 
Q 36.28125 30.8125 30.421875 30.8125 
L 19.671875 30.8125 
L 19.671875 0 
L 9.8125 0 
L 9.8125 72.90625 
L 32.078125 72.90625 
Q 44.578125 72.90625 50.734375 67.671875 
Q 56.890625 62.453125 56.890625 51.90625 
Q 56.890625 45.015625 53.6875 40.46875 
Q 50.484375 35.9375 44.390625 34.1875 
z
M 19.671875 64.796875 
L 19.671875 38.921875 
L 32.078125 38.921875 
Q 39.203125 38.921875 42.84375 42.21875 
Q 46.484375 45.515625 46.484375 51.90625 
Q 46.484375 58.296875 42.84375 61.546875 
Q 39.203125 64.796875 32.078125 64.796875 
z
" id="DejaVuSans-82"/>
      <path d="M 9.421875 54.6875 
L 18.40625 54.6875 
L 18.40625 0 
L 9.421875 0 
z
M 9.421875 75.984375 
L 18.40625 75.984375 
L 18.40625 64.59375 
L 9.421875 64.59375 
z
" id="DejaVuSans-105"/>
      <path d="M 52 44.1875 
Q 55.375 50.25 60.0625 53.125 
Q 64.75 56 71.09375 56 
Q 79.640625 56 84.28125 50.015625 
Q 88.921875 44.046875 88.921875 33.015625 
L 88.921875 0 
L 79.890625 0 
L 79.890625 32.71875 
Q 79.890625 40.578125 77.09375 44.375 
Q 74.3125 48.1875 68.609375 48.1875 
Q 61.625 48.1875 57.5625 43.546875 
Q 53.515625 38.921875 53.515625 30.90625 
L 53.515625 0 
L 44.484375 0 
L 44.484375 32.71875 
Q 44.484375 40.625 41.703125 44.40625 
Q 38.921875 48.1875 33.109375 48.1875 
Q 26.21875 48.1875 22.15625 43.53125 
Q 18.109375 38.875 18.109375 30.90625 
L 18.109375 0 
L 9.078125 0 
L 9.078125 54.6875 
L 18.109375 54.6875 
L 18.109375 46.1875 
Q 21.1875 51.21875 25.484375 53.609375 
Q 29.78125 56 35.6875 56 
Q 41.65625 56 45.828125 52.96875 
Q 50 49.953125 52 44.1875 
z
" id="DejaVuSans-109"/>
      <path d="M 64.40625 67.28125 
L 64.40625 56.890625 
Q 59.421875 61.53125 53.78125 63.8125 
Q 48.140625 66.109375 41.796875 66.109375 
Q 29.296875 66.109375 22.65625 58.46875 
Q 16.015625 50.828125 16.015625 36.375 
Q 16.015625 21.96875 22.65625 14.328125 
Q 29.296875 6.6875 41.796875 6.6875 
Q 48.140625 6.6875 53.78125 8.984375 
Q 59.421875 11.28125 64.40625 15.921875 
L 64.40625 5.609375 
Q 59.234375 2.09375 53.4375 0.328125 
Q 47.65625 -1.421875 41.21875 -1.421875 
Q 24.65625 -1.421875 15.125 8.703125 
Q 5.609375 18.84375 5.609375 36.375 
Q 5.609375 53.953125 15.125 64.078125 
Q 24.65625 74.21875 41.21875 74.21875 
Q 47.75 74.21875 53.53125 72.484375 
Q 59.328125 70.75 64.40625 67.28125 
z
" id="DejaVuSans-67"/>
      <path d="M 20.703125 79.984375 
L 30.421875 79.984375 
L 14.5 61.625 
L 7.03125 61.625 
z
M 9.421875 54.6875 
L 18.40625 54.6875 
L 18.40625 0 
L 9.421875 0 
z
M 13.921875 56 
z
" id="DejaVuSans-237"/>
      <path d="M 48.78125 52.59375 
L 48.78125 44.1875 
Q 44.96875 46.296875 41.140625 47.34375 
Q 37.3125 48.390625 33.40625 48.390625 
Q 24.65625 48.390625 19.8125 42.84375 
Q 14.984375 37.3125 14.984375 27.296875 
Q 14.984375 17.28125 19.8125 11.734375 
Q 24.65625 6.203125 33.40625 6.203125 
Q 37.3125 6.203125 41.140625 7.25 
Q 44.96875 8.296875 48.78125 10.40625 
L 48.78125 2.09375 
Q 45.015625 0.34375 40.984375 -0.53125 
Q 36.96875 -1.421875 32.421875 -1.421875 
Q 20.0625 -1.421875 12.78125 6.34375 
Q 5.515625 14.109375 5.515625 27.296875 
Q 5.515625 40.671875 12.859375 48.328125 
Q 20.21875 56 33.015625 56 
Q 37.15625 56 41.109375 55.140625 
Q 45.0625 54.296875 48.78125 52.59375 
z
" id="DejaVuSans-99"/>
     </defs>
     <g transform="translate(25.432812 234.6008)rotate(-90)scale(0.1 -0.1)">
      <use xlink:href="#DejaVuSans-86"/>
      <use x="68.298828" xlink:href="#DejaVuSans-97"/>
      <use x="129.578125" xlink:href="#DejaVuSans-108"/>
      <use x="157.361328" xlink:href="#DejaVuSans-111"/>
      <use x="218.542969" xlink:href="#DejaVuSans-114"/>
      <use x="259.65625" xlink:href="#DejaVuSans-32"/>
      <use x="291.443359" xlink:href="#DejaVuSans-100"/>
      <use x="354.919922" xlink:href="#DejaVuSans-101"/>
      <use x="416.443359" xlink:href="#DejaVuSans-32"/>
      <use x="448.230469" xlink:href="#DejaVuSans-82"/>
      <use x="517.712891" xlink:href="#DejaVuSans-105"/>
      <use x="545.496094" xlink:href="#DejaVuSans-116"/>
      <use x="584.705078" xlink:href="#DejaVuSans-109"/>
      <use x="682.117188" xlink:href="#DejaVuSans-111"/>
      <use x="743.298828" xlink:href="#DejaVuSans-32"/>
      <use x="775.085938" xlink:href="#DejaVuSans-67"/>
      <use x="844.910156" xlink:href="#DejaVuSans-97"/>
      <use x="906.189453" xlink:href="#DejaVuSans-114"/>
      <use x="947.287109" xlink:href="#DejaVuSans-100"/>
      <use x="1010.763672" xlink:href="#DejaVuSans-237"/>
      <use x="1038.546875" xlink:href="#DejaVuSans-97"/>
      <use x="1099.826172" xlink:href="#DejaVuSans-99"/>
      <use x="1154.806641" xlink:href="#DejaVuSans-111"/>
     </g>
    </g>
   </g>
   <g id="line2d_15">
    <path clip-path="url(#p480059af9b)" d="M 73.832727 268.630718 
L 73.960218 229.614674 
L 73.968186 229.775675 
L 73.984122 230.178179 
L 74.087708 236.376739 
L 74.135517 232.2712 
L 74.677352 180.267696 
L 74.733129 182.09238 
L 75.051855 194.677336 
L 75.059823 194.543168 
L 75.123569 194.570001 
L 75.155441 193.147821 
L 75.322772 168.27308 
L 75.561817 146.457369 
L 75.601658 143.371505 
L 75.673371 146.001197 
L 76.11162 176.054822 
L 76.302856 171.680946 
L 76.334728 173.344629 
L 76.788913 210.535989 
L 76.836722 208.764972 
L 77.163416 182.736387 
L 77.314811 183.702396 
L 77.338716 183.299892 
L 77.378557 184.292735 
L 77.410429 183.890231 
L 77.458238 184.641572 
L 77.498079 183.943898 
L 77.705251 178.979683 
L 77.832742 175.357148 
L 77.888519 177.638004 
L 78.079754 192.530648 
L 78.454258 235.947402 
L 78.494098 235.008226 
L 78.565812 232.459035 
L 78.621589 233.800714 
L 78.629557 234.015383 
L 78.693302 232.915206 
L 79.035933 214.80253 
L 79.314819 184.1049 
L 79.402468 177.181833 
L 79.458245 180.214029 
L 79.888526 207.55746 
L 79.920398 206.913454 
L 80.079762 201.546735 
L 80.326774 196.958191 
L 80.342711 196.770356 
L 80.374583 197.655864 
L 80.772991 226.475144 
L 80.940322 248.827527 
L 81.012036 247.405346 
L 81.187335 231.332024 
L 81.474189 187.190763 
L 81.633552 188.183606 
L 81.697297 188.129939 
L 81.72917 189.793622 
L 81.904469 194.570001 
L 81.920406 194.757836 
L 81.968214 194.167497 
L 81.984151 194.167497 
L 82.016023 193.684493 
L 82.103673 193.06732 
L 82.135546 193.335656 
L 82.151482 193.550325 
L 82.191323 192.825818 
L 82.223195 191.403637 
L 82.271004 194.140664 
L 82.804871 248.612858 
L 82.860648 250.222874 
L 82.972202 252.933066 
L 83.020011 252.101225 
L 83.139533 248.773859 
L 83.179374 249.686202 
L 83.243119 251.510886 
L 83.28296 249.90087 
L 83.354674 248.908027 
L 83.418419 249.095863 
L 83.529973 251.591387 
L 83.553878 249.90087 
L 83.856667 219.364241 
L 84.079776 192.825818 
L 84.127585 193.550325 
L 84.143521 193.469824 
L 84.19133 191.537805 
L 84.342725 178.469845 
L 84.382566 176.430492 
L 84.438343 178.791848 
L 84.860655 197.226527 
L 84.900496 195.026172 
L 85.577789 147.047708 
L 85.649503 147.262376 
L 85.681375 147.262376 
L 85.737152 148.657723 
L 85.776993 147.181876 
L 85.960261 143.693508 
L 85.984165 143.908177 
L 86.016038 143.720342 
L 86.071815 148.791891 
L 86.470223 225.348133 
L 86.549904 237.50375 
L 86.613649 234.659389 
L 86.804885 215.500204 
L 87.051898 172.620122 
L 87.155484 178.711348 
L 87.47421 208.630804 
L 87.514051 205.035103 
L 87.816841 149.328563 
L 87.9523 135.187259 
L 87.984172 135.64343 
L 88.000109 135.536096 
L 88.016045 138.487791 
L 88.478198 218.773902 
L 88.581784 215.070866 
L 88.757083 205.544941 
L 88.908478 190.813298 
L 89.267045 140.768647 
L 89.529994 116.135408 
L 89.585772 113.800886 
L 89.601708 114.981564 
L 89.888561 180.267696 
L 90.047925 187.995771 
L 90.063861 188.451942 
L 90.079797 187.110262 
L 90.19932 159.203325 
L 90.247129 164.83838 
L 90.685377 229.024335 
L 90.796931 224.194288 
L 90.892549 217.083386 
L 90.956294 219.095905 
L 91.051912 223.416114 
L 91.067849 220.383918 
L 91.227212 213.407184 
L 91.330798 211.475165 
L 91.354702 210.187152 
L 91.442352 211.206829 
L 91.490161 211.206829 
L 91.561874 211.985003 
L 91.66546 201.600403 
L 92.024027 171.063773 
L 92.079804 173.210461 
L 92.239167 187.459099 
L 92.454308 202.271242 
L 92.470244 202.593246 
L 92.526021 201.600403 
L 92.669448 195.965348 
L 92.844747 188.049438 
L 92.852715 188.451942 
L 92.87662 189.874122 
L 92.932397 187.056595 
L 92.940365 187.24443 
L 93.043951 192.074477 
L 93.131601 190.142458 
L 93.290964 175.571817 
L 93.633595 124.534323 
L 93.729213 130.088877 
L 94.151525 151.09958 
L 94.183398 151.689919 
L 94.223238 150.482407 
L 94.263079 149.945736 
L 94.30292 151.206915 
L 94.366665 152.011922 
L 94.398538 150.697076 
L 94.494156 147.396544 
L 94.533996 149.060227 
L 94.565869 151.233748 
L 94.621646 148.067384 
L 94.677423 145.786529 
L 94.717264 148.33572 
L 94.924436 177.262334 
L 95.370653 222.879442 
L 95.418462 225.079797 
L 95.474239 223.201445 
L 95.649538 208.845473 
L 95.769061 200.741728 
L 95.824838 202.727413 
L 95.936392 209.516313 
L 96.135596 229.990344 
L 96.175437 228.246161 
L 96.286991 216.546714 
L 96.733207 168.917086 
L 96.757112 169.212256 
L 96.884602 177.638004 
L 97.354724 256.421434 
L 97.362692 256.340933 
L 97.593768 202.727413 
L 97.753131 188.773945 
L 97.840781 186.761426 
L 97.856717 188.666611 
L 97.920463 199.775718 
L 98.008112 195.83118 
L 98.079826 194.033329 
L 98.207316 165.50922 
L 98.40652 111.090693 
L 98.534011 112.459206 
L 98.549947 112.378705 
L 98.573851 113.183713 
L 98.781024 118.147928 
L 98.844769 118.872435 
L 98.876641 118.147928 
L 98.916482 117.477088 
L 98.964291 118.6846 
L 99.107718 120.965455 
L 99.139591 120.428783 
L 99.219272 119.543274 
L 99.243177 120.294615 
L 99.490189 123.595147 
L 99.506126 123.514646 
L 99.514094 123.380478 
L 99.545966 124.265987 
L 99.585807 123.91715 
L 99.697361 126.144338 
L 99.753139 125.312497 
L 99.816884 124.373321 
L 99.968279 121.099623 
L 99.984215 121.180124 
L 100.032024 120.214114 
L 100.207323 124.722158 
L 100.302941 126.01017 
L 100.462304 129.149701 
L 100.478241 128.666696 
L 100.629636 123.997651 
L 100.677445 125.715001 
L 100.820871 128.478861 
L 100.836808 128.344693 
L 100.892585 127.620186 
L 100.940394 128.264192 
L 101.004139 129.36437 
L 101.04398 128.210525 
L 101.290993 122.226634 
L 101.330833 122.307135 
L 101.338802 122.360802 
L 101.378642 121.985131 
L 101.394579 121.689962 
L 101.458324 122.843806 
L 101.912509 147.66488 
L 101.968286 145.974364 
L 102.07984 140.875981 
L 102.151553 141.493154 
L 102.199362 140.41981 
L 102.350757 132.557567 
L 102.422471 134.650587 
L 102.502152 136.60944 
L 102.581834 136.072768 
L 102.629643 134.51642 
L 102.709324 135.321427 
L 102.741197 135.240927 
L 102.908528 126.251673 
L 103.004146 120.965455 
L 103.059923 122.307135 
L 103.083828 122.709638 
L 103.123668 121.582628 
L 103.235223 119.355439 
L 103.275063 119.972612 
L 103.689408 127.593352 
L 103.697376 127.539685 
L 103.745185 127.405517 
L 103.792994 127.673853 
L 103.832834 128.478861 
L 104.087815 134.301751 
L 104.294987 138.192622 
L 104.334828 137.199779 
L 104.510128 132.960071 
L 104.518096 133.040572 
L 104.589809 132.986905 
L 104.709332 138.058454 
L 104.940408 161.001176 
L 104.964313 163.282031 
L 105.043994 160.545005 
L 105.123676 157.807978 
L 105.402561 132.316065 
L 105.466306 135.401928 
L 105.633638 148.657723 
L 105.697383 147.262376 
L 105.856746 145.732861 
L 105.864714 145.786529 
L 105.872682 145.840196 
L 106.18344 118.818767 
L 106.390612 113.988721 
L 106.44639 114.659561 
L 106.518103 115.732904 
L 107.123683 139.561135 
L 107.298982 144.847353 
L 107.314919 144.793686 
L 107.530059 138.353623 
L 107.832849 124.936827 
L 107.880658 126.198006 
L 108.183448 137.253446 
L 108.199384 137.924286 
L 108.263129 136.260603 
L 108.454365 130.491381 
L 108.462333 130.571881 
L 108.486237 129.820541 
L 108.796996 117.262419 
L 108.828868 117.879592 
L 108.852773 117.933259 
L 108.868709 117.664923 
L 108.956359 115.679237 
L 108.996199 117.020917 
L 109.275085 145.303524 
L 109.330862 144.042345 
L 109.378671 144.927854 
L 109.434448 146.591536 
L 109.474289 145.786529 
L 109.689429 126.68101 
L 109.697397 126.788345 
L 109.753174 128.478861 
L 109.793015 129.096034 
L 109.848792 128.156858 
L 110.271104 116.484245 
L 110.366722 117.155085 
L 110.486245 120.240948 
L 110.67748 129.36437 
L 111.139633 207.315958 
L 111.227283 198.917043 
L 111.577882 148.282053 
L 111.76115 133.389409 
L 111.88864 123.434146 
L 111.944417 124.131819 
L 112.255175 143.85451 
L 112.31892 149.945736 
L 112.398602 147.879549 
L 112.605774 136.528939 
L 112.789042 120.10678 
L 112.844819 120.831287 
L 113.163545 131.779393 
L 113.267131 131.618391 
L 113.370717 130.223045 
L 113.808966 121.287458 
L 113.824902 121.689962 
L 113.944424 126.815178 
L 114.00817 126.278506 
L 114.032074 126.385841 
L 114.159564 128.747197 
L 114.199405 127.995856 
L 114.318928 116.189075 
L 114.342832 121.904631 
L 114.797017 218.317731 
L 115.187457 132.986905 
L 115.235266 132.557567 
L 115.25917 133.362575 
L 115.641641 153.48777 
L 115.729291 152.951098 
L 115.872718 147.396544 
L 116.207381 123.192643 
L 116.326903 114.713228 
L 116.350807 113.398382 
L 116.414553 115.920739 
L 116.581884 126.144338 
L 117.11575 157.942146 
L 117.155591 157.995814 
L 117.434477 163.630868 
L 117.482285 162.155021 
L 117.777107 150.831244 
L 118.119738 145.840196 
L 118.127706 145.867029 
L 118.247228 159.659496 
L 118.6297 214.614695 
L 118.637668 214.131691 
L 118.733286 200.60756 
L 119.187471 136.126435 
L 119.227312 134.784755 
L 119.283089 137.011944 
L 119.36277 146.403701 
L 119.466356 153.917107 
L 119.522133 153.568271 
L 119.561974 152.843764 
L 119.601815 154.507446 
L 119.960382 177.530669 
L 120.191459 200.124555 
L 120.247236 204.954602 
L 120.303013 201.063731 
L 120.589866 176.054822 
L 121.307 128.747197 
L 121.378714 130.223045 
L 121.39465 130.276712 
L 121.418555 129.820541 
L 121.426523 129.766874 
L 121.474332 130.088877 
L 121.585886 133.765079 
L 121.737281 137.146112 
L 121.793058 136.394771 
L 121.848835 134.704255 
L 121.888676 133.791912 
L 121.952421 134.918923 
L 122.167561 137.387614 
L 122.247243 141.171151 
L 122.366765 143.156837 
L 122.406606 142.915334 
L 122.653619 133.443076 
L 122.844854 123.514646 
L 122.9086 125.849169 
L 123.617766 180.750701 
L 124.119759 268.872221 
L 124.143664 268.335549 
L 124.303027 262.056488 
L 124.55004 235.142394 
L 124.645658 238.630761 
L 124.781116 245.204992 
L 124.876734 253.872242 
L 124.916575 258.004616 
L 124.996257 255.616426 
L 125.060002 251.24255 
L 125.235301 220.383918 
L 125.418569 183.085223 
L 125.474346 185.419746 
L 125.514187 185.688082 
L 125.538091 184.77574 
L 125.5859 183.43406 
L 125.625741 185.044076 
L 125.904626 199.131712 
L 125.97634 197.441196 
L 126.008212 197.387528 
L 126.048053 198.59504 
L 126.27913 217.781059 
L 126.342875 215.875874 
L 126.446461 212.816845 
L 126.478334 214.42686 
L 126.510206 218.371398 
L 126.573951 213.138848 
L 126.725346 205.142437 
L 126.757219 205.705942 
L 126.805028 209.033308 
L 126.892678 220.732755 
L 126.948455 217.700559 
L 127.123754 206.779286 
L 127.346863 197.655864 
L 127.354831 197.494863 
L 127.370767 199.051211 
L 127.761207 239.113766 
L 127.848856 240.509113 
L 127.864793 239.167433 
L 128.04806 214.480527 
L 128.326946 173.371463 
L 128.35085 173.612965 
L 128.422564 174.444806 
L 128.446468 173.612965 
L 128.454436 173.371463 
L 128.510213 174.686309 
L 128.621767 180.214029 
L 128.661608 179.140685 
L 129.04408 156.734635 
L 129.075952 157.190806 
L 129.203443 167.575406 
L 129.283124 170.822271 
L 129.330933 168.917086 
L 129.410615 167.199736 
L 129.450456 168.407248 
L 129.538105 170.205099 
L 129.56201 169.265923 
L 129.753246 162.960028 
L 129.769182 162.611192 
L 129.816991 164.113873 
L 129.888704 166.126392 
L 129.928545 164.784713 
L 130.207431 155.58079 
L 130.255239 155.661291 
L 130.342889 151.743586 
L 130.390698 150.267739 
L 130.446475 151.958255 
L 130.565998 153.514604 
L 130.613806 153.353602 
L 130.661615 153.890274 
L 130.844883 157.995814 
L 130.932533 157.271307 
L 130.948469 157.378641 
L 131.219386 160.088834 
L 131.235323 160.008333 
L 131.330941 158.26415 
L 131.394686 159.417994 
L 131.450463 160.196168 
L 131.482335 159.417994 
L 131.641699 156.92247 
L 131.649667 157.002971 
L 131.793094 160.410837 
L 131.856839 161.537848 
L 131.904648 160.813341 
L 132.19947 150.34824 
L 132.271183 153.380436 
L 132.295087 154.15861 
L 132.334928 151.367916 
L 132.438514 146.940373 
L 132.470387 149.355397 
L 132.75724 164.382209 
L 132.797081 167.119235 
L 133.219393 225.670136 
L 133.299075 222.530605 
L 133.418597 210.187152 
L 133.657642 172.432287 
L 133.88075 156.734635 
L 133.904655 157.781145 
L 133.944496 155.768625 
L 134.000273 153.434103 
L 134.064018 155.124619 
L 134.18354 178.121009 
L 134.35884 195.16034 
L 134.462426 197.790032 
L 134.502267 195.965348 
L 134.621789 178.174676 
L 134.828961 155.661291 
L 134.900674 154.587947 
L 134.932547 155.258787 
L 135.195496 176.323158 
L 135.649681 242.736301 
L 135.82498 267.933045 
L 135.856853 266.993869 
L 135.960439 259.775633 
L 136.071993 242.253296 
L 136.366815 181.34104 
L 136.39072 182.414383 
L 136.398688 182.629052 
L 136.446497 180.992203 
L 136.462433 180.455531 
L 136.502274 183.299892 
L 136.844904 204.605765 
L 136.852873 204.283762 
L 136.876777 203.129917 
L 136.940522 205.008269 
L 137.044108 210.32132 
L 137.283153 229.051168 
L 137.51423 239.033265 
L 137.593911 238.84543 
L 137.681561 236.296239 
L 137.72937 237.42325 
L 137.817019 237.772086 
L 137.824988 237.557418 
L 137.832956 237.235414 
L 137.888733 238.84543 
L 137.920605 239.489436 
L 137.94451 237.557418 
L 138.406663 179.99936 
L 138.613835 189.92779 
L 138.661644 186.171086 
L 138.669612 185.500247 
L 138.709453 190.196125 
L 139.227383 240.992117 
L 139.338937 247.968852 
L 139.37081 243.460808 
L 139.824995 185.178244 
L 139.856867 185.580747 
L 139.896708 186.385755 
L 139.936549 185.044076 
L 139.944517 184.77574 
L 140.008262 186.224754 
L 140.167625 193.335656 
L 140.558065 235.196061 
L 140.765237 264.578846 
L 140.860855 263.800672 
L 141.243326 228.782833 
L 141.299104 234.686223 
L 141.546116 259.748799 
L 141.570021 258.621788 
L 141.769225 243.729144 
L 141.992333 191.323136 
L 142.079983 175.840153 
L 142.127792 178.65768 
L 142.326996 202.217575 
L 142.685563 252.315894 
L 142.773212 253.389238 
L 142.789149 252.530563 
L 143.020225 242.789968 
L 143.036162 242.843635 
L 143.123811 246.734506 
L 143.17162 244.265816 
L 143.251302 239.51627 
L 143.299111 242.172796 
L 143.86485 287.01173 
L 143.872818 286.314056 
L 144.111863 258.541287 
L 144.518239 147.262376 
L 144.637761 150.562908 
L 144.789156 153.970775 
L 144.964455 174.09597 
L 145.139755 197.441196 
L 145.410672 231.251523 
L 145.426608 230.849019 
L 145.63378 222.476938 
L 145.697526 224.999296 
L 146.095933 247.271178 
L 146.119838 246.600338 
L 146.191551 238.630761 
L 146.430596 191.806141 
L 146.6298 164.301708 
L 146.661673 164.623711 
L 146.789163 177.450169 
L 147.458488 237.101246 
L 147.673628 264.713014 
L 147.689565 264.525179 
L 147.705501 264.525179 
L 147.769246 261.788152 
L 148.072036 213.192515 
L 148.14375 204.632599 
L 148.199527 210.133485 
L 148.908693 285.992053 
L 148.940565 284.516206 
L 149.09196 282.020681 
L 149.26726 270.643238 
L 149.761285 143.586174 
L 149.769253 144.176513 
L 150.016266 173.50563 
L 150.374833 241.501956 
L 150.438578 236.403573 
L 150.685591 183.353559 
L 150.892763 160.142501 
L 150.932604 160.759674 
L 151.107904 168.94392 
L 151.171649 167.333904 
L 151.203521 167.60224 
L 151.243362 166.985067 
L 151.378821 163.094196 
L 151.514279 157.539643 
L 151.562088 158.129982 
L 151.617866 158.34465 
L 151.64177 157.459142 
L 151.753324 147.530712 
L 151.809101 150.482407 
L 152.637789 220.035081 
L 152.924643 235.061893 
L 152.988388 234.122718 
L 153.315083 216.627215 
L 153.474446 206.108446 
L 153.546159 208.2283 
L 153.570064 208.52347 
L 153.609905 207.637961 
L 153.840981 203.210418 
L 153.944567 205.544941 
L 153.97644 204.632599 
L 154.024249 202.995749 
L 154.072058 204.820434 
L 154.207516 211.985003 
L 154.27923 211.448331 
L 154.311102 212.065504 
L 154.342975 210.99216 
L 154.438593 198.836542 
L 154.844969 135.106759 
L 154.908714 140.41981 
L 155.578039 240.965284 
L 155.593975 241.394621 
L 155.625848 239.704105 
L 155.896765 218.505566 
L 155.936606 219.981414 
L 156.111905 225.079797 
L 156.151746 224.543125 
L 156.159714 224.489458 
L 156.183619 225.079797 
L 156.4386 249.015362 
L 156.52625 246.224668 
L 156.589995 242.977803 
L 156.645772 245.070824 
L 156.669676 246.144167 
L 156.74139 244.534152 
L 156.924657 228.111993 
L 157.012307 230.902686 
L 157.099957 235.357063 
L 157.131829 232.378534 
L 157.522269 184.212234 
L 157.745377 159.874165 
L 157.825059 148.416221 
L 157.880836 156.439465 
L 158.303148 221.645097 
L 158.358925 216.895551 
L 158.781238 167.119235 
L 158.837015 164.355375 
L 158.916696 164.83838 
L 159.155741 168.380414 
L 159.171677 167.333904 
L 159.339009 162.611192 
L 159.378849 162.82586 
L 159.402754 162.477024 
L 159.410722 162.342856 
L 159.41869 163.147863 
L 159.745385 194.677336 
L 159.888811 201.117398 
L 159.920684 197.494863 
L 160.159729 182.468051 
L 160.183633 182.494884 
L 160.303155 178.979683 
L 160.366901 176.054822 
L 160.422678 178.255176 
L 160.550168 184.158567 
L 160.590009 182.548551 
L 160.765309 175.035145 
L 160.821086 175.652318 
L 160.980449 165.697055 
L 161.155748 156.332131 
L 161.163716 156.439465 
L 161.323079 160.813341 
L 161.474474 167.709574 
L 161.514315 167.172902 
L 161.530252 167.065568 
L 161.562124 166.663064 
L 161.609933 165.375052 
L 161.681646 165.911724 
L 161.689615 166.126392 
L 161.729455 164.248041 
L 161.801169 160.35717 
L 161.856946 163.308865 
L 161.952564 178.174676 
L 162.390812 259.15846 
L 162.414717 258.809623 
L 162.510335 255.750594 
L 162.741411 210.589656 
L 163.09201 140.339309 
L 163.17966 136.072768 
L 163.243405 136.797275 
L 163.291214 140.553978 
L 163.458545 147.477045 
L 163.48245 147.128208 
L 163.52229 148.416221 
L 163.737431 159.122825 
L 163.809144 157.539643 
L 163.91273 154.239111 
L 164.00038 154.695282 
L 164.016316 154.561114 
L 164.048189 154.775782 
L 164.103966 154.695282 
L 164.327074 157.995814 
L 164.701578 167.60224 
L 164.813132 167.065568 
L 165.283253 155.097786 
L 165.323094 156.117462 
L 165.394807 160.142501 
L 165.474489 162.879528 
L 165.530266 162.423356 
L 165.586043 162.155021 
L 165.617915 162.557524 
L 165.721502 166.099559 
L 165.777279 167.387571 
L 165.841024 166.797232 
L 165.920705 163.630868 
L 165.968514 162.423356 
L 166.016323 163.979705 
L 166.37489 190.732797 
L 166.813139 253.791741 
L 166.845012 251.993891 
L 166.972502 236.564575 
L 167.251387 196.180017 
L 167.554177 184.963575 
L 167.562146 185.097743 
L 167.609954 186.627258 
L 167.825095 197.119193 
L 168.295216 268.630718 
L 168.350993 266.135194 
L 168.438643 255.401757 
L 169.163745 148.926059 
L 169.243426 149.731067 
L 169.283267 148.791891 
L 169.31514 149.865235 
L 169.761357 195.079839 
L 169.83307 189.122782 
L 169.992433 175.437649 
L 170.024306 181.394707 
L 170.486459 271.233577 
L 170.494427 271.85075 
L 170.558172 269.140557 
L 171.362956 229.373172 
L 171.458574 222.476938 
L 171.641841 205.544941 
L 171.976504 163.952871 
L 172.143835 156.734635 
L 172.16774 156.117462 
L 172.223517 157.646977 
L 172.247421 157.915313 
L 172.287262 156.868803 
L 172.566147 151.77042 
L 172.582084 152.629095 
L 172.661765 165.992224 
L 173.092046 242.065461 
L 173.163759 238.818596 
L 173.243441 229.695175 
L 173.63388 168.326747 
L 173.681689 164.784713 
L 173.753403 167.387571 
L 174.127906 183.43406 
L 174.135874 183.568228 
L 174.167747 182.548551 
L 174.223524 182.816887 
L 174.319142 167.97791 
L 174.613964 132.020895 
L 174.701613 129.471704 
L 174.669741 132.584401 
L 174.71755 131.779393 
L 175.06018 166.26056 
L 175.203607 171.090607 
L 175.211575 171.063773 
L 175.283289 169.668427 
L 175.299225 170.822271 
L 175.594047 189.847289 
L 175.641856 194.570001 
L 175.960582 222.34277 
L 176.215563 230.661184 
L 176.247436 231.466192 
L 176.35899 243.675477 
L 176.637875 275.258616 
L 176.78927 280.840003 
L 176.837079 280.303332 
L 177.028315 269.972398 
L 177.147837 262.244323 
L 177.291264 215.76854 
L 177.52234 166.045892 
L 177.594054 150.562908 
L 177.657799 156.036961 
L 178.072143 231.171022 
L 178.12792 228.085159 
L 178.287283 224.945629 
L 178.327124 225.348133 
L 178.335092 224.891962 
L 178.438678 214.131691 
L 178.956609 166.126392 
L 179.163781 157.244473 
L 179.171749 157.405475 
L 179.243462 160.410837 
L 179.546252 185.097743 
L 179.633902 182.682719 
L 179.928724 166.770399 
L 180.088087 148.33572 
L 180.191673 149.328563 
L 180.239482 149.623733 
L 180.279322 149.274896 
L 180.359004 147.933216 
L 180.390877 149.140728 
L 180.478526 154.641614 
L 180.598049 172.834791 
L 180.661794 170.392934 
L 180.813189 164.113873 
L 180.868966 164.516377 
L 180.876934 164.489543 
L 180.884902 164.623711 
L 180.948648 167.038735 
L 180.996456 164.650545 
L 181.076138 159.793664 
L 181.115979 163.630868 
L 181.307215 180.455531 
L 181.378928 178.121009 
L 181.466578 176.18899 
L 181.49845 177.181833 
L 181.506418 177.718505 
L 181.538291 173.881301 
L 181.753431 150.670243 
L 181.761399 150.831244 
L 181.833113 155.097786 
L 182.223552 182.682719 
L 182.255425 180.348197 
L 182.454629 156.788302 
L 182.781323 101.913604 
L 182.845069 111.8957 
L 183.426744 212.682677 
L 183.53033 214.80253 
L 183.554235 213.75602 
L 183.578139 213.487684 
L 183.594075 214.695196 
L 183.689693 217.083386 
L 183.713598 216.43938 
L 183.777343 209.784649 
L 183.92077 195.965348 
L 183.968579 197.521696 
L 184.016388 199.668384 
L 184.064196 196.904524 
L 184.096069 192.128144 
L 184.159814 198.514539 
L 184.247464 213.487684 
L 184.287305 227.441153 
L 184.374955 219.900913 
L 184.486509 211.850835 
L 184.52635 215.151367 
L 184.637904 224.274789 
L 184.685713 223.818618 
L 184.701649 223.738117 
L 184.757426 220.383918 
L 184.805235 223.818618 
L 184.876948 227.092316 
L 184.916789 224.489458 
L 185.187706 197.226527 
L 185.275356 200.60756 
L 185.315197 200.070888 
L 185.331133 200.795395 
L 185.402847 208.094132 
L 185.602051 223.38928 
L 185.665796 224.543125 
L 185.6897 222.71844 
L 185.761414 218.15673 
L 185.809223 221.725598 
L 185.968586 225.938472 
L 186.239503 253.120902 
L 186.287312 250.357041 
L 186.494484 218.371398 
L 186.805242 179.113851 
L 186.837115 178.872349 
L 186.845083 179.409021 
L 186.948669 181.42154 
L 186.980542 180.858035 
L 187.020382 183.675562 
L 187.219586 195.643345 
L 187.538312 209.247977 
L 187.59409 208.120966 
L 187.649867 208.925974 
L 187.681739 208.442969 
L 187.793293 202.485911 
L 188.127956 175.759652 
L 188.159829 176.242657 
L 188.207638 175.974321 
L 188.303255 178.738181 
L 188.494491 195.83118 
L 188.582141 193.147821 
L 189.06023 155.661291 
L 189.123976 156.600467 
L 189.259434 171.895615 
L 189.57816 210.052984 
L 189.673778 218.586067 
L 189.737524 216.224711 
L 189.849078 209.194309 
L 190.18374 171.063773 
L 190.518403 147.477045 
L 190.526371 147.584379 
L 190.621989 150.804411 
L 190.669798 148.33572 
L 190.685734 148.147885 
L 190.725575 149.221229 
L 190.96462 158.934989 
L 191.012428 157.110305 
L 191.100078 152.280258 
L 191.163823 153.756106 
L 191.17976 154.104943 
L 191.235537 153.246268 
L 191.267409 153.621938 
L 191.331155 151.609418 
L 191.386932 153.031599 
L 191.498486 162.638025 
L 191.82518 189.525286 
L 191.865021 190.249793 
L 191.91283 189.069115 
L 191.928766 189.122782 
L 192.016416 190.947466 
L 192.040321 189.874122 
L 192.064225 187.459099 
L 192.120002 192.798984 
L 192.478569 230.580683 
L 192.574187 235.088727 
L 192.614028 232.2712 
L 192.685741 230.849019 
L 192.717614 231.439358 
L 192.813232 238.040422 
L 192.845104 234.283719 
L 192.932754 225.965305 
L 193.020404 228.031492 
L 193.108053 235.088727 
L 193.155862 231.841862 
L 193.275385 214.963532 
L 193.570207 173.961802 
L 193.625984 175.035145 
L 193.689729 177.90634 
L 194.120009 243.648643 
L 194.175786 241.126285 
L 194.327181 234.552055 
L 194.359054 235.679066 
L 194.653876 246.600338 
L 194.717621 244.346317 
L 194.749494 243.272973 
L 194.98057 214.963532 
L 195.123997 195.697012 
L 195.171806 199.722051 
L 195.378978 228.085159 
L 195.594118 260.365972 
L 195.625991 256.743437 
L 195.896908 215.285535 
L 195.968621 216.976052 
L 196.01643 216.546714 
L 196.040335 217.834726 
L 196.10408 227.011815 
L 196.414838 286.984896 
L 196.430775 286.04572 
L 196.49452 288.541245 
L 196.502488 288.675413 
L 196.526392 287.602069 
L 196.741533 273.380264 
L 196.908864 256.743437 
L 197.084163 243.782811 
L 197.131972 245.392827 
L 197.13994 245.607495 
L 197.179781 243.782811 
L 197.299304 241.716624 
L 197.31524 242.306964 
L 197.450698 258.433953 
L 197.538348 250.437542 
L 197.713648 232.244366 
L 197.737552 233.264043 
L 197.753488 233.881215 
L 197.785361 229.722008 
L 197.936756 207.154956 
L 198.000501 212.146005 
L 198.327196 245.258659 
L 198.367036 244.614653 
L 198.669826 224.328456 
L 198.693731 221.457262 
L 198.781381 222.664773 
L 198.884967 235.679066 
L 198.980584 245.41966 
L 199.020425 240.777449 
L 199.076202 236.83291 
L 199.139948 239.51627 
L 199.17182 240.643281 
L 199.195725 237.342749 
L 199.331183 208.711305 
L 199.610069 165.643388 
L 199.801304 151.609418 
L 199.841145 153.1121 
L 200.000508 171.063773 
L 200.414852 235.759567 
L 200.478598 229.856176 
L 200.68577 198.863376 
L 200.765451 202.40541 
L 200.845133 211.126328 
L 200.908878 205.544941 
L 201.235573 171.493111 
L 201.41884 145.115689 
L 201.442745 145.732861 
L 201.562267 147.584379 
L 201.59414 147.316043 
L 201.649917 146.591536 
L 201.681789 147.396544 
L 201.729598 149.221229 
L 201.80928 148.604056 
L 201.920834 149.945736 
L 201.841152 148.523555 
L 201.960675 149.355397 
L 202.088165 148.121051 
L 202.104102 148.469888 
L 202.231592 154.051275 
L 202.359083 158.478818 
L 202.375019 158.183649 
L 202.398923 157.67381 
L 202.446732 158.988657 
L 202.590159 160.088834 
L 202.637968 160.491338 
L 202.669841 159.68633 
L 202.685777 158.854489 
L 202.765458 160.330336 
L 202.805299 161.698849 
L 202.956694 167.97791 
L 203.052312 167.655907 
L 203.179803 162.208688 
L 203.490561 144.042345 
L 203.904905 130.169377 
L 203.912873 130.357213 
L 203.960682 131.484223 
L 204.008491 130.357213 
L 204.0563 129.632706 
L 204.096141 131.08172 
L 204.470644 155.258787 
L 204.598134 162.101353 
L 204.637975 161.430514 
L 204.78937 159.954666 
L 204.948733 158.34465 
L 204.96467 158.666653 
L 205.171842 163.952871 
L 205.203714 163.282031 
L 205.291364 161.886685 
L 205.331205 162.289189 
L 205.355109 162.369689 
L 205.402918 162.07452 
L 205.466663 159.954666 
L 205.626026 157.056638 
L 205.641963 156.976137 
L 205.673835 157.539643 
L 205.777421 158.34465 
L 205.793358 158.129982 
L 206.064275 153.246268 
L 206.080211 153.353602 
L 206.104116 153.48777 
L 206.135988 153.165767 
L 206.239574 151.206915 
L 206.422842 146.376868 
L 206.454715 145.867029 
L 206.494555 147.181876 
L 206.622046 148.791891 
L 206.653919 148.657723 
L 206.677823 149.060227 
L 206.757505 151.47525 
L 206.82125 150.267739 
L 206.845154 149.945736 
L 206.892963 150.616575 
L 206.916868 150.938579 
L 206.956708 149.623733 
L 207.291371 131.376889 
L 207.355116 133.308908 
L 207.801333 166.26056 
L 207.936792 165.160383 
L 208.343168 148.201552 
L 208.534403 144.981521 
L 208.558308 145.169356 
L 208.645958 148.469888 
L 208.781416 152.951098 
L 208.829225 151.636252 
L 209.187792 140.768647 
L 209.227633 141.546821 
L 209.259506 141.949325 
L 209.307314 141.358986 
L 209.331219 141.439487 
L 209.355123 141.546821 
L 209.379028 141.144317 
L 209.458709 140.41981 
L 209.49855 140.822314 
L 209.562295 141.627322 
L 209.602136 140.741813 
L 209.769468 138.407291 
L 209.809308 138.460958 
L 209.865085 140.097807 
L 210.040385 148.282053 
L 210.8372 257.602112 
L 210.853137 257.548444 
L 210.869073 258.085116 
L 211.052341 263.586003 
L 211.060309 261.707651 
L 211.538398 138.138955 
L 211.673857 138.487791 
L 211.705729 138.004787 
L 211.721666 138.487791 
L 211.737602 138.756127 
L 211.769475 137.065611 
L 211.912901 130.303545 
L 211.96071 131.376889 
L 212.128042 135.455595 
L 212.143978 134.838423 
L 212.247564 130.008376 
L 212.327246 131.83306 
L 212.470672 134.999424 
L 212.534418 134.462752 
L 212.56629 134.113916 
L 212.606131 132.423399 
L 212.669876 134.113916 
L 212.725653 134.382252 
L 212.749558 133.899247 
L 212.829239 132.772236 
L 212.877048 133.362575 
L 212.932825 131.296388 
L 213.155934 122.790139 
L 213.17187 122.655971 
L 213.203743 123.514646 
L 213.307329 126.278506 
L 213.34717 125.392998 
L 213.442787 125.178329 
L 213.458724 125.392998 
L 213.586214 126.198006 
L 213.602151 125.983337 
L 213.721673 119.087103 
L 213.793386 116.591579 
L 213.841195 117.557589 
L 214.128049 129.605872 
L 214.159921 127.593352 
L 214.183826 125.473499 
L 214.239603 129.230202 
L 214.454743 134.51642 
L 214.542393 136.260603 
L 214.725661 150.42874 
L 214.892992 149.999403 
L 214.924864 149.811568 
L 214.972673 150.401907 
L 215.036419 151.072747 
L 215.068291 150.562908 
L 215.2914 144.364348 
L 215.323272 144.444849 
L 215.387017 144.927854 
L 215.426858 144.498516 
L 215.482635 143.639841 
L 215.530444 144.632684 
L 215.59419 150.965412 
L 215.817298 195.294508 
L 215.976661 209.328477 
L 216.088215 222.208602 
L 216.136024 217.915227 
L 216.255546 195.214007 
L 216.486623 162.503857 
L 216.598177 147.584379 
L 216.669891 149.945736 
L 216.685827 149.865235 
L 216.709731 149.811568 
L 216.725668 150.079904 
L 217.028458 156.600467 
L 217.076267 157.378641 
L 217.116107 156.385798 
L 217.163916 154.990451 
L 217.211725 156.600467 
L 217.315311 164.972548 
L 217.434834 162.611192 
L 217.442802 162.611192 
L 217.57826 161.269512 
L 217.602165 161.672016 
L 217.642006 162.74536 
L 217.681846 160.625506 
L 217.992604 146.269533 
L 218.223681 141.224818 
L 218.231649 141.278485 
L 218.27149 141.358986 
L 218.295394 141.224818 
L 218.319299 141.278485 
L 218.406949 139.131798 
L 218.454758 140.607645 
L 218.550375 149.328563 
L 218.87707 173.42513 
L 218.940815 174.09597 
L 218.972688 173.344629 
L 219.450777 143.371505 
L 219.657949 138.729294 
L 219.721694 139.024463 
L 219.944803 136.663107 
L 219.960739 136.716774 
L 219.976675 136.797275 
L 219.992612 136.60944 
L 220.056357 134.59692 
L 220.144007 135.187259 
L 220.159943 134.865256 
L 220.21572 136.072768 
L 220.574287 143.720342 
L 220.590223 143.827676 
L 220.638032 145.19619 
L 220.701777 143.961844 
L 220.73365 143.505673 
L 220.773491 144.713185 
L 220.980663 150.079904 
L 221.03644 150.026236 
L 221.052376 150.133571 
L 221.084249 150.34824 
L 221.108153 149.999403 
L 221.323294 144.632684 
L 221.522498 138.32679 
L 221.673893 137.28028 
L 221.681861 137.333947 
L 221.801383 139.480634 
L 222.000587 143.049502 
L 222.040428 143.237337 
L 222.080268 142.834833 
L 222.223695 140.902815 
L 222.271504 141.358986 
L 222.37509 143.505673 
L 222.701785 152.414426 
L 222.76553 151.287415 
L 223.076288 143.317838 
L 223.163938 144.364348 
L 223.243619 144.981521 
L 223.395014 145.974364 
L 223.402982 145.867029 
L 223.689836 148.469888 
L 223.912944 154.963618 
L 223.944817 154.695282 
L 223.992626 154.185443 
L 224.040435 154.775782 
L 224.183862 157.539643 
L 224.295416 157.244473 
L 224.343225 156.788302 
L 224.422906 157.002971 
L 224.510556 158.586153 
L 224.566333 157.59331 
L 224.598206 157.807978 
L 224.62211 157.405475 
L 224.741633 156.439465 
L 224.765537 156.519966 
L 224.853187 157.727478 
L 224.964741 157.190806 
L 225.044422 156.036961 
L 225.211754 147.852715 
L 225.339244 142.029826 
L 225.395021 142.163994 
L 225.586257 138.943962 
L 225.602193 139.158631 
L 225.904983 153.085266 
L 226.096219 183.004722 
L 226.383073 217.512723 
L 226.406977 217.646891 
L 226.430882 216.680882 
L 226.78148 178.040508 
L 227.132079 149.409064 
L 227.163952 148.282053 
L 227.195825 150.079904 
L 227.665946 240.026108 
L 227.68985 235.813234 
L 227.793436 228.085159 
L 227.825309 229.856176 
L 228.048417 257.73628 
L 228.064354 257.602112 
L 228.159971 264.713014 
L 228.191844 268.684386 
L 228.271526 265.544855 
L 228.518538 243.272973 
L 228.526507 242.602133 
L 228.582284 246.46617 
L 228.661965 247.539514 
L 228.68587 246.680839 
L 228.741647 244.614653 
L 228.765551 246.895508 
L 228.853201 255.670093 
L 228.908978 251.779222 
L 229.195832 236.001069 
L 229.2038 236.027903 
L 229.235672 236.215738 
L 229.243641 235.813234 
L 229.474717 217.163887 
L 229.865157 148.121051 
L 229.944838 146.108532 
L 229.984679 147.396544 
L 230.000615 147.933216 
L 230.072329 146.91354 
L 230.144042 145.518193 
L 230.167947 147.208709 
L 230.41496 157.942146 
L 230.422928 157.915313 
L 230.598227 154.453779 
L 230.606195 156.117462 
L 230.829304 189.310617 
L 231.076317 226.770313 
L 231.179903 217.888394 
L 231.243648 219.095905 
L 231.323329 218.586067 
L 231.66596 203.532421 
L 231.857196 179.113851 
L 232.104209 155.714958 
L 232.287476 147.66488 
L 232.311381 147.745381 
L 232.327317 147.745381 
L 232.39903 148.818725 
L 232.446839 147.986883 
L 232.717757 140.41981 
L 232.87712 142.217661 
L 233.363177 152.951098 
L 233.379114 152.81693 
L 233.426923 152.44126 
L 233.458795 153.085266 
L 233.530509 154.507446 
L 233.586286 153.702439 
L 233.594254 153.648771 
L 233.618158 153.970775 
L 233.673935 155.929627 
L 233.761585 155.097786 
L 233.777521 155.124619 
L 234.247643 160.679173 
L 234.263579 160.410837 
L 234.725732 144.927854 
L 234.781509 146.054865 
L 235.116172 160.142501 
L 235.12414 160.088834 
L 235.195853 158.988657 
L 235.243662 159.927832 
L 235.267567 160.062 
L 235.323344 159.605829 
L 235.42693 158.049481 
L 235.490675 158.988657 
L 235.570356 162.772193 
L 235.658006 172.75429 
L 235.825337 183.031556 
L 235.841274 182.897388 
L 236.16 161.698849 
L 236.383108 138.621959 
L 236.391077 139.292799 
L 236.55044 145.437692 
L 236.606217 149.221229 
L 237.19586 234.283719 
L 237.211797 233.854382 
L 237.299446 234.256886 
L 237.387096 225.831137 
L 237.650045 178.121009 
L 237.841281 161.162178 
L 237.865185 161.215845 
L 237.897058 160.759674 
L 237.984708 153.970775 
L 238.040485 157.59331 
L 238.8373 229.373172 
L 238.853237 228.782833 
L 238.861205 228.782833 
L 238.901046 230.902686 
L 239.0126 236.001069 
L 239.052441 235.142394 
L 239.243676 233.264043 
L 239.31539 229.963511 
L 239.403039 230.849019 
L 239.458817 234.820391 
L 239.490689 231.30519 
L 239.785511 206.376782 
L 239.83332 204.015426 
L 239.936906 194.006496 
L 240.000651 197.9242 
L 240.104237 204.095927 
L 240.152046 202.190742 
L 240.422963 184.963575 
L 240.462804 184.909908 
L 240.518581 181.931379 
L 240.630135 175.974321 
L 240.677944 177.128166 
L 240.749658 180.938536 
L 240.789499 177.933173 
L 241.434919 123.648814 
L 241.450856 122.977974 
L 241.47476 125.446665 
L 241.681932 155.446622 
L 242.231735 235.625399 
L 242.255639 234.659389 
L 242.263607 234.203218 
L 242.335321 236.296239 
L 242.415002 237.959921 
L 242.438907 236.537741 
L 242.709824 201.788238 
L 242.765601 211.072661 
L 242.789506 214.131691 
L 242.869187 209.784649 
L 243.211818 169.265923 
L 243.299468 157.056638 
L 243.355245 161.001176 
L 243.514608 180.992203 
L 243.673971 206.832953 
L 243.729748 205.08877 
L 243.80943 196.770356 
L 244.175965 157.002971 
L 244.207837 157.861646 
L 244.247678 161.806184 
L 244.45485 187.029761 
L 244.470787 184.963575 
L 244.526564 172.807957 
L 244.614213 178.523512 
L 244.75764 183.031556 
L 244.773577 183.219391 
L 244.797481 182.226548 
L 244.813417 180.6702 
L 244.885131 183.085223 
L 245.347284 242.6558 
L 245.371188 238.416092 
L 245.833341 136.045934 
L 245.865214 138.353623 
L 246.048482 145.920697 
L 246.064418 146.001197 
L 246.09629 145.518193 
L 246.136131 144.310681 
L 246.152068 146.135365 
L 246.335335 167.924243 
L 246.542507 203.156751 
L 246.781552 227.628988 
L 246.78952 227.441153 
L 246.821393 229.292671 
L 247.132151 252.450062 
L 247.243705 248.290855 
L 247.251673 248.290855 
L 247.323386 251.188883 
L 247.48275 256.340933 
L 247.506654 255.938429 
L 247.52259 255.750594 
L 247.546495 256.260432 
L 247.650081 259.15846 
L 247.713826 258.299785 
L 247.928966 240.911617 
L 248.104266 225.213965 
L 248.152075 226.018972 
L 248.168011 225.938472 
L 248.311438 222.530605 
L 248.351279 221.537762 
L 248.399088 222.852608 
L 248.510642 237.745253 
L 248.877177 276.117291 
L 248.932954 269.677229 
L 249.355266 224.489458 
L 249.387139 225.079797 
L 249.458852 224.677293 
L 249.514629 219.498409 
L 250.032559 147.986883 
L 250.104273 151.153247 
L 250.391127 188.639777 
L 250.582362 210.99216 
L 250.638139 210.32132 
L 250.89312 191.806141 
L 250.98077 194.704169 
L 251.06842 200.339224 
L 251.179974 205.410773 
L 251.203878 204.203261 
L 251.251687 203.156751 
L 251.299496 204.283762 
L 251.347305 206.296281 
L 251.395114 204.015426 
L 251.426987 203.344586 
L 251.458859 204.874101 
L 251.530573 206.967121 
L 251.554477 204.552098 
L 251.570414 203.022583 
L 251.594318 205.705942 
L 251.658063 205.008269 
L 251.721809 207.55746 
L 251.769617 206.430449 
L 252.247707 128.800864 
L 252.31942 135.053091 
L 252.510656 142.43233 
L 252.542529 141.84199 
L 252.932968 113.23738 
L 253.004682 115.947573 
L 253.275599 141.010149 
L 253.387153 137.924286 
L 253.61823 129.74004 
L 253.666039 132.020895 
L 253.857274 170.017263 
L 253.984765 187.566433 
L 254.032574 185.366079 
L 254.144128 174.310638 
L 254.590345 106.126478 
L 254.622217 108.299999 
L 254.829389 123.970817 
L 254.893135 123.380478 
L 254.901103 123.434146 
L 254.932975 123.031642 
L 255.08437 119.677442 
L 255.17202 115.732904 
L 255.227797 116.994083 
L 255.347319 120.831287 
L 255.427001 128.532528 
L 255.833377 170.74177 
L 255.857281 169.587926 
L 256.335371 108.809837 
L 256.407084 111.224861 
L 256.526607 120.240948 
L 256.574416 118.147928 
L 256.614256 117.34292 
L 256.68597 117.933259 
L 256.861269 120.375116 
L 256.869237 119.677442 
L 257.004696 108.138997 
L 257.076409 110.366186 
L 257.235772 111.224861 
L 257.323422 110.17835 
L 257.379199 110.688189 
L 257.442945 112.325038 
L 257.63418 154.722115 
L 258.120238 264.31051 
L 258.144142 264.042174 
L 258.263665 242.870469 
L 258.486773 211.985003 
L 258.566454 208.255134 
L 258.614263 209.838316 
L 258.829404 238.094089 
L 259.028608 261.224647 
L 259.068448 259.15846 
L 259.116257 256.153098 
L 259.203907 257.548444 
L 259.307493 249.981371 
L 259.626219 169.480591 
L 259.8812 123.729315 
L 260.024627 121.045956 
L 260.080404 121.44846 
L 260.176022 138.541458 
L 260.845347 283.228193 
L 260.893156 281.886514 
L 261.052519 275.446451 
L 261.084392 276.412461 
L 261.140169 277.351636 
L 261.164073 275.741621 
L 261.450927 254.516248 
L 261.944953 167.253403 
L 261.976825 166.18006 
L 262.024634 168.64875 
L 262.136188 182.414383 
L 262.223838 179.811525 
L 262.239774 179.543189 
L 262.263679 178.872349 
L 262.327424 180.321363 
L 262.367265 181.743544 
L 263.052526 221.323094 
L 263.108303 220.303417 
L 263.777628 175.786486 
L 264.176036 129.149701 
L 264.184004 128.881365 
L 264.231813 130.706049 
L 264.438985 137.548616 
L 264.454922 137.333947 
L 264.46289 137.28028 
L 264.478826 137.790118 
L 264.638189 152.280258 
L 265.67405 272.092252 
L 265.682018 271.984918 
L 265.761699 265.73269 
L 265.97684 219.900913 
L 266.287598 153.756106 
L 266.311502 154.185443 
L 266.391184 156.654134 
L 266.53461 186.117419 
L 266.861305 237.235414 
L 266.877241 237.154914 
L 266.92505 235.008226 
L 267.339394 184.909908 
L 267.395171 185.82225 
L 267.586407 198.782875 
L 267.626248 199.93672 
L 267.674057 197.763199 
L 267.777643 183.80973 
L 268.160114 131.296388 
L 268.199955 132.289231 
L 268.582427 166.797232 
L 268.885216 198.917043 
L 269.219879 215.875874 
L 269.307529 219.659411 
L 269.498764 227.977825 
L 269.530637 226.233641 
L 269.594382 223.01361 
L 269.650159 225.026129 
L 269.753745 235.196061 
L 269.857331 230.849019 
L 270.231835 190.67913 
L 270.29558 196.099516 
L 270.701956 258.085116 
L 270.757733 256.206765 
L 270.845383 248.290855 
L 271.108332 204.632599 
L 271.466899 137.011944 
L 271.586421 124.051318 
L 271.658135 127.942189 
L 271.737816 131.108553 
L 271.793593 130.276712 
L 271.825466 130.169377 
L 271.857339 130.545048 
L 271.865307 130.545048 
L 271.944988 132.289231 
L 272.008734 137.602283 
L 272.11232 151.636252 
L 272.160129 150.026236 
L 272.367301 144.981521 
L 272.439014 142.163994 
L 272.622282 124.722158 
L 272.701963 126.466342 
L 272.741804 127.003013 
L 272.805549 126.466342 
L 273.116307 117.020917 
L 273.203957 109.42701 
L 273.27567 111.117526 
L 273.307543 111.788366 
L 273.355352 110.634522 
L 273.379256 110.285685 
L 273.395193 110.822357 
L 274.263722 186.117419 
L 274.478862 203.612922 
L 274.765716 219.498409 
L 274.813524 217.083386 
L 274.861333 215.017199 
L 274.91711 217.432223 
L 274.980856 220.518086 
L 275.036633 218.90807 
L 275.251773 188.398275 
L 275.474881 168.192579 
L 275.490818 168.64875 
L 275.546595 174.042302 
L 275.865321 210.911659 
L 275.937034 204.471597 
L 276.375283 149.623733 
L 276.391219 150.079904 
L 276.869309 223.818618 
L 276.877277 223.469781 
L 277.196003 201.922406 
L 277.395207 183.568228 
L 277.474889 188.934947 
L 277.586443 195.83118 
L 277.618315 193.201488 
L 278.000787 157.002971 
L 278.215927 138.809794 
L 278.239831 138.138955 
L 278.327481 138.675626 
L 278.37529 140.151474 
L 278.447004 146.054865 
L 278.654176 197.360695 
L 278.933061 252.128059 
L 278.988838 253.979577 
L 279.028679 251.510886 
L 279.570514 229.641508 
L 279.761749 219.847246 
L 279.937049 202.190742 
L 279.976889 202.593246 
L 279.992826 202.539578 
L 280.144221 198.434039 
L 280.176093 195.884847 
L 280.223902 200.929563 
L 280.717928 268.469717 
L 281.076495 244.882988 
L 281.116336 247.029676 
L 281.14024 247.700516 
L 281.180081 245.285492 
L 281.196017 243.32664 
L 281.259763 246.358836 
L 281.275699 246.224668 
L 281.283667 246.224668 
L 281.291635 246.46617 
L 281.331476 244.480485 
L 281.403189 233.854382 
L 281.849406 141.84199 
L 281.92112 144.364348 
L 282.072515 153.299935 
L 282.295623 183.621895 
L 282.383273 182.360716 
L 282.415145 183.219391 
L 282.470922 184.614738 
L 282.510763 182.897388 
L 282.582476 176.296324 
L 282.74184 155.929627 
L 282.789649 158.398317 
L 283.180088 195.375009 
L 284.200012 286.314056 
L 284.20798 285.911553 
L 284.287662 277.217468 
L 284.574515 242.6558 
L 284.72591 223.952786 
L 284.781688 227.306985 
L 284.949019 233.532379 
L 284.980891 232.405368 
L 285.100414 228.514497 
L 285.164159 229.641508 
L 285.180095 229.775675 
L 285.204 229.292671 
L 285.522726 210.777491 
L 285.578503 212.011837 
L 285.873325 235.061893 
L 285.881293 235.061893 
L 285.913166 237.154914 
L 285.921134 237.637918 
L 285.992847 235.866901 
L 286.072529 229.50734 
L 286.247828 189.874122 
L 286.486873 153.353602 
L 286.638268 142.888501 
L 286.678109 145.732861 
L 287.618351 254.650416 
L 287.626319 254.945586 
L 287.650224 252.530563 
L 287.785682 227.950991 
L 287.849428 216.14421 
L 287.929109 218.773902 
L 287.937077 218.827569 
L 287.945045 218.371398 
L 288.104409 214.292692 
L 288.431103 230.768518 
L 288.447039 229.990344 
L 288.590466 226.018972 
L 288.614371 226.877647 
L 288.654211 227.575321 
L 288.678116 225.965305 
L 288.765765 213.138848 
L 289.028715 175.786486 
L 289.060587 176.698828 
L 289.196046 193.335656 
L 289.506804 243.138805 
L 289.530708 242.038628 
L 289.849435 224.999296 
L 289.889275 227.038649 
L 289.945053 229.453672 
L 290.024734 228.433996 
L 290.088479 234.203218 
L 290.558601 269.704062 
L 290.686091 241.90446 
L 291.052626 172.432287 
L 291.092467 171.546778 
L 291.140276 172.968959 
L 291.180117 174.713142 
L 291.235894 172.700623 
L 291.459002 161.537848 
L 291.721951 143.693508 
L 291.85741 138.058454 
L 291.913187 139.695303 
L 291.968964 140.205141 
L 292.000837 139.426967 
L 292.152232 135.536096 
L 292.184104 136.528939 
L 292.231913 138.219455 
L 292.279722 136.341104 
L 292.566576 124.534323 
L 292.582512 124.641657 
L 292.638289 126.144338 
L 293.10841 159.149658 
L 293.116379 159.39116 
L 293.148251 157.324974 
L 293.323551 143.827676 
L 293.379328 144.52535 
L 293.4112 145.518193 
L 293.474946 144.310681 
L 293.618372 135.375094 
L 293.698054 139.265966 
L 293.849449 163.711369 
L 294.271761 230.714851 
L 294.335506 227.763156 
L 294.423156 213.809688 
L 294.996863 131.108553 
L 295.068577 130.008376 
L 295.132322 130.357213 
L 295.148258 130.303545 
L 295.164195 130.679216 
L 295.363399 133.17474 
L 295.411208 133.389409 
L 295.682125 209.516313 
L 296.000851 287.467901 
L 296.04866 289.560921 
L 296.096469 286.394557 
L 296.215991 271.55558 
L 296.526749 224.623626 
L 296.670176 210.052984 
L 296.773762 215.017199 
L 296.893285 217.351722 
L 297.028743 221.108425 
L 297.036711 221.054758 
L 297.04468 221.054758 
L 297.25982 237.637918 
L 297.355438 236.08157 
L 297.459024 223.416114 
L 297.99289 139.802637 
L 298.040699 141.895658 
L 298.231935 144.659518 
L 298.359425 148.550389 
L 298.478948 153.48777 
L 298.526757 151.233748 
L 298.694088 148.604056 
L 298.757833 146.91354 
L 298.885324 141.546821 
L 298.972973 136.045934 
L 299.004846 138.863462 
L 299.674171 264.337344 
L 299.698075 264.98135 
L 299.729948 262.566326 
L 299.745884 261.92232 
L 299.769789 264.042174 
L 299.913216 271.55558 
L 299.968993 270.88474 
L 300.064611 272.763092 
L 300.15226 272.306921 
L 300.184133 271.770249 
L 300.216006 272.89726 
L 300.223974 273.031428 
L 300.231942 271.904417 
L 300.518795 246.734506 
L 300.781745 233.666546 
L 300.84549 234.203218 
L 300.861426 233.532379 
L 301.004853 225.133464 
L 301.347484 185.902751 
L 301.474974 174.686309 
L 301.522783 177.718505 
L 301.690114 212.33384 
L 302.05665 276.278293 
L 302.144299 283.979534 
L 302.208045 281.698678 
L 302.35944 255.187088 
L 302.813624 132.825903 
L 302.829561 132.316065 
L 302.893306 133.577244 
L 303.140319 154.82945 
L 303.387332 204.203261 
L 303.658249 244.185315 
L 303.682153 242.038628 
L 303.905262 209.462645 
L 304.120402 187.378598 
L 304.160243 185.688082 
L 304.223988 186.788259 
L 304.662237 255.535925 
L 304.718014 249.444699 
L 304.957058 183.80973 
L 305.220007 130.893884 
L 305.235944 131.08172 
L 305.243912 131.08172 
L 305.307657 129.632706 
L 305.347498 130.706049 
L 305.435148 133.84558 
L 305.490925 132.557567 
L 305.506861 132.691735 
L 305.594511 137.199779 
L 305.690129 136.341104 
L 305.706065 136.072768 
L 305.745906 137.816951 
L 305.969014 162.235521 
L 306.216027 198.165703 
L 306.255868 197.17286 
L 306.534753 186.841926 
L 306.574594 184.346402 
L 306.638339 186.171086 
L 306.757862 199.64155 
L 306.829575 196.850857 
L 307.204078 161.806184 
L 307.243919 168.541416 
L 307.538741 242.306964 
L 307.658263 266.484031 
L 307.71404 260.312305 
L 307.969021 209.999317 
L 308.144321 187.512766 
L 308.176193 188.773945 
L 308.431174 202.190742 
L 308.478983 201.546735 
L 308.71006 176.645161 
L 308.805678 181.019037 
L 308.909264 191.0548 
L 309.475003 283.255027 
L 309.498907 283.442862 
L 309.514844 281.913347 
L 309.578589 279.873994 
L 309.626398 281.698678 
L 309.65827 280.356999 
L 309.714047 282.315851 
L 309.913251 289.426753 
L 309.769825 281.886514 
L 309.945124 288.138741 
L 310.1762 269.08689 
L 310.391341 249.82037 
L 310.662258 263.371334 
L 310.78178 265.518022 
L 310.797717 265.249686 
L 310.95708 260.178137 
L 311.036761 261.117312 
L 311.076602 264.256843 
L 311.164252 262.780995 
L 311.307679 256.3946 
L 311.451105 249.444699 
L 311.467042 250.357041 
L 311.801704 284.301537 
L 311.937163 292.485783 
L 311.953099 291.546607 
L 311.969036 290.768433 
L 312.032781 292.351615 
L 312.072622 293.022455 
L 312.096526 290.687932 
L 312.566647 227.226484 
L 312.654297 234.605722 
L 312.853501 250.974214 
L 312.941151 252.852566 
L 313.060673 255.535925 
L 313.084577 255.079754 
L 313.140354 246.197835 
L 313.371431 221.806098 
L 313.538762 208.657638 
L 313.594539 210.401821 
L 313.753903 214.212191 
L 313.769839 214.131691 
L 313.841552 212.548509 
L 313.857489 214.346359 
L 313.953106 218.451899 
L 313.984979 217.566391 
L 314.056692 210.401821 
L 314.479005 152.280258 
L 314.534782 155.929627 
L 314.646336 173.693466 
L 315.228011 284.650374 
L 315.323629 290.365929 
L 315.355502 287.521568 
L 315.682196 260.231804 
L 315.730005 257.011773 
L 316.447139 144.498516 
L 316.646343 137.870619 
L 316.813674 130.437713 
L 316.821643 130.41088 
L 316.837579 130.625548 
L 316.885388 137.253446 
L 317.044751 146.725704 
L 317.084592 146.537869 
L 317.116464 146.99404 
L 317.164273 147.718547 
L 317.228018 147.128208 
L 317.267859 147.128208 
L 317.554713 142.700665 
L 317.562681 142.754333 
L 317.586586 143.049502 
L 317.618458 142.244494 
L 317.714076 132.101396 
L 317.91328 119.087103 
L 318.104516 126.654177 
L 318.423242 154.775782 
L 318.710095 170.285599 
L 318.941172 190.813298 
L 319.33958 211.126328 
L 319.658306 271.770249 
L 319.881414 294.2568 
L 319.897351 292.888287 
L 320.1603 229.909843 
L 320.534803 155.500289 
L 320.582612 153.917107 
L 320.646357 155.231953 
L 320.662294 155.312454 
L 320.702134 156.197963 
L 320.917275 165.294551 
L 320.965084 162.74536 
L 321.188192 150.616575 
L 321.228033 151.019079 
L 321.243969 151.287415 
L 321.28381 150.482407 
L 321.443173 143.022669 
L 321.483014 145.249857 
L 321.650345 150.804411 
L 321.682218 149.999403 
L 321.745963 145.437692 
L 321.88939 133.496743 
L 321.92923 135.106759 
L 321.937199 134.972591 
L 321.961103 136.180102 
L 322.741982 198.863376 
L 323.259913 274.641443 
L 323.339594 266.323029 
L 323.44318 240.831116 
L 323.769875 165.053049 
L 323.873461 161.752517 
L 323.889397 163.4967 
L 323.985015 166.367895 
L 324.016887 165.294551 
L 324.080633 163.147863 
L 324.128442 164.757879 
L 324.327645 174.820477 
L 324.335614 174.820477 
L 324.383423 173.50563 
L 324.415295 175.115646 
L 324.510913 179.462688 
L 324.606531 188.666611 
L 324.686212 185.366079 
L 324.765894 179.140685 
L 324.949162 164.972548 
L 324.989002 165.455553 
L 325.020875 164.435876 
L 325.251952 152.280258 
L 325.267888 152.226591 
L 325.315697 150.965412 
L 325.323665 150.482407 
L 325.379442 153.165767 
L 325.427251 154.856283 
L 325.483028 152.682762 
L 325.698168 148.523555 
L 325.706136 148.604056 
L 325.722073 148.791891 
L 325.801754 156.197963 
L 325.873468 153.568271 
L 325.881436 153.514604 
L 325.897372 154.15861 
L 325.977054 163.416199 
L 326.279844 240.857949 
L 326.415302 274.668277 
L 326.479048 266.001026 
L 327.076659 157.67381 
L 327.084627 157.727478 
L 327.132436 158.800821 
L 327.220086 163.711369 
L 327.730048 211.179995 
L 327.945188 225.348133 
L 328.096583 233.612879 
L 328.11252 233.049374 
L 328.710131 173.50563 
L 328.813717 164.918881 
L 328.877462 165.294551 
L 328.893399 165.053049 
L 328.941208 165.858056 
L 329.036826 175.51815 
L 329.610533 269.006389 
L 329.658342 268.362383 
L 329.801769 271.045742 
L 329.817705 269.704062 
L 329.937227 246.949175 
L 330.343603 156.788302 
L 330.447189 152.011922 
L 330.526871 152.280258 
L 330.550775 152.280258 
L 330.566712 152.092423 
L 330.630457 152.494927 
L 330.70217 160.410837 
L 330.981056 184.883074 
L 331.267909 199.26588 
L 331.291814 197.307028 
L 331.371495 194.892004 
L 331.419304 195.83118 
L 331.491018 191.859808 
L 331.745999 160.008333 
L 331.833648 165.294551 
L 331.841616 165.50922 
L 331.873489 164.16754 
L 331.945203 161.269512 
L 332.016916 161.430514 
L 332.136438 155.500289 
L 332.335642 141.224818 
L 332.367515 142.43233 
L 332.526878 146.001197 
L 332.534846 145.974364 
L 332.582655 144.096012 
L 332.638432 145.867029 
L 332.710145 147.852715 
L 332.797795 147.262376 
L 332.845604 144.847353 
L 332.925286 141.224818 
L 332.996999 142.163994 
L 333.068712 146.457369 
L 333.148394 144.444849 
L 333.379471 135.777598 
L 333.387439 135.9386 
L 333.483057 144.042345 
L 333.833655 181.958212 
L 334.056764 212.199672 
L 334.232063 217.888394 
L 334.335649 200.741728 
L 334.598598 159.256992 
L 335.204178 130.706049 
L 335.28386 123.648814 
L 335.355573 124.507489 
L 335.37151 124.775825 
L 335.451191 129.686373 
L 335.594618 144.176513 
L 335.865535 169.936763 
L 335.881472 169.748927 
L 335.977089 167.870576 
L 336.248007 153.246268 
L 336.279879 152.763263 
L 336.303784 152.038756 
L 336.335656 154.15861 
L 336.542828 165.321385 
L 336.566733 164.892047 
L 336.726096 161.672016 
L 336.773905 163.174697 
L 336.781873 163.416199 
L 336.813746 161.698849 
L 337.020918 150.026236 
L 337.068727 150.401907 
L 337.100599 150.831244 
L 337.212154 153.48777 
L 337.251994 152.548594 
L 337.451198 148.926059 
L 337.714147 146.403701 
L 337.761956 146.189033 
L 337.817733 146.511036 
L 337.83367 146.457369 
L 337.865542 146.135365 
L 337.897415 146.645204 
L 338.271918 162.960028 
L 338.399409 166.9314 
L 338.431281 166.099559 
L 338.463154 165.831223 
L 338.510963 166.663064 
L 338.606581 171.895615 
L 338.65439 168.917086 
L 338.805785 158.934989 
L 338.877498 159.525328 
L 338.933275 160.759674 
L 339.020925 159.927832 
L 339.092638 155.795459 
L 339.204193 156.171129 
L 339.236065 156.466299 
L 339.25997 155.983294 
L 339.411365 152.44126 
L 339.427301 152.709596 
L 339.674314 157.137139 
L 339.730091 155.983294 
L 339.793836 157.137139 
L 339.809772 157.324974 
L 339.841645 156.385798 
L 340.112562 150.294572 
L 340.160371 151.47525 
L 340.463161 160.062 
L 340.526906 162.879528 
L 340.68627 165.321385 
L 340.797824 167.870576 
L 340.861569 166.716731 
L 340.885473 166.448395 
L 340.933282 167.387571 
L 340.957187 167.709574 
L 341.004996 166.099559 
L 341.283881 159.149658 
L 341.315754 159.256992 
L 341.363563 158.586153 
L 341.435276 159.069157 
L 341.562767 161.430514 
L 341.746034 164.355375 
L 341.785875 164.435876 
L 341.84962 165.50922 
L 341.881493 164.355375 
L 342.072729 161.02801 
L 342.168347 162.289189 
L 342.303805 163.174697 
L 342.335678 163.013696 
L 342.351614 163.228364 
L 342.837672 177.799005 
L 342.877512 177.369668 
L 342.925321 175.920654 
L 343.012971 176.510993 
L 343.084685 175.169313 
L 343.116557 176.242657 
L 343.156398 177.450169 
L 343.228111 176.698828 
L 343.714169 165.428719 
L 343.79385 165.911724 
L 343.825723 165.965391 
L 343.865564 165.643388 
L 343.953214 164.489543 
L 344.048831 161.162178 
L 344.09664 161.833017 
L 344.192258 162.772193 
L 344.224131 162.423356 
L 344.232099 162.369689 
L 344.287876 162.691692 
L 344.423335 164.301708 
L 344.463175 168.058411 
L 344.813774 222.71844 
L 344.829711 222.530605 
L 344.901424 223.738117 
L 344.925329 224.274789 
L 344.933297 223.657616 
L 345.291864 166.9314 
L 345.299832 167.038735 
L 345.3078 167.038735 
L 345.363577 168.326747 
L 345.411386 167.172902 
L 345.52294 165.58972 
L 345.554813 166.126392 
L 345.785889 169.587926 
L 345.793858 169.400091 
L 345.841666 167.924243 
L 345.881507 169.453758 
L 346.072743 175.088812 
L 346.184297 175.920654 
L 346.208202 175.705985 
L 346.43131 170.929606 
L 346.463183 172.163951 
L 346.487087 172.405453 
L 346.526928 171.358943 
L 346.598641 169.587926 
L 346.64645 170.473434 
L 346.750036 173.639798 
L 346.82175 172.700623 
L 347.220157 164.972548 
L 347.299839 165.106716 
L 347.363584 164.918881 
L 347.427329 167.333904 
L 347.634502 174.713142 
L 347.666374 172.888458 
L 347.730119 169.346424 
L 347.793865 171.868781 
L 348.208209 199.051211 
L 348.24805 198.729208 
L 348.319763 195.750679 
L 348.415381 188.800779 
L 348.534903 172.137117 
L 348.630521 175.759652 
L 348.662394 176.296324 
L 348.702234 174.954645 
L 348.901438 164.918881 
L 349.491082 53.3448 
L 349.554827 54.283976 
L 349.570763 54.283976 
L 349.650445 57.101503 
L 350.064789 113.452049 
L 350.431324 172.75429 
L 350.518974 178.65768 
L 350.574751 175.89382 
L 350.662401 166.26056 
L 350.734114 170.285599 
L 350.869573 177.450169 
L 350.933318 177.128166 
L 351.068777 184.346402 
L 351.156426 190.786465 
L 351.212204 189.203283 
L 351.363599 185.983251 
L 351.395471 186.841926 
L 351.427344 187.91527 
L 351.499057 186.57359 
L 351.730134 178.308844 
L 351.754038 180.348197 
L 351.945274 210.857992 
L 352.311809 281.349842 
L 352.375554 278.693316 
L 352.550854 254.060077 
L 352.853644 212.790011 
L 352.885516 213.890188 
L 352.95723 214.963532 
L 352.981134 213.621852 
L 353.068784 211.448331 
L 353.140497 211.475165 
L 353.180338 210.938493 
L 353.212211 211.528832 
L 353.331733 214.936698 
L 353.347669 213.541352 
L 353.435319 209.784649 
L 353.483128 210.374988 
L 353.546873 209.194309 
L 353.817791 198.97071 
L 353.969186 200.714894 
L 354.040899 201.251566 
L 354.064803 200.875896 
L 354.152453 194.677336 
L 354.534925 152.575428 
L 354.622574 159.203325 
L 354.957237 203.532421 
L 355.100664 215.688039 
L 355.124568 215.0977 
L 355.196282 215.231868 
L 355.299868 213.997523 
L 355.371581 213.08518 
L 355.515008 200.473392 
L 355.658435 196.716689 
L 355.698275 196.421519 
L 355.714212 196.824023 
L 356.017002 221.457262 
L 356.032938 221.537762 
L 356.104651 222.476938 
L 356.160428 224.086954 
L 356.200269 221.779265 
L 356.311823 214.883031 
L 356.32776 217.646891 
L 356.407441 227.575321 
L 356.463218 222.584272 
L 356.622581 219.095905 
L 356.638518 220.035081 
L 356.789913 226.958148 
L 356.797881 225.965305 
L 356.989117 216.81505 
L 356.997085 216.895551 
L 357.100671 222.879442 
L 357.164416 220.169249 
L 357.395493 213.997523 
L 357.236129 220.196083 
L 357.443302 214.695196 
L 357.49111 216.761383 
L 357.562824 215.688039 
L 357.57876 214.936698 
L 357.642505 217.029719 
L 357.698282 218.290898 
L 357.75406 217.083386 
L 357.945295 213.058347 
L 358.088722 210.187152 
L 358.248085 207.584294 
L 358.327767 207.959964 
L 358.391512 207.55746 
L 358.415417 207.691628 
L 358.606652 212.253339 
L 358.654461 212.280173 
L 358.678366 212.521675 
L 358.726175 212.011837 
L 359.212232 203.156751 
L 359.252073 203.532421 
L 359.339723 204.686266 
L 359.3955 203.934925 
L 359.507054 202.190742 
L 359.546895 202.888415 
L 359.706258 204.471597 
L 359.722194 204.498431 
L 359.889525 208.174633 
L 360.096697 229.319504 
L 360.319806 264.042174 
L 360.351678 263.183499 
L 360.511042 251.832889 
L 360.909449 198.782875 
L 360.989131 199.453715 
L 361.021004 199.93672 
L 361.084749 199.239046 
L 361.228176 197.897367 
L 361.244112 198.031535 
L 361.435348 199.775718 
L 361.483157 199.319547 
L 361.499093 199.400048 
L 361.578774 202.32491 
L 361.714233 205.357106 
L 361.738138 204.954602 
L 361.785946 204.364263 
L 361.817819 205.437606 
L 361.993119 211.797168 
L 362.431367 259.426796 
L 362.471208 256.01893 
L 362.718221 210.455488 
L 362.861648 203.478754 
L 362.965234 201.65407 
L 363.013043 202.459078 
L 363.148501 203.07625 
L 363.172406 202.888415 
L 363.212246 203.559255 
L 363.299896 207.369625 
L 363.363641 206.349949 
L 363.403482 206.967121 
L 363.4991 205.357106 
L 363.507068 205.276605 
L 363.530973 205.947445 
L 363.546909 206.51095 
L 363.610654 205.222938 
L 363.857667 193.228321 
L 364.024998 188.58611 
L 364.040935 189.25695 
L 364.519024 220.518086 
L 364.550897 219.310574 
L 364.83775 209.972484 
L 364.869623 210.187152 
L 364.901495 210.267653 
L 364.973209 210.938493 
L 365.028986 210.509156 
L 365.100699 210.106652 
L 365.124604 210.509156 
L 365.291935 211.716667 
L 365.307871 211.663 
L 365.347712 212.011837 
L 365.379585 212.414341 
L 365.435362 211.877669 
L 365.459266 212.065504 
L 365.578789 212.655843 
L 365.594725 212.414341 
L 365.722216 210.857992 
L 365.754088 211.206829 
L 365.809865 212.011837 
L 365.865642 211.260496 
L 365.937356 210.133485 
L 365.977197 211.072661 
L 366.088751 214.024356 
L 366.152496 213.863355 
L 366.184369 213.75602 
L 366.495127 206.779286 
L 366.550904 204.766767 
L 366.630585 205.16927 
L 366.65449 205.222938 
L 366.734171 206.752452 
L 366.789948 205.679109 
L 366.861662 203.425087 
L 366.917439 204.739933 
L 366.941343 205.142437 
L 366.981184 203.022583 
L 367.244133 186.57359 
L 367.315847 189.176449 
L 367.323815 189.525286 
L 367.379592 187.700601 
L 367.419433 186.519923 
L 367.451305 188.237273 
L 367.714255 206.376782 
L 367.770032 202.888415 
L 367.969235 194.140664 
L 368.009076 193.603992 
L 368.064853 194.221164 
L 368.088758 194.677336 
L 368.152503 193.872328 
L 368.176408 193.73816 
L 368.20828 194.167497 
L 368.415452 204.41793 
L 368.527006 202.995749 
L 368.622624 199.400048 
L 368.694338 200.178222 
L 368.766051 200.258723 
L 368.973223 202.32491 
L 369.172427 205.16927 
L 369.188363 205.142437 
L 369.212268 205.035103 
L 369.252109 204.954602 
L 369.276013 205.16927 
L 369.403504 207.18179 
L 369.443344 206.752452 
L 369.515058 206.215781 
L 369.554899 206.564617 
L 369.754102 208.496636 
L 369.778007 207.906297 
L 369.93737 205.276605 
L 369.961274 205.410773 
L 369.985179 205.491274 
L 370.001115 205.222938 
L 370.136574 201.144231 
L 370.192351 202.888415 
L 370.351714 213.541352 
L 370.805899 283.308694 
L 370.909485 285.992053 
L 370.837772 283.255027 
L 370.957294 285.321213 
L 370.97323 285.374881 
L 371.005103 285.106545 
L 371.156498 281.376675 
L 371.18837 282.772022 
L 371.27602 284.435705 
L 371.299925 283.228193 
L 371.96925 218.854403 
L 372.040963 215.231868 
L 372.144549 208.389302 
L 372.200326 210.106652 
L 372.287976 213.00468 
L 372.542957 233.183542 
L 372.590766 233.881215 
L 372.646543 233.129875 
L 372.662479 232.539536 
L 372.710288 234.203218 
L 372.965269 250.222874 
L 373.276027 284.033201 
L 373.299932 283.791699 
L 373.379613 282.423185 
L 373.411486 283.764865 
L 373.419454 284.060035 
L 373.443359 280.947338 
L 373.754117 232.673704 
L 374.112684 198.97071 
L 374.136588 198.460872 
L 374.176429 200.60756 
L 374.295951 201.734571 
L 374.319856 201.600403 
L 374.367665 201.65407 
L 374.415474 203.129917 
L 374.654518 214.480527 
L 375.220257 269.274725 
L 375.291971 268.228215 
L 375.299939 268.228215 
L 375.451334 254.596749 
L 375.849742 197.494863 
L 375.937391 194.086996 
L 375.993169 194.892004 
L 376.017073 194.972505 
L 376.391576 201.010064 
L 376.535003 204.605765 
L 376.566876 206.027945 
L 376.662494 214.212191 
L 377.021061 259.292628 
L 377.044965 258.004616 
L 377.116679 252.986734 
L 377.738195 187.512766 
L 377.754131 186.922427 
L 377.793972 187.861603 
L 377.841781 187.781102 
L 377.897558 190.330293 
L 378.01708 195.482343 
L 378.064889 195.428676 
L 378.088794 195.16034 
L 378.10473 195.911681 
L 378.23222 202.056574 
L 378.375647 201.466235 
L 378.423456 201.063731 
L 378.455329 201.600403 
L 378.53501 203.290919 
L 378.869673 214.131691 
L 378.877641 214.158524 
L 378.909514 214.078023 
L 378.981227 214.561028 
L 379.092781 211.609333 
L 379.148558 211.528832 
L 379.459316 200.527059 
L 379.475253 200.60756 
L 379.570871 201.466235 
L 379.610711 200.795395 
L 379.626648 200.849062 
L 380.240196 221.403594 
L 380.272068 220.974257 
L 380.327845 220.169249 
L 380.399559 220.383918 
L 380.487208 218.371398 
L 380.742189 214.695196 
L 380.78203 215.205034 
L 380.813903 215.151367 
L 380.821871 215.017199 
L 380.853744 216.036876 
L 381.044979 219.444742 
L 381.124661 220.974257 
L 381.188406 219.793579 
L 381.331833 217.298055 
L 381.427451 215.017199 
L 381.467292 215.339202 
L 381.706336 222.450105 
L 381.762113 220.437585 
L 381.77805 220.383918 
L 381.817891 220.705921 
L 381.833827 220.705921 
L 381.857731 221.108425 
L 381.921477 224.006453 
L 382.112712 227.441153 
L 382.144585 227.011815 
L 382.184426 225.938472 
L 382.20833 227.414319 
L 382.351757 232.593203 
L 382.367693 232.378534 
L 382.407534 231.922363 
L 382.431439 232.405368 
L 382.439407 232.807872 
L 382.471279 229.239004 
L 382.750165 192.745317 
L 382.845783 193.469824 
L 382.861719 193.469824 
L 382.909528 192.798984 
L 382.925464 194.274832 
L 383.451362 266.484031 
L 383.539012 271.636081 
L 383.578853 267.289039 
L 383.770089 258.138784 
L 383.865707 251.967057 
L 384.224274 229.239004 
L 384.295987 227.172817 
L 384.375669 227.441153 
L 384.399573 227.548487 
L 384.495191 229.856176 
L 384.606745 229.50734 
L 384.662522 228.487663 
L 384.710331 229.373172 
L 384.782045 230.795352 
L 384.837822 230.097679 
L 384.97328 227.226484 
L 385.029057 228.085159 
L 385.044994 228.031492 
L 385.284038 222.315937 
L 385.427465 218.961737 
L 385.443401 219.632577 
L 385.499179 221.806098 
L 385.554956 220.035081 
L 385.841809 208.120966 
L 386.025077 201.949239 
L 385.905555 208.791806 
L 386.072886 203.559255 
L 386.351771 216.43938 
L 386.359739 216.493047 
L 386.391612 215.956375 
L 386.407548 215.822207 
L 386.447389 216.841884 
L 386.535039 219.444742 
L 386.582848 218.15673 
L 387.068905 197.038692 
L 387.132651 197.387528 
L 387.148587 197.441196 
L 387.188428 198.97071 
L 387.586835 216.546714 
L 387.674485 217.834726 
L 387.714326 216.81505 
L 387.873689 211.126328 
L 387.921498 211.609333 
L 388.025084 212.816845 
L 388.072893 211.985003 
L 388.152574 209.650481 
L 388.208352 210.911659 
L 388.439428 217.163887 
L 388.447396 216.81505 
L 388.503173 213.863355 
L 388.566919 216.036876 
L 388.766122 220.383918 
L 388.813931 219.444742 
L 388.909549 215.017199 
L 389.100785 205.008269 
L 389.12469 205.947445 
L 389.180467 206.779286 
L 389.236244 206.108446 
L 389.244212 205.974278 
L 389.292021 206.832953 
L 389.387639 208.630804 
L 389.578874 218.988571 
L 389.610747 217.378555 
L 389.658556 215.822207 
L 389.722301 217.029719 
L 389.833855 222.047601 
L 390.017123 226.099473 
L 390.088836 225.079797 
L 390.144613 225.804304 
L 390.248199 227.360652 
L 390.303977 226.555644 
L 390.415531 224.865128 
L 390.447403 225.4018 
L 390.598798 228.568164 
L 390.694416 227.709489 
L 390.829875 224.73096 
L 390.869716 225.884804 
L 390.933461 227.682655 
L 391.021111 227.360652 
L 391.236251 224.543125 
L 391.268123 224.945629 
L 391.307964 225.4018 
L 391.339837 224.677293 
L 391.666531 211.797168 
L 391.817926 212.253339 
L 391.881671 211.126328 
L 391.921512 212.119171 
L 392.288047 220.840089 
L 392.327888 220.437585 
L 392.359761 220.866923 
L 392.53506 222.852608 
L 392.62271 221.108425 
L 392.686455 222.262269 
L 392.702392 222.34277 
L 392.734264 221.67193 
L 392.758169 221.242593 
L 392.805978 222.798941 
L 392.869723 224.194288 
L 392.917532 223.067277 
L 393.021118 222.476938 
L 392.965341 223.147778 
L 393.037054 222.71844 
L 393.124704 224.462624 
L 393.172513 223.416114 
L 393.323908 219.095905 
L 393.347812 218.559234 
L 393.395621 220.303417 
L 393.794029 228.085159 
L 393.849806 226.421476 
L 393.993233 222.476938 
L 394.017137 222.71844 
L 394.080882 222.986776 
L 394.104787 222.476938 
L 394.248214 217.888394 
L 394.296023 219.391075 
L 394.391641 226.206808 
L 394.43945 222.262269 
L 394.646622 214.561028 
L 394.821921 207.047622 
L 394.86973 203.934925 
L 394.909571 208.308801 
L 395.076902 214.695196 
L 395.100806 214.614695 
L 395.116743 214.561028 
L 395.156584 214.829364 
L 395.17252 214.829364 
L 395.252201 217.244387 
L 395.355787 221.67193 
L 395.419533 219.230073 
L 395.507182 217.512723 
L 395.562959 217.781059 
L 395.6028 217.646891 
L 395.618737 217.834726 
L 395.770132 220.383918 
L 395.794036 219.57891 
L 395.833877 216.895551 
L 395.90559 219.095905 
L 396.088858 223.872285 
L 396.12073 223.201445 
L 396.29603 213.75602 
L 396.551011 196.367852 
L 396.590852 198.031535 
L 397.188463 232.190699 
L 397.2044 232.056531 
L 397.236272 232.002864 
L 397.268145 232.324867 
L 397.276113 232.378534 
L 397.292049 232.056531 
L 397.754202 215.231868 
L 397.802011 215.634372 
L 398.072929 220.786422 
L 398.104801 220.303417 
L 398.128706 220.035081 
L 398.176515 220.92059 
L 398.296037 226.15314 
L 398.487273 234.337386 
L 398.487273 234.337386 
" style="fill:none;stroke:#1f77b4;stroke-linecap:square;stroke-width:1.5;"/>
   </g>
   <g id="patch_3">
    <path d="M 57.6 306.3024 
L 57.6 41.2992 
" style="fill:none;stroke:#000000;stroke-linecap:square;stroke-linejoin:miter;stroke-width:0.8;"/>
   </g>
   <g id="patch_4">
    <path d="M 414.72 306.3024 
L 414.72 41.2992 
" style="fill:none;stroke:#000000;stroke-linecap:square;stroke-linejoin:miter;stroke-width:0.8;"/>
   </g>
   <g id="patch_5">
    <path d="M 57.6 306.3024 
L 414.72 306.3024 
" style="fill:none;stroke:#000000;stroke-linecap:square;stroke-linejoin:miter;stroke-width:0.8;"/>
   </g>
   <g id="patch_6">
    <path d="M 57.6 41.2992 
L 414.72 41.2992 
" style="fill:none;stroke:#000000;stroke-linecap:square;stroke-linejoin:miter;stroke-width:0.8;"/>
   </g>
   <g id="text_17">
    <!-- Ritmo Cardíaco -->
    <g transform="translate(190.094063 35.2992)scale(0.12 -0.12)">
     <use xlink:href="#DejaVuSans-82"/>
     <use x="69.482422" xlink:href="#DejaVuSans-105"/>
     <use x="97.265625" xlink:href="#DejaVuSans-116"/>
     <use x="136.474609" xlink:href="#DejaVuSans-109"/>
     <use x="233.886719" xlink:href="#DejaVuSans-111"/>
     <use x="295.068359" xlink:href="#DejaVuSans-32"/>
     <use x="326.855469" xlink:href="#DejaVuSans-67"/>
     <use x="396.679688" xlink:href="#DejaVuSans-97"/>
     <use x="457.958984" xlink:href="#DejaVuSans-114"/>
     <use x="499.056641" xlink:href="#DejaVuSans-100"/>
     <use x="562.533203" xlink:href="#DejaVuSans-237"/>
     <use x="590.316406" xlink:href="#DejaVuSans-97"/>
     <use x="651.595703" xlink:href="#DejaVuSans-99"/>
     <use x="706.576172" xlink:href="#DejaVuSans-111"/>
    </g>
   </g>
  </g>
 </g>
 <defs>
  <clipPath id="p480059af9b">
   <rect height="265.0032" width="357.12" x="57.6" y="41.2992"/>
  </clipPath>
 </defs>
</svg>
