<?xml version="1.0" encoding="utf-8" standalone="no"?>
<!DOCTYPE svg PUBLIC "-//W3C//DTD SVG 1.1//EN"
  "http://www.w3.org/Graphics/SVG/1.1/DTD/svg11.dtd">
<!-- Created with matplotlib (https://matplotlib.org/) -->
<svg height="344.16pt" version="1.1" viewBox="0 0 460.8 344.16" width="460.8pt" xmlns="http://www.w3.org/2000/svg" xmlns:xlink="http://www.w3.org/1999/xlink">
 <defs>
  <style type="text/css">
*{stroke-linecap:butt;stroke-linejoin:round;}
  </style>
 </defs>
 <g id="figure_1">
  <g id="patch_1">
   <path d="M 0 344.16 
L 460.8 344.16 
L 460.8 0 
L 0 0 
z
" style="fill:#ffffff;"/>
  </g>
  <g id="axes_1">
   <g id="patch_2">
    <path d="M 60.41 302.374833 
L 450 302.374833 
L 450 26.051 
L 60.41 26.051 
z
" style="fill:#ffffff;"/>
   </g>
   <g id="patch_3">
    <path clip-path="url(#pb8ae3bb5fa)" d="M 78.118636 302.374833 
L 81.660364 302.374833 
L 81.660364 240.172066 
L 78.118636 240.172066 
z
" style="fill:#1f77b4;"/>
   </g>
   <g id="patch_4">
    <path clip-path="url(#pb8ae3bb5fa)" d="M 81.660364 302.374833 
L 85.202091 302.374833 
L 85.202091 235.387237 
L 81.660364 235.387237 
z
" style="fill:#1f77b4;"/>
   </g>
   <g id="patch_5">
    <path clip-path="url(#pb8ae3bb5fa)" d="M 85.202091 302.374833 
L 88.743818 302.374833 
L 88.743818 217.842867 
L 85.202091 217.842867 
z
" style="fill:#1f77b4;"/>
   </g>
   <g id="patch_6">
    <path clip-path="url(#pb8ae3bb5fa)" d="M 88.743818 302.374833 
L 92.285545 302.374833 
L 92.285545 222.627695 
L 88.743818 222.627695 
z
" style="fill:#1f77b4;"/>
   </g>
   <g id="patch_7">
    <path clip-path="url(#pb8ae3bb5fa)" d="M 92.285545 302.374833 
L 95.827273 302.374833 
L 95.827273 244.956894 
L 92.285545 244.956894 
z
" style="fill:#1f77b4;"/>
   </g>
   <g id="patch_8">
    <path clip-path="url(#pb8ae3bb5fa)" d="M 95.827273 302.374833 
L 99.369 302.374833 
L 99.369 213.058039 
L 95.827273 213.058039 
z
" style="fill:#1f77b4;"/>
   </g>
   <g id="patch_9">
    <path clip-path="url(#pb8ae3bb5fa)" d="M 99.369 302.374833 
L 102.910727 302.374833 
L 102.910727 211.463096 
L 99.369 211.463096 
z
" style="fill:#1f77b4;"/>
   </g>
   <g id="patch_10">
    <path clip-path="url(#pb8ae3bb5fa)" d="M 102.910727 302.374833 
L 106.452455 302.374833 
L 106.452455 235.387237 
L 102.910727 235.387237 
z
" style="fill:#1f77b4;"/>
   </g>
   <g id="patch_11">
    <path clip-path="url(#pb8ae3bb5fa)" d="M 106.452455 302.374833 
L 109.994182 302.374833 
L 109.994182 240.172066 
L 106.452455 240.172066 
z
" style="fill:#1f77b4;"/>
   </g>
   <g id="patch_12">
    <path clip-path="url(#pb8ae3bb5fa)" d="M 109.994182 302.374833 
L 113.535909 302.374833 
L 113.535909 270.475978 
L 109.994182 270.475978 
z
" style="fill:#1f77b4;"/>
   </g>
   <g id="patch_13">
    <path clip-path="url(#pb8ae3bb5fa)" d="M 113.535909 302.374833 
L 117.077636 302.374833 
L 117.077636 214.652981 
L 113.535909 214.652981 
z
" style="fill:#1f77b4;"/>
   </g>
   <g id="patch_14">
    <path clip-path="url(#pb8ae3bb5fa)" d="M 117.077636 302.374833 
L 120.619364 302.374833 
L 120.619364 152.450214 
L 117.077636 152.450214 
z
" style="fill:#1f77b4;"/>
   </g>
   <g id="patch_15">
    <path clip-path="url(#pb8ae3bb5fa)" d="M 120.619364 302.374833 
L 124.161091 302.374833 
L 124.161091 200.298497 
L 120.619364 200.298497 
z
" style="fill:#1f77b4;"/>
   </g>
   <g id="patch_16">
    <path clip-path="url(#pb8ae3bb5fa)" d="M 124.161091 302.374833 
L 127.702818 302.374833 
L 127.702818 197.108611 
L 124.161091 197.108611 
z
" style="fill:#1f77b4;"/>
   </g>
   <g id="patch_17">
    <path clip-path="url(#pb8ae3bb5fa)" d="M 127.702818 302.374833 
L 131.244545 302.374833 
L 131.244545 224.222638 
L 127.702818 224.222638 
z
" style="fill:#1f77b4;"/>
   </g>
   <g id="patch_18">
    <path clip-path="url(#pb8ae3bb5fa)" d="M 131.244545 302.374833 
L 134.786273 302.374833 
L 134.786273 236.98218 
L 131.244545 236.98218 
z
" style="fill:#1f77b4;"/>
   </g>
   <g id="patch_19">
    <path clip-path="url(#pb8ae3bb5fa)" d="M 134.786273 302.374833 
L 138.328 302.374833 
L 138.328 240.172066 
L 134.786273 240.172066 
z
" style="fill:#1f77b4;"/>
   </g>
   <g id="patch_20">
    <path clip-path="url(#pb8ae3bb5fa)" d="M 138.328 302.374833 
L 141.869727 302.374833 
L 141.869727 219.43781 
L 138.328 219.43781 
z
" style="fill:#1f77b4;"/>
   </g>
   <g id="patch_21">
    <path clip-path="url(#pb8ae3bb5fa)" d="M 141.869727 302.374833 
L 145.411455 302.374833 
L 145.411455 209.868153 
L 141.869727 209.868153 
z
" style="fill:#1f77b4;"/>
   </g>
   <g id="patch_22">
    <path clip-path="url(#pb8ae3bb5fa)" d="M 145.411455 302.374833 
L 148.953182 302.374833 
L 148.953182 208.27321 
L 145.411455 208.27321 
z
" style="fill:#1f77b4;"/>
   </g>
   <g id="patch_23">
    <path clip-path="url(#pb8ae3bb5fa)" d="M 148.953182 302.374833 
L 152.494909 302.374833 
L 152.494909 131.715958 
L 148.953182 131.715958 
z
" style="fill:#1f77b4;"/>
   </g>
   <g id="patch_24">
    <path clip-path="url(#pb8ae3bb5fa)" d="M 152.494909 302.374833 
L 156.036636 302.374833 
L 156.036636 160.424928 
L 152.494909 160.424928 
z
" style="fill:#1f77b4;"/>
   </g>
   <g id="patch_25">
    <path clip-path="url(#pb8ae3bb5fa)" d="M 156.036636 302.374833 
L 159.578364 302.374833 
L 159.578364 69.51319 
L 156.036636 69.51319 
z
" style="fill:#1f77b4;"/>
   </g>
   <g id="patch_26">
    <path clip-path="url(#pb8ae3bb5fa)" d="M 159.578364 302.374833 
L 163.120091 302.374833 
L 163.120091 133.310901 
L 159.578364 133.310901 
z
" style="fill:#1f77b4;"/>
   </g>
   <g id="patch_27">
    <path clip-path="url(#pb8ae3bb5fa)" d="M 163.120091 302.374833 
L 166.661818 302.374833 
L 166.661818 126.93113 
L 163.120091 126.93113 
z
" style="fill:#1f77b4;"/>
   </g>
   <g id="patch_28">
    <path clip-path="url(#pb8ae3bb5fa)" d="M 166.661818 302.374833 
L 170.203545 302.374833 
L 170.203545 103.006988 
L 166.661818 103.006988 
z
" style="fill:#1f77b4;"/>
   </g>
   <g id="patch_29">
    <path clip-path="url(#pb8ae3bb5fa)" d="M 170.203545 302.374833 
L 173.745273 302.374833 
L 173.745273 125.336187 
L 170.203545 125.336187 
z
" style="fill:#1f77b4;"/>
   </g>
   <g id="patch_30">
    <path clip-path="url(#pb8ae3bb5fa)" d="M 173.745273 302.374833 
L 177.287 302.374833 
L 177.287 114.171588 
L 173.745273 114.171588 
z
" style="fill:#1f77b4;"/>
   </g>
   <g id="patch_31">
    <path clip-path="url(#pb8ae3bb5fa)" d="M 177.287 302.374833 
L 180.828727 302.374833 
L 180.828727 98.22216 
L 177.287 98.22216 
z
" style="fill:#1f77b4;"/>
   </g>
   <g id="patch_32">
    <path clip-path="url(#pb8ae3bb5fa)" d="M 180.828727 302.374833 
L 184.370455 302.374833 
L 184.370455 112.576645 
L 180.828727 112.576645 
z
" style="fill:#1f77b4;"/>
   </g>
   <g id="patch_33">
    <path clip-path="url(#pb8ae3bb5fa)" d="M 184.370455 302.374833 
L 187.912182 302.374833 
L 187.912182 187.538955 
L 184.370455 187.538955 
z
" style="fill:#1f77b4;"/>
   </g>
   <g id="patch_34">
    <path clip-path="url(#pb8ae3bb5fa)" d="M 187.912182 302.374833 
L 191.453909 302.374833 
L 191.453909 195.513668 
L 187.912182 195.513668 
z
" style="fill:#1f77b4;"/>
   </g>
   <g id="patch_35">
    <path clip-path="url(#pb8ae3bb5fa)" d="M 191.453909 302.374833 
L 194.995636 302.374833 
L 194.995636 208.27321 
L 191.453909 208.27321 
z
" style="fill:#1f77b4;"/>
   </g>
   <g id="patch_36">
    <path clip-path="url(#pb8ae3bb5fa)" d="M 194.995636 302.374833 
L 198.537364 302.374833 
L 198.537364 200.298497 
L 194.995636 200.298497 
z
" style="fill:#1f77b4;"/>
   </g>
   <g id="patch_37">
    <path clip-path="url(#pb8ae3bb5fa)" d="M 198.537364 302.374833 
L 202.079091 302.374833 
L 202.079091 155.640099 
L 198.537364 155.640099 
z
" style="fill:#1f77b4;"/>
   </g>
   <g id="patch_38">
    <path clip-path="url(#pb8ae3bb5fa)" d="M 202.079091 302.374833 
L 205.620818 302.374833 
L 205.620818 152.450214 
L 202.079091 152.450214 
z
" style="fill:#1f77b4;"/>
   </g>
   <g id="patch_39">
    <path clip-path="url(#pb8ae3bb5fa)" d="M 205.620818 302.374833 
L 209.162545 302.374833 
L 209.162545 144.4755 
L 205.620818 144.4755 
z
" style="fill:#1f77b4;"/>
   </g>
   <g id="patch_40">
    <path clip-path="url(#pb8ae3bb5fa)" d="M 209.162545 302.374833 
L 212.704273 302.374833 
L 212.704273 48.778934 
L 209.162545 48.778934 
z
" style="fill:#1f77b4;"/>
   </g>
   <g id="patch_41">
    <path clip-path="url(#pb8ae3bb5fa)" d="M 212.704273 302.374833 
L 216.246 302.374833 
L 216.246 142.880557 
L 212.704273 142.880557 
z
" style="fill:#1f77b4;"/>
   </g>
   <g id="patch_42">
    <path clip-path="url(#pb8ae3bb5fa)" d="M 216.246 302.374833 
L 219.787727 302.374833 
L 219.787727 142.880557 
L 216.246 142.880557 
z
" style="fill:#1f77b4;"/>
   </g>
   <g id="patch_43">
    <path clip-path="url(#pb8ae3bb5fa)" d="M 219.787727 302.374833 
L 223.329455 302.374833 
L 223.329455 144.4755 
L 219.787727 144.4755 
z
" style="fill:#1f77b4;"/>
   </g>
   <g id="patch_44">
    <path clip-path="url(#pb8ae3bb5fa)" d="M 223.329455 302.374833 
L 226.871182 302.374833 
L 226.871182 61.538476 
L 223.329455 61.538476 
z
" style="fill:#1f77b4;"/>
   </g>
   <g id="patch_45">
    <path clip-path="url(#pb8ae3bb5fa)" d="M 226.871182 302.374833 
L 230.412909 302.374833 
L 230.412909 56.753648 
L 226.871182 56.753648 
z
" style="fill:#1f77b4;"/>
   </g>
   <g id="patch_46">
    <path clip-path="url(#pb8ae3bb5fa)" d="M 230.412909 302.374833 
L 233.954636 302.374833 
L 233.954636 39.209278 
L 230.412909 39.209278 
z
" style="fill:#1f77b4;"/>
   </g>
   <g id="patch_47">
    <path clip-path="url(#pb8ae3bb5fa)" d="M 233.954636 302.374833 
L 237.496364 302.374833 
L 237.496364 40.804221 
L 233.954636 40.804221 
z
" style="fill:#1f77b4;"/>
   </g>
   <g id="patch_48">
    <path clip-path="url(#pb8ae3bb5fa)" d="M 237.496364 302.374833 
L 241.038091 302.374833 
L 241.038091 90.247446 
L 237.496364 90.247446 
z
" style="fill:#1f77b4;"/>
   </g>
   <g id="patch_49">
    <path clip-path="url(#pb8ae3bb5fa)" d="M 241.038091 302.374833 
L 244.579818 302.374833 
L 244.579818 103.006988 
L 241.038091 103.006988 
z
" style="fill:#1f77b4;"/>
   </g>
   <g id="patch_50">
    <path clip-path="url(#pb8ae3bb5fa)" d="M 244.579818 302.374833 
L 248.121545 302.374833 
L 248.121545 56.753648 
L 244.579818 56.753648 
z
" style="fill:#1f77b4;"/>
   </g>
   <g id="patch_51">
    <path clip-path="url(#pb8ae3bb5fa)" d="M 248.121545 302.374833 
L 251.663273 302.374833 
L 251.663273 200.298497 
L 248.121545 200.298497 
z
" style="fill:#1f77b4;"/>
   </g>
   <g id="patch_52">
    <path clip-path="url(#pb8ae3bb5fa)" d="M 251.663273 302.374833 
L 255.205 302.374833 
L 255.205 213.058039 
L 251.663273 213.058039 
z
" style="fill:#1f77b4;"/>
   </g>
   <g id="patch_53">
    <path clip-path="url(#pb8ae3bb5fa)" d="M 255.205 302.374833 
L 258.746727 302.374833 
L 258.746727 184.349069 
L 255.205 184.349069 
z
" style="fill:#1f77b4;"/>
   </g>
   <g id="patch_54">
    <path clip-path="url(#pb8ae3bb5fa)" d="M 258.746727 302.374833 
L 262.288455 302.374833 
L 262.288455 232.197352 
L 258.746727 232.197352 
z
" style="fill:#1f77b4;"/>
   </g>
   <g id="patch_55">
    <path clip-path="url(#pb8ae3bb5fa)" d="M 262.288455 302.374833 
L 265.830182 302.374833 
L 265.830182 267.286093 
L 262.288455 267.286093 
z
" style="fill:#1f77b4;"/>
   </g>
   <g id="patch_56">
    <path clip-path="url(#pb8ae3bb5fa)" d="M 265.830182 302.374833 
L 269.371909 302.374833 
L 269.371909 276.855749 
L 265.830182 276.855749 
z
" style="fill:#1f77b4;"/>
   </g>
   <g id="patch_57">
    <path clip-path="url(#pb8ae3bb5fa)" d="M 269.371909 302.374833 
L 272.913636 302.374833 
L 272.913636 276.855749 
L 269.371909 276.855749 
z
" style="fill:#1f77b4;"/>
   </g>
   <g id="patch_58">
    <path clip-path="url(#pb8ae3bb5fa)" d="M 272.913636 302.374833 
L 276.455364 302.374833 
L 276.455364 281.640577 
L 272.913636 281.640577 
z
" style="fill:#1f77b4;"/>
   </g>
   <g id="patch_59">
    <path clip-path="url(#pb8ae3bb5fa)" d="M 276.455364 302.374833 
L 279.997091 302.374833 
L 279.997091 288.020348 
L 276.455364 288.020348 
z
" style="fill:#1f77b4;"/>
   </g>
   <g id="patch_60">
    <path clip-path="url(#pb8ae3bb5fa)" d="M 279.997091 302.374833 
L 283.538818 302.374833 
L 283.538818 283.23552 
L 279.997091 283.23552 
z
" style="fill:#1f77b4;"/>
   </g>
   <g id="patch_61">
    <path clip-path="url(#pb8ae3bb5fa)" d="M 283.538818 302.374833 
L 287.080545 302.374833 
L 287.080545 283.23552 
L 283.538818 283.23552 
z
" style="fill:#1f77b4;"/>
   </g>
   <g id="patch_62">
    <path clip-path="url(#pb8ae3bb5fa)" d="M 287.080545 302.374833 
L 290.622273 302.374833 
L 290.622273 292.805177 
L 287.080545 292.805177 
z
" style="fill:#1f77b4;"/>
   </g>
   <g id="patch_63">
    <path clip-path="url(#pb8ae3bb5fa)" d="M 290.622273 302.374833 
L 294.164 302.374833 
L 294.164 276.855749 
L 290.622273 276.855749 
z
" style="fill:#1f77b4;"/>
   </g>
   <g id="patch_64">
    <path clip-path="url(#pb8ae3bb5fa)" d="M 294.164 302.374833 
L 297.705727 302.374833 
L 297.705727 278.450692 
L 294.164 278.450692 
z
" style="fill:#1f77b4;"/>
   </g>
   <g id="patch_65">
    <path clip-path="url(#pb8ae3bb5fa)" d="M 297.705727 302.374833 
L 301.247455 302.374833 
L 301.247455 286.425406 
L 297.705727 286.425406 
z
" style="fill:#1f77b4;"/>
   </g>
   <g id="patch_66">
    <path clip-path="url(#pb8ae3bb5fa)" d="M 301.247455 302.374833 
L 304.789182 302.374833 
L 304.789182 284.830463 
L 301.247455 284.830463 
z
" style="fill:#1f77b4;"/>
   </g>
   <g id="patch_67">
    <path clip-path="url(#pb8ae3bb5fa)" d="M 304.789182 302.374833 
L 308.330909 302.374833 
L 308.330909 284.830463 
L 304.789182 284.830463 
z
" style="fill:#1f77b4;"/>
   </g>
   <g id="patch_68">
    <path clip-path="url(#pb8ae3bb5fa)" d="M 308.330909 302.374833 
L 311.872636 302.374833 
L 311.872636 281.640577 
L 308.330909 281.640577 
z
" style="fill:#1f77b4;"/>
   </g>
   <g id="patch_69">
    <path clip-path="url(#pb8ae3bb5fa)" d="M 311.872636 302.374833 
L 315.414364 302.374833 
L 315.414364 280.045635 
L 311.872636 280.045635 
z
" style="fill:#1f77b4;"/>
   </g>
   <g id="patch_70">
    <path clip-path="url(#pb8ae3bb5fa)" d="M 315.414364 302.374833 
L 318.956091 302.374833 
L 318.956091 272.070921 
L 315.414364 272.070921 
z
" style="fill:#1f77b4;"/>
   </g>
   <g id="patch_71">
    <path clip-path="url(#pb8ae3bb5fa)" d="M 318.956091 302.374833 
L 322.497818 302.374833 
L 322.497818 272.070921 
L 318.956091 272.070921 
z
" style="fill:#1f77b4;"/>
   </g>
   <g id="patch_72">
    <path clip-path="url(#pb8ae3bb5fa)" d="M 322.497818 302.374833 
L 326.039545 302.374833 
L 326.039545 265.69115 
L 322.497818 265.69115 
z
" style="fill:#1f77b4;"/>
   </g>
   <g id="patch_73">
    <path clip-path="url(#pb8ae3bb5fa)" d="M 326.039545 302.374833 
L 329.581273 302.374833 
L 329.581273 267.286093 
L 326.039545 267.286093 
z
" style="fill:#1f77b4;"/>
   </g>
   <g id="patch_74">
    <path clip-path="url(#pb8ae3bb5fa)" d="M 329.581273 302.374833 
L 333.123 302.374833 
L 333.123 276.855749 
L 329.581273 276.855749 
z
" style="fill:#1f77b4;"/>
   </g>
   <g id="patch_75">
    <path clip-path="url(#pb8ae3bb5fa)" d="M 333.123 302.374833 
L 336.664727 302.374833 
L 336.664727 280.045635 
L 333.123 280.045635 
z
" style="fill:#1f77b4;"/>
   </g>
   <g id="patch_76">
    <path clip-path="url(#pb8ae3bb5fa)" d="M 336.664727 302.374833 
L 340.206455 302.374833 
L 340.206455 260.906322 
L 336.664727 260.906322 
z
" style="fill:#1f77b4;"/>
   </g>
   <g id="patch_77">
    <path clip-path="url(#pb8ae3bb5fa)" d="M 340.206455 302.374833 
L 343.748182 302.374833 
L 343.748182 281.640577 
L 340.206455 281.640577 
z
" style="fill:#1f77b4;"/>
   </g>
   <g id="patch_78">
    <path clip-path="url(#pb8ae3bb5fa)" d="M 343.748182 302.374833 
L 347.289909 302.374833 
L 347.289909 275.260806 
L 343.748182 275.260806 
z
" style="fill:#1f77b4;"/>
   </g>
   <g id="patch_79">
    <path clip-path="url(#pb8ae3bb5fa)" d="M 347.289909 302.374833 
L 350.831636 302.374833 
L 350.831636 281.640577 
L 347.289909 281.640577 
z
" style="fill:#1f77b4;"/>
   </g>
   <g id="patch_80">
    <path clip-path="url(#pb8ae3bb5fa)" d="M 350.831636 302.374833 
L 354.373364 302.374833 
L 354.373364 295.995062 
L 350.831636 295.995062 
z
" style="fill:#1f77b4;"/>
   </g>
   <g id="patch_81">
    <path clip-path="url(#pb8ae3bb5fa)" d="M 354.373364 302.374833 
L 357.915091 302.374833 
L 357.915091 297.590005 
L 354.373364 297.590005 
z
" style="fill:#1f77b4;"/>
   </g>
   <g id="patch_82">
    <path clip-path="url(#pb8ae3bb5fa)" d="M 357.915091 302.374833 
L 361.456818 302.374833 
L 361.456818 295.995062 
L 357.915091 295.995062 
z
" style="fill:#1f77b4;"/>
   </g>
   <g id="patch_83">
    <path clip-path="url(#pb8ae3bb5fa)" d="M 361.456818 302.374833 
L 364.998545 302.374833 
L 364.998545 299.184948 
L 361.456818 299.184948 
z
" style="fill:#1f77b4;"/>
   </g>
   <g id="patch_84">
    <path clip-path="url(#pb8ae3bb5fa)" d="M 364.998545 302.374833 
L 368.540273 302.374833 
L 368.540273 297.590005 
L 364.998545 297.590005 
z
" style="fill:#1f77b4;"/>
   </g>
   <g id="patch_85">
    <path clip-path="url(#pb8ae3bb5fa)" d="M 368.540273 302.374833 
L 372.082 302.374833 
L 372.082 286.425406 
L 368.540273 286.425406 
z
" style="fill:#1f77b4;"/>
   </g>
   <g id="patch_86">
    <path clip-path="url(#pb8ae3bb5fa)" d="M 372.082 302.374833 
L 375.623727 302.374833 
L 375.623727 297.590005 
L 372.082 297.590005 
z
" style="fill:#1f77b4;"/>
   </g>
   <g id="patch_87">
    <path clip-path="url(#pb8ae3bb5fa)" d="M 375.623727 302.374833 
L 379.165455 302.374833 
L 379.165455 295.995062 
L 375.623727 295.995062 
z
" style="fill:#1f77b4;"/>
   </g>
   <g id="patch_88">
    <path clip-path="url(#pb8ae3bb5fa)" d="M 379.165455 302.374833 
L 382.707182 302.374833 
L 382.707182 294.40012 
L 379.165455 294.40012 
z
" style="fill:#1f77b4;"/>
   </g>
   <g id="patch_89">
    <path clip-path="url(#pb8ae3bb5fa)" d="M 382.707182 302.374833 
L 386.248909 302.374833 
L 386.248909 297.590005 
L 382.707182 297.590005 
z
" style="fill:#1f77b4;"/>
   </g>
   <g id="patch_90">
    <path clip-path="url(#pb8ae3bb5fa)" d="M 386.248909 302.374833 
L 389.790636 302.374833 
L 389.790636 297.590005 
L 386.248909 297.590005 
z
" style="fill:#1f77b4;"/>
   </g>
   <g id="patch_91">
    <path clip-path="url(#pb8ae3bb5fa)" d="M 389.790636 302.374833 
L 393.332364 302.374833 
L 393.332364 295.995062 
L 389.790636 295.995062 
z
" style="fill:#1f77b4;"/>
   </g>
   <g id="patch_92">
    <path clip-path="url(#pb8ae3bb5fa)" d="M 393.332364 302.374833 
L 396.874091 302.374833 
L 396.874091 299.184948 
L 393.332364 299.184948 
z
" style="fill:#1f77b4;"/>
   </g>
   <g id="patch_93">
    <path clip-path="url(#pb8ae3bb5fa)" d="M 396.874091 302.374833 
L 400.415818 302.374833 
L 400.415818 297.590005 
L 396.874091 297.590005 
z
" style="fill:#1f77b4;"/>
   </g>
   <g id="patch_94">
    <path clip-path="url(#pb8ae3bb5fa)" d="M 400.415818 302.374833 
L 403.957545 302.374833 
L 403.957545 297.590005 
L 400.415818 297.590005 
z
" style="fill:#1f77b4;"/>
   </g>
   <g id="patch_95">
    <path clip-path="url(#pb8ae3bb5fa)" d="M 403.957545 302.374833 
L 407.499273 302.374833 
L 407.499273 297.590005 
L 403.957545 297.590005 
z
" style="fill:#1f77b4;"/>
   </g>
   <g id="patch_96">
    <path clip-path="url(#pb8ae3bb5fa)" d="M 407.499273 302.374833 
L 411.041 302.374833 
L 411.041 295.995062 
L 407.499273 295.995062 
z
" style="fill:#1f77b4;"/>
   </g>
   <g id="patch_97">
    <path clip-path="url(#pb8ae3bb5fa)" d="M 411.041 302.374833 
L 414.582727 302.374833 
L 414.582727 292.805177 
L 411.041 292.805177 
z
" style="fill:#1f77b4;"/>
   </g>
   <g id="patch_98">
    <path clip-path="url(#pb8ae3bb5fa)" d="M 414.582727 302.374833 
L 418.124455 302.374833 
L 418.124455 292.805177 
L 414.582727 292.805177 
z
" style="fill:#1f77b4;"/>
   </g>
   <g id="patch_99">
    <path clip-path="url(#pb8ae3bb5fa)" d="M 418.124455 302.374833 
L 421.666182 302.374833 
L 421.666182 281.640577 
L 418.124455 281.640577 
z
" style="fill:#1f77b4;"/>
   </g>
   <g id="patch_100">
    <path clip-path="url(#pb8ae3bb5fa)" d="M 421.666182 302.374833 
L 425.207909 302.374833 
L 425.207909 291.210234 
L 421.666182 291.210234 
z
" style="fill:#1f77b4;"/>
   </g>
   <g id="patch_101">
    <path clip-path="url(#pb8ae3bb5fa)" d="M 425.207909 302.374833 
L 428.749636 302.374833 
L 428.749636 295.995062 
L 425.207909 295.995062 
z
" style="fill:#1f77b4;"/>
   </g>
   <g id="patch_102">
    <path clip-path="url(#pb8ae3bb5fa)" d="M 428.749636 302.374833 
L 432.291364 302.374833 
L 432.291364 286.425406 
L 428.749636 286.425406 
z
" style="fill:#1f77b4;"/>
   </g>
   <g id="matplotlib.axis_1">
    <g id="xtick_1">
     <g id="line2d_1">
      <defs>
       <path d="M 0 0 
L 0 3.5 
" id="mb1c526b6b1" style="stroke:#000000;stroke-width:0.8;"/>
      </defs>
      <g>
       <use style="stroke:#000000;stroke-width:0.8;" x="71.087721" xlink:href="#mb1c526b6b1" y="302.374833"/>
      </g>
     </g>
     <g id="text_1">
      <!-- 60 -->
      <defs>
       <path d="M 33.015625 40.375 
Q 26.375 40.375 22.484375 35.828125 
Q 18.609375 31.296875 18.609375 23.390625 
Q 18.609375 15.53125 22.484375 10.953125 
Q 26.375 6.390625 33.015625 6.390625 
Q 39.65625 6.390625 43.53125 10.953125 
Q 47.40625 15.53125 47.40625 23.390625 
Q 47.40625 31.296875 43.53125 35.828125 
Q 39.65625 40.375 33.015625 40.375 
z
M 52.59375 71.296875 
L 52.59375 62.3125 
Q 48.875 64.0625 45.09375 64.984375 
Q 41.3125 65.921875 37.59375 65.921875 
Q 27.828125 65.921875 22.671875 59.328125 
Q 17.53125 52.734375 16.796875 39.40625 
Q 19.671875 43.65625 24.015625 45.921875 
Q 28.375 48.1875 33.59375 48.1875 
Q 44.578125 48.1875 50.953125 41.515625 
Q 57.328125 34.859375 57.328125 23.390625 
Q 57.328125 12.15625 50.6875 5.359375 
Q 44.046875 -1.421875 33.015625 -1.421875 
Q 20.359375 -1.421875 13.671875 8.265625 
Q 6.984375 17.96875 6.984375 36.375 
Q 6.984375 53.65625 15.1875 63.9375 
Q 23.390625 74.21875 37.203125 74.21875 
Q 40.921875 74.21875 44.703125 73.484375 
Q 48.484375 72.75 52.59375 71.296875 
z
" id="DejaVuSans-54"/>
       <path d="M 31.78125 66.40625 
Q 24.171875 66.40625 20.328125 58.90625 
Q 16.5 51.421875 16.5 36.375 
Q 16.5 21.390625 20.328125 13.890625 
Q 24.171875 6.390625 31.78125 6.390625 
Q 39.453125 6.390625 43.28125 13.890625 
Q 47.125 21.390625 47.125 36.375 
Q 47.125 51.421875 43.28125 58.90625 
Q 39.453125 66.40625 31.78125 66.40625 
z
M 31.78125 74.21875 
Q 44.046875 74.21875 50.515625 64.515625 
Q 56.984375 54.828125 56.984375 36.375 
Q 56.984375 17.96875 50.515625 8.265625 
Q 44.046875 -1.421875 31.78125 -1.421875 
Q 19.53125 -1.421875 13.0625 8.265625 
Q 6.59375 17.96875 6.59375 36.375 
Q 6.59375 54.828125 13.0625 64.515625 
Q 19.53125 74.21875 31.78125 74.21875 
z
" id="DejaVuSans-48"/>
      </defs>
      <g transform="translate(64.725221 316.973271)scale(0.1 -0.1)">
       <use xlink:href="#DejaVuSans-54"/>
       <use x="63.623047" xlink:href="#DejaVuSans-48"/>
      </g>
     </g>
    </g>
    <g id="xtick_2">
     <g id="line2d_2">
      <g>
       <use style="stroke:#000000;stroke-width:0.8;" x="148.350532" xlink:href="#mb1c526b6b1" y="302.374833"/>
      </g>
     </g>
     <g id="text_2">
      <!-- 80 -->
      <defs>
       <path d="M 31.78125 34.625 
Q 24.75 34.625 20.71875 30.859375 
Q 16.703125 27.09375 16.703125 20.515625 
Q 16.703125 13.921875 20.71875 10.15625 
Q 24.75 6.390625 31.78125 6.390625 
Q 38.8125 6.390625 42.859375 10.171875 
Q 46.921875 13.96875 46.921875 20.515625 
Q 46.921875 27.09375 42.890625 30.859375 
Q 38.875 34.625 31.78125 34.625 
z
M 21.921875 38.8125 
Q 15.578125 40.375 12.03125 44.71875 
Q 8.5 49.078125 8.5 55.328125 
Q 8.5 64.0625 14.71875 69.140625 
Q 20.953125 74.21875 31.78125 74.21875 
Q 42.671875 74.21875 48.875 69.140625 
Q 55.078125 64.0625 55.078125 55.328125 
Q 55.078125 49.078125 51.53125 44.71875 
Q 48 40.375 41.703125 38.8125 
Q 48.828125 37.15625 52.796875 32.3125 
Q 56.78125 27.484375 56.78125 20.515625 
Q 56.78125 9.90625 50.3125 4.234375 
Q 43.84375 -1.421875 31.78125 -1.421875 
Q 19.734375 -1.421875 13.25 4.234375 
Q 6.78125 9.90625 6.78125 20.515625 
Q 6.78125 27.484375 10.78125 32.3125 
Q 14.796875 37.15625 21.921875 38.8125 
z
M 18.3125 54.390625 
Q 18.3125 48.734375 21.84375 45.5625 
Q 25.390625 42.390625 31.78125 42.390625 
Q 38.140625 42.390625 41.71875 45.5625 
Q 45.3125 48.734375 45.3125 54.390625 
Q 45.3125 60.0625 41.71875 63.234375 
Q 38.140625 66.40625 31.78125 66.40625 
Q 25.390625 66.40625 21.84375 63.234375 
Q 18.3125 60.0625 18.3125 54.390625 
z
" id="DejaVuSans-56"/>
      </defs>
      <g transform="translate(141.988032 316.973271)scale(0.1 -0.1)">
       <use xlink:href="#DejaVuSans-56"/>
       <use x="63.623047" xlink:href="#DejaVuSans-48"/>
      </g>
     </g>
    </g>
    <g id="xtick_3">
     <g id="line2d_3">
      <g>
       <use style="stroke:#000000;stroke-width:0.8;" x="225.613343" xlink:href="#mb1c526b6b1" y="302.374833"/>
      </g>
     </g>
     <g id="text_3">
      <!-- 100 -->
      <defs>
       <path d="M 12.40625 8.296875 
L 28.515625 8.296875 
L 28.515625 63.921875 
L 10.984375 60.40625 
L 10.984375 69.390625 
L 28.421875 72.90625 
L 38.28125 72.90625 
L 38.28125 8.296875 
L 54.390625 8.296875 
L 54.390625 0 
L 12.40625 0 
z
" id="DejaVuSans-49"/>
      </defs>
      <g transform="translate(216.069593 316.973271)scale(0.1 -0.1)">
       <use xlink:href="#DejaVuSans-49"/>
       <use x="63.623047" xlink:href="#DejaVuSans-48"/>
       <use x="127.246094" xlink:href="#DejaVuSans-48"/>
      </g>
     </g>
    </g>
    <g id="xtick_4">
     <g id="line2d_4">
      <g>
       <use style="stroke:#000000;stroke-width:0.8;" x="302.876155" xlink:href="#mb1c526b6b1" y="302.374833"/>
      </g>
     </g>
     <g id="text_4">
      <!-- 120 -->
      <defs>
       <path d="M 19.1875 8.296875 
L 53.609375 8.296875 
L 53.609375 0 
L 7.328125 0 
L 7.328125 8.296875 
Q 12.9375 14.109375 22.625 23.890625 
Q 32.328125 33.6875 34.8125 36.53125 
Q 39.546875 41.84375 41.421875 45.53125 
Q 43.3125 49.21875 43.3125 52.78125 
Q 43.3125 58.59375 39.234375 62.25 
Q 35.15625 65.921875 28.609375 65.921875 
Q 23.96875 65.921875 18.8125 64.3125 
Q 13.671875 62.703125 7.8125 59.421875 
L 7.8125 69.390625 
Q 13.765625 71.78125 18.9375 73 
Q 24.125 74.21875 28.421875 74.21875 
Q 39.75 74.21875 46.484375 68.546875 
Q 53.21875 62.890625 53.21875 53.421875 
Q 53.21875 48.921875 51.53125 44.890625 
Q 49.859375 40.875 45.40625 35.40625 
Q 44.1875 33.984375 37.640625 27.21875 
Q 31.109375 20.453125 19.1875 8.296875 
z
" id="DejaVuSans-50"/>
      </defs>
      <g transform="translate(293.332405 316.973271)scale(0.1 -0.1)">
       <use xlink:href="#DejaVuSans-49"/>
       <use x="63.623047" xlink:href="#DejaVuSans-50"/>
       <use x="127.246094" xlink:href="#DejaVuSans-48"/>
      </g>
     </g>
    </g>
    <g id="xtick_5">
     <g id="line2d_5">
      <g>
       <use style="stroke:#000000;stroke-width:0.8;" x="380.138966" xlink:href="#mb1c526b6b1" y="302.374833"/>
      </g>
     </g>
     <g id="text_5">
      <!-- 140 -->
      <defs>
       <path d="M 37.796875 64.3125 
L 12.890625 25.390625 
L 37.796875 25.390625 
z
M 35.203125 72.90625 
L 47.609375 72.90625 
L 47.609375 25.390625 
L 58.015625 25.390625 
L 58.015625 17.1875 
L 47.609375 17.1875 
L 47.609375 0 
L 37.796875 0 
L 37.796875 17.1875 
L 4.890625 17.1875 
L 4.890625 26.703125 
z
" id="DejaVuSans-52"/>
      </defs>
      <g transform="translate(370.595216 316.973271)scale(0.1 -0.1)">
       <use xlink:href="#DejaVuSans-49"/>
       <use x="63.623047" xlink:href="#DejaVuSans-52"/>
       <use x="127.246094" xlink:href="#DejaVuSans-48"/>
      </g>
     </g>
    </g>
    <g id="text_6">
     <!-- Muestras -->
     <defs>
      <path d="M 9.8125 72.90625 
L 24.515625 72.90625 
L 43.109375 23.296875 
L 61.8125 72.90625 
L 76.515625 72.90625 
L 76.515625 0 
L 66.890625 0 
L 66.890625 64.015625 
L 48.09375 14.015625 
L 38.1875 14.015625 
L 19.390625 64.015625 
L 19.390625 0 
L 9.8125 0 
z
" id="DejaVuSans-77"/>
      <path d="M 8.5 21.578125 
L 8.5 54.6875 
L 17.484375 54.6875 
L 17.484375 21.921875 
Q 17.484375 14.15625 20.5 10.265625 
Q 23.53125 6.390625 29.59375 6.390625 
Q 36.859375 6.390625 41.078125 11.03125 
Q 45.3125 15.671875 45.3125 23.6875 
L 45.3125 54.6875 
L 54.296875 54.6875 
L 54.296875 0 
L 45.3125 0 
L 45.3125 8.40625 
Q 42.046875 3.421875 37.71875 1 
Q 33.40625 -1.421875 27.6875 -1.421875 
Q 18.265625 -1.421875 13.375 4.4375 
Q 8.5 10.296875 8.5 21.578125 
z
M 31.109375 56 
z
" id="DejaVuSans-117"/>
      <path d="M 56.203125 29.59375 
L 56.203125 25.203125 
L 14.890625 25.203125 
Q 15.484375 15.921875 20.484375 11.0625 
Q 25.484375 6.203125 34.421875 6.203125 
Q 39.59375 6.203125 44.453125 7.46875 
Q 49.3125 8.734375 54.109375 11.28125 
L 54.109375 2.78125 
Q 49.265625 0.734375 44.1875 -0.34375 
Q 39.109375 -1.421875 33.890625 -1.421875 
Q 20.796875 -1.421875 13.15625 6.1875 
Q 5.515625 13.8125 5.515625 26.8125 
Q 5.515625 40.234375 12.765625 48.109375 
Q 20.015625 56 32.328125 56 
Q 43.359375 56 49.78125 48.890625 
Q 56.203125 41.796875 56.203125 29.59375 
z
M 47.21875 32.234375 
Q 47.125 39.59375 43.09375 43.984375 
Q 39.0625 48.390625 32.421875 48.390625 
Q 24.90625 48.390625 20.390625 44.140625 
Q 15.875 39.890625 15.1875 32.171875 
z
" id="DejaVuSans-101"/>
      <path d="M 44.28125 53.078125 
L 44.28125 44.578125 
Q 40.484375 46.53125 36.375 47.5 
Q 32.28125 48.484375 27.875 48.484375 
Q 21.1875 48.484375 17.84375 46.4375 
Q 14.5 44.390625 14.5 40.28125 
Q 14.5 37.15625 16.890625 35.375 
Q 19.28125 33.59375 26.515625 31.984375 
L 29.59375 31.296875 
Q 39.15625 29.25 43.1875 25.515625 
Q 47.21875 21.78125 47.21875 15.09375 
Q 47.21875 7.46875 41.1875 3.015625 
Q 35.15625 -1.421875 24.609375 -1.421875 
Q 20.21875 -1.421875 15.453125 -0.5625 
Q 10.6875 0.296875 5.421875 2 
L 5.421875 11.28125 
Q 10.40625 8.6875 15.234375 7.390625 
Q 20.0625 6.109375 24.8125 6.109375 
Q 31.15625 6.109375 34.5625 8.28125 
Q 37.984375 10.453125 37.984375 14.40625 
Q 37.984375 18.0625 35.515625 20.015625 
Q 33.0625 21.96875 24.703125 23.78125 
L 21.578125 24.515625 
Q 13.234375 26.265625 9.515625 29.90625 
Q 5.8125 33.546875 5.8125 39.890625 
Q 5.8125 47.609375 11.28125 51.796875 
Q 16.75 56 26.8125 56 
Q 31.78125 56 36.171875 55.265625 
Q 40.578125 54.546875 44.28125 53.078125 
z
" id="DejaVuSans-115"/>
      <path d="M 18.3125 70.21875 
L 18.3125 54.6875 
L 36.8125 54.6875 
L 36.8125 47.703125 
L 18.3125 47.703125 
L 18.3125 18.015625 
Q 18.3125 11.328125 20.140625 9.421875 
Q 21.96875 7.515625 27.59375 7.515625 
L 36.8125 7.515625 
L 36.8125 0 
L 27.59375 0 
Q 17.1875 0 13.234375 3.875 
Q 9.28125 7.765625 9.28125 18.015625 
L 9.28125 47.703125 
L 2.6875 47.703125 
L 2.6875 54.6875 
L 9.28125 54.6875 
L 9.28125 70.21875 
z
" id="DejaVuSans-116"/>
      <path d="M 41.109375 46.296875 
Q 39.59375 47.171875 37.8125 47.578125 
Q 36.03125 48 33.890625 48 
Q 26.265625 48 22.1875 43.046875 
Q 18.109375 38.09375 18.109375 28.8125 
L 18.109375 0 
L 9.078125 0 
L 9.078125 54.6875 
L 18.109375 54.6875 
L 18.109375 46.1875 
Q 20.953125 51.171875 25.484375 53.578125 
Q 30.03125 56 36.53125 56 
Q 37.453125 56 38.578125 55.875 
Q 39.703125 55.765625 41.0625 55.515625 
z
" id="DejaVuSans-114"/>
      <path d="M 34.28125 27.484375 
Q 23.390625 27.484375 19.1875 25 
Q 14.984375 22.515625 14.984375 16.5 
Q 14.984375 11.71875 18.140625 8.90625 
Q 21.296875 6.109375 26.703125 6.109375 
Q 34.1875 6.109375 38.703125 11.40625 
Q 43.21875 16.703125 43.21875 25.484375 
L 43.21875 27.484375 
z
M 52.203125 31.203125 
L 52.203125 0 
L 43.21875 0 
L 43.21875 8.296875 
Q 40.140625 3.328125 35.546875 0.953125 
Q 30.953125 -1.421875 24.3125 -1.421875 
Q 15.921875 -1.421875 10.953125 3.296875 
Q 6 8.015625 6 15.921875 
Q 6 25.140625 12.171875 29.828125 
Q 18.359375 34.515625 30.609375 34.515625 
L 43.21875 34.515625 
L 43.21875 35.40625 
Q 43.21875 41.609375 39.140625 45 
Q 35.0625 48.390625 27.6875 48.390625 
Q 23 48.390625 18.546875 47.265625 
Q 14.109375 46.140625 10.015625 43.890625 
L 10.015625 52.203125 
Q 14.9375 54.109375 19.578125 55.046875 
Q 24.21875 56 28.609375 56 
Q 40.484375 56 46.34375 49.84375 
Q 52.203125 43.703125 52.203125 31.203125 
z
" id="DejaVuSans-97"/>
     </defs>
     <g transform="translate(232.356562 330.651396)scale(0.1 -0.1)">
      <use xlink:href="#DejaVuSans-77"/>
      <use x="86.279297" xlink:href="#DejaVuSans-117"/>
      <use x="149.658203" xlink:href="#DejaVuSans-101"/>
      <use x="211.181641" xlink:href="#DejaVuSans-115"/>
      <use x="263.28125" xlink:href="#DejaVuSans-116"/>
      <use x="302.490234" xlink:href="#DejaVuSans-114"/>
      <use x="343.603516" xlink:href="#DejaVuSans-97"/>
      <use x="404.882812" xlink:href="#DejaVuSans-115"/>
     </g>
    </g>
   </g>
   <g id="matplotlib.axis_2">
    <g id="ytick_1">
     <g id="line2d_6">
      <defs>
       <path d="M 0 0 
L -3.5 0 
" id="m066c99a0ad" style="stroke:#000000;stroke-width:0.8;"/>
      </defs>
      <g>
       <use style="stroke:#000000;stroke-width:0.8;" x="60.41" xlink:href="#m066c99a0ad" y="302.374833"/>
      </g>
     </g>
     <g id="text_7">
      <!-- 0.000 -->
      <defs>
       <path d="M 10.6875 12.40625 
L 21 12.40625 
L 21 0 
L 10.6875 0 
z
" id="DejaVuSans-46"/>
      </defs>
      <g transform="translate(24.781875 306.174052)scale(0.1 -0.1)">
       <use xlink:href="#DejaVuSans-48"/>
       <use x="63.623047" xlink:href="#DejaVuSans-46"/>
       <use x="95.410156" xlink:href="#DejaVuSans-48"/>
       <use x="159.033203" xlink:href="#DejaVuSans-48"/>
       <use x="222.65625" xlink:href="#DejaVuSans-48"/>
      </g>
     </g>
    </g>
    <g id="ytick_2">
     <g id="line2d_7">
      <g>
       <use style="stroke:#000000;stroke-width:0.8;" x="60.41" xlink:href="#m066c99a0ad" y="266.213551"/>
      </g>
     </g>
     <g id="text_8">
      <!-- 0.005 -->
      <defs>
       <path d="M 10.796875 72.90625 
L 49.515625 72.90625 
L 49.515625 64.59375 
L 19.828125 64.59375 
L 19.828125 46.734375 
Q 21.96875 47.46875 24.109375 47.828125 
Q 26.265625 48.1875 28.421875 48.1875 
Q 40.625 48.1875 47.75 41.5 
Q 54.890625 34.8125 54.890625 23.390625 
Q 54.890625 11.625 47.5625 5.09375 
Q 40.234375 -1.421875 26.90625 -1.421875 
Q 22.3125 -1.421875 17.546875 -0.640625 
Q 12.796875 0.140625 7.71875 1.703125 
L 7.71875 11.625 
Q 12.109375 9.234375 16.796875 8.0625 
Q 21.484375 6.890625 26.703125 6.890625 
Q 35.15625 6.890625 40.078125 11.328125 
Q 45.015625 15.765625 45.015625 23.390625 
Q 45.015625 31 40.078125 35.4375 
Q 35.15625 39.890625 26.703125 39.890625 
Q 22.75 39.890625 18.8125 39.015625 
Q 14.890625 38.140625 10.796875 36.28125 
z
" id="DejaVuSans-53"/>
      </defs>
      <g transform="translate(24.781875 270.01277)scale(0.1 -0.1)">
       <use xlink:href="#DejaVuSans-48"/>
       <use x="63.623047" xlink:href="#DejaVuSans-46"/>
       <use x="95.410156" xlink:href="#DejaVuSans-48"/>
       <use x="159.033203" xlink:href="#DejaVuSans-48"/>
       <use x="222.65625" xlink:href="#DejaVuSans-53"/>
      </g>
     </g>
    </g>
    <g id="ytick_3">
     <g id="line2d_8">
      <g>
       <use style="stroke:#000000;stroke-width:0.8;" x="60.41" xlink:href="#m066c99a0ad" y="230.052269"/>
      </g>
     </g>
     <g id="text_9">
      <!-- 0.010 -->
      <g transform="translate(24.781875 233.851487)scale(0.1 -0.1)">
       <use xlink:href="#DejaVuSans-48"/>
       <use x="63.623047" xlink:href="#DejaVuSans-46"/>
       <use x="95.410156" xlink:href="#DejaVuSans-48"/>
       <use x="159.033203" xlink:href="#DejaVuSans-49"/>
       <use x="222.65625" xlink:href="#DejaVuSans-48"/>
      </g>
     </g>
    </g>
    <g id="ytick_4">
     <g id="line2d_9">
      <g>
       <use style="stroke:#000000;stroke-width:0.8;" x="60.41" xlink:href="#m066c99a0ad" y="193.890986"/>
      </g>
     </g>
     <g id="text_10">
      <!-- 0.015 -->
      <g transform="translate(24.781875 197.690205)scale(0.1 -0.1)">
       <use xlink:href="#DejaVuSans-48"/>
       <use x="63.623047" xlink:href="#DejaVuSans-46"/>
       <use x="95.410156" xlink:href="#DejaVuSans-48"/>
       <use x="159.033203" xlink:href="#DejaVuSans-49"/>
       <use x="222.65625" xlink:href="#DejaVuSans-53"/>
      </g>
     </g>
    </g>
    <g id="ytick_5">
     <g id="line2d_10">
      <g>
       <use style="stroke:#000000;stroke-width:0.8;" x="60.41" xlink:href="#m066c99a0ad" y="157.729704"/>
      </g>
     </g>
     <g id="text_11">
      <!-- 0.020 -->
      <g transform="translate(24.781875 161.528923)scale(0.1 -0.1)">
       <use xlink:href="#DejaVuSans-48"/>
       <use x="63.623047" xlink:href="#DejaVuSans-46"/>
       <use x="95.410156" xlink:href="#DejaVuSans-48"/>
       <use x="159.033203" xlink:href="#DejaVuSans-50"/>
       <use x="222.65625" xlink:href="#DejaVuSans-48"/>
      </g>
     </g>
    </g>
    <g id="ytick_6">
     <g id="line2d_11">
      <g>
       <use style="stroke:#000000;stroke-width:0.8;" x="60.41" xlink:href="#m066c99a0ad" y="121.568422"/>
      </g>
     </g>
     <g id="text_12">
      <!-- 0.025 -->
      <g transform="translate(24.781875 125.36764)scale(0.1 -0.1)">
       <use xlink:href="#DejaVuSans-48"/>
       <use x="63.623047" xlink:href="#DejaVuSans-46"/>
       <use x="95.410156" xlink:href="#DejaVuSans-48"/>
       <use x="159.033203" xlink:href="#DejaVuSans-50"/>
       <use x="222.65625" xlink:href="#DejaVuSans-53"/>
      </g>
     </g>
    </g>
    <g id="ytick_7">
     <g id="line2d_12">
      <g>
       <use style="stroke:#000000;stroke-width:0.8;" x="60.41" xlink:href="#m066c99a0ad" y="85.407139"/>
      </g>
     </g>
     <g id="text_13">
      <!-- 0.030 -->
      <defs>
       <path d="M 40.578125 39.3125 
Q 47.65625 37.796875 51.625 33 
Q 55.609375 28.21875 55.609375 21.1875 
Q 55.609375 10.40625 48.1875 4.484375 
Q 40.765625 -1.421875 27.09375 -1.421875 
Q 22.515625 -1.421875 17.65625 -0.515625 
Q 12.796875 0.390625 7.625 2.203125 
L 7.625 11.71875 
Q 11.71875 9.328125 16.59375 8.109375 
Q 21.484375 6.890625 26.8125 6.890625 
Q 36.078125 6.890625 40.9375 10.546875 
Q 45.796875 14.203125 45.796875 21.1875 
Q 45.796875 27.640625 41.28125 31.265625 
Q 36.765625 34.90625 28.71875 34.90625 
L 20.21875 34.90625 
L 20.21875 43.015625 
L 29.109375 43.015625 
Q 36.375 43.015625 40.234375 45.921875 
Q 44.09375 48.828125 44.09375 54.296875 
Q 44.09375 59.90625 40.109375 62.90625 
Q 36.140625 65.921875 28.71875 65.921875 
Q 24.65625 65.921875 20.015625 65.03125 
Q 15.375 64.15625 9.8125 62.3125 
L 9.8125 71.09375 
Q 15.4375 72.65625 20.34375 73.4375 
Q 25.25 74.21875 29.59375 74.21875 
Q 40.828125 74.21875 47.359375 69.109375 
Q 53.90625 64.015625 53.90625 55.328125 
Q 53.90625 49.265625 50.4375 45.09375 
Q 46.96875 40.921875 40.578125 39.3125 
z
" id="DejaVuSans-51"/>
      </defs>
      <g transform="translate(24.781875 89.206358)scale(0.1 -0.1)">
       <use xlink:href="#DejaVuSans-48"/>
       <use x="63.623047" xlink:href="#DejaVuSans-46"/>
       <use x="95.410156" xlink:href="#DejaVuSans-48"/>
       <use x="159.033203" xlink:href="#DejaVuSans-51"/>
       <use x="222.65625" xlink:href="#DejaVuSans-48"/>
      </g>
     </g>
    </g>
    <g id="ytick_8">
     <g id="line2d_13">
      <g>
       <use style="stroke:#000000;stroke-width:0.8;" x="60.41" xlink:href="#m066c99a0ad" y="49.245857"/>
      </g>
     </g>
     <g id="text_14">
      <!-- 0.035 -->
      <g transform="translate(24.781875 53.045076)scale(0.1 -0.1)">
       <use xlink:href="#DejaVuSans-48"/>
       <use x="63.623047" xlink:href="#DejaVuSans-46"/>
       <use x="95.410156" xlink:href="#DejaVuSans-48"/>
       <use x="159.033203" xlink:href="#DejaVuSans-51"/>
       <use x="222.65625" xlink:href="#DejaVuSans-53"/>
      </g>
     </g>
    </g>
    <g id="text_15">
     <!-- Densidad de probabilidad -->
     <defs>
      <path d="M 19.671875 64.796875 
L 19.671875 8.109375 
L 31.59375 8.109375 
Q 46.6875 8.109375 53.6875 14.9375 
Q 60.6875 21.78125 60.6875 36.53125 
Q 60.6875 51.171875 53.6875 57.984375 
Q 46.6875 64.796875 31.59375 64.796875 
z
M 9.8125 72.90625 
L 30.078125 72.90625 
Q 51.265625 72.90625 61.171875 64.09375 
Q 71.09375 55.28125 71.09375 36.53125 
Q 71.09375 17.671875 61.125 8.828125 
Q 51.171875 0 30.078125 0 
L 9.8125 0 
z
" id="DejaVuSans-68"/>
      <path d="M 54.890625 33.015625 
L 54.890625 0 
L 45.90625 0 
L 45.90625 32.71875 
Q 45.90625 40.484375 42.875 44.328125 
Q 39.84375 48.1875 33.796875 48.1875 
Q 26.515625 48.1875 22.3125 43.546875 
Q 18.109375 38.921875 18.109375 30.90625 
L 18.109375 0 
L 9.078125 0 
L 9.078125 54.6875 
L 18.109375 54.6875 
L 18.109375 46.1875 
Q 21.34375 51.125 25.703125 53.5625 
Q 30.078125 56 35.796875 56 
Q 45.21875 56 50.046875 50.171875 
Q 54.890625 44.34375 54.890625 33.015625 
z
" id="DejaVuSans-110"/>
      <path d="M 9.421875 54.6875 
L 18.40625 54.6875 
L 18.40625 0 
L 9.421875 0 
z
M 9.421875 75.984375 
L 18.40625 75.984375 
L 18.40625 64.59375 
L 9.421875 64.59375 
z
" id="DejaVuSans-105"/>
      <path d="M 45.40625 46.390625 
L 45.40625 75.984375 
L 54.390625 75.984375 
L 54.390625 0 
L 45.40625 0 
L 45.40625 8.203125 
Q 42.578125 3.328125 38.25 0.953125 
Q 33.9375 -1.421875 27.875 -1.421875 
Q 17.96875 -1.421875 11.734375 6.484375 
Q 5.515625 14.40625 5.515625 27.296875 
Q 5.515625 40.1875 11.734375 48.09375 
Q 17.96875 56 27.875 56 
Q 33.9375 56 38.25 53.625 
Q 42.578125 51.265625 45.40625 46.390625 
z
M 14.796875 27.296875 
Q 14.796875 17.390625 18.875 11.75 
Q 22.953125 6.109375 30.078125 6.109375 
Q 37.203125 6.109375 41.296875 11.75 
Q 45.40625 17.390625 45.40625 27.296875 
Q 45.40625 37.203125 41.296875 42.84375 
Q 37.203125 48.484375 30.078125 48.484375 
Q 22.953125 48.484375 18.875 42.84375 
Q 14.796875 37.203125 14.796875 27.296875 
z
" id="DejaVuSans-100"/>
      <path id="DejaVuSans-32"/>
      <path d="M 18.109375 8.203125 
L 18.109375 -20.796875 
L 9.078125 -20.796875 
L 9.078125 54.6875 
L 18.109375 54.6875 
L 18.109375 46.390625 
Q 20.953125 51.265625 25.265625 53.625 
Q 29.59375 56 35.59375 56 
Q 45.5625 56 51.78125 48.09375 
Q 58.015625 40.1875 58.015625 27.296875 
Q 58.015625 14.40625 51.78125 6.484375 
Q 45.5625 -1.421875 35.59375 -1.421875 
Q 29.59375 -1.421875 25.265625 0.953125 
Q 20.953125 3.328125 18.109375 8.203125 
z
M 48.6875 27.296875 
Q 48.6875 37.203125 44.609375 42.84375 
Q 40.53125 48.484375 33.40625 48.484375 
Q 26.265625 48.484375 22.1875 42.84375 
Q 18.109375 37.203125 18.109375 27.296875 
Q 18.109375 17.390625 22.1875 11.75 
Q 26.265625 6.109375 33.40625 6.109375 
Q 40.53125 6.109375 44.609375 11.75 
Q 48.6875 17.390625 48.6875 27.296875 
z
" id="DejaVuSans-112"/>
      <path d="M 30.609375 48.390625 
Q 23.390625 48.390625 19.1875 42.75 
Q 14.984375 37.109375 14.984375 27.296875 
Q 14.984375 17.484375 19.15625 11.84375 
Q 23.34375 6.203125 30.609375 6.203125 
Q 37.796875 6.203125 41.984375 11.859375 
Q 46.1875 17.53125 46.1875 27.296875 
Q 46.1875 37.015625 41.984375 42.703125 
Q 37.796875 48.390625 30.609375 48.390625 
z
M 30.609375 56 
Q 42.328125 56 49.015625 48.375 
Q 55.71875 40.765625 55.71875 27.296875 
Q 55.71875 13.875 49.015625 6.21875 
Q 42.328125 -1.421875 30.609375 -1.421875 
Q 18.84375 -1.421875 12.171875 6.21875 
Q 5.515625 13.875 5.515625 27.296875 
Q 5.515625 40.765625 12.171875 48.375 
Q 18.84375 56 30.609375 56 
z
" id="DejaVuSans-111"/>
      <path d="M 48.6875 27.296875 
Q 48.6875 37.203125 44.609375 42.84375 
Q 40.53125 48.484375 33.40625 48.484375 
Q 26.265625 48.484375 22.1875 42.84375 
Q 18.109375 37.203125 18.109375 27.296875 
Q 18.109375 17.390625 22.1875 11.75 
Q 26.265625 6.109375 33.40625 6.109375 
Q 40.53125 6.109375 44.609375 11.75 
Q 48.6875 17.390625 48.6875 27.296875 
z
M 18.109375 46.390625 
Q 20.953125 51.265625 25.265625 53.625 
Q 29.59375 56 35.59375 56 
Q 45.5625 56 51.78125 48.09375 
Q 58.015625 40.1875 58.015625 27.296875 
Q 58.015625 14.40625 51.78125 6.484375 
Q 45.5625 -1.421875 35.59375 -1.421875 
Q 29.59375 -1.421875 25.265625 0.953125 
Q 20.953125 3.328125 18.109375 8.203125 
L 18.109375 0 
L 9.078125 0 
L 9.078125 75.984375 
L 18.109375 75.984375 
z
" id="DejaVuSans-98"/>
      <path d="M 9.421875 75.984375 
L 18.40625 75.984375 
L 18.40625 0 
L 9.421875 0 
z
" id="DejaVuSans-108"/>
     </defs>
     <g transform="translate(18.702188 228.423073)rotate(-90)scale(0.1 -0.1)">
      <use xlink:href="#DejaVuSans-68"/>
      <use x="77.001953" xlink:href="#DejaVuSans-101"/>
      <use x="138.525391" xlink:href="#DejaVuSans-110"/>
      <use x="201.904297" xlink:href="#DejaVuSans-115"/>
      <use x="254.003906" xlink:href="#DejaVuSans-105"/>
      <use x="281.787109" xlink:href="#DejaVuSans-100"/>
      <use x="345.263672" xlink:href="#DejaVuSans-97"/>
      <use x="406.542969" xlink:href="#DejaVuSans-100"/>
      <use x="470.019531" xlink:href="#DejaVuSans-32"/>
      <use x="501.806641" xlink:href="#DejaVuSans-100"/>
      <use x="565.283203" xlink:href="#DejaVuSans-101"/>
      <use x="626.806641" xlink:href="#DejaVuSans-32"/>
      <use x="658.59375" xlink:href="#DejaVuSans-112"/>
      <use x="722.070312" xlink:href="#DejaVuSans-114"/>
      <use x="763.152344" xlink:href="#DejaVuSans-111"/>
      <use x="824.333984" xlink:href="#DejaVuSans-98"/>
      <use x="887.810547" xlink:href="#DejaVuSans-97"/>
      <use x="949.089844" xlink:href="#DejaVuSans-98"/>
      <use x="1012.566406" xlink:href="#DejaVuSans-105"/>
      <use x="1040.349609" xlink:href="#DejaVuSans-108"/>
      <use x="1068.132812" xlink:href="#DejaVuSans-105"/>
      <use x="1095.916016" xlink:href="#DejaVuSans-100"/>
      <use x="1159.392578" xlink:href="#DejaVuSans-97"/>
      <use x="1220.671875" xlink:href="#DejaVuSans-100"/>
     </g>
    </g>
   </g>
   <g id="line2d_14">
    <path clip-path="url(#pb8ae3bb5fa)" d="M 78.118636 272.842981 
L 81.660364 269.658236 
L 85.202091 266.240351 
L 88.743818 262.58686 
L 92.285545 258.697304 
L 95.827273 254.573438 
L 99.369 250.219423 
L 102.910727 245.642007 
L 106.452455 240.850667 
L 109.994182 235.85773 
L 113.535909 230.678459 
L 117.077636 225.3311 
L 120.619364 219.836876 
L 124.161091 214.219948 
L 127.702818 208.507319 
L 131.244545 202.728684 
L 134.786273 196.916235 
L 138.328 191.104412 
L 141.869727 185.329597 
L 145.411455 179.629774 
L 148.953182 174.044132 
L 152.494909 168.61264 
L 156.036636 163.375581 
L 159.578364 158.373067 
L 163.120091 153.644538 
L 166.661818 149.228244 
L 170.203545 145.160736 
L 173.745273 141.476363 
L 177.287 138.206795 
L 180.828727 135.380562 
L 184.370455 133.022647 
L 187.912182 131.154117 
L 191.453909 129.791807 
L 194.995636 128.94807 
L 198.537364 128.630589 
L 202.079091 128.842262 
L 205.620818 129.581156 
L 209.162545 130.840539 
L 212.704273 132.608979 
L 216.246 134.870521 
L 219.787727 137.60492 
L 223.329455 140.787951 
L 226.871182 144.39176 
L 230.412909 148.385272 
L 233.954636 152.734634 
L 237.496364 157.403698 
L 241.038091 162.354512 
L 244.579818 167.547833 
L 248.121545 172.943645 
L 251.663273 178.501656 
L 255.205 184.181799 
L 258.746727 189.944692 
L 262.288455 195.752078 
L 265.830182 201.567225 
L 269.371909 207.355278 
L 272.913636 213.083575 
L 276.455364 218.721903 
L 279.997091 224.242706 
L 283.538818 229.621248 
L 287.080545 234.835709 
L 290.622273 239.867249 
L 294.164 244.700009 
L 297.705727 249.321081 
L 301.247455 253.720424 
L 304.789182 257.890757 
L 308.330909 261.827415 
L 311.872636 265.528174 
L 315.414364 268.993069 
L 318.956091 272.22418 
L 322.497818 275.225421 
L 326.039545 278.002314 
L 329.581273 280.56177 
L 333.123 282.91186 
L 336.664727 285.061609 
L 340.206455 287.020781 
L 343.748182 288.799693 
L 347.289909 290.409028 
L 350.831636 291.859676 
L 354.373364 293.162579 
L 357.915091 294.328606 
L 361.456818 295.368432 
L 364.998545 296.292448 
L 368.540273 297.110673 
L 372.082 297.832693 
L 375.623727 298.467609 
L 379.165455 299.024004 
L 382.707182 299.509913 
L 386.248909 299.932814 
L 389.790636 300.299624 
L 393.332364 300.616703 
L 396.874091 300.889868 
L 400.415818 301.124407 
L 403.957545 301.325107 
L 407.499273 301.496276 
L 411.041 301.641772 
L 414.582727 301.765034 
L 418.124455 301.869113 
L 421.666182 301.956705 
L 425.207909 302.030178 
L 428.749636 302.091605 
L 432.291364 302.142792 
" style="fill:none;stroke:#ff7f0e;stroke-dasharray:5.55,2.4;stroke-dashoffset:0;stroke-width:1.5;"/>
   </g>
   <g id="patch_103">
    <path d="M 60.41 302.374833 
L 60.41 26.051 
" style="fill:none;stroke:#000000;stroke-linecap:square;stroke-linejoin:miter;stroke-width:0.8;"/>
   </g>
   <g id="patch_104">
    <path d="M 450 302.374833 
L 450 26.051 
" style="fill:none;stroke:#000000;stroke-linecap:square;stroke-linejoin:miter;stroke-width:0.8;"/>
   </g>
   <g id="patch_105">
    <path d="M 60.41 302.374833 
L 450 302.374833 
" style="fill:none;stroke:#000000;stroke-linecap:square;stroke-linejoin:miter;stroke-width:0.8;"/>
   </g>
   <g id="patch_106">
    <path d="M 60.41 26.051 
L 450 26.051 
" style="fill:none;stroke:#000000;stroke-linecap:square;stroke-linejoin:miter;stroke-width:0.8;"/>
   </g>
   <g id="text_16">
    <!-- Histograma con función de ajuste para Ritmo Cardíaco -->
    <defs>
     <path d="M 9.8125 72.90625 
L 19.671875 72.90625 
L 19.671875 43.015625 
L 55.515625 43.015625 
L 55.515625 72.90625 
L 65.375 72.90625 
L 65.375 0 
L 55.515625 0 
L 55.515625 34.71875 
L 19.671875 34.71875 
L 19.671875 0 
L 9.8125 0 
z
" id="DejaVuSans-72"/>
     <path d="M 45.40625 27.984375 
Q 45.40625 37.75 41.375 43.109375 
Q 37.359375 48.484375 30.078125 48.484375 
Q 22.859375 48.484375 18.828125 43.109375 
Q 14.796875 37.75 14.796875 27.984375 
Q 14.796875 18.265625 18.828125 12.890625 
Q 22.859375 7.515625 30.078125 7.515625 
Q 37.359375 7.515625 41.375 12.890625 
Q 45.40625 18.265625 45.40625 27.984375 
z
M 54.390625 6.78125 
Q 54.390625 -7.171875 48.1875 -13.984375 
Q 42 -20.796875 29.203125 -20.796875 
Q 24.46875 -20.796875 20.265625 -20.09375 
Q 16.0625 -19.390625 12.109375 -17.921875 
L 12.109375 -9.1875 
Q 16.0625 -11.328125 19.921875 -12.34375 
Q 23.78125 -13.375 27.78125 -13.375 
Q 36.625 -13.375 41.015625 -8.765625 
Q 45.40625 -4.15625 45.40625 5.171875 
L 45.40625 9.625 
Q 42.625 4.78125 38.28125 2.390625 
Q 33.9375 0 27.875 0 
Q 17.828125 0 11.671875 7.65625 
Q 5.515625 15.328125 5.515625 27.984375 
Q 5.515625 40.671875 11.671875 48.328125 
Q 17.828125 56 27.875 56 
Q 33.9375 56 38.28125 53.609375 
Q 42.625 51.21875 45.40625 46.390625 
L 45.40625 54.6875 
L 54.390625 54.6875 
z
" id="DejaVuSans-103"/>
     <path d="M 52 44.1875 
Q 55.375 50.25 60.0625 53.125 
Q 64.75 56 71.09375 56 
Q 79.640625 56 84.28125 50.015625 
Q 88.921875 44.046875 88.921875 33.015625 
L 88.921875 0 
L 79.890625 0 
L 79.890625 32.71875 
Q 79.890625 40.578125 77.09375 44.375 
Q 74.3125 48.1875 68.609375 48.1875 
Q 61.625 48.1875 57.5625 43.546875 
Q 53.515625 38.921875 53.515625 30.90625 
L 53.515625 0 
L 44.484375 0 
L 44.484375 32.71875 
Q 44.484375 40.625 41.703125 44.40625 
Q 38.921875 48.1875 33.109375 48.1875 
Q 26.21875 48.1875 22.15625 43.53125 
Q 18.109375 38.875 18.109375 30.90625 
L 18.109375 0 
L 9.078125 0 
L 9.078125 54.6875 
L 18.109375 54.6875 
L 18.109375 46.1875 
Q 21.1875 51.21875 25.484375 53.609375 
Q 29.78125 56 35.6875 56 
Q 41.65625 56 45.828125 52.96875 
Q 50 49.953125 52 44.1875 
z
" id="DejaVuSans-109"/>
     <path d="M 48.78125 52.59375 
L 48.78125 44.1875 
Q 44.96875 46.296875 41.140625 47.34375 
Q 37.3125 48.390625 33.40625 48.390625 
Q 24.65625 48.390625 19.8125 42.84375 
Q 14.984375 37.3125 14.984375 27.296875 
Q 14.984375 17.28125 19.8125 11.734375 
Q 24.65625 6.203125 33.40625 6.203125 
Q 37.3125 6.203125 41.140625 7.25 
Q 44.96875 8.296875 48.78125 10.40625 
L 48.78125 2.09375 
Q 45.015625 0.34375 40.984375 -0.53125 
Q 36.96875 -1.421875 32.421875 -1.421875 
Q 20.0625 -1.421875 12.78125 6.34375 
Q 5.515625 14.109375 5.515625 27.296875 
Q 5.515625 40.671875 12.859375 48.328125 
Q 20.21875 56 33.015625 56 
Q 37.15625 56 41.109375 55.140625 
Q 45.0625 54.296875 48.78125 52.59375 
z
" id="DejaVuSans-99"/>
     <path d="M 37.109375 75.984375 
L 37.109375 68.5 
L 28.515625 68.5 
Q 23.6875 68.5 21.796875 66.546875 
Q 19.921875 64.59375 19.921875 59.515625 
L 19.921875 54.6875 
L 34.71875 54.6875 
L 34.71875 47.703125 
L 19.921875 47.703125 
L 19.921875 0 
L 10.890625 0 
L 10.890625 47.703125 
L 2.296875 47.703125 
L 2.296875 54.6875 
L 10.890625 54.6875 
L 10.890625 58.5 
Q 10.890625 67.625 15.140625 71.796875 
Q 19.390625 75.984375 28.609375 75.984375 
z
" id="DejaVuSans-102"/>
     <path d="M 30.609375 48.390625 
Q 23.390625 48.390625 19.1875 42.75 
Q 14.984375 37.109375 14.984375 27.296875 
Q 14.984375 17.484375 19.15625 11.84375 
Q 23.34375 6.203125 30.609375 6.203125 
Q 37.796875 6.203125 41.984375 11.859375 
Q 46.1875 17.53125 46.1875 27.296875 
Q 46.1875 37.015625 41.984375 42.703125 
Q 37.796875 48.390625 30.609375 48.390625 
z
M 30.609375 56 
Q 42.328125 56 49.015625 48.375 
Q 55.71875 40.765625 55.71875 27.296875 
Q 55.71875 13.875 49.015625 6.21875 
Q 42.328125 -1.421875 30.609375 -1.421875 
Q 18.84375 -1.421875 12.171875 6.21875 
Q 5.515625 13.875 5.515625 27.296875 
Q 5.515625 40.765625 12.171875 48.375 
Q 18.84375 56 30.609375 56 
z
M 37.40625 79.984375 
L 47.125 79.984375 
L 31.203125 61.625 
L 23.734375 61.625 
z
" id="DejaVuSans-243"/>
     <path d="M 9.421875 54.6875 
L 18.40625 54.6875 
L 18.40625 -0.984375 
Q 18.40625 -11.421875 14.421875 -16.109375 
Q 10.453125 -20.796875 1.609375 -20.796875 
L -1.8125 -20.796875 
L -1.8125 -13.1875 
L 0.59375 -13.1875 
Q 5.71875 -13.1875 7.5625 -10.8125 
Q 9.421875 -8.453125 9.421875 -0.984375 
z
M 9.421875 75.984375 
L 18.40625 75.984375 
L 18.40625 64.59375 
L 9.421875 64.59375 
z
" id="DejaVuSans-106"/>
     <path d="M 44.390625 34.1875 
Q 47.5625 33.109375 50.5625 29.59375 
Q 53.5625 26.078125 56.59375 19.921875 
L 66.609375 0 
L 56 0 
L 46.6875 18.703125 
Q 43.0625 26.03125 39.671875 28.421875 
Q 36.28125 30.8125 30.421875 30.8125 
L 19.671875 30.8125 
L 19.671875 0 
L 9.8125 0 
L 9.8125 72.90625 
L 32.078125 72.90625 
Q 44.578125 72.90625 50.734375 67.671875 
Q 56.890625 62.453125 56.890625 51.90625 
Q 56.890625 45.015625 53.6875 40.46875 
Q 50.484375 35.9375 44.390625 34.1875 
z
M 19.671875 64.796875 
L 19.671875 38.921875 
L 32.078125 38.921875 
Q 39.203125 38.921875 42.84375 42.21875 
Q 46.484375 45.515625 46.484375 51.90625 
Q 46.484375 58.296875 42.84375 61.546875 
Q 39.203125 64.796875 32.078125 64.796875 
z
" id="DejaVuSans-82"/>
     <path d="M 64.40625 67.28125 
L 64.40625 56.890625 
Q 59.421875 61.53125 53.78125 63.8125 
Q 48.140625 66.109375 41.796875 66.109375 
Q 29.296875 66.109375 22.65625 58.46875 
Q 16.015625 50.828125 16.015625 36.375 
Q 16.015625 21.96875 22.65625 14.328125 
Q 29.296875 6.6875 41.796875 6.6875 
Q 48.140625 6.6875 53.78125 8.984375 
Q 59.421875 11.28125 64.40625 15.921875 
L 64.40625 5.609375 
Q 59.234375 2.09375 53.4375 0.328125 
Q 47.65625 -1.421875 41.21875 -1.421875 
Q 24.65625 -1.421875 15.125 8.703125 
Q 5.609375 18.84375 5.609375 36.375 
Q 5.609375 53.953125 15.125 64.078125 
Q 24.65625 74.21875 41.21875 74.21875 
Q 47.75 74.21875 53.53125 72.484375 
Q 59.328125 70.75 64.40625 67.28125 
z
" id="DejaVuSans-67"/>
     <path d="M 20.703125 79.984375 
L 30.421875 79.984375 
L 14.5 61.625 
L 7.03125 61.625 
z
M 9.421875 54.6875 
L 18.40625 54.6875 
L 18.40625 0 
L 9.421875 0 
z
M 13.921875 56 
z
" id="DejaVuSans-237"/>
    </defs>
    <g transform="translate(90.52 20.051)scale(0.12 -0.12)">
     <use xlink:href="#DejaVuSans-72"/>
     <use x="75.195312" xlink:href="#DejaVuSans-105"/>
     <use x="102.978516" xlink:href="#DejaVuSans-115"/>
     <use x="155.078125" xlink:href="#DejaVuSans-116"/>
     <use x="194.287109" xlink:href="#DejaVuSans-111"/>
     <use x="255.46875" xlink:href="#DejaVuSans-103"/>
     <use x="318.945312" xlink:href="#DejaVuSans-114"/>
     <use x="360.058594" xlink:href="#DejaVuSans-97"/>
     <use x="421.337891" xlink:href="#DejaVuSans-109"/>
     <use x="518.75" xlink:href="#DejaVuSans-97"/>
     <use x="580.029297" xlink:href="#DejaVuSans-32"/>
     <use x="611.816406" xlink:href="#DejaVuSans-99"/>
     <use x="666.796875" xlink:href="#DejaVuSans-111"/>
     <use x="727.978516" xlink:href="#DejaVuSans-110"/>
     <use x="791.357422" xlink:href="#DejaVuSans-32"/>
     <use x="823.144531" xlink:href="#DejaVuSans-102"/>
     <use x="858.349609" xlink:href="#DejaVuSans-117"/>
     <use x="921.728516" xlink:href="#DejaVuSans-110"/>
     <use x="985.107422" xlink:href="#DejaVuSans-99"/>
     <use x="1040.087891" xlink:href="#DejaVuSans-105"/>
     <use x="1067.871094" xlink:href="#DejaVuSans-243"/>
     <use x="1129.052734" xlink:href="#DejaVuSans-110"/>
     <use x="1192.431641" xlink:href="#DejaVuSans-32"/>
     <use x="1224.21875" xlink:href="#DejaVuSans-100"/>
     <use x="1287.695312" xlink:href="#DejaVuSans-101"/>
     <use x="1349.21875" xlink:href="#DejaVuSans-32"/>
     <use x="1381.005859" xlink:href="#DejaVuSans-97"/>
     <use x="1442.285156" xlink:href="#DejaVuSans-106"/>
     <use x="1470.068359" xlink:href="#DejaVuSans-117"/>
     <use x="1533.447266" xlink:href="#DejaVuSans-115"/>
     <use x="1585.546875" xlink:href="#DejaVuSans-116"/>
     <use x="1624.755859" xlink:href="#DejaVuSans-101"/>
     <use x="1686.279297" xlink:href="#DejaVuSans-32"/>
     <use x="1718.066406" xlink:href="#DejaVuSans-112"/>
     <use x="1781.542969" xlink:href="#DejaVuSans-97"/>
     <use x="1842.822266" xlink:href="#DejaVuSans-114"/>
     <use x="1883.935547" xlink:href="#DejaVuSans-97"/>
     <use x="1945.214844" xlink:href="#DejaVuSans-32"/>
     <use x="1977.001953" xlink:href="#DejaVuSans-82"/>
     <use x="2046.484375" xlink:href="#DejaVuSans-105"/>
     <use x="2074.267578" xlink:href="#DejaVuSans-116"/>
     <use x="2113.476562" xlink:href="#DejaVuSans-109"/>
     <use x="2210.888672" xlink:href="#DejaVuSans-111"/>
     <use x="2272.070312" xlink:href="#DejaVuSans-32"/>
     <use x="2303.857422" xlink:href="#DejaVuSans-67"/>
     <use x="2373.681641" xlink:href="#DejaVuSans-97"/>
     <use x="2434.960938" xlink:href="#DejaVuSans-114"/>
     <use x="2476.058594" xlink:href="#DejaVuSans-100"/>
     <use x="2539.535156" xlink:href="#DejaVuSans-237"/>
     <use x="2567.318359" xlink:href="#DejaVuSans-97"/>
     <use x="2628.597656" xlink:href="#DejaVuSans-99"/>
     <use x="2683.578125" xlink:href="#DejaVuSans-111"/>
    </g>
   </g>
  </g>
 </g>
 <defs>
  <clipPath id="pb8ae3bb5fa">
   <rect height="276.323833" width="389.59" x="60.41" y="26.051"/>
  </clipPath>
 </defs>
</svg>
