<?xml version="1.0" encoding="utf-8" standalone="no"?>
<!DOCTYPE svg PUBLIC "-//W3C//DTD SVG 1.1//EN"
  "http://www.w3.org/Graphics/SVG/1.1/DTD/svg11.dtd">
<!-- Created with matplotlib (https://matplotlib.org/) -->
<svg height="344.16pt" version="1.1" viewBox="0 0 460.8 344.16" width="460.8pt" xmlns="http://www.w3.org/2000/svg" xmlns:xlink="http://www.w3.org/1999/xlink">
 <defs>
  <style type="text/css">
*{stroke-linecap:butt;stroke-linejoin:round;}
  </style>
 </defs>
 <g id="figure_1">
  <g id="patch_1">
   <path d="M 0 344.16 
L 460.8 344.16 
L 460.8 0 
L 0 0 
z
" style="fill:#ffffff;"/>
  </g>
  <g id="axes_1">
   <g id="patch_2">
    <path d="M 57.6 306.3024 
L 414.72 306.3024 
L 414.72 41.2992 
L 57.6 41.2992 
z
" style="fill:#ffffff;"/>
   </g>
   <g id="matplotlib.axis_1">
    <g id="xtick_1">
     <g id="line2d_1">
      <defs>
       <path d="M 0 0 
L 0 3.5 
" id="mf9102b500b" style="stroke:#000000;stroke-width:0.8;"/>
      </defs>
      <g>
       <use style="stroke:#000000;stroke-width:0.8;" x="73.832727" xlink:href="#mf9102b500b" y="306.3024"/>
      </g>
     </g>
     <g id="text_1">
      <!-- 0 -->
      <defs>
       <path d="M 31.78125 66.40625 
Q 24.171875 66.40625 20.328125 58.90625 
Q 16.5 51.421875 16.5 36.375 
Q 16.5 21.390625 20.328125 13.890625 
Q 24.171875 6.390625 31.78125 6.390625 
Q 39.453125 6.390625 43.28125 13.890625 
Q 47.125 21.390625 47.125 36.375 
Q 47.125 51.421875 43.28125 58.90625 
Q 39.453125 66.40625 31.78125 66.40625 
z
M 31.78125 74.21875 
Q 44.046875 74.21875 50.515625 64.515625 
Q 56.984375 54.828125 56.984375 36.375 
Q 56.984375 17.96875 50.515625 8.265625 
Q 44.046875 -1.421875 31.78125 -1.421875 
Q 19.53125 -1.421875 13.0625 8.265625 
Q 6.59375 17.96875 6.59375 36.375 
Q 6.59375 54.828125 13.0625 64.515625 
Q 19.53125 74.21875 31.78125 74.21875 
z
" id="DejaVuSans-48"/>
      </defs>
      <g transform="translate(70.651477 320.900838)scale(0.1 -0.1)">
       <use xlink:href="#DejaVuSans-48"/>
      </g>
     </g>
    </g>
    <g id="xtick_2">
     <g id="line2d_2">
      <g>
       <use style="stroke:#000000;stroke-width:0.8;" x="139.48582" xlink:href="#mf9102b500b" y="306.3024"/>
      </g>
     </g>
     <g id="text_2">
      <!-- 1000 -->
      <defs>
       <path d="M 12.40625 8.296875 
L 28.515625 8.296875 
L 28.515625 63.921875 
L 10.984375 60.40625 
L 10.984375 69.390625 
L 28.421875 72.90625 
L 38.28125 72.90625 
L 38.28125 8.296875 
L 54.390625 8.296875 
L 54.390625 0 
L 12.40625 0 
z
" id="DejaVuSans-49"/>
      </defs>
      <g transform="translate(126.76082 320.900838)scale(0.1 -0.1)">
       <use xlink:href="#DejaVuSans-49"/>
       <use x="63.623047" xlink:href="#DejaVuSans-48"/>
       <use x="127.246094" xlink:href="#DejaVuSans-48"/>
       <use x="190.869141" xlink:href="#DejaVuSans-48"/>
      </g>
     </g>
    </g>
    <g id="xtick_3">
     <g id="line2d_3">
      <g>
       <use style="stroke:#000000;stroke-width:0.8;" x="205.138914" xlink:href="#mf9102b500b" y="306.3024"/>
      </g>
     </g>
     <g id="text_3">
      <!-- 2000 -->
      <defs>
       <path d="M 19.1875 8.296875 
L 53.609375 8.296875 
L 53.609375 0 
L 7.328125 0 
L 7.328125 8.296875 
Q 12.9375 14.109375 22.625 23.890625 
Q 32.328125 33.6875 34.8125 36.53125 
Q 39.546875 41.84375 41.421875 45.53125 
Q 43.3125 49.21875 43.3125 52.78125 
Q 43.3125 58.59375 39.234375 62.25 
Q 35.15625 65.921875 28.609375 65.921875 
Q 23.96875 65.921875 18.8125 64.3125 
Q 13.671875 62.703125 7.8125 59.421875 
L 7.8125 69.390625 
Q 13.765625 71.78125 18.9375 73 
Q 24.125 74.21875 28.421875 74.21875 
Q 39.75 74.21875 46.484375 68.546875 
Q 53.21875 62.890625 53.21875 53.421875 
Q 53.21875 48.921875 51.53125 44.890625 
Q 49.859375 40.875 45.40625 35.40625 
Q 44.1875 33.984375 37.640625 27.21875 
Q 31.109375 20.453125 19.1875 8.296875 
z
" id="DejaVuSans-50"/>
      </defs>
      <g transform="translate(192.413914 320.900838)scale(0.1 -0.1)">
       <use xlink:href="#DejaVuSans-50"/>
       <use x="63.623047" xlink:href="#DejaVuSans-48"/>
       <use x="127.246094" xlink:href="#DejaVuSans-48"/>
       <use x="190.869141" xlink:href="#DejaVuSans-48"/>
      </g>
     </g>
    </g>
    <g id="xtick_4">
     <g id="line2d_4">
      <g>
       <use style="stroke:#000000;stroke-width:0.8;" x="270.792007" xlink:href="#mf9102b500b" y="306.3024"/>
      </g>
     </g>
     <g id="text_4">
      <!-- 3000 -->
      <defs>
       <path d="M 40.578125 39.3125 
Q 47.65625 37.796875 51.625 33 
Q 55.609375 28.21875 55.609375 21.1875 
Q 55.609375 10.40625 48.1875 4.484375 
Q 40.765625 -1.421875 27.09375 -1.421875 
Q 22.515625 -1.421875 17.65625 -0.515625 
Q 12.796875 0.390625 7.625 2.203125 
L 7.625 11.71875 
Q 11.71875 9.328125 16.59375 8.109375 
Q 21.484375 6.890625 26.8125 6.890625 
Q 36.078125 6.890625 40.9375 10.546875 
Q 45.796875 14.203125 45.796875 21.1875 
Q 45.796875 27.640625 41.28125 31.265625 
Q 36.765625 34.90625 28.71875 34.90625 
L 20.21875 34.90625 
L 20.21875 43.015625 
L 29.109375 43.015625 
Q 36.375 43.015625 40.234375 45.921875 
Q 44.09375 48.828125 44.09375 54.296875 
Q 44.09375 59.90625 40.109375 62.90625 
Q 36.140625 65.921875 28.71875 65.921875 
Q 24.65625 65.921875 20.015625 65.03125 
Q 15.375 64.15625 9.8125 62.3125 
L 9.8125 71.09375 
Q 15.4375 72.65625 20.34375 73.4375 
Q 25.25 74.21875 29.59375 74.21875 
Q 40.828125 74.21875 47.359375 69.109375 
Q 53.90625 64.015625 53.90625 55.328125 
Q 53.90625 49.265625 50.4375 45.09375 
Q 46.96875 40.921875 40.578125 39.3125 
z
" id="DejaVuSans-51"/>
      </defs>
      <g transform="translate(258.067007 320.900838)scale(0.1 -0.1)">
       <use xlink:href="#DejaVuSans-51"/>
       <use x="63.623047" xlink:href="#DejaVuSans-48"/>
       <use x="127.246094" xlink:href="#DejaVuSans-48"/>
       <use x="190.869141" xlink:href="#DejaVuSans-48"/>
      </g>
     </g>
    </g>
    <g id="xtick_5">
     <g id="line2d_5">
      <g>
       <use style="stroke:#000000;stroke-width:0.8;" x="336.4451" xlink:href="#mf9102b500b" y="306.3024"/>
      </g>
     </g>
     <g id="text_5">
      <!-- 4000 -->
      <defs>
       <path d="M 37.796875 64.3125 
L 12.890625 25.390625 
L 37.796875 25.390625 
z
M 35.203125 72.90625 
L 47.609375 72.90625 
L 47.609375 25.390625 
L 58.015625 25.390625 
L 58.015625 17.1875 
L 47.609375 17.1875 
L 47.609375 0 
L 37.796875 0 
L 37.796875 17.1875 
L 4.890625 17.1875 
L 4.890625 26.703125 
z
" id="DejaVuSans-52"/>
      </defs>
      <g transform="translate(323.7201 320.900838)scale(0.1 -0.1)">
       <use xlink:href="#DejaVuSans-52"/>
       <use x="63.623047" xlink:href="#DejaVuSans-48"/>
       <use x="127.246094" xlink:href="#DejaVuSans-48"/>
       <use x="190.869141" xlink:href="#DejaVuSans-48"/>
      </g>
     </g>
    </g>
    <g id="xtick_6">
     <g id="line2d_6">
      <g>
       <use style="stroke:#000000;stroke-width:0.8;" x="402.098193" xlink:href="#mf9102b500b" y="306.3024"/>
      </g>
     </g>
     <g id="text_6">
      <!-- 5000 -->
      <defs>
       <path d="M 10.796875 72.90625 
L 49.515625 72.90625 
L 49.515625 64.59375 
L 19.828125 64.59375 
L 19.828125 46.734375 
Q 21.96875 47.46875 24.109375 47.828125 
Q 26.265625 48.1875 28.421875 48.1875 
Q 40.625 48.1875 47.75 41.5 
Q 54.890625 34.8125 54.890625 23.390625 
Q 54.890625 11.625 47.5625 5.09375 
Q 40.234375 -1.421875 26.90625 -1.421875 
Q 22.3125 -1.421875 17.546875 -0.640625 
Q 12.796875 0.140625 7.71875 1.703125 
L 7.71875 11.625 
Q 12.109375 9.234375 16.796875 8.0625 
Q 21.484375 6.890625 26.703125 6.890625 
Q 35.15625 6.890625 40.078125 11.328125 
Q 45.015625 15.765625 45.015625 23.390625 
Q 45.015625 31 40.078125 35.4375 
Q 35.15625 39.890625 26.703125 39.890625 
Q 22.75 39.890625 18.8125 39.015625 
Q 14.890625 38.140625 10.796875 36.28125 
z
" id="DejaVuSans-53"/>
      </defs>
      <g transform="translate(389.373193 320.900838)scale(0.1 -0.1)">
       <use xlink:href="#DejaVuSans-53"/>
       <use x="63.623047" xlink:href="#DejaVuSans-48"/>
       <use x="127.246094" xlink:href="#DejaVuSans-48"/>
       <use x="190.869141" xlink:href="#DejaVuSans-48"/>
      </g>
     </g>
    </g>
    <g id="text_7">
     <!-- Muestras -->
     <defs>
      <path d="M 9.8125 72.90625 
L 24.515625 72.90625 
L 43.109375 23.296875 
L 61.8125 72.90625 
L 76.515625 72.90625 
L 76.515625 0 
L 66.890625 0 
L 66.890625 64.015625 
L 48.09375 14.015625 
L 38.1875 14.015625 
L 19.390625 64.015625 
L 19.390625 0 
L 9.8125 0 
z
" id="DejaVuSans-77"/>
      <path d="M 8.5 21.578125 
L 8.5 54.6875 
L 17.484375 54.6875 
L 17.484375 21.921875 
Q 17.484375 14.15625 20.5 10.265625 
Q 23.53125 6.390625 29.59375 6.390625 
Q 36.859375 6.390625 41.078125 11.03125 
Q 45.3125 15.671875 45.3125 23.6875 
L 45.3125 54.6875 
L 54.296875 54.6875 
L 54.296875 0 
L 45.3125 0 
L 45.3125 8.40625 
Q 42.046875 3.421875 37.71875 1 
Q 33.40625 -1.421875 27.6875 -1.421875 
Q 18.265625 -1.421875 13.375 4.4375 
Q 8.5 10.296875 8.5 21.578125 
z
M 31.109375 56 
z
" id="DejaVuSans-117"/>
      <path d="M 56.203125 29.59375 
L 56.203125 25.203125 
L 14.890625 25.203125 
Q 15.484375 15.921875 20.484375 11.0625 
Q 25.484375 6.203125 34.421875 6.203125 
Q 39.59375 6.203125 44.453125 7.46875 
Q 49.3125 8.734375 54.109375 11.28125 
L 54.109375 2.78125 
Q 49.265625 0.734375 44.1875 -0.34375 
Q 39.109375 -1.421875 33.890625 -1.421875 
Q 20.796875 -1.421875 13.15625 6.1875 
Q 5.515625 13.8125 5.515625 26.8125 
Q 5.515625 40.234375 12.765625 48.109375 
Q 20.015625 56 32.328125 56 
Q 43.359375 56 49.78125 48.890625 
Q 56.203125 41.796875 56.203125 29.59375 
z
M 47.21875 32.234375 
Q 47.125 39.59375 43.09375 43.984375 
Q 39.0625 48.390625 32.421875 48.390625 
Q 24.90625 48.390625 20.390625 44.140625 
Q 15.875 39.890625 15.1875 32.171875 
z
" id="DejaVuSans-101"/>
      <path d="M 44.28125 53.078125 
L 44.28125 44.578125 
Q 40.484375 46.53125 36.375 47.5 
Q 32.28125 48.484375 27.875 48.484375 
Q 21.1875 48.484375 17.84375 46.4375 
Q 14.5 44.390625 14.5 40.28125 
Q 14.5 37.15625 16.890625 35.375 
Q 19.28125 33.59375 26.515625 31.984375 
L 29.59375 31.296875 
Q 39.15625 29.25 43.1875 25.515625 
Q 47.21875 21.78125 47.21875 15.09375 
Q 47.21875 7.46875 41.1875 3.015625 
Q 35.15625 -1.421875 24.609375 -1.421875 
Q 20.21875 -1.421875 15.453125 -0.5625 
Q 10.6875 0.296875 5.421875 2 
L 5.421875 11.28125 
Q 10.40625 8.6875 15.234375 7.390625 
Q 20.0625 6.109375 24.8125 6.109375 
Q 31.15625 6.109375 34.5625 8.28125 
Q 37.984375 10.453125 37.984375 14.40625 
Q 37.984375 18.0625 35.515625 20.015625 
Q 33.0625 21.96875 24.703125 23.78125 
L 21.578125 24.515625 
Q 13.234375 26.265625 9.515625 29.90625 
Q 5.8125 33.546875 5.8125 39.890625 
Q 5.8125 47.609375 11.28125 51.796875 
Q 16.75 56 26.8125 56 
Q 31.78125 56 36.171875 55.265625 
Q 40.578125 54.546875 44.28125 53.078125 
z
" id="DejaVuSans-115"/>
      <path d="M 18.3125 70.21875 
L 18.3125 54.6875 
L 36.8125 54.6875 
L 36.8125 47.703125 
L 18.3125 47.703125 
L 18.3125 18.015625 
Q 18.3125 11.328125 20.140625 9.421875 
Q 21.96875 7.515625 27.59375 7.515625 
L 36.8125 7.515625 
L 36.8125 0 
L 27.59375 0 
Q 17.1875 0 13.234375 3.875 
Q 9.28125 7.765625 9.28125 18.015625 
L 9.28125 47.703125 
L 2.6875 47.703125 
L 2.6875 54.6875 
L 9.28125 54.6875 
L 9.28125 70.21875 
z
" id="DejaVuSans-116"/>
      <path d="M 41.109375 46.296875 
Q 39.59375 47.171875 37.8125 47.578125 
Q 36.03125 48 33.890625 48 
Q 26.265625 48 22.1875 43.046875 
Q 18.109375 38.09375 18.109375 28.8125 
L 18.109375 0 
L 9.078125 0 
L 9.078125 54.6875 
L 18.109375 54.6875 
L 18.109375 46.1875 
Q 20.953125 51.171875 25.484375 53.578125 
Q 30.03125 56 36.53125 56 
Q 37.453125 56 38.578125 55.875 
Q 39.703125 55.765625 41.0625 55.515625 
z
" id="DejaVuSans-114"/>
      <path d="M 34.28125 27.484375 
Q 23.390625 27.484375 19.1875 25 
Q 14.984375 22.515625 14.984375 16.5 
Q 14.984375 11.71875 18.140625 8.90625 
Q 21.296875 6.109375 26.703125 6.109375 
Q 34.1875 6.109375 38.703125 11.40625 
Q 43.21875 16.703125 43.21875 25.484375 
L 43.21875 27.484375 
z
M 52.203125 31.203125 
L 52.203125 0 
L 43.21875 0 
L 43.21875 8.296875 
Q 40.140625 3.328125 35.546875 0.953125 
Q 30.953125 -1.421875 24.3125 -1.421875 
Q 15.921875 -1.421875 10.953125 3.296875 
Q 6 8.015625 6 15.921875 
Q 6 25.140625 12.171875 29.828125 
Q 18.359375 34.515625 30.609375 34.515625 
L 43.21875 34.515625 
L 43.21875 35.40625 
Q 43.21875 41.609375 39.140625 45 
Q 35.0625 48.390625 27.6875 48.390625 
Q 23 48.390625 18.546875 47.265625 
Q 14.109375 46.140625 10.015625 43.890625 
L 10.015625 52.203125 
Q 14.9375 54.109375 19.578125 55.046875 
Q 24.21875 56 28.609375 56 
Q 40.484375 56 46.34375 49.84375 
Q 52.203125 43.703125 52.203125 31.203125 
z
" id="DejaVuSans-97"/>
     </defs>
     <g transform="translate(213.311562 334.578963)scale(0.1 -0.1)">
      <use xlink:href="#DejaVuSans-77"/>
      <use x="86.279297" xlink:href="#DejaVuSans-117"/>
      <use x="149.658203" xlink:href="#DejaVuSans-101"/>
      <use x="211.181641" xlink:href="#DejaVuSans-115"/>
      <use x="263.28125" xlink:href="#DejaVuSans-116"/>
      <use x="302.490234" xlink:href="#DejaVuSans-114"/>
      <use x="343.603516" xlink:href="#DejaVuSans-97"/>
      <use x="404.882812" xlink:href="#DejaVuSans-115"/>
     </g>
    </g>
   </g>
   <g id="matplotlib.axis_2">
    <g id="ytick_1">
     <g id="line2d_7">
      <defs>
       <path d="M 0 0 
L -3.5 0 
" id="me0712d5725" style="stroke:#000000;stroke-width:0.8;"/>
      </defs>
      <g>
       <use style="stroke:#000000;stroke-width:0.8;" x="57.6" xlink:href="#me0712d5725" y="299.039303"/>
      </g>
     </g>
     <g id="text_8">
      <!-- 60 -->
      <defs>
       <path d="M 33.015625 40.375 
Q 26.375 40.375 22.484375 35.828125 
Q 18.609375 31.296875 18.609375 23.390625 
Q 18.609375 15.53125 22.484375 10.953125 
Q 26.375 6.390625 33.015625 6.390625 
Q 39.65625 6.390625 43.53125 10.953125 
Q 47.40625 15.53125 47.40625 23.390625 
Q 47.40625 31.296875 43.53125 35.828125 
Q 39.65625 40.375 33.015625 40.375 
z
M 52.59375 71.296875 
L 52.59375 62.3125 
Q 48.875 64.0625 45.09375 64.984375 
Q 41.3125 65.921875 37.59375 65.921875 
Q 27.828125 65.921875 22.671875 59.328125 
Q 17.53125 52.734375 16.796875 39.40625 
Q 19.671875 43.65625 24.015625 45.921875 
Q 28.375 48.1875 33.59375 48.1875 
Q 44.578125 48.1875 50.953125 41.515625 
Q 57.328125 34.859375 57.328125 23.390625 
Q 57.328125 12.15625 50.6875 5.359375 
Q 44.046875 -1.421875 33.015625 -1.421875 
Q 20.359375 -1.421875 13.671875 8.265625 
Q 6.984375 17.96875 6.984375 36.375 
Q 6.984375 53.65625 15.1875 63.9375 
Q 23.390625 74.21875 37.203125 74.21875 
Q 40.921875 74.21875 44.703125 73.484375 
Q 48.484375 72.75 52.59375 71.296875 
z
" id="DejaVuSans-54"/>
      </defs>
      <g transform="translate(37.875 302.838521)scale(0.1 -0.1)">
       <use xlink:href="#DejaVuSans-54"/>
       <use x="63.623047" xlink:href="#DejaVuSans-48"/>
      </g>
     </g>
    </g>
    <g id="ytick_2">
     <g id="line2d_8">
      <g>
       <use style="stroke:#000000;stroke-width:0.8;" x="57.6" xlink:href="#me0712d5725" y="246.484329"/>
      </g>
     </g>
     <g id="text_9">
      <!-- 80 -->
      <defs>
       <path d="M 31.78125 34.625 
Q 24.75 34.625 20.71875 30.859375 
Q 16.703125 27.09375 16.703125 20.515625 
Q 16.703125 13.921875 20.71875 10.15625 
Q 24.75 6.390625 31.78125 6.390625 
Q 38.8125 6.390625 42.859375 10.171875 
Q 46.921875 13.96875 46.921875 20.515625 
Q 46.921875 27.09375 42.890625 30.859375 
Q 38.875 34.625 31.78125 34.625 
z
M 21.921875 38.8125 
Q 15.578125 40.375 12.03125 44.71875 
Q 8.5 49.078125 8.5 55.328125 
Q 8.5 64.0625 14.71875 69.140625 
Q 20.953125 74.21875 31.78125 74.21875 
Q 42.671875 74.21875 48.875 69.140625 
Q 55.078125 64.0625 55.078125 55.328125 
Q 55.078125 49.078125 51.53125 44.71875 
Q 48 40.375 41.703125 38.8125 
Q 48.828125 37.15625 52.796875 32.3125 
Q 56.78125 27.484375 56.78125 20.515625 
Q 56.78125 9.90625 50.3125 4.234375 
Q 43.84375 -1.421875 31.78125 -1.421875 
Q 19.734375 -1.421875 13.25 4.234375 
Q 6.78125 9.90625 6.78125 20.515625 
Q 6.78125 27.484375 10.78125 32.3125 
Q 14.796875 37.15625 21.921875 38.8125 
z
M 18.3125 54.390625 
Q 18.3125 48.734375 21.84375 45.5625 
Q 25.390625 42.390625 31.78125 42.390625 
Q 38.140625 42.390625 41.71875 45.5625 
Q 45.3125 48.734375 45.3125 54.390625 
Q 45.3125 60.0625 41.71875 63.234375 
Q 38.140625 66.40625 31.78125 66.40625 
Q 25.390625 66.40625 21.84375 63.234375 
Q 18.3125 60.0625 18.3125 54.390625 
z
" id="DejaVuSans-56"/>
      </defs>
      <g transform="translate(37.875 250.283548)scale(0.1 -0.1)">
       <use xlink:href="#DejaVuSans-56"/>
       <use x="63.623047" xlink:href="#DejaVuSans-48"/>
      </g>
     </g>
    </g>
    <g id="ytick_3">
     <g id="line2d_9">
      <g>
       <use style="stroke:#000000;stroke-width:0.8;" x="57.6" xlink:href="#me0712d5725" y="193.929355"/>
      </g>
     </g>
     <g id="text_10">
      <!-- 100 -->
      <g transform="translate(31.5125 197.728574)scale(0.1 -0.1)">
       <use xlink:href="#DejaVuSans-49"/>
       <use x="63.623047" xlink:href="#DejaVuSans-48"/>
       <use x="127.246094" xlink:href="#DejaVuSans-48"/>
      </g>
     </g>
    </g>
    <g id="ytick_4">
     <g id="line2d_10">
      <g>
       <use style="stroke:#000000;stroke-width:0.8;" x="57.6" xlink:href="#me0712d5725" y="141.374381"/>
      </g>
     </g>
     <g id="text_11">
      <!-- 120 -->
      <g transform="translate(31.5125 145.1736)scale(0.1 -0.1)">
       <use xlink:href="#DejaVuSans-49"/>
       <use x="63.623047" xlink:href="#DejaVuSans-50"/>
       <use x="127.246094" xlink:href="#DejaVuSans-48"/>
      </g>
     </g>
    </g>
    <g id="ytick_5">
     <g id="line2d_11">
      <g>
       <use style="stroke:#000000;stroke-width:0.8;" x="57.6" xlink:href="#me0712d5725" y="88.819407"/>
      </g>
     </g>
     <g id="text_12">
      <!-- 140 -->
      <g transform="translate(31.5125 92.618626)scale(0.1 -0.1)">
       <use xlink:href="#DejaVuSans-49"/>
       <use x="63.623047" xlink:href="#DejaVuSans-52"/>
       <use x="127.246094" xlink:href="#DejaVuSans-48"/>
      </g>
     </g>
    </g>
    <g id="text_13">
     <!-- Valor de Ritmo Cardíaco -->
     <defs>
      <path d="M 28.609375 0 
L 0.78125 72.90625 
L 11.078125 72.90625 
L 34.1875 11.53125 
L 57.328125 72.90625 
L 67.578125 72.90625 
L 39.796875 0 
z
" id="DejaVuSans-86"/>
      <path d="M 9.421875 75.984375 
L 18.40625 75.984375 
L 18.40625 0 
L 9.421875 0 
z
" id="DejaVuSans-108"/>
      <path d="M 30.609375 48.390625 
Q 23.390625 48.390625 19.1875 42.75 
Q 14.984375 37.109375 14.984375 27.296875 
Q 14.984375 17.484375 19.15625 11.84375 
Q 23.34375 6.203125 30.609375 6.203125 
Q 37.796875 6.203125 41.984375 11.859375 
Q 46.1875 17.53125 46.1875 27.296875 
Q 46.1875 37.015625 41.984375 42.703125 
Q 37.796875 48.390625 30.609375 48.390625 
z
M 30.609375 56 
Q 42.328125 56 49.015625 48.375 
Q 55.71875 40.765625 55.71875 27.296875 
Q 55.71875 13.875 49.015625 6.21875 
Q 42.328125 -1.421875 30.609375 -1.421875 
Q 18.84375 -1.421875 12.171875 6.21875 
Q 5.515625 13.875 5.515625 27.296875 
Q 5.515625 40.765625 12.171875 48.375 
Q 18.84375 56 30.609375 56 
z
" id="DejaVuSans-111"/>
      <path id="DejaVuSans-32"/>
      <path d="M 45.40625 46.390625 
L 45.40625 75.984375 
L 54.390625 75.984375 
L 54.390625 0 
L 45.40625 0 
L 45.40625 8.203125 
Q 42.578125 3.328125 38.25 0.953125 
Q 33.9375 -1.421875 27.875 -1.421875 
Q 17.96875 -1.421875 11.734375 6.484375 
Q 5.515625 14.40625 5.515625 27.296875 
Q 5.515625 40.1875 11.734375 48.09375 
Q 17.96875 56 27.875 56 
Q 33.9375 56 38.25 53.625 
Q 42.578125 51.265625 45.40625 46.390625 
z
M 14.796875 27.296875 
Q 14.796875 17.390625 18.875 11.75 
Q 22.953125 6.109375 30.078125 6.109375 
Q 37.203125 6.109375 41.296875 11.75 
Q 45.40625 17.390625 45.40625 27.296875 
Q 45.40625 37.203125 41.296875 42.84375 
Q 37.203125 48.484375 30.078125 48.484375 
Q 22.953125 48.484375 18.875 42.84375 
Q 14.796875 37.203125 14.796875 27.296875 
z
" id="DejaVuSans-100"/>
      <path d="M 44.390625 34.1875 
Q 47.5625 33.109375 50.5625 29.59375 
Q 53.5625 26.078125 56.59375 19.921875 
L 66.609375 0 
L 56 0 
L 46.6875 18.703125 
Q 43.0625 26.03125 39.671875 28.421875 
Q 36.28125 30.8125 30.421875 30.8125 
L 19.671875 30.8125 
L 19.671875 0 
L 9.8125 0 
L 9.8125 72.90625 
L 32.078125 72.90625 
Q 44.578125 72.90625 50.734375 67.671875 
Q 56.890625 62.453125 56.890625 51.90625 
Q 56.890625 45.015625 53.6875 40.46875 
Q 50.484375 35.9375 44.390625 34.1875 
z
M 19.671875 64.796875 
L 19.671875 38.921875 
L 32.078125 38.921875 
Q 39.203125 38.921875 42.84375 42.21875 
Q 46.484375 45.515625 46.484375 51.90625 
Q 46.484375 58.296875 42.84375 61.546875 
Q 39.203125 64.796875 32.078125 64.796875 
z
" id="DejaVuSans-82"/>
      <path d="M 9.421875 54.6875 
L 18.40625 54.6875 
L 18.40625 0 
L 9.421875 0 
z
M 9.421875 75.984375 
L 18.40625 75.984375 
L 18.40625 64.59375 
L 9.421875 64.59375 
z
" id="DejaVuSans-105"/>
      <path d="M 52 44.1875 
Q 55.375 50.25 60.0625 53.125 
Q 64.75 56 71.09375 56 
Q 79.640625 56 84.28125 50.015625 
Q 88.921875 44.046875 88.921875 33.015625 
L 88.921875 0 
L 79.890625 0 
L 79.890625 32.71875 
Q 79.890625 40.578125 77.09375 44.375 
Q 74.3125 48.1875 68.609375 48.1875 
Q 61.625 48.1875 57.5625 43.546875 
Q 53.515625 38.921875 53.515625 30.90625 
L 53.515625 0 
L 44.484375 0 
L 44.484375 32.71875 
Q 44.484375 40.625 41.703125 44.40625 
Q 38.921875 48.1875 33.109375 48.1875 
Q 26.21875 48.1875 22.15625 43.53125 
Q 18.109375 38.875 18.109375 30.90625 
L 18.109375 0 
L 9.078125 0 
L 9.078125 54.6875 
L 18.109375 54.6875 
L 18.109375 46.1875 
Q 21.1875 51.21875 25.484375 53.609375 
Q 29.78125 56 35.6875 56 
Q 41.65625 56 45.828125 52.96875 
Q 50 49.953125 52 44.1875 
z
" id="DejaVuSans-109"/>
      <path d="M 64.40625 67.28125 
L 64.40625 56.890625 
Q 59.421875 61.53125 53.78125 63.8125 
Q 48.140625 66.109375 41.796875 66.109375 
Q 29.296875 66.109375 22.65625 58.46875 
Q 16.015625 50.828125 16.015625 36.375 
Q 16.015625 21.96875 22.65625 14.328125 
Q 29.296875 6.6875 41.796875 6.6875 
Q 48.140625 6.6875 53.78125 8.984375 
Q 59.421875 11.28125 64.40625 15.921875 
L 64.40625 5.609375 
Q 59.234375 2.09375 53.4375 0.328125 
Q 47.65625 -1.421875 41.21875 -1.421875 
Q 24.65625 -1.421875 15.125 8.703125 
Q 5.609375 18.84375 5.609375 36.375 
Q 5.609375 53.953125 15.125 64.078125 
Q 24.65625 74.21875 41.21875 74.21875 
Q 47.75 74.21875 53.53125 72.484375 
Q 59.328125 70.75 64.40625 67.28125 
z
" id="DejaVuSans-67"/>
      <path d="M 20.703125 79.984375 
L 30.421875 79.984375 
L 14.5 61.625 
L 7.03125 61.625 
z
M 9.421875 54.6875 
L 18.40625 54.6875 
L 18.40625 0 
L 9.421875 0 
z
M 13.921875 56 
z
" id="DejaVuSans-237"/>
      <path d="M 48.78125 52.59375 
L 48.78125 44.1875 
Q 44.96875 46.296875 41.140625 47.34375 
Q 37.3125 48.390625 33.40625 48.390625 
Q 24.65625 48.390625 19.8125 42.84375 
Q 14.984375 37.3125 14.984375 27.296875 
Q 14.984375 17.28125 19.8125 11.734375 
Q 24.65625 6.203125 33.40625 6.203125 
Q 37.3125 6.203125 41.140625 7.25 
Q 44.96875 8.296875 48.78125 10.40625 
L 48.78125 2.09375 
Q 45.015625 0.34375 40.984375 -0.53125 
Q 36.96875 -1.421875 32.421875 -1.421875 
Q 20.0625 -1.421875 12.78125 6.34375 
Q 5.515625 14.109375 5.515625 27.296875 
Q 5.515625 40.671875 12.859375 48.328125 
Q 20.21875 56 33.015625 56 
Q 37.15625 56 41.109375 55.140625 
Q 45.0625 54.296875 48.78125 52.59375 
z
" id="DejaVuSans-99"/>
     </defs>
     <g transform="translate(25.432812 234.6008)rotate(-90)scale(0.1 -0.1)">
      <use xlink:href="#DejaVuSans-86"/>
      <use x="68.298828" xlink:href="#DejaVuSans-97"/>
      <use x="129.578125" xlink:href="#DejaVuSans-108"/>
      <use x="157.361328" xlink:href="#DejaVuSans-111"/>
      <use x="218.542969" xlink:href="#DejaVuSans-114"/>
      <use x="259.65625" xlink:href="#DejaVuSans-32"/>
      <use x="291.443359" xlink:href="#DejaVuSans-100"/>
      <use x="354.919922" xlink:href="#DejaVuSans-101"/>
      <use x="416.443359" xlink:href="#DejaVuSans-32"/>
      <use x="448.230469" xlink:href="#DejaVuSans-82"/>
      <use x="517.712891" xlink:href="#DejaVuSans-105"/>
      <use x="545.496094" xlink:href="#DejaVuSans-116"/>
      <use x="584.705078" xlink:href="#DejaVuSans-109"/>
      <use x="682.117188" xlink:href="#DejaVuSans-111"/>
      <use x="743.298828" xlink:href="#DejaVuSans-32"/>
      <use x="775.085938" xlink:href="#DejaVuSans-67"/>
      <use x="844.910156" xlink:href="#DejaVuSans-97"/>
      <use x="906.189453" xlink:href="#DejaVuSans-114"/>
      <use x="947.287109" xlink:href="#DejaVuSans-100"/>
      <use x="1010.763672" xlink:href="#DejaVuSans-237"/>
      <use x="1038.546875" xlink:href="#DejaVuSans-97"/>
      <use x="1099.826172" xlink:href="#DejaVuSans-99"/>
      <use x="1154.806641" xlink:href="#DejaVuSans-111"/>
     </g>
    </g>
   </g>
   <g id="line2d_12">
    <path clip-path="url(#pe2529c1fa0)" d="M 73.832727 243.85658 
L 73.89838 215.608282 
L 73.964033 223.88569 
L 74.226646 264.300465 
L 74.620564 283.088868 
L 74.751871 285.585229 
L 74.817524 285.453842 
L 75.014483 283.535585 
L 75.211442 287.871371 
L 75.277095 287.477208 
L 75.736667 283.509308 
L 76.327545 278.148701 
L 76.590157 277.202711 
L 76.721463 277.228988 
L 76.787116 277.255266 
L 77.181035 274.312187 
L 77.5093 272.945758 
L 77.70626 272.840648 
L 77.771913 273.497585 
L 77.837566 275.337009 
L 77.903219 275.074235 
L 79.347587 250.951502 
L 79.675853 248.008423 
L 80.726302 241.044889 
L 81.448486 236.157276 
L 81.842405 230.901779 
L 82.367629 227.511983 
L 82.564589 226.592271 
L 82.630242 226.697381 
L 82.761548 226.723659 
L 83.02416 226.697381 
L 83.089813 226.960156 
L 83.155466 226.828769 
L 83.483732 226.303219 
L 83.680691 226.329496 
L 84.07461 226.907601 
L 84.205916 226.907601 
L 84.402875 224.884235 
L 84.665488 222.965978 
L 84.993753 222.887146 
L 85.256365 222.309041 
L 85.387672 223.018533 
L 85.912896 228.142643 
L 86.175509 229.74557 
L 86.766387 235.710559 
L 87.028999 238.128088 
L 87.554224 243.147088 
L 88.013795 245.879947 
L 88.210755 245.380674 
L 88.473367 246.142721 
L 88.604673 246.168999 
L 88.735979 246.142721 
L 88.867286 246.037612 
L 89.064245 246.037612 
L 89.195551 246.300386 
L 89.39251 245.354397 
L 89.786429 243.278475 
L 90.049041 242.017156 
L 90.574266 236.420051 
L 90.836878 234.528072 
L 91.821675 228.221475 
L 91.952981 228.16892 
L 92.937777 235.316397 
L 93.397349 238.154365 
L 93.594308 238.995245 
L 93.791268 239.967512 
L 94.579105 245.512062 
L 94.841717 245.354397 
L 94.90737 245.354397 
L 95.169983 244.776292 
L 95.301289 244.69746 
L 95.498248 244.513517 
L 95.76086 243.33103 
L 95.892167 241.491606 
L 96.351738 231.558716 
L 97.336535 208.19803 
L 97.533494 207.541093 
L 97.6648 207.068098 
L 97.927412 204.703125 
L 98.058719 203.59947 
L 98.452637 208.51336 
L 99.897005 234.212742 
L 100.619189 255.497507 
L 100.947455 261.777826 
L 101.078761 264.66835 
L 101.144414 263.906303 
L 102.063557 253.526695 
L 102.457476 239.731015 
L 103.114007 217.237486 
L 104.820987 179.397905 
L 105.805784 162.212428 
L 106.331008 152.673701 
L 106.856233 145.394837 
L 107.447111 134.095517 
L 108.169295 120.799109 
L 108.891479 109.263292 
L 109.088438 109.18446 
L 109.154091 109.263292 
L 109.416704 113.178638 
L 110.007582 123.847297 
L 110.270194 127.394758 
L 110.598459 126.448769 
L 110.795419 124.635622 
L 111.25499 117.672088 
L 111.648909 112.258926 
L 111.911521 113.651632 
L 111.977174 113.5728 
L 112.239787 112.206371 
L 112.699358 106.740653 
L 112.896318 103.718742 
L 113.881114 76.022271 
L 114.275033 66.141936 
L 114.931564 61.674763 
L 115.391135 60.098114 
L 115.653748 57.155036 
L 115.982013 53.686407 
L 116.113319 53.3448 
L 116.178972 53.397355 
L 116.441585 56.182769 
L 117.754647 78.518632 
L 118.214218 87.295313 
L 118.870749 95.782941 
L 119.002055 95.520166 
L 119.067708 95.388779 
L 119.330321 96.965428 
L 119.855546 112.206371 
L 120.57773 126.133439 
L 121.102954 132.650255 
L 121.234261 131.993318 
L 121.759485 126.185994 
L 122.022098 123.058973 
L 122.678629 135.908664 
L 122.809935 139.140795 
L 123.532119 171.067941 
L 124.057344 187.491371 
L 125.370405 234.186465 
L 126.355202 274.91657 
L 126.880427 285.375009 
L 127.011733 286.504941 
L 127.077386 286.426109 
L 127.339998 286.767716 
L 127.536957 288.449475 
L 127.733917 290.315177 
L 127.79957 290.157512 
L 127.996529 289.842182 
L 128.127835 289.710795 
L 128.587407 288.39692 
L 128.65306 287.556041 
L 128.718713 287.687428 
L 128.915672 288.081591 
L 129.50655 286.426109 
L 129.966122 283.088868 
L 130.294387 280.723894 
L 130.557 279.93557 
L 130.622653 280.066957 
L 130.885265 279.252355 
L 131.279184 280.592507 
L 131.41049 280.434842 
L 131.673102 279.988125 
L 132.132674 282.142879 
L 132.329633 283.062591 
L 132.592246 285.033402 
L 132.920511 288.843638 
L 133.31443 289.264077 
L 133.445736 289.13269 
L 133.708348 289.579407 
L 133.905307 289.921015 
L 134.758798 291.996936 
L 134.824451 291.865549 
L 135.480982 285.716617 
L 135.743594 281.643606 
L 136.465778 264.87857 
L 136.991003 254.446407 
L 138.369718 230.060899 
L 139.091902 217.447706 
L 139.617127 208.30314 
L 140.208004 204.781957 
L 140.798882 203.257863 
L 140.864535 203.38925 
L 141.192801 205.044732 
L 141.258454 204.887067 
L 141.324107 204.965899 
L 141.521066 205.228674 
L 141.783679 204.23013 
L 144.344149 135.934941 
L 145.131986 116.147994 
L 145.460252 117.199093 
L 145.722864 116.226826 
L 146.248089 124.767009 
L 147.101579 138.431303 
L 147.364192 140.270727 
L 147.626804 141.821098 
L 148.086376 147.076596 
L 148.545947 147.996308 
L 148.677253 147.996308 
L 148.874213 147.549591 
L 149.071172 145.499947 
L 149.596397 135.724721 
L 150.384234 126.054606 
L 151.106418 114.256015 
L 151.172071 114.912952 
L 151.500336 124.162627 
L 152.485133 152.857643 
L 154.651685 220.469617 
L 155.242563 240.755837 
L 155.373869 241.044889 
L 155.702134 239.46824 
L 155.833441 239.336852 
L 156.424318 240.834669 
L 156.489972 240.834669 
L 156.686931 241.281386 
L 156.752584 241.228831 
L 156.88389 241.307664 
L 156.949543 241.360219 
L 157.212156 240.361674 
L 157.671727 235.132454 
L 158.78783 217.710481 
L 159.313055 207.199486 
L 159.378708 207.068098 
L 159.903932 208.776135 
L 160.363504 211.403884 
L 161.151341 221.257941 
L 161.807872 238.075533 
L 162.661362 258.38803 
L 163.186587 268.373475 
L 163.383546 267.453763 
L 163.580506 265.929669 
L 163.843118 262.592428 
L 163.908771 262.855203 
L 164.237036 264.300465 
L 164.433996 263.774915 
L 164.499649 263.774915 
L 164.893567 262.644983 
L 165.221833 261.331109 
L 166.600548 244.644905 
L 166.666201 244.329575 
L 166.731854 244.434685 
L 166.797507 244.329575 
L 166.86316 244.38213 
L 167.060119 244.776292 
L 167.125773 244.90768 
L 167.585344 247.719371 
L 167.782304 248.901858 
L 169.357978 228.615638 
L 169.62059 226.907601 
L 169.686243 226.960156 
L 170.145815 226.119276 
L 170.277121 226.171831 
L 170.408427 225.987889 
L 170.67104 224.884235 
L 171.393224 219.733847 
L 171.721489 218.945523 
L 171.787142 218.840413 
L 171.918448 219.339685 
L 172.509326 224.41124 
L 173.165857 229.85068 
L 173.691082 235.841947 
L 174.413266 242.542706 
L 174.478919 242.805481 
L 174.544572 242.726648 
L 174.610225 242.726648 
L 174.741531 242.621538 
L 174.872838 242.490151 
L 175.004144 242.227376 
L 175.13545 241.570439 
L 175.791981 236.971879 
L 176.711124 224.72657 
L 177.302002 212.980533 
L 177.958533 201.155664 
L 178.286798 197.529371 
L 178.418105 197.266596 
L 179.074636 199.579015 
L 179.59986 202.732313 
L 180.059432 203.468083 
L 180.584657 203.835968 
L 180.912922 203.310418 
L 180.978575 203.310418 
L 181.700759 206.069554 
L 181.766412 206.016999 
L 181.832065 206.069554 
L 181.963372 205.964444 
L 182.029025 205.964444 
L 182.094678 205.833057 
L 182.225984 204.387795 
L 182.554249 200.971721 
L 182.816862 200.630114 
L 183.276433 200.892889 
L 183.40774 200.892889 
L 183.473393 201.076831 
L 184.26123 211.745491 
L 185.705598 234.65946 
L 185.771251 234.843402 
L 186.099516 233.555805 
L 186.230823 233.555805 
L 186.296476 233.660915 
L 186.427782 234.186465 
L 186.953007 233.29303 
L 187.084313 233.161643 
L 187.281272 233.003978 
L 187.412578 232.767481 
L 187.740844 230.901779 
L 188.266069 226.592271 
L 189.57913 216.317774 
L 189.710437 216.606826 
L 190.563927 224.752847 
L 190.957845 226.513439 
L 191.417417 228.221475 
L 191.876989 230.901779 
L 191.942642 231.111999 
L 192.139601 230.796669 
L 192.53352 232.609816 
L 193.058744 234.317852 
L 193.190051 234.606905 
L 193.977888 240.703282 
L 194.634419 245.564617 
L 194.962684 247.614261 
L 195.422256 250.084345 
L 195.881827 251.161721 
L 196.472705 256.390941 
L 196.932277 261.541329 
L 197.326195 265.456674 
L 197.523155 265.535507 
L 197.720114 265.798282 
L 197.982726 266.139889 
L 198.048379 266.061057 
L 198.310992 264.931125 
L 198.376645 265.009957 
L 198.70491 266.507774 
L 198.967523 266.402664 
L 199.033176 266.376386 
L 199.886666 267.953036 
L 200.083625 267.847926 
L 200.214932 267.374931 
L 200.805809 264.011413 
L 201.265381 259.360297 
L 201.593646 260.227454 
L 202.250177 262.644983 
L 202.31583 262.592428 
L 202.51279 262.434763 
L 202.775402 264.615795 
L 203.169321 267.506318 
L 203.563239 267.243543 
L 203.628892 267.296098 
L 203.694545 267.190988 
L 203.825852 267.637706 
L 204.088464 269.923847 
L 205.138914 283.220255 
L 205.532832 285.637784 
L 205.926751 287.345821 
L 206.451975 291.996936 
L 206.780241 292.522486 
L 206.845894 292.653873 
L 206.911547 292.522486 
L 207.042853 291.681606 
L 207.108506 291.760439 
L 207.305466 292.338543 
L 207.765037 294.230523 
L 207.961997 294.230523 
L 208.552874 292.469931 
L 208.749834 292.207156 
L 209.143752 291.234889 
L 209.209405 291.024669 
L 209.800283 278.858193 
L 210.194202 270.134067 
L 210.325508 269.293187 
L 210.982039 262.303376 
L 211.244651 261.120889 
L 211.572917 259.412852 
L 211.966835 255.681449 
L 212.557713 250.636172 
L 212.951632 250.609894 
L 213.148591 250.425952 
L 214.067734 267.979313 
L 214.133387 267.900481 
L 214.264693 267.690261 
L 214.396 267.716538 
L 215.118184 269.135523 
L 215.577755 273.418753 
L 215.774715 274.81146 
L 216.168633 277.228988 
L 216.299939 277.675706 
L 216.365592 278.069868 
L 216.693858 276.388109 
L 219.057369 247.587983 
L 219.7139 232.425873 
L 221.223921 206.621381 
L 221.355228 205.544004 
L 223.062208 189.38335 
L 223.784392 186.387716 
L 224.178311 185.257784 
L 224.440923 184.916177 
L 224.506576 184.995009 
L 224.637882 185.336617 
L 224.834841 186.886988 
L 224.966148 186.781879 
L 225.622679 184.600847 
L 225.688332 184.600847 
L 226.08225 186.387716 
L 226.213556 188.095753 
L 226.541822 196.162941 
L 227.001394 206.489994 
L 227.592271 215.082732 
L 228.051843 222.887146 
L 229.627517 249.50624 
L 230.087089 254.288742 
L 230.218395 254.367575 
L 230.415354 253.763193 
L 230.677967 252.212821 
L 230.874926 251.923769 
L 231.006232 251.555884 
L 231.071885 251.818659 
L 231.859722 242.490151 
L 232.319294 234.44924 
L 233.435397 215.398062 
L 234.748458 195.952721 
L 234.814112 195.558559 
L 234.879765 195.821334 
L 235.011071 196.741046 
L 235.733255 216.002444 
L 238.162419 279.988125 
L 238.293726 280.172067 
L 238.753297 278.621695 
L 238.950256 274.995402 
L 240.066359 241.176276 
L 241.051155 207.593648 
L 241.642033 192.536648 
L 242.035952 184.522015 
L 242.101605 184.548292 
L 242.495523 183.470915 
L 242.758136 182.367261 
L 242.823789 182.235873 
L 242.889442 182.288428 
L 243.217708 182.945365 
L 243.414667 182.498648 
L 243.677279 181.894266 
L 243.808585 182.025653 
L 244.727729 189.38335 
L 245.1873 192.746868 
L 245.318606 192.300151 
L 245.515566 190.854889 
L 246.369056 184.548292 
L 246.500362 184.416905 
L 247.419505 180.133674 
L 247.550812 180.054842 
L 248.207343 177.97892 
L 249.060833 170.805166 
L 249.192139 170.883999 
L 249.323445 170.857721 
L 249.389098 170.673779 
L 249.454751 170.726334 
L 249.651711 170.673779 
L 249.783017 170.857721 
L 249.979976 171.383271 
L 250.439548 173.564303 
L 251.227385 181.447549 
L 251.621303 180.449004 
L 252.474794 177.190596 
L 252.6061 177.321983 
L 252.803059 178.031475 
L 253.000018 179.161407 
L 253.262631 179.923454 
L 253.525243 180.869444 
L 253.590896 180.790612 
L 253.919162 180.343894 
L 254.050468 180.186229 
L 254.31308 179.923454 
L 254.378733 179.870899 
L 254.641346 177.821255 
L 255.232224 167.967198 
L 255.494836 166.022664 
L 255.823101 161.424104 
L 255.888754 160.215339 
L 255.954408 160.688334 
L 256.21702 163.316083 
L 256.873551 169.832899 
L 257.267469 170.594947 
L 257.333123 170.883999 
L 257.398776 170.857721 
L 257.464429 170.805166 
L 257.924 172.644591 
L 258.12096 172.95992 
L 258.186613 172.95992 
L 258.514878 172.197873 
L 258.777491 174.615402 
L 259.696634 184.285517 
L 259.82794 187.149763 
L 259.893593 187.044653 
L 260.221859 186.230051 
L 260.550124 184.863622 
L 260.68143 184.600847 
L 260.812736 183.996465 
L 261.797533 187.543926 
L 262.125798 186.834434 
L 262.388411 186.886988 
L 262.979289 188.069475 
L 263.241901 189.199407 
L 263.373207 189.646125 
L 263.43886 189.59357 
L 263.504513 189.724957 
L 263.570166 189.672402 
L 263.635819 189.409627 
L 263.832779 190.329339 
L 264.161044 192.089931 
L 265.145841 195.689947 
L 265.671065 194.008187 
L 265.736718 193.797968 
L 265.802372 193.850523 
L 265.933678 193.850523 
L 266.130637 193.719135 
L 266.327596 193.66658 
L 266.458902 193.14103 
L 266.655862 192.536648 
L 266.787168 192.484093 
L 266.918474 192.221318 
L 266.984127 191.905988 
L 267.04978 191.958543 
L 267.378046 191.695769 
L 267.509352 191.879711 
L 267.575005 192.168763 
L 267.640658 191.958543 
L 267.968924 190.592114 
L 268.297189 190.565837 
L 269.478945 185.310339 
L 269.675904 185.178952 
L 270.332435 185.993554 
L 270.529394 186.703046 
L 270.6607 186.650491 
L 270.792007 186.440271 
L 270.988966 185.205229 
L 271.382884 182.840255 
L 271.71115 182.813978 
L 271.842456 182.761423 
L 272.039415 182.025653 
L 272.367681 180.738057 
L 272.433334 180.527837 
L 272.630293 180.869444 
L 272.761599 180.974554 
L 272.892906 180.790612 
L 273.089865 180.869444 
L 273.221171 180.843166 
L 273.549437 181.132219 
L 273.61509 181.105941 
L 273.877702 180.659224 
L 273.943355 180.659224 
L 274.140314 179.818345 
L 274.205967 179.476737 
L 274.271621 178.373083 
L 274.337274 179.03002 
L 274.862498 185.783334 
L 275.847295 207.514816 
L 276.766438 233.266753 
L 277.554275 257.731093 
L 278.342112 274.81146 
L 278.736031 276.966214 
L 279.261256 281.564774 
L 279.917787 285.953114 
L 280.180399 287.135601 
L 280.443011 287.135601 
L 280.508664 287.293266 
L 280.639971 286.899104 
L 280.83693 284.586685 
L 281.296502 280.119512 
L 281.69042 278.98958 
L 281.821726 278.595418 
L 282.018686 277.885926 
L 282.346951 277.623151 
L 282.675216 277.701983 
L 283.069135 273.944303 
L 283.791319 263.82747 
L 285.038728 237.891591 
L 285.563953 233.161643 
L 286.548749 227.827313 
L 287.008321 223.833135 
L 287.336586 222.782036 
L 287.467892 223.097365 
L 287.533545 222.965978 
L 287.927464 224.148465 
L 288.190076 224.542627 
L 288.583995 223.964523 
L 288.91226 224.332407 
L 289.240526 226.171831 
L 289.765751 230.139732 
L 289.897057 232.373318 
L 290.487935 224.857957 
L 290.881853 222.887146 
L 291.144465 219.733847 
L 292.260568 205.570282 
L 292.785793 201.287051 
L 293.376671 189.38335 
L 293.836242 178.767245 
L 293.967548 179.13513 
L 294.361467 180.475282 
L 294.42712 180.396449 
L 294.689733 179.55557 
L 294.755386 179.608125 
L 294.821039 179.529292 
L 294.952345 180.002287 
L 295.411917 181.894266 
L 295.608876 181.973098 
L 295.805835 181.841711 
L 295.937141 181.920543 
L 296.33106 182.367261 
L 296.593672 181.920543 
L 296.724978 182.288428 
L 297.118897 184.338072 
L 297.18455 184.390627 
L 297.447162 181.657769 
L 297.775428 175.850444 
L 297.972387 173.774523 
L 298.235 170.989109 
L 298.497612 169.491292 
L 298.957184 161.292716 
L 299.416755 152.200706 
L 299.745021 154.828454 
L 300.335899 161.660601 
L 300.729817 167.257706 
L 301.123736 169.543847 
L 301.911573 184.522015 
L 302.305491 188.726413 
L 302.502451 191.354161 
L 303.355941 206.148386 
L 303.421594 205.806779 
L 303.881166 202.522093 
L 304.275084 197.792146 
L 304.734656 192.011098 
L 305.128574 187.964365 
L 306.31033 174.615402 
L 306.507289 174.168685 
L 307.492086 173.748245 
L 307.820351 173.222695 
L 308.148617 173.117585 
L 308.345576 172.775978 
L 308.542535 172.513203 
L 308.805148 172.95992 
L 309.264719 173.90591 
L 309.527332 175.929276 
L 310.315169 183.024198 
L 310.380822 182.813978 
L 311.365618 171.462104 
L 312.153455 189.38335 
L 312.613027 198.26514 
L 313.466517 208.907523 
L 313.72913 212.060821 
L 314.320007 221.573271 
L 315.173498 238.390863 
L 315.304804 239.441962 
L 316.026988 220.601004 
L 316.617866 206.279774 
L 318.062234 187.570203 
L 318.19354 187.228596 
L 318.259193 187.307428 
L 318.324846 187.412538 
L 318.653111 193.324973 
L 319.178336 202.416983 
L 320.885317 228.431695 
L 321.476195 231.427329 
L 321.607501 231.637549 
L 321.80446 230.639004 
L 321.935766 228.747025 
L 322.460991 215.398062 
L 323.051869 198.47536 
L 323.577093 191.380439 
L 324.167971 186.650491 
L 324.233624 186.519104 
L 324.758849 183.10303 
L 324.824502 183.155585 
L 324.955808 183.10303 
L 325.087115 183.20814 
L 325.349727 184.942454 
L 325.874952 194.139575 
L 326.26887 203.993632 
L 326.925401 222.256486 
L 327.384973 232.373318 
L 327.910198 236.157276 
L 328.304116 238.390863 
L 328.566729 239.520795 
L 328.960647 237.549983 
L 329.157606 235.973334 
L 329.551525 231.979156 
L 329.682831 232.084266 
L 329.87979 232.478428 
L 329.945444 232.609816 
L 330.011097 232.557261 
L 330.208056 231.821491 
L 330.733281 226.960156 
L 330.798934 227.117821 
L 331.718077 218.630193 
L 332.177649 213.453528 
L 332.571567 212.376151 
L 332.83418 211.482716 
L 332.899833 211.403884 
L 332.965486 211.482716 
L 333.162445 211.403884 
L 333.228098 211.325051 
L 333.293751 211.403884 
L 333.425057 211.325051 
L 333.884629 203.652025 
L 334.475507 193.929355 
L 334.672466 192.089931 
L 335.066385 186.703046 
L 335.263344 185.205229 
L 335.460303 184.942454 
L 335.722916 185.967276 
L 336.116834 193.482638 
L 337.889468 227.091543 
L 338.414693 237.076988 
L 339.136877 242.017156 
L 339.662101 247.798203 
L 339.793407 247.614261 
L 339.990367 246.878491 
L 340.318632 244.38213 
L 340.515592 243.85658 
L 340.646898 243.593805 
L 340.90951 242.279931 
L 341.172122 241.701826 
L 341.237776 241.754381 
L 341.631694 241.806936 
L 342.353878 237.996701 
L 342.419531 238.022978 
L 342.550837 238.469695 
L 342.879103 240.755837 
L 343.010409 241.281386 
L 343.076062 241.228831 
L 343.141715 241.176276 
L 343.601287 239.46824 
L 344.060859 237.234653 
L 344.126512 237.076988 
L 344.389124 235.658004 
L 344.586083 235.237564 
L 344.717389 235.631727 
L 345.045655 234.13391 
L 345.505227 227.827313 
L 345.899145 222.887146 
L 347.015248 213.164475 
L 347.212207 211.929434 
L 348.065697 210.011177 
L 348.262656 208.565915 
L 348.787881 201.497271 
L 349.050494 200.104564 
L 349.378759 199.263685 
L 349.641371 197.529371 
L 350.297902 192.536648 
L 350.560515 192.536648 
L 350.88878 192.352706 
L 351.085739 192.694313 
L 351.348352 192.273873 
L 351.414005 192.352706 
L 351.610964 195.033009 
L 353.120985 218.23603 
L 354.105782 238.653638 
L 354.434047 240.493062 
L 354.69666 241.044889 
L 354.762313 241.097444 
L 355.090578 239.99379 
L 355.156231 240.177732 
L 355.353191 240.387952 
L 355.484497 239.25802 
L 355.944068 234.738292 
L 356.272334 232.478428 
L 356.534946 230.901779 
L 356.797559 229.062355 
L 357.45409 217.920701 
L 357.782355 212.402428 
L 358.11062 210.168842 
L 358.438886 209.643292 
L 358.570192 209.56446 
L 358.701498 209.380517 
L 358.964111 209.87979 
L 359.029764 209.827235 
L 359.489335 206.489994 
L 361.196316 193.66658 
L 361.524581 192.273873 
L 362.246765 188.8578 
L 362.509378 188.411083 
L 362.77199 188.54247 
L 362.903296 188.33225 
L 363.362868 187.543926 
L 363.494174 187.543926 
L 363.888093 187.044653 
L 364.150705 187.281151 
L 364.47897 187.754146 
L 364.938542 189.199407 
L 365.135501 189.672402 
L 365.726379 192.562926 
L 365.988992 192.694313 
L 366.185951 192.405261 
L 366.317257 192.562926 
L 366.645523 193.719135 
L 367.367707 197.660758 
L 367.499013 197.687036 
L 367.695972 197.345428 
L 368.155544 195.295784 
L 368.221197 195.295784 
L 368.28685 195.427172 
L 368.418156 195.111842 
L 368.615115 194.323517 
L 368.746422 194.323517 
L 368.943381 194.40235 
L 369.009034 194.50746 
L 369.074687 194.454905 
L 369.402952 194.323517 
L 369.928177 195.164397 
L 370.059483 194.980454 
L 370.322096 193.482638 
L 370.584708 191.249051 
L 370.912974 188.805245 
L 370.978627 188.673858 
L 371.04428 188.884077 
L 371.109933 188.805245 
L 371.241239 188.805245 
L 371.503851 189.120575 
L 371.569505 189.015465 
L 371.635158 189.06802 
L 371.89777 189.80379 
L 371.963423 189.59357 
L 372.357342 188.095753 
L 372.422995 188.22714 
L 372.488648 188.148308 
L 372.685607 187.307428 
L 373.670404 179.739512 
L 373.933016 178.8198 
L 374.064322 179.03002 
L 374.261281 179.55557 
L 374.326934 179.529292 
L 374.589547 179.476737 
L 374.720853 179.292795 
L 375.377384 176.060664 
L 375.443037 176.113219 
L 375.705649 177.505926 
L 376.033915 180.527837 
L 377.478283 197.739591 
L 377.806548 198.974632 
L 378.200467 199.184852 
L 379.31657 203.336695 
L 379.447876 203.336695 
L 379.841794 202.338151 
L 379.9731 201.681214 
L 380.301366 198.212585 
L 381.02355 191.905988 
L 381.548775 189.251962 
L 381.811387 189.409627 
L 382.008346 189.06802 
L 382.270959 188.095753 
L 382.336612 188.200863 
L 382.664877 189.541015 
L 382.993143 188.489915 
L 383.255755 189.06802 
L 383.518367 189.80379 
L 383.912286 190.460727 
L 384.306205 192.300151 
L 384.437511 192.089931 
L 384.568817 191.748324 
L 384.63447 191.827156 
L 384.765776 192.089931 
L 385.094042 193.850523 
L 385.356654 194.586292 
L 385.553613 194.849067 
L 385.750573 195.821334 
L 386.472757 200.971721 
L 386.53841 201.024276 
L 387.129288 203.573193 
L 387.326247 203.573193 
L 387.3919 203.520638 
L 387.851472 204.44035 
L 387.917125 204.361517 
L 388.114084 203.862245 
L 388.311043 203.441805 
L 388.376696 203.573193 
L 388.967574 208.592193 
L 389.09888 209.222852 
L 389.492799 211.666659 
L 389.624105 211.981988 
L 389.755411 211.351329 
L 390.018024 208.72358 
L 390.674555 198.711858 
L 390.937167 196.373161 
L 391.331086 194.50746 
L 391.528045 194.113297 
L 391.85631 196.688491 
L 392.447188 206.279774 
L 392.90676 210.694392 
L 393.300678 218.052088 
L 393.957209 234.081355 
L 394.679393 254.551517 
L 395.270271 266.796826 
L 395.46723 268.63625 
L 395.729843 268.42603 
L 395.926802 266.639161 
L 396.911598 258.17781 
L 397.568129 248.13981 
L 398.487273 232.609816 
L 398.487273 232.609816 
" style="fill:none;stroke:#1f77b4;stroke-linecap:square;stroke-width:1.5;"/>
   </g>
   <g id="patch_3">
    <path d="M 57.6 306.3024 
L 57.6 41.2992 
" style="fill:none;stroke:#000000;stroke-linecap:square;stroke-linejoin:miter;stroke-width:0.8;"/>
   </g>
   <g id="patch_4">
    <path d="M 414.72 306.3024 
L 414.72 41.2992 
" style="fill:none;stroke:#000000;stroke-linecap:square;stroke-linejoin:miter;stroke-width:0.8;"/>
   </g>
   <g id="patch_5">
    <path d="M 57.6 306.3024 
L 414.72 306.3024 
" style="fill:none;stroke:#000000;stroke-linecap:square;stroke-linejoin:miter;stroke-width:0.8;"/>
   </g>
   <g id="patch_6">
    <path d="M 57.6 41.2992 
L 414.72 41.2992 
" style="fill:none;stroke:#000000;stroke-linecap:square;stroke-linejoin:miter;stroke-width:0.8;"/>
   </g>
   <g id="text_14">
    <!-- Ritmo Cardíaco -->
    <g transform="translate(190.094063 35.2992)scale(0.12 -0.12)">
     <use xlink:href="#DejaVuSans-82"/>
     <use x="69.482422" xlink:href="#DejaVuSans-105"/>
     <use x="97.265625" xlink:href="#DejaVuSans-116"/>
     <use x="136.474609" xlink:href="#DejaVuSans-109"/>
     <use x="233.886719" xlink:href="#DejaVuSans-111"/>
     <use x="295.068359" xlink:href="#DejaVuSans-32"/>
     <use x="326.855469" xlink:href="#DejaVuSans-67"/>
     <use x="396.679688" xlink:href="#DejaVuSans-97"/>
     <use x="457.958984" xlink:href="#DejaVuSans-114"/>
     <use x="499.056641" xlink:href="#DejaVuSans-100"/>
     <use x="562.533203" xlink:href="#DejaVuSans-237"/>
     <use x="590.316406" xlink:href="#DejaVuSans-97"/>
     <use x="651.595703" xlink:href="#DejaVuSans-99"/>
     <use x="706.576172" xlink:href="#DejaVuSans-111"/>
    </g>
   </g>
  </g>
 </g>
 <defs>
  <clipPath id="pe2529c1fa0">
   <rect height="265.0032" width="357.12" x="57.6" y="41.2992"/>
  </clipPath>
 </defs>
</svg>
