<?xml version="1.0" encoding="utf-8" standalone="no"?>
<!DOCTYPE svg PUBLIC "-//W3C//DTD SVG 1.1//EN"
  "http://www.w3.org/Graphics/SVG/1.1/DTD/svg11.dtd">
<!-- Created with matplotlib (https://matplotlib.org/) -->
<svg height="344.16pt" version="1.1" viewBox="0 0 460.8 344.16" width="460.8pt" xmlns="http://www.w3.org/2000/svg" xmlns:xlink="http://www.w3.org/1999/xlink">
 <defs>
  <style type="text/css">
*{stroke-linecap:butt;stroke-linejoin:round;}
  </style>
 </defs>
 <g id="figure_1">
  <g id="patch_1">
   <path d="M 0 344.16 
L 460.8 344.16 
L 460.8 0 
L 0 0 
z
" style="fill:#ffffff;"/>
  </g>
  <g id="axes_1">
   <g id="patch_2">
    <path d="M 57.6 306.3024 
L 414.72 306.3024 
L 414.72 41.2992 
L 57.6 41.2992 
z
" style="fill:#ffffff;"/>
   </g>
   <g id="matplotlib.axis_1">
    <g id="xtick_1">
     <g id="line2d_1">
      <defs>
       <path d="M 0 0 
L 0 3.5 
" id="m5548893532" style="stroke:#000000;stroke-width:0.8;"/>
      </defs>
      <g>
       <use style="stroke:#000000;stroke-width:0.8;" x="73.832727" xlink:href="#m5548893532" y="306.3024"/>
      </g>
     </g>
     <g id="text_1">
      <!-- 0 -->
      <defs>
       <path d="M 31.78125 66.40625 
Q 24.171875 66.40625 20.328125 58.90625 
Q 16.5 51.421875 16.5 36.375 
Q 16.5 21.390625 20.328125 13.890625 
Q 24.171875 6.390625 31.78125 6.390625 
Q 39.453125 6.390625 43.28125 13.890625 
Q 47.125 21.390625 47.125 36.375 
Q 47.125 51.421875 43.28125 58.90625 
Q 39.453125 66.40625 31.78125 66.40625 
z
M 31.78125 74.21875 
Q 44.046875 74.21875 50.515625 64.515625 
Q 56.984375 54.828125 56.984375 36.375 
Q 56.984375 17.96875 50.515625 8.265625 
Q 44.046875 -1.421875 31.78125 -1.421875 
Q 19.53125 -1.421875 13.0625 8.265625 
Q 6.59375 17.96875 6.59375 36.375 
Q 6.59375 54.828125 13.0625 64.515625 
Q 19.53125 74.21875 31.78125 74.21875 
z
" id="DejaVuSans-48"/>
      </defs>
      <g transform="translate(70.651477 320.900838)scale(0.1 -0.1)">
       <use xlink:href="#DejaVuSans-48"/>
      </g>
     </g>
    </g>
    <g id="xtick_2">
     <g id="line2d_2">
      <g>
       <use style="stroke:#000000;stroke-width:0.8;" x="139.48582" xlink:href="#m5548893532" y="306.3024"/>
      </g>
     </g>
     <g id="text_2">
      <!-- 1000 -->
      <defs>
       <path d="M 12.40625 8.296875 
L 28.515625 8.296875 
L 28.515625 63.921875 
L 10.984375 60.40625 
L 10.984375 69.390625 
L 28.421875 72.90625 
L 38.28125 72.90625 
L 38.28125 8.296875 
L 54.390625 8.296875 
L 54.390625 0 
L 12.40625 0 
z
" id="DejaVuSans-49"/>
      </defs>
      <g transform="translate(126.76082 320.900838)scale(0.1 -0.1)">
       <use xlink:href="#DejaVuSans-49"/>
       <use x="63.623047" xlink:href="#DejaVuSans-48"/>
       <use x="127.246094" xlink:href="#DejaVuSans-48"/>
       <use x="190.869141" xlink:href="#DejaVuSans-48"/>
      </g>
     </g>
    </g>
    <g id="xtick_3">
     <g id="line2d_3">
      <g>
       <use style="stroke:#000000;stroke-width:0.8;" x="205.138914" xlink:href="#m5548893532" y="306.3024"/>
      </g>
     </g>
     <g id="text_3">
      <!-- 2000 -->
      <defs>
       <path d="M 19.1875 8.296875 
L 53.609375 8.296875 
L 53.609375 0 
L 7.328125 0 
L 7.328125 8.296875 
Q 12.9375 14.109375 22.625 23.890625 
Q 32.328125 33.6875 34.8125 36.53125 
Q 39.546875 41.84375 41.421875 45.53125 
Q 43.3125 49.21875 43.3125 52.78125 
Q 43.3125 58.59375 39.234375 62.25 
Q 35.15625 65.921875 28.609375 65.921875 
Q 23.96875 65.921875 18.8125 64.3125 
Q 13.671875 62.703125 7.8125 59.421875 
L 7.8125 69.390625 
Q 13.765625 71.78125 18.9375 73 
Q 24.125 74.21875 28.421875 74.21875 
Q 39.75 74.21875 46.484375 68.546875 
Q 53.21875 62.890625 53.21875 53.421875 
Q 53.21875 48.921875 51.53125 44.890625 
Q 49.859375 40.875 45.40625 35.40625 
Q 44.1875 33.984375 37.640625 27.21875 
Q 31.109375 20.453125 19.1875 8.296875 
z
" id="DejaVuSans-50"/>
      </defs>
      <g transform="translate(192.413914 320.900838)scale(0.1 -0.1)">
       <use xlink:href="#DejaVuSans-50"/>
       <use x="63.623047" xlink:href="#DejaVuSans-48"/>
       <use x="127.246094" xlink:href="#DejaVuSans-48"/>
       <use x="190.869141" xlink:href="#DejaVuSans-48"/>
      </g>
     </g>
    </g>
    <g id="xtick_4">
     <g id="line2d_4">
      <g>
       <use style="stroke:#000000;stroke-width:0.8;" x="270.792007" xlink:href="#m5548893532" y="306.3024"/>
      </g>
     </g>
     <g id="text_4">
      <!-- 3000 -->
      <defs>
       <path d="M 40.578125 39.3125 
Q 47.65625 37.796875 51.625 33 
Q 55.609375 28.21875 55.609375 21.1875 
Q 55.609375 10.40625 48.1875 4.484375 
Q 40.765625 -1.421875 27.09375 -1.421875 
Q 22.515625 -1.421875 17.65625 -0.515625 
Q 12.796875 0.390625 7.625 2.203125 
L 7.625 11.71875 
Q 11.71875 9.328125 16.59375 8.109375 
Q 21.484375 6.890625 26.8125 6.890625 
Q 36.078125 6.890625 40.9375 10.546875 
Q 45.796875 14.203125 45.796875 21.1875 
Q 45.796875 27.640625 41.28125 31.265625 
Q 36.765625 34.90625 28.71875 34.90625 
L 20.21875 34.90625 
L 20.21875 43.015625 
L 29.109375 43.015625 
Q 36.375 43.015625 40.234375 45.921875 
Q 44.09375 48.828125 44.09375 54.296875 
Q 44.09375 59.90625 40.109375 62.90625 
Q 36.140625 65.921875 28.71875 65.921875 
Q 24.65625 65.921875 20.015625 65.03125 
Q 15.375 64.15625 9.8125 62.3125 
L 9.8125 71.09375 
Q 15.4375 72.65625 20.34375 73.4375 
Q 25.25 74.21875 29.59375 74.21875 
Q 40.828125 74.21875 47.359375 69.109375 
Q 53.90625 64.015625 53.90625 55.328125 
Q 53.90625 49.265625 50.4375 45.09375 
Q 46.96875 40.921875 40.578125 39.3125 
z
" id="DejaVuSans-51"/>
      </defs>
      <g transform="translate(258.067007 320.900838)scale(0.1 -0.1)">
       <use xlink:href="#DejaVuSans-51"/>
       <use x="63.623047" xlink:href="#DejaVuSans-48"/>
       <use x="127.246094" xlink:href="#DejaVuSans-48"/>
       <use x="190.869141" xlink:href="#DejaVuSans-48"/>
      </g>
     </g>
    </g>
    <g id="xtick_5">
     <g id="line2d_5">
      <g>
       <use style="stroke:#000000;stroke-width:0.8;" x="336.4451" xlink:href="#m5548893532" y="306.3024"/>
      </g>
     </g>
     <g id="text_5">
      <!-- 4000 -->
      <defs>
       <path d="M 37.796875 64.3125 
L 12.890625 25.390625 
L 37.796875 25.390625 
z
M 35.203125 72.90625 
L 47.609375 72.90625 
L 47.609375 25.390625 
L 58.015625 25.390625 
L 58.015625 17.1875 
L 47.609375 17.1875 
L 47.609375 0 
L 37.796875 0 
L 37.796875 17.1875 
L 4.890625 17.1875 
L 4.890625 26.703125 
z
" id="DejaVuSans-52"/>
      </defs>
      <g transform="translate(323.7201 320.900838)scale(0.1 -0.1)">
       <use xlink:href="#DejaVuSans-52"/>
       <use x="63.623047" xlink:href="#DejaVuSans-48"/>
       <use x="127.246094" xlink:href="#DejaVuSans-48"/>
       <use x="190.869141" xlink:href="#DejaVuSans-48"/>
      </g>
     </g>
    </g>
    <g id="xtick_6">
     <g id="line2d_6">
      <g>
       <use style="stroke:#000000;stroke-width:0.8;" x="402.098193" xlink:href="#m5548893532" y="306.3024"/>
      </g>
     </g>
     <g id="text_6">
      <!-- 5000 -->
      <defs>
       <path d="M 10.796875 72.90625 
L 49.515625 72.90625 
L 49.515625 64.59375 
L 19.828125 64.59375 
L 19.828125 46.734375 
Q 21.96875 47.46875 24.109375 47.828125 
Q 26.265625 48.1875 28.421875 48.1875 
Q 40.625 48.1875 47.75 41.5 
Q 54.890625 34.8125 54.890625 23.390625 
Q 54.890625 11.625 47.5625 5.09375 
Q 40.234375 -1.421875 26.90625 -1.421875 
Q 22.3125 -1.421875 17.546875 -0.640625 
Q 12.796875 0.140625 7.71875 1.703125 
L 7.71875 11.625 
Q 12.109375 9.234375 16.796875 8.0625 
Q 21.484375 6.890625 26.703125 6.890625 
Q 35.15625 6.890625 40.078125 11.328125 
Q 45.015625 15.765625 45.015625 23.390625 
Q 45.015625 31 40.078125 35.4375 
Q 35.15625 39.890625 26.703125 39.890625 
Q 22.75 39.890625 18.8125 39.015625 
Q 14.890625 38.140625 10.796875 36.28125 
z
" id="DejaVuSans-53"/>
      </defs>
      <g transform="translate(389.373193 320.900838)scale(0.1 -0.1)">
       <use xlink:href="#DejaVuSans-53"/>
       <use x="63.623047" xlink:href="#DejaVuSans-48"/>
       <use x="127.246094" xlink:href="#DejaVuSans-48"/>
       <use x="190.869141" xlink:href="#DejaVuSans-48"/>
      </g>
     </g>
    </g>
    <g id="text_7">
     <!-- Muestras -->
     <defs>
      <path d="M 9.8125 72.90625 
L 24.515625 72.90625 
L 43.109375 23.296875 
L 61.8125 72.90625 
L 76.515625 72.90625 
L 76.515625 0 
L 66.890625 0 
L 66.890625 64.015625 
L 48.09375 14.015625 
L 38.1875 14.015625 
L 19.390625 64.015625 
L 19.390625 0 
L 9.8125 0 
z
" id="DejaVuSans-77"/>
      <path d="M 8.5 21.578125 
L 8.5 54.6875 
L 17.484375 54.6875 
L 17.484375 21.921875 
Q 17.484375 14.15625 20.5 10.265625 
Q 23.53125 6.390625 29.59375 6.390625 
Q 36.859375 6.390625 41.078125 11.03125 
Q 45.3125 15.671875 45.3125 23.6875 
L 45.3125 54.6875 
L 54.296875 54.6875 
L 54.296875 0 
L 45.3125 0 
L 45.3125 8.40625 
Q 42.046875 3.421875 37.71875 1 
Q 33.40625 -1.421875 27.6875 -1.421875 
Q 18.265625 -1.421875 13.375 4.4375 
Q 8.5 10.296875 8.5 21.578125 
z
M 31.109375 56 
z
" id="DejaVuSans-117"/>
      <path d="M 56.203125 29.59375 
L 56.203125 25.203125 
L 14.890625 25.203125 
Q 15.484375 15.921875 20.484375 11.0625 
Q 25.484375 6.203125 34.421875 6.203125 
Q 39.59375 6.203125 44.453125 7.46875 
Q 49.3125 8.734375 54.109375 11.28125 
L 54.109375 2.78125 
Q 49.265625 0.734375 44.1875 -0.34375 
Q 39.109375 -1.421875 33.890625 -1.421875 
Q 20.796875 -1.421875 13.15625 6.1875 
Q 5.515625 13.8125 5.515625 26.8125 
Q 5.515625 40.234375 12.765625 48.109375 
Q 20.015625 56 32.328125 56 
Q 43.359375 56 49.78125 48.890625 
Q 56.203125 41.796875 56.203125 29.59375 
z
M 47.21875 32.234375 
Q 47.125 39.59375 43.09375 43.984375 
Q 39.0625 48.390625 32.421875 48.390625 
Q 24.90625 48.390625 20.390625 44.140625 
Q 15.875 39.890625 15.1875 32.171875 
z
" id="DejaVuSans-101"/>
      <path d="M 44.28125 53.078125 
L 44.28125 44.578125 
Q 40.484375 46.53125 36.375 47.5 
Q 32.28125 48.484375 27.875 48.484375 
Q 21.1875 48.484375 17.84375 46.4375 
Q 14.5 44.390625 14.5 40.28125 
Q 14.5 37.15625 16.890625 35.375 
Q 19.28125 33.59375 26.515625 31.984375 
L 29.59375 31.296875 
Q 39.15625 29.25 43.1875 25.515625 
Q 47.21875 21.78125 47.21875 15.09375 
Q 47.21875 7.46875 41.1875 3.015625 
Q 35.15625 -1.421875 24.609375 -1.421875 
Q 20.21875 -1.421875 15.453125 -0.5625 
Q 10.6875 0.296875 5.421875 2 
L 5.421875 11.28125 
Q 10.40625 8.6875 15.234375 7.390625 
Q 20.0625 6.109375 24.8125 6.109375 
Q 31.15625 6.109375 34.5625 8.28125 
Q 37.984375 10.453125 37.984375 14.40625 
Q 37.984375 18.0625 35.515625 20.015625 
Q 33.0625 21.96875 24.703125 23.78125 
L 21.578125 24.515625 
Q 13.234375 26.265625 9.515625 29.90625 
Q 5.8125 33.546875 5.8125 39.890625 
Q 5.8125 47.609375 11.28125 51.796875 
Q 16.75 56 26.8125 56 
Q 31.78125 56 36.171875 55.265625 
Q 40.578125 54.546875 44.28125 53.078125 
z
" id="DejaVuSans-115"/>
      <path d="M 18.3125 70.21875 
L 18.3125 54.6875 
L 36.8125 54.6875 
L 36.8125 47.703125 
L 18.3125 47.703125 
L 18.3125 18.015625 
Q 18.3125 11.328125 20.140625 9.421875 
Q 21.96875 7.515625 27.59375 7.515625 
L 36.8125 7.515625 
L 36.8125 0 
L 27.59375 0 
Q 17.1875 0 13.234375 3.875 
Q 9.28125 7.765625 9.28125 18.015625 
L 9.28125 47.703125 
L 2.6875 47.703125 
L 2.6875 54.6875 
L 9.28125 54.6875 
L 9.28125 70.21875 
z
" id="DejaVuSans-116"/>
      <path d="M 41.109375 46.296875 
Q 39.59375 47.171875 37.8125 47.578125 
Q 36.03125 48 33.890625 48 
Q 26.265625 48 22.1875 43.046875 
Q 18.109375 38.09375 18.109375 28.8125 
L 18.109375 0 
L 9.078125 0 
L 9.078125 54.6875 
L 18.109375 54.6875 
L 18.109375 46.1875 
Q 20.953125 51.171875 25.484375 53.578125 
Q 30.03125 56 36.53125 56 
Q 37.453125 56 38.578125 55.875 
Q 39.703125 55.765625 41.0625 55.515625 
z
" id="DejaVuSans-114"/>
      <path d="M 34.28125 27.484375 
Q 23.390625 27.484375 19.1875 25 
Q 14.984375 22.515625 14.984375 16.5 
Q 14.984375 11.71875 18.140625 8.90625 
Q 21.296875 6.109375 26.703125 6.109375 
Q 34.1875 6.109375 38.703125 11.40625 
Q 43.21875 16.703125 43.21875 25.484375 
L 43.21875 27.484375 
z
M 52.203125 31.203125 
L 52.203125 0 
L 43.21875 0 
L 43.21875 8.296875 
Q 40.140625 3.328125 35.546875 0.953125 
Q 30.953125 -1.421875 24.3125 -1.421875 
Q 15.921875 -1.421875 10.953125 3.296875 
Q 6 8.015625 6 15.921875 
Q 6 25.140625 12.171875 29.828125 
Q 18.359375 34.515625 30.609375 34.515625 
L 43.21875 34.515625 
L 43.21875 35.40625 
Q 43.21875 41.609375 39.140625 45 
Q 35.0625 48.390625 27.6875 48.390625 
Q 23 48.390625 18.546875 47.265625 
Q 14.109375 46.140625 10.015625 43.890625 
L 10.015625 52.203125 
Q 14.9375 54.109375 19.578125 55.046875 
Q 24.21875 56 28.609375 56 
Q 40.484375 56 46.34375 49.84375 
Q 52.203125 43.703125 52.203125 31.203125 
z
" id="DejaVuSans-97"/>
     </defs>
     <g transform="translate(213.311562 334.578963)scale(0.1 -0.1)">
      <use xlink:href="#DejaVuSans-77"/>
      <use x="86.279297" xlink:href="#DejaVuSans-117"/>
      <use x="149.658203" xlink:href="#DejaVuSans-101"/>
      <use x="211.181641" xlink:href="#DejaVuSans-115"/>
      <use x="263.28125" xlink:href="#DejaVuSans-116"/>
      <use x="302.490234" xlink:href="#DejaVuSans-114"/>
      <use x="343.603516" xlink:href="#DejaVuSans-97"/>
      <use x="404.882812" xlink:href="#DejaVuSans-115"/>
     </g>
    </g>
   </g>
   <g id="matplotlib.axis_2">
    <g id="ytick_1">
     <g id="line2d_7">
      <defs>
       <path d="M 0 0 
L -3.5 0 
" id="ma6204976d1" style="stroke:#000000;stroke-width:0.8;"/>
      </defs>
      <g>
       <use style="stroke:#000000;stroke-width:0.8;" x="57.6" xlink:href="#ma6204976d1" y="292.536"/>
      </g>
     </g>
     <g id="text_8">
      <!-- 29.4 -->
      <defs>
       <path d="M 10.984375 1.515625 
L 10.984375 10.5 
Q 14.703125 8.734375 18.5 7.8125 
Q 22.3125 6.890625 25.984375 6.890625 
Q 35.75 6.890625 40.890625 13.453125 
Q 46.046875 20.015625 46.78125 33.40625 
Q 43.953125 29.203125 39.59375 26.953125 
Q 35.25 24.703125 29.984375 24.703125 
Q 19.046875 24.703125 12.671875 31.3125 
Q 6.296875 37.9375 6.296875 49.421875 
Q 6.296875 60.640625 12.9375 67.421875 
Q 19.578125 74.21875 30.609375 74.21875 
Q 43.265625 74.21875 49.921875 64.515625 
Q 56.59375 54.828125 56.59375 36.375 
Q 56.59375 19.140625 48.40625 8.859375 
Q 40.234375 -1.421875 26.421875 -1.421875 
Q 22.703125 -1.421875 18.890625 -0.6875 
Q 15.09375 0.046875 10.984375 1.515625 
z
M 30.609375 32.421875 
Q 37.25 32.421875 41.125 36.953125 
Q 45.015625 41.5 45.015625 49.421875 
Q 45.015625 57.28125 41.125 61.84375 
Q 37.25 66.40625 30.609375 66.40625 
Q 23.96875 66.40625 20.09375 61.84375 
Q 16.21875 57.28125 16.21875 49.421875 
Q 16.21875 41.5 20.09375 36.953125 
Q 23.96875 32.421875 30.609375 32.421875 
z
" id="DejaVuSans-57"/>
       <path d="M 10.6875 12.40625 
L 21 12.40625 
L 21 0 
L 10.6875 0 
z
" id="DejaVuSans-46"/>
      </defs>
      <g transform="translate(28.334375 296.335219)scale(0.1 -0.1)">
       <use xlink:href="#DejaVuSans-50"/>
       <use x="63.623047" xlink:href="#DejaVuSans-57"/>
       <use x="127.246094" xlink:href="#DejaVuSans-46"/>
       <use x="159.033203" xlink:href="#DejaVuSans-52"/>
      </g>
     </g>
    </g>
    <g id="ytick_2">
     <g id="line2d_8">
      <g>
       <use style="stroke:#000000;stroke-width:0.8;" x="57.6" xlink:href="#ma6204976d1" y="258.12"/>
      </g>
     </g>
     <g id="text_9">
      <!-- 29.6 -->
      <defs>
       <path d="M 33.015625 40.375 
Q 26.375 40.375 22.484375 35.828125 
Q 18.609375 31.296875 18.609375 23.390625 
Q 18.609375 15.53125 22.484375 10.953125 
Q 26.375 6.390625 33.015625 6.390625 
Q 39.65625 6.390625 43.53125 10.953125 
Q 47.40625 15.53125 47.40625 23.390625 
Q 47.40625 31.296875 43.53125 35.828125 
Q 39.65625 40.375 33.015625 40.375 
z
M 52.59375 71.296875 
L 52.59375 62.3125 
Q 48.875 64.0625 45.09375 64.984375 
Q 41.3125 65.921875 37.59375 65.921875 
Q 27.828125 65.921875 22.671875 59.328125 
Q 17.53125 52.734375 16.796875 39.40625 
Q 19.671875 43.65625 24.015625 45.921875 
Q 28.375 48.1875 33.59375 48.1875 
Q 44.578125 48.1875 50.953125 41.515625 
Q 57.328125 34.859375 57.328125 23.390625 
Q 57.328125 12.15625 50.6875 5.359375 
Q 44.046875 -1.421875 33.015625 -1.421875 
Q 20.359375 -1.421875 13.671875 8.265625 
Q 6.984375 17.96875 6.984375 36.375 
Q 6.984375 53.65625 15.1875 63.9375 
Q 23.390625 74.21875 37.203125 74.21875 
Q 40.921875 74.21875 44.703125 73.484375 
Q 48.484375 72.75 52.59375 71.296875 
z
" id="DejaVuSans-54"/>
      </defs>
      <g transform="translate(28.334375 261.919219)scale(0.1 -0.1)">
       <use xlink:href="#DejaVuSans-50"/>
       <use x="63.623047" xlink:href="#DejaVuSans-57"/>
       <use x="127.246094" xlink:href="#DejaVuSans-46"/>
       <use x="159.033203" xlink:href="#DejaVuSans-54"/>
      </g>
     </g>
    </g>
    <g id="ytick_3">
     <g id="line2d_9">
      <g>
       <use style="stroke:#000000;stroke-width:0.8;" x="57.6" xlink:href="#ma6204976d1" y="223.704"/>
      </g>
     </g>
     <g id="text_10">
      <!-- 29.8 -->
      <defs>
       <path d="M 31.78125 34.625 
Q 24.75 34.625 20.71875 30.859375 
Q 16.703125 27.09375 16.703125 20.515625 
Q 16.703125 13.921875 20.71875 10.15625 
Q 24.75 6.390625 31.78125 6.390625 
Q 38.8125 6.390625 42.859375 10.171875 
Q 46.921875 13.96875 46.921875 20.515625 
Q 46.921875 27.09375 42.890625 30.859375 
Q 38.875 34.625 31.78125 34.625 
z
M 21.921875 38.8125 
Q 15.578125 40.375 12.03125 44.71875 
Q 8.5 49.078125 8.5 55.328125 
Q 8.5 64.0625 14.71875 69.140625 
Q 20.953125 74.21875 31.78125 74.21875 
Q 42.671875 74.21875 48.875 69.140625 
Q 55.078125 64.0625 55.078125 55.328125 
Q 55.078125 49.078125 51.53125 44.71875 
Q 48 40.375 41.703125 38.8125 
Q 48.828125 37.15625 52.796875 32.3125 
Q 56.78125 27.484375 56.78125 20.515625 
Q 56.78125 9.90625 50.3125 4.234375 
Q 43.84375 -1.421875 31.78125 -1.421875 
Q 19.734375 -1.421875 13.25 4.234375 
Q 6.78125 9.90625 6.78125 20.515625 
Q 6.78125 27.484375 10.78125 32.3125 
Q 14.796875 37.15625 21.921875 38.8125 
z
M 18.3125 54.390625 
Q 18.3125 48.734375 21.84375 45.5625 
Q 25.390625 42.390625 31.78125 42.390625 
Q 38.140625 42.390625 41.71875 45.5625 
Q 45.3125 48.734375 45.3125 54.390625 
Q 45.3125 60.0625 41.71875 63.234375 
Q 38.140625 66.40625 31.78125 66.40625 
Q 25.390625 66.40625 21.84375 63.234375 
Q 18.3125 60.0625 18.3125 54.390625 
z
" id="DejaVuSans-56"/>
      </defs>
      <g transform="translate(28.334375 227.503219)scale(0.1 -0.1)">
       <use xlink:href="#DejaVuSans-50"/>
       <use x="63.623047" xlink:href="#DejaVuSans-57"/>
       <use x="127.246094" xlink:href="#DejaVuSans-46"/>
       <use x="159.033203" xlink:href="#DejaVuSans-56"/>
      </g>
     </g>
    </g>
    <g id="ytick_4">
     <g id="line2d_10">
      <g>
       <use style="stroke:#000000;stroke-width:0.8;" x="57.6" xlink:href="#ma6204976d1" y="189.288"/>
      </g>
     </g>
     <g id="text_11">
      <!-- 30.0 -->
      <g transform="translate(28.334375 193.087219)scale(0.1 -0.1)">
       <use xlink:href="#DejaVuSans-51"/>
       <use x="63.623047" xlink:href="#DejaVuSans-48"/>
       <use x="127.246094" xlink:href="#DejaVuSans-46"/>
       <use x="159.033203" xlink:href="#DejaVuSans-48"/>
      </g>
     </g>
    </g>
    <g id="ytick_5">
     <g id="line2d_11">
      <g>
       <use style="stroke:#000000;stroke-width:0.8;" x="57.6" xlink:href="#ma6204976d1" y="154.872"/>
      </g>
     </g>
     <g id="text_12">
      <!-- 30.2 -->
      <g transform="translate(28.334375 158.671219)scale(0.1 -0.1)">
       <use xlink:href="#DejaVuSans-51"/>
       <use x="63.623047" xlink:href="#DejaVuSans-48"/>
       <use x="127.246094" xlink:href="#DejaVuSans-46"/>
       <use x="159.033203" xlink:href="#DejaVuSans-50"/>
      </g>
     </g>
    </g>
    <g id="ytick_6">
     <g id="line2d_12">
      <g>
       <use style="stroke:#000000;stroke-width:0.8;" x="57.6" xlink:href="#ma6204976d1" y="120.456"/>
      </g>
     </g>
     <g id="text_13">
      <!-- 30.4 -->
      <g transform="translate(28.334375 124.255219)scale(0.1 -0.1)">
       <use xlink:href="#DejaVuSans-51"/>
       <use x="63.623047" xlink:href="#DejaVuSans-48"/>
       <use x="127.246094" xlink:href="#DejaVuSans-46"/>
       <use x="159.033203" xlink:href="#DejaVuSans-52"/>
      </g>
     </g>
    </g>
    <g id="ytick_7">
     <g id="line2d_13">
      <g>
       <use style="stroke:#000000;stroke-width:0.8;" x="57.6" xlink:href="#ma6204976d1" y="86.04"/>
      </g>
     </g>
     <g id="text_14">
      <!-- 30.6 -->
      <g transform="translate(28.334375 89.839219)scale(0.1 -0.1)">
       <use xlink:href="#DejaVuSans-51"/>
       <use x="63.623047" xlink:href="#DejaVuSans-48"/>
       <use x="127.246094" xlink:href="#DejaVuSans-46"/>
       <use x="159.033203" xlink:href="#DejaVuSans-54"/>
      </g>
     </g>
    </g>
    <g id="ytick_8">
     <g id="line2d_14">
      <g>
       <use style="stroke:#000000;stroke-width:0.8;" x="57.6" xlink:href="#ma6204976d1" y="51.624"/>
      </g>
     </g>
     <g id="text_15">
      <!-- 30.8 -->
      <g transform="translate(28.334375 55.423219)scale(0.1 -0.1)">
       <use xlink:href="#DejaVuSans-51"/>
       <use x="63.623047" xlink:href="#DejaVuSans-48"/>
       <use x="127.246094" xlink:href="#DejaVuSans-46"/>
       <use x="159.033203" xlink:href="#DejaVuSans-56"/>
      </g>
     </g>
    </g>
    <g id="text_16">
     <!-- Valor de Temperatura -->
     <defs>
      <path d="M 28.609375 0 
L 0.78125 72.90625 
L 11.078125 72.90625 
L 34.1875 11.53125 
L 57.328125 72.90625 
L 67.578125 72.90625 
L 39.796875 0 
z
" id="DejaVuSans-86"/>
      <path d="M 9.421875 75.984375 
L 18.40625 75.984375 
L 18.40625 0 
L 9.421875 0 
z
" id="DejaVuSans-108"/>
      <path d="M 30.609375 48.390625 
Q 23.390625 48.390625 19.1875 42.75 
Q 14.984375 37.109375 14.984375 27.296875 
Q 14.984375 17.484375 19.15625 11.84375 
Q 23.34375 6.203125 30.609375 6.203125 
Q 37.796875 6.203125 41.984375 11.859375 
Q 46.1875 17.53125 46.1875 27.296875 
Q 46.1875 37.015625 41.984375 42.703125 
Q 37.796875 48.390625 30.609375 48.390625 
z
M 30.609375 56 
Q 42.328125 56 49.015625 48.375 
Q 55.71875 40.765625 55.71875 27.296875 
Q 55.71875 13.875 49.015625 6.21875 
Q 42.328125 -1.421875 30.609375 -1.421875 
Q 18.84375 -1.421875 12.171875 6.21875 
Q 5.515625 13.875 5.515625 27.296875 
Q 5.515625 40.765625 12.171875 48.375 
Q 18.84375 56 30.609375 56 
z
" id="DejaVuSans-111"/>
      <path id="DejaVuSans-32"/>
      <path d="M 45.40625 46.390625 
L 45.40625 75.984375 
L 54.390625 75.984375 
L 54.390625 0 
L 45.40625 0 
L 45.40625 8.203125 
Q 42.578125 3.328125 38.25 0.953125 
Q 33.9375 -1.421875 27.875 -1.421875 
Q 17.96875 -1.421875 11.734375 6.484375 
Q 5.515625 14.40625 5.515625 27.296875 
Q 5.515625 40.1875 11.734375 48.09375 
Q 17.96875 56 27.875 56 
Q 33.9375 56 38.25 53.625 
Q 42.578125 51.265625 45.40625 46.390625 
z
M 14.796875 27.296875 
Q 14.796875 17.390625 18.875 11.75 
Q 22.953125 6.109375 30.078125 6.109375 
Q 37.203125 6.109375 41.296875 11.75 
Q 45.40625 17.390625 45.40625 27.296875 
Q 45.40625 37.203125 41.296875 42.84375 
Q 37.203125 48.484375 30.078125 48.484375 
Q 22.953125 48.484375 18.875 42.84375 
Q 14.796875 37.203125 14.796875 27.296875 
z
" id="DejaVuSans-100"/>
      <path d="M -0.296875 72.90625 
L 61.375 72.90625 
L 61.375 64.59375 
L 35.5 64.59375 
L 35.5 0 
L 25.59375 0 
L 25.59375 64.59375 
L -0.296875 64.59375 
z
" id="DejaVuSans-84"/>
      <path d="M 52 44.1875 
Q 55.375 50.25 60.0625 53.125 
Q 64.75 56 71.09375 56 
Q 79.640625 56 84.28125 50.015625 
Q 88.921875 44.046875 88.921875 33.015625 
L 88.921875 0 
L 79.890625 0 
L 79.890625 32.71875 
Q 79.890625 40.578125 77.09375 44.375 
Q 74.3125 48.1875 68.609375 48.1875 
Q 61.625 48.1875 57.5625 43.546875 
Q 53.515625 38.921875 53.515625 30.90625 
L 53.515625 0 
L 44.484375 0 
L 44.484375 32.71875 
Q 44.484375 40.625 41.703125 44.40625 
Q 38.921875 48.1875 33.109375 48.1875 
Q 26.21875 48.1875 22.15625 43.53125 
Q 18.109375 38.875 18.109375 30.90625 
L 18.109375 0 
L 9.078125 0 
L 9.078125 54.6875 
L 18.109375 54.6875 
L 18.109375 46.1875 
Q 21.1875 51.21875 25.484375 53.609375 
Q 29.78125 56 35.6875 56 
Q 41.65625 56 45.828125 52.96875 
Q 50 49.953125 52 44.1875 
z
" id="DejaVuSans-109"/>
      <path d="M 18.109375 8.203125 
L 18.109375 -20.796875 
L 9.078125 -20.796875 
L 9.078125 54.6875 
L 18.109375 54.6875 
L 18.109375 46.390625 
Q 20.953125 51.265625 25.265625 53.625 
Q 29.59375 56 35.59375 56 
Q 45.5625 56 51.78125 48.09375 
Q 58.015625 40.1875 58.015625 27.296875 
Q 58.015625 14.40625 51.78125 6.484375 
Q 45.5625 -1.421875 35.59375 -1.421875 
Q 29.59375 -1.421875 25.265625 0.953125 
Q 20.953125 3.328125 18.109375 8.203125 
z
M 48.6875 27.296875 
Q 48.6875 37.203125 44.609375 42.84375 
Q 40.53125 48.484375 33.40625 48.484375 
Q 26.265625 48.484375 22.1875 42.84375 
Q 18.109375 37.203125 18.109375 27.296875 
Q 18.109375 17.390625 22.1875 11.75 
Q 26.265625 6.109375 33.40625 6.109375 
Q 40.53125 6.109375 44.609375 11.75 
Q 48.6875 17.390625 48.6875 27.296875 
z
" id="DejaVuSans-112"/>
     </defs>
     <g transform="translate(22.254687 228.818769)rotate(-90)scale(0.1 -0.1)">
      <use xlink:href="#DejaVuSans-86"/>
      <use x="68.298828" xlink:href="#DejaVuSans-97"/>
      <use x="129.578125" xlink:href="#DejaVuSans-108"/>
      <use x="157.361328" xlink:href="#DejaVuSans-111"/>
      <use x="218.542969" xlink:href="#DejaVuSans-114"/>
      <use x="259.65625" xlink:href="#DejaVuSans-32"/>
      <use x="291.443359" xlink:href="#DejaVuSans-100"/>
      <use x="354.919922" xlink:href="#DejaVuSans-101"/>
      <use x="416.443359" xlink:href="#DejaVuSans-32"/>
      <use x="448.230469" xlink:href="#DejaVuSans-84"/>
      <use x="509.048828" xlink:href="#DejaVuSans-101"/>
      <use x="570.572266" xlink:href="#DejaVuSans-109"/>
      <use x="667.984375" xlink:href="#DejaVuSans-112"/>
      <use x="731.460938" xlink:href="#DejaVuSans-101"/>
      <use x="792.984375" xlink:href="#DejaVuSans-114"/>
      <use x="834.097656" xlink:href="#DejaVuSans-97"/>
      <use x="895.376953" xlink:href="#DejaVuSans-116"/>
      <use x="934.585938" xlink:href="#DejaVuSans-117"/>
      <use x="997.964844" xlink:href="#DejaVuSans-114"/>
      <use x="1039.078125" xlink:href="#DejaVuSans-97"/>
     </g>
    </g>
   </g>
   <g id="line2d_15">
    <path clip-path="url(#p78ec90a120)" d="M 73.832727 294.2568 
L 74.686217 294.2568 
L 74.817524 287.3736 
L 75.211442 287.3736 
L 75.342748 283.932 
L 75.474055 283.932 
L 75.605361 280.4904 
L 75.736667 280.4904 
L 75.867973 277.0488 
L 75.999279 277.0488 
L 76.130586 273.6072 
L 76.524504 273.6072 
L 76.65581 270.1656 
L 77.049729 270.1656 
L 77.181035 266.724 
L 77.312341 266.724 
L 77.443647 263.2824 
L 77.574954 263.2824 
L 77.70626 256.3992 
L 78.100178 256.3992 
L 78.231485 252.9576 
L 78.625403 252.9576 
L 78.756709 249.516 
L 79.150628 249.516 
L 79.281934 246.0744 
L 79.675853 246.0744 
L 79.807159 252.9576 
L 79.938465 252.9576 
L 80.069771 246.0744 
L 80.46369 246.0744 
L 80.594996 242.6328 
L 81.251527 242.6328 
L 81.382833 239.1912 
L 82.039364 239.1912 
L 82.17067 235.7496 
L 82.564589 235.7496 
L 82.695895 239.1912 
L 83.352426 239.1912 
L 83.483732 235.7496 
L 84.140263 235.7496 
L 84.271569 232.308 
L 84.665488 232.308 
L 84.796794 235.7496 
L 85.190712 235.7496 
L 85.322019 232.308 
L 85.453325 232.308 
L 85.584631 235.7496 
L 85.715937 235.7496 
L 85.847243 239.1912 
L 85.978549 239.1912 
L 86.109856 242.6328 
L 86.503774 242.6328 
L 86.63508 246.0744 
L 86.766387 246.0744 
L 86.897693 249.516 
L 87.291611 249.516 
L 87.422918 246.0744 
L 87.816836 246.0744 
L 87.948142 249.516 
L 88.079448 249.516 
L 88.210755 239.1912 
L 88.342061 239.1912 
L 88.473367 246.0744 
L 88.604673 246.0744 
L 88.735979 242.6328 
L 89.129898 242.6328 
L 89.261204 246.0744 
L 89.917735 246.0744 
L 90.049041 242.6328 
L 90.180347 242.6328 
L 90.311654 246.0744 
L 90.44296 246.0744 
L 90.574266 249.516 
L 90.705572 249.516 
L 90.836878 246.0744 
L 90.968185 246.0744 
L 91.099491 249.516 
L 91.230797 249.516 
L 91.362103 246.0744 
L 92.018634 246.0744 
L 92.14994 249.516 
L 92.281246 249.516 
L 92.412553 246.0744 
L 92.806471 246.0744 
L 92.937777 249.516 
L 93.331696 249.516 
L 93.463002 246.0744 
L 93.856921 246.0744 
L 93.988227 249.516 
L 95.432595 249.516 
L 95.563901 252.9576 
L 95.695207 252.9576 
L 95.826513 249.516 
L 95.95782 249.516 
L 96.089126 252.9576 
L 96.483044 252.9576 
L 96.614351 256.3992 
L 97.270882 256.3992 
L 97.402188 259.8408 
L 97.533494 259.8408 
L 97.6648 252.9576 
L 98.321331 252.9576 
L 98.452637 249.516 
L 98.846556 249.516 
L 98.977862 252.9576 
L 99.37178 252.9576 
L 99.503087 256.3992 
L 99.897005 256.3992 
L 100.028311 252.9576 
L 100.159618 252.9576 
L 100.290924 249.516 
L 100.42223 249.516 
L 100.553536 252.9576 
L 100.947455 252.9576 
L 101.078761 249.516 
L 101.210067 249.516 
L 101.341373 246.0744 
L 101.472679 246.0744 
L 101.603986 242.6328 
L 101.735292 242.6328 
L 101.866598 246.0744 
L 101.997904 246.0744 
L 102.12921 242.6328 
L 102.523129 242.6328 
L 102.654435 239.1912 
L 103.310966 239.1912 
L 103.442272 235.7496 
L 104.098803 235.7496 
L 104.230109 232.308 
L 104.361416 232.308 
L 104.492722 228.8664 
L 105.149253 228.8664 
L 105.280559 221.9832 
L 105.93709 221.9832 
L 106.068396 218.5416 
L 106.199702 218.5416 
L 106.331008 215.1 
L 106.462315 215.1 
L 106.593621 218.5416 
L 106.724927 218.5416 
L 106.856233 215.1 
L 106.987539 215.1 
L 107.118845 208.2168 
L 107.250152 208.2168 
L 107.381458 211.6584 
L 107.512764 211.6584 
L 107.64407 204.7752 
L 107.775376 204.7752 
L 107.906683 211.6584 
L 108.300601 211.6584 
L 108.431907 215.1 
L 108.563214 215.1 
L 108.69452 218.5416 
L 108.825826 218.5416 
L 108.957132 221.9832 
L 109.088438 221.9832 
L 109.219744 215.1 
L 109.613663 215.1 
L 109.744969 208.2168 
L 109.876275 208.2168 
L 110.007582 215.1 
L 110.4015 215.1 
L 110.532806 218.5416 
L 110.664113 218.5416 
L 110.795419 215.1 
L 111.977174 215.1 
L 112.108481 211.6584 
L 112.502399 211.6584 
L 112.633705 208.2168 
L 112.765011 208.2168 
L 112.896318 211.6584 
L 113.027624 211.6584 
L 113.15893 208.2168 
L 113.815461 208.2168 
L 113.946767 197.892 
L 114.078073 197.892 
L 114.20938 201.3336 
L 114.340686 201.3336 
L 114.471992 194.4504 
L 114.603298 194.4504 
L 114.734604 191.0088 
L 115.653748 191.0088 
L 115.785054 184.1256 
L 115.91636 184.1256 
L 116.047666 180.684 
L 116.178972 180.684 
L 116.310279 173.8008 
L 116.441585 173.8008 
L 116.572891 177.2424 
L 116.704197 177.2424 
L 116.835503 173.8008 
L 118.017259 173.8008 
L 118.148565 170.3592 
L 118.279871 170.3592 
L 118.411177 173.8008 
L 118.542484 173.8008 
L 118.67379 166.9176 
L 118.805096 166.9176 
L 118.936402 170.3592 
L 119.067708 170.3592 
L 119.199015 166.9176 
L 119.330321 166.9176 
L 119.461627 163.476 
L 119.855546 163.476 
L 119.986852 166.9176 
L 120.118158 166.9176 
L 120.249464 163.476 
L 120.38077 163.476 
L 120.512076 166.9176 
L 120.643383 166.9176 
L 120.774689 163.476 
L 120.905995 163.476 
L 121.037301 160.0344 
L 121.168607 160.0344 
L 121.299914 163.476 
L 121.956445 163.476 
L 122.087751 166.9176 
L 122.219057 166.9176 
L 122.350363 170.3592 
L 122.481669 170.3592 
L 122.612975 173.8008 
L 122.744282 173.8008 
L 122.875588 170.3592 
L 123.006894 170.3592 
L 123.1382 166.9176 
L 123.269506 166.9176 
L 123.400813 177.2424 
L 123.794731 177.2424 
L 123.926037 173.8008 
L 124.057344 173.8008 
L 124.18865 177.2424 
L 124.319956 177.2424 
L 124.451262 173.8008 
L 124.582568 173.8008 
L 124.713874 170.3592 
L 124.845181 170.3592 
L 124.976487 163.476 
L 125.107793 163.476 
L 125.239099 156.5928 
L 125.370405 156.5928 
L 125.501712 149.7096 
L 125.633018 149.7096 
L 125.764324 146.268 
L 125.89563 146.268 
L 126.026936 142.8264 
L 126.158242 142.8264 
L 126.289549 135.9432 
L 126.420855 135.9432 
L 126.552161 132.5016 
L 126.94608 132.5016 
L 127.077386 125.6184 
L 127.471304 125.6184 
L 127.602611 129.06 
L 128.259141 129.06 
L 128.390448 132.5016 
L 128.784366 132.5016 
L 128.915672 135.9432 
L 129.572203 135.9432 
L 129.70351 132.5016 
L 129.834816 132.5016 
L 129.966122 139.3848 
L 130.36004 139.3848 
L 130.491347 142.8264 
L 130.885265 142.8264 
L 131.016571 146.268 
L 131.147878 146.268 
L 131.279184 142.8264 
L 131.41049 142.8264 
L 131.541796 139.3848 
L 132.198327 139.3848 
L 132.329633 135.9432 
L 132.723552 135.9432 
L 132.854858 139.3848 
L 132.986164 139.3848 
L 133.11747 135.9432 
L 133.511389 135.9432 
L 133.642695 132.5016 
L 133.774001 132.5016 
L 133.905307 135.9432 
L 134.036614 135.9432 
L 134.16792 129.06 
L 134.299226 129.06 
L 134.430532 132.5016 
L 134.561838 132.5016 
L 134.693145 129.06 
L 135.612288 129.06 
L 135.743594 125.6184 
L 135.8749 125.6184 
L 136.006206 129.06 
L 136.137513 129.06 
L 136.268819 125.6184 
L 136.662737 125.6184 
L 136.794044 122.1768 
L 136.92535 122.1768 
L 137.056656 125.6184 
L 137.450575 125.6184 
L 137.581881 122.1768 
L 137.713187 122.1768 
L 137.844493 118.7352 
L 138.238412 118.7352 
L 138.369718 111.852 
L 138.501024 111.852 
L 138.63233 115.2936 
L 138.763636 115.2936 
L 138.894943 118.7352 
L 139.026249 118.7352 
L 139.157555 129.06 
L 140.339311 129.06 
L 140.470617 132.5016 
L 140.864535 132.5016 
L 140.995842 135.9432 
L 141.127148 135.9432 
L 141.258454 142.8264 
L 141.38976 142.8264 
L 141.521066 146.268 
L 141.652372 146.268 
L 141.783679 149.7096 
L 142.177597 149.7096 
L 142.308903 142.8264 
L 142.702822 142.8264 
L 142.834128 146.268 
L 142.965434 146.268 
L 143.096741 139.3848 
L 143.490659 139.3848 
L 143.621965 135.9432 
L 144.278496 135.9432 
L 144.409802 129.06 
L 144.541109 129.06 
L 144.672415 125.6184 
L 145.328946 125.6184 
L 145.460252 122.1768 
L 145.591558 122.1768 
L 145.722864 115.2936 
L 146.116783 115.2936 
L 146.248089 111.852 
L 146.379395 111.852 
L 146.510701 108.4104 
L 146.90462 108.4104 
L 147.035926 104.9688 
L 147.692457 104.9688 
L 147.823763 101.5272 
L 148.217682 101.5272 
L 148.348988 94.644 
L 149.005519 94.644 
L 149.136825 91.2024 
L 149.268131 91.2024 
L 149.399437 84.3192 
L 149.530744 84.3192 
L 149.66205 87.7608 
L 149.793356 87.7608 
L 149.924662 84.3192 
L 150.318581 84.3192 
L 150.449887 80.8776 
L 150.581193 80.8776 
L 150.712499 84.3192 
L 150.843805 84.3192 
L 150.975112 80.8776 
L 151.106418 80.8776 
L 151.237724 77.436 
L 151.631643 77.436 
L 151.762949 73.9944 
L 151.894255 73.9944 
L 152.025561 70.5528 
L 152.156867 70.5528 
L 152.288174 67.1112 
L 152.41948 67.1112 
L 152.550786 70.5528 
L 152.682092 70.5528 
L 152.813398 67.1112 
L 153.207317 67.1112 
L 153.338623 63.6696 
L 153.732542 63.6696 
L 153.863848 60.228 
L 153.995154 60.228 
L 154.12646 63.6696 
L 154.257766 63.6696 
L 154.389073 60.228 
L 155.308216 60.228 
L 155.439522 63.6696 
L 155.570828 63.6696 
L 155.702134 60.228 
L 155.833441 60.228 
L 155.964747 63.6696 
L 156.096053 63.6696 
L 156.227359 56.7864 
L 156.358665 56.7864 
L 156.489972 63.6696 
L 156.621278 63.6696 
L 156.752584 60.228 
L 157.409115 60.228 
L 157.540421 56.7864 
L 157.93434 56.7864 
L 158.065646 60.228 
L 158.459564 60.228 
L 158.59087 56.7864 
L 158.722177 56.7864 
L 158.853483 53.3448 
L 158.984789 53.3448 
L 159.116095 56.7864 
L 159.772626 56.7864 
L 159.903932 60.228 
L 161.3483 60.228 
L 161.479607 63.6696 
L 161.610913 63.6696 
L 161.742219 60.228 
L 162.136138 60.228 
L 162.267444 63.6696 
L 162.39875 63.6696 
L 162.530056 67.1112 
L 162.661362 67.1112 
L 162.792668 63.6696 
L 163.186587 63.6696 
L 163.317893 60.228 
L 163.449199 60.228 
L 163.580506 63.6696 
L 164.237036 63.6696 
L 164.368343 60.228 
L 164.499649 60.228 
L 164.630955 67.1112 
L 164.762261 67.1112 
L 164.893567 63.6696 
L 165.024874 63.6696 
L 165.15618 67.1112 
L 165.550098 67.1112 
L 165.681405 60.228 
L 165.812711 60.228 
L 165.944017 63.6696 
L 166.600548 63.6696 
L 166.731854 70.5528 
L 166.86316 70.5528 
L 166.994466 63.6696 
L 167.125773 63.6696 
L 167.257079 67.1112 
L 167.388385 67.1112 
L 167.519691 63.6696 
L 167.650997 63.6696 
L 167.782304 67.1112 
L 168.701447 67.1112 
L 168.832753 70.5528 
L 168.964059 70.5528 
L 169.095365 67.1112 
L 169.226672 67.1112 
L 169.357978 63.6696 
L 170.014509 63.6696 
L 170.145815 67.1112 
L 170.539733 67.1112 
L 170.67104 63.6696 
L 170.802346 63.6696 
L 170.933652 67.1112 
L 172.115408 67.1112 
L 172.246714 70.5528 
L 172.37802 70.5528 
L 172.509326 67.1112 
L 172.640632 67.1112 
L 172.771939 70.5528 
L 173.165857 70.5528 
L 173.297163 67.1112 
L 173.42847 67.1112 
L 173.559776 70.5528 
L 174.478919 70.5528 
L 174.610225 73.9944 
L 174.741531 73.9944 
L 174.872838 70.5528 
L 175.004144 70.5528 
L 175.13545 73.9944 
L 175.266756 73.9944 
L 175.398062 70.5528 
L 176.054593 70.5528 
L 176.185899 67.1112 
L 176.317206 67.1112 
L 176.448512 70.5528 
L 176.579818 70.5528 
L 176.711124 67.1112 
L 176.84243 67.1112 
L 176.973737 73.9944 
L 177.367655 73.9944 
L 177.498961 70.5528 
L 178.418105 70.5528 
L 178.549411 77.436 
L 178.680717 77.436 
L 178.812023 73.9944 
L 178.943329 73.9944 
L 179.074636 77.436 
L 179.205942 77.436 
L 179.337248 73.9944 
L 179.468554 73.9944 
L 179.59986 77.436 
L 179.993779 77.436 
L 180.125085 73.9944 
L 180.256391 73.9944 
L 180.387697 77.436 
L 180.519004 77.436 
L 180.65031 70.5528 
L 180.781616 70.5528 
L 180.912922 77.436 
L 181.832065 77.436 
L 181.963372 73.9944 
L 182.094678 73.9944 
L 182.225984 80.8776 
L 182.35729 80.8776 
L 182.488596 73.9944 
L 182.619903 73.9944 
L 182.751209 80.8776 
L 182.882515 80.8776 
L 183.013821 77.436 
L 183.145127 77.436 
L 183.276433 73.9944 
L 183.40774 73.9944 
L 183.539046 77.436 
L 184.458189 77.436 
L 184.589495 80.8776 
L 184.720802 80.8776 
L 184.852108 77.436 
L 184.983414 77.436 
L 185.11472 80.8776 
L 185.246026 80.8776 
L 185.377332 77.436 
L 185.771251 77.436 
L 185.902557 80.8776 
L 186.821701 80.8776 
L 186.953007 84.3192 
L 187.084313 84.3192 
L 187.215619 80.8776 
L 187.87215 80.8776 
L 188.003456 84.3192 
L 188.134762 84.3192 
L 188.266069 87.7608 
L 188.397375 87.7608 
L 188.528681 84.3192 
L 188.659987 84.3192 
L 188.791293 80.8776 
L 188.9226 80.8776 
L 189.053906 84.3192 
L 189.710437 84.3192 
L 189.841743 87.7608 
L 189.973049 87.7608 
L 190.104355 84.3192 
L 190.235661 84.3192 
L 190.366968 87.7608 
L 190.760886 87.7608 
L 190.892192 84.3192 
L 191.023498 84.3192 
L 191.154805 87.7608 
L 191.286111 87.7608 
L 191.417417 84.3192 
L 191.548723 84.3192 
L 191.680029 87.7608 
L 191.811336 87.7608 
L 191.942642 91.2024 
L 192.33656 91.2024 
L 192.467867 87.7608 
L 192.599173 87.7608 
L 192.730479 91.2024 
L 193.124397 91.2024 
L 193.255704 84.3192 
L 194.174847 84.3192 
L 194.306153 87.7608 
L 194.437459 87.7608 
L 194.568766 80.8776 
L 194.700072 80.8776 
L 194.831378 87.7608 
L 194.962684 87.7608 
L 195.09399 84.3192 
L 195.750521 84.3192 
L 195.881827 87.7608 
L 196.013134 87.7608 
L 196.14444 84.3192 
L 197.326195 84.3192 
L 197.457502 87.7608 
L 197.588808 87.7608 
L 197.720114 84.3192 
L 199.164482 84.3192 
L 199.295788 91.2024 
L 199.427094 91.2024 
L 199.558401 87.7608 
L 199.689707 87.7608 
L 199.821013 84.3192 
L 199.952319 84.3192 
L 200.083625 80.8776 
L 200.214932 80.8776 
L 200.346238 87.7608 
L 200.740156 87.7608 
L 200.871462 84.3192 
L 201.002769 84.3192 
L 201.134075 87.7608 
L 201.265381 87.7608 
L 201.396687 84.3192 
L 201.527993 84.3192 
L 201.6593 91.2024 
L 201.790606 91.2024 
L 201.921912 87.7608 
L 202.053218 87.7608 
L 202.184524 91.2024 
L 202.578443 91.2024 
L 202.709749 94.644 
L 202.841055 94.644 
L 202.972361 87.7608 
L 203.103668 87.7608 
L 203.234974 91.2024 
L 204.154117 91.2024 
L 204.285423 94.644 
L 204.416729 94.644 
L 204.548036 98.0856 
L 204.679342 98.0856 
L 204.810648 94.644 
L 204.941954 94.644 
L 205.07326 98.0856 
L 205.467179 98.0856 
L 205.598485 101.5272 
L 205.992404 101.5272 
L 206.12371 98.0856 
L 206.255016 98.0856 
L 206.386322 101.5272 
L 206.517628 101.5272 
L 206.648935 104.9688 
L 206.780241 104.9688 
L 206.911547 101.5272 
L 207.042853 101.5272 
L 207.174159 104.9688 
L 208.093303 104.9688 
L 208.224609 108.4104 
L 210.719426 108.4104 
L 210.850733 111.852 
L 212.295101 111.852 
L 212.426407 115.2936 
L 212.557713 115.2936 
L 212.689019 118.7352 
L 212.820325 118.7352 
L 212.951632 115.2936 
L 213.082938 115.2936 
L 213.214244 122.1768 
L 213.34555 122.1768 
L 213.476856 118.7352 
L 213.608163 118.7352 
L 213.739469 122.1768 
L 213.870775 122.1768 
L 214.002081 118.7352 
L 214.396 118.7352 
L 214.527306 122.1768 
L 214.658612 122.1768 
L 214.789918 118.7352 
L 214.921224 118.7352 
L 215.052531 122.1768 
L 215.183837 122.1768 
L 215.315143 118.7352 
L 215.446449 118.7352 
L 215.577755 122.1768 
L 216.234286 122.1768 
L 216.365592 125.6184 
L 216.496899 125.6184 
L 216.628205 118.7352 
L 216.759511 118.7352 
L 216.890817 122.1768 
L 217.80996 122.1768 
L 217.941267 118.7352 
L 218.86041 118.7352 
L 218.991716 125.6184 
L 219.123022 125.6184 
L 219.254329 122.1768 
L 219.385635 122.1768 
L 219.516941 118.7352 
L 219.648247 118.7352 
L 219.779553 122.1768 
L 220.173472 122.1768 
L 220.304778 125.6184 
L 220.698697 125.6184 
L 220.830003 122.1768 
L 220.961309 122.1768 
L 221.092615 125.6184 
L 221.486534 125.6184 
L 221.61784 122.1768 
L 222.011758 122.1768 
L 222.143065 125.6184 
L 222.274371 125.6184 
L 222.405677 129.06 
L 222.536983 129.06 
L 222.668289 122.1768 
L 222.799596 122.1768 
L 222.930902 129.06 
L 223.062208 129.06 
L 223.193514 122.1768 
L 223.32482 122.1768 
L 223.456126 125.6184 
L 224.112657 125.6184 
L 224.243964 122.1768 
L 224.37527 122.1768 
L 224.506576 125.6184 
L 224.637882 125.6184 
L 224.769188 132.5016 
L 224.900495 132.5016 
L 225.031801 125.6184 
L 225.163107 125.6184 
L 225.294413 122.1768 
L 225.425719 122.1768 
L 225.557025 125.6184 
L 225.688332 125.6184 
L 225.819638 129.06 
L 226.213556 129.06 
L 226.344863 125.6184 
L 226.476169 125.6184 
L 226.607475 129.06 
L 226.738781 129.06 
L 226.870087 122.1768 
L 227.001394 122.1768 
L 227.1327 129.06 
L 227.264006 129.06 
L 227.395312 125.6184 
L 227.789231 125.6184 
L 227.920537 129.06 
L 228.051843 129.06 
L 228.183149 125.6184 
L 228.577068 125.6184 
L 228.708374 129.06 
L 228.83968 129.06 
L 228.970986 125.6184 
L 229.102292 125.6184 
L 229.233599 122.1768 
L 229.364905 122.1768 
L 229.496211 129.06 
L 230.152742 129.06 
L 230.284048 132.5016 
L 230.415354 132.5016 
L 230.546661 129.06 
L 230.940579 129.06 
L 231.071885 132.5016 
L 231.203191 132.5016 
L 231.334498 129.06 
L 231.991029 129.06 
L 232.122335 125.6184 
L 232.253641 125.6184 
L 232.384947 129.06 
L 232.778866 129.06 
L 232.910172 125.6184 
L 233.566703 125.6184 
L 233.698009 129.06 
L 234.35454 129.06 
L 234.485846 125.6184 
L 234.617152 125.6184 
L 234.748458 129.06 
L 234.879765 129.06 
L 235.011071 125.6184 
L 235.142377 125.6184 
L 235.273683 129.06 
L 235.667602 129.06 
L 235.798908 125.6184 
L 235.930214 125.6184 
L 236.06152 122.1768 
L 236.192827 122.1768 
L 236.324133 125.6184 
L 236.718051 125.6184 
L 236.849357 122.1768 
L 236.980664 122.1768 
L 237.11197 125.6184 
L 237.505888 125.6184 
L 237.637195 122.1768 
L 237.768501 122.1768 
L 237.899807 125.6184 
L 238.293726 125.6184 
L 238.425032 129.06 
L 238.556338 129.06 
L 238.687644 125.6184 
L 239.081563 125.6184 
L 239.212869 129.06 
L 239.606787 129.06 
L 239.738094 125.6184 
L 241.970299 125.6184 
L 242.101605 129.06 
L 242.232911 129.06 
L 242.364217 125.6184 
L 242.495523 125.6184 
L 242.62683 129.06 
L 243.020748 129.06 
L 243.152054 132.5016 
L 243.283361 132.5016 
L 243.414667 125.6184 
L 243.545973 125.6184 
L 243.677279 129.06 
L 243.808585 129.06 
L 243.939892 125.6184 
L 244.071198 125.6184 
L 244.202504 129.06 
L 244.33381 129.06 
L 244.465116 125.6184 
L 244.859035 125.6184 
L 244.990341 129.06 
L 245.646872 129.06 
L 245.778178 132.5016 
L 245.909484 132.5016 
L 246.040791 135.9432 
L 246.172097 135.9432 
L 246.303403 132.5016 
L 246.697321 132.5016 
L 246.828628 129.06 
L 246.959934 129.06 
L 247.09124 132.5016 
L 247.222546 132.5016 
L 247.353852 129.06 
L 247.485159 129.06 
L 247.616465 132.5016 
L 248.010383 132.5016 
L 248.141689 135.9432 
L 249.060833 135.9432 
L 249.192139 139.3848 
L 249.323445 139.3848 
L 249.454751 135.9432 
L 249.586058 135.9432 
L 249.717364 139.3848 
L 249.84867 139.3848 
L 249.979976 135.9432 
L 250.111282 135.9432 
L 250.242588 142.8264 
L 250.636507 142.8264 
L 250.767813 139.3848 
L 250.899119 139.3848 
L 251.030426 146.268 
L 251.161732 146.268 
L 251.293038 142.8264 
L 251.424344 142.8264 
L 251.55565 146.268 
L 251.949569 146.268 
L 252.080875 142.8264 
L 252.474794 142.8264 
L 252.6061 146.268 
L 252.737406 146.268 
L 252.868712 142.8264 
L 253.000018 142.8264 
L 253.131325 146.268 
L 253.525243 146.268 
L 253.656549 142.8264 
L 253.787856 142.8264 
L 253.919162 146.268 
L 254.050468 146.268 
L 254.181774 149.7096 
L 254.31308 149.7096 
L 254.444386 146.268 
L 255.100917 146.268 
L 255.232224 149.7096 
L 255.36353 149.7096 
L 255.494836 146.268 
L 255.626142 146.268 
L 255.757448 149.7096 
L 256.413979 149.7096 
L 256.545285 153.1512 
L 256.676592 153.1512 
L 256.807898 149.7096 
L 256.939204 149.7096 
L 257.07051 146.268 
L 257.201816 146.268 
L 257.333123 149.7096 
L 257.464429 149.7096 
L 257.595735 153.1512 
L 258.252266 153.1512 
L 258.383572 156.5928 
L 258.514878 156.5928 
L 258.646184 163.476 
L 258.777491 163.476 
L 258.908797 160.0344 
L 259.040103 160.0344 
L 259.171409 163.476 
L 259.302715 163.476 
L 259.434022 166.9176 
L 259.565328 166.9176 
L 259.696634 163.476 
L 261.141002 163.476 
L 261.272308 166.9176 
L 261.403614 166.9176 
L 261.53492 163.476 
L 262.716676 163.476 
L 262.847982 160.0344 
L 262.979289 160.0344 
L 263.110595 166.9176 
L 263.241901 166.9176 
L 263.373207 163.476 
L 263.767126 163.476 
L 263.898432 166.9176 
L 264.29235 166.9176 
L 264.423657 160.0344 
L 264.554963 160.0344 
L 264.686269 163.476 
L 265.3428 163.476 
L 265.474106 166.9176 
L 265.868025 166.9176 
L 265.999331 173.8008 
L 266.130637 173.8008 
L 266.261943 166.9176 
L 266.393249 166.9176 
L 266.524556 170.3592 
L 266.655862 170.3592 
L 266.787168 177.2424 
L 266.918474 177.2424 
L 267.04978 170.3592 
L 267.706311 170.3592 
L 267.837617 166.9176 
L 267.968924 166.9176 
L 268.10023 170.3592 
L 268.494148 170.3592 
L 268.625455 177.2424 
L 268.756761 177.2424 
L 268.888067 173.8008 
L 269.019373 173.8008 
L 269.150679 170.3592 
L 269.281985 170.3592 
L 269.413292 173.8008 
L 270.069823 173.8008 
L 270.201129 170.3592 
L 270.332435 170.3592 
L 270.463741 173.8008 
L 270.85766 173.8008 
L 270.988966 177.2424 
L 271.120272 177.2424 
L 271.251578 173.8008 
L 271.382884 173.8008 
L 271.514191 177.2424 
L 272.170722 177.2424 
L 272.302028 173.8008 
L 272.433334 173.8008 
L 272.56464 177.2424 
L 272.695946 177.2424 
L 272.827253 180.684 
L 272.958559 180.684 
L 273.089865 173.8008 
L 273.221171 173.8008 
L 273.352477 177.2424 
L 273.746396 177.2424 
L 273.877702 180.684 
L 274.271621 180.684 
L 274.402927 184.1256 
L 275.32207 184.1256 
L 275.453376 180.684 
L 275.847295 180.684 
L 275.978601 184.1256 
L 276.109907 184.1256 
L 276.241213 180.684 
L 277.160357 180.684 
L 277.291663 177.2424 
L 277.422969 177.2424 
L 277.554275 180.684 
L 277.685581 180.684 
L 277.816888 177.2424 
L 279.261256 177.2424 
L 279.392562 180.684 
L 279.523868 180.684 
L 279.655174 177.2424 
L 280.049093 177.2424 
L 280.180399 180.684 
L 280.311705 180.684 
L 280.443011 173.8008 
L 280.83693 173.8008 
L 280.968236 177.2424 
L 281.887379 177.2424 
L 282.018686 173.8008 
L 282.149992 173.8008 
L 282.281298 170.3592 
L 282.412604 170.3592 
L 282.54391 173.8008 
L 282.675216 173.8008 
L 282.806523 170.3592 
L 282.937829 170.3592 
L 283.069135 166.9176 
L 283.200441 166.9176 
L 283.331747 170.3592 
L 283.463054 170.3592 
L 283.59436 173.8008 
L 283.725666 173.8008 
L 283.856972 177.2424 
L 283.988278 177.2424 
L 284.119585 170.3592 
L 284.250891 170.3592 
L 284.382197 173.8008 
L 284.513503 173.8008 
L 284.644809 170.3592 
L 284.776115 170.3592 
L 284.907422 173.8008 
L 285.038728 173.8008 
L 285.170034 177.2424 
L 285.30134 177.2424 
L 285.432646 180.684 
L 285.563953 180.684 
L 285.695259 177.2424 
L 286.614402 177.2424 
L 286.745708 180.684 
L 286.877014 180.684 
L 287.008321 177.2424 
L 287.402239 177.2424 
L 287.533545 173.8008 
L 287.927464 173.8008 
L 288.05877 170.3592 
L 288.190076 170.3592 
L 288.321382 177.2424 
L 288.452689 177.2424 
L 288.583995 173.8008 
L 290.028363 173.8008 
L 290.159669 166.9176 
L 290.290975 166.9176 
L 290.422281 170.3592 
L 290.553588 170.3592 
L 290.684894 166.9176 
L 291.604037 166.9176 
L 291.735343 163.476 
L 292.129262 163.476 
L 292.260568 166.9176 
L 292.391874 166.9176 
L 292.52318 163.476 
L 292.654487 163.476 
L 292.785793 166.9176 
L 292.917099 166.9176 
L 293.048405 163.476 
L 293.179711 163.476 
L 293.311018 166.9176 
L 294.492773 166.9176 
L 294.624079 163.476 
L 295.017998 163.476 
L 295.149304 166.9176 
L 295.28061 166.9176 
L 295.411917 170.3592 
L 295.543223 170.3592 
L 295.674529 166.9176 
L 296.068447 166.9176 
L 296.199754 163.476 
L 296.593672 163.476 
L 296.724978 166.9176 
L 297.381509 166.9176 
L 297.512816 163.476 
L 297.644122 163.476 
L 297.775428 166.9176 
L 298.694571 166.9176 
L 298.825877 163.476 
L 298.957184 163.476 
L 299.08849 170.3592 
L 299.219796 170.3592 
L 299.351102 166.9176 
L 300.007633 166.9176 
L 300.138939 170.3592 
L 300.270245 170.3592 
L 300.401552 166.9176 
L 300.79547 166.9176 
L 300.926776 170.3592 
L 301.583307 170.3592 
L 301.714613 173.8008 
L 301.84592 173.8008 
L 301.977226 170.3592 
L 302.633757 170.3592 
L 302.765063 177.2424 
L 302.896369 177.2424 
L 303.027675 173.8008 
L 303.421594 173.8008 
L 303.5529 170.3592 
L 303.684206 170.3592 
L 303.815512 173.8008 
L 303.946819 173.8008 
L 304.078125 177.2424 
L 304.209431 177.2424 
L 304.340737 173.8008 
L 304.997268 173.8008 
L 305.128574 170.3592 
L 305.259881 170.3592 
L 305.391187 177.2424 
L 307.623392 177.2424 
L 307.754698 173.8008 
L 307.886004 173.8008 
L 308.01731 177.2424 
L 308.936454 177.2424 
L 309.06776 170.3592 
L 309.199066 170.3592 
L 309.330372 173.8008 
L 309.461678 173.8008 
L 309.592985 177.2424 
L 309.986903 177.2424 
L 310.118209 173.8008 
L 310.249516 173.8008 
L 310.380822 177.2424 
L 310.512128 177.2424 
L 310.643434 173.8008 
L 311.037353 173.8008 
L 311.168659 170.3592 
L 311.299965 170.3592 
L 311.431271 173.8008 
L 311.562577 173.8008 
L 311.693884 170.3592 
L 312.087802 170.3592 
L 312.219108 177.2424 
L 312.350415 177.2424 
L 312.481721 173.8008 
L 312.613027 173.8008 
L 312.744333 170.3592 
L 312.875639 170.3592 
L 313.006945 177.2424 
L 313.138252 177.2424 
L 313.269558 170.3592 
L 313.400864 170.3592 
L 313.53217 177.2424 
L 313.926089 177.2424 
L 314.057395 170.3592 
L 314.188701 170.3592 
L 314.320007 173.8008 
L 314.451314 173.8008 
L 314.58262 170.3592 
L 314.713926 170.3592 
L 314.845232 173.8008 
L 315.764375 173.8008 
L 315.895682 170.3592 
L 316.026988 170.3592 
L 316.158294 173.8008 
L 316.552213 173.8008 
L 316.683519 170.3592 
L 317.34005 170.3592 
L 317.471356 173.8008 
L 318.653111 173.8008 
L 318.784418 180.684 
L 318.915724 180.684 
L 319.04703 173.8008 
L 319.178336 173.8008 
L 319.309642 177.2424 
L 320.228786 177.2424 
L 320.360092 173.8008 
L 320.491398 173.8008 
L 320.622704 177.2424 
L 320.75401 177.2424 
L 320.885317 180.684 
L 321.016623 180.684 
L 321.147929 177.2424 
L 321.80446 177.2424 
L 321.935766 180.684 
L 322.067072 180.684 
L 322.198379 177.2424 
L 323.117522 177.2424 
L 323.248828 170.3592 
L 323.380134 170.3592 
L 323.51144 177.2424 
L 323.642747 177.2424 
L 323.774053 170.3592 
L 323.905359 170.3592 
L 324.036665 173.8008 
L 324.167971 173.8008 
L 324.299278 170.3592 
L 324.430584 170.3592 
L 324.56189 166.9176 
L 324.693196 166.9176 
L 324.824502 180.684 
L 324.955808 180.684 
L 325.087115 177.2424 
L 325.218421 177.2424 
L 325.349727 187.5672 
L 325.481033 187.5672 
L 325.612339 197.892 
L 326.006258 197.892 
L 326.137564 201.3336 
L 326.26887 201.3336 
L 326.400176 204.7752 
L 326.531483 204.7752 
L 326.662789 211.6584 
L 326.794095 211.6584 
L 326.925401 208.2168 
L 327.056707 208.2168 
L 327.188014 211.6584 
L 327.31932 211.6584 
L 327.450626 218.5416 
L 327.581932 218.5416 
L 327.713238 221.9832 
L 328.107157 221.9832 
L 328.238463 228.8664 
L 328.369769 228.8664 
L 328.501075 225.4248 
L 328.632382 225.4248 
L 328.763688 228.8664 
L 328.894994 228.8664 
L 329.0263 235.7496 
L 329.157606 235.7496 
L 329.288913 232.308 
L 329.420219 232.308 
L 329.551525 239.1912 
L 329.682831 239.1912 
L 329.814137 235.7496 
L 330.470668 235.7496 
L 330.601974 232.308 
L 330.733281 232.308 
L 330.864587 235.7496 
L 330.995893 235.7496 
L 331.127199 239.1912 
L 331.258505 239.1912 
L 331.389812 235.7496 
L 331.521118 235.7496 
L 331.652424 239.1912 
L 331.78373 239.1912 
L 331.915036 246.0744 
L 332.046342 246.0744 
L 332.177649 249.516 
L 332.308955 249.516 
L 332.440261 246.0744 
L 332.571567 246.0744 
L 332.702873 252.9576 
L 332.83418 252.9576 
L 332.965486 249.516 
L 333.096792 249.516 
L 333.228098 246.0744 
L 333.622017 246.0744 
L 333.753323 249.516 
L 333.884629 249.516 
L 334.015935 246.0744 
L 334.935079 246.0744 
L 335.066385 249.516 
L 335.197691 249.516 
L 335.328997 242.6328 
L 335.460303 242.6328 
L 335.59161 246.0744 
L 335.985528 246.0744 
L 336.116834 249.516 
L 336.24814 249.516 
L 336.379447 246.0744 
L 336.773365 246.0744 
L 336.904671 249.516 
L 337.035978 249.516 
L 337.167284 252.9576 
L 337.29859 252.9576 
L 337.429896 246.0744 
L 337.823815 246.0744 
L 337.955121 252.9576 
L 338.086427 252.9576 
L 338.217733 256.3992 
L 338.611652 256.3992 
L 338.742958 259.8408 
L 338.874264 259.8408 
L 339.00557 263.2824 
L 339.136877 263.2824 
L 339.268183 256.3992 
L 339.399489 256.3992 
L 339.530795 259.8408 
L 339.662101 259.8408 
L 339.793407 252.9576 
L 339.924714 252.9576 
L 340.05602 256.3992 
L 340.187326 256.3992 
L 340.318632 252.9576 
L 340.449938 252.9576 
L 340.581245 256.3992 
L 340.712551 256.3992 
L 340.843857 252.9576 
L 341.237776 252.9576 
L 341.369082 256.3992 
L 341.500388 256.3992 
L 341.631694 252.9576 
L 342.550837 252.9576 
L 342.682144 256.3992 
L 342.81345 256.3992 
L 342.944756 249.516 
L 343.338675 249.516 
L 343.469981 252.9576 
L 344.126512 252.9576 
L 344.257818 249.516 
L 344.389124 249.516 
L 344.52043 252.9576 
L 344.651736 252.9576 
L 344.783043 249.516 
L 345.439573 249.516 
L 345.57088 246.0744 
L 345.964798 246.0744 
L 346.096104 252.9576 
L 346.227411 252.9576 
L 346.358717 249.516 
L 346.752635 249.516 
L 346.883942 252.9576 
L 347.015248 252.9576 
L 347.146554 256.3992 
L 347.27786 256.3992 
L 347.409166 252.9576 
L 347.540472 252.9576 
L 347.671779 259.8408 
L 347.803085 259.8408 
L 347.934391 252.9576 
L 348.065697 252.9576 
L 348.197003 249.516 
L 348.590922 249.516 
L 348.722228 246.0744 
L 348.853534 246.0744 
L 348.984841 242.6328 
L 349.378759 242.6328 
L 349.510065 239.1912 
L 349.903984 239.1912 
L 350.03529 246.0744 
L 350.429209 246.0744 
L 350.560515 242.6328 
L 350.691821 242.6328 
L 350.823127 246.0744 
L 351.217046 246.0744 
L 351.348352 242.6328 
L 351.74227 242.6328 
L 351.873577 246.0744 
L 352.004883 246.0744 
L 352.136189 242.6328 
L 352.79272 242.6328 
L 352.924026 246.0744 
L 353.055332 246.0744 
L 353.186638 242.6328 
L 353.580557 242.6328 
L 353.711863 239.1912 
L 353.843169 239.1912 
L 353.974476 242.6328 
L 354.105782 242.6328 
L 354.237088 239.1912 
L 354.631007 239.1912 
L 354.762313 242.6328 
L 354.893619 242.6328 
L 355.024925 239.1912 
L 356.206681 239.1912 
L 356.337987 235.7496 
L 356.731906 235.7496 
L 356.863212 232.308 
L 356.994518 232.308 
L 357.125824 228.8664 
L 357.25713 228.8664 
L 357.388436 232.308 
L 357.782355 232.308 
L 357.913661 228.8664 
L 358.30758 228.8664 
L 358.438886 221.9832 
L 359.883254 221.9832 
L 360.01456 218.5416 
L 360.145866 218.5416 
L 360.277173 221.9832 
L 360.671091 221.9832 
L 360.802397 218.5416 
L 361.458928 218.5416 
L 361.590234 221.9832 
L 361.721541 221.9832 
L 361.852847 215.1 
L 361.984153 215.1 
L 362.115459 218.5416 
L 362.509378 218.5416 
L 362.640684 221.9832 
L 362.77199 221.9832 
L 362.903296 215.1 
L 364.347664 215.1 
L 364.47897 218.5416 
L 365.398114 218.5416 
L 365.52942 215.1 
L 365.660726 215.1 
L 365.792032 218.5416 
L 366.185951 218.5416 
L 366.317257 221.9832 
L 366.448563 221.9832 
L 366.579869 218.5416 
L 367.2364 218.5416 
L 367.367707 211.6584 
L 367.499013 211.6584 
L 367.630319 215.1 
L 368.28685 215.1 
L 368.418156 211.6584 
L 368.549462 211.6584 
L 368.680768 218.5416 
L 368.812075 218.5416 
L 368.943381 215.1 
L 369.337299 215.1 
L 369.468606 221.9832 
L 370.387749 221.9832 
L 370.519055 225.4248 
L 370.650361 225.4248 
L 370.781667 228.8664 
L 371.175586 228.8664 
L 371.306892 225.4248 
L 371.438198 225.4248 
L 371.569505 221.9832 
L 372.226035 221.9832 
L 372.357342 218.5416 
L 372.75126 218.5416 
L 372.882566 215.1 
L 373.013873 215.1 
L 373.145179 218.5416 
L 373.539097 218.5416 
L 373.670404 211.6584 
L 374.064322 211.6584 
L 374.195628 215.1 
L 374.326934 215.1 
L 374.458241 204.7752 
L 374.589547 204.7752 
L 374.720853 201.3336 
L 374.852159 201.3336 
L 374.983465 197.892 
L 375.114772 197.892 
L 375.246078 201.3336 
L 375.902609 201.3336 
L 376.033915 204.7752 
L 376.165221 204.7752 
L 376.296527 211.6584 
L 376.953058 211.6584 
L 377.084364 215.1 
L 377.740895 215.1 
L 377.872201 211.6584 
L 378.003508 211.6584 
L 378.134814 215.1 
L 378.791345 215.1 
L 378.922651 211.6584 
L 379.053957 211.6584 
L 379.185263 208.2168 
L 379.841794 208.2168 
L 379.9731 204.7752 
L 380.104407 204.7752 
L 380.235713 201.3336 
L 380.629631 201.3336 
L 380.760938 194.4504 
L 381.154856 194.4504 
L 381.286162 191.0088 
L 381.680081 191.0088 
L 381.811387 187.5672 
L 382.205306 187.5672 
L 382.336612 184.1256 
L 382.467918 184.1256 
L 382.599224 180.684 
L 382.73053 180.684 
L 382.861837 177.2424 
L 382.993143 177.2424 
L 383.124449 180.684 
L 383.518367 180.684 
L 383.649674 177.2424 
L 383.78098 177.2424 
L 383.912286 173.8008 
L 384.043592 173.8008 
L 384.174898 177.2424 
L 385.094042 177.2424 
L 385.225348 173.8008 
L 385.356654 173.8008 
L 385.48796 177.2424 
L 385.881879 177.2424 
L 386.013185 170.3592 
L 386.144491 170.3592 
L 386.275797 166.9176 
L 386.669716 166.9176 
L 386.801022 163.476 
L 386.932328 163.476 
L 387.063635 166.9176 
L 387.194941 166.9176 
L 387.326247 170.3592 
L 387.457553 170.3592 
L 387.588859 177.2424 
L 387.720165 177.2424 
L 387.851472 180.684 
L 388.770615 180.684 
L 388.901921 184.1256 
L 389.29584 184.1256 
L 389.427146 180.684 
L 390.608902 180.684 
L 390.740208 177.2424 
L 391.659351 177.2424 
L 391.790657 180.684 
L 392.184576 180.684 
L 392.315882 177.2424 
L 392.972413 177.2424 
L 393.103719 180.684 
L 393.235025 180.684 
L 393.366331 177.2424 
L 393.497638 177.2424 
L 393.628944 184.1256 
L 393.76025 184.1256 
L 393.891556 180.684 
L 394.285475 180.684 
L 394.416781 177.2424 
L 394.548087 177.2424 
L 394.679393 173.8008 
L 394.8107 173.8008 
L 394.942006 170.3592 
L 395.073312 170.3592 
L 395.204618 173.8008 
L 395.861149 173.8008 
L 395.992455 177.2424 
L 396.386374 177.2424 
L 396.51768 173.8008 
L 396.648986 173.8008 
L 396.780292 177.2424 
L 396.911598 177.2424 
L 397.042905 173.8008 
L 397.174211 173.8008 
L 397.305517 170.3592 
L 397.436823 170.3592 
L 397.568129 173.8008 
L 397.699436 173.8008 
L 397.830742 177.2424 
L 397.962048 177.2424 
L 398.093354 184.1256 
L 398.487273 184.1256 
L 398.487273 184.1256 
" style="fill:none;stroke:#1f77b4;stroke-linecap:square;stroke-width:1.5;"/>
   </g>
   <g id="patch_3">
    <path d="M 57.6 306.3024 
L 57.6 41.2992 
" style="fill:none;stroke:#000000;stroke-linecap:square;stroke-linejoin:miter;stroke-width:0.8;"/>
   </g>
   <g id="patch_4">
    <path d="M 414.72 306.3024 
L 414.72 41.2992 
" style="fill:none;stroke:#000000;stroke-linecap:square;stroke-linejoin:miter;stroke-width:0.8;"/>
   </g>
   <g id="patch_5">
    <path d="M 57.6 306.3024 
L 414.72 306.3024 
" style="fill:none;stroke:#000000;stroke-linecap:square;stroke-linejoin:miter;stroke-width:0.8;"/>
   </g>
   <g id="patch_6">
    <path d="M 57.6 41.2992 
L 414.72 41.2992 
" style="fill:none;stroke:#000000;stroke-linecap:square;stroke-linejoin:miter;stroke-width:0.8;"/>
   </g>
   <g id="text_17">
    <!-- Tempertura -->
    <g transform="translate(200.709375 35.2992)scale(0.12 -0.12)">
     <use xlink:href="#DejaVuSans-84"/>
     <use x="60.818359" xlink:href="#DejaVuSans-101"/>
     <use x="122.341797" xlink:href="#DejaVuSans-109"/>
     <use x="219.753906" xlink:href="#DejaVuSans-112"/>
     <use x="283.230469" xlink:href="#DejaVuSans-101"/>
     <use x="344.753906" xlink:href="#DejaVuSans-114"/>
     <use x="385.867188" xlink:href="#DejaVuSans-116"/>
     <use x="425.076172" xlink:href="#DejaVuSans-117"/>
     <use x="488.455078" xlink:href="#DejaVuSans-114"/>
     <use x="529.568359" xlink:href="#DejaVuSans-97"/>
    </g>
   </g>
  </g>
 </g>
 <defs>
  <clipPath id="p78ec90a120">
   <rect height="265.0032" width="357.12" x="57.6" y="41.2992"/>
  </clipPath>
 </defs>
</svg>
