<?xml version="1.0" encoding="utf-8" standalone="no"?>
<!DOCTYPE svg PUBLIC "-//W3C//DTD SVG 1.1//EN"
  "http://www.w3.org/Graphics/SVG/1.1/DTD/svg11.dtd">
<!-- Created with matplotlib (https://matplotlib.org/) -->
<svg height="344.16pt" version="1.1" viewBox="0 0 460.8 344.16" width="460.8pt" xmlns="http://www.w3.org/2000/svg" xmlns:xlink="http://www.w3.org/1999/xlink">
 <defs>
  <style type="text/css">
*{stroke-linecap:butt;stroke-linejoin:round;}
  </style>
 </defs>
 <g id="figure_1">
  <g id="patch_1">
   <path d="M 0 344.16 
L 460.8 344.16 
L 460.8 0 
L 0 0 
z
" style="fill:#ffffff;"/>
  </g>
  <g id="axes_1">
   <g id="patch_2">
    <path d="M 57.6 306.3024 
L 414.72 306.3024 
L 414.72 41.2992 
L 57.6 41.2992 
z
" style="fill:#ffffff;"/>
   </g>
   <g id="matplotlib.axis_1">
    <g id="xtick_1">
     <g id="line2d_1">
      <defs>
       <path d="M 0 0 
L 0 3.5 
" id="mec7efac5f5" style="stroke:#000000;stroke-width:0.8;"/>
      </defs>
      <g>
       <use style="stroke:#000000;stroke-width:0.8;" x="73.832727" xlink:href="#mec7efac5f5" y="306.3024"/>
      </g>
     </g>
     <g id="text_1">
      <!-- 0 -->
      <defs>
       <path d="M 31.78125 66.40625 
Q 24.171875 66.40625 20.328125 58.90625 
Q 16.5 51.421875 16.5 36.375 
Q 16.5 21.390625 20.328125 13.890625 
Q 24.171875 6.390625 31.78125 6.390625 
Q 39.453125 6.390625 43.28125 13.890625 
Q 47.125 21.390625 47.125 36.375 
Q 47.125 51.421875 43.28125 58.90625 
Q 39.453125 66.40625 31.78125 66.40625 
z
M 31.78125 74.21875 
Q 44.046875 74.21875 50.515625 64.515625 
Q 56.984375 54.828125 56.984375 36.375 
Q 56.984375 17.96875 50.515625 8.265625 
Q 44.046875 -1.421875 31.78125 -1.421875 
Q 19.53125 -1.421875 13.0625 8.265625 
Q 6.59375 17.96875 6.59375 36.375 
Q 6.59375 54.828125 13.0625 64.515625 
Q 19.53125 74.21875 31.78125 74.21875 
z
" id="DejaVuSans-48"/>
      </defs>
      <g transform="translate(70.651477 320.900838)scale(0.1 -0.1)">
       <use xlink:href="#DejaVuSans-48"/>
      </g>
     </g>
    </g>
    <g id="xtick_2">
     <g id="line2d_2">
      <g>
       <use style="stroke:#000000;stroke-width:0.8;" x="115.59431" xlink:href="#mec7efac5f5" y="306.3024"/>
      </g>
     </g>
     <g id="text_2">
      <!-- 2000 -->
      <defs>
       <path d="M 19.1875 8.296875 
L 53.609375 8.296875 
L 53.609375 0 
L 7.328125 0 
L 7.328125 8.296875 
Q 12.9375 14.109375 22.625 23.890625 
Q 32.328125 33.6875 34.8125 36.53125 
Q 39.546875 41.84375 41.421875 45.53125 
Q 43.3125 49.21875 43.3125 52.78125 
Q 43.3125 58.59375 39.234375 62.25 
Q 35.15625 65.921875 28.609375 65.921875 
Q 23.96875 65.921875 18.8125 64.3125 
Q 13.671875 62.703125 7.8125 59.421875 
L 7.8125 69.390625 
Q 13.765625 71.78125 18.9375 73 
Q 24.125 74.21875 28.421875 74.21875 
Q 39.75 74.21875 46.484375 68.546875 
Q 53.21875 62.890625 53.21875 53.421875 
Q 53.21875 48.921875 51.53125 44.890625 
Q 49.859375 40.875 45.40625 35.40625 
Q 44.1875 33.984375 37.640625 27.21875 
Q 31.109375 20.453125 19.1875 8.296875 
z
" id="DejaVuSans-50"/>
      </defs>
      <g transform="translate(102.86931 320.900838)scale(0.1 -0.1)">
       <use xlink:href="#DejaVuSans-50"/>
       <use x="63.623047" xlink:href="#DejaVuSans-48"/>
       <use x="127.246094" xlink:href="#DejaVuSans-48"/>
       <use x="190.869141" xlink:href="#DejaVuSans-48"/>
      </g>
     </g>
    </g>
    <g id="xtick_3">
     <g id="line2d_3">
      <g>
       <use style="stroke:#000000;stroke-width:0.8;" x="157.355893" xlink:href="#mec7efac5f5" y="306.3024"/>
      </g>
     </g>
     <g id="text_3">
      <!-- 4000 -->
      <defs>
       <path d="M 37.796875 64.3125 
L 12.890625 25.390625 
L 37.796875 25.390625 
z
M 35.203125 72.90625 
L 47.609375 72.90625 
L 47.609375 25.390625 
L 58.015625 25.390625 
L 58.015625 17.1875 
L 47.609375 17.1875 
L 47.609375 0 
L 37.796875 0 
L 37.796875 17.1875 
L 4.890625 17.1875 
L 4.890625 26.703125 
z
" id="DejaVuSans-52"/>
      </defs>
      <g transform="translate(144.630893 320.900838)scale(0.1 -0.1)">
       <use xlink:href="#DejaVuSans-52"/>
       <use x="63.623047" xlink:href="#DejaVuSans-48"/>
       <use x="127.246094" xlink:href="#DejaVuSans-48"/>
       <use x="190.869141" xlink:href="#DejaVuSans-48"/>
      </g>
     </g>
    </g>
    <g id="xtick_4">
     <g id="line2d_4">
      <g>
       <use style="stroke:#000000;stroke-width:0.8;" x="199.117476" xlink:href="#mec7efac5f5" y="306.3024"/>
      </g>
     </g>
     <g id="text_4">
      <!-- 6000 -->
      <defs>
       <path d="M 33.015625 40.375 
Q 26.375 40.375 22.484375 35.828125 
Q 18.609375 31.296875 18.609375 23.390625 
Q 18.609375 15.53125 22.484375 10.953125 
Q 26.375 6.390625 33.015625 6.390625 
Q 39.65625 6.390625 43.53125 10.953125 
Q 47.40625 15.53125 47.40625 23.390625 
Q 47.40625 31.296875 43.53125 35.828125 
Q 39.65625 40.375 33.015625 40.375 
z
M 52.59375 71.296875 
L 52.59375 62.3125 
Q 48.875 64.0625 45.09375 64.984375 
Q 41.3125 65.921875 37.59375 65.921875 
Q 27.828125 65.921875 22.671875 59.328125 
Q 17.53125 52.734375 16.796875 39.40625 
Q 19.671875 43.65625 24.015625 45.921875 
Q 28.375 48.1875 33.59375 48.1875 
Q 44.578125 48.1875 50.953125 41.515625 
Q 57.328125 34.859375 57.328125 23.390625 
Q 57.328125 12.15625 50.6875 5.359375 
Q 44.046875 -1.421875 33.015625 -1.421875 
Q 20.359375 -1.421875 13.671875 8.265625 
Q 6.984375 17.96875 6.984375 36.375 
Q 6.984375 53.65625 15.1875 63.9375 
Q 23.390625 74.21875 37.203125 74.21875 
Q 40.921875 74.21875 44.703125 73.484375 
Q 48.484375 72.75 52.59375 71.296875 
z
" id="DejaVuSans-54"/>
      </defs>
      <g transform="translate(186.392476 320.900838)scale(0.1 -0.1)">
       <use xlink:href="#DejaVuSans-54"/>
       <use x="63.623047" xlink:href="#DejaVuSans-48"/>
       <use x="127.246094" xlink:href="#DejaVuSans-48"/>
       <use x="190.869141" xlink:href="#DejaVuSans-48"/>
      </g>
     </g>
    </g>
    <g id="xtick_5">
     <g id="line2d_5">
      <g>
       <use style="stroke:#000000;stroke-width:0.8;" x="240.879059" xlink:href="#mec7efac5f5" y="306.3024"/>
      </g>
     </g>
     <g id="text_5">
      <!-- 8000 -->
      <defs>
       <path d="M 31.78125 34.625 
Q 24.75 34.625 20.71875 30.859375 
Q 16.703125 27.09375 16.703125 20.515625 
Q 16.703125 13.921875 20.71875 10.15625 
Q 24.75 6.390625 31.78125 6.390625 
Q 38.8125 6.390625 42.859375 10.171875 
Q 46.921875 13.96875 46.921875 20.515625 
Q 46.921875 27.09375 42.890625 30.859375 
Q 38.875 34.625 31.78125 34.625 
z
M 21.921875 38.8125 
Q 15.578125 40.375 12.03125 44.71875 
Q 8.5 49.078125 8.5 55.328125 
Q 8.5 64.0625 14.71875 69.140625 
Q 20.953125 74.21875 31.78125 74.21875 
Q 42.671875 74.21875 48.875 69.140625 
Q 55.078125 64.0625 55.078125 55.328125 
Q 55.078125 49.078125 51.53125 44.71875 
Q 48 40.375 41.703125 38.8125 
Q 48.828125 37.15625 52.796875 32.3125 
Q 56.78125 27.484375 56.78125 20.515625 
Q 56.78125 9.90625 50.3125 4.234375 
Q 43.84375 -1.421875 31.78125 -1.421875 
Q 19.734375 -1.421875 13.25 4.234375 
Q 6.78125 9.90625 6.78125 20.515625 
Q 6.78125 27.484375 10.78125 32.3125 
Q 14.796875 37.15625 21.921875 38.8125 
z
M 18.3125 54.390625 
Q 18.3125 48.734375 21.84375 45.5625 
Q 25.390625 42.390625 31.78125 42.390625 
Q 38.140625 42.390625 41.71875 45.5625 
Q 45.3125 48.734375 45.3125 54.390625 
Q 45.3125 60.0625 41.71875 63.234375 
Q 38.140625 66.40625 31.78125 66.40625 
Q 25.390625 66.40625 21.84375 63.234375 
Q 18.3125 60.0625 18.3125 54.390625 
z
" id="DejaVuSans-56"/>
      </defs>
      <g transform="translate(228.154059 320.900838)scale(0.1 -0.1)">
       <use xlink:href="#DejaVuSans-56"/>
       <use x="63.623047" xlink:href="#DejaVuSans-48"/>
       <use x="127.246094" xlink:href="#DejaVuSans-48"/>
       <use x="190.869141" xlink:href="#DejaVuSans-48"/>
      </g>
     </g>
    </g>
    <g id="xtick_6">
     <g id="line2d_6">
      <g>
       <use style="stroke:#000000;stroke-width:0.8;" x="282.640642" xlink:href="#mec7efac5f5" y="306.3024"/>
      </g>
     </g>
     <g id="text_6">
      <!-- 10000 -->
      <defs>
       <path d="M 12.40625 8.296875 
L 28.515625 8.296875 
L 28.515625 63.921875 
L 10.984375 60.40625 
L 10.984375 69.390625 
L 28.421875 72.90625 
L 38.28125 72.90625 
L 38.28125 8.296875 
L 54.390625 8.296875 
L 54.390625 0 
L 12.40625 0 
z
" id="DejaVuSans-49"/>
      </defs>
      <g transform="translate(266.734392 320.900838)scale(0.1 -0.1)">
       <use xlink:href="#DejaVuSans-49"/>
       <use x="63.623047" xlink:href="#DejaVuSans-48"/>
       <use x="127.246094" xlink:href="#DejaVuSans-48"/>
       <use x="190.869141" xlink:href="#DejaVuSans-48"/>
       <use x="254.492188" xlink:href="#DejaVuSans-48"/>
      </g>
     </g>
    </g>
    <g id="xtick_7">
     <g id="line2d_7">
      <g>
       <use style="stroke:#000000;stroke-width:0.8;" x="324.402225" xlink:href="#mec7efac5f5" y="306.3024"/>
      </g>
     </g>
     <g id="text_7">
      <!-- 12000 -->
      <g transform="translate(308.495975 320.900838)scale(0.1 -0.1)">
       <use xlink:href="#DejaVuSans-49"/>
       <use x="63.623047" xlink:href="#DejaVuSans-50"/>
       <use x="127.246094" xlink:href="#DejaVuSans-48"/>
       <use x="190.869141" xlink:href="#DejaVuSans-48"/>
       <use x="254.492188" xlink:href="#DejaVuSans-48"/>
      </g>
     </g>
    </g>
    <g id="xtick_8">
     <g id="line2d_8">
      <g>
       <use style="stroke:#000000;stroke-width:0.8;" x="366.163808" xlink:href="#mec7efac5f5" y="306.3024"/>
      </g>
     </g>
     <g id="text_8">
      <!-- 14000 -->
      <g transform="translate(350.257558 320.900838)scale(0.1 -0.1)">
       <use xlink:href="#DejaVuSans-49"/>
       <use x="63.623047" xlink:href="#DejaVuSans-52"/>
       <use x="127.246094" xlink:href="#DejaVuSans-48"/>
       <use x="190.869141" xlink:href="#DejaVuSans-48"/>
       <use x="254.492188" xlink:href="#DejaVuSans-48"/>
      </g>
     </g>
    </g>
    <g id="xtick_9">
     <g id="line2d_9">
      <g>
       <use style="stroke:#000000;stroke-width:0.8;" x="407.92539" xlink:href="#mec7efac5f5" y="306.3024"/>
      </g>
     </g>
     <g id="text_9">
      <!-- 16000 -->
      <g transform="translate(392.01914 320.900838)scale(0.1 -0.1)">
       <use xlink:href="#DejaVuSans-49"/>
       <use x="63.623047" xlink:href="#DejaVuSans-54"/>
       <use x="127.246094" xlink:href="#DejaVuSans-48"/>
       <use x="190.869141" xlink:href="#DejaVuSans-48"/>
       <use x="254.492188" xlink:href="#DejaVuSans-48"/>
      </g>
     </g>
    </g>
    <g id="text_10">
     <!-- Muestras -->
     <defs>
      <path d="M 9.8125 72.90625 
L 24.515625 72.90625 
L 43.109375 23.296875 
L 61.8125 72.90625 
L 76.515625 72.90625 
L 76.515625 0 
L 66.890625 0 
L 66.890625 64.015625 
L 48.09375 14.015625 
L 38.1875 14.015625 
L 19.390625 64.015625 
L 19.390625 0 
L 9.8125 0 
z
" id="DejaVuSans-77"/>
      <path d="M 8.5 21.578125 
L 8.5 54.6875 
L 17.484375 54.6875 
L 17.484375 21.921875 
Q 17.484375 14.15625 20.5 10.265625 
Q 23.53125 6.390625 29.59375 6.390625 
Q 36.859375 6.390625 41.078125 11.03125 
Q 45.3125 15.671875 45.3125 23.6875 
L 45.3125 54.6875 
L 54.296875 54.6875 
L 54.296875 0 
L 45.3125 0 
L 45.3125 8.40625 
Q 42.046875 3.421875 37.71875 1 
Q 33.40625 -1.421875 27.6875 -1.421875 
Q 18.265625 -1.421875 13.375 4.4375 
Q 8.5 10.296875 8.5 21.578125 
z
M 31.109375 56 
z
" id="DejaVuSans-117"/>
      <path d="M 56.203125 29.59375 
L 56.203125 25.203125 
L 14.890625 25.203125 
Q 15.484375 15.921875 20.484375 11.0625 
Q 25.484375 6.203125 34.421875 6.203125 
Q 39.59375 6.203125 44.453125 7.46875 
Q 49.3125 8.734375 54.109375 11.28125 
L 54.109375 2.78125 
Q 49.265625 0.734375 44.1875 -0.34375 
Q 39.109375 -1.421875 33.890625 -1.421875 
Q 20.796875 -1.421875 13.15625 6.1875 
Q 5.515625 13.8125 5.515625 26.8125 
Q 5.515625 40.234375 12.765625 48.109375 
Q 20.015625 56 32.328125 56 
Q 43.359375 56 49.78125 48.890625 
Q 56.203125 41.796875 56.203125 29.59375 
z
M 47.21875 32.234375 
Q 47.125 39.59375 43.09375 43.984375 
Q 39.0625 48.390625 32.421875 48.390625 
Q 24.90625 48.390625 20.390625 44.140625 
Q 15.875 39.890625 15.1875 32.171875 
z
" id="DejaVuSans-101"/>
      <path d="M 44.28125 53.078125 
L 44.28125 44.578125 
Q 40.484375 46.53125 36.375 47.5 
Q 32.28125 48.484375 27.875 48.484375 
Q 21.1875 48.484375 17.84375 46.4375 
Q 14.5 44.390625 14.5 40.28125 
Q 14.5 37.15625 16.890625 35.375 
Q 19.28125 33.59375 26.515625 31.984375 
L 29.59375 31.296875 
Q 39.15625 29.25 43.1875 25.515625 
Q 47.21875 21.78125 47.21875 15.09375 
Q 47.21875 7.46875 41.1875 3.015625 
Q 35.15625 -1.421875 24.609375 -1.421875 
Q 20.21875 -1.421875 15.453125 -0.5625 
Q 10.6875 0.296875 5.421875 2 
L 5.421875 11.28125 
Q 10.40625 8.6875 15.234375 7.390625 
Q 20.0625 6.109375 24.8125 6.109375 
Q 31.15625 6.109375 34.5625 8.28125 
Q 37.984375 10.453125 37.984375 14.40625 
Q 37.984375 18.0625 35.515625 20.015625 
Q 33.0625 21.96875 24.703125 23.78125 
L 21.578125 24.515625 
Q 13.234375 26.265625 9.515625 29.90625 
Q 5.8125 33.546875 5.8125 39.890625 
Q 5.8125 47.609375 11.28125 51.796875 
Q 16.75 56 26.8125 56 
Q 31.78125 56 36.171875 55.265625 
Q 40.578125 54.546875 44.28125 53.078125 
z
" id="DejaVuSans-115"/>
      <path d="M 18.3125 70.21875 
L 18.3125 54.6875 
L 36.8125 54.6875 
L 36.8125 47.703125 
L 18.3125 47.703125 
L 18.3125 18.015625 
Q 18.3125 11.328125 20.140625 9.421875 
Q 21.96875 7.515625 27.59375 7.515625 
L 36.8125 7.515625 
L 36.8125 0 
L 27.59375 0 
Q 17.1875 0 13.234375 3.875 
Q 9.28125 7.765625 9.28125 18.015625 
L 9.28125 47.703125 
L 2.6875 47.703125 
L 2.6875 54.6875 
L 9.28125 54.6875 
L 9.28125 70.21875 
z
" id="DejaVuSans-116"/>
      <path d="M 41.109375 46.296875 
Q 39.59375 47.171875 37.8125 47.578125 
Q 36.03125 48 33.890625 48 
Q 26.265625 48 22.1875 43.046875 
Q 18.109375 38.09375 18.109375 28.8125 
L 18.109375 0 
L 9.078125 0 
L 9.078125 54.6875 
L 18.109375 54.6875 
L 18.109375 46.1875 
Q 20.953125 51.171875 25.484375 53.578125 
Q 30.03125 56 36.53125 56 
Q 37.453125 56 38.578125 55.875 
Q 39.703125 55.765625 41.0625 55.515625 
z
" id="DejaVuSans-114"/>
      <path d="M 34.28125 27.484375 
Q 23.390625 27.484375 19.1875 25 
Q 14.984375 22.515625 14.984375 16.5 
Q 14.984375 11.71875 18.140625 8.90625 
Q 21.296875 6.109375 26.703125 6.109375 
Q 34.1875 6.109375 38.703125 11.40625 
Q 43.21875 16.703125 43.21875 25.484375 
L 43.21875 27.484375 
z
M 52.203125 31.203125 
L 52.203125 0 
L 43.21875 0 
L 43.21875 8.296875 
Q 40.140625 3.328125 35.546875 0.953125 
Q 30.953125 -1.421875 24.3125 -1.421875 
Q 15.921875 -1.421875 10.953125 3.296875 
Q 6 8.015625 6 15.921875 
Q 6 25.140625 12.171875 29.828125 
Q 18.359375 34.515625 30.609375 34.515625 
L 43.21875 34.515625 
L 43.21875 35.40625 
Q 43.21875 41.609375 39.140625 45 
Q 35.0625 48.390625 27.6875 48.390625 
Q 23 48.390625 18.546875 47.265625 
Q 14.109375 46.140625 10.015625 43.890625 
L 10.015625 52.203125 
Q 14.9375 54.109375 19.578125 55.046875 
Q 24.21875 56 28.609375 56 
Q 40.484375 56 46.34375 49.84375 
Q 52.203125 43.703125 52.203125 31.203125 
z
" id="DejaVuSans-97"/>
     </defs>
     <g transform="translate(213.311562 334.578963)scale(0.1 -0.1)">
      <use xlink:href="#DejaVuSans-77"/>
      <use x="86.279297" xlink:href="#DejaVuSans-117"/>
      <use x="149.658203" xlink:href="#DejaVuSans-101"/>
      <use x="211.181641" xlink:href="#DejaVuSans-115"/>
      <use x="263.28125" xlink:href="#DejaVuSans-116"/>
      <use x="302.490234" xlink:href="#DejaVuSans-114"/>
      <use x="343.603516" xlink:href="#DejaVuSans-97"/>
      <use x="404.882812" xlink:href="#DejaVuSans-115"/>
     </g>
    </g>
   </g>
   <g id="matplotlib.axis_2">
    <g id="ytick_1">
     <g id="line2d_10">
      <defs>
       <path d="M 0 0 
L -3.5 0 
" id="mc695a8a542" style="stroke:#000000;stroke-width:0.8;"/>
      </defs>
      <g>
       <use style="stroke:#000000;stroke-width:0.8;" x="57.6" xlink:href="#mc695a8a542" y="267.506182"/>
      </g>
     </g>
     <g id="text_11">
      <!-- 60 -->
      <g transform="translate(37.875 271.305401)scale(0.1 -0.1)">
       <use xlink:href="#DejaVuSans-54"/>
       <use x="63.623047" xlink:href="#DejaVuSans-48"/>
      </g>
     </g>
    </g>
    <g id="ytick_2">
     <g id="line2d_11">
      <g>
       <use style="stroke:#000000;stroke-width:0.8;" x="57.6" xlink:href="#mc695a8a542" y="215.360727"/>
      </g>
     </g>
     <g id="text_12">
      <!-- 70 -->
      <defs>
       <path d="M 8.203125 72.90625 
L 55.078125 72.90625 
L 55.078125 68.703125 
L 28.609375 0 
L 18.3125 0 
L 43.21875 64.59375 
L 8.203125 64.59375 
z
" id="DejaVuSans-55"/>
      </defs>
      <g transform="translate(37.875 219.159946)scale(0.1 -0.1)">
       <use xlink:href="#DejaVuSans-55"/>
       <use x="63.623047" xlink:href="#DejaVuSans-48"/>
      </g>
     </g>
    </g>
    <g id="ytick_3">
     <g id="line2d_12">
      <g>
       <use style="stroke:#000000;stroke-width:0.8;" x="57.6" xlink:href="#mc695a8a542" y="163.215273"/>
      </g>
     </g>
     <g id="text_13">
      <!-- 80 -->
      <g transform="translate(37.875 167.014491)scale(0.1 -0.1)">
       <use xlink:href="#DejaVuSans-56"/>
       <use x="63.623047" xlink:href="#DejaVuSans-48"/>
      </g>
     </g>
    </g>
    <g id="ytick_4">
     <g id="line2d_13">
      <g>
       <use style="stroke:#000000;stroke-width:0.8;" x="57.6" xlink:href="#mc695a8a542" y="111.069818"/>
      </g>
     </g>
     <g id="text_14">
      <!-- 90 -->
      <defs>
       <path d="M 10.984375 1.515625 
L 10.984375 10.5 
Q 14.703125 8.734375 18.5 7.8125 
Q 22.3125 6.890625 25.984375 6.890625 
Q 35.75 6.890625 40.890625 13.453125 
Q 46.046875 20.015625 46.78125 33.40625 
Q 43.953125 29.203125 39.59375 26.953125 
Q 35.25 24.703125 29.984375 24.703125 
Q 19.046875 24.703125 12.671875 31.3125 
Q 6.296875 37.9375 6.296875 49.421875 
Q 6.296875 60.640625 12.9375 67.421875 
Q 19.578125 74.21875 30.609375 74.21875 
Q 43.265625 74.21875 49.921875 64.515625 
Q 56.59375 54.828125 56.59375 36.375 
Q 56.59375 19.140625 48.40625 8.859375 
Q 40.234375 -1.421875 26.421875 -1.421875 
Q 22.703125 -1.421875 18.890625 -0.6875 
Q 15.09375 0.046875 10.984375 1.515625 
z
M 30.609375 32.421875 
Q 37.25 32.421875 41.125 36.953125 
Q 45.015625 41.5 45.015625 49.421875 
Q 45.015625 57.28125 41.125 61.84375 
Q 37.25 66.40625 30.609375 66.40625 
Q 23.96875 66.40625 20.09375 61.84375 
Q 16.21875 57.28125 16.21875 49.421875 
Q 16.21875 41.5 20.09375 36.953125 
Q 23.96875 32.421875 30.609375 32.421875 
z
" id="DejaVuSans-57"/>
      </defs>
      <g transform="translate(37.875 114.869037)scale(0.1 -0.1)">
       <use xlink:href="#DejaVuSans-57"/>
       <use x="63.623047" xlink:href="#DejaVuSans-48"/>
      </g>
     </g>
    </g>
    <g id="ytick_5">
     <g id="line2d_14">
      <g>
       <use style="stroke:#000000;stroke-width:0.8;" x="57.6" xlink:href="#mc695a8a542" y="58.924364"/>
      </g>
     </g>
     <g id="text_15">
      <!-- 100 -->
      <g transform="translate(31.5125 62.723582)scale(0.1 -0.1)">
       <use xlink:href="#DejaVuSans-49"/>
       <use x="63.623047" xlink:href="#DejaVuSans-48"/>
       <use x="127.246094" xlink:href="#DejaVuSans-48"/>
      </g>
     </g>
    </g>
    <g id="text_16">
     <!-- Valor de Ritmo Cardíaco -->
     <defs>
      <path d="M 28.609375 0 
L 0.78125 72.90625 
L 11.078125 72.90625 
L 34.1875 11.53125 
L 57.328125 72.90625 
L 67.578125 72.90625 
L 39.796875 0 
z
" id="DejaVuSans-86"/>
      <path d="M 9.421875 75.984375 
L 18.40625 75.984375 
L 18.40625 0 
L 9.421875 0 
z
" id="DejaVuSans-108"/>
      <path d="M 30.609375 48.390625 
Q 23.390625 48.390625 19.1875 42.75 
Q 14.984375 37.109375 14.984375 27.296875 
Q 14.984375 17.484375 19.15625 11.84375 
Q 23.34375 6.203125 30.609375 6.203125 
Q 37.796875 6.203125 41.984375 11.859375 
Q 46.1875 17.53125 46.1875 27.296875 
Q 46.1875 37.015625 41.984375 42.703125 
Q 37.796875 48.390625 30.609375 48.390625 
z
M 30.609375 56 
Q 42.328125 56 49.015625 48.375 
Q 55.71875 40.765625 55.71875 27.296875 
Q 55.71875 13.875 49.015625 6.21875 
Q 42.328125 -1.421875 30.609375 -1.421875 
Q 18.84375 -1.421875 12.171875 6.21875 
Q 5.515625 13.875 5.515625 27.296875 
Q 5.515625 40.765625 12.171875 48.375 
Q 18.84375 56 30.609375 56 
z
" id="DejaVuSans-111"/>
      <path id="DejaVuSans-32"/>
      <path d="M 45.40625 46.390625 
L 45.40625 75.984375 
L 54.390625 75.984375 
L 54.390625 0 
L 45.40625 0 
L 45.40625 8.203125 
Q 42.578125 3.328125 38.25 0.953125 
Q 33.9375 -1.421875 27.875 -1.421875 
Q 17.96875 -1.421875 11.734375 6.484375 
Q 5.515625 14.40625 5.515625 27.296875 
Q 5.515625 40.1875 11.734375 48.09375 
Q 17.96875 56 27.875 56 
Q 33.9375 56 38.25 53.625 
Q 42.578125 51.265625 45.40625 46.390625 
z
M 14.796875 27.296875 
Q 14.796875 17.390625 18.875 11.75 
Q 22.953125 6.109375 30.078125 6.109375 
Q 37.203125 6.109375 41.296875 11.75 
Q 45.40625 17.390625 45.40625 27.296875 
Q 45.40625 37.203125 41.296875 42.84375 
Q 37.203125 48.484375 30.078125 48.484375 
Q 22.953125 48.484375 18.875 42.84375 
Q 14.796875 37.203125 14.796875 27.296875 
z
" id="DejaVuSans-100"/>
      <path d="M 44.390625 34.1875 
Q 47.5625 33.109375 50.5625 29.59375 
Q 53.5625 26.078125 56.59375 19.921875 
L 66.609375 0 
L 56 0 
L 46.6875 18.703125 
Q 43.0625 26.03125 39.671875 28.421875 
Q 36.28125 30.8125 30.421875 30.8125 
L 19.671875 30.8125 
L 19.671875 0 
L 9.8125 0 
L 9.8125 72.90625 
L 32.078125 72.90625 
Q 44.578125 72.90625 50.734375 67.671875 
Q 56.890625 62.453125 56.890625 51.90625 
Q 56.890625 45.015625 53.6875 40.46875 
Q 50.484375 35.9375 44.390625 34.1875 
z
M 19.671875 64.796875 
L 19.671875 38.921875 
L 32.078125 38.921875 
Q 39.203125 38.921875 42.84375 42.21875 
Q 46.484375 45.515625 46.484375 51.90625 
Q 46.484375 58.296875 42.84375 61.546875 
Q 39.203125 64.796875 32.078125 64.796875 
z
" id="DejaVuSans-82"/>
      <path d="M 9.421875 54.6875 
L 18.40625 54.6875 
L 18.40625 0 
L 9.421875 0 
z
M 9.421875 75.984375 
L 18.40625 75.984375 
L 18.40625 64.59375 
L 9.421875 64.59375 
z
" id="DejaVuSans-105"/>
      <path d="M 52 44.1875 
Q 55.375 50.25 60.0625 53.125 
Q 64.75 56 71.09375 56 
Q 79.640625 56 84.28125 50.015625 
Q 88.921875 44.046875 88.921875 33.015625 
L 88.921875 0 
L 79.890625 0 
L 79.890625 32.71875 
Q 79.890625 40.578125 77.09375 44.375 
Q 74.3125 48.1875 68.609375 48.1875 
Q 61.625 48.1875 57.5625 43.546875 
Q 53.515625 38.921875 53.515625 30.90625 
L 53.515625 0 
L 44.484375 0 
L 44.484375 32.71875 
Q 44.484375 40.625 41.703125 44.40625 
Q 38.921875 48.1875 33.109375 48.1875 
Q 26.21875 48.1875 22.15625 43.53125 
Q 18.109375 38.875 18.109375 30.90625 
L 18.109375 0 
L 9.078125 0 
L 9.078125 54.6875 
L 18.109375 54.6875 
L 18.109375 46.1875 
Q 21.1875 51.21875 25.484375 53.609375 
Q 29.78125 56 35.6875 56 
Q 41.65625 56 45.828125 52.96875 
Q 50 49.953125 52 44.1875 
z
" id="DejaVuSans-109"/>
      <path d="M 64.40625 67.28125 
L 64.40625 56.890625 
Q 59.421875 61.53125 53.78125 63.8125 
Q 48.140625 66.109375 41.796875 66.109375 
Q 29.296875 66.109375 22.65625 58.46875 
Q 16.015625 50.828125 16.015625 36.375 
Q 16.015625 21.96875 22.65625 14.328125 
Q 29.296875 6.6875 41.796875 6.6875 
Q 48.140625 6.6875 53.78125 8.984375 
Q 59.421875 11.28125 64.40625 15.921875 
L 64.40625 5.609375 
Q 59.234375 2.09375 53.4375 0.328125 
Q 47.65625 -1.421875 41.21875 -1.421875 
Q 24.65625 -1.421875 15.125 8.703125 
Q 5.609375 18.84375 5.609375 36.375 
Q 5.609375 53.953125 15.125 64.078125 
Q 24.65625 74.21875 41.21875 74.21875 
Q 47.75 74.21875 53.53125 72.484375 
Q 59.328125 70.75 64.40625 67.28125 
z
" id="DejaVuSans-67"/>
      <path d="M 20.703125 79.984375 
L 30.421875 79.984375 
L 14.5 61.625 
L 7.03125 61.625 
z
M 9.421875 54.6875 
L 18.40625 54.6875 
L 18.40625 0 
L 9.421875 0 
z
M 13.921875 56 
z
" id="DejaVuSans-237"/>
      <path d="M 48.78125 52.59375 
L 48.78125 44.1875 
Q 44.96875 46.296875 41.140625 47.34375 
Q 37.3125 48.390625 33.40625 48.390625 
Q 24.65625 48.390625 19.8125 42.84375 
Q 14.984375 37.3125 14.984375 27.296875 
Q 14.984375 17.28125 19.8125 11.734375 
Q 24.65625 6.203125 33.40625 6.203125 
Q 37.3125 6.203125 41.140625 7.25 
Q 44.96875 8.296875 48.78125 10.40625 
L 48.78125 2.09375 
Q 45.015625 0.34375 40.984375 -0.53125 
Q 36.96875 -1.421875 32.421875 -1.421875 
Q 20.0625 -1.421875 12.78125 6.34375 
Q 5.515625 14.109375 5.515625 27.296875 
Q 5.515625 40.671875 12.859375 48.328125 
Q 20.21875 56 33.015625 56 
Q 37.15625 56 41.109375 55.140625 
Q 45.0625 54.296875 48.78125 52.59375 
z
" id="DejaVuSans-99"/>
     </defs>
     <g transform="translate(25.432812 234.6008)rotate(-90)scale(0.1 -0.1)">
      <use xlink:href="#DejaVuSans-86"/>
      <use x="68.298828" xlink:href="#DejaVuSans-97"/>
      <use x="129.578125" xlink:href="#DejaVuSans-108"/>
      <use x="157.361328" xlink:href="#DejaVuSans-111"/>
      <use x="218.542969" xlink:href="#DejaVuSans-114"/>
      <use x="259.65625" xlink:href="#DejaVuSans-32"/>
      <use x="291.443359" xlink:href="#DejaVuSans-100"/>
      <use x="354.919922" xlink:href="#DejaVuSans-101"/>
      <use x="416.443359" xlink:href="#DejaVuSans-32"/>
      <use x="448.230469" xlink:href="#DejaVuSans-82"/>
      <use x="517.712891" xlink:href="#DejaVuSans-105"/>
      <use x="545.496094" xlink:href="#DejaVuSans-116"/>
      <use x="584.705078" xlink:href="#DejaVuSans-109"/>
      <use x="682.117188" xlink:href="#DejaVuSans-111"/>
      <use x="743.298828" xlink:href="#DejaVuSans-32"/>
      <use x="775.085938" xlink:href="#DejaVuSans-67"/>
      <use x="844.910156" xlink:href="#DejaVuSans-97"/>
      <use x="906.189453" xlink:href="#DejaVuSans-114"/>
      <use x="947.287109" xlink:href="#DejaVuSans-100"/>
      <use x="1010.763672" xlink:href="#DejaVuSans-237"/>
      <use x="1038.546875" xlink:href="#DejaVuSans-97"/>
      <use x="1099.826172" xlink:href="#DejaVuSans-99"/>
      <use x="1154.806641" xlink:href="#DejaVuSans-111"/>
     </g>
    </g>
   </g>
   <g id="line2d_15">
    <path clip-path="url(#pdd0215703b)" d="M 73.832727 116.284364 
L 73.89537 141.470618 
L 73.874489 115.241455 
L 73.958012 124.992655 
L 74.125058 117.796582 
L 74.208582 113.312073 
L 74.897648 57.099273 
L 75.043813 63.982473 
L 75.127336 63.356727 
L 75.148217 60.645164 
L 75.23174 63.252436 
L 75.294383 63.617455 
L 75.336144 63.356727 
L 75.377906 63.252436 
L 75.419667 63.461018 
L 75.440548 63.513164 
L 75.544952 65.807564 
L 75.586714 65.546836 
L 75.649356 65.442545 
L 75.732879 67.6848 
L 75.899926 79.261091 
L 76.213137 114.876436 
L 76.27578 113.937818 
L 76.54723 110.913382 
L 76.568111 110.913382 
L 76.630753 111.174109 
L 76.693396 111.069818 
L 76.756038 110.913382 
L 76.776919 111.069818 
L 76.964846 114.563564 
L 77.048369 113.937818 
L 77.236296 108.723273 
L 77.549508 91.671709 
L 77.612151 91.358836 
L 78.008886 87.865091 
L 78.029766 88.125818 
L 78.217693 90.315927 
L 78.614429 102.205091 
L 78.718832 100.640727 
L 78.760594 100.38 
L 78.802356 100.745018 
L 78.844117 100.797164 
L 78.90676 101.944364 
L 78.948521 101.422909 
L 79.115568 96.573382 
L 79.345256 88.230109 
L 79.70023 74.828727 
L 79.804634 73.942255 
L 79.825514 74.411564 
L 80.24313 90.837382 
L 80.869554 135.995345 
L 80.994839 139.071927 
L 81.01572 138.550473 
L 81.516859 118.474473 
L 81.850951 95.009018 
L 82.017998 92.193164 
L 82.059759 92.297455 
L 82.185044 95.061164 
L 82.414733 100.014982 
L 82.477375 99.702109 
L 82.581779 97.094836 
L 82.665302 95.582618 
L 82.707064 95.843345 
L 82.915872 102.465818 
L 83.041156 101.422909 
L 83.103799 101.057891 
L 83.14556 101.318618 
L 83.249964 103.508727 
L 83.333487 106.793891 
L 83.39613 105.750982 
L 83.479653 104.3952 
L 83.563176 104.551636 
L 83.646699 105.333818 
L 84.294004 148.614545 
L 84.669858 184.229891 
L 85.024831 205.870255 
L 85.296282 220.470982 
L 85.421567 221.774618 
L 85.463328 220.940291 
L 85.52597 221.878909 
L 85.546851 222.400364 
L 85.588613 221.618182 
L 85.734778 213.796364 
L 85.797421 209.885455 
L 85.860063 211.345527 
L 85.943586 212.492727 
L 85.985348 211.814836 
L 86.152394 209.103273 
L 86.235917 205.3488 
L 86.632652 187.827927 
L 86.674414 188.245091 
L 86.945864 194.241818 
L 87.927262 260.466545 
L 87.969023 257.963564 
L 88.073427 248.316655 
L 88.470162 208.2168 
L 88.699851 203.002255 
L 88.741612 202.950109 
L 88.762493 202.689382 
L 88.783374 203.367273 
L 88.804255 203.367273 
L 88.887778 203.784436 
L 88.908659 203.471564 
L 89.054824 202.428655 
L 89.075705 202.4808 
L 89.159228 200.342836 
L 89.180109 200.76 
L 89.639486 243.102109 
L 89.764771 251.445382 
L 89.806533 248.890255 
L 89.910937 233.4552 
L 90.349433 181.570473 
L 90.871453 135.995345 
L 91.038499 114.094255 
L 91.101142 115.658618 
L 91.30995 123.063273 
L 91.393473 123.845455 
L 91.435234 123.324 
L 91.560519 118.630909 
L 91.85285 107.941091 
L 91.894612 107.784655 
L 91.936373 107.8368 
L 92.166062 114.094255 
L 92.270466 112.894909 
L 92.64632 95.321891 
L 92.667201 95.426182 
L 92.813367 96.573382 
L 92.855128 97.407709 
L 92.917771 96.834109 
L 92.938651 96.573382 
L 93.335386 115.502182 
L 93.398029 114.198545 
L 93.43979 114.72 
L 93.544194 119.3088 
L 93.940929 142.513527 
L 94.149737 158.157164 
L 94.316784 165.405382 
L 94.337664 165.040364 
L 94.525592 159.930109 
L 94.546472 159.043636 
L 94.609115 159.930109 
L 94.692638 162.3288 
L 94.964088 172.08 
L 95.193777 179.276073 
L 95.2773 178.9632 
L 95.339942 176.147345 
L 95.694916 152.421164 
L 95.736678 153.933382 
L 95.924605 157.896436 
L 96.279578 148.979564 
L 96.32134 149.292436 
L 96.738955 170.9328 
L 96.822479 170.776364 
L 96.906002 169.837745 
L 96.968644 167.386909 
L 97.803876 97.877018 
L 97.845637 98.554909 
L 97.970922 105.333818 
L 98.17973 129.842182 
L 98.889677 233.715927 
L 98.910558 233.246618 
L 98.994081 230.900073 
L 99.077604 224.903345 
L 99.411697 182.144073 
L 99.954597 98.137745 
L 100.28869 79.261091 
L 100.330452 78.896073 
L 100.372213 79.104655 
L 100.455736 81.4512 
L 101.123922 100.536436 
L 101.645941 126.557018 
L 101.687703 126.192 
L 101.708584 126.557018 
L 101.980034 132.032291 
L 102.084438 133.596655 
L 102.314127 137.559709 
L 102.335008 137.403273 
L 102.439412 131.145818 
L 102.857027 106.272436 
L 103.525213 122.802545 
L 103.796663 143.660727 
L 103.859305 141.939927 
L 103.942829 140.949164 
L 103.98459 141.418473 
L 104.109875 143.4 
L 104.151636 143.034982 
L 104.381325 134.796 
L 104.590133 128.642836 
L 104.652775 128.955709 
L 104.673656 128.903564 
L 104.798941 115.919345 
L 105.02863 97.146982 
L 105.04951 97.146982 
L 105.237438 101.944364 
L 105.258318 101.579345 
L 105.383603 97.146982 
L 106.239716 57.464291 
L 106.427643 53.970545 
L 106.469404 54.492 
L 106.594689 55.6392 
L 106.678212 56.838545 
L 106.803497 58.142182 
L 106.928782 53.3448 
L 106.970543 54.126982 
L 107.179351 64.764655 
L 107.429921 75.610909 
L 107.701371 88.490836 
L 107.784894 86.978618 
L 107.805775 86.457164 
L 108.035464 100.901455 
L 108.536603 124.4712 
L 108.557483 124.4712 
L 108.641007 124.784073 
L 108.661887 124.731927 
L 108.745411 122.958982 
L 108.975099 111.852 
L 108.99598 111.591273 
L 109.016861 112.008436 
L 109.058622 113.155636 
L 109.079503 110.913382 
L 109.26743 104.290909 
L 109.434477 101.162182 
L 109.872973 86.04 
L 110.019139 91.932436 
L 110.415874 120.821018 
L 110.603801 124.888364 
L 110.708205 125.931273 
L 110.770847 125.253382 
L 111.37639 107.419636 
L 111.940172 82.285527 
L 112.044576 81.190473 
L 112.065456 81.242618 
L 112.190741 87.708655 
L 113.276542 212.127709 
L 113.401827 216.142909 
L 113.422708 215.621455 
L 113.694158 207.278182 
L 113.715039 207.121745 
L 114.00737 192.416727 
L 114.049132 191.373818 
L 114.090893 192.781745 
L 114.237059 195.389018 
L 114.299701 193.563927 
L 114.383224 193.720364 
L 114.466747 193.720364 
L 114.487628 193.563927 
L 114.508509 193.720364 
L 114.863482 207.6432 
L 114.884363 207.695345 
L 115.05141 203.732291 
L 115.448145 182.509091 
L 115.59431 176.929527 
L 115.615191 177.138109 
L 115.636072 177.138109 
L 115.86576 181.466182 
L 115.886641 181.205455 
L 115.907522 180.840436 
L 115.928403 182.144073 
L 116.721873 258.902182 
L 117.055966 288.207927 
L 117.18125 294.2568 
L 117.243893 293.839636 
L 117.369177 293.213891 
L 117.410939 293.474618 
L 117.452701 293.578909 
L 118.204409 235.593164 
L 118.935237 172.340727 
L 118.956118 172.445018 
L 119.728707 191.478109 
L 119.833111 187.045745 
L 120.167203 162.798109 
L 121.002435 90.107345 
L 121.253005 85.622836 
L 121.273885 85.674982 
L 121.357409 86.822182 
L 121.39917 86.196436 
L 121.628859 82.911273 
L 121.64974 82.911273 
L 121.754144 84.371345 
L 122.046475 89.950909 
L 122.129998 91.880291 
L 122.234402 94.383273 
L 122.276163 93.705382 
L 122.484971 91.358836 
L 122.547614 91.254545 
L 122.610256 90.107345 
L 122.652018 90.889527 
L 123.153157 128.955709 
L 123.883984 231.108655 
L 124.03015 235.697455 
L 124.176315 234.0288 
L 124.3016 227.510618 
L 124.468647 203.367273 
L 124.948905 140.166982 
L 125.282997 120.612436 
L 125.450044 110.809091 
L 125.637971 103.769455 
L 126.013825 108.566836 
L 126.055587 107.784655 
L 126.222633 103.143709 
L 126.347918 94.018255 
L 126.68201 79.521818 
L 126.869938 72.325745 
L 127.036984 60.071564 
L 127.078745 63.461018 
L 127.412838 102.205091 
L 127.872216 141.053455 
L 128.101904 153.7248 
L 128.268951 164.414618 
L 128.310712 161.807345 
L 128.832732 94.278982 
L 128.853613 94.278982 
L 129.062421 92.141018 
L 129.271229 83.172 
L 129.417394 80.043273 
L 129.480036 77.279564 
L 129.500917 79.521818 
L 130.043818 131.302255 
L 130.231745 141.6792 
L 130.440553 172.757891 
L 130.712003 200.655709 
L 130.753765 202.689382 
L 130.816407 200.655709 
L 130.983453 193.459636 
L 131.046096 193.720364 
L 131.066977 193.8768 
L 131.087857 193.720364 
L 131.171381 192.833891 
L 131.213142 193.042473 
L 131.254904 193.355345 
L 131.296665 193.981091 
L 131.317546 193.3032 
L 131.42195 186.315709 
L 131.756043 159.304364 
L 131.818685 160.086545 
L 131.902208 163.215273 
L 132.069255 172.184291 
L 132.298943 179.015345 
L 132.319824 178.9632 
L 132.340705 179.015345 
L 132.612155 186.315709 
L 132.925367 207.173891 
L 133.342983 199.821382 
L 133.635314 187.097891 
L 133.677076 186.524291 
L 133.760599 186.837164 
L 133.80236 186.785018 
L 133.906764 184.438473 
L 134.05293 257.077091 
L 134.115572 241.433455 
L 134.32438 213.692073 
L 134.59583 200.290691 
L 134.825519 194.606836 
L 134.888161 194.189673 
L 134.929923 194.502545 
L 135.055208 195.493309 
L 135.096969 195.284727 
L 135.11785 195.128291 
L 135.159612 195.180436 
L 135.514585 173.8008 
L 135.806916 164.6232 
L 135.848678 164.883927 
L 136.015724 168.325527 
L 136.245413 171.454255 
L 136.308055 171.297818 
L 136.43334 172.445018 
L 137.038883 198.830618 
L 137.185049 200.238545 
L 137.205929 199.977818 
L 137.686188 187.880073 
L 137.999399 185.2728 
L 138.041161 185.220655 
L 138.062042 185.2728 
L 138.187327 186.941455 
L 138.249969 186.576436 
L 138.458777 184.177745 
L 138.646704 180.423273 
L 138.688466 180.840436 
L 138.980797 186.785018 
L 139.043439 186.524291 
L 139.085201 186.159273 
L 139.440174 177.711709 
L 139.481936 178.441745 
L 139.711624 186.576436 
L 139.941313 201.385745 
L 139.962194 201.281455 
L 140.024836 201.385745 
L 140.12924 201.802909 
L 140.171002 201.646473 
L 140.338048 200.864291 
L 140.442452 201.959345 
L 140.630379 206.756727 
L 140.672141 206.391709 
L 140.964472 200.499273 
L 141.298564 187.5672 
L 141.382088 186.576436 
L 141.44473 186.941455 
L 141.883227 195.284727 
L 142.133796 196.327636 
L 142.2382 196.431927 
L 142.279962 196.7448 
L 142.48877 202.167927 
L 142.739339 206.913164 
L 142.989909 202.324364 
L 143.094313 203.002255 
L 143.28224 203.628 
L 143.30312 203.523709 
L 143.365763 202.324364 
L 143.637213 190.956655 
L 144.430683 161.650909 
L 144.472445 161.7552 
L 144.576849 162.068073 
L 144.61861 162.015927 
L 144.994465 175.625891 
L 145.224153 177.190255 
L 145.41208 180.840436 
L 145.66265 185.481382 
L 145.725292 185.377091 
L 145.787935 185.220655 
L 145.808815 185.2728 
L 145.871458 186.263564 
L 145.913219 185.377091 
L 145.9341 185.116364 
L 146.017623 185.377091 
L 146.059385 185.116364 
L 146.101146 185.2728 
L 146.226431 187.984364 
L 146.539643 198.830618 
L 146.581405 198.517745 
L 146.769332 197.631273 
L 146.873736 198.413455 
L 146.915497 198.257018 
L 147.207828 194.241818 
L 147.52104 186.159273 
L 147.938656 172.184291 
L 148.105702 170.411345 
L 148.126583 170.515636 
L 148.690365 173.905091 
L 148.711245 173.905091 
L 148.794769 172.497164 
L 148.920053 170.776364 
L 148.961815 171.141382 
L 149.170623 175.834473 
L 149.546477 183.291273 
L 149.671762 184.959927 
L 149.838808 186.315709 
L 149.859689 186.263564 
L 149.901451 186.159273 
L 149.943212 186.315709 
L 150.026735 187.984364 
L 150.339947 195.128291 
L 150.40259 194.502545 
L 150.632278 187.827927 
L 150.882848 182.665527 
L 151.070775 181.101164 
L 151.091656 181.205455 
L 151.19606 182.665527 
L 151.446629 186.263564 
L 151.571914 185.116364 
L 151.801603 182.926255 
L 151.885126 182.665527 
L 151.926887 182.874109 
L 152.052172 185.533527 
L 152.344503 191.217382 
L 152.386265 191.269527 
L 152.407145 191.113091 
L 152.53243 189.653018 
L 152.866523 181.987636 
L 152.908284 182.769818 
L 153.221496 189.027273 
L 153.284139 188.401527 
L 153.409423 183.917018 
L 153.597351 180.684 
L 153.680874 179.641091 
L 153.743516 179.901818 
L 153.764397 179.901818 
L 154.077609 185.637818 
L 154.11937 185.116364 
L 154.244655 183.395564 
L 154.766675 170.9328 
L 154.829317 171.923564 
L 154.933721 173.487927 
L 154.975483 172.966473 
L 155.330456 169.733455 
L 155.372218 169.994182 
L 155.413979 169.994182 
L 155.476622 171.037091 
L 155.810715 181.570473 
L 156.019522 189.705164 
L 156.353615 185.116364 
L 156.374496 185.794255 
L 156.583304 189.913745 
L 156.666827 190.330909 
L 156.687708 190.226618 
L 157.126204 182.352655 
L 157.167966 182.613382 
L 157.522939 186.002836 
L 157.606463 183.708436 
L 157.877913 171.037091 
L 158.170244 158.261455 
L 158.212006 159.147927 
L 158.85931 177.972436 
L 159.527495 221.618182 
L 159.611019 221.201018 
L 159.736303 220.679564 
L 159.757184 220.731709 
L 159.798946 220.836 
L 159.861588 221.201018 
L 159.90335 220.940291 
L 160.049515 218.228727 
L 160.112158 218.385164 
L 160.216561 219.010909 
L 160.44625 213.9528 
L 160.634177 210.250473 
L 161.406767 194.867564 
L 162.03319 163.893164 
L 162.450806 155.758473 
L 162.534329 155.914909 
L 162.55521 155.914909 
L 162.596972 155.549891 
L 162.638733 156.071345 
L 162.889303 162.850255 
L 162.910184 162.850255 
L 163.014588 165.457527 
L 163.369561 179.015345 
L 163.536607 181.361891 
L 163.59925 180.788291 
L 163.703654 180.318982 
L 163.724534 180.423273 
L 164.037746 183.552 
L 164.246554 189.913745 
L 164.371839 188.401527 
L 164.476243 186.002836 
L 164.789455 177.138109 
L 164.998263 180.527564 
L 165.019144 180.423273 
L 165.269713 178.598182 
L 165.332355 178.858909 
L 165.436759 179.223927 
L 165.45764 179.015345 
L 165.624686 178.493891 
L 165.666448 178.598182 
L 165.770852 180.162545 
L 166.209349 185.898545 
L 166.25111 185.742109 
L 166.334633 185.794255 
L 166.376395 185.481382 
L 166.522561 183.186982 
L 166.940176 174.530836 
L 167.086342 171.714982 
L 167.336911 166.083273 
L 167.420435 165.301091 
L 167.545719 163.841018 
L 167.587481 163.997455 
L 168.422713 175.573745 
L 168.589759 177.294545 
L 168.63152 177.398836 
L 168.735924 178.233164 
L 168.756805 177.972436 
L 168.861209 173.8008 
L 169.111779 165.926836 
L 169.174421 165.666109 
L 169.216183 165.822545 
L 169.362348 166.709018 
L 169.424991 166.448291 
L 169.466752 166.344 
L 169.508514 166.500436 
L 169.842606 168.794836 
L 169.92613 168.012655 
L 169.988772 167.386909 
L 170.030533 168.012655 
L 170.406388 178.702473 
L 170.448149 178.493891 
L 170.844884 176.251636 
L 170.907527 176.6688 
L 170.970169 176.355927 
L 171.074573 176.147345 
L 171.095454 176.251636 
L 171.241619 176.929527 
L 171.2625 176.877382 
L 171.471308 173.2272 
L 171.700997 166.865455 
L 171.763639 167.282618 
L 171.805401 166.969745 
L 172.223017 157.74 
L 172.431824 152.629745 
L 172.536228 154.089818 
L 173.162652 169.733455 
L 173.287937 169.212 
L 173.308818 169.316291 
L 173.496745 173.748655 
L 173.726434 177.816 
L 173.851718 176.6688 
L 174.478142 170.098473 
L 174.519904 170.150618 
L 174.68695 171.297818 
L 174.707831 171.193527 
L 174.9584 168.273382 
L 175.000162 168.794836 
L 175.355135 174.530836 
L 175.376016 174.426545 
L 175.459539 174.061527 
L 175.501301 174.270109 
L 175.835394 178.598182 
L 175.877155 178.441745 
L 175.898036 178.441745 
L 175.981559 179.901818 
L 176.211248 183.969164 
L 176.253009 183.656291 
L 176.649744 174.165818 
L 176.733268 175.052291 
L 176.754148 175.104436 
L 176.775029 175.052291 
L 177.06736 171.454255 
L 177.297049 166.500436 
L 177.31793 166.604727 
L 177.484976 167.4912 
L 177.505857 167.386909 
L 177.610261 166.344 
L 177.631142 166.187564 
L 177.672903 166.448291 
L 177.819069 168.325527 
L 177.965234 169.889891 
L 177.986115 169.837745 
L 178.027877 169.889891 
L 178.090519 170.150618 
L 178.132281 169.837745 
L 178.257565 168.429818 
L 178.299327 168.794836 
L 178.424612 169.472727 
L 178.445492 169.212 
L 178.508135 168.0648 
L 178.988393 153.203345 
L 179.364247 146.789455 
L 179.44777 147.571636 
L 180.470929 163.580291 
L 180.554452 163.997455 
L 180.596214 163.841018 
L 180.846783 162.693818 
L 180.867664 162.798109 
L 181.159995 165.301091 
L 181.201757 165.301091 
L 181.327042 165.040364 
L 181.410565 165.926836 
L 181.682015 168.429818 
L 181.723777 168.534109 
L 181.744657 168.273382 
L 181.953465 165.561818 
L 182.016108 165.718255 
L 182.057869 165.561818 
L 182.099631 165.666109 
L 182.224916 167.386909 
L 182.517247 173.540073 
L 182.788697 184.438473 
L 183.018386 186.42 
L 183.268955 193.198909 
L 183.373359 193.824655 
L 183.39424 193.720364 
L 183.477763 192.260291 
L 183.561286 190.956655 
L 183.603048 191.790982 
L 183.707452 192.573164 
L 183.728333 192.312436 
L 183.937141 184.438473 
L 184.145948 178.9632 
L 184.18771 178.858909 
L 184.229472 178.9632 
L 184.250352 179.015345 
L 184.271233 178.9632 
L 184.354756 178.441745 
L 184.396518 178.702473 
L 184.584445 179.797527 
L 184.626207 179.641091 
L 184.667968 179.484655 
L 184.70973 179.745382 
L 184.793253 180.266836 
L 184.814134 180.006109 
L 185.002061 176.355927 
L 185.127346 175.208727 
L 185.148226 175.365164 
L 185.336154 177.816 
L 185.357034 177.555273 
L 185.398796 177.294545 
L 185.440558 177.711709 
L 185.586723 178.858909 
L 185.628485 178.702473 
L 185.649365 178.598182 
L 185.691127 178.858909 
L 185.816412 179.380364 
L 185.837293 179.276073 
L 185.962577 178.858909 
L 186.004339 179.015345 
L 186.234028 182.4048 
L 186.359312 183.656291 
L 186.401074 183.291273 
L 186.589001 182.248364 
L 186.672524 181.361891 
L 187.027498 176.408073 
L 187.069259 176.355927 
L 187.09014 176.512364 
L 187.34071 177.920291 
L 187.36159 177.816 
L 187.445114 176.929527 
L 187.633041 174.322255 
L 187.653921 174.530836 
L 187.925372 177.294545 
L 187.988014 177.711709 
L 188.050657 177.659564 
L 188.530915 174.948 
L 188.739723 170.672073 
L 188.781484 171.297818 
L 189.073815 173.279345 
L 189.115577 173.018618 
L 189.157338 172.862182 
L 189.1991 173.018618 
L 189.950809 187.984364 
L 189.99257 189.183709 
L 190.055212 187.880073 
L 190.26402 181.622618 
L 190.51459 176.0952 
L 190.723398 169.055564 
L 190.953087 163.110982 
L 191.182775 159.982255 
L 191.245418 160.608 
L 191.370702 165.144655 
L 191.934484 186.680727 
L 192.143292 193.563927 
L 192.3521 195.128291 
L 192.498265 193.981091 
L 192.853239 188.401527 
L 193.062046 178.598182 
L 193.375258 164.779636 
L 193.813755 152.160436 
L 194.001682 150.596073 
L 194.106086 150.543927 
L 194.21049 149.553164 
L 194.252252 150.022473 
L 194.356656 153.1512 
L 194.711629 161.285891 
L 194.795152 161.911636 
L 194.836914 161.7552 
L 195.024841 160.503709 
L 195.066602 160.868727 
L 195.129245 161.494473 
L 195.171006 161.233745 
L 195.317172 159.200073 
L 195.358934 159.669382 
L 195.755669 167.126182 
L 195.79743 167.126182 
L 195.901834 164.779636 
L 196.027119 162.954545 
L 196.048 163.110982 
L 196.215046 165.144655 
L 196.256808 164.883927 
L 196.361211 161.390182 
L 196.737066 152.786182 
L 197.071158 139.854109 
L 197.259086 125.774836 
L 197.300847 126.557018 
L 197.969032 133.596655 
L 198.282244 125.409818 
L 198.324006 127.391345 
L 198.616337 141.470618 
L 198.762503 145.746545 
L 199.180118 155.914909 
L 199.263642 159.408655 
L 199.472449 167.386909 
L 199.535092 167.4912 
L 199.848304 162.276655 
L 199.890065 162.3288 
L 200.057112 162.954545 
L 200.182396 158.417891 
L 200.349443 146.424436 
L 200.662655 128.642836 
L 200.725297 128.955709 
L 200.934105 132.449455 
L 200.996747 131.510836 
L 201.163794 122.020364 
L 201.372601 114.094255 
L 201.477005 115.137164 
L 201.831979 122.646109 
L 201.957264 121.655345 
L 202.061668 121.759636 
L 202.186952 120.873164 
L 202.207833 121.081745 
L 202.541926 124.4712 
L 202.562807 124.366909 
L 202.583687 124.210473 
L 202.625449 124.731927 
L 202.708972 127.130618 
L 203.001303 137.664 
L 203.063946 137.507564 
L 203.210111 136.464655 
L 203.272753 135.473891 
L 203.314515 136.5168 
L 203.585965 142.774255 
L 203.71125 144.599345 
L 203.773892 144.5472 
L 203.920058 146.893745 
L 203.9827 146.372291 
L 204.23327 141.314182 
L 204.316793 142.357091 
L 204.525601 146.268 
L 204.880574 135.421745 
L 204.943217 135.734618 
L 205.089382 137.664 
L 205.131144 137.507564 
L 205.235548 137.038255 
L 205.256429 137.246836 
L 205.736687 145.746545 
L 206.133422 158.000727 
L 206.175183 158.261455 
L 206.196064 157.635709 
L 206.34223 155.654182 
L 206.363111 155.810618 
L 206.88513 174.687273 
L 207.1357 182.509091 
L 207.428031 185.012073 
L 207.615958 191.895273 
L 207.636839 191.634545 
L 208.012693 185.794255 
L 208.325905 176.147345 
L 208.409428 177.033818 
L 208.555594 178.493891 
L 208.576474 178.337455 
L 208.639117 177.294545 
L 209.307302 154.089818 
L 209.536991 142.2528 
L 209.620514 143.139273 
L 209.683156 143.243564 
L 209.704037 143.139273 
L 209.829322 142.982836 
L 209.891964 143.4 
L 210.03813 147.675927 
L 210.393103 158.365745 
L 210.539269 222.296073 
L 210.434865 144.964364 
L 210.601911 218.854473 
L 210.810719 209.885455 
L 211.019527 191.425964 
L 211.082169 190.904509 
L 211.144812 191.060945 
L 211.207454 190.695927 
L 211.311858 187.932218 
L 211.645951 171.923564 
L 211.666832 174.009382 
L 211.687712 175.104436 
L 211.729474 171.662836 
L 211.959163 156.175636 
L 212.042686 152.629745 
L 212.084447 154.350545 
L 212.230613 156.175636 
L 212.293255 154.976291 
L 212.543825 143.817164 
L 212.648229 144.860073 
L 212.710871 146.528727 
L 212.857037 148.458109 
L 213.253772 154.246255 
L 213.295533 153.985527 
L 213.546103 150.596073 
L 213.587864 151.378255 
L 213.963719 161.129455 
L 214.047242 160.190836 
L 214.464858 151.482545 
L 214.5275 151.743273 
L 214.715427 153.829091 
L 214.986877 158.000727 
L 215.112162 159.721527 
L 215.362732 168.273382 
L 215.780348 184.229891 
L 215.905632 183.708436 
L 216.239725 177.294545 
L 217.095837 140.010545 
L 217.200241 140.636291 
L 217.242003 140.636291 
L 217.471692 135.161018 
L 217.576096 136.099636 
L 218.327804 148.093091 
L 218.348685 147.832364 
L 218.432208 146.424436 
L 218.47397 147.154473 
L 218.557493 149.657455 
L 218.975109 162.693818 
L 219.142155 169.316291 
L 219.455367 183.656291 
L 219.476248 183.656291 
L 219.78946 181.309745 
L 219.81034 181.361891 
L 219.831221 181.361891 
L 219.893863 180.318982 
L 220.33236 165.561818 
L 220.666453 153.933382 
L 220.687334 154.194109 
L 220.812618 155.393455 
L 220.85438 155.132727 
L 220.937903 154.246255 
L 221.39728 145.1208 
L 221.459923 145.1208 
L 221.752254 148.510255 
L 221.794015 147.936655 
L 222.065466 141.470618 
L 222.775413 169.889891 
L 222.96334 179.797527 
L 223.088625 177.138109 
L 223.151267 177.033818 
L 223.339194 172.497164 
L 223.694168 158.261455 
L 224.216187 143.243564 
L 224.237068 144.338618 
L 224.508518 153.307636 
L 224.654684 159.304364 
L 224.926134 170.3592 
L 225.281108 193.459636 
L 225.740485 215.256436 
L 225.844889 217.290109 
L 225.886651 215.725745 
L 227.097737 154.246255 
L 227.118617 154.194109 
L 227.139498 154.350545 
L 227.390068 159.930109 
L 227.494472 158.678618 
L 227.661518 155.393455 
L 227.786803 153.933382 
L 227.807683 154.194109 
L 227.995611 157.218545 
L 228.058253 156.071345 
L 228.204418 154.611273 
L 228.24618 154.767709 
L 228.308822 155.289164 
L 228.475869 156.801382 
L 228.559392 156.071345 
L 228.789081 151.847564 
L 228.809961 152.525455 
L 228.956127 155.393455 
L 228.977008 155.132727 
L 229.081412 151.326109 
L 229.373743 141.314182 
L 229.394624 141.418473 
L 229.645193 139.124073 
L 229.666074 139.228364 
L 229.812239 140.375564 
L 230.438663 150.804655 
L 230.480425 150.961091 
L 230.87716 156.071345 
L 230.960683 154.715564 
L 231.336537 145.1208 
L 231.42006 145.485818 
L 231.461822 145.642255 
L 231.503584 145.485818 
L 231.566226 144.860073 
L 231.691511 140.427709 
L 231.775034 138.029018 
L 231.837676 138.706909 
L 231.94208 137.664 
L 231.983842 137.924727 
L 232.109126 138.706909 
L 232.150888 138.446182 
L 232.276173 136.777527 
L 232.338815 135.838909 
L 232.401458 136.464655 
L 232.568504 139.489091 
L 232.589385 139.3848 
L 232.652027 138.863345 
L 232.693789 139.071927 
L 232.777312 140.532 
L 233.194928 151.065382 
L 233.215808 151.117527 
L 233.236689 150.961091 
L 233.382855 150.335345 
L 233.403736 150.439636 
L 233.466378 151.743273 
L 234.447775 192.051709 
L 234.510417 191.373818 
L 234.760987 184.6992 
L 235.450053 136.777527 
L 235.742384 118.7352 
L 235.805027 118.995927 
L 236.055596 121.655345 
L 236.16 123.428291 
L 236.201762 123.219709 
L 236.285285 123.063273 
L 236.306166 123.219709 
L 236.640258 126.817745 
L 236.68202 126.557018 
L 236.723781 126.452727 
L 236.744662 126.609164 
L 236.974351 130.467927 
L 237.036993 129.320727 
L 237.22492 124.4712 
L 237.350205 125.149091 
L 237.371086 125.149091 
L 237.496371 126.713455 
L 237.767821 129.998618 
L 237.788702 129.946473 
L 237.809583 129.998618 
L 237.976629 131.145818 
L 237.99751 131.041527 
L 238.060152 130.624364 
L 238.081033 130.520073 
L 238.101914 130.7808 
L 238.122794 130.7808 
L 238.227198 130.885091 
L 238.644814 135.056727 
L 238.686576 134.535273 
L 238.916264 130.259345 
L 238.978907 130.520073 
L 239.041549 130.885091 
L 239.083311 130.7808 
L 239.187715 130.2072 
L 239.208596 130.259345 
L 239.313 132.814473 
L 239.542688 141.835636 
L 239.876781 158.8872 
L 240.231754 170.254909 
L 240.273516 170.098473 
L 240.524085 167.126182 
L 241.275794 136.464655 
L 241.338436 136.725382 
L 241.359317 136.777527 
L 241.380198 136.725382 
L 241.484602 135.213164 
L 241.547244 135.995345 
L 242.111026 163.997455 
L 242.403357 179.276073 
L 242.633045 183.291273 
L 242.841853 189.548727 
L 242.862734 189.392291 
L 242.946257 188.662255 
L 242.988019 189.027273 
L 243.155065 191.269527 
L 243.196827 190.956655 
L 243.322111 187.097891 
L 243.468277 185.116364 
L 243.489158 185.116364 
L 243.614443 184.229891 
L 243.635323 184.334182 
L 243.697966 185.012073 
L 244.178224 194.137527 
L 244.199105 194.085382 
L 244.261747 194.137527 
L 244.34527 195.806182 
L 244.59584 200.082109 
L 244.700244 200.916436 
L 244.742005 200.655709 
L 245.034336 202.063636 
L 245.055217 201.959345 
L 245.159621 198.934909 
L 245.368429 194.763273 
L 245.410191 194.867564 
L 245.514595 192.312436 
L 245.953091 174.270109 
L 246.036614 174.948 
L 246.18278 176.512364 
L 246.892727 206.652436 
L 247.164177 220.053818 
L 247.185058 219.949527 
L 247.414747 214.995709 
L 247.76972 204.670909 
L 247.811482 204.670909 
L 248.437905 193.824655 
L 248.500548 194.398255 
L 248.792879 197.892 
L 248.83464 197.787709 
L 248.897283 196.1712 
L 249.043448 186.159273 
L 249.252256 172.445018 
L 249.294018 172.705745 
L 249.440183 175.052291 
L 249.544587 174.843709 
L 249.774276 178.076727 
L 250.379819 208.164655 
L 250.546865 217.290109 
L 250.567746 217.185818 
L 250.67215 216.403636 
L 250.693031 216.507927 
L 250.880958 218.906618 
L 250.92272 218.906618 
L 251.048004 215.986473 
L 251.507382 194.867564 
L 251.862355 175.573745 
L 252.175567 171.975709 
L 252.363494 170.619927 
L 252.426137 170.9328 
L 252.551421 170.515636 
L 252.614064 169.837745 
L 252.676706 169.994182 
L 252.801991 171.402109 
L 252.822872 170.515636 
L 253.115203 163.580291 
L 254.159242 145.746545 
L 254.201004 146.424436 
L 254.493335 151.117527 
L 254.514216 151.065382 
L 255.015355 142.982836 
L 255.057116 143.295709 
L 255.41209 148.458109 
L 255.516494 147.728073 
L 255.579136 147.675927 
L 255.68354 144.077891 
L 255.746182 145.746545 
L 255.850586 147.728073 
L 255.892348 147.467345 
L 255.95499 146.633018 
L 256.017633 147.206618 
L 256.435248 153.672655 
L 256.936387 170.619927 
L 256.957268 169.994182 
L 257.040791 168.846982 
L 257.082553 169.212 
L 257.207838 170.619927 
L 257.249599 169.994182 
L 257.729858 160.190836 
L 258.084831 143.921455 
L 258.126593 144.5472 
L 258.335401 148.458109 
L 258.58597 151.117527 
L 258.815659 155.028436 
L 258.899182 156.853527 
L 259.295917 169.055564 
L 259.358559 169.368436 
L 259.421202 169.212 
L 259.609129 168.534109 
L 259.692652 168.951273 
L 259.734414 168.794836 
L 259.964102 164.883927 
L 260.277314 151.743273 
L 260.319076 151.638982 
L 260.339956 151.847564 
L 260.548764 154.350545 
L 260.590526 153.829091 
L 260.715811 148.458109 
L 260.96638 139.906255 
L 260.987261 139.906255 
L 261.300473 143.504291 
L 261.446638 148.770982 
L 261.4884 148.093091 
L 261.655446 144.807927 
L 261.843373 138.602618 
L 261.906016 140.114836 
L 262.156585 145.746545 
L 262.260989 146.633018 
L 262.28187 146.424436 
L 262.386274 144.025745 
L 262.469797 141.731345 
L 262.511559 142.617818 
L 262.574201 143.921455 
L 262.615963 142.722109 
L 262.741248 140.375564 
L 262.762128 140.897018 
L 263.054459 147.832364 
L 263.096221 147.310909 
L 263.305029 142.461382 
L 263.388552 141.6792 
L 263.827049 130.885091 
L 263.86881 132.032291 
L 263.994095 134.378836 
L 264.014976 133.857382 
L 264.244664 128.955709 
L 264.307307 129.477164 
L 264.536996 131.771564 
L 264.599638 132.188727 
L 264.683161 133.231636 
L 265.059015 141.314182 
L 265.121658 141.209891 
L 265.226062 139.645527 
L 265.497512 136.203927 
L 265.518393 136.099636 
L 265.539274 136.464655 
L 265.70632 138.081164 
L 265.768962 137.559709 
L 265.852485 137.142545 
L 265.873366 137.507564 
L 266.22834 144.338618 
L 266.77124 161.650909 
L 266.980048 157.896436 
L 267.042691 158.522182 
L 267.084452 158.8872 
L 267.126214 158.365745 
L 267.81528 139.906255 
L 267.919684 141.157745 
L 268.128492 145.068655 
L 268.191134 145.902982 
L 268.232896 145.590109 
L 268.3373 144.286473 
L 268.379061 144.703636 
L 268.483465 147.675927 
L 268.984604 172.601455 
L 269.089008 174.791564 
L 269.13077 174.530836 
L 269.172531 174.009382 
L 269.235174 174.426545 
L 269.276935 174.687273 
L 269.318697 174.426545 
L 269.360458 174.322255 
L 269.40222 174.530836 
L 269.485743 175.886618 
L 269.527505 176.512364 
L 269.569266 175.313018 
L 269.798955 171.037091 
L 269.861597 171.141382 
L 270.112167 166.344 
L 270.174809 167.230473 
L 270.341856 172.497164 
L 270.613306 181.101164 
L 270.696829 184.229891 
L 271.23973 213.3792 
L 271.427657 216.403636 
L 271.552942 217.602982 
L 271.594703 217.290109 
L 271.740869 213.900655 
L 271.824392 214.161382 
L 271.949677 212.075564 
L 272.137604 207.121745 
L 272.283769 204.045164 
L 272.596981 195.962618 
L 272.993716 186.576436 
L 273.119001 185.481382 
L 273.160762 185.898545 
L 273.766305 197.370545 
L 273.787186 119.778109 
L 273.870709 190.800218 
L 273.933352 196.588364 
L 273.995994 194.919709 
L 274.079517 188.036509 
L 274.267444 179.484655 
L 274.371848 177.503127 
L 274.455372 177.816 
L 274.518014 178.024582 
L 274.831226 181.414036 
L 274.914749 181.2576 
L 274.956511 181.309745 
L 274.977391 181.361891 
L 275.040034 184.6992 
L 275.081795 183.552 
L 275.269722 177.555273 
L 275.332365 178.702473 
L 275.436769 180.162545 
L 275.47853 179.641091 
L 275.541173 178.9632 
L 275.603815 179.380364 
L 275.687338 179.484655 
L 275.708219 179.380364 
L 275.791742 178.598182 
L 276.021431 172.705745 
L 276.459927 162.537382 
L 276.501689 161.807345 
L 277.232517 138.446182 
L 277.336921 136.5168 
L 277.378682 136.986109 
L 277.462205 137.403273 
L 277.545729 141.157745 
L 277.984225 160.451564 
L 278.10951 161.807345 
L 278.527126 186.524291 
L 278.756815 193.720364 
L 278.777695 193.616073 
L 278.840338 193.563927 
L 279.111788 189.965891 
L 279.15355 188.766545 
L 279.195311 189.965891 
L 279.362358 195.806182 
L 279.383238 194.919709 
L 279.529404 191.634545 
L 279.550285 191.738836 
L 279.884377 194.502545 
L 279.926139 194.085382 
L 280.134947 191.738836 
L 280.176708 191.530255 
L 280.21847 191.738836 
L 280.343755 193.355345 
L 280.552563 195.128291 
L 280.573443 195.128291 
L 280.636086 196.1712 
L 280.698728 197.266255 
L 280.74049 196.7448 
L 281.116344 186.837164 
L 281.199867 187.097891 
L 281.28339 187.358618 
L 281.325152 187.202182 
L 281.471317 186.002836 
L 281.742768 180.684 
L 281.826291 180.684 
L 282.07686 183.186982 
L 282.139503 184.334182 
L 282.181264 183.812727 
L 282.640642 172.236436 
L 282.703284 173.018618 
L 283.1209 180.788291 
L 283.162662 180.840436 
L 283.183542 180.788291 
L 283.225304 180.579709 
L 283.559397 191.478109 
L 283.872608 201.020727 
L 283.893489 201.020727 
L 283.977012 199.6128 
L 284.248463 192.051709 
L 285.021052 165.144655 
L 285.125456 164.675345 
L 285.146337 164.779636 
L 285.271621 167.543345 
L 285.793641 189.444436 
L 286.02333 198.778473 
L 286.106853 199.0392 
L 286.127734 198.934909 
L 286.211257 198.674182 
L 286.253019 198.830618 
L 286.336542 199.0392 
L 286.357423 198.934909 
L 286.482707 197.787709 
L 286.775038 193.563927 
L 286.837681 193.824655 
L 286.879442 193.8768 
L 286.900323 193.824655 
L 287.004727 192.833891 
L 287.589389 184.959927 
L 287.672913 185.637818 
L 287.986124 190.330909 
L 288.111409 189.913745 
L 288.278455 189.809455 
L 288.382859 188.766545 
L 288.487263 187.358618 
L 288.65431 180.579709 
L 288.863118 176.408073 
L 288.967522 174.843709 
L 289.322495 166.083273 
L 289.71923 150.804655 
L 289.760992 150.8568 
L 289.823634 152.369018 
L 290.157727 158.939345 
L 290.470939 151.899709 
L 290.5127 152.369018 
L 290.76327 161.129455 
L 290.888554 165.144655 
L 290.951197 164.518909 
L 290.992958 164.414618 
L 291.03472 164.6232 
L 291.347932 166.604727 
L 291.368813 166.500436 
L 291.410574 166.239709 
L 291.431455 166.761164 
L 291.514978 169.837745 
L 291.619382 168.534109 
L 291.911713 163.997455 
L 292.09964 162.954545 
L 292.120521 162.954545 
L 292.266687 164.258182 
L 292.308448 163.997455 
L 292.496375 158.939345 
L 292.642541 159.825818 
L 292.705183 160.608 
L 292.788706 162.3288 
L 293.185441 180.423273 
L 293.874508 197.787709 
L 293.93715 197.474836 
L 294.229481 193.563927 
L 294.333885 192.416727 
L 294.375647 192.677455 
L 294.438289 192.833891 
L 294.480051 192.677455 
L 294.626216 192.312436 
L 294.667978 192.521018 
L 294.709739 192.260291 
L 294.918547 188.349382 
L 295.189997 185.481382 
L 295.52409 182.665527 
L 295.670256 182.509091 
L 295.837302 182.874109 
L 295.899944 182.926255 
L 296.150514 184.6992 
L 296.296679 184.959927 
L 296.338441 185.220655 
L 296.421964 187.306473 
L 296.442845 185.794255 
L 296.693414 166.865455 
L 297.403361 133.753091 
L 297.674812 120.351709 
L 297.758335 122.1768 
L 298.050666 131.406545 
L 298.259474 133.231636 
L 298.301235 133.127345 
L 298.405639 131.562982 
L 298.739732 125.149091 
L 298.844136 124.523345 
L 298.865017 124.627636 
L 299.032063 126.609164 
L 299.303513 130.363636 
L 299.637606 133.596655 
L 300.01346 140.792727 
L 300.076103 140.271273 
L 300.305791 134.430982 
L 300.619003 127.652073 
L 301.099261 124.888364 
L 301.161904 124.888364 
L 301.32895 123.480436 
L 301.516877 124.784073 
L 301.809208 128.121382 
L 301.871851 128.121382 
L 301.997135 125.774836 
L 302.352109 118.265891 
L 302.414751 117.483709 
L 302.456513 118.109455 
L 302.957652 128.799273 
L 303.834645 161.807345 
L 303.939049 162.798109 
L 303.980811 162.433091 
L 304.210499 158.261455 
L 304.544592 148.197382 
L 304.648996 147.4152 
L 304.690758 147.675927 
L 304.732519 147.832364 
L 304.774281 147.675927 
L 304.983089 146.685164 
L 305.02485 146.893745 
L 305.066612 146.945891 
L 305.087493 146.893745 
L 305.171016 146.528727 
L 305.212777 146.685164 
L 305.484228 151.221818 
L 305.609512 152.525455 
L 305.630393 152.421164 
L 305.672155 152.369018 
L 305.797439 151.326109 
L 306.987645 118.526618 
L 307.008525 118.474473 
L 307.029406 118.630909 
L 307.447022 124.210473 
L 307.65583 123.167564 
L 307.697592 123.428291 
L 307.801995 123.949745 
L 308.115207 127.130618 
L 308.261373 127.599927 
L 308.407538 126.348436 
L 308.699869 121.759636 
L 308.72075 121.863927 
L 308.804273 123.324 
L 309.117485 130.467927 
L 309.159247 130.520073 
L 309.180128 130.363636 
L 309.284532 129.842182 
L 309.305412 129.998618 
L 309.597744 133.335927 
L 309.660386 133.6488 
L 309.931836 136.464655 
L 310.245048 139.071927 
L 310.516498 140.271273 
L 310.537379 140.271273 
L 310.620902 138.8112 
L 310.892353 135.9432 
L 310.913233 135.9432 
L 310.975876 135.578182 
L 311.017637 135.838909 
L 311.309968 139.071927 
L 311.330849 138.8112 
L 311.644061 131.510836 
L 312.186962 110.7048 
L 312.228723 110.809091 
L 312.312246 110.965527 
L 312.333127 110.913382 
L 312.458412 109.870473 
L 312.625458 107.523927 
L 312.729862 107.8368 
L 312.771624 107.784655 
L 312.834266 107.576073 
L 312.855147 107.784655 
L 312.93867 109.922618 
L 313.147478 116.649382 
L 313.21012 116.388655 
L 313.231001 116.127927 
L 313.251882 116.649382 
L 313.335405 118.109455 
L 313.398048 117.483709 
L 313.669498 115.8672 
L 313.690379 116.023636 
L 314.25416 124.366909 
L 314.400326 130.728655 
L 314.755299 150.074618 
L 315.193796 159.930109 
L 315.31908 161.650909 
L 315.360842 161.285891 
L 316.029027 145.590109 
L 316.09167 145.485818 
L 316.11255 145.590109 
L 316.196074 146.893745 
L 316.237835 148.093091 
L 316.300478 147.154473 
L 316.446643 145.902982 
L 316.467524 146.111564 
L 316.613689 147.9888 
L 316.738974 150.2832 
L 316.801617 150.022473 
L 316.843378 150.074618 
L 317.031305 145.225091 
L 317.093948 146.685164 
L 318.263272 178.9632 
L 318.325914 178.858909 
L 318.451199 178.702473 
L 318.492961 178.598182 
L 318.827053 170.880655 
L 319.098504 157.583564 
L 319.349073 148.770982 
L 319.369954 148.979564 
L 319.474358 150.335345 
L 319.516119 150.022473 
L 319.641404 145.329382 
L 319.912855 133.127345 
L 319.933735 133.753091 
L 320.205186 138.602618 
L 320.977775 158.105018 
L 321.061298 161.025164 
L 321.144821 160.503709 
L 321.249225 159.200073 
L 321.270106 159.408655 
L 321.562437 163.215273 
L 321.687722 164.258182 
L 321.792126 165.040364 
L 321.833887 164.779636 
L 321.959172 163.371709 
L 322.000934 163.736727 
L 322.147099 166.083273 
L 322.209742 165.040364 
L 322.564715 155.810618 
L 322.585596 155.810618 
L 322.794404 159.565091 
L 323.044973 163.058836 
L 323.149377 165.926836 
L 323.316424 169.733455 
L 323.358185 169.316291 
L 323.420827 168.586255 
L 323.462589 168.846982 
L 323.566993 173.122909 
L 323.75492 177.398836 
L 323.817563 177.555273 
L 324.00549 180.058255 
L 324.256059 181.570473 
L 324.339582 181.622618 
L 324.402225 182.144073 
L 324.590152 190.226618 
L 324.81984 215.621455 
L 325.049529 233.715927 
L 325.091291 234.915273 
L 325.153933 233.507345 
L 325.383622 231.682255 
L 325.446264 231.369382 
L 325.488026 231.630109 
L 325.634191 232.308 
L 325.717715 229.283564 
L 325.947403 214.578545 
L 326.302377 184.855636 
L 326.469423 180.840436 
L 326.699112 174.165818 
L 326.90792 170.619927 
L 327.012324 170.672073 
L 327.638747 176.147345 
L 327.659628 176.0952 
L 327.784913 175.625891 
L 327.805794 175.730182 
L 327.97284 177.294545 
L 328.035482 176.877382 
L 328.348694 174.687273 
L 328.390456 174.582982 
L 328.453098 174.165818 
L 328.682787 171.714982 
L 328.724548 172.08 
L 328.828952 173.644364 
L 329.142164 179.901818 
L 329.183926 180.266836 
L 329.476257 161.390182 
L 330.019158 117.483709 
L 330.520297 91.515273 
L 330.708224 93.4968 
L 330.833508 96.990545 
L 331.104959 107.523927 
L 331.12584 107.419636 
L 331.292886 104.708073 
L 331.355528 105.073091 
L 331.543455 108.618982 
L 332.065475 122.385382 
L 332.148998 121.6032 
L 332.295164 120.612436 
L 332.316045 120.351709 
L 332.357806 120.873164 
L 332.629256 123.741164 
L 332.650137 123.845455 
L 332.691899 123.689018 
L 332.817184 122.541818 
L 333.067753 120.195273 
L 333.088634 120.299564 
L 333.130395 120.351709 
L 333.193038 121.081745 
L 333.401846 125.670545 
L 333.694177 131.250109 
L 333.756819 131.823709 
L 333.7777 131.771564 
L 334.070031 125.253382 
L 334.863501 103.143709 
L 334.988786 104.290909 
L 335.155832 109.140436 
L 335.469044 124.888364 
L 336.011945 153.7248 
L 336.262514 167.543345 
L 336.492203 172.08 
L 336.554845 171.975709 
L 336.617488 171.819273 
L 336.638368 171.975709 
L 336.763653 173.487927 
L 336.826296 173.018618 
L 336.909819 172.601455 
L 337.160388 168.273382 
L 337.661527 154.611273 
L 338.204428 141.209891 
L 338.329713 140.166982 
L 338.392355 140.532 
L 338.434117 140.427709 
L 338.51764 140.010545 
L 338.663805 138.289745 
L 338.851732 136.256073 
L 339.06054 133.857382 
L 339.206706 132.970909 
L 339.227587 133.127345 
L 339.31111 134.013818 
L 339.540798 138.602618 
L 339.728726 137.038255 
L 339.791368 137.507564 
L 339.812249 137.559709 
L 339.83313 137.507564 
L 340.146341 134.378836 
L 340.188103 134.430982 
L 340.271626 132.970909 
L 340.960692 118.526618 
L 341.253023 114.094255 
L 341.273904 114.198545 
L 341.775043 116.388655 
L 342.088255 112.269164 
L 342.276182 106.116 
L 342.380586 106.741745 
L 342.48499 108.097527 
L 342.526752 107.8368 
L 342.714679 106.741745 
L 342.75644 106.637455 
L 343.048771 105.698836 
L 343.069652 105.698836 
L 343.215818 104.812364 
L 343.257579 105.177382 
L 343.320222 104.812364 
L 343.424626 106.116 
L 343.508149 107.784655 
L 343.54991 107.002473 
L 343.884003 98.554909 
L 344.051049 99.858545 
L 344.092811 99.337091 
L 344.176334 98.6592 
L 344.197215 99.076364 
L 344.656592 114.876436 
L 344.823639 121.238182 
L 345.157731 134.430982 
L 345.366539 138.185455 
L 345.450062 140.010545 
L 345.491824 138.967636 
L 345.63799 137.820436 
L 345.972082 128.694982 
L 346.076486 129.06 
L 346.139129 129.216436 
L 346.18089 129.06 
L 346.347936 128.434255 
L 346.535864 130.467927 
L 346.70291 130.885091 
L 346.995241 137.768291 
L 347.454618 149.396727 
L 347.684307 147.571636 
L 347.726069 147.832364 
L 347.872234 150.8568 
L 348.164565 157.218545 
L 348.206327 157.114255 
L 348.227208 157.218545 
L 348.331612 157.896436 
L 348.352492 157.479273 
L 348.790989 140.792727 
L 348.916274 142.774255 
L 349.062439 146.945891 
L 349.250366 150.961091 
L 349.33389 151.482545 
L 349.960313 174.843709 
L 350.043837 176.773091 
L 350.085598 175.834473 
L 350.148241 174.948 
L 350.210883 175.469455 
L 350.231764 175.573745 
L 350.607618 161.025164 
L 350.795545 151.221818 
L 350.837307 150.961091 
L 351.046115 139.332655 
L 351.108757 141.314182 
L 351.296684 150.074618 
L 351.505492 156.279927 
L 351.651658 161.233745 
L 351.943989 169.055564 
L 351.964869 293.578909 
L 352.048393 199.717091 
L 352.215439 158.365745 
L 352.340724 152.264727 
L 352.403366 152.5776 
L 352.716578 193.563927 
L 353.071551 211.0848 
L 353.322121 224.329745 
L 353.55181 246.230836 
L 353.781498 259.319345 
L 353.865021 259.788655 
L 353.885902 259.580073 
L 353.990306 258.224291 
L 354.052949 258.745745 
L 354.136472 259.8408 
L 354.199114 259.2672 
L 354.282637 256.3992 
L 354.658491 239.869091 
L 354.721134 240.651273 
L 354.783776 241.433455 
L 354.825538 240.912 
L 355.15963 234.393818 
L 355.222273 234.915273 
L 355.264034 234.810982 
L 355.389319 234.0288 
L 355.4102 234.289527 
L 355.535485 236.375345 
L 355.93222 248.629527 
L 355.953101 248.577382 
L 356.412478 244.979345 
L 356.47512 244.979345 
L 356.600405 246.908727 
L 356.704809 246.230836 
L 356.746571 246.282982 
L 357.289471 254.052655 
L 357.310352 253.844073 
L 357.331233 254.209091 
L 357.644445 267.089018 
L 357.686206 266.724 
L 357.853253 265.159636 
L 358.06206 267.349745 
L 358.166464 267.662618 
L 358.187345 267.610473 
L 358.646723 254.991273 
L 358.897292 246.648 
L 358.959935 247.013018 
L 358.980815 246.752291 
L 359.502835 240.807709 
L 359.544597 241.068436 
L 359.920451 244.405745 
L 359.941332 244.197164 
L 360.024855 240.755564 
L 360.108378 238.565455 
L 360.17102 238.982618 
L 360.254544 240.234109 
L 360.317186 239.973382 
L 360.609517 235.176 
L 360.776563 232.464436 
L 360.818325 232.673018 
L 360.839206 232.568727 
L 360.860087 232.829455 
L 361.027133 237.522545 
L 361.402987 246.491564 
L 361.423868 246.387273 
L 361.570033 245.240073 
L 361.590914 245.448655 
L 361.925007 257.337818 
L 361.987649 260.362255 
L 362.029411 260.049382 
L 362.593192 214.682836 
L 362.697596 210.302618 
L 362.739358 211.293382 
L 362.802 212.492727 
L 362.843762 211.971273 
L 363.05257 206.861018 
L 363.156974 208.2168 
L 363.177854 208.164655 
L 363.240497 205.192364 
L 363.303139 207.434618 
L 363.971324 272.199273 
L 364.075728 269.748436 
L 364.11749 269.174836 
L 364.159252 269.748436 
L 364.305417 270.478473 
L 364.201013 269.696291 
L 364.326298 270.217745 
L 364.660391 259.2672 
L 364.827437 249.881018 
L 365.43298 199.195636 
L 365.453861 199.195636 
L 365.746192 179.223927 
L 366.059404 161.807345 
L 366.372615 176.355927 
L 366.393496 176.355927 
L 366.456139 177.033818 
L 366.957278 207.173891 
L 367.354013 233.872364 
L 367.416655 233.4552 
L 367.479297 233.4552 
L 367.521059 233.194473 
L 367.729867 239.608364 
L 367.771629 239.086909 
L 367.959556 231.630109 
L 368.08484 228.136364 
L 368.147483 228.240655 
L 368.231006 226.467709 
L 368.377171 219.897382 
L 368.627741 207.121745 
L 368.982714 200.342836 
L 369.003595 200.499273 
L 369.149761 202.428655 
L 369.233284 202.167927 
L 369.254165 202.167927 
L 369.358569 200.499273 
L 369.504734 197.526982 
L 369.525615 197.892 
L 369.630019 203.106545 
L 370.005873 225.894109 
L 370.17292 228.2928 
L 370.256443 227.771345 
L 370.298204 227.7192 
L 370.319085 227.875636 
L 370.423489 230.326473 
L 370.44437 231.004364 
L 370.465251 229.022836 
L 371.216959 161.285891 
L 371.404886 154.976291 
L 371.425767 155.028436 
L 371.738979 164.258182 
L 372.260999 221.357455 
L 372.636853 246.230836 
L 372.720376 247.273745 
L 372.741257 246.804436 
L 372.908303 241.850618 
L 372.991826 242.737091 
L 373.07535 244.040727 
L 373.492965 259.580073 
L 373.534727 259.319345 
L 373.576489 259.006473 
L 373.597369 259.162909 
L 373.743535 262.656655 
L 373.785296 261.770182 
L 373.952343 260.988 
L 373.973224 260.831564 
L 374.014985 261.248727 
L 374.223793 262.552364 
L 374.265555 262.1352 
L 374.369959 259.580073 
L 374.557886 247.951636 
L 374.808455 236.636073 
L 375.267833 218.645891 
L 375.685448 195.284727 
L 375.706329 195.806182 
L 375.852495 198.934909 
L 375.894256 198.152727 
L 375.915137 197.996291 
L 375.956899 198.517745 
L 376.332753 207.538909 
L 376.854773 230.326473 
L 376.917415 231.265091 
L 376.938296 230.847927 
L 377.021819 228.657818 
L 377.063581 228.918545 
L 377.188865 231.525818 
L 377.272389 231.004364 
L 377.481197 229.596436 
L 377.773528 234.498109 
L 378.149382 253.948364 
L 378.232905 258.797891 
L 378.295547 256.920655 
L 378.754925 240.286255 
L 378.817567 239.869091 
L 378.88021 240.025527 
L 378.90109 240.025527 
L 378.963733 240.912 
L 378.984614 240.286255 
L 379.297825 228.657818 
L 379.485753 216.403636 
L 379.506633 217.029382 
L 379.611037 220.314545 
L 379.67368 219.6888 
L 379.715441 218.750182 
L 379.778084 219.271636 
L 379.840726 221.253164 
L 379.924249 223.964727 
L 379.986892 222.817527 
L 380.174819 214.943564 
L 380.404507 209.103273 
L 380.529792 206.600291 
L 380.550673 207.382473 
L 380.843004 217.968 
L 380.884766 219.949527 
L 380.968289 219.010909 
L 381.177097 214.317818 
L 381.344143 214.734982 
L 381.490308 211.866982 
L 381.53207 212.388436 
L 381.636474 215.882182 
L 381.80352 222.765382 
L 381.845282 221.461745 
L 382.074971 210.041891 
L 382.32554 192.156 
L 382.534348 184.438473 
L 382.57611 184.959927 
L 382.638752 186.263564 
L 382.743156 187.5672 
L 382.784918 187.358618 
L 382.868441 185.116364 
L 383.056368 179.797527 
L 383.11901 180.527564 
L 383.286057 184.229891 
L 383.536626 200.499273 
L 383.808076 221.722473 
L 383.849838 220.940291 
L 384.079527 216.768655 
L 384.100407 217.550836 
L 384.68507 243.102109 
L 384.872997 251.445382 
L 384.998281 252.018982 
L 385.040043 252.540436 
L 385.060924 251.966836 
L 385.186209 247.951636 
L 385.22797 248.577382 
L 385.332374 249.933164 
L 385.353255 249.098836 
L 385.666467 239.504073 
L 386.063202 223.078255 
L 386.313771 215.1 
L 386.626983 235.958182 
L 386.647864 236.3232 
L 386.668745 235.436727 
L 386.919314 215.621455 
L 387.232526 187.723636 
L 387.85895 161.911636 
L 387.900711 162.172364 
L 388.172162 185.012073 
L 388.422731 205.035927 
L 388.464493 205.296655 
L 388.610658 209.103273 
L 389.090917 218.854473 
L 389.153559 217.811564 
L 389.362367 212.075564 
L 389.383248 212.232 
L 389.508532 211.032655 
L 389.550294 211.449818 
L 389.633817 213.639927 
L 389.863506 219.271636 
L 390.155837 223.808291 
L 390.573453 238.148291 
L 390.636095 237.783273 
L 390.76138 236.218909 
L 391.492208 210.824073 
L 391.993347 158.105018 
L 392.515366 127.860655 
L 392.578009 127.078473 
L 392.682413 124.731927 
L 392.724174 126.348436 
L 393.517644 186.576436 
L 393.705571 198.257018 
L 393.956141 207.956073 
L 394.039664 209.989745 
L 394.373757 226.206982 
L 394.833134 261.092291 
L 395.334273 274.024364 
L 395.438677 276.266618 
L 395.50132 278.352436 
L 395.563962 277.518109 
L 396.440955 235.436727 
L 396.608001 226.415564 
L 396.858571 216.142909 
L 396.900333 215.360727 
L 396.983856 215.725745 
L 397.025617 215.465018 
L 397.067379 215.777891 
L 397.10914 217.029382 
L 397.35971 223.599709 
L 397.380591 223.547564 
L 397.589399 221.513891 
L 397.735564 221.774618 
L 397.756445 221.774618 
L 397.965253 229.022836 
L 398.007015 227.354182 
L 398.361988 218.124436 
L 398.466392 214.317818 
L 398.487273 213.3792 
L 398.487273 213.3792 
" style="fill:none;stroke:#1f77b4;stroke-linecap:square;stroke-width:1.5;"/>
   </g>
   <g id="patch_3">
    <path d="M 57.6 306.3024 
L 57.6 41.2992 
" style="fill:none;stroke:#000000;stroke-linecap:square;stroke-linejoin:miter;stroke-width:0.8;"/>
   </g>
   <g id="patch_4">
    <path d="M 414.72 306.3024 
L 414.72 41.2992 
" style="fill:none;stroke:#000000;stroke-linecap:square;stroke-linejoin:miter;stroke-width:0.8;"/>
   </g>
   <g id="patch_5">
    <path d="M 57.6 306.3024 
L 414.72 306.3024 
" style="fill:none;stroke:#000000;stroke-linecap:square;stroke-linejoin:miter;stroke-width:0.8;"/>
   </g>
   <g id="patch_6">
    <path d="M 57.6 41.2992 
L 414.72 41.2992 
" style="fill:none;stroke:#000000;stroke-linecap:square;stroke-linejoin:miter;stroke-width:0.8;"/>
   </g>
   <g id="text_17">
    <!-- Ritmo Cardíaco -->
    <g transform="translate(190.094063 35.2992)scale(0.12 -0.12)">
     <use xlink:href="#DejaVuSans-82"/>
     <use x="69.482422" xlink:href="#DejaVuSans-105"/>
     <use x="97.265625" xlink:href="#DejaVuSans-116"/>
     <use x="136.474609" xlink:href="#DejaVuSans-109"/>
     <use x="233.886719" xlink:href="#DejaVuSans-111"/>
     <use x="295.068359" xlink:href="#DejaVuSans-32"/>
     <use x="326.855469" xlink:href="#DejaVuSans-67"/>
     <use x="396.679688" xlink:href="#DejaVuSans-97"/>
     <use x="457.958984" xlink:href="#DejaVuSans-114"/>
     <use x="499.056641" xlink:href="#DejaVuSans-100"/>
     <use x="562.533203" xlink:href="#DejaVuSans-237"/>
     <use x="590.316406" xlink:href="#DejaVuSans-97"/>
     <use x="651.595703" xlink:href="#DejaVuSans-99"/>
     <use x="706.576172" xlink:href="#DejaVuSans-111"/>
    </g>
   </g>
  </g>
 </g>
 <defs>
  <clipPath id="pdd0215703b">
   <rect height="265.0032" width="357.12" x="57.6" y="41.2992"/>
  </clipPath>
 </defs>
</svg>
