<?xml version="1.0" encoding="utf-8" standalone="no"?>
<!DOCTYPE svg PUBLIC "-//W3C//DTD SVG 1.1//EN"
  "http://www.w3.org/Graphics/SVG/1.1/DTD/svg11.dtd">
<!-- Created with matplotlib (https://matplotlib.org/) -->
<svg height="344.16pt" version="1.1" viewBox="0 0 460.8 344.16" width="460.8pt" xmlns="http://www.w3.org/2000/svg" xmlns:xlink="http://www.w3.org/1999/xlink">
 <defs>
  <style type="text/css">
*{stroke-linecap:butt;stroke-linejoin:round;}
  </style>
 </defs>
 <g id="figure_1">
  <g id="patch_1">
   <path d="M 0 344.16 
L 460.8 344.16 
L 460.8 0 
L 0 0 
z
" style="fill:#ffffff;"/>
  </g>
  <g id="axes_1">
   <g id="patch_2">
    <path d="M 57.6 306.3024 
L 414.72 306.3024 
L 414.72 41.2992 
L 57.6 41.2992 
z
" style="fill:#ffffff;"/>
   </g>
   <g id="matplotlib.axis_1">
    <g id="xtick_1">
     <g id="line2d_1">
      <defs>
       <path d="M 0 0 
L 0 3.5 
" id="m9f366da341" style="stroke:#000000;stroke-width:0.8;"/>
      </defs>
      <g>
       <use style="stroke:#000000;stroke-width:0.8;" x="73.832727" xlink:href="#m9f366da341" y="306.3024"/>
      </g>
     </g>
     <g id="text_1">
      <!-- 0 -->
      <defs>
       <path d="M 31.78125 66.40625 
Q 24.171875 66.40625 20.328125 58.90625 
Q 16.5 51.421875 16.5 36.375 
Q 16.5 21.390625 20.328125 13.890625 
Q 24.171875 6.390625 31.78125 6.390625 
Q 39.453125 6.390625 43.28125 13.890625 
Q 47.125 21.390625 47.125 36.375 
Q 47.125 51.421875 43.28125 58.90625 
Q 39.453125 66.40625 31.78125 66.40625 
z
M 31.78125 74.21875 
Q 44.046875 74.21875 50.515625 64.515625 
Q 56.984375 54.828125 56.984375 36.375 
Q 56.984375 17.96875 50.515625 8.265625 
Q 44.046875 -1.421875 31.78125 -1.421875 
Q 19.53125 -1.421875 13.0625 8.265625 
Q 6.59375 17.96875 6.59375 36.375 
Q 6.59375 54.828125 13.0625 64.515625 
Q 19.53125 74.21875 31.78125 74.21875 
z
" id="DejaVuSans-48"/>
      </defs>
      <g transform="translate(70.651477 320.900838)scale(0.1 -0.1)">
       <use xlink:href="#DejaVuSans-48"/>
      </g>
     </g>
    </g>
    <g id="xtick_2">
     <g id="line2d_2">
      <g>
       <use style="stroke:#000000;stroke-width:0.8;" x="130.001334" xlink:href="#m9f366da341" y="306.3024"/>
      </g>
     </g>
     <g id="text_2">
      <!-- 500 -->
      <defs>
       <path d="M 10.796875 72.90625 
L 49.515625 72.90625 
L 49.515625 64.59375 
L 19.828125 64.59375 
L 19.828125 46.734375 
Q 21.96875 47.46875 24.109375 47.828125 
Q 26.265625 48.1875 28.421875 48.1875 
Q 40.625 48.1875 47.75 41.5 
Q 54.890625 34.8125 54.890625 23.390625 
Q 54.890625 11.625 47.5625 5.09375 
Q 40.234375 -1.421875 26.90625 -1.421875 
Q 22.3125 -1.421875 17.546875 -0.640625 
Q 12.796875 0.140625 7.71875 1.703125 
L 7.71875 11.625 
Q 12.109375 9.234375 16.796875 8.0625 
Q 21.484375 6.890625 26.703125 6.890625 
Q 35.15625 6.890625 40.078125 11.328125 
Q 45.015625 15.765625 45.015625 23.390625 
Q 45.015625 31 40.078125 35.4375 
Q 35.15625 39.890625 26.703125 39.890625 
Q 22.75 39.890625 18.8125 39.015625 
Q 14.890625 38.140625 10.796875 36.28125 
z
" id="DejaVuSans-53"/>
      </defs>
      <g transform="translate(120.457584 320.900838)scale(0.1 -0.1)">
       <use xlink:href="#DejaVuSans-53"/>
       <use x="63.623047" xlink:href="#DejaVuSans-48"/>
       <use x="127.246094" xlink:href="#DejaVuSans-48"/>
      </g>
     </g>
    </g>
    <g id="xtick_3">
     <g id="line2d_3">
      <g>
       <use style="stroke:#000000;stroke-width:0.8;" x="186.16994" xlink:href="#m9f366da341" y="306.3024"/>
      </g>
     </g>
     <g id="text_3">
      <!-- 1000 -->
      <defs>
       <path d="M 12.40625 8.296875 
L 28.515625 8.296875 
L 28.515625 63.921875 
L 10.984375 60.40625 
L 10.984375 69.390625 
L 28.421875 72.90625 
L 38.28125 72.90625 
L 38.28125 8.296875 
L 54.390625 8.296875 
L 54.390625 0 
L 12.40625 0 
z
" id="DejaVuSans-49"/>
      </defs>
      <g transform="translate(173.44494 320.900838)scale(0.1 -0.1)">
       <use xlink:href="#DejaVuSans-49"/>
       <use x="63.623047" xlink:href="#DejaVuSans-48"/>
       <use x="127.246094" xlink:href="#DejaVuSans-48"/>
       <use x="190.869141" xlink:href="#DejaVuSans-48"/>
      </g>
     </g>
    </g>
    <g id="xtick_4">
     <g id="line2d_4">
      <g>
       <use style="stroke:#000000;stroke-width:0.8;" x="242.338547" xlink:href="#m9f366da341" y="306.3024"/>
      </g>
     </g>
     <g id="text_4">
      <!-- 1500 -->
      <g transform="translate(229.613547 320.900838)scale(0.1 -0.1)">
       <use xlink:href="#DejaVuSans-49"/>
       <use x="63.623047" xlink:href="#DejaVuSans-53"/>
       <use x="127.246094" xlink:href="#DejaVuSans-48"/>
       <use x="190.869141" xlink:href="#DejaVuSans-48"/>
      </g>
     </g>
    </g>
    <g id="xtick_5">
     <g id="line2d_5">
      <g>
       <use style="stroke:#000000;stroke-width:0.8;" x="298.507153" xlink:href="#m9f366da341" y="306.3024"/>
      </g>
     </g>
     <g id="text_5">
      <!-- 2000 -->
      <defs>
       <path d="M 19.1875 8.296875 
L 53.609375 8.296875 
L 53.609375 0 
L 7.328125 0 
L 7.328125 8.296875 
Q 12.9375 14.109375 22.625 23.890625 
Q 32.328125 33.6875 34.8125 36.53125 
Q 39.546875 41.84375 41.421875 45.53125 
Q 43.3125 49.21875 43.3125 52.78125 
Q 43.3125 58.59375 39.234375 62.25 
Q 35.15625 65.921875 28.609375 65.921875 
Q 23.96875 65.921875 18.8125 64.3125 
Q 13.671875 62.703125 7.8125 59.421875 
L 7.8125 69.390625 
Q 13.765625 71.78125 18.9375 73 
Q 24.125 74.21875 28.421875 74.21875 
Q 39.75 74.21875 46.484375 68.546875 
Q 53.21875 62.890625 53.21875 53.421875 
Q 53.21875 48.921875 51.53125 44.890625 
Q 49.859375 40.875 45.40625 35.40625 
Q 44.1875 33.984375 37.640625 27.21875 
Q 31.109375 20.453125 19.1875 8.296875 
z
" id="DejaVuSans-50"/>
      </defs>
      <g transform="translate(285.782153 320.900838)scale(0.1 -0.1)">
       <use xlink:href="#DejaVuSans-50"/>
       <use x="63.623047" xlink:href="#DejaVuSans-48"/>
       <use x="127.246094" xlink:href="#DejaVuSans-48"/>
       <use x="190.869141" xlink:href="#DejaVuSans-48"/>
      </g>
     </g>
    </g>
    <g id="xtick_6">
     <g id="line2d_6">
      <g>
       <use style="stroke:#000000;stroke-width:0.8;" x="354.67576" xlink:href="#m9f366da341" y="306.3024"/>
      </g>
     </g>
     <g id="text_6">
      <!-- 2500 -->
      <g transform="translate(341.95076 320.900838)scale(0.1 -0.1)">
       <use xlink:href="#DejaVuSans-50"/>
       <use x="63.623047" xlink:href="#DejaVuSans-53"/>
       <use x="127.246094" xlink:href="#DejaVuSans-48"/>
       <use x="190.869141" xlink:href="#DejaVuSans-48"/>
      </g>
     </g>
    </g>
    <g id="xtick_7">
     <g id="line2d_7">
      <g>
       <use style="stroke:#000000;stroke-width:0.8;" x="410.844366" xlink:href="#m9f366da341" y="306.3024"/>
      </g>
     </g>
     <g id="text_7">
      <!-- 3000 -->
      <defs>
       <path d="M 40.578125 39.3125 
Q 47.65625 37.796875 51.625 33 
Q 55.609375 28.21875 55.609375 21.1875 
Q 55.609375 10.40625 48.1875 4.484375 
Q 40.765625 -1.421875 27.09375 -1.421875 
Q 22.515625 -1.421875 17.65625 -0.515625 
Q 12.796875 0.390625 7.625 2.203125 
L 7.625 11.71875 
Q 11.71875 9.328125 16.59375 8.109375 
Q 21.484375 6.890625 26.8125 6.890625 
Q 36.078125 6.890625 40.9375 10.546875 
Q 45.796875 14.203125 45.796875 21.1875 
Q 45.796875 27.640625 41.28125 31.265625 
Q 36.765625 34.90625 28.71875 34.90625 
L 20.21875 34.90625 
L 20.21875 43.015625 
L 29.109375 43.015625 
Q 36.375 43.015625 40.234375 45.921875 
Q 44.09375 48.828125 44.09375 54.296875 
Q 44.09375 59.90625 40.109375 62.90625 
Q 36.140625 65.921875 28.71875 65.921875 
Q 24.65625 65.921875 20.015625 65.03125 
Q 15.375 64.15625 9.8125 62.3125 
L 9.8125 71.09375 
Q 15.4375 72.65625 20.34375 73.4375 
Q 25.25 74.21875 29.59375 74.21875 
Q 40.828125 74.21875 47.359375 69.109375 
Q 53.90625 64.015625 53.90625 55.328125 
Q 53.90625 49.265625 50.4375 45.09375 
Q 46.96875 40.921875 40.578125 39.3125 
z
" id="DejaVuSans-51"/>
      </defs>
      <g transform="translate(398.119366 320.900838)scale(0.1 -0.1)">
       <use xlink:href="#DejaVuSans-51"/>
       <use x="63.623047" xlink:href="#DejaVuSans-48"/>
       <use x="127.246094" xlink:href="#DejaVuSans-48"/>
       <use x="190.869141" xlink:href="#DejaVuSans-48"/>
      </g>
     </g>
    </g>
    <g id="text_8">
     <!-- Muestras -->
     <defs>
      <path d="M 9.8125 72.90625 
L 24.515625 72.90625 
L 43.109375 23.296875 
L 61.8125 72.90625 
L 76.515625 72.90625 
L 76.515625 0 
L 66.890625 0 
L 66.890625 64.015625 
L 48.09375 14.015625 
L 38.1875 14.015625 
L 19.390625 64.015625 
L 19.390625 0 
L 9.8125 0 
z
" id="DejaVuSans-77"/>
      <path d="M 8.5 21.578125 
L 8.5 54.6875 
L 17.484375 54.6875 
L 17.484375 21.921875 
Q 17.484375 14.15625 20.5 10.265625 
Q 23.53125 6.390625 29.59375 6.390625 
Q 36.859375 6.390625 41.078125 11.03125 
Q 45.3125 15.671875 45.3125 23.6875 
L 45.3125 54.6875 
L 54.296875 54.6875 
L 54.296875 0 
L 45.3125 0 
L 45.3125 8.40625 
Q 42.046875 3.421875 37.71875 1 
Q 33.40625 -1.421875 27.6875 -1.421875 
Q 18.265625 -1.421875 13.375 4.4375 
Q 8.5 10.296875 8.5 21.578125 
z
M 31.109375 56 
z
" id="DejaVuSans-117"/>
      <path d="M 56.203125 29.59375 
L 56.203125 25.203125 
L 14.890625 25.203125 
Q 15.484375 15.921875 20.484375 11.0625 
Q 25.484375 6.203125 34.421875 6.203125 
Q 39.59375 6.203125 44.453125 7.46875 
Q 49.3125 8.734375 54.109375 11.28125 
L 54.109375 2.78125 
Q 49.265625 0.734375 44.1875 -0.34375 
Q 39.109375 -1.421875 33.890625 -1.421875 
Q 20.796875 -1.421875 13.15625 6.1875 
Q 5.515625 13.8125 5.515625 26.8125 
Q 5.515625 40.234375 12.765625 48.109375 
Q 20.015625 56 32.328125 56 
Q 43.359375 56 49.78125 48.890625 
Q 56.203125 41.796875 56.203125 29.59375 
z
M 47.21875 32.234375 
Q 47.125 39.59375 43.09375 43.984375 
Q 39.0625 48.390625 32.421875 48.390625 
Q 24.90625 48.390625 20.390625 44.140625 
Q 15.875 39.890625 15.1875 32.171875 
z
" id="DejaVuSans-101"/>
      <path d="M 44.28125 53.078125 
L 44.28125 44.578125 
Q 40.484375 46.53125 36.375 47.5 
Q 32.28125 48.484375 27.875 48.484375 
Q 21.1875 48.484375 17.84375 46.4375 
Q 14.5 44.390625 14.5 40.28125 
Q 14.5 37.15625 16.890625 35.375 
Q 19.28125 33.59375 26.515625 31.984375 
L 29.59375 31.296875 
Q 39.15625 29.25 43.1875 25.515625 
Q 47.21875 21.78125 47.21875 15.09375 
Q 47.21875 7.46875 41.1875 3.015625 
Q 35.15625 -1.421875 24.609375 -1.421875 
Q 20.21875 -1.421875 15.453125 -0.5625 
Q 10.6875 0.296875 5.421875 2 
L 5.421875 11.28125 
Q 10.40625 8.6875 15.234375 7.390625 
Q 20.0625 6.109375 24.8125 6.109375 
Q 31.15625 6.109375 34.5625 8.28125 
Q 37.984375 10.453125 37.984375 14.40625 
Q 37.984375 18.0625 35.515625 20.015625 
Q 33.0625 21.96875 24.703125 23.78125 
L 21.578125 24.515625 
Q 13.234375 26.265625 9.515625 29.90625 
Q 5.8125 33.546875 5.8125 39.890625 
Q 5.8125 47.609375 11.28125 51.796875 
Q 16.75 56 26.8125 56 
Q 31.78125 56 36.171875 55.265625 
Q 40.578125 54.546875 44.28125 53.078125 
z
" id="DejaVuSans-115"/>
      <path d="M 18.3125 70.21875 
L 18.3125 54.6875 
L 36.8125 54.6875 
L 36.8125 47.703125 
L 18.3125 47.703125 
L 18.3125 18.015625 
Q 18.3125 11.328125 20.140625 9.421875 
Q 21.96875 7.515625 27.59375 7.515625 
L 36.8125 7.515625 
L 36.8125 0 
L 27.59375 0 
Q 17.1875 0 13.234375 3.875 
Q 9.28125 7.765625 9.28125 18.015625 
L 9.28125 47.703125 
L 2.6875 47.703125 
L 2.6875 54.6875 
L 9.28125 54.6875 
L 9.28125 70.21875 
z
" id="DejaVuSans-116"/>
      <path d="M 41.109375 46.296875 
Q 39.59375 47.171875 37.8125 47.578125 
Q 36.03125 48 33.890625 48 
Q 26.265625 48 22.1875 43.046875 
Q 18.109375 38.09375 18.109375 28.8125 
L 18.109375 0 
L 9.078125 0 
L 9.078125 54.6875 
L 18.109375 54.6875 
L 18.109375 46.1875 
Q 20.953125 51.171875 25.484375 53.578125 
Q 30.03125 56 36.53125 56 
Q 37.453125 56 38.578125 55.875 
Q 39.703125 55.765625 41.0625 55.515625 
z
" id="DejaVuSans-114"/>
      <path d="M 34.28125 27.484375 
Q 23.390625 27.484375 19.1875 25 
Q 14.984375 22.515625 14.984375 16.5 
Q 14.984375 11.71875 18.140625 8.90625 
Q 21.296875 6.109375 26.703125 6.109375 
Q 34.1875 6.109375 38.703125 11.40625 
Q 43.21875 16.703125 43.21875 25.484375 
L 43.21875 27.484375 
z
M 52.203125 31.203125 
L 52.203125 0 
L 43.21875 0 
L 43.21875 8.296875 
Q 40.140625 3.328125 35.546875 0.953125 
Q 30.953125 -1.421875 24.3125 -1.421875 
Q 15.921875 -1.421875 10.953125 3.296875 
Q 6 8.015625 6 15.921875 
Q 6 25.140625 12.171875 29.828125 
Q 18.359375 34.515625 30.609375 34.515625 
L 43.21875 34.515625 
L 43.21875 35.40625 
Q 43.21875 41.609375 39.140625 45 
Q 35.0625 48.390625 27.6875 48.390625 
Q 23 48.390625 18.546875 47.265625 
Q 14.109375 46.140625 10.015625 43.890625 
L 10.015625 52.203125 
Q 14.9375 54.109375 19.578125 55.046875 
Q 24.21875 56 28.609375 56 
Q 40.484375 56 46.34375 49.84375 
Q 52.203125 43.703125 52.203125 31.203125 
z
" id="DejaVuSans-97"/>
     </defs>
     <g transform="translate(213.311562 334.578963)scale(0.1 -0.1)">
      <use xlink:href="#DejaVuSans-77"/>
      <use x="86.279297" xlink:href="#DejaVuSans-117"/>
      <use x="149.658203" xlink:href="#DejaVuSans-101"/>
      <use x="211.181641" xlink:href="#DejaVuSans-115"/>
      <use x="263.28125" xlink:href="#DejaVuSans-116"/>
      <use x="302.490234" xlink:href="#DejaVuSans-114"/>
      <use x="343.603516" xlink:href="#DejaVuSans-97"/>
      <use x="404.882812" xlink:href="#DejaVuSans-115"/>
     </g>
    </g>
   </g>
   <g id="matplotlib.axis_2">
    <g id="ytick_1">
     <g id="line2d_8">
      <defs>
       <path d="M 0 0 
L -3.5 0 
" id="md2538d1359" style="stroke:#000000;stroke-width:0.8;"/>
      </defs>
      <g>
       <use style="stroke:#000000;stroke-width:0.8;" x="57.6" xlink:href="#md2538d1359" y="288.264697"/>
      </g>
     </g>
     <g id="text_9">
      <!-- 70 -->
      <defs>
       <path d="M 8.203125 72.90625 
L 55.078125 72.90625 
L 55.078125 68.703125 
L 28.609375 0 
L 18.3125 0 
L 43.21875 64.59375 
L 8.203125 64.59375 
z
" id="DejaVuSans-55"/>
      </defs>
      <g transform="translate(37.875 292.063916)scale(0.1 -0.1)">
       <use xlink:href="#DejaVuSans-55"/>
       <use x="63.623047" xlink:href="#DejaVuSans-48"/>
      </g>
     </g>
    </g>
    <g id="ytick_2">
     <g id="line2d_9">
      <g>
       <use style="stroke:#000000;stroke-width:0.8;" x="57.6" xlink:href="#md2538d1359" y="239.149101"/>
      </g>
     </g>
     <g id="text_10">
      <!-- 80 -->
      <defs>
       <path d="M 31.78125 34.625 
Q 24.75 34.625 20.71875 30.859375 
Q 16.703125 27.09375 16.703125 20.515625 
Q 16.703125 13.921875 20.71875 10.15625 
Q 24.75 6.390625 31.78125 6.390625 
Q 38.8125 6.390625 42.859375 10.171875 
Q 46.921875 13.96875 46.921875 20.515625 
Q 46.921875 27.09375 42.890625 30.859375 
Q 38.875 34.625 31.78125 34.625 
z
M 21.921875 38.8125 
Q 15.578125 40.375 12.03125 44.71875 
Q 8.5 49.078125 8.5 55.328125 
Q 8.5 64.0625 14.71875 69.140625 
Q 20.953125 74.21875 31.78125 74.21875 
Q 42.671875 74.21875 48.875 69.140625 
Q 55.078125 64.0625 55.078125 55.328125 
Q 55.078125 49.078125 51.53125 44.71875 
Q 48 40.375 41.703125 38.8125 
Q 48.828125 37.15625 52.796875 32.3125 
Q 56.78125 27.484375 56.78125 20.515625 
Q 56.78125 9.90625 50.3125 4.234375 
Q 43.84375 -1.421875 31.78125 -1.421875 
Q 19.734375 -1.421875 13.25 4.234375 
Q 6.78125 9.90625 6.78125 20.515625 
Q 6.78125 27.484375 10.78125 32.3125 
Q 14.796875 37.15625 21.921875 38.8125 
z
M 18.3125 54.390625 
Q 18.3125 48.734375 21.84375 45.5625 
Q 25.390625 42.390625 31.78125 42.390625 
Q 38.140625 42.390625 41.71875 45.5625 
Q 45.3125 48.734375 45.3125 54.390625 
Q 45.3125 60.0625 41.71875 63.234375 
Q 38.140625 66.40625 31.78125 66.40625 
Q 25.390625 66.40625 21.84375 63.234375 
Q 18.3125 60.0625 18.3125 54.390625 
z
" id="DejaVuSans-56"/>
      </defs>
      <g transform="translate(37.875 242.94832)scale(0.1 -0.1)">
       <use xlink:href="#DejaVuSans-56"/>
       <use x="63.623047" xlink:href="#DejaVuSans-48"/>
      </g>
     </g>
    </g>
    <g id="ytick_3">
     <g id="line2d_10">
      <g>
       <use style="stroke:#000000;stroke-width:0.8;" x="57.6" xlink:href="#md2538d1359" y="190.033505"/>
      </g>
     </g>
     <g id="text_11">
      <!-- 90 -->
      <defs>
       <path d="M 10.984375 1.515625 
L 10.984375 10.5 
Q 14.703125 8.734375 18.5 7.8125 
Q 22.3125 6.890625 25.984375 6.890625 
Q 35.75 6.890625 40.890625 13.453125 
Q 46.046875 20.015625 46.78125 33.40625 
Q 43.953125 29.203125 39.59375 26.953125 
Q 35.25 24.703125 29.984375 24.703125 
Q 19.046875 24.703125 12.671875 31.3125 
Q 6.296875 37.9375 6.296875 49.421875 
Q 6.296875 60.640625 12.9375 67.421875 
Q 19.578125 74.21875 30.609375 74.21875 
Q 43.265625 74.21875 49.921875 64.515625 
Q 56.59375 54.828125 56.59375 36.375 
Q 56.59375 19.140625 48.40625 8.859375 
Q 40.234375 -1.421875 26.421875 -1.421875 
Q 22.703125 -1.421875 18.890625 -0.6875 
Q 15.09375 0.046875 10.984375 1.515625 
z
M 30.609375 32.421875 
Q 37.25 32.421875 41.125 36.953125 
Q 45.015625 41.5 45.015625 49.421875 
Q 45.015625 57.28125 41.125 61.84375 
Q 37.25 66.40625 30.609375 66.40625 
Q 23.96875 66.40625 20.09375 61.84375 
Q 16.21875 57.28125 16.21875 49.421875 
Q 16.21875 41.5 20.09375 36.953125 
Q 23.96875 32.421875 30.609375 32.421875 
z
" id="DejaVuSans-57"/>
      </defs>
      <g transform="translate(37.875 193.832723)scale(0.1 -0.1)">
       <use xlink:href="#DejaVuSans-57"/>
       <use x="63.623047" xlink:href="#DejaVuSans-48"/>
      </g>
     </g>
    </g>
    <g id="ytick_4">
     <g id="line2d_11">
      <g>
       <use style="stroke:#000000;stroke-width:0.8;" x="57.6" xlink:href="#md2538d1359" y="140.917908"/>
      </g>
     </g>
     <g id="text_12">
      <!-- 100 -->
      <g transform="translate(31.5125 144.717127)scale(0.1 -0.1)">
       <use xlink:href="#DejaVuSans-49"/>
       <use x="63.623047" xlink:href="#DejaVuSans-48"/>
       <use x="127.246094" xlink:href="#DejaVuSans-48"/>
      </g>
     </g>
    </g>
    <g id="ytick_5">
     <g id="line2d_12">
      <g>
       <use style="stroke:#000000;stroke-width:0.8;" x="57.6" xlink:href="#md2538d1359" y="91.802312"/>
      </g>
     </g>
     <g id="text_13">
      <!-- 110 -->
      <g transform="translate(31.5125 95.601531)scale(0.1 -0.1)">
       <use xlink:href="#DejaVuSans-49"/>
       <use x="63.623047" xlink:href="#DejaVuSans-49"/>
       <use x="127.246094" xlink:href="#DejaVuSans-48"/>
      </g>
     </g>
    </g>
    <g id="ytick_6">
     <g id="line2d_13">
      <g>
       <use style="stroke:#000000;stroke-width:0.8;" x="57.6" xlink:href="#md2538d1359" y="42.686716"/>
      </g>
     </g>
     <g id="text_14">
      <!-- 120 -->
      <g transform="translate(31.5125 46.485934)scale(0.1 -0.1)">
       <use xlink:href="#DejaVuSans-49"/>
       <use x="63.623047" xlink:href="#DejaVuSans-50"/>
       <use x="127.246094" xlink:href="#DejaVuSans-48"/>
      </g>
     </g>
    </g>
    <g id="text_15">
     <!-- Valor de Ritmo Cardíaco -->
     <defs>
      <path d="M 28.609375 0 
L 0.78125 72.90625 
L 11.078125 72.90625 
L 34.1875 11.53125 
L 57.328125 72.90625 
L 67.578125 72.90625 
L 39.796875 0 
z
" id="DejaVuSans-86"/>
      <path d="M 9.421875 75.984375 
L 18.40625 75.984375 
L 18.40625 0 
L 9.421875 0 
z
" id="DejaVuSans-108"/>
      <path d="M 30.609375 48.390625 
Q 23.390625 48.390625 19.1875 42.75 
Q 14.984375 37.109375 14.984375 27.296875 
Q 14.984375 17.484375 19.15625 11.84375 
Q 23.34375 6.203125 30.609375 6.203125 
Q 37.796875 6.203125 41.984375 11.859375 
Q 46.1875 17.53125 46.1875 27.296875 
Q 46.1875 37.015625 41.984375 42.703125 
Q 37.796875 48.390625 30.609375 48.390625 
z
M 30.609375 56 
Q 42.328125 56 49.015625 48.375 
Q 55.71875 40.765625 55.71875 27.296875 
Q 55.71875 13.875 49.015625 6.21875 
Q 42.328125 -1.421875 30.609375 -1.421875 
Q 18.84375 -1.421875 12.171875 6.21875 
Q 5.515625 13.875 5.515625 27.296875 
Q 5.515625 40.765625 12.171875 48.375 
Q 18.84375 56 30.609375 56 
z
" id="DejaVuSans-111"/>
      <path id="DejaVuSans-32"/>
      <path d="M 45.40625 46.390625 
L 45.40625 75.984375 
L 54.390625 75.984375 
L 54.390625 0 
L 45.40625 0 
L 45.40625 8.203125 
Q 42.578125 3.328125 38.25 0.953125 
Q 33.9375 -1.421875 27.875 -1.421875 
Q 17.96875 -1.421875 11.734375 6.484375 
Q 5.515625 14.40625 5.515625 27.296875 
Q 5.515625 40.1875 11.734375 48.09375 
Q 17.96875 56 27.875 56 
Q 33.9375 56 38.25 53.625 
Q 42.578125 51.265625 45.40625 46.390625 
z
M 14.796875 27.296875 
Q 14.796875 17.390625 18.875 11.75 
Q 22.953125 6.109375 30.078125 6.109375 
Q 37.203125 6.109375 41.296875 11.75 
Q 45.40625 17.390625 45.40625 27.296875 
Q 45.40625 37.203125 41.296875 42.84375 
Q 37.203125 48.484375 30.078125 48.484375 
Q 22.953125 48.484375 18.875 42.84375 
Q 14.796875 37.203125 14.796875 27.296875 
z
" id="DejaVuSans-100"/>
      <path d="M 44.390625 34.1875 
Q 47.5625 33.109375 50.5625 29.59375 
Q 53.5625 26.078125 56.59375 19.921875 
L 66.609375 0 
L 56 0 
L 46.6875 18.703125 
Q 43.0625 26.03125 39.671875 28.421875 
Q 36.28125 30.8125 30.421875 30.8125 
L 19.671875 30.8125 
L 19.671875 0 
L 9.8125 0 
L 9.8125 72.90625 
L 32.078125 72.90625 
Q 44.578125 72.90625 50.734375 67.671875 
Q 56.890625 62.453125 56.890625 51.90625 
Q 56.890625 45.015625 53.6875 40.46875 
Q 50.484375 35.9375 44.390625 34.1875 
z
M 19.671875 64.796875 
L 19.671875 38.921875 
L 32.078125 38.921875 
Q 39.203125 38.921875 42.84375 42.21875 
Q 46.484375 45.515625 46.484375 51.90625 
Q 46.484375 58.296875 42.84375 61.546875 
Q 39.203125 64.796875 32.078125 64.796875 
z
" id="DejaVuSans-82"/>
      <path d="M 9.421875 54.6875 
L 18.40625 54.6875 
L 18.40625 0 
L 9.421875 0 
z
M 9.421875 75.984375 
L 18.40625 75.984375 
L 18.40625 64.59375 
L 9.421875 64.59375 
z
" id="DejaVuSans-105"/>
      <path d="M 52 44.1875 
Q 55.375 50.25 60.0625 53.125 
Q 64.75 56 71.09375 56 
Q 79.640625 56 84.28125 50.015625 
Q 88.921875 44.046875 88.921875 33.015625 
L 88.921875 0 
L 79.890625 0 
L 79.890625 32.71875 
Q 79.890625 40.578125 77.09375 44.375 
Q 74.3125 48.1875 68.609375 48.1875 
Q 61.625 48.1875 57.5625 43.546875 
Q 53.515625 38.921875 53.515625 30.90625 
L 53.515625 0 
L 44.484375 0 
L 44.484375 32.71875 
Q 44.484375 40.625 41.703125 44.40625 
Q 38.921875 48.1875 33.109375 48.1875 
Q 26.21875 48.1875 22.15625 43.53125 
Q 18.109375 38.875 18.109375 30.90625 
L 18.109375 0 
L 9.078125 0 
L 9.078125 54.6875 
L 18.109375 54.6875 
L 18.109375 46.1875 
Q 21.1875 51.21875 25.484375 53.609375 
Q 29.78125 56 35.6875 56 
Q 41.65625 56 45.828125 52.96875 
Q 50 49.953125 52 44.1875 
z
" id="DejaVuSans-109"/>
      <path d="M 64.40625 67.28125 
L 64.40625 56.890625 
Q 59.421875 61.53125 53.78125 63.8125 
Q 48.140625 66.109375 41.796875 66.109375 
Q 29.296875 66.109375 22.65625 58.46875 
Q 16.015625 50.828125 16.015625 36.375 
Q 16.015625 21.96875 22.65625 14.328125 
Q 29.296875 6.6875 41.796875 6.6875 
Q 48.140625 6.6875 53.78125 8.984375 
Q 59.421875 11.28125 64.40625 15.921875 
L 64.40625 5.609375 
Q 59.234375 2.09375 53.4375 0.328125 
Q 47.65625 -1.421875 41.21875 -1.421875 
Q 24.65625 -1.421875 15.125 8.703125 
Q 5.609375 18.84375 5.609375 36.375 
Q 5.609375 53.953125 15.125 64.078125 
Q 24.65625 74.21875 41.21875 74.21875 
Q 47.75 74.21875 53.53125 72.484375 
Q 59.328125 70.75 64.40625 67.28125 
z
" id="DejaVuSans-67"/>
      <path d="M 20.703125 79.984375 
L 30.421875 79.984375 
L 14.5 61.625 
L 7.03125 61.625 
z
M 9.421875 54.6875 
L 18.40625 54.6875 
L 18.40625 0 
L 9.421875 0 
z
M 13.921875 56 
z
" id="DejaVuSans-237"/>
      <path d="M 48.78125 52.59375 
L 48.78125 44.1875 
Q 44.96875 46.296875 41.140625 47.34375 
Q 37.3125 48.390625 33.40625 48.390625 
Q 24.65625 48.390625 19.8125 42.84375 
Q 14.984375 37.3125 14.984375 27.296875 
Q 14.984375 17.28125 19.8125 11.734375 
Q 24.65625 6.203125 33.40625 6.203125 
Q 37.3125 6.203125 41.140625 7.25 
Q 44.96875 8.296875 48.78125 10.40625 
L 48.78125 2.09375 
Q 45.015625 0.34375 40.984375 -0.53125 
Q 36.96875 -1.421875 32.421875 -1.421875 
Q 20.0625 -1.421875 12.78125 6.34375 
Q 5.515625 14.109375 5.515625 27.296875 
Q 5.515625 40.671875 12.859375 48.328125 
Q 20.21875 56 33.015625 56 
Q 37.15625 56 41.109375 55.140625 
Q 45.0625 54.296875 48.78125 52.59375 
z
" id="DejaVuSans-99"/>
     </defs>
     <g transform="translate(25.432812 234.6008)rotate(-90)scale(0.1 -0.1)">
      <use xlink:href="#DejaVuSans-86"/>
      <use x="68.298828" xlink:href="#DejaVuSans-97"/>
      <use x="129.578125" xlink:href="#DejaVuSans-108"/>
      <use x="157.361328" xlink:href="#DejaVuSans-111"/>
      <use x="218.542969" xlink:href="#DejaVuSans-114"/>
      <use x="259.65625" xlink:href="#DejaVuSans-32"/>
      <use x="291.443359" xlink:href="#DejaVuSans-100"/>
      <use x="354.919922" xlink:href="#DejaVuSans-101"/>
      <use x="416.443359" xlink:href="#DejaVuSans-32"/>
      <use x="448.230469" xlink:href="#DejaVuSans-82"/>
      <use x="517.712891" xlink:href="#DejaVuSans-105"/>
      <use x="545.496094" xlink:href="#DejaVuSans-116"/>
      <use x="584.705078" xlink:href="#DejaVuSans-109"/>
      <use x="682.117188" xlink:href="#DejaVuSans-111"/>
      <use x="743.298828" xlink:href="#DejaVuSans-32"/>
      <use x="775.085938" xlink:href="#DejaVuSans-67"/>
      <use x="844.910156" xlink:href="#DejaVuSans-97"/>
      <use x="906.189453" xlink:href="#DejaVuSans-114"/>
      <use x="947.287109" xlink:href="#DejaVuSans-100"/>
      <use x="1010.763672" xlink:href="#DejaVuSans-237"/>
      <use x="1038.546875" xlink:href="#DejaVuSans-97"/>
      <use x="1099.826172" xlink:href="#DejaVuSans-99"/>
      <use x="1154.806641" xlink:href="#DejaVuSans-111"/>
     </g>
    </g>
   </g>
   <g id="line2d_14">
    <path clip-path="url(#pae2bce3484)" d="M 73.832727 154.031772 
L 74.057402 159.581835 
L 74.282076 194.257446 
L 74.731425 213.265182 
L 75.405448 234.237541 
L 75.74246 241.359303 
L 76.191809 247.105828 
L 76.304146 247.793446 
L 76.416483 247.449637 
L 76.641158 247.547868 
L 76.753495 247.793446 
L 78.213879 262.429894 
L 78.438553 263.461321 
L 78.55089 264.345402 
L 78.775565 264.443633 
L 79.000239 264.787442 
L 79.337251 264.640095 
L 79.449588 264.738327 
L 79.7866 265.917101 
L 79.898937 265.769754 
L 80.235948 265.671523 
L 80.348286 265.769754 
L 80.797634 273.922943 
L 80.909972 273.186209 
L 81.359321 273.873828 
L 81.471658 273.775596 
L 82.819704 266.26091 
L 82.932042 266.310026 
L 83.044379 266.310026 
L 83.38139 267.4888 
L 83.493728 267.734378 
L 84.280088 265.278598 
L 85.515797 251.526231 
L 85.965146 248.97222 
L 86.302158 246.369094 
L 86.526832 244.060661 
L 86.751507 244.158892 
L 87.313193 246.909365 
L 88.211891 233.599039 
L 88.324228 232.272917 
L 89.4476 202.901791 
L 89.896949 187.086569 
L 91.020321 146.075046 
L 91.582007 132.568257 
L 91.694344 131.97887 
L 93.49174 171.124 
L 93.604077 171.369578 
L 93.828751 172.450121 
L 94.053426 171.025769 
L 94.727449 181.585622 
L 95.064461 185.711332 
L 95.513809 198.776081 
L 97.760554 278.294231 
L 98.32224 293.176257 
L 98.434577 294.2568 
L 99.445612 278.097769 
L 99.670286 275.101717 
L 100.681321 255.259017 
L 103.265077 212.872257 
L 103.9391 202.950906 
L 104.950135 191.359626 
L 106.522856 165.966862 
L 107.19688 161.693806 
L 107.421554 161.693806 
L 107.758566 163.019927 
L 108.320252 166.458018 
L 108.544926 166.949174 
L 108.769601 167.047406 
L 109.218949 166.065094 
L 109.443624 165.623053 
L 109.555961 165.623053 
L 109.780635 166.114209 
L 110.229984 167.587677 
L 110.454659 167.833255 
L 110.566996 167.784139 
L 110.79167 167.538561 
L 111.016345 167.44033 
L 111.353356 168.766451 
L 111.690368 171.222231 
L 112.02738 176.133791 
L 112.364391 180.063039 
L 112.701403 179.620998 
L 112.926077 178.982495 
L 113.038415 178.982495 
L 113.263089 178.491339 
L 113.487763 178.835149 
L 113.600101 179.129842 
L 114.04945 181.536506 
L 114.161787 181.8312 
L 114.274124 181.782084 
L 114.498798 181.340044 
L 115.397496 174.955017 
L 115.734508 173.923589 
L 116.183857 172.695699 
L 116.85788 169.994341 
L 117.082554 169.89611 
L 117.307229 169.994341 
L 117.64424 170.289035 
L 117.868915 170.387266 
L 118.093589 170.289035 
L 118.318264 169.994341 
L 118.655275 167.931486 
L 118.992287 163.019927 
L 119.329299 160.957072 
L 120.003322 158.206598 
L 120.789682 153.049461 
L 121.239031 154.031772 
L 122.362403 161.890268 
L 123.485775 173.088624 
L 124.49681 169.159376 
L 125.170834 164.002239 
L 125.844857 159.581835 
L 126.181869 158.992448 
L 126.294206 159.090679 
L 126.406543 158.992448 
L 127.080566 155.750818 
L 127.305241 154.326466 
L 128.203938 149.169328 
L 128.653287 148.432594 
L 128.765624 148.137901 
L 128.990299 146.173277 
L 130.001334 134.189072 
L 130.226008 134.43465 
L 130.675357 136.743083 
L 131.012369 137.234239 
L 131.237043 137.479817 
L 131.574055 138.462128 
L 132.58509 142.735185 
L 132.922101 142.784301 
L 133.034439 142.636954 
L 133.146776 142.784301 
L 134.494822 148.187017 
L 134.944171 146.81178 
L 135.39352 145.338312 
L 135.730532 144.601578 
L 136.067543 144.208653 
L 136.17988 144.012191 
L 136.516892 144.503347 
L 136.629229 144.503347 
L 136.741567 144.356 
L 137.303253 140.770561 
L 137.527927 140.426752 
L 137.752601 140.770561 
L 138.20195 142.735185 
L 139.212985 148.137901 
L 141.010381 159.97476 
L 141.235055 161.399112 
L 141.796741 167.538561 
L 142.133753 171.222231 
L 143.594137 189.296771 
L 144.043485 192.489284 
L 144.155823 192.145475 
L 145.279195 189.935273 
L 145.503869 189.886158 
L 145.616206 189.935273 
L 146.065555 190.524661 
L 146.29023 190.622892 
L 146.514904 190.279083 
L 147.413602 187.823303 
L 147.525939 187.921534 
L 147.975288 186.840991 
L 150.109695 167.587677 
L 150.222032 167.784139 
L 150.559044 167.047406 
L 150.783718 166.114209 
L 151.12073 167.538561 
L 151.345404 167.538561 
L 151.457741 167.342099 
L 152.581114 160.318569 
L 153.479811 154.27735 
L 153.592148 153.933541 
L 153.816823 154.27735 
L 153.92916 154.572044 
L 154.378509 157.96102 
L 154.603183 158.353945 
L 154.715521 158.255714 
L 155.389544 153.687963 
L 155.838893 150.15164 
L 156.512916 143.12811 
L 156.962265 137.479817 
L 157.186939 136.10458 
L 157.411614 135.859002 
L 157.523951 135.859002 
L 157.636288 136.006349 
L 157.9733 137.33247 
L 158.197974 138.805938 
L 159.096672 145.829468 
L 160.107707 152.214495 
L 160.444718 154.080888 
L 160.557056 154.080888 
L 160.669393 153.295039 
L 161.118742 148.187017 
L 161.455753 146.566202 
L 162.017439 148.678172 
L 163.140812 156.241974 
L 164.039509 167.784139 
L 164.264184 168.275295 
L 164.376521 168.177064 
L 164.601195 167.784139 
L 165.050544 167.194752 
L 165.162881 167.292983 
L 165.836905 164.738972 
L 166.061579 164.837204 
L 166.286254 164.886319 
L 166.960277 156.536668 
L 167.409626 151.625108 
L 167.858975 149.169328 
L 168.308323 146.959127 
L 168.757672 145.485659 
L 168.982347 144.454231 
L 169.431696 140.524983 
L 170.218056 131.929754 
L 170.779742 123.481872 
L 171.566103 99.660807 
L 172.801812 63.659075 
L 173.138824 57.175817 
L 173.588172 53.590378 
L 173.925184 53.3448 
L 174.262196 54.327112 
L 174.823882 57.568741 
L 175.947254 65.132543 
L 176.733614 71.173761 
L 176.958289 71.910495 
L 177.070626 71.910495 
L 177.182963 72.057842 
L 177.407638 73.040154 
L 177.519975 73.875119 
L 178.081661 88.757145 
L 180.328405 156.045512 
L 180.890091 167.587677 
L 181.33944 173.334202 
L 181.451777 173.727127 
L 182.013463 172.450121 
L 183.024498 167.342099 
L 183.249173 167.685908 
L 183.923196 170.141688 
L 184.260208 170.878422 
L 185.046568 169.797879 
L 186.16994 162.87258 
L 186.843964 156.389321 
L 188.079673 138.805938 
L 188.19201 138.462128 
L 188.529022 139.542672 
L 188.866033 139.935596 
L 189.090708 140.033828 
L 189.764731 140.770561 
L 189.989405 140.819677 
L 190.21408 141.065255 
L 190.438754 142.293145 
L 191.225115 147.401167 
L 191.449789 147.892323 
L 191.562126 147.941439 
L 191.899138 148.678172 
L 192.23615 150.839259 
L 192.685499 153.83531 
L 193.134847 155.308778 
L 193.359522 155.652587 
L 193.584196 155.554356 
L 193.808871 155.259662 
L 194.033545 155.407009 
L 194.25822 155.799934 
L 194.595231 156.487552 
L 194.707568 156.487552 
L 195.04458 155.161431 
L 195.381592 154.031772 
L 195.493929 153.933541 
L 196.055615 156.241974 
L 196.841975 159.336257 
L 197.06665 159.434488 
L 197.403662 159.483604 
L 197.628336 159.581835 
L 197.740673 159.483604 
L 198.077685 160.4168 
L 198.302359 161.153534 
L 198.414696 161.055303 
L 198.751708 160.662378 
L 199.08872 158.992448 
L 199.650406 155.750818 
L 199.987417 155.0632 
L 200.661441 154.080888 
L 201.447801 152.60742 
L 201.89715 152.60742 
L 202.234162 151.723339 
L 202.571173 150.397218 
L 202.795848 150.642796 
L 203.020522 150.249872 
L 203.582208 148.678172 
L 203.806883 148.874635 
L 203.91922 148.678172 
L 204.143894 149.021982 
L 204.368569 149.120213 
L 204.480906 149.26756 
L 204.70558 149.021982 
L 204.817918 149.120213 
L 205.154929 150.888374 
L 205.94129 158.452176 
L 206.278301 163.265505 
L 207.176999 177.26345 
L 207.851022 184.778136 
L 208.075697 185.269292 
L 208.412708 184.237864 
L 208.525046 183.255552 
L 208.974394 183.746708 
L 209.199069 183.402899 
L 209.311406 183.402899 
L 209.536081 182.567934 
L 209.648418 182.666165 
L 209.873092 184.041402 
L 210.210104 186.939222 
L 210.434778 187.479494 
L 210.659453 187.97065 
L 210.884127 187.725072 
L 210.996464 187.675956 
L 211.221139 187.1848 
L 211.445813 185.858679 
L 211.895162 180.701541 
L 212.569185 170.534613 
L 213.018534 162.676117 
L 213.917232 147.302936 
L 214.591255 141.752873 
L 214.703592 141.801989 
L 214.81593 141.801989 
L 215.040604 142.882532 
L 215.377616 145.092734 
L 215.714627 145.976815 
L 216.051639 147.794092 
L 216.276313 148.03967 
L 216.500988 147.204705 
L 216.837999 145.731237 
L 216.950337 145.682121 
L 217.062674 145.485659 
L 217.175011 145.731237 
L 217.287348 145.682121 
L 217.512023 145.092734 
L 218.073709 142.293145 
L 218.298383 142.636954 
L 218.523058 143.373688 
L 219.309418 147.892323 
L 219.758767 152.705651 
L 220.208116 156.487552 
L 220.43279 157.715442 
L 220.545127 157.862789 
L 220.769802 158.697754 
L 220.994476 159.581835 
L 221.219151 161.20265 
L 221.6685 166.065094 
L 222.230186 172.744815 
L 222.567197 176.379369 
L 222.791872 178.393108 
L 223.915244 190.622892 
L 224.252255 194.306561 
L 225.150953 206.732807 
L 225.375628 208.108044 
L 225.712639 211.398789 
L 225.937314 213.9528 
L 226.049651 213.9528 
L 226.161988 214.198378 
L 226.836011 205.652264 
L 227.397697 200.937167 
L 227.959383 196.074723 
L 228.745744 186.595413 
L 229.082756 180.308617 
L 231.891186 109.091002 
L 232.452872 102.263934 
L 232.677546 99.415229 
L 232.902221 98.187339 
L 234.025593 104.081211 
L 234.362605 104.081211 
L 234.811953 103.098899 
L 234.924291 103.246246 
L 235.148965 103.19713 
L 235.261302 103.246246 
L 235.598314 103.98298 
L 235.822988 105.309101 
L 237.058698 116.703919 
L 237.283372 117.686231 
L 237.395709 117.735347 
L 237.620384 118.079156 
L 237.845058 116.998613 
L 238.294407 113.413174 
L 239.193105 100.151963 
L 240.091802 90.721769 
L 240.878163 80.849534 
L 241.102837 80.751303 
L 241.327512 80.996881 
L 241.552186 80.996881 
L 241.776861 80.653072 
L 241.889198 80.603956 
L 242.226209 79.916338 
L 242.450884 80.161916 
L 242.900233 81.880961 
L 243.237244 84.042048 
L 243.686593 85.515516 
L 243.79893 85.319053 
L 244.135942 86.154018 
L 244.472954 84.287626 
L 244.697628 83.600007 
L 244.922303 84.042048 
L 245.03464 84.042048 
L 245.259314 85.319053 
L 245.371651 85.171706 
L 245.596326 84.189394 
L 245.708663 84.434972 
L 245.821 83.698239 
L 246.045675 79.523413 
L 246.382686 72.548998 
L 246.495024 71.664917 
L 246.832035 75.594165 
L 247.393721 93.521358 
L 247.84307 107.273725 
L 248.741768 126.919963 
L 249.191117 131.19302 
L 250.089814 137.823626 
L 250.6515 144.503347 
L 250.876175 148.874635 
L 252.67357 219.846672 
L 253.235256 248.579295 
L 253.572268 255.259017 
L 253.684605 255.209901 
L 254.133954 253.88378 
L 254.470966 250.052763 
L 255.257326 239.787604 
L 255.482001 240.376991 
L 255.594338 240.376991 
L 255.819012 240.769916 
L 256.268361 243.17658 
L 257.054722 250.445688 
L 257.391733 252.410312 
L 257.616408 253.539971 
L 258.290431 249.365145 
L 259.413803 237.331824 
L 260.200164 226.035237 
L 260.537175 225.003809 
L 260.649512 225.151156 
L 260.874187 224.905578 
L 261.098861 223.677688 
L 261.211198 223.677688 
L 261.323536 223.530341 
L 262.222233 220.97633 
L 262.334571 220.878099 
L 262.559245 220.141365 
L 263.120931 217.931163 
L 263.57028 215.966539 
L 264.131966 211.644367 
L 264.468978 208.5992 
L 264.918327 206.14342 
L 265.030664 206.339883 
L 265.255338 206.14342 
L 265.367675 206.241651 
L 265.480013 205.996073 
L 265.817024 206.585461 
L 266.041699 207.469541 
L 267.052734 218.176741 
L 267.839094 224.905578 
L 268.40078 232.862305 
L 268.850129 235.858356 
L 269.187141 237.03713 
L 269.299478 237.184477 
L 269.411815 236.938899 
L 270.647524 228.491017 
L 270.872199 227.999861 
L 271.658559 227.754283 
L 271.770897 227.754283 
L 271.995571 228.245439 
L 272.107908 228.34367 
L 272.669594 231.879993 
L 272.781931 231.437952 
L 273.23128 228.34367 
L 273.568292 226.133468 
L 274.804001 214.836881 
L 275.028676 213.854569 
L 275.25335 213.756338 
L 275.702699 214.591303 
L 275.927373 215.328037 
L 276.039711 215.328037 
L 276.152048 215.475383 
L 276.826071 217.931163 
L 276.938408 218.176741 
L 277.050746 218.127626 
L 277.27542 218.52055 
L 277.949443 220.878099 
L 278.286455 221.811295 
L 278.398792 221.713064 
L 278.848141 219.257284 
L 279.185153 216.457695 
L 279.29749 215.426268 
L 279.409827 215.573615 
L 279.746839 217.63647 
L 280.308525 219.502862 
L 281.094885 225.494965 
L 281.31956 226.379046 
L 281.431897 226.477277 
L 281.656571 225.494965 
L 281.768908 225.396734 
L 281.993583 225.642312 
L 282.330595 225.396734 
L 282.667606 226.477277 
L 282.892281 228.491017 
L 283.341629 233.107883 
L 284.015653 239.149101 
L 284.91435 247.154943 
L 285.251362 250.593035 
L 286.037723 261.840506 
L 286.374734 261.251119 
L 286.824083 261.987853 
L 287.498106 263.706899 
L 287.722781 263.952477 
L 287.947455 264.050708 
L 288.17213 265.671523 
L 288.509141 268.225534 
L 288.733816 268.765806 
L 289.070827 269.355193 
L 289.183165 269.256961 
L 289.407839 269.699002 
L 290.418874 274.610561 
L 290.531211 274.51233 
L 290.643548 274.168521 
L 290.868223 272.449475 
L 292.440944 249.856301 
L 293.00263 242.243383 
L 293.451979 236.791552 
L 294.912362 214.247494 
L 296.485083 177.017872 
L 297.159107 157.469864 
L 297.496118 151.232183 
L 298.282479 142.735185 
L 299.293514 128.639009 
L 299.630525 125.937651 
L 299.742863 125.790305 
L 300.079874 125.83942 
L 300.529223 127.018194 
L 300.753897 127.06731 
L 300.866235 127.018194 
L 301.090909 127.165541 
L 301.427921 125.299149 
L 301.652595 124.61153 
L 301.87727 125.200917 
L 302.214281 127.50935 
L 302.888304 134.532881 
L 303.000642 134.532881 
L 303.112979 134.680228 
L 303.787002 137.381585 
L 303.899339 137.479817 
L 304.124014 135.269615 
L 304.798037 126.674385 
L 306.370758 118.177387 
L 307.606467 101.478084 
L 307.831142 103.491824 
L 308.842177 120.927861 
L 309.5162 127.754928 
L 309.628537 128.786356 
L 310.077886 136.153695 
L 310.639572 143.766613 
L 312.661642 193.471596 
L 313.110991 204.91553 
L 313.897351 219.74844 
L 314.3467 224.512653 
L 314.571375 222.597145 
L 315.020723 215.720961 
L 316.031758 196.320301 
L 316.705782 184.28698 
L 317.267468 177.852837 
L 318.503177 157.96102 
L 319.401875 138.56036 
L 320.188235 119.405277 
L 320.637584 114.788411 
L 321.423945 108.845424 
L 322.097968 105.65291 
L 322.43498 101.232506 
L 323.109003 92.195237 
L 323.670689 85.02436 
L 324.007701 82.126539 
L 324.232375 80.89865 
L 324.681724 77.706136 
L 325.131073 74.513622 
L 325.355747 73.236617 
L 325.692759 73.285732 
L 325.917433 73.629541 
L 326.02977 73.875119 
L 326.928468 81.831846 
L 327.153142 81.880961 
L 327.377817 82.077424 
L 327.490154 82.224771 
L 327.714829 82.126539 
L 327.939503 82.224771 
L 328.164177 82.323002 
L 328.388852 83.452661 
L 328.725863 85.564631 
L 328.950538 89.59211 
L 329.849236 107.764881 
L 330.298584 114.002561 
L 330.747933 117.244191 
L 331.084945 119.454393 
L 332.320654 131.585945 
L 332.657666 133.452338 
L 332.770003 133.894378 
L 333.556364 129.96513 
L 334.005712 126.674385 
L 334.11805 126.527039 
L 334.342724 126.035883 
L 334.679736 127.165541 
L 335.129085 128.2952 
L 335.578433 129.96513 
L 335.803108 129.52309 
L 336.027782 130.210708 
L 336.589468 132.912066 
L 337.038817 137.479817 
L 337.712841 144.699809 
L 338.274527 147.892323 
L 338.499201 149.513138 
L 338.836213 153.442385 
L 339.847248 171.516925 
L 341.082957 201.723017 
L 341.75698 210.072668 
L 342.093992 211.742598 
L 342.543341 216.457695 
L 342.99269 220.97633 
L 343.77905 228.687479 
L 344.340736 236.938899 
L 344.902422 245.435897 
L 345.239434 248.824873 
L 345.464108 249.807185 
L 345.576445 249.708954 
L 345.80112 248.579295 
L 346.250469 245.681475 
L 346.475143 243.422158 
L 346.924492 236.840668 
L 347.486178 227.361358 
L 347.82319 223.579457 
L 348.384876 221.958642 
L 348.497213 221.860411 
L 348.721887 222.056873 
L 348.834225 221.958642 
L 348.946562 222.20422 
L 349.620585 219.74844 
L 349.957597 219.257284 
L 350.069934 219.355516 
L 350.406946 218.373204 
L 351.41798 212.626679 
L 352.204341 210.170899 
L 352.429015 210.26913 
L 352.65369 210.170899 
L 353.44005 214.345725 
L 354.114074 223.530341 
L 354.67576 230.45564 
L 355.237446 235.072506 
L 355.574457 236.300396 
L 355.799132 235.711009 
L 356.248481 235.612778 
L 356.585492 235.219853 
L 357.821202 229.325982 
L 357.933539 229.080404 
L 358.045876 229.22775 
L 358.27055 228.933057 
L 358.382888 228.982172 
L 358.607562 228.491017 
L 358.832237 229.424213 
L 359.056911 229.325982 
L 359.169248 229.57156 
L 359.281585 230.160947 
L 359.730934 234.876044 
L 360.180283 238.657945 
L 360.517295 240.033182 
L 360.741969 240.7208 
L 360.854306 240.7208 
L 361.078981 240.524338 
L 361.191318 240.524338 
L 361.52833 241.457534 
L 361.753004 242.341615 
L 361.865341 242.341615 
L 361.977679 242.488961 
L 362.539365 244.060661 
L 362.764039 244.158892 
L 362.988713 243.716851 
L 363.325725 242.734539 
L 363.438062 242.980117 
L 364.33676 247.351406 
L 364.898446 246.762018 
L 365.347795 247.842561 
L 365.460132 247.74433 
L 365.572469 247.596983 
L 366.021818 249.365145 
L 366.35883 247.74433 
L 366.920516 241.94869 
L 368.942586 216.703273 
L 369.616609 214.100147 
L 369.728946 213.854569 
L 371.638679 220.337828 
L 371.863353 220.239596 
L 372.088028 219.994018 
L 372.425039 219.011706 
L 372.986725 217.194429 
L 373.323737 216.948851 
L 373.436074 216.310349 
L 373.660749 216.555927 
L 373.885423 216.555927 
L 374.222435 215.966539 
L 374.896458 214.443956 
L 375.121132 214.443956 
L 375.345807 213.9528 
L 375.682818 212.28287 
L 376.356842 205.848727 
L 376.469179 205.504917 
L 377.143202 200.003971 
L 377.817226 192.489284 
L 379.052935 180.112154 
L 379.277609 178.14753 
L 379.839295 171.615156 
L 380.06397 169.552301 
L 380.288644 169.257607 
L 380.625656 169.797879 
L 381.187342 171.860734 
L 381.861365 175.69175 
L 383.097075 188.41269 
L 383.209412 188.461806 
L 383.321749 188.707383 
L 383.658761 190.033505 
L 383.771098 190.426429 
L 383.883435 190.279083 
L 384.332784 188.560037 
L 384.669796 187.086569 
L 385.119144 185.95691 
L 385.456156 184.876367 
L 385.568493 184.974598 
L 386.354854 182.27324 
L 386.804203 179.326305 
L 387.365889 172.008081 
L 388.713935 151.084837 
L 389.387958 139.935596 
L 390.511331 130.603633 
L 390.623668 130.505402 
L 390.848342 130.75098 
L 391.634703 133.452338 
L 391.859377 135.171383 
L 392.196389 138.462128 
L 392.645738 141.556411 
L 393.432098 148.874635 
L 394.106121 158.845101 
L 395.79118 187.086569 
L 396.689877 198.039347 
L 397.813249 214.591303 
L 398.487273 224.66 
L 398.487273 224.66 
" style="fill:none;stroke:#1f77b4;stroke-linecap:square;stroke-width:1.5;"/>
   </g>
   <g id="patch_3">
    <path d="M 57.6 306.3024 
L 57.6 41.2992 
" style="fill:none;stroke:#000000;stroke-linecap:square;stroke-linejoin:miter;stroke-width:0.8;"/>
   </g>
   <g id="patch_4">
    <path d="M 414.72 306.3024 
L 414.72 41.2992 
" style="fill:none;stroke:#000000;stroke-linecap:square;stroke-linejoin:miter;stroke-width:0.8;"/>
   </g>
   <g id="patch_5">
    <path d="M 57.6 306.3024 
L 414.72 306.3024 
" style="fill:none;stroke:#000000;stroke-linecap:square;stroke-linejoin:miter;stroke-width:0.8;"/>
   </g>
   <g id="patch_6">
    <path d="M 57.6 41.2992 
L 414.72 41.2992 
" style="fill:none;stroke:#000000;stroke-linecap:square;stroke-linejoin:miter;stroke-width:0.8;"/>
   </g>
   <g id="text_16">
    <!-- Ritmo Cardíaco -->
    <g transform="translate(190.094063 35.2992)scale(0.12 -0.12)">
     <use xlink:href="#DejaVuSans-82"/>
     <use x="69.482422" xlink:href="#DejaVuSans-105"/>
     <use x="97.265625" xlink:href="#DejaVuSans-116"/>
     <use x="136.474609" xlink:href="#DejaVuSans-109"/>
     <use x="233.886719" xlink:href="#DejaVuSans-111"/>
     <use x="295.068359" xlink:href="#DejaVuSans-32"/>
     <use x="326.855469" xlink:href="#DejaVuSans-67"/>
     <use x="396.679688" xlink:href="#DejaVuSans-97"/>
     <use x="457.958984" xlink:href="#DejaVuSans-114"/>
     <use x="499.056641" xlink:href="#DejaVuSans-100"/>
     <use x="562.533203" xlink:href="#DejaVuSans-237"/>
     <use x="590.316406" xlink:href="#DejaVuSans-97"/>
     <use x="651.595703" xlink:href="#DejaVuSans-99"/>
     <use x="706.576172" xlink:href="#DejaVuSans-111"/>
    </g>
   </g>
  </g>
 </g>
 <defs>
  <clipPath id="pae2bce3484">
   <rect height="265.0032" width="357.12" x="57.6" y="41.2992"/>
  </clipPath>
 </defs>
</svg>
