<?xml version="1.0" encoding="utf-8" standalone="no"?>
<!DOCTYPE svg PUBLIC "-//W3C//DTD SVG 1.1//EN"
  "http://www.w3.org/Graphics/SVG/1.1/DTD/svg11.dtd">
<!-- Created with matplotlib (https://matplotlib.org/) -->
<svg height="344.16pt" version="1.1" viewBox="0 0 460.8 344.16" width="460.8pt" xmlns="http://www.w3.org/2000/svg" xmlns:xlink="http://www.w3.org/1999/xlink">
 <defs>
  <style type="text/css">
*{stroke-linecap:butt;stroke-linejoin:round;}
  </style>
 </defs>
 <g id="figure_1">
  <g id="patch_1">
   <path d="M 0 344.16 
L 460.8 344.16 
L 460.8 0 
L 0 0 
z
" style="fill:#ffffff;"/>
  </g>
  <g id="axes_1">
   <g id="patch_2">
    <path d="M 57.6 306.3024 
L 414.72 306.3024 
L 414.72 41.2992 
L 57.6 41.2992 
z
" style="fill:#ffffff;"/>
   </g>
   <g id="matplotlib.axis_1">
    <g id="xtick_1">
     <g id="line2d_1">
      <defs>
       <path d="M 0 0 
L 0 3.5 
" id="mb48936461e" style="stroke:#000000;stroke-width:0.8;"/>
      </defs>
      <g>
       <use style="stroke:#000000;stroke-width:0.8;" x="73.832727" xlink:href="#mb48936461e" y="306.3024"/>
      </g>
     </g>
     <g id="text_1">
      <!-- 0 -->
      <defs>
       <path d="M 31.78125 66.40625 
Q 24.171875 66.40625 20.328125 58.90625 
Q 16.5 51.421875 16.5 36.375 
Q 16.5 21.390625 20.328125 13.890625 
Q 24.171875 6.390625 31.78125 6.390625 
Q 39.453125 6.390625 43.28125 13.890625 
Q 47.125 21.390625 47.125 36.375 
Q 47.125 51.421875 43.28125 58.90625 
Q 39.453125 66.40625 31.78125 66.40625 
z
M 31.78125 74.21875 
Q 44.046875 74.21875 50.515625 64.515625 
Q 56.984375 54.828125 56.984375 36.375 
Q 56.984375 17.96875 50.515625 8.265625 
Q 44.046875 -1.421875 31.78125 -1.421875 
Q 19.53125 -1.421875 13.0625 8.265625 
Q 6.59375 17.96875 6.59375 36.375 
Q 6.59375 54.828125 13.0625 64.515625 
Q 19.53125 74.21875 31.78125 74.21875 
z
" id="DejaVuSans-48"/>
      </defs>
      <g transform="translate(70.651477 320.900838)scale(0.1 -0.1)">
       <use xlink:href="#DejaVuSans-48"/>
      </g>
     </g>
    </g>
    <g id="xtick_2">
     <g id="line2d_2">
      <g>
       <use style="stroke:#000000;stroke-width:0.8;" x="150.042714" xlink:href="#mb48936461e" y="306.3024"/>
      </g>
     </g>
     <g id="text_2">
      <!-- 500 -->
      <defs>
       <path d="M 10.796875 72.90625 
L 49.515625 72.90625 
L 49.515625 64.59375 
L 19.828125 64.59375 
L 19.828125 46.734375 
Q 21.96875 47.46875 24.109375 47.828125 
Q 26.265625 48.1875 28.421875 48.1875 
Q 40.625 48.1875 47.75 41.5 
Q 54.890625 34.8125 54.890625 23.390625 
Q 54.890625 11.625 47.5625 5.09375 
Q 40.234375 -1.421875 26.90625 -1.421875 
Q 22.3125 -1.421875 17.546875 -0.640625 
Q 12.796875 0.140625 7.71875 1.703125 
L 7.71875 11.625 
Q 12.109375 9.234375 16.796875 8.0625 
Q 21.484375 6.890625 26.703125 6.890625 
Q 35.15625 6.890625 40.078125 11.328125 
Q 45.015625 15.765625 45.015625 23.390625 
Q 45.015625 31 40.078125 35.4375 
Q 35.15625 39.890625 26.703125 39.890625 
Q 22.75 39.890625 18.8125 39.015625 
Q 14.890625 38.140625 10.796875 36.28125 
z
" id="DejaVuSans-53"/>
      </defs>
      <g transform="translate(140.498964 320.900838)scale(0.1 -0.1)">
       <use xlink:href="#DejaVuSans-53"/>
       <use x="63.623047" xlink:href="#DejaVuSans-48"/>
       <use x="127.246094" xlink:href="#DejaVuSans-48"/>
      </g>
     </g>
    </g>
    <g id="xtick_3">
     <g id="line2d_3">
      <g>
       <use style="stroke:#000000;stroke-width:0.8;" x="226.252702" xlink:href="#mb48936461e" y="306.3024"/>
      </g>
     </g>
     <g id="text_3">
      <!-- 1000 -->
      <defs>
       <path d="M 12.40625 8.296875 
L 28.515625 8.296875 
L 28.515625 63.921875 
L 10.984375 60.40625 
L 10.984375 69.390625 
L 28.421875 72.90625 
L 38.28125 72.90625 
L 38.28125 8.296875 
L 54.390625 8.296875 
L 54.390625 0 
L 12.40625 0 
z
" id="DejaVuSans-49"/>
      </defs>
      <g transform="translate(213.527702 320.900838)scale(0.1 -0.1)">
       <use xlink:href="#DejaVuSans-49"/>
       <use x="63.623047" xlink:href="#DejaVuSans-48"/>
       <use x="127.246094" xlink:href="#DejaVuSans-48"/>
       <use x="190.869141" xlink:href="#DejaVuSans-48"/>
      </g>
     </g>
    </g>
    <g id="xtick_4">
     <g id="line2d_4">
      <g>
       <use style="stroke:#000000;stroke-width:0.8;" x="302.462689" xlink:href="#mb48936461e" y="306.3024"/>
      </g>
     </g>
     <g id="text_4">
      <!-- 1500 -->
      <g transform="translate(289.737689 320.900838)scale(0.1 -0.1)">
       <use xlink:href="#DejaVuSans-49"/>
       <use x="63.623047" xlink:href="#DejaVuSans-53"/>
       <use x="127.246094" xlink:href="#DejaVuSans-48"/>
       <use x="190.869141" xlink:href="#DejaVuSans-48"/>
      </g>
     </g>
    </g>
    <g id="xtick_5">
     <g id="line2d_5">
      <g>
       <use style="stroke:#000000;stroke-width:0.8;" x="378.672676" xlink:href="#mb48936461e" y="306.3024"/>
      </g>
     </g>
     <g id="text_5">
      <!-- 2000 -->
      <defs>
       <path d="M 19.1875 8.296875 
L 53.609375 8.296875 
L 53.609375 0 
L 7.328125 0 
L 7.328125 8.296875 
Q 12.9375 14.109375 22.625 23.890625 
Q 32.328125 33.6875 34.8125 36.53125 
Q 39.546875 41.84375 41.421875 45.53125 
Q 43.3125 49.21875 43.3125 52.78125 
Q 43.3125 58.59375 39.234375 62.25 
Q 35.15625 65.921875 28.609375 65.921875 
Q 23.96875 65.921875 18.8125 64.3125 
Q 13.671875 62.703125 7.8125 59.421875 
L 7.8125 69.390625 
Q 13.765625 71.78125 18.9375 73 
Q 24.125 74.21875 28.421875 74.21875 
Q 39.75 74.21875 46.484375 68.546875 
Q 53.21875 62.890625 53.21875 53.421875 
Q 53.21875 48.921875 51.53125 44.890625 
Q 49.859375 40.875 45.40625 35.40625 
Q 44.1875 33.984375 37.640625 27.21875 
Q 31.109375 20.453125 19.1875 8.296875 
z
" id="DejaVuSans-50"/>
      </defs>
      <g transform="translate(365.947676 320.900838)scale(0.1 -0.1)">
       <use xlink:href="#DejaVuSans-50"/>
       <use x="63.623047" xlink:href="#DejaVuSans-48"/>
       <use x="127.246094" xlink:href="#DejaVuSans-48"/>
       <use x="190.869141" xlink:href="#DejaVuSans-48"/>
      </g>
     </g>
    </g>
    <g id="text_6">
     <!-- Muestras -->
     <defs>
      <path d="M 9.8125 72.90625 
L 24.515625 72.90625 
L 43.109375 23.296875 
L 61.8125 72.90625 
L 76.515625 72.90625 
L 76.515625 0 
L 66.890625 0 
L 66.890625 64.015625 
L 48.09375 14.015625 
L 38.1875 14.015625 
L 19.390625 64.015625 
L 19.390625 0 
L 9.8125 0 
z
" id="DejaVuSans-77"/>
      <path d="M 8.5 21.578125 
L 8.5 54.6875 
L 17.484375 54.6875 
L 17.484375 21.921875 
Q 17.484375 14.15625 20.5 10.265625 
Q 23.53125 6.390625 29.59375 6.390625 
Q 36.859375 6.390625 41.078125 11.03125 
Q 45.3125 15.671875 45.3125 23.6875 
L 45.3125 54.6875 
L 54.296875 54.6875 
L 54.296875 0 
L 45.3125 0 
L 45.3125 8.40625 
Q 42.046875 3.421875 37.71875 1 
Q 33.40625 -1.421875 27.6875 -1.421875 
Q 18.265625 -1.421875 13.375 4.4375 
Q 8.5 10.296875 8.5 21.578125 
z
M 31.109375 56 
z
" id="DejaVuSans-117"/>
      <path d="M 56.203125 29.59375 
L 56.203125 25.203125 
L 14.890625 25.203125 
Q 15.484375 15.921875 20.484375 11.0625 
Q 25.484375 6.203125 34.421875 6.203125 
Q 39.59375 6.203125 44.453125 7.46875 
Q 49.3125 8.734375 54.109375 11.28125 
L 54.109375 2.78125 
Q 49.265625 0.734375 44.1875 -0.34375 
Q 39.109375 -1.421875 33.890625 -1.421875 
Q 20.796875 -1.421875 13.15625 6.1875 
Q 5.515625 13.8125 5.515625 26.8125 
Q 5.515625 40.234375 12.765625 48.109375 
Q 20.015625 56 32.328125 56 
Q 43.359375 56 49.78125 48.890625 
Q 56.203125 41.796875 56.203125 29.59375 
z
M 47.21875 32.234375 
Q 47.125 39.59375 43.09375 43.984375 
Q 39.0625 48.390625 32.421875 48.390625 
Q 24.90625 48.390625 20.390625 44.140625 
Q 15.875 39.890625 15.1875 32.171875 
z
" id="DejaVuSans-101"/>
      <path d="M 44.28125 53.078125 
L 44.28125 44.578125 
Q 40.484375 46.53125 36.375 47.5 
Q 32.28125 48.484375 27.875 48.484375 
Q 21.1875 48.484375 17.84375 46.4375 
Q 14.5 44.390625 14.5 40.28125 
Q 14.5 37.15625 16.890625 35.375 
Q 19.28125 33.59375 26.515625 31.984375 
L 29.59375 31.296875 
Q 39.15625 29.25 43.1875 25.515625 
Q 47.21875 21.78125 47.21875 15.09375 
Q 47.21875 7.46875 41.1875 3.015625 
Q 35.15625 -1.421875 24.609375 -1.421875 
Q 20.21875 -1.421875 15.453125 -0.5625 
Q 10.6875 0.296875 5.421875 2 
L 5.421875 11.28125 
Q 10.40625 8.6875 15.234375 7.390625 
Q 20.0625 6.109375 24.8125 6.109375 
Q 31.15625 6.109375 34.5625 8.28125 
Q 37.984375 10.453125 37.984375 14.40625 
Q 37.984375 18.0625 35.515625 20.015625 
Q 33.0625 21.96875 24.703125 23.78125 
L 21.578125 24.515625 
Q 13.234375 26.265625 9.515625 29.90625 
Q 5.8125 33.546875 5.8125 39.890625 
Q 5.8125 47.609375 11.28125 51.796875 
Q 16.75 56 26.8125 56 
Q 31.78125 56 36.171875 55.265625 
Q 40.578125 54.546875 44.28125 53.078125 
z
" id="DejaVuSans-115"/>
      <path d="M 18.3125 70.21875 
L 18.3125 54.6875 
L 36.8125 54.6875 
L 36.8125 47.703125 
L 18.3125 47.703125 
L 18.3125 18.015625 
Q 18.3125 11.328125 20.140625 9.421875 
Q 21.96875 7.515625 27.59375 7.515625 
L 36.8125 7.515625 
L 36.8125 0 
L 27.59375 0 
Q 17.1875 0 13.234375 3.875 
Q 9.28125 7.765625 9.28125 18.015625 
L 9.28125 47.703125 
L 2.6875 47.703125 
L 2.6875 54.6875 
L 9.28125 54.6875 
L 9.28125 70.21875 
z
" id="DejaVuSans-116"/>
      <path d="M 41.109375 46.296875 
Q 39.59375 47.171875 37.8125 47.578125 
Q 36.03125 48 33.890625 48 
Q 26.265625 48 22.1875 43.046875 
Q 18.109375 38.09375 18.109375 28.8125 
L 18.109375 0 
L 9.078125 0 
L 9.078125 54.6875 
L 18.109375 54.6875 
L 18.109375 46.1875 
Q 20.953125 51.171875 25.484375 53.578125 
Q 30.03125 56 36.53125 56 
Q 37.453125 56 38.578125 55.875 
Q 39.703125 55.765625 41.0625 55.515625 
z
" id="DejaVuSans-114"/>
      <path d="M 34.28125 27.484375 
Q 23.390625 27.484375 19.1875 25 
Q 14.984375 22.515625 14.984375 16.5 
Q 14.984375 11.71875 18.140625 8.90625 
Q 21.296875 6.109375 26.703125 6.109375 
Q 34.1875 6.109375 38.703125 11.40625 
Q 43.21875 16.703125 43.21875 25.484375 
L 43.21875 27.484375 
z
M 52.203125 31.203125 
L 52.203125 0 
L 43.21875 0 
L 43.21875 8.296875 
Q 40.140625 3.328125 35.546875 0.953125 
Q 30.953125 -1.421875 24.3125 -1.421875 
Q 15.921875 -1.421875 10.953125 3.296875 
Q 6 8.015625 6 15.921875 
Q 6 25.140625 12.171875 29.828125 
Q 18.359375 34.515625 30.609375 34.515625 
L 43.21875 34.515625 
L 43.21875 35.40625 
Q 43.21875 41.609375 39.140625 45 
Q 35.0625 48.390625 27.6875 48.390625 
Q 23 48.390625 18.546875 47.265625 
Q 14.109375 46.140625 10.015625 43.890625 
L 10.015625 52.203125 
Q 14.9375 54.109375 19.578125 55.046875 
Q 24.21875 56 28.609375 56 
Q 40.484375 56 46.34375 49.84375 
Q 52.203125 43.703125 52.203125 31.203125 
z
" id="DejaVuSans-97"/>
     </defs>
     <g transform="translate(213.311562 334.578963)scale(0.1 -0.1)">
      <use xlink:href="#DejaVuSans-77"/>
      <use x="86.279297" xlink:href="#DejaVuSans-117"/>
      <use x="149.658203" xlink:href="#DejaVuSans-101"/>
      <use x="211.181641" xlink:href="#DejaVuSans-115"/>
      <use x="263.28125" xlink:href="#DejaVuSans-116"/>
      <use x="302.490234" xlink:href="#DejaVuSans-114"/>
      <use x="343.603516" xlink:href="#DejaVuSans-97"/>
      <use x="404.882812" xlink:href="#DejaVuSans-115"/>
     </g>
    </g>
   </g>
   <g id="matplotlib.axis_2">
    <g id="ytick_1">
     <g id="line2d_6">
      <defs>
       <path d="M 0 0 
L -3.5 0 
" id="m9e87c38c82" style="stroke:#000000;stroke-width:0.8;"/>
      </defs>
      <g>
       <use style="stroke:#000000;stroke-width:0.8;" x="57.6" xlink:href="#m9e87c38c82" y="260.667087"/>
      </g>
     </g>
     <g id="text_7">
      <!-- 60 -->
      <defs>
       <path d="M 33.015625 40.375 
Q 26.375 40.375 22.484375 35.828125 
Q 18.609375 31.296875 18.609375 23.390625 
Q 18.609375 15.53125 22.484375 10.953125 
Q 26.375 6.390625 33.015625 6.390625 
Q 39.65625 6.390625 43.53125 10.953125 
Q 47.40625 15.53125 47.40625 23.390625 
Q 47.40625 31.296875 43.53125 35.828125 
Q 39.65625 40.375 33.015625 40.375 
z
M 52.59375 71.296875 
L 52.59375 62.3125 
Q 48.875 64.0625 45.09375 64.984375 
Q 41.3125 65.921875 37.59375 65.921875 
Q 27.828125 65.921875 22.671875 59.328125 
Q 17.53125 52.734375 16.796875 39.40625 
Q 19.671875 43.65625 24.015625 45.921875 
Q 28.375 48.1875 33.59375 48.1875 
Q 44.578125 48.1875 50.953125 41.515625 
Q 57.328125 34.859375 57.328125 23.390625 
Q 57.328125 12.15625 50.6875 5.359375 
Q 44.046875 -1.421875 33.015625 -1.421875 
Q 20.359375 -1.421875 13.671875 8.265625 
Q 6.984375 17.96875 6.984375 36.375 
Q 6.984375 53.65625 15.1875 63.9375 
Q 23.390625 74.21875 37.203125 74.21875 
Q 40.921875 74.21875 44.703125 73.484375 
Q 48.484375 72.75 52.59375 71.296875 
z
" id="DejaVuSans-54"/>
      </defs>
      <g transform="translate(37.875 264.466306)scale(0.1 -0.1)">
       <use xlink:href="#DejaVuSans-54"/>
       <use x="63.623047" xlink:href="#DejaVuSans-48"/>
      </g>
     </g>
    </g>
    <g id="ytick_2">
     <g id="line2d_7">
      <g>
       <use style="stroke:#000000;stroke-width:0.8;" x="57.6" xlink:href="#m9e87c38c82" y="207.60277"/>
      </g>
     </g>
     <g id="text_8">
      <!-- 70 -->
      <defs>
       <path d="M 8.203125 72.90625 
L 55.078125 72.90625 
L 55.078125 68.703125 
L 28.609375 0 
L 18.3125 0 
L 43.21875 64.59375 
L 8.203125 64.59375 
z
" id="DejaVuSans-55"/>
      </defs>
      <g transform="translate(37.875 211.401989)scale(0.1 -0.1)">
       <use xlink:href="#DejaVuSans-55"/>
       <use x="63.623047" xlink:href="#DejaVuSans-48"/>
      </g>
     </g>
    </g>
    <g id="ytick_3">
     <g id="line2d_8">
      <g>
       <use style="stroke:#000000;stroke-width:0.8;" x="57.6" xlink:href="#m9e87c38c82" y="154.538453"/>
      </g>
     </g>
     <g id="text_9">
      <!-- 80 -->
      <defs>
       <path d="M 31.78125 34.625 
Q 24.75 34.625 20.71875 30.859375 
Q 16.703125 27.09375 16.703125 20.515625 
Q 16.703125 13.921875 20.71875 10.15625 
Q 24.75 6.390625 31.78125 6.390625 
Q 38.8125 6.390625 42.859375 10.171875 
Q 46.921875 13.96875 46.921875 20.515625 
Q 46.921875 27.09375 42.890625 30.859375 
Q 38.875 34.625 31.78125 34.625 
z
M 21.921875 38.8125 
Q 15.578125 40.375 12.03125 44.71875 
Q 8.5 49.078125 8.5 55.328125 
Q 8.5 64.0625 14.71875 69.140625 
Q 20.953125 74.21875 31.78125 74.21875 
Q 42.671875 74.21875 48.875 69.140625 
Q 55.078125 64.0625 55.078125 55.328125 
Q 55.078125 49.078125 51.53125 44.71875 
Q 48 40.375 41.703125 38.8125 
Q 48.828125 37.15625 52.796875 32.3125 
Q 56.78125 27.484375 56.78125 20.515625 
Q 56.78125 9.90625 50.3125 4.234375 
Q 43.84375 -1.421875 31.78125 -1.421875 
Q 19.734375 -1.421875 13.25 4.234375 
Q 6.78125 9.90625 6.78125 20.515625 
Q 6.78125 27.484375 10.78125 32.3125 
Q 14.796875 37.15625 21.921875 38.8125 
z
M 18.3125 54.390625 
Q 18.3125 48.734375 21.84375 45.5625 
Q 25.390625 42.390625 31.78125 42.390625 
Q 38.140625 42.390625 41.71875 45.5625 
Q 45.3125 48.734375 45.3125 54.390625 
Q 45.3125 60.0625 41.71875 63.234375 
Q 38.140625 66.40625 31.78125 66.40625 
Q 25.390625 66.40625 21.84375 63.234375 
Q 18.3125 60.0625 18.3125 54.390625 
z
" id="DejaVuSans-56"/>
      </defs>
      <g transform="translate(37.875 158.337672)scale(0.1 -0.1)">
       <use xlink:href="#DejaVuSans-56"/>
       <use x="63.623047" xlink:href="#DejaVuSans-48"/>
      </g>
     </g>
    </g>
    <g id="ytick_4">
     <g id="line2d_9">
      <g>
       <use style="stroke:#000000;stroke-width:0.8;" x="57.6" xlink:href="#m9e87c38c82" y="101.474136"/>
      </g>
     </g>
     <g id="text_10">
      <!-- 90 -->
      <defs>
       <path d="M 10.984375 1.515625 
L 10.984375 10.5 
Q 14.703125 8.734375 18.5 7.8125 
Q 22.3125 6.890625 25.984375 6.890625 
Q 35.75 6.890625 40.890625 13.453125 
Q 46.046875 20.015625 46.78125 33.40625 
Q 43.953125 29.203125 39.59375 26.953125 
Q 35.25 24.703125 29.984375 24.703125 
Q 19.046875 24.703125 12.671875 31.3125 
Q 6.296875 37.9375 6.296875 49.421875 
Q 6.296875 60.640625 12.9375 67.421875 
Q 19.578125 74.21875 30.609375 74.21875 
Q 43.265625 74.21875 49.921875 64.515625 
Q 56.59375 54.828125 56.59375 36.375 
Q 56.59375 19.140625 48.40625 8.859375 
Q 40.234375 -1.421875 26.421875 -1.421875 
Q 22.703125 -1.421875 18.890625 -0.6875 
Q 15.09375 0.046875 10.984375 1.515625 
z
M 30.609375 32.421875 
Q 37.25 32.421875 41.125 36.953125 
Q 45.015625 41.5 45.015625 49.421875 
Q 45.015625 57.28125 41.125 61.84375 
Q 37.25 66.40625 30.609375 66.40625 
Q 23.96875 66.40625 20.09375 61.84375 
Q 16.21875 57.28125 16.21875 49.421875 
Q 16.21875 41.5 20.09375 36.953125 
Q 23.96875 32.421875 30.609375 32.421875 
z
" id="DejaVuSans-57"/>
      </defs>
      <g transform="translate(37.875 105.273354)scale(0.1 -0.1)">
       <use xlink:href="#DejaVuSans-57"/>
       <use x="63.623047" xlink:href="#DejaVuSans-48"/>
      </g>
     </g>
    </g>
    <g id="ytick_5">
     <g id="line2d_10">
      <g>
       <use style="stroke:#000000;stroke-width:0.8;" x="57.6" xlink:href="#m9e87c38c82" y="48.409819"/>
      </g>
     </g>
     <g id="text_11">
      <!-- 100 -->
      <g transform="translate(31.5125 52.209037)scale(0.1 -0.1)">
       <use xlink:href="#DejaVuSans-49"/>
       <use x="63.623047" xlink:href="#DejaVuSans-48"/>
       <use x="127.246094" xlink:href="#DejaVuSans-48"/>
      </g>
     </g>
    </g>
    <g id="text_12">
     <!-- Valor de Ritmo Cardíaco -->
     <defs>
      <path d="M 28.609375 0 
L 0.78125 72.90625 
L 11.078125 72.90625 
L 34.1875 11.53125 
L 57.328125 72.90625 
L 67.578125 72.90625 
L 39.796875 0 
z
" id="DejaVuSans-86"/>
      <path d="M 9.421875 75.984375 
L 18.40625 75.984375 
L 18.40625 0 
L 9.421875 0 
z
" id="DejaVuSans-108"/>
      <path d="M 30.609375 48.390625 
Q 23.390625 48.390625 19.1875 42.75 
Q 14.984375 37.109375 14.984375 27.296875 
Q 14.984375 17.484375 19.15625 11.84375 
Q 23.34375 6.203125 30.609375 6.203125 
Q 37.796875 6.203125 41.984375 11.859375 
Q 46.1875 17.53125 46.1875 27.296875 
Q 46.1875 37.015625 41.984375 42.703125 
Q 37.796875 48.390625 30.609375 48.390625 
z
M 30.609375 56 
Q 42.328125 56 49.015625 48.375 
Q 55.71875 40.765625 55.71875 27.296875 
Q 55.71875 13.875 49.015625 6.21875 
Q 42.328125 -1.421875 30.609375 -1.421875 
Q 18.84375 -1.421875 12.171875 6.21875 
Q 5.515625 13.875 5.515625 27.296875 
Q 5.515625 40.765625 12.171875 48.375 
Q 18.84375 56 30.609375 56 
z
" id="DejaVuSans-111"/>
      <path id="DejaVuSans-32"/>
      <path d="M 45.40625 46.390625 
L 45.40625 75.984375 
L 54.390625 75.984375 
L 54.390625 0 
L 45.40625 0 
L 45.40625 8.203125 
Q 42.578125 3.328125 38.25 0.953125 
Q 33.9375 -1.421875 27.875 -1.421875 
Q 17.96875 -1.421875 11.734375 6.484375 
Q 5.515625 14.40625 5.515625 27.296875 
Q 5.515625 40.1875 11.734375 48.09375 
Q 17.96875 56 27.875 56 
Q 33.9375 56 38.25 53.625 
Q 42.578125 51.265625 45.40625 46.390625 
z
M 14.796875 27.296875 
Q 14.796875 17.390625 18.875 11.75 
Q 22.953125 6.109375 30.078125 6.109375 
Q 37.203125 6.109375 41.296875 11.75 
Q 45.40625 17.390625 45.40625 27.296875 
Q 45.40625 37.203125 41.296875 42.84375 
Q 37.203125 48.484375 30.078125 48.484375 
Q 22.953125 48.484375 18.875 42.84375 
Q 14.796875 37.203125 14.796875 27.296875 
z
" id="DejaVuSans-100"/>
      <path d="M 44.390625 34.1875 
Q 47.5625 33.109375 50.5625 29.59375 
Q 53.5625 26.078125 56.59375 19.921875 
L 66.609375 0 
L 56 0 
L 46.6875 18.703125 
Q 43.0625 26.03125 39.671875 28.421875 
Q 36.28125 30.8125 30.421875 30.8125 
L 19.671875 30.8125 
L 19.671875 0 
L 9.8125 0 
L 9.8125 72.90625 
L 32.078125 72.90625 
Q 44.578125 72.90625 50.734375 67.671875 
Q 56.890625 62.453125 56.890625 51.90625 
Q 56.890625 45.015625 53.6875 40.46875 
Q 50.484375 35.9375 44.390625 34.1875 
z
M 19.671875 64.796875 
L 19.671875 38.921875 
L 32.078125 38.921875 
Q 39.203125 38.921875 42.84375 42.21875 
Q 46.484375 45.515625 46.484375 51.90625 
Q 46.484375 58.296875 42.84375 61.546875 
Q 39.203125 64.796875 32.078125 64.796875 
z
" id="DejaVuSans-82"/>
      <path d="M 9.421875 54.6875 
L 18.40625 54.6875 
L 18.40625 0 
L 9.421875 0 
z
M 9.421875 75.984375 
L 18.40625 75.984375 
L 18.40625 64.59375 
L 9.421875 64.59375 
z
" id="DejaVuSans-105"/>
      <path d="M 52 44.1875 
Q 55.375 50.25 60.0625 53.125 
Q 64.75 56 71.09375 56 
Q 79.640625 56 84.28125 50.015625 
Q 88.921875 44.046875 88.921875 33.015625 
L 88.921875 0 
L 79.890625 0 
L 79.890625 32.71875 
Q 79.890625 40.578125 77.09375 44.375 
Q 74.3125 48.1875 68.609375 48.1875 
Q 61.625 48.1875 57.5625 43.546875 
Q 53.515625 38.921875 53.515625 30.90625 
L 53.515625 0 
L 44.484375 0 
L 44.484375 32.71875 
Q 44.484375 40.625 41.703125 44.40625 
Q 38.921875 48.1875 33.109375 48.1875 
Q 26.21875 48.1875 22.15625 43.53125 
Q 18.109375 38.875 18.109375 30.90625 
L 18.109375 0 
L 9.078125 0 
L 9.078125 54.6875 
L 18.109375 54.6875 
L 18.109375 46.1875 
Q 21.1875 51.21875 25.484375 53.609375 
Q 29.78125 56 35.6875 56 
Q 41.65625 56 45.828125 52.96875 
Q 50 49.953125 52 44.1875 
z
" id="DejaVuSans-109"/>
      <path d="M 64.40625 67.28125 
L 64.40625 56.890625 
Q 59.421875 61.53125 53.78125 63.8125 
Q 48.140625 66.109375 41.796875 66.109375 
Q 29.296875 66.109375 22.65625 58.46875 
Q 16.015625 50.828125 16.015625 36.375 
Q 16.015625 21.96875 22.65625 14.328125 
Q 29.296875 6.6875 41.796875 6.6875 
Q 48.140625 6.6875 53.78125 8.984375 
Q 59.421875 11.28125 64.40625 15.921875 
L 64.40625 5.609375 
Q 59.234375 2.09375 53.4375 0.328125 
Q 47.65625 -1.421875 41.21875 -1.421875 
Q 24.65625 -1.421875 15.125 8.703125 
Q 5.609375 18.84375 5.609375 36.375 
Q 5.609375 53.953125 15.125 64.078125 
Q 24.65625 74.21875 41.21875 74.21875 
Q 47.75 74.21875 53.53125 72.484375 
Q 59.328125 70.75 64.40625 67.28125 
z
" id="DejaVuSans-67"/>
      <path d="M 20.703125 79.984375 
L 30.421875 79.984375 
L 14.5 61.625 
L 7.03125 61.625 
z
M 9.421875 54.6875 
L 18.40625 54.6875 
L 18.40625 0 
L 9.421875 0 
z
M 13.921875 56 
z
" id="DejaVuSans-237"/>
      <path d="M 48.78125 52.59375 
L 48.78125 44.1875 
Q 44.96875 46.296875 41.140625 47.34375 
Q 37.3125 48.390625 33.40625 48.390625 
Q 24.65625 48.390625 19.8125 42.84375 
Q 14.984375 37.3125 14.984375 27.296875 
Q 14.984375 17.28125 19.8125 11.734375 
Q 24.65625 6.203125 33.40625 6.203125 
Q 37.3125 6.203125 41.140625 7.25 
Q 44.96875 8.296875 48.78125 10.40625 
L 48.78125 2.09375 
Q 45.015625 0.34375 40.984375 -0.53125 
Q 36.96875 -1.421875 32.421875 -1.421875 
Q 20.0625 -1.421875 12.78125 6.34375 
Q 5.515625 14.109375 5.515625 27.296875 
Q 5.515625 40.671875 12.859375 48.328125 
Q 20.21875 56 33.015625 56 
Q 37.15625 56 41.109375 55.140625 
Q 45.0625 54.296875 48.78125 52.59375 
z
" id="DejaVuSans-99"/>
     </defs>
     <g transform="translate(25.432812 234.6008)rotate(-90)scale(0.1 -0.1)">
      <use xlink:href="#DejaVuSans-86"/>
      <use x="68.298828" xlink:href="#DejaVuSans-97"/>
      <use x="129.578125" xlink:href="#DejaVuSans-108"/>
      <use x="157.361328" xlink:href="#DejaVuSans-111"/>
      <use x="218.542969" xlink:href="#DejaVuSans-114"/>
      <use x="259.65625" xlink:href="#DejaVuSans-32"/>
      <use x="291.443359" xlink:href="#DejaVuSans-100"/>
      <use x="354.919922" xlink:href="#DejaVuSans-101"/>
      <use x="416.443359" xlink:href="#DejaVuSans-32"/>
      <use x="448.230469" xlink:href="#DejaVuSans-82"/>
      <use x="517.712891" xlink:href="#DejaVuSans-105"/>
      <use x="545.496094" xlink:href="#DejaVuSans-116"/>
      <use x="584.705078" xlink:href="#DejaVuSans-109"/>
      <use x="682.117188" xlink:href="#DejaVuSans-111"/>
      <use x="743.298828" xlink:href="#DejaVuSans-32"/>
      <use x="775.085938" xlink:href="#DejaVuSans-67"/>
      <use x="844.910156" xlink:href="#DejaVuSans-97"/>
      <use x="906.189453" xlink:href="#DejaVuSans-114"/>
      <use x="947.287109" xlink:href="#DejaVuSans-100"/>
      <use x="1010.763672" xlink:href="#DejaVuSans-237"/>
      <use x="1038.546875" xlink:href="#DejaVuSans-97"/>
      <use x="1099.826172" xlink:href="#DejaVuSans-99"/>
      <use x="1154.806641" xlink:href="#DejaVuSans-111"/>
     </g>
    </g>
   </g>
   <g id="line2d_11">
    <path clip-path="url(#p9582970b8f)" d="M 73.832727 294.2568 
L 74.594827 236.151373 
L 75.204507 215.986932 
L 75.509347 210.255986 
L 75.966607 206.063905 
L 76.271447 203.145367 
L 76.423867 202.56166 
L 77.033547 210.255986 
L 77.490807 212.909202 
L 77.643227 213.121459 
L 77.948067 212.909202 
L 78.557746 211.52953 
L 79.015006 209.460021 
L 79.929526 205.26794 
L 80.386786 204.259718 
L 80.539206 204.206654 
L 80.691626 202.084081 
L 81.148886 204.578104 
L 82.063406 190.834446 
L 82.520666 185.47495 
L 83.130346 172.20887 
L 83.435186 167.645339 
L 84.197286 158.518277 
L 84.654545 158.146826 
L 85.111805 149.603471 
L 85.569065 137.557871 
L 86.026325 138.088515 
L 86.483585 139.945766 
L 86.940845 143.501075 
L 88.465045 157.45699 
L 89.074725 159.208113 
L 89.227145 159.314241 
L 89.379565 159.155048 
L 89.684405 158.412148 
L 89.836825 159.844885 
L 90.294085 157.08554 
L 91.208604 171.09452 
L 92.275544 190.356867 
L 93.342484 211.476465 
L 93.647324 212.378559 
L 93.799744 212.219366 
L 94.104584 216.358382 
L 94.714264 233.604285 
L 95.171524 231.640906 
L 95.933624 228.457047 
L 96.848143 223.256744 
L 97.457823 218.109505 
L 97.915083 218.215633 
L 98.067503 218.374826 
L 98.372343 219.27692 
L 99.286863 225.273188 
L 99.744123 228.722368 
L 99.896543 230.314298 
L 100.353803 231.057198 
L 100.506223 231.110263 
L 100.811063 230.685748 
L 100.963483 230.685748 
L 101.115903 230.844941 
L 101.573163 228.828497 
L 102.487682 222.832229 
L 102.944942 223.628194 
L 103.097362 224.158837 
L 103.554622 224.31803 
L 104.316722 222.195457 
L 104.926402 218.640148 
L 106.145762 210.892758 
L 106.450602 210.892758 
L 106.603022 211.051951 
L 107.060282 210.415179 
L 107.365122 210.415179 
L 108.127222 211.317272 
L 108.279641 211.158079 
L 108.584481 210.255986 
L 109.194161 207.60277 
L 109.803841 204.047461 
L 110.108681 202.296338 
L 110.261101 200.863602 
L 110.565941 200.279894 
L 110.718361 200.332959 
L 111.175621 201.341181 
L 111.937721 206.170033 
L 115.44338 231.32252 
L 116.05306 235.567665 
L 116.51032 237.584109 
L 116.66274 237.849431 
L 117.27242 237.849431 
L 117.8821 234.930893 
L 118.18694 233.073642 
L 119.25388 230.579619 
L 119.4063 230.526555 
L 119.71114 229.518333 
L 120.625659 221.558685 
L 121.235339 215.562418 
L 121.997439 210.096793 
L 122.607119 203.994396 
L 123.826479 188.128166 
L 124.588579 178.258203 
L 125.045839 172.686449 
L 125.503099 167.804532 
L 126.417618 163.134872 
L 126.722458 163.983901 
L 127.027298 165.681959 
L 127.332138 167.433082 
L 127.941818 169.767912 
L 128.246658 170.351619 
L 128.551498 171.625163 
L 128.856338 173.376285 
L 129.923278 183.564634 
L 130.380538 186.536236 
L 130.685378 187.066879 
L 131.142638 188.658809 
L 131.752318 192.214118 
L 133.124097 202.455531 
L 133.581357 205.745519 
L 133.886197 207.337448 
L 134.495877 212.27243 
L 134.800717 213.705167 
L 135.105557 214.129681 
L 135.257977 214.129681 
L 135.410397 213.970488 
L 136.020077 212.113237 
L 136.324917 211.847915 
L 136.477337 211.954044 
L 136.782177 212.64388 
L 137.239437 212.113237 
L 137.544277 210.362115 
L 137.849117 208.133413 
L 138.153956 207.072127 
L 138.458796 205.480197 
L 138.916056 202.826981 
L 139.068476 202.137145 
L 139.525736 202.720853 
L 140.287836 205.480197 
L 140.897516 207.496641 
L 141.049936 208.027285 
L 141.354776 207.337448 
L 141.507196 207.178256 
L 142.116876 204.259718 
L 142.726556 200.439087 
L 143.031396 199.643122 
L 143.488656 200.279894 
L 144.403175 198.847158 
L 145.317695 192.638633 
L 146.079795 185.581078 
L 146.232215 185.209628 
L 146.384635 185.421885 
L 146.537055 185.8464 
L 147.146735 190.728317 
L 147.603995 192.85089 
L 147.908835 194.602012 
L 148.213675 195.663299 
L 149.128195 192.903954 
L 149.737875 190.250738 
L 150.195134 188.340423 
L 150.652394 190.197674 
L 151.414494 196.30007 
L 151.871754 200.704409 
L 152.176594 202.296338 
L 152.481434 202.296338 
L 152.938694 201.924888 
L 153.091114 201.871824 
L 153.243534 201.659567 
L 153.395954 201.659567 
L 153.548374 201.871824 
L 155.224994 213.439845 
L 155.682254 215.190967 
L 155.987093 214.766453 
L 157.358873 215.721611 
L 157.816133 216.623704 
L 158.273393 215.986932 
L 158.425813 215.986932 
L 159.645173 200.96973 
L 160.407273 191.418153 
L 161.169373 183.458506 
L 161.626633 181.972705 
L 161.931472 181.866576 
L 162.236312 182.131898 
L 162.693572 183.299313 
L 163.150832 183.617699 
L 163.608092 185.209628 
L 163.760512 185.47495 
L 164.065352 186.642365 
L 164.370192 186.483172 
L 164.522612 186.536236 
L 164.979872 187.066879 
L 165.437132 187.332201 
L 165.589552 187.332201 
L 165.894392 187.703651 
L 166.351652 187.968973 
L 166.504072 187.968973 
L 166.961332 187.066879 
L 167.266172 187.43833 
L 167.571012 187.332201 
L 168.180691 192.054925 
L 169.247631 202.137145 
L 169.552471 203.463753 
L 169.857311 204.578104 
L 170.009731 204.578104 
L 170.162151 205.055683 
L 170.314571 206.010841 
L 170.619411 206.116969 
L 170.924251 206.116969 
L 171.381511 205.374069 
L 171.686351 205.480197 
L 172.143611 206.116969 
L 172.296031 206.116969 
L 172.600871 206.700677 
L 173.362971 209.353893 
L 173.66781 210.415179 
L 173.97265 210.945822 
L 174.27749 211.051951 
L 174.42991 210.945822 
L 174.88717 210.362115 
L 175.95411 209.56615 
L 176.71621 206.806805 
L 177.17347 207.60277 
L 177.32589 207.496641 
L 177.78315 208.133413 
L 178.85009 211.423401 
L 179.15493 213.068395 
L 179.30735 213.068395 
L 179.917029 211.317272 
L 180.069449 210.892758 
L 180.221869 211.211144 
L 180.526709 210.521307 
L 180.983969 208.557928 
L 181.441229 206.912934 
L 181.746069 205.586326 
L 182.508169 199.643122 
L 182.965429 196.30007 
L 184.032369 188.764937 
L 184.642049 184.148342 
L 185.099309 182.821734 
L 185.251729 182.662541 
L 185.404149 182.76867 
L 185.556569 182.662541 
L 186.013828 182.025769 
L 186.471088 181.495126 
L 187.538028 177.621431 
L 188.300128 174.17225 
L 188.604968 172.845642 
L 188.909808 171.678227 
L 189.214648 170.882263 
L 189.367068 169.820976 
L 189.824328 169.396462 
L 190.281588 169.396462 
L 190.586428 168.971947 
L 190.891268 168.175982 
L 191.348528 167.698404 
L 191.805787 167.963725 
L 192.415467 167.963725 
L 192.720307 168.441304 
L 193.482407 170.351619 
L 193.634827 170.563877 
L 193.787247 170.298555 
L 194.092087 169.290333 
L 194.549347 167.804532 
L 195.006607 166.318731 
L 195.768707 164.726802 
L 196.073547 164.885995 
L 196.530807 165.257445 
L 196.683227 165.151316 
L 196.835647 165.257445 
L 196.988067 165.151316 
L 197.597746 163.665515 
L 197.750166 163.71858 
L 197.902586 163.930837 
L 198.359846 163.983901 
L 198.512266 164.09003 
L 198.664686 163.983901 
L 199.274366 163.134872 
L 199.884046 162.232779 
L 200.798566 157.987633 
L 201.255826 155.175225 
L 202.475186 146.950256 
L 202.780026 146.684934 
L 202.932446 146.844127 
L 203.237286 147.480899 
L 203.542125 147.799285 
L 203.846965 148.701378 
L 204.456645 150.558629 
L 204.609065 150.558629 
L 204.761485 150.187179 
L 205.218745 150.823951 
L 205.523585 150.717822 
L 205.828425 150.717822 
L 205.980845 150.930079 
L 206.590525 150.823951 
L 206.895365 150.134115 
L 207.505045 147.905413 
L 208.114725 145.41139 
L 208.724405 143.819461 
L 208.876825 143.925589 
L 209.029245 144.190911 
L 210.096184 150.293307 
L 210.705864 154.273131 
L 211.772804 164.355352 
L 212.077644 165.416638 
L 212.687324 167.16776 
L 213.297004 168.971947 
L 213.754264 169.555655 
L 213.906684 169.927105 
L 214.973624 167.433082 
L 215.126044 167.273889 
L 215.278464 167.380018 
L 215.583303 167.910661 
L 216.040563 170.192426 
L 216.650243 171.943549 
L 217.412343 175.923373 
L 217.564763 176.400952 
L 217.869603 176.400952 
L 218.174443 175.76418 
L 218.936543 171.890485 
L 220.918003 160.800042 
L 221.832522 159.04892 
L 223.204302 149.656536 
L 223.661562 148.329928 
L 223.813982 148.436056 
L 224.271242 148.011542 
L 224.880922 146.313484 
L 225.185762 145.358326 
L 225.338182 145.252197 
L 225.490602 144.986876 
L 225.643022 144.350104 
L 226.862382 135.70062 
L 227.319641 134.214819 
L 227.929321 131.986118 
L 228.234161 130.818703 
L 228.691421 128.961452 
L 228.843841 128.536937 
L 229.148681 129.173709 
L 229.301101 129.226774 
L 229.605941 128.430809 
L 230.520461 125.724529 
L 231.130141 123.230506 
L 231.434981 123.124377 
L 232.349501 124.450985 
L 232.654341 124.291792 
L 232.806761 124.397921 
L 233.111601 123.867278 
L 233.41644 123.230506 
L 233.8737 122.805991 
L 234.02612 122.063091 
L 234.48338 121.638576 
L 234.6358 121.638576 
L 234.78822 122.063091 
L 235.3979 126.149043 
L 236.00758 130.28806 
L 236.46484 132.941276 
L 237.22694 140.37028 
L 238.14146 150.027986 
L 239.208399 156.501833 
L 239.818079 158.146826 
L 240.732599 163.028744 
L 241.189859 165.257445 
L 241.647119 168.069854 
L 242.714059 178.84191 
L 243.476159 186.907686 
L 244.238259 190.993639 
L 244.390679 191.046703 
L 245.000359 191.789604 
L 245.152778 191.842668 
L 245.305198 192.214118 
L 245.762458 190.250738 
L 246.219718 187.279137 
L 247.591498 175.339665 
L 247.896338 174.278379 
L 248.353598 173.535478 
L 248.658438 173.482414 
L 248.963278 173.004835 
L 249.725378 170.033233 
L 250.792318 165.151316 
L 251.249577 160.269399 
L 251.859257 151.354594 
L 252.773777 136.9211 
L 253.688297 126.945008 
L 254.450397 122.699863 
L 254.755237 122.275348 
L 254.907657 122.169219 
L 255.060077 122.275348 
L 255.364917 123.230506 
L 256.431857 129.863545 
L 256.736697 129.598224 
L 257.346376 127.847101 
L 257.498796 128.006294 
L 257.651216 128.165487 
L 258.108476 130.128867 
L 258.413316 132.62289 
L 258.718156 135.010784 
L 258.870576 135.169977 
L 260.547196 145.358326 
L 262.223816 159.155048 
L 262.681076 161.0123 
L 262.833496 161.171493 
L 262.985915 161.0123 
L 263.443175 162.073586 
L 263.900435 163.983901 
L 264.205275 165.575831 
L 264.357695 165.841152 
L 264.510115 165.788088 
L 264.814955 164.992123 
L 265.577055 161.436814 
L 265.881895 160.906171 
L 266.491575 161.436814 
L 266.796415 160.906171 
L 267.863355 157.297797 
L 268.015775 157.616183 
L 268.168195 157.350862 
L 268.625455 155.228289 
L 268.777875 154.37926 
L 269.235134 153.901681 
L 269.692394 154.113938 
L 269.844814 154.00781 
L 270.149654 153.052652 
L 270.606914 152.04443 
L 270.911754 151.726044 
L 271.826274 149.656536 
L 271.978694 149.603471 
L 272.131114 149.391214 
L 272.893214 144.827683 
L 273.655314 137.557871 
L 273.960154 136.602714 
L 274.112574 136.496585 
L 274.569834 136.868035 
L 274.722254 136.761907 
L 275.179513 135.435299 
L 276.094033 131.349346 
L 276.551293 128.271616 
L 277.160973 124.450985 
L 277.465813 123.65502 
L 277.923073 123.389699 
L 278.227913 122.54067 
L 278.837593 120.94874 
L 278.990013 120.736483 
L 279.599693 123.071313 
L 280.056953 128.006294 
L 281.123892 141.537695 
L 282.038412 152.04443 
L 282.495672 155.493611 
L 282.952932 157.350862 
L 283.105352 157.563119 
L 283.257772 157.563119 
L 283.562612 156.661026 
L 284.019872 155.228289 
L 284.781972 153.848617 
L 285.848912 150.558629 
L 286.306172 149.921857 
L 287.068271 147.533963 
L 287.982791 144.29704 
L 288.287631 142.174467 
L 288.744891 137.929322 
L 289.202151 130.28806 
L 290.573931 101.739457 
L 291.336031 88.048863 
L 292.250551 71.917311 
L 292.86023 63.904599 
L 293.31749 59.181875 
L 293.46991 57.961396 
L 293.77475 54.353022 
L 293.92717 53.3448 
L 294.38443 53.822379 
L 294.84169 57.855267 
L 295.29895 61.410576 
L 295.75621 64.700564 
L 296.36589 70.80296 
L 296.97557 76.268585 
L 297.58525 85.554841 
L 300.481229 141.007052 
L 301.548169 166.584053 
L 302.462689 186.907686 
L 303.224789 199.271672 
L 303.529629 201.871824 
L 303.682049 202.19021 
L 303.834469 202.137145 
L 304.139309 201.500374 
L 304.291729 201.075859 
L 304.596569 201.075859 
L 304.901408 200.439087 
L 305.206248 199.112479 
L 305.511088 198.475707 
L 305.663508 198.051193 
L 305.968348 198.475707 
L 306.120768 198.475707 
L 306.273188 198.157322 
L 307.187708 194.761205 
L 307.949808 193.275404 
L 308.102228 193.116211 
L 308.559488 191.152832 
L 309.169168 188.340423 
L 309.321588 187.862844 
L 309.474008 187.80978 
L 310.083688 188.871066 
L 310.236108 188.871066 
L 310.693367 187.597522 
L 311.150627 186.111722 
L 311.303047 186.005593 
L 311.607887 186.483172 
L 312.522407 189.401709 
L 312.979667 189.826224 
L 313.436927 191.418153 
L 314.199027 194.336691 
L 314.656287 195.663299 
L 314.808707 196.459263 
L 314.961127 196.618456 
L 315.113547 195.822492 
L 316.332907 179.744004 
L 317.704686 161.542943 
L 318.314366 157.191669 
L 318.924046 153.901681 
L 319.686146 151.248465 
L 320.295826 149.868793 
L 320.600666 148.807507 
L 320.905506 147.00332 
L 321.667606 141.272374 
L 321.972446 139.574315 
L 322.582125 136.655778 
L 322.886965 136.496585 
L 323.649065 136.602714 
L 323.953905 136.9211 
L 324.106325 136.761907 
L 324.258745 137.557871 
L 324.868425 146.737998 
L 326.240205 168.600497 
L 327.154725 179.850132 
L 327.764405 183.989149 
L 328.221665 184.360599 
L 328.526504 185.050435 
L 329.441024 188.605744 
L 329.898284 190.728317 
L 330.050704 190.728317 
L 330.355544 191.524282 
L 331.270064 194.336691 
L 331.574904 194.708141 
L 332.641844 189.932352 
L 332.946684 189.030259 
L 333.251524 188.871066 
L 333.403944 188.764937 
L 333.708784 188.128166 
L 334.166044 187.066879 
L 334.470883 186.483172 
L 334.775723 185.315757 
L 334.928143 184.678985 
L 335.232983 184.625921 
L 335.385403 184.413663 
L 335.842663 184.413663 
L 336.147503 185.156564 
L 336.452343 184.891242 
L 336.604763 184.891242 
L 336.909603 185.315757 
L 337.214443 186.21785 
L 338.738643 193.965241 
L 339.043483 194.495884 
L 339.348323 195.92862 
L 340.567682 199.006351 
L 340.872522 200.59828 
L 341.329782 203.516818 
L 341.787042 204.418911 
L 341.939462 204.684233 
L 342.091882 204.52504 
L 342.549142 202.826981 
L 342.853982 201.924888 
L 343.768502 198.741029 
L 344.073342 199.377801 
L 344.225762 199.271672 
L 344.378182 199.377801 
L 344.987862 200.332959 
L 345.292702 199.908444 
L 345.902382 200.863602 
L 346.359641 200.810537 
L 347.274161 197.414421 
L 348.341101 191.789604 
L 348.493521 191.524282 
L 348.950781 191.577346 
L 349.103201 191.789604 
L 349.560461 192.744761 
L 349.712881 192.744761 
L 349.865301 192.585568 
L 350.474981 190.993639 
L 350.932241 190.88751 
L 351.237081 190.728317 
L 352.45644 194.761205 
L 352.9137 195.291848 
L 353.21854 194.602012 
L 353.6758 192.638633 
L 354.28548 190.622189 
L 354.59032 190.091545 
L 355.04758 188.340423 
L 356.26694 184.678985 
L 356.7242 184.095278 
L 357.02904 183.829956 
L 357.63872 182.503348 
L 357.94356 182.238026 
L 359.010499 177.515302 
L 359.162919 177.780624 
L 359.315339 177.780624 
L 359.925019 178.682717 
L 360.229859 179.319489 
L 360.382279 179.372553 
L 360.839539 178.417396 
L 361.144379 177.780624 
L 361.296799 177.780624 
L 361.601639 178.311267 
L 361.906479 178.948039 
L 362.516159 179.637875 
L 362.820999 180.168518 
L 363.735519 181.972705 
L 364.345198 183.989149 
L 364.954878 185.47495 
L 365.259718 185.740271 
L 365.564558 185.8464 
L 365.716978 185.8464 
L 365.869398 186.005593 
L 366.174238 186.801558 
L 367.393598 192.107989 
L 368.155698 196.193942 
L 368.460538 196.565392 
L 368.917798 196.193942 
L 369.679898 194.973463 
L 370.137157 194.602012 
L 370.441997 193.699919 
L 370.899257 191.152832 
L 372.271037 182.503348 
L 372.728297 179.054167 
L 373.947657 170.351619 
L 375.471857 156.236511 
L 376.538796 146.472677 
L 378.520256 132.782083 
L 378.977516 129.439031 
L 379.434776 123.867278 
L 379.892036 118.560846 
L 380.349296 115.111665 
L 381.111396 109.433783 
L 382.025915 101.314943 
L 382.330755 99.351563 
L 382.788015 98.184148 
L 382.940435 98.290277 
L 383.092855 98.82092 
L 383.397695 98.927048 
L 383.550115 98.980113 
L 383.854955 99.510756 
L 384.007375 99.776078 
L 385.226735 91.551108 
L 385.836415 87.942735 
L 386.293675 83.962911 
L 386.598515 82.264853 
L 386.750935 82.211789 
L 387.055775 80.779052 
L 387.360615 80.51373 
L 387.817875 79.293251 
L 388.275134 80.779052 
L 388.884814 85.660969 
L 389.799334 95.371739 
L 391.628374 122.593734 
L 391.780794 124.02647 
L 392.390474 125.6184 
L 393.304994 134.639334 
L 394.219513 149.232021 
L 395.438873 163.824708 
L 396.658233 178.788846 
L 397.725173 185.581078 
L 398.182433 186.907686 
L 398.487273 187.279137 
L 398.487273 187.279137 
" style="fill:none;stroke:#1f77b4;stroke-linecap:square;stroke-width:1.5;"/>
   </g>
   <g id="patch_3">
    <path d="M 57.6 306.3024 
L 57.6 41.2992 
" style="fill:none;stroke:#000000;stroke-linecap:square;stroke-linejoin:miter;stroke-width:0.8;"/>
   </g>
   <g id="patch_4">
    <path d="M 414.72 306.3024 
L 414.72 41.2992 
" style="fill:none;stroke:#000000;stroke-linecap:square;stroke-linejoin:miter;stroke-width:0.8;"/>
   </g>
   <g id="patch_5">
    <path d="M 57.6 306.3024 
L 414.72 306.3024 
" style="fill:none;stroke:#000000;stroke-linecap:square;stroke-linejoin:miter;stroke-width:0.8;"/>
   </g>
   <g id="patch_6">
    <path d="M 57.6 41.2992 
L 414.72 41.2992 
" style="fill:none;stroke:#000000;stroke-linecap:square;stroke-linejoin:miter;stroke-width:0.8;"/>
   </g>
   <g id="text_13">
    <!-- Ritmo Cardíaco -->
    <g transform="translate(190.094063 35.2992)scale(0.12 -0.12)">
     <use xlink:href="#DejaVuSans-82"/>
     <use x="69.482422" xlink:href="#DejaVuSans-105"/>
     <use x="97.265625" xlink:href="#DejaVuSans-116"/>
     <use x="136.474609" xlink:href="#DejaVuSans-109"/>
     <use x="233.886719" xlink:href="#DejaVuSans-111"/>
     <use x="295.068359" xlink:href="#DejaVuSans-32"/>
     <use x="326.855469" xlink:href="#DejaVuSans-67"/>
     <use x="396.679688" xlink:href="#DejaVuSans-97"/>
     <use x="457.958984" xlink:href="#DejaVuSans-114"/>
     <use x="499.056641" xlink:href="#DejaVuSans-100"/>
     <use x="562.533203" xlink:href="#DejaVuSans-237"/>
     <use x="590.316406" xlink:href="#DejaVuSans-97"/>
     <use x="651.595703" xlink:href="#DejaVuSans-99"/>
     <use x="706.576172" xlink:href="#DejaVuSans-111"/>
    </g>
   </g>
  </g>
 </g>
 <defs>
  <clipPath id="p9582970b8f">
   <rect height="265.0032" width="357.12" x="57.6" y="41.2992"/>
  </clipPath>
 </defs>
</svg>
