<?xml version="1.0" encoding="utf-8" standalone="no"?>
<!DOCTYPE svg PUBLIC "-//W3C//DTD SVG 1.1//EN"
  "http://www.w3.org/Graphics/SVG/1.1/DTD/svg11.dtd">
<!-- Created with matplotlib (https://matplotlib.org/) -->
<svg height="344.16pt" version="1.1" viewBox="0 0 460.8 344.16" width="460.8pt" xmlns="http://www.w3.org/2000/svg" xmlns:xlink="http://www.w3.org/1999/xlink">
 <defs>
  <style type="text/css">
*{stroke-linecap:butt;stroke-linejoin:round;}
  </style>
 </defs>
 <g id="figure_1">
  <g id="patch_1">
   <path d="M 0 344.16 
L 460.8 344.16 
L 460.8 0 
L 0 0 
z
" style="fill:#ffffff;"/>
  </g>
  <g id="axes_1">
   <g id="patch_2">
    <path d="M 57.6 306.3024 
L 414.72 306.3024 
L 414.72 41.2992 
L 57.6 41.2992 
z
" style="fill:#ffffff;"/>
   </g>
   <g id="matplotlib.axis_1">
    <g id="xtick_1">
     <g id="line2d_1">
      <defs>
       <path d="M 0 0 
L 0 3.5 
" id="meb7145a3a4" style="stroke:#000000;stroke-width:0.8;"/>
      </defs>
      <g>
       <use style="stroke:#000000;stroke-width:0.8;" x="73.832727" xlink:href="#meb7145a3a4" y="306.3024"/>
      </g>
     </g>
     <g id="text_1">
      <!-- 0 -->
      <defs>
       <path d="M 31.78125 66.40625 
Q 24.171875 66.40625 20.328125 58.90625 
Q 16.5 51.421875 16.5 36.375 
Q 16.5 21.390625 20.328125 13.890625 
Q 24.171875 6.390625 31.78125 6.390625 
Q 39.453125 6.390625 43.28125 13.890625 
Q 47.125 21.390625 47.125 36.375 
Q 47.125 51.421875 43.28125 58.90625 
Q 39.453125 66.40625 31.78125 66.40625 
z
M 31.78125 74.21875 
Q 44.046875 74.21875 50.515625 64.515625 
Q 56.984375 54.828125 56.984375 36.375 
Q 56.984375 17.96875 50.515625 8.265625 
Q 44.046875 -1.421875 31.78125 -1.421875 
Q 19.53125 -1.421875 13.0625 8.265625 
Q 6.59375 17.96875 6.59375 36.375 
Q 6.59375 54.828125 13.0625 64.515625 
Q 19.53125 74.21875 31.78125 74.21875 
z
" id="DejaVuSans-48"/>
      </defs>
      <g transform="translate(70.651477 320.900838)scale(0.1 -0.1)">
       <use xlink:href="#DejaVuSans-48"/>
      </g>
     </g>
    </g>
    <g id="xtick_2">
     <g id="line2d_2">
      <g>
       <use style="stroke:#000000;stroke-width:0.8;" x="124.750943" xlink:href="#meb7145a3a4" y="306.3024"/>
      </g>
     </g>
     <g id="text_2">
      <!-- 1000 -->
      <defs>
       <path d="M 12.40625 8.296875 
L 28.515625 8.296875 
L 28.515625 63.921875 
L 10.984375 60.40625 
L 10.984375 69.390625 
L 28.421875 72.90625 
L 38.28125 72.90625 
L 38.28125 8.296875 
L 54.390625 8.296875 
L 54.390625 0 
L 12.40625 0 
z
" id="DejaVuSans-49"/>
      </defs>
      <g transform="translate(112.025943 320.900838)scale(0.1 -0.1)">
       <use xlink:href="#DejaVuSans-49"/>
       <use x="63.623047" xlink:href="#DejaVuSans-48"/>
       <use x="127.246094" xlink:href="#DejaVuSans-48"/>
       <use x="190.869141" xlink:href="#DejaVuSans-48"/>
      </g>
     </g>
    </g>
    <g id="xtick_3">
     <g id="line2d_3">
      <g>
       <use style="stroke:#000000;stroke-width:0.8;" x="175.669159" xlink:href="#meb7145a3a4" y="306.3024"/>
      </g>
     </g>
     <g id="text_3">
      <!-- 2000 -->
      <defs>
       <path d="M 19.1875 8.296875 
L 53.609375 8.296875 
L 53.609375 0 
L 7.328125 0 
L 7.328125 8.296875 
Q 12.9375 14.109375 22.625 23.890625 
Q 32.328125 33.6875 34.8125 36.53125 
Q 39.546875 41.84375 41.421875 45.53125 
Q 43.3125 49.21875 43.3125 52.78125 
Q 43.3125 58.59375 39.234375 62.25 
Q 35.15625 65.921875 28.609375 65.921875 
Q 23.96875 65.921875 18.8125 64.3125 
Q 13.671875 62.703125 7.8125 59.421875 
L 7.8125 69.390625 
Q 13.765625 71.78125 18.9375 73 
Q 24.125 74.21875 28.421875 74.21875 
Q 39.75 74.21875 46.484375 68.546875 
Q 53.21875 62.890625 53.21875 53.421875 
Q 53.21875 48.921875 51.53125 44.890625 
Q 49.859375 40.875 45.40625 35.40625 
Q 44.1875 33.984375 37.640625 27.21875 
Q 31.109375 20.453125 19.1875 8.296875 
z
" id="DejaVuSans-50"/>
      </defs>
      <g transform="translate(162.944159 320.900838)scale(0.1 -0.1)">
       <use xlink:href="#DejaVuSans-50"/>
       <use x="63.623047" xlink:href="#DejaVuSans-48"/>
       <use x="127.246094" xlink:href="#DejaVuSans-48"/>
       <use x="190.869141" xlink:href="#DejaVuSans-48"/>
      </g>
     </g>
    </g>
    <g id="xtick_4">
     <g id="line2d_4">
      <g>
       <use style="stroke:#000000;stroke-width:0.8;" x="226.587375" xlink:href="#meb7145a3a4" y="306.3024"/>
      </g>
     </g>
     <g id="text_4">
      <!-- 3000 -->
      <defs>
       <path d="M 40.578125 39.3125 
Q 47.65625 37.796875 51.625 33 
Q 55.609375 28.21875 55.609375 21.1875 
Q 55.609375 10.40625 48.1875 4.484375 
Q 40.765625 -1.421875 27.09375 -1.421875 
Q 22.515625 -1.421875 17.65625 -0.515625 
Q 12.796875 0.390625 7.625 2.203125 
L 7.625 11.71875 
Q 11.71875 9.328125 16.59375 8.109375 
Q 21.484375 6.890625 26.8125 6.890625 
Q 36.078125 6.890625 40.9375 10.546875 
Q 45.796875 14.203125 45.796875 21.1875 
Q 45.796875 27.640625 41.28125 31.265625 
Q 36.765625 34.90625 28.71875 34.90625 
L 20.21875 34.90625 
L 20.21875 43.015625 
L 29.109375 43.015625 
Q 36.375 43.015625 40.234375 45.921875 
Q 44.09375 48.828125 44.09375 54.296875 
Q 44.09375 59.90625 40.109375 62.90625 
Q 36.140625 65.921875 28.71875 65.921875 
Q 24.65625 65.921875 20.015625 65.03125 
Q 15.375 64.15625 9.8125 62.3125 
L 9.8125 71.09375 
Q 15.4375 72.65625 20.34375 73.4375 
Q 25.25 74.21875 29.59375 74.21875 
Q 40.828125 74.21875 47.359375 69.109375 
Q 53.90625 64.015625 53.90625 55.328125 
Q 53.90625 49.265625 50.4375 45.09375 
Q 46.96875 40.921875 40.578125 39.3125 
z
" id="DejaVuSans-51"/>
      </defs>
      <g transform="translate(213.862375 320.900838)scale(0.1 -0.1)">
       <use xlink:href="#DejaVuSans-51"/>
       <use x="63.623047" xlink:href="#DejaVuSans-48"/>
       <use x="127.246094" xlink:href="#DejaVuSans-48"/>
       <use x="190.869141" xlink:href="#DejaVuSans-48"/>
      </g>
     </g>
    </g>
    <g id="xtick_5">
     <g id="line2d_5">
      <g>
       <use style="stroke:#000000;stroke-width:0.8;" x="277.505591" xlink:href="#meb7145a3a4" y="306.3024"/>
      </g>
     </g>
     <g id="text_5">
      <!-- 4000 -->
      <defs>
       <path d="M 37.796875 64.3125 
L 12.890625 25.390625 
L 37.796875 25.390625 
z
M 35.203125 72.90625 
L 47.609375 72.90625 
L 47.609375 25.390625 
L 58.015625 25.390625 
L 58.015625 17.1875 
L 47.609375 17.1875 
L 47.609375 0 
L 37.796875 0 
L 37.796875 17.1875 
L 4.890625 17.1875 
L 4.890625 26.703125 
z
" id="DejaVuSans-52"/>
      </defs>
      <g transform="translate(264.780591 320.900838)scale(0.1 -0.1)">
       <use xlink:href="#DejaVuSans-52"/>
       <use x="63.623047" xlink:href="#DejaVuSans-48"/>
       <use x="127.246094" xlink:href="#DejaVuSans-48"/>
       <use x="190.869141" xlink:href="#DejaVuSans-48"/>
      </g>
     </g>
    </g>
    <g id="xtick_6">
     <g id="line2d_6">
      <g>
       <use style="stroke:#000000;stroke-width:0.8;" x="328.423807" xlink:href="#meb7145a3a4" y="306.3024"/>
      </g>
     </g>
     <g id="text_6">
      <!-- 5000 -->
      <defs>
       <path d="M 10.796875 72.90625 
L 49.515625 72.90625 
L 49.515625 64.59375 
L 19.828125 64.59375 
L 19.828125 46.734375 
Q 21.96875 47.46875 24.109375 47.828125 
Q 26.265625 48.1875 28.421875 48.1875 
Q 40.625 48.1875 47.75 41.5 
Q 54.890625 34.8125 54.890625 23.390625 
Q 54.890625 11.625 47.5625 5.09375 
Q 40.234375 -1.421875 26.90625 -1.421875 
Q 22.3125 -1.421875 17.546875 -0.640625 
Q 12.796875 0.140625 7.71875 1.703125 
L 7.71875 11.625 
Q 12.109375 9.234375 16.796875 8.0625 
Q 21.484375 6.890625 26.703125 6.890625 
Q 35.15625 6.890625 40.078125 11.328125 
Q 45.015625 15.765625 45.015625 23.390625 
Q 45.015625 31 40.078125 35.4375 
Q 35.15625 39.890625 26.703125 39.890625 
Q 22.75 39.890625 18.8125 39.015625 
Q 14.890625 38.140625 10.796875 36.28125 
z
" id="DejaVuSans-53"/>
      </defs>
      <g transform="translate(315.698807 320.900838)scale(0.1 -0.1)">
       <use xlink:href="#DejaVuSans-53"/>
       <use x="63.623047" xlink:href="#DejaVuSans-48"/>
       <use x="127.246094" xlink:href="#DejaVuSans-48"/>
       <use x="190.869141" xlink:href="#DejaVuSans-48"/>
      </g>
     </g>
    </g>
    <g id="xtick_7">
     <g id="line2d_7">
      <g>
       <use style="stroke:#000000;stroke-width:0.8;" x="379.342023" xlink:href="#meb7145a3a4" y="306.3024"/>
      </g>
     </g>
     <g id="text_7">
      <!-- 6000 -->
      <defs>
       <path d="M 33.015625 40.375 
Q 26.375 40.375 22.484375 35.828125 
Q 18.609375 31.296875 18.609375 23.390625 
Q 18.609375 15.53125 22.484375 10.953125 
Q 26.375 6.390625 33.015625 6.390625 
Q 39.65625 6.390625 43.53125 10.953125 
Q 47.40625 15.53125 47.40625 23.390625 
Q 47.40625 31.296875 43.53125 35.828125 
Q 39.65625 40.375 33.015625 40.375 
z
M 52.59375 71.296875 
L 52.59375 62.3125 
Q 48.875 64.0625 45.09375 64.984375 
Q 41.3125 65.921875 37.59375 65.921875 
Q 27.828125 65.921875 22.671875 59.328125 
Q 17.53125 52.734375 16.796875 39.40625 
Q 19.671875 43.65625 24.015625 45.921875 
Q 28.375 48.1875 33.59375 48.1875 
Q 44.578125 48.1875 50.953125 41.515625 
Q 57.328125 34.859375 57.328125 23.390625 
Q 57.328125 12.15625 50.6875 5.359375 
Q 44.046875 -1.421875 33.015625 -1.421875 
Q 20.359375 -1.421875 13.671875 8.265625 
Q 6.984375 17.96875 6.984375 36.375 
Q 6.984375 53.65625 15.1875 63.9375 
Q 23.390625 74.21875 37.203125 74.21875 
Q 40.921875 74.21875 44.703125 73.484375 
Q 48.484375 72.75 52.59375 71.296875 
z
" id="DejaVuSans-54"/>
      </defs>
      <g transform="translate(366.617023 320.900838)scale(0.1 -0.1)">
       <use xlink:href="#DejaVuSans-54"/>
       <use x="63.623047" xlink:href="#DejaVuSans-48"/>
       <use x="127.246094" xlink:href="#DejaVuSans-48"/>
       <use x="190.869141" xlink:href="#DejaVuSans-48"/>
      </g>
     </g>
    </g>
    <g id="text_8">
     <!-- Muestras -->
     <defs>
      <path d="M 9.8125 72.90625 
L 24.515625 72.90625 
L 43.109375 23.296875 
L 61.8125 72.90625 
L 76.515625 72.90625 
L 76.515625 0 
L 66.890625 0 
L 66.890625 64.015625 
L 48.09375 14.015625 
L 38.1875 14.015625 
L 19.390625 64.015625 
L 19.390625 0 
L 9.8125 0 
z
" id="DejaVuSans-77"/>
      <path d="M 8.5 21.578125 
L 8.5 54.6875 
L 17.484375 54.6875 
L 17.484375 21.921875 
Q 17.484375 14.15625 20.5 10.265625 
Q 23.53125 6.390625 29.59375 6.390625 
Q 36.859375 6.390625 41.078125 11.03125 
Q 45.3125 15.671875 45.3125 23.6875 
L 45.3125 54.6875 
L 54.296875 54.6875 
L 54.296875 0 
L 45.3125 0 
L 45.3125 8.40625 
Q 42.046875 3.421875 37.71875 1 
Q 33.40625 -1.421875 27.6875 -1.421875 
Q 18.265625 -1.421875 13.375 4.4375 
Q 8.5 10.296875 8.5 21.578125 
z
M 31.109375 56 
z
" id="DejaVuSans-117"/>
      <path d="M 56.203125 29.59375 
L 56.203125 25.203125 
L 14.890625 25.203125 
Q 15.484375 15.921875 20.484375 11.0625 
Q 25.484375 6.203125 34.421875 6.203125 
Q 39.59375 6.203125 44.453125 7.46875 
Q 49.3125 8.734375 54.109375 11.28125 
L 54.109375 2.78125 
Q 49.265625 0.734375 44.1875 -0.34375 
Q 39.109375 -1.421875 33.890625 -1.421875 
Q 20.796875 -1.421875 13.15625 6.1875 
Q 5.515625 13.8125 5.515625 26.8125 
Q 5.515625 40.234375 12.765625 48.109375 
Q 20.015625 56 32.328125 56 
Q 43.359375 56 49.78125 48.890625 
Q 56.203125 41.796875 56.203125 29.59375 
z
M 47.21875 32.234375 
Q 47.125 39.59375 43.09375 43.984375 
Q 39.0625 48.390625 32.421875 48.390625 
Q 24.90625 48.390625 20.390625 44.140625 
Q 15.875 39.890625 15.1875 32.171875 
z
" id="DejaVuSans-101"/>
      <path d="M 44.28125 53.078125 
L 44.28125 44.578125 
Q 40.484375 46.53125 36.375 47.5 
Q 32.28125 48.484375 27.875 48.484375 
Q 21.1875 48.484375 17.84375 46.4375 
Q 14.5 44.390625 14.5 40.28125 
Q 14.5 37.15625 16.890625 35.375 
Q 19.28125 33.59375 26.515625 31.984375 
L 29.59375 31.296875 
Q 39.15625 29.25 43.1875 25.515625 
Q 47.21875 21.78125 47.21875 15.09375 
Q 47.21875 7.46875 41.1875 3.015625 
Q 35.15625 -1.421875 24.609375 -1.421875 
Q 20.21875 -1.421875 15.453125 -0.5625 
Q 10.6875 0.296875 5.421875 2 
L 5.421875 11.28125 
Q 10.40625 8.6875 15.234375 7.390625 
Q 20.0625 6.109375 24.8125 6.109375 
Q 31.15625 6.109375 34.5625 8.28125 
Q 37.984375 10.453125 37.984375 14.40625 
Q 37.984375 18.0625 35.515625 20.015625 
Q 33.0625 21.96875 24.703125 23.78125 
L 21.578125 24.515625 
Q 13.234375 26.265625 9.515625 29.90625 
Q 5.8125 33.546875 5.8125 39.890625 
Q 5.8125 47.609375 11.28125 51.796875 
Q 16.75 56 26.8125 56 
Q 31.78125 56 36.171875 55.265625 
Q 40.578125 54.546875 44.28125 53.078125 
z
" id="DejaVuSans-115"/>
      <path d="M 18.3125 70.21875 
L 18.3125 54.6875 
L 36.8125 54.6875 
L 36.8125 47.703125 
L 18.3125 47.703125 
L 18.3125 18.015625 
Q 18.3125 11.328125 20.140625 9.421875 
Q 21.96875 7.515625 27.59375 7.515625 
L 36.8125 7.515625 
L 36.8125 0 
L 27.59375 0 
Q 17.1875 0 13.234375 3.875 
Q 9.28125 7.765625 9.28125 18.015625 
L 9.28125 47.703125 
L 2.6875 47.703125 
L 2.6875 54.6875 
L 9.28125 54.6875 
L 9.28125 70.21875 
z
" id="DejaVuSans-116"/>
      <path d="M 41.109375 46.296875 
Q 39.59375 47.171875 37.8125 47.578125 
Q 36.03125 48 33.890625 48 
Q 26.265625 48 22.1875 43.046875 
Q 18.109375 38.09375 18.109375 28.8125 
L 18.109375 0 
L 9.078125 0 
L 9.078125 54.6875 
L 18.109375 54.6875 
L 18.109375 46.1875 
Q 20.953125 51.171875 25.484375 53.578125 
Q 30.03125 56 36.53125 56 
Q 37.453125 56 38.578125 55.875 
Q 39.703125 55.765625 41.0625 55.515625 
z
" id="DejaVuSans-114"/>
      <path d="M 34.28125 27.484375 
Q 23.390625 27.484375 19.1875 25 
Q 14.984375 22.515625 14.984375 16.5 
Q 14.984375 11.71875 18.140625 8.90625 
Q 21.296875 6.109375 26.703125 6.109375 
Q 34.1875 6.109375 38.703125 11.40625 
Q 43.21875 16.703125 43.21875 25.484375 
L 43.21875 27.484375 
z
M 52.203125 31.203125 
L 52.203125 0 
L 43.21875 0 
L 43.21875 8.296875 
Q 40.140625 3.328125 35.546875 0.953125 
Q 30.953125 -1.421875 24.3125 -1.421875 
Q 15.921875 -1.421875 10.953125 3.296875 
Q 6 8.015625 6 15.921875 
Q 6 25.140625 12.171875 29.828125 
Q 18.359375 34.515625 30.609375 34.515625 
L 43.21875 34.515625 
L 43.21875 35.40625 
Q 43.21875 41.609375 39.140625 45 
Q 35.0625 48.390625 27.6875 48.390625 
Q 23 48.390625 18.546875 47.265625 
Q 14.109375 46.140625 10.015625 43.890625 
L 10.015625 52.203125 
Q 14.9375 54.109375 19.578125 55.046875 
Q 24.21875 56 28.609375 56 
Q 40.484375 56 46.34375 49.84375 
Q 52.203125 43.703125 52.203125 31.203125 
z
" id="DejaVuSans-97"/>
     </defs>
     <g transform="translate(213.311562 334.578963)scale(0.1 -0.1)">
      <use xlink:href="#DejaVuSans-77"/>
      <use x="86.279297" xlink:href="#DejaVuSans-117"/>
      <use x="149.658203" xlink:href="#DejaVuSans-101"/>
      <use x="211.181641" xlink:href="#DejaVuSans-115"/>
      <use x="263.28125" xlink:href="#DejaVuSans-116"/>
      <use x="302.490234" xlink:href="#DejaVuSans-114"/>
      <use x="343.603516" xlink:href="#DejaVuSans-97"/>
      <use x="404.882812" xlink:href="#DejaVuSans-115"/>
     </g>
    </g>
   </g>
   <g id="matplotlib.axis_2">
    <g id="ytick_1">
     <g id="line2d_8">
      <defs>
       <path d="M 0 0 
L -3.5 0 
" id="m1deea663a5" style="stroke:#000000;stroke-width:0.8;"/>
      </defs>
      <g>
       <use style="stroke:#000000;stroke-width:0.8;" x="57.6" xlink:href="#m1deea663a5" y="282.382464"/>
      </g>
     </g>
     <g id="text_9">
      <!-- 60 -->
      <g transform="translate(37.875 286.181683)scale(0.1 -0.1)">
       <use xlink:href="#DejaVuSans-54"/>
       <use x="63.623047" xlink:href="#DejaVuSans-48"/>
      </g>
     </g>
    </g>
    <g id="ytick_2">
     <g id="line2d_9">
      <g>
       <use style="stroke:#000000;stroke-width:0.8;" x="57.6" xlink:href="#m1deea663a5" y="236.711943"/>
      </g>
     </g>
     <g id="text_10">
      <!-- 80 -->
      <defs>
       <path d="M 31.78125 34.625 
Q 24.75 34.625 20.71875 30.859375 
Q 16.703125 27.09375 16.703125 20.515625 
Q 16.703125 13.921875 20.71875 10.15625 
Q 24.75 6.390625 31.78125 6.390625 
Q 38.8125 6.390625 42.859375 10.171875 
Q 46.921875 13.96875 46.921875 20.515625 
Q 46.921875 27.09375 42.890625 30.859375 
Q 38.875 34.625 31.78125 34.625 
z
M 21.921875 38.8125 
Q 15.578125 40.375 12.03125 44.71875 
Q 8.5 49.078125 8.5 55.328125 
Q 8.5 64.0625 14.71875 69.140625 
Q 20.953125 74.21875 31.78125 74.21875 
Q 42.671875 74.21875 48.875 69.140625 
Q 55.078125 64.0625 55.078125 55.328125 
Q 55.078125 49.078125 51.53125 44.71875 
Q 48 40.375 41.703125 38.8125 
Q 48.828125 37.15625 52.796875 32.3125 
Q 56.78125 27.484375 56.78125 20.515625 
Q 56.78125 9.90625 50.3125 4.234375 
Q 43.84375 -1.421875 31.78125 -1.421875 
Q 19.734375 -1.421875 13.25 4.234375 
Q 6.78125 9.90625 6.78125 20.515625 
Q 6.78125 27.484375 10.78125 32.3125 
Q 14.796875 37.15625 21.921875 38.8125 
z
M 18.3125 54.390625 
Q 18.3125 48.734375 21.84375 45.5625 
Q 25.390625 42.390625 31.78125 42.390625 
Q 38.140625 42.390625 41.71875 45.5625 
Q 45.3125 48.734375 45.3125 54.390625 
Q 45.3125 60.0625 41.71875 63.234375 
Q 38.140625 66.40625 31.78125 66.40625 
Q 25.390625 66.40625 21.84375 63.234375 
Q 18.3125 60.0625 18.3125 54.390625 
z
" id="DejaVuSans-56"/>
      </defs>
      <g transform="translate(37.875 240.511162)scale(0.1 -0.1)">
       <use xlink:href="#DejaVuSans-56"/>
       <use x="63.623047" xlink:href="#DejaVuSans-48"/>
      </g>
     </g>
    </g>
    <g id="ytick_3">
     <g id="line2d_10">
      <g>
       <use style="stroke:#000000;stroke-width:0.8;" x="57.6" xlink:href="#m1deea663a5" y="191.041422"/>
      </g>
     </g>
     <g id="text_11">
      <!-- 100 -->
      <g transform="translate(31.5125 194.840641)scale(0.1 -0.1)">
       <use xlink:href="#DejaVuSans-49"/>
       <use x="63.623047" xlink:href="#DejaVuSans-48"/>
       <use x="127.246094" xlink:href="#DejaVuSans-48"/>
      </g>
     </g>
    </g>
    <g id="ytick_4">
     <g id="line2d_11">
      <g>
       <use style="stroke:#000000;stroke-width:0.8;" x="57.6" xlink:href="#m1deea663a5" y="145.3709"/>
      </g>
     </g>
     <g id="text_12">
      <!-- 120 -->
      <g transform="translate(31.5125 149.170119)scale(0.1 -0.1)">
       <use xlink:href="#DejaVuSans-49"/>
       <use x="63.623047" xlink:href="#DejaVuSans-50"/>
       <use x="127.246094" xlink:href="#DejaVuSans-48"/>
      </g>
     </g>
    </g>
    <g id="ytick_5">
     <g id="line2d_12">
      <g>
       <use style="stroke:#000000;stroke-width:0.8;" x="57.6" xlink:href="#m1deea663a5" y="99.700379"/>
      </g>
     </g>
     <g id="text_13">
      <!-- 140 -->
      <g transform="translate(31.5125 103.499598)scale(0.1 -0.1)">
       <use xlink:href="#DejaVuSans-49"/>
       <use x="63.623047" xlink:href="#DejaVuSans-52"/>
       <use x="127.246094" xlink:href="#DejaVuSans-48"/>
      </g>
     </g>
    </g>
    <g id="ytick_6">
     <g id="line2d_13">
      <g>
       <use style="stroke:#000000;stroke-width:0.8;" x="57.6" xlink:href="#m1deea663a5" y="54.029858"/>
      </g>
     </g>
     <g id="text_14">
      <!-- 160 -->
      <g transform="translate(31.5125 57.829077)scale(0.1 -0.1)">
       <use xlink:href="#DejaVuSans-49"/>
       <use x="63.623047" xlink:href="#DejaVuSans-54"/>
       <use x="127.246094" xlink:href="#DejaVuSans-48"/>
      </g>
     </g>
    </g>
    <g id="text_15">
     <!-- Valor de Ritmo Cardíaco -->
     <defs>
      <path d="M 28.609375 0 
L 0.78125 72.90625 
L 11.078125 72.90625 
L 34.1875 11.53125 
L 57.328125 72.90625 
L 67.578125 72.90625 
L 39.796875 0 
z
" id="DejaVuSans-86"/>
      <path d="M 9.421875 75.984375 
L 18.40625 75.984375 
L 18.40625 0 
L 9.421875 0 
z
" id="DejaVuSans-108"/>
      <path d="M 30.609375 48.390625 
Q 23.390625 48.390625 19.1875 42.75 
Q 14.984375 37.109375 14.984375 27.296875 
Q 14.984375 17.484375 19.15625 11.84375 
Q 23.34375 6.203125 30.609375 6.203125 
Q 37.796875 6.203125 41.984375 11.859375 
Q 46.1875 17.53125 46.1875 27.296875 
Q 46.1875 37.015625 41.984375 42.703125 
Q 37.796875 48.390625 30.609375 48.390625 
z
M 30.609375 56 
Q 42.328125 56 49.015625 48.375 
Q 55.71875 40.765625 55.71875 27.296875 
Q 55.71875 13.875 49.015625 6.21875 
Q 42.328125 -1.421875 30.609375 -1.421875 
Q 18.84375 -1.421875 12.171875 6.21875 
Q 5.515625 13.875 5.515625 27.296875 
Q 5.515625 40.765625 12.171875 48.375 
Q 18.84375 56 30.609375 56 
z
" id="DejaVuSans-111"/>
      <path id="DejaVuSans-32"/>
      <path d="M 45.40625 46.390625 
L 45.40625 75.984375 
L 54.390625 75.984375 
L 54.390625 0 
L 45.40625 0 
L 45.40625 8.203125 
Q 42.578125 3.328125 38.25 0.953125 
Q 33.9375 -1.421875 27.875 -1.421875 
Q 17.96875 -1.421875 11.734375 6.484375 
Q 5.515625 14.40625 5.515625 27.296875 
Q 5.515625 40.1875 11.734375 48.09375 
Q 17.96875 56 27.875 56 
Q 33.9375 56 38.25 53.625 
Q 42.578125 51.265625 45.40625 46.390625 
z
M 14.796875 27.296875 
Q 14.796875 17.390625 18.875 11.75 
Q 22.953125 6.109375 30.078125 6.109375 
Q 37.203125 6.109375 41.296875 11.75 
Q 45.40625 17.390625 45.40625 27.296875 
Q 45.40625 37.203125 41.296875 42.84375 
Q 37.203125 48.484375 30.078125 48.484375 
Q 22.953125 48.484375 18.875 42.84375 
Q 14.796875 37.203125 14.796875 27.296875 
z
" id="DejaVuSans-100"/>
      <path d="M 44.390625 34.1875 
Q 47.5625 33.109375 50.5625 29.59375 
Q 53.5625 26.078125 56.59375 19.921875 
L 66.609375 0 
L 56 0 
L 46.6875 18.703125 
Q 43.0625 26.03125 39.671875 28.421875 
Q 36.28125 30.8125 30.421875 30.8125 
L 19.671875 30.8125 
L 19.671875 0 
L 9.8125 0 
L 9.8125 72.90625 
L 32.078125 72.90625 
Q 44.578125 72.90625 50.734375 67.671875 
Q 56.890625 62.453125 56.890625 51.90625 
Q 56.890625 45.015625 53.6875 40.46875 
Q 50.484375 35.9375 44.390625 34.1875 
z
M 19.671875 64.796875 
L 19.671875 38.921875 
L 32.078125 38.921875 
Q 39.203125 38.921875 42.84375 42.21875 
Q 46.484375 45.515625 46.484375 51.90625 
Q 46.484375 58.296875 42.84375 61.546875 
Q 39.203125 64.796875 32.078125 64.796875 
z
" id="DejaVuSans-82"/>
      <path d="M 9.421875 54.6875 
L 18.40625 54.6875 
L 18.40625 0 
L 9.421875 0 
z
M 9.421875 75.984375 
L 18.40625 75.984375 
L 18.40625 64.59375 
L 9.421875 64.59375 
z
" id="DejaVuSans-105"/>
      <path d="M 52 44.1875 
Q 55.375 50.25 60.0625 53.125 
Q 64.75 56 71.09375 56 
Q 79.640625 56 84.28125 50.015625 
Q 88.921875 44.046875 88.921875 33.015625 
L 88.921875 0 
L 79.890625 0 
L 79.890625 32.71875 
Q 79.890625 40.578125 77.09375 44.375 
Q 74.3125 48.1875 68.609375 48.1875 
Q 61.625 48.1875 57.5625 43.546875 
Q 53.515625 38.921875 53.515625 30.90625 
L 53.515625 0 
L 44.484375 0 
L 44.484375 32.71875 
Q 44.484375 40.625 41.703125 44.40625 
Q 38.921875 48.1875 33.109375 48.1875 
Q 26.21875 48.1875 22.15625 43.53125 
Q 18.109375 38.875 18.109375 30.90625 
L 18.109375 0 
L 9.078125 0 
L 9.078125 54.6875 
L 18.109375 54.6875 
L 18.109375 46.1875 
Q 21.1875 51.21875 25.484375 53.609375 
Q 29.78125 56 35.6875 56 
Q 41.65625 56 45.828125 52.96875 
Q 50 49.953125 52 44.1875 
z
" id="DejaVuSans-109"/>
      <path d="M 64.40625 67.28125 
L 64.40625 56.890625 
Q 59.421875 61.53125 53.78125 63.8125 
Q 48.140625 66.109375 41.796875 66.109375 
Q 29.296875 66.109375 22.65625 58.46875 
Q 16.015625 50.828125 16.015625 36.375 
Q 16.015625 21.96875 22.65625 14.328125 
Q 29.296875 6.6875 41.796875 6.6875 
Q 48.140625 6.6875 53.78125 8.984375 
Q 59.421875 11.28125 64.40625 15.921875 
L 64.40625 5.609375 
Q 59.234375 2.09375 53.4375 0.328125 
Q 47.65625 -1.421875 41.21875 -1.421875 
Q 24.65625 -1.421875 15.125 8.703125 
Q 5.609375 18.84375 5.609375 36.375 
Q 5.609375 53.953125 15.125 64.078125 
Q 24.65625 74.21875 41.21875 74.21875 
Q 47.75 74.21875 53.53125 72.484375 
Q 59.328125 70.75 64.40625 67.28125 
z
" id="DejaVuSans-67"/>
      <path d="M 20.703125 79.984375 
L 30.421875 79.984375 
L 14.5 61.625 
L 7.03125 61.625 
z
M 9.421875 54.6875 
L 18.40625 54.6875 
L 18.40625 0 
L 9.421875 0 
z
M 13.921875 56 
z
" id="DejaVuSans-237"/>
      <path d="M 48.78125 52.59375 
L 48.78125 44.1875 
Q 44.96875 46.296875 41.140625 47.34375 
Q 37.3125 48.390625 33.40625 48.390625 
Q 24.65625 48.390625 19.8125 42.84375 
Q 14.984375 37.3125 14.984375 27.296875 
Q 14.984375 17.28125 19.8125 11.734375 
Q 24.65625 6.203125 33.40625 6.203125 
Q 37.3125 6.203125 41.140625 7.25 
Q 44.96875 8.296875 48.78125 10.40625 
L 48.78125 2.09375 
Q 45.015625 0.34375 40.984375 -0.53125 
Q 36.96875 -1.421875 32.421875 -1.421875 
Q 20.0625 -1.421875 12.78125 6.34375 
Q 5.515625 14.109375 5.515625 27.296875 
Q 5.515625 40.671875 12.859375 48.328125 
Q 20.21875 56 33.015625 56 
Q 37.15625 56 41.109375 55.140625 
Q 45.0625 54.296875 48.78125 52.59375 
z
" id="DejaVuSans-99"/>
     </defs>
     <g transform="translate(25.432812 234.6008)rotate(-90)scale(0.1 -0.1)">
      <use xlink:href="#DejaVuSans-86"/>
      <use x="68.298828" xlink:href="#DejaVuSans-97"/>
      <use x="129.578125" xlink:href="#DejaVuSans-108"/>
      <use x="157.361328" xlink:href="#DejaVuSans-111"/>
      <use x="218.542969" xlink:href="#DejaVuSans-114"/>
      <use x="259.65625" xlink:href="#DejaVuSans-32"/>
      <use x="291.443359" xlink:href="#DejaVuSans-100"/>
      <use x="354.919922" xlink:href="#DejaVuSans-101"/>
      <use x="416.443359" xlink:href="#DejaVuSans-32"/>
      <use x="448.230469" xlink:href="#DejaVuSans-82"/>
      <use x="517.712891" xlink:href="#DejaVuSans-105"/>
      <use x="545.496094" xlink:href="#DejaVuSans-116"/>
      <use x="584.705078" xlink:href="#DejaVuSans-109"/>
      <use x="682.117188" xlink:href="#DejaVuSans-111"/>
      <use x="743.298828" xlink:href="#DejaVuSans-32"/>
      <use x="775.085938" xlink:href="#DejaVuSans-67"/>
      <use x="844.910156" xlink:href="#DejaVuSans-97"/>
      <use x="906.189453" xlink:href="#DejaVuSans-114"/>
      <use x="947.287109" xlink:href="#DejaVuSans-100"/>
      <use x="1010.763672" xlink:href="#DejaVuSans-237"/>
      <use x="1038.546875" xlink:href="#DejaVuSans-97"/>
      <use x="1099.826172" xlink:href="#DejaVuSans-99"/>
      <use x="1154.806641" xlink:href="#DejaVuSans-111"/>
     </g>
    </g>
   </g>
   <g id="line2d_14">
    <path clip-path="url(#pd03a613a65)" d="M 73.832727 293.800095 
L 73.883645 293.229213 
L 73.934564 294.2568 
L 74.189155 157.245236 
L 74.545582 96.069573 
L 75.054764 59.693002 
L 75.207519 53.3448 
L 75.716701 74.855616 
L 76.174965 84.651942 
L 76.582311 90.840298 
L 76.735066 92.393096 
L 76.989657 77.847035 
L 77.040575 79.445503 
L 77.498839 95.635703 
L 78.211694 129.112195 
L 78.364449 133.450894 
L 78.975467 143.54408 
L 79.484649 156.286155 
L 80.146586 177.454442 
L 80.706686 193.256442 
L 81.266787 205.838671 
L 81.521378 208.282044 
L 81.928724 212.164038 
L 83.048924 235.044969 
L 83.201679 236.711943 
L 83.558107 237.899377 
L 83.659943 237.808036 
L 83.914534 237.168648 
L 84.372798 236.095391 
L 84.627389 235.684356 
L 84.88198 235.867038 
L 85.034735 234.611099 
L 85.442081 227.509333 
L 85.798508 219.311475 
L 86.256772 208.282044 
L 86.613199 207.185951 
L 86.816872 206.295376 
L 87.784318 199.262116 
L 88.089828 198.120353 
L 88.293501 197.846329 
L 88.395337 197.663647 
L 88.446255 197.732153 
L 88.751765 198.348705 
L 89.006356 198.80541 
L 89.668292 203.303957 
L 90.686657 214.036529 
L 90.788493 214.036529 
L 90.941248 214.173541 
L 91.144921 214.493235 
L 91.195839 214.56174 
L 91.246757 214.401893 
L 91.297675 214.493235 
L 91.501348 214.744422 
L 91.654103 214.972775 
L 91.959612 216.776761 
L 92.061449 216.913772 
L 92.214203 216.548408 
L 92.621549 215.772009 
L 92.87614 212.095532 
L 93.181649 208.670243 
L 93.283486 208.738749 
L 93.538077 209.081278 
L 93.588995 209.035607 
L 93.690832 209.081278 
L 93.894504 209.720665 
L 94.098177 210.497064 
L 94.200014 210.451393 
L 94.30185 210.291547 
L 95.320214 203.874838 
L 95.72756 200.175526 
L 96.033069 202.504723 
L 96.287661 203.874838 
L 96.440415 203.829168 
L 96.644088 203.646486 
L 97.255107 204.628402 
L 97.45878 205.496142 
L 97.713371 206.523729 
L 97.917043 206.61507 
L 98.273471 206.067023 
L 98.528062 205.884341 
L 98.731735 206.683575 
L 98.782653 207.09461 
L 98.833571 207.071775 
L 99.088162 206.797752 
L 99.240917 206.752081 
L 99.393672 207.026104 
L 99.750099 208.350549 
L 99.851936 208.236373 
L 100.055609 207.825338 
L 100.157445 208.00802 
L 100.666627 210.725416 
L 101.175809 214.447564 
L 101.634073 217.301972 
L 101.73591 217.187795 
L 101.786828 217.142125 
L 101.837746 217.233466 
L 101.990501 217.301972 
L 102.194174 217.59883 
L 102.448765 218.146876 
L 102.499683 218.055535 
L 102.652438 217.827183 
L 102.805192 218.215382 
L 103.314374 220.430402 
L 103.416211 220.544579 
L 103.772638 221.457989 
L 103.823557 221.366648 
L 104.28182 220.567414 
L 104.689166 220.658755 
L 104.791003 220.772931 
L 104.841921 220.727261 
L 105.809367 214.972775 
L 106.318549 210.839593 
L 107.184159 203.18978 
L 107.235077 203.303957 
L 107.43875 202.733075 
L 107.795177 200.860584 
L 107.947932 201.134607 
L 107.99885 201.248783 
L 108.253441 199.079434 
L 108.609869 197.275448 
L 108.660787 197.389624 
L 108.813542 197.823494 
L 109.526397 201.248783 
L 110.239252 208.327714 
L 110.392006 208.00802 
L 110.493843 208.00802 
L 110.748434 208.784419 
L 110.85027 208.670243 
L 111.053943 208.122197 
L 111.461289 211.47898 
L 111.766798 213.534154 
L 112.27598 210.748252 
L 112.326899 210.679746 
L 112.530571 211.182122 
L 112.632408 211.090781 
L 112.785163 210.953769 
L 113.039754 209.766336 
L 113.090672 209.926182 
L 113.192508 210.634075 
L 113.752609 216.913772 
L 113.905363 217.484654 
L 114.109036 218.626417 
L 114.159954 218.489405 
L 114.516382 216.160209 
L 114.872809 212.689249 
L 114.923728 212.803425 
L 114.974646 212.894766 
L 115.025564 212.849096 
L 115.1274 212.803425 
L 115.229237 212.575073 
L 115.381992 211.661662 
L 115.891174 203.486639 
L 116.196683 195.768321 
L 116.451274 194.352535 
L 116.502192 194.740734 
L 116.85862 188.004332 
L 117.215047 184.373526 
L 117.316884 184.579043 
L 117.520557 185.675136 
L 118.437085 193.484795 
L 118.691676 195.996673 
L 118.895348 193.50763 
L 118.946267 193.50763 
L 119.048103 194.535217 
L 119.099021 195.334451 
L 119.14994 194.580887 
L 119.404531 190.539046 
L 119.557285 188.346861 
L 119.608203 188.712225 
L 119.811876 189.671306 
L 120.066467 190.242188 
L 120.117386 190.082341 
L 120.168304 190.196517 
L 120.219222 190.196517 
L 120.422895 190.47054 
L 120.626568 190.287858 
L 120.779322 190.881575 
L 121.237586 201.8425 
L 121.390341 204.582731 
L 121.441259 204.240202 
L 121.492177 203.829168 
L 121.69585 206.61507 
L 121.746769 206.1812 
L 122.306869 221.9832 
L 122.866969 230.729105 
L 122.917888 230.089718 
L 123.274315 239.749033 
L 123.376151 240.297079 
L 123.579824 239.406504 
L 123.732579 238.767117 
L 123.834415 238.082059 
L 124.445434 219.973697 
L 124.54727 220.316226 
L 124.750943 217.530324 
L 125.005534 218.0327 
L 125.158289 217.6445 
L 125.260125 217.119289 
L 125.311044 217.142125 
L 125.41288 217.6445 
L 125.463798 217.59883 
L 125.565635 217.233466 
L 125.922062 215.292469 
L 125.97298 216.114538 
L 126.227572 209.492312 
L 126.27849 209.720665 
L 126.431244 210.908099 
L 126.736754 215.201128 
L 127.296854 220.68159 
L 127.500527 221.457989 
L 127.551445 221.480824 
L 127.755118 222.828105 
L 128.009709 222.165882 
L 128.111546 222.051706 
L 128.162464 222.097376 
L 128.315218 222.508411 
L 128.824401 219.585498 
L 128.875319 219.654003 
L 129.028073 219.81385 
L 129.180828 219.585498 
L 129.333583 218.672087 
L 129.791847 213.64833 
L 130.148274 208.236373 
L 130.657456 197.138436 
L 130.912047 193.279277 
L 131.472148 188.529543 
L 131.828575 187.205098 
L 132.185003 185.332607 
L 132.388676 184.647549 
L 132.745103 184.464867 
L 132.948776 184.830231 
L 133.254285 186.976745 
L 134.374486 203.326792 
L 134.679995 205.952847 
L 134.883668 206.569399 
L 135.087341 207.825338 
L 135.494687 210.839593 
L 135.69836 211.296298 
L 135.800196 211.753003 
L 135.851114 211.707333 
L 135.902033 211.661662 
L 135.952951 211.753003 
L 136.309378 213.990859 
L 136.360297 213.990859 
L 136.513051 214.493235 
L 136.818561 218.215382 
L 136.869479 218.740593 
L 136.920397 218.329558 
L 137.633252 213.191625 
L 137.68417 213.077448 
L 137.735088 213.123119 
L 137.989679 213.64833 
L 138.091516 213.579824 
L 138.142434 213.64833 
L 138.397025 213.579824 
L 138.600698 213.351471 
L 138.651616 213.419977 
L 138.702535 213.488483 
L 138.855289 212.917602 
L 139.822735 237.008802 
L 139.873653 236.255238 
L 140.688345 218.51224 
L 141.146609 210.405723 
L 141.553955 206.067023 
L 141.9613 202.641734 
L 142.470482 186.246017 
L 142.82691 177.226089 
L 142.877828 176.381184 
L 142.928746 177.157583 
L 143.539765 191.77215 
L 144.099865 204.285873 
L 145.067312 213.945188 
L 145.11823 213.831012 
L 145.474657 211.821509 
L 145.831085 208.282044 
L 146.289349 204.696908 
L 146.645776 202.687405 
L 146.849449 201.317289 
L 146.900367 201.36296 
L 147.002204 201.659818 
L 147.307713 204.582731 
L 147.511386 205.130778 
L 147.765977 205.153613 
L 147.918732 204.44572 
L 148.478832 201.020431 
L 148.580668 200.92909 
L 148.682505 201.020431 
L 148.784341 200.860584 
L 148.937096 200.175526 
L 149.293523 196.133685 
L 150.311888 167.064398 
L 150.719233 157.199565 
L 150.973825 156.149144 
L 151.024743 156.057802 
L 151.075661 156.149144 
L 151.228416 157.290907 
L 152.552289 176.198502 
L 152.705044 182.592375 
L 153.316063 195.220275 
L 153.723408 203.14411 
L 153.876163 203.440968 
L 154.23259 204.742578 
L 154.283509 204.674072 
L 154.5381 203.600815 
L 155.149118 199.330621 
L 155.200037 199.330621 
L 155.403709 199.650315 
L 155.454628 199.67315 
L 155.505546 199.832997 
L 155.556464 199.67315 
L 155.6583 199.262116 
L 155.709219 199.376292 
L 155.760137 199.421962 
L 155.912892 200.06135 
L 155.96381 199.947173 
L 156.014728 199.718821 
L 156.218401 200.586561 
L 156.269319 200.563725 
L 156.727583 199.19361 
L 156.982174 200.632231 
L 157.134929 200.792078 
L 157.185847 200.746408 
L 157.491356 199.490468 
L 157.898702 199.033763 
L 158.102375 199.330621 
L 158.204211 199.536139 
L 158.255129 199.444798 
L 158.458802 198.462882 
L 158.764312 196.521884 
L 158.81523 196.59039 
L 158.967984 196.97859 
L 159.018903 197.092766 
L 159.069821 197.02426 
L 159.120739 196.932919 
L 159.171657 197.02426 
L 159.579003 198.394376 
L 159.782676 199.787327 
L 160.037267 198.873916 
L 160.088185 198.919587 
L 160.190022 199.216445 
L 160.342776 201.36296 
L 160.546449 203.258286 
L 160.699204 203.646486 
L 161.055631 197.663647 
L 161.564814 190.059506 
L 161.615732 190.013835 
L 161.819405 190.698893 
L 162.634096 184.601878 
L 163.65246 171.905473 
L 163.754297 171.243251 
L 164.059806 176.038656 
L 164.721743 185.971994 
L 165.485516 190.196517 
L 165.638271 190.995751 
L 165.740107 192.023338 
L 166.50388 203.18978 
L 167.624081 224.084044 
L 167.980509 227.646345 
L 168.184182 227.806191 
L 168.540609 229.815694 
L 169.202546 240.182903 
L 169.406219 241.210489 
L 169.457137 241.096313 
L 169.558973 240.137232 
L 170.119074 229.01646 
L 171.137438 208.464726 
L 171.64662 203.372463 
L 172.563148 185.743641 
L 172.766821 185.058584 
L 172.817739 185.058584 
L 172.919576 185.401112 
L 173.632431 190.539046 
L 173.988858 192.754066 
L 174.192531 193.142266 
L 174.345286 193.142266 
L 174.49804 192.63989 
L 174.80355 191.680809 
L 175.007223 191.954832 
L 175.159977 192.913913 
L 175.312732 193.850159 
L 175.516405 193.279277 
L 175.92375 193.598971 
L 176.178342 193.256442 
L 176.585687 193.964335 
L 176.738442 194.42104 
L 178.21507 201.956676 
L 178.367825 201.591312 
L 178.877007 212.689249 
L 179.437107 227.577839 
L 179.793535 230.774775 
L 180.149962 233.286654 
L 180.302717 234.588264 
L 180.353635 234.65677 
L 180.404553 234.611099 
L 180.659145 234.017382 
L 180.862817 233.926041 
L 181.270163 233.332325 
L 181.321081 233.446501 
L 181.422918 233.811865 
L 181.677509 230.614929 
L 182.084855 222.782434 
L 182.4922 209.926182 
L 183.306892 193.895829 
L 183.35781 194.055676 
L 183.612401 195.448627 
L 183.816074 195.768321 
L 183.91791 195.791156 
L 184.325256 196.453379 
L 184.528929 196.133685 
L 184.630765 196.453379 
L 185.750966 207.482809 
L 186.412903 217.119289 
L 186.463821 217.119289 
L 186.565658 217.461818 
L 186.76933 219.516992 
L 186.973003 222.713928 
L 187.533104 231.003128 
L 187.787695 233.286654 
L 187.889531 232.944125 
L 188.042286 232.190562 
L 188.347795 234.200064 
L 188.704223 235.113475 
L 188.755141 235.067804 
L 188.907896 234.474088 
L 189.417078 239.452174 
L 189.722587 242.420758 
L 189.824423 242.192406 
L 189.92626 241.553018 
L 190.48636 232.304738 
L 190.995542 226.710099 
L 191.046461 226.710099 
L 191.148297 225.45416 
L 191.402888 222.942281 
L 191.504725 222.599752 
L 191.555643 222.713928 
L 191.861152 223.353316 
L 191.962988 223.239139 
L 192.268498 217.461818 
L 193.134107 200.449549 
L 193.694208 197.138436 
L 193.897881 197.161272 
L 194.050635 196.59039 
L 194.661654 191.452456 
L 195.272673 183.962491 
L 195.476345 183.208927 
L 195.527264 183.277433 
L 195.6291 183.574292 
L 195.985528 184.761725 
L 196.036446 184.533373 
L 196.240119 182.318352 
L 196.392873 182.52387 
L 196.749301 183.231763 
L 196.800219 183.208927 
L 197.105728 180.925401 
L 197.563992 179.395439 
L 198.073174 183.43728 
L 198.48052 188.346861 
L 198.684193 189.283107 
L 198.786029 189.374448 
L 198.989702 189.100425 
L 199.091539 189.739812 
L 199.397048 192.754066 
L 199.549803 193.484795 
L 199.90623 197.435295 
L 200.160821 204.44572 
L 200.415412 209.035607 
L 200.77184 209.583653 
L 200.873676 209.720665 
L 200.924595 209.652159 
L 201.230104 208.44189 
L 201.281022 208.784419 
L 201.993877 212.392391 
L 202.044795 212.460896 
L 202.095713 212.392391 
L 202.452141 211.182122 
L 202.503059 211.296298 
L 202.604896 211.43331 
L 202.910405 209.926182 
L 203.06316 207.985185 
L 203.419587 203.372463 
L 203.62326 202.870087 
L 203.776015 202.2307 
L 203.928769 202.573228 
L 204.081524 202.573228 
L 204.18336 201.956676 
L 204.387033 198.348705 
L 204.539788 193.279277 
L 204.590706 194.078511 
L 204.743461 195.768321 
L 205.04897 197.206942 
L 205.507234 201.36296 
L 205.60907 200.906254 
L 206.118253 198.988093 
L 206.321925 198.75974 
L 206.372844 198.80541 
L 206.525598 199.330621 
L 206.882026 202.755911 
L 207.187535 206.980434 
L 207.442126 213.694 
L 207.594881 220.042203 
L 207.645799 219.745344 
L 207.696717 218.94611 
L 207.747635 219.128792 
L 207.951308 221.412318 
L 209.275182 238.538764 
L 209.3261 238.493093 
L 209.427937 238.493093 
L 209.733446 239.566351 
L 209.835282 239.497845 
L 210.038955 238.241906 
L 210.344464 234.26857 
L 210.548137 229.587342 
L 211.159156 205.085107 
L 211.61742 190.972916 
L 212.024766 184.716055 
L 212.381193 179.463945 
L 212.992212 175.810303 
L 213.246803 176.609537 
L 213.552312 178.413523 
L 214.061494 190.767399 
L 214.46884 198.80541 
L 214.672513 200.403879 
L 215.690877 204.400049 
L 215.945468 205.541812 
L 216.149141 205.815835 
L 216.45465 205.473307 
L 216.658323 203.874838 
L 217.371178 194.740734 
L 217.727606 190.995751 
L 218.084033 189.16893 
L 218.389543 188.187014 
L 218.847807 184.830231 
L 218.949643 185.035748 
L 219.407907 186.52004 
L 219.509743 187.547627 
L 219.917089 195.654144 
L 220.273517 200.677902 
L 220.629944 202.801581 
L 220.833617 201.933841 
L 220.986372 200.449549 
L 221.953818 189.853988 
L 222.717591 171.973979 
L 223.0231 166.105317 
L 223.277691 165.397424 
L 223.379528 166.219493 
L 224.143301 183.802644 
L 224.550647 192.754066 
L 224.856156 198.051847 
L 225.110747 199.992844 
L 225.467175 203.14411 
L 225.976357 207.071775 
L 226.027275 206.683575 
L 226.281866 205.35913 
L 226.332784 205.267789 
L 226.383703 205.496142 
L 226.434621 205.31346 
L 226.791048 200.244032 
L 227.351149 193.393454 
L 227.707576 191.087092 
L 227.860331 190.995751 
L 228.013085 191.543798 
L 228.522268 193.5533 
L 228.675022 192.982419 
L 229.336959 188.575214 
L 231.119097 166.676199 
L 231.475524 164.141485 
L 231.577361 164.050144 
L 231.730115 164.324167 
L 232.035625 163.113898 
L 232.290216 162.040641 
L 232.341134 161.972135 
L 232.697561 164.278496 
L 233.359498 172.544861 
L 233.817762 179.326933 
L 234.937963 198.394376 
L 235.498063 210.976604 
L 235.956327 215.42948 
L 236.007245 215.246798 
L 236.16 215.520821 
L 236.261836 215.589327 
L 236.872855 217.941359 
L 236.923773 217.827183 
L 237.076528 217.416148 
L 237.127446 217.461818 
L 237.280201 217.187795 
L 237.432955 216.662584 
L 237.789383 214.744422 
L 238.14581 210.61124 
L 238.502238 205.838671 
L 238.858665 204.44572 
L 238.909584 204.468555 
L 239.01142 204.217367 
L 239.062338 204.285873 
L 239.215093 204.674072 
L 239.266011 204.628402 
L 239.469684 203.212616 
L 240.080703 196.407708 
L 241.30274 174.828387 
L 242.219268 164.826543 
L 242.422941 164.209991 
L 242.473859 164.209991 
L 242.830286 165.237577 
L 243.186714 167.292751 
L 243.390387 169.644783 
L 243.797732 175.627621 
L 244.612424 189.785482 
L 245.172524 193.370618 
L 245.274361 193.256442 
L 245.630788 192.251691 
L 245.987216 190.995751 
L 246.13997 190.972916 
L 246.292725 190.402035 
L 246.496398 188.826402 
L 247.158335 180.879731 
L 247.56568 177.385936 
L 247.769353 176.815054 
L 247.87119 176.609537 
L 248.023944 175.696127 
L 248.278535 173.8008 
L 248.380372 173.869306 
L 248.889554 175.216586 
L 249.093227 175.673291 
L 249.195063 175.627621 
L 249.857 174.326011 
L 250.009755 174.143329 
L 250.162509 173.618118 
L 250.671692 169.507771 
L 250.72261 168.822713 
L 250.773528 169.119572 
L 251.028119 170.375511 
L 251.28271 170.877887 
L 251.486383 170.877887 
L 251.639138 170.558193 
L 251.690056 170.649534 
L 251.842811 170.946392 
L 252.301074 172.955895 
L 252.657502 175.056739 
L 253.01393 176.084326 
L 253.217602 177.180419 
L 253.777703 180.423026 
L 254.286885 173.229918 
L 254.694231 171.129075 
L 254.897904 169.987311 
L 255.458004 165.739953 
L 255.610759 165.123401 
L 255.661677 165.169071 
L 255.814431 165.191907 
L 255.967186 165.648612 
L 256.374532 167.292751 
L 256.42545 167.361256 
L 256.527286 167.018728 
L 256.578205 167.178574 
L 256.730959 167.863632 
L 256.98555 170.71804 
L 257.29106 172.88739 
L 257.443814 172.88739 
L 257.698405 172.362179 
L 258.360342 170.603864 
L 258.614933 170.215664 
L 258.971361 167.909303 
L 259.429625 163.68478 
L 259.531461 163.798956 
L 259.633298 163.981638 
L 259.684216 163.913132 
L 259.83697 163.524933 
L 260.040643 163.456427 
L 260.193398 163.456427 
L 260.346153 163.935967 
L 261.313599 169.736124 
L 261.466353 169.918806 
L 261.720944 169.347924 
L 261.822781 169.393595 
L 262.892063 174.303176 
L 263.044818 174.371682 
L 263.197573 175.216586 
L 263.401246 176.01582 
L 263.503082 175.810303 
L 263.655837 175.467774 
L 263.706755 175.513445 
L 263.961346 175.513445 
L 264.725119 172.476355 
L 265.081547 171.699956 
L 265.132465 171.859803 
L 265.183383 171.928309 
L 265.234301 171.814132 
L 265.488892 170.992063 
L 266.201747 164.849378 
L 266.660011 159.528762 
L 266.863684 158.615352 
L 267.118275 157.542094 
L 267.321948 157.770447 
L 267.525621 157.701941 
L 267.780212 157.016883 
L 268.493067 154.505005 
L 268.798576 152.860866 
L 269.25684 151.764773 
L 269.307759 151.810444 
L 269.460513 152.175808 
L 269.715104 152.838031 
L 269.867859 152.564008 
L 269.918777 152.518337 
L 269.969695 152.609678 
L 270.020614 152.632513 
L 270.68255 157.17673 
L 271.54816 170.215664 
L 271.955506 175.696127 
L 272.311933 178.208005 
L 272.668361 179.212757 
L 272.821116 179.555286 
L 273.024788 179.235592 
L 273.075707 179.167086 
L 273.635807 175.741797 
L 274.501417 167.703785 
L 274.603253 167.566774 
L 274.654171 167.589609 
L 274.857844 168.388843 
L 275.163353 170.672369 
L 275.570699 169.188077 
L 275.672536 169.233748 
L 275.927127 169.758959 
L 276.181718 170.215664 
L 276.283554 170.078653 
L 276.487227 169.736124 
L 276.589064 170.101488 
L 277.352837 174.645705 
L 277.403755 174.531528 
L 277.55651 173.960647 
L 278.371201 167.452598 
L 278.473038 167.406927 
L 278.727629 167.566774 
L 278.829465 167.68095 
L 279.134974 168.777043 
L 279.491402 170.261335 
L 279.593238 170.192829 
L 280.306093 169.051066 
L 280.458848 169.576277 
L 280.815275 170.71804 
L 280.917112 171.106239 
L 281.324458 174.029153 
L 281.731803 177.637124 
L 282.037313 178.550534 
L 282.291904 178.984404 
L 282.39374 178.893063 
L 282.546495 179.007239 
L 282.699249 180.149002 
L 283.208432 183.391609 
L 283.513941 181.975823 
L 284.634142 172.727543 
L 285.041487 170.489687 
L 285.499751 167.703785 
L 285.601588 167.863632 
L 285.652506 167.817962 
L 285.805261 167.68095 
L 286.008934 167.132904 
L 286.263525 166.150988 
L 287.383725 173.001566 
L 287.53648 173.047236 
L 287.689235 172.955895 
L 287.943826 173.298424 
L 288.300253 175.467774 
L 288.351171 175.467774 
L 288.503926 174.896893 
L 288.860354 172.818884 
L 289.624127 168.366008 
L 289.675045 168.388843 
L 290.031473 168.777043 
L 290.184227 169.621947 
L 290.489737 171.63145 
L 290.540655 171.58578 
L 290.795246 171.106239 
L 291.049837 166.539187 
L 291.762692 149.367071 
L 292.475547 139.662085 
L 293.035647 127.947597 
L 293.850339 108.08092 
L 294.003093 106.893486 
L 294.054012 106.939157 
L 294.257684 108.263602 
L 294.766867 113.355865 
L 295.225131 111.734562 
L 295.479722 112.305443 
L 296.39625 119.726903 
L 296.599922 119.978091 
L 296.701759 120.206443 
L 297.058186 122.421464 
L 298.025632 127.83342 
L 298.483896 133.336718 
L 298.840324 134.34147 
L 298.94216 134.34147 
L 299.043997 133.998941 
L 299.094915 134.021776 
L 299.196751 134.409975 
L 299.349506 135.323386 
L 300.062361 145.644924 
L 300.67338 160.373667 
L 301.386235 175.216586 
L 301.691744 177.979653 
L 302.964699 190.744563 
L 303.066536 190.584717 
L 303.270209 189.6028 
L 303.5248 188.301191 
L 303.932146 187.273604 
L 304.186737 185.971994 
L 304.390409 186.428699 
L 304.543164 187.890156 
L 305.001428 193.781653 
L 305.612447 208.898596 
L 306.37622 227.166804 
L 307.700094 246.759458 
L 308.107439 251.395016 
L 308.158357 251.37218 
L 308.463867 248.928808 
L 309.736822 232.327573 
L 311.060696 195.265945 
L 311.315287 192.228855 
L 311.722633 190.196517 
L 311.824469 190.196517 
L 311.875387 190.128011 
L 312.129978 188.917743 
L 312.333651 188.141344 
L 312.384569 188.187014 
L 312.537324 188.232685 
L 312.690079 189.214601 
L 312.94467 192.799737 
L 313.963034 208.44189 
L 314.217625 209.606489 
L 314.421298 209.492312 
L 314.624971 209.949018 
L 314.675889 209.880512 
L 314.93048 209.720665 
L 315.23599 210.382888 
L 315.592417 211.661662 
L 315.643335 211.661662 
L 315.897926 212.78059 
L 316.407108 215.634998 
L 316.610781 217.187795 
L 317.7819 230.386576 
L 317.985573 231.459833 
L 318.036491 231.505504 
L 318.08741 231.391327 
L 318.392919 232.761443 
L 318.545674 234.474088 
L 319.20761 240.662443 
L 319.614956 243.722368 
L 319.665874 243.516851 
L 320.022302 242.489264 
L 320.887911 233.674853 
L 320.93883 233.743359 
L 321.193421 235.867038 
L 321.397094 236.985966 
L 321.600767 236.780449 
L 321.702603 236.985966 
L 322.008112 237.899377 
L 322.05903 237.693859 
L 322.262703 237.511177 
L 322.517294 237.122978 
L 322.670049 236.666273 
L 322.771885 237.237154 
L 322.822804 237.054472 
L 322.975558 236.826119 
L 323.026477 236.87179 
L 323.128313 237.511177 
L 323.484741 240.479761 
L 323.739332 241.164819 
L 323.993923 241.004972 
L 324.757696 235.501674 
L 325.521469 220.430402 
L 326.183406 203.783497 
L 326.590752 192.023338 
L 326.794425 188.917743 
L 327.049016 187.159427 
L 327.20177 187.273604 
L 327.354525 186.999581 
L 327.456361 186.885404 
L 327.558198 187.273604 
L 327.710952 188.483873 
L 328.780235 203.989015 
L 329.136662 213.922353 
L 329.798599 235.752862 
L 330.104109 237.73953 
L 330.3587 236.43792 
L 330.562373 235.044969 
L 330.867882 229.975541 
L 333.108283 183.734138 
L 333.464711 180.126167 
L 333.668384 179.555286 
L 333.872057 179.96632 
L 333.973893 180.468696 
L 334.279402 183.734138 
L 334.737666 197.777824 
L 335.246848 211.090781 
L 336.723477 239.109645 
L 336.978068 240.525432 
L 337.232659 241.438842 
L 337.589086 240.411255 
L 337.792759 239.680527 
L 337.945514 238.424588 
L 338.098269 236.552096 
L 338.556532 229.701518 
L 338.91296 223.421821 
L 339.47306 213.579824 
L 339.982243 208.39622 
L 340.33867 203.212616 
L 340.593261 198.645564 
L 341.000607 191.201269 
L 341.153361 190.402035 
L 341.306116 190.42487 
L 341.662544 191.383951 
L 341.917135 192.228855 
L 341.968053 192.228855 
L 342.018971 192.343032 
L 342.069889 192.297361 
L 342.171726 192.251691 
L 342.426317 193.667477 
L 343.088254 201.248783 
L 343.852027 216.68542 
L 344.208454 218.329558 
L 344.259373 218.51224 
L 345.583246 235.95838 
L 345.990592 239.52068 
L 346.245183 240.297079 
L 346.448856 241.096313 
L 346.90712 242.808958 
L 347.008956 243.265663 
L 347.263547 244.019227 
L 347.314466 243.950721 
L 348.587421 230.820446 
L 348.791094 230.203894 
L 349.147521 227.121134 
L 349.656704 219.471321 
L 349.809458 218.055535 
L 349.962213 217.758677 
L 350.013131 217.804347 
L 350.216804 217.416148 
L 350.369559 217.6445 
L 350.522313 217.461818 
L 350.573231 217.6445 
L 350.675068 217.59883 
L 350.827823 217.073619 
L 351.082414 215.634998 
L 351.337005 212.118367 
L 352.04986 197.252613 
L 352.100778 197.321118 
L 352.253533 197.321118 
L 352.559042 201.317289 
L 352.813633 203.486639 
L 353.017306 206.980434 
L 354.03567 167.817962 
L 355.257707 122.763992 
L 355.766889 91.753708 
L 356.174235 71.841361 
L 356.428826 69.375153 
L 356.88709 64.031702 
L 357.1926 62.410398 
L 357.294436 62.410398 
L 357.498109 63.095456 
L 357.803618 64.579748 
L 358.210964 67.045956 
L 358.516473 71.224809 
L 359.382083 87.666197 
L 360.04402 110.021917 
L 361.062384 139.319556 
L 361.520648 150.052129 
L 362.233503 161.880794 
L 362.335339 161.401253 
L 362.437176 160.624855 
L 362.488094 160.853207 
L 362.539012 161.013054 
L 362.58993 160.739031 
L 365.186759 86.570104 
L 365.543187 79.902208 
L 365.695942 77.139142 
L 365.797778 77.047801 
L 365.848696 77.139142 
L 365.899614 77.253318 
L 366.205124 81.158147 
L 367.121652 93.466353 
L 367.528997 98.033405 
L 367.579916 98.05624 
L 367.936343 99.015321 
L 368.03818 98.832639 
L 368.241852 97.713711 
L 368.547362 94.904974 
L 368.649198 94.859304 
L 368.751035 95.201833 
L 368.954707 96.092408 
L 369.209299 94.219917 
L 369.46389 92.918307 
L 369.718481 92.918307 
L 369.820317 92.849801 
L 370.329499 92.050567 
L 370.533172 91.593862 
L 370.838681 93.808882 
L 371.296945 96.571948 
L 371.653373 99.814555 
L 371.755209 99.654709 
L 372.31531 97.234171 
L 372.773574 92.233249 
L 373.130001 86.981139 
L 373.333674 79.080139 
L 373.791938 63.917526 
L 374.046529 61.862352 
L 374.402957 59.967026 
L 374.504793 60.081202 
L 374.555711 60.035531 
L 374.708466 60.035531 
L 375.370403 62.821433 
L 375.421321 62.752927 
L 375.574076 62.478904 
L 375.624994 62.524575 
L 375.777748 62.752927 
L 376.134176 64.876607 
L 376.388767 75.426497 
L 376.948867 99.289344 
L 377.559886 111.620385 
L 378.069068 120.36629 
L 378.527332 133.565071 
L 379.036514 147.197721 
L 379.342023 151.376574 
L 379.494778 151.422245 
L 379.851206 149.252895 
L 379.953042 149.367071 
L 380.258551 150.006458 
L 380.30947 150.006458 
L 380.614979 151.079716 
L 380.767734 151.01121 
L 380.920488 150.62301 
L 380.971406 150.668681 
L 381.378752 144.982701 
L 382.091607 133.656412 
L 382.346198 131.669744 
L 382.448035 132.880013 
L 382.702626 136.282467 
L 382.753544 136.191126 
L 382.804462 136.16829 
L 382.906299 135.939938 
L 383.670072 124.887672 
L 384.077418 118.037093 
L 384.484763 115.753567 
L 384.637518 114.885827 
L 385.095782 109.108507 
L 385.350373 105.066665 
L 385.401291 105.226512 
L 385.655882 102.714634 
L 385.808637 101.344518 
L 385.961392 100.682295 
L 386.01231 100.727966 
L 386.165064 100.796472 
L 386.266901 100.842142 
L 386.368737 100.910648 
L 386.419656 100.796472 
L 386.674247 103.856397 
L 387.794447 129.614571 
L 389.42383 189.488624 
L 389.576585 188.415367 
L 389.882094 184.579043 
L 390.442195 174.097658 
L 391.104131 167.932138 
L 391.511477 164.027308 
L 392.071578 168.091985 
L 392.377087 170.489687 
L 392.478923 171.814132 
L 393.599124 230.31807 
L 394.261061 245.800377 
L 394.668407 251.280839 
L 394.973916 252.924978 
L 397.112481 202.847252 
L 397.723499 187.205098 
L 398.232682 171.448768 
L 398.487273 167.749456 
L 398.487273 167.749456 
" style="fill:none;stroke:#1f77b4;stroke-linecap:square;stroke-width:1.5;"/>
   </g>
   <g id="patch_3">
    <path d="M 57.6 306.3024 
L 57.6 41.2992 
" style="fill:none;stroke:#000000;stroke-linecap:square;stroke-linejoin:miter;stroke-width:0.8;"/>
   </g>
   <g id="patch_4">
    <path d="M 414.72 306.3024 
L 414.72 41.2992 
" style="fill:none;stroke:#000000;stroke-linecap:square;stroke-linejoin:miter;stroke-width:0.8;"/>
   </g>
   <g id="patch_5">
    <path d="M 57.6 306.3024 
L 414.72 306.3024 
" style="fill:none;stroke:#000000;stroke-linecap:square;stroke-linejoin:miter;stroke-width:0.8;"/>
   </g>
   <g id="patch_6">
    <path d="M 57.6 41.2992 
L 414.72 41.2992 
" style="fill:none;stroke:#000000;stroke-linecap:square;stroke-linejoin:miter;stroke-width:0.8;"/>
   </g>
   <g id="text_16">
    <!-- Ritmo Cardíaco -->
    <g transform="translate(190.094063 35.2992)scale(0.12 -0.12)">
     <use xlink:href="#DejaVuSans-82"/>
     <use x="69.482422" xlink:href="#DejaVuSans-105"/>
     <use x="97.265625" xlink:href="#DejaVuSans-116"/>
     <use x="136.474609" xlink:href="#DejaVuSans-109"/>
     <use x="233.886719" xlink:href="#DejaVuSans-111"/>
     <use x="295.068359" xlink:href="#DejaVuSans-32"/>
     <use x="326.855469" xlink:href="#DejaVuSans-67"/>
     <use x="396.679688" xlink:href="#DejaVuSans-97"/>
     <use x="457.958984" xlink:href="#DejaVuSans-114"/>
     <use x="499.056641" xlink:href="#DejaVuSans-100"/>
     <use x="562.533203" xlink:href="#DejaVuSans-237"/>
     <use x="590.316406" xlink:href="#DejaVuSans-97"/>
     <use x="651.595703" xlink:href="#DejaVuSans-99"/>
     <use x="706.576172" xlink:href="#DejaVuSans-111"/>
    </g>
   </g>
  </g>
 </g>
 <defs>
  <clipPath id="pd03a613a65">
   <rect height="265.0032" width="357.12" x="57.6" y="41.2992"/>
  </clipPath>
 </defs>
</svg>
