<?xml version="1.0" encoding="utf-8" standalone="no"?>
<!DOCTYPE svg PUBLIC "-//W3C//DTD SVG 1.1//EN"
  "http://www.w3.org/Graphics/SVG/1.1/DTD/svg11.dtd">
<!-- Created with matplotlib (https://matplotlib.org/) -->
<svg height="344.16pt" version="1.1" viewBox="0 0 460.8 344.16" width="460.8pt" xmlns="http://www.w3.org/2000/svg" xmlns:xlink="http://www.w3.org/1999/xlink">
 <defs>
  <style type="text/css">
*{stroke-linecap:butt;stroke-linejoin:round;}
  </style>
 </defs>
 <g id="figure_1">
  <g id="patch_1">
   <path d="M 0 344.16 
L 460.8 344.16 
L 460.8 0 
L 0 0 
z
" style="fill:#ffffff;"/>
  </g>
  <g id="axes_1">
   <g id="patch_2">
    <path d="M 57.6 306.3024 
L 414.72 306.3024 
L 414.72 41.2992 
L 57.6 41.2992 
z
" style="fill:#ffffff;"/>
   </g>
   <g id="matplotlib.axis_1">
    <g id="xtick_1">
     <g id="line2d_1">
      <defs>
       <path d="M 0 0 
L 0 3.5 
" id="mef759e7c19" style="stroke:#000000;stroke-width:0.8;"/>
      </defs>
      <g>
       <use style="stroke:#000000;stroke-width:0.8;" x="73.832727" xlink:href="#mef759e7c19" y="306.3024"/>
      </g>
     </g>
     <g id="text_1">
      <!-- 0 -->
      <defs>
       <path d="M 31.78125 66.40625 
Q 24.171875 66.40625 20.328125 58.90625 
Q 16.5 51.421875 16.5 36.375 
Q 16.5 21.390625 20.328125 13.890625 
Q 24.171875 6.390625 31.78125 6.390625 
Q 39.453125 6.390625 43.28125 13.890625 
Q 47.125 21.390625 47.125 36.375 
Q 47.125 51.421875 43.28125 58.90625 
Q 39.453125 66.40625 31.78125 66.40625 
z
M 31.78125 74.21875 
Q 44.046875 74.21875 50.515625 64.515625 
Q 56.984375 54.828125 56.984375 36.375 
Q 56.984375 17.96875 50.515625 8.265625 
Q 44.046875 -1.421875 31.78125 -1.421875 
Q 19.53125 -1.421875 13.0625 8.265625 
Q 6.59375 17.96875 6.59375 36.375 
Q 6.59375 54.828125 13.0625 64.515625 
Q 19.53125 74.21875 31.78125 74.21875 
z
" id="DejaVuSans-48"/>
      </defs>
      <g transform="translate(70.651477 320.900838)scale(0.1 -0.1)">
       <use xlink:href="#DejaVuSans-48"/>
      </g>
     </g>
    </g>
    <g id="xtick_2">
     <g id="line2d_2">
      <g>
       <use style="stroke:#000000;stroke-width:0.8;" x="124.750943" xlink:href="#mef759e7c19" y="306.3024"/>
      </g>
     </g>
     <g id="text_2">
      <!-- 1000 -->
      <defs>
       <path d="M 12.40625 8.296875 
L 28.515625 8.296875 
L 28.515625 63.921875 
L 10.984375 60.40625 
L 10.984375 69.390625 
L 28.421875 72.90625 
L 38.28125 72.90625 
L 38.28125 8.296875 
L 54.390625 8.296875 
L 54.390625 0 
L 12.40625 0 
z
" id="DejaVuSans-49"/>
      </defs>
      <g transform="translate(112.025943 320.900838)scale(0.1 -0.1)">
       <use xlink:href="#DejaVuSans-49"/>
       <use x="63.623047" xlink:href="#DejaVuSans-48"/>
       <use x="127.246094" xlink:href="#DejaVuSans-48"/>
       <use x="190.869141" xlink:href="#DejaVuSans-48"/>
      </g>
     </g>
    </g>
    <g id="xtick_3">
     <g id="line2d_3">
      <g>
       <use style="stroke:#000000;stroke-width:0.8;" x="175.669159" xlink:href="#mef759e7c19" y="306.3024"/>
      </g>
     </g>
     <g id="text_3">
      <!-- 2000 -->
      <defs>
       <path d="M 19.1875 8.296875 
L 53.609375 8.296875 
L 53.609375 0 
L 7.328125 0 
L 7.328125 8.296875 
Q 12.9375 14.109375 22.625 23.890625 
Q 32.328125 33.6875 34.8125 36.53125 
Q 39.546875 41.84375 41.421875 45.53125 
Q 43.3125 49.21875 43.3125 52.78125 
Q 43.3125 58.59375 39.234375 62.25 
Q 35.15625 65.921875 28.609375 65.921875 
Q 23.96875 65.921875 18.8125 64.3125 
Q 13.671875 62.703125 7.8125 59.421875 
L 7.8125 69.390625 
Q 13.765625 71.78125 18.9375 73 
Q 24.125 74.21875 28.421875 74.21875 
Q 39.75 74.21875 46.484375 68.546875 
Q 53.21875 62.890625 53.21875 53.421875 
Q 53.21875 48.921875 51.53125 44.890625 
Q 49.859375 40.875 45.40625 35.40625 
Q 44.1875 33.984375 37.640625 27.21875 
Q 31.109375 20.453125 19.1875 8.296875 
z
" id="DejaVuSans-50"/>
      </defs>
      <g transform="translate(162.944159 320.900838)scale(0.1 -0.1)">
       <use xlink:href="#DejaVuSans-50"/>
       <use x="63.623047" xlink:href="#DejaVuSans-48"/>
       <use x="127.246094" xlink:href="#DejaVuSans-48"/>
       <use x="190.869141" xlink:href="#DejaVuSans-48"/>
      </g>
     </g>
    </g>
    <g id="xtick_4">
     <g id="line2d_4">
      <g>
       <use style="stroke:#000000;stroke-width:0.8;" x="226.587375" xlink:href="#mef759e7c19" y="306.3024"/>
      </g>
     </g>
     <g id="text_4">
      <!-- 3000 -->
      <defs>
       <path d="M 40.578125 39.3125 
Q 47.65625 37.796875 51.625 33 
Q 55.609375 28.21875 55.609375 21.1875 
Q 55.609375 10.40625 48.1875 4.484375 
Q 40.765625 -1.421875 27.09375 -1.421875 
Q 22.515625 -1.421875 17.65625 -0.515625 
Q 12.796875 0.390625 7.625 2.203125 
L 7.625 11.71875 
Q 11.71875 9.328125 16.59375 8.109375 
Q 21.484375 6.890625 26.8125 6.890625 
Q 36.078125 6.890625 40.9375 10.546875 
Q 45.796875 14.203125 45.796875 21.1875 
Q 45.796875 27.640625 41.28125 31.265625 
Q 36.765625 34.90625 28.71875 34.90625 
L 20.21875 34.90625 
L 20.21875 43.015625 
L 29.109375 43.015625 
Q 36.375 43.015625 40.234375 45.921875 
Q 44.09375 48.828125 44.09375 54.296875 
Q 44.09375 59.90625 40.109375 62.90625 
Q 36.140625 65.921875 28.71875 65.921875 
Q 24.65625 65.921875 20.015625 65.03125 
Q 15.375 64.15625 9.8125 62.3125 
L 9.8125 71.09375 
Q 15.4375 72.65625 20.34375 73.4375 
Q 25.25 74.21875 29.59375 74.21875 
Q 40.828125 74.21875 47.359375 69.109375 
Q 53.90625 64.015625 53.90625 55.328125 
Q 53.90625 49.265625 50.4375 45.09375 
Q 46.96875 40.921875 40.578125 39.3125 
z
" id="DejaVuSans-51"/>
      </defs>
      <g transform="translate(213.862375 320.900838)scale(0.1 -0.1)">
       <use xlink:href="#DejaVuSans-51"/>
       <use x="63.623047" xlink:href="#DejaVuSans-48"/>
       <use x="127.246094" xlink:href="#DejaVuSans-48"/>
       <use x="190.869141" xlink:href="#DejaVuSans-48"/>
      </g>
     </g>
    </g>
    <g id="xtick_5">
     <g id="line2d_5">
      <g>
       <use style="stroke:#000000;stroke-width:0.8;" x="277.505591" xlink:href="#mef759e7c19" y="306.3024"/>
      </g>
     </g>
     <g id="text_5">
      <!-- 4000 -->
      <defs>
       <path d="M 37.796875 64.3125 
L 12.890625 25.390625 
L 37.796875 25.390625 
z
M 35.203125 72.90625 
L 47.609375 72.90625 
L 47.609375 25.390625 
L 58.015625 25.390625 
L 58.015625 17.1875 
L 47.609375 17.1875 
L 47.609375 0 
L 37.796875 0 
L 37.796875 17.1875 
L 4.890625 17.1875 
L 4.890625 26.703125 
z
" id="DejaVuSans-52"/>
      </defs>
      <g transform="translate(264.780591 320.900838)scale(0.1 -0.1)">
       <use xlink:href="#DejaVuSans-52"/>
       <use x="63.623047" xlink:href="#DejaVuSans-48"/>
       <use x="127.246094" xlink:href="#DejaVuSans-48"/>
       <use x="190.869141" xlink:href="#DejaVuSans-48"/>
      </g>
     </g>
    </g>
    <g id="xtick_6">
     <g id="line2d_6">
      <g>
       <use style="stroke:#000000;stroke-width:0.8;" x="328.423807" xlink:href="#mef759e7c19" y="306.3024"/>
      </g>
     </g>
     <g id="text_6">
      <!-- 5000 -->
      <defs>
       <path d="M 10.796875 72.90625 
L 49.515625 72.90625 
L 49.515625 64.59375 
L 19.828125 64.59375 
L 19.828125 46.734375 
Q 21.96875 47.46875 24.109375 47.828125 
Q 26.265625 48.1875 28.421875 48.1875 
Q 40.625 48.1875 47.75 41.5 
Q 54.890625 34.8125 54.890625 23.390625 
Q 54.890625 11.625 47.5625 5.09375 
Q 40.234375 -1.421875 26.90625 -1.421875 
Q 22.3125 -1.421875 17.546875 -0.640625 
Q 12.796875 0.140625 7.71875 1.703125 
L 7.71875 11.625 
Q 12.109375 9.234375 16.796875 8.0625 
Q 21.484375 6.890625 26.703125 6.890625 
Q 35.15625 6.890625 40.078125 11.328125 
Q 45.015625 15.765625 45.015625 23.390625 
Q 45.015625 31 40.078125 35.4375 
Q 35.15625 39.890625 26.703125 39.890625 
Q 22.75 39.890625 18.8125 39.015625 
Q 14.890625 38.140625 10.796875 36.28125 
z
" id="DejaVuSans-53"/>
      </defs>
      <g transform="translate(315.698807 320.900838)scale(0.1 -0.1)">
       <use xlink:href="#DejaVuSans-53"/>
       <use x="63.623047" xlink:href="#DejaVuSans-48"/>
       <use x="127.246094" xlink:href="#DejaVuSans-48"/>
       <use x="190.869141" xlink:href="#DejaVuSans-48"/>
      </g>
     </g>
    </g>
    <g id="xtick_7">
     <g id="line2d_7">
      <g>
       <use style="stroke:#000000;stroke-width:0.8;" x="379.342023" xlink:href="#mef759e7c19" y="306.3024"/>
      </g>
     </g>
     <g id="text_7">
      <!-- 6000 -->
      <defs>
       <path d="M 33.015625 40.375 
Q 26.375 40.375 22.484375 35.828125 
Q 18.609375 31.296875 18.609375 23.390625 
Q 18.609375 15.53125 22.484375 10.953125 
Q 26.375 6.390625 33.015625 6.390625 
Q 39.65625 6.390625 43.53125 10.953125 
Q 47.40625 15.53125 47.40625 23.390625 
Q 47.40625 31.296875 43.53125 35.828125 
Q 39.65625 40.375 33.015625 40.375 
z
M 52.59375 71.296875 
L 52.59375 62.3125 
Q 48.875 64.0625 45.09375 64.984375 
Q 41.3125 65.921875 37.59375 65.921875 
Q 27.828125 65.921875 22.671875 59.328125 
Q 17.53125 52.734375 16.796875 39.40625 
Q 19.671875 43.65625 24.015625 45.921875 
Q 28.375 48.1875 33.59375 48.1875 
Q 44.578125 48.1875 50.953125 41.515625 
Q 57.328125 34.859375 57.328125 23.390625 
Q 57.328125 12.15625 50.6875 5.359375 
Q 44.046875 -1.421875 33.015625 -1.421875 
Q 20.359375 -1.421875 13.671875 8.265625 
Q 6.984375 17.96875 6.984375 36.375 
Q 6.984375 53.65625 15.1875 63.9375 
Q 23.390625 74.21875 37.203125 74.21875 
Q 40.921875 74.21875 44.703125 73.484375 
Q 48.484375 72.75 52.59375 71.296875 
z
" id="DejaVuSans-54"/>
      </defs>
      <g transform="translate(366.617023 320.900838)scale(0.1 -0.1)">
       <use xlink:href="#DejaVuSans-54"/>
       <use x="63.623047" xlink:href="#DejaVuSans-48"/>
       <use x="127.246094" xlink:href="#DejaVuSans-48"/>
       <use x="190.869141" xlink:href="#DejaVuSans-48"/>
      </g>
     </g>
    </g>
    <g id="text_8">
     <!-- Muestras -->
     <defs>
      <path d="M 9.8125 72.90625 
L 24.515625 72.90625 
L 43.109375 23.296875 
L 61.8125 72.90625 
L 76.515625 72.90625 
L 76.515625 0 
L 66.890625 0 
L 66.890625 64.015625 
L 48.09375 14.015625 
L 38.1875 14.015625 
L 19.390625 64.015625 
L 19.390625 0 
L 9.8125 0 
z
" id="DejaVuSans-77"/>
      <path d="M 8.5 21.578125 
L 8.5 54.6875 
L 17.484375 54.6875 
L 17.484375 21.921875 
Q 17.484375 14.15625 20.5 10.265625 
Q 23.53125 6.390625 29.59375 6.390625 
Q 36.859375 6.390625 41.078125 11.03125 
Q 45.3125 15.671875 45.3125 23.6875 
L 45.3125 54.6875 
L 54.296875 54.6875 
L 54.296875 0 
L 45.3125 0 
L 45.3125 8.40625 
Q 42.046875 3.421875 37.71875 1 
Q 33.40625 -1.421875 27.6875 -1.421875 
Q 18.265625 -1.421875 13.375 4.4375 
Q 8.5 10.296875 8.5 21.578125 
z
M 31.109375 56 
z
" id="DejaVuSans-117"/>
      <path d="M 56.203125 29.59375 
L 56.203125 25.203125 
L 14.890625 25.203125 
Q 15.484375 15.921875 20.484375 11.0625 
Q 25.484375 6.203125 34.421875 6.203125 
Q 39.59375 6.203125 44.453125 7.46875 
Q 49.3125 8.734375 54.109375 11.28125 
L 54.109375 2.78125 
Q 49.265625 0.734375 44.1875 -0.34375 
Q 39.109375 -1.421875 33.890625 -1.421875 
Q 20.796875 -1.421875 13.15625 6.1875 
Q 5.515625 13.8125 5.515625 26.8125 
Q 5.515625 40.234375 12.765625 48.109375 
Q 20.015625 56 32.328125 56 
Q 43.359375 56 49.78125 48.890625 
Q 56.203125 41.796875 56.203125 29.59375 
z
M 47.21875 32.234375 
Q 47.125 39.59375 43.09375 43.984375 
Q 39.0625 48.390625 32.421875 48.390625 
Q 24.90625 48.390625 20.390625 44.140625 
Q 15.875 39.890625 15.1875 32.171875 
z
" id="DejaVuSans-101"/>
      <path d="M 44.28125 53.078125 
L 44.28125 44.578125 
Q 40.484375 46.53125 36.375 47.5 
Q 32.28125 48.484375 27.875 48.484375 
Q 21.1875 48.484375 17.84375 46.4375 
Q 14.5 44.390625 14.5 40.28125 
Q 14.5 37.15625 16.890625 35.375 
Q 19.28125 33.59375 26.515625 31.984375 
L 29.59375 31.296875 
Q 39.15625 29.25 43.1875 25.515625 
Q 47.21875 21.78125 47.21875 15.09375 
Q 47.21875 7.46875 41.1875 3.015625 
Q 35.15625 -1.421875 24.609375 -1.421875 
Q 20.21875 -1.421875 15.453125 -0.5625 
Q 10.6875 0.296875 5.421875 2 
L 5.421875 11.28125 
Q 10.40625 8.6875 15.234375 7.390625 
Q 20.0625 6.109375 24.8125 6.109375 
Q 31.15625 6.109375 34.5625 8.28125 
Q 37.984375 10.453125 37.984375 14.40625 
Q 37.984375 18.0625 35.515625 20.015625 
Q 33.0625 21.96875 24.703125 23.78125 
L 21.578125 24.515625 
Q 13.234375 26.265625 9.515625 29.90625 
Q 5.8125 33.546875 5.8125 39.890625 
Q 5.8125 47.609375 11.28125 51.796875 
Q 16.75 56 26.8125 56 
Q 31.78125 56 36.171875 55.265625 
Q 40.578125 54.546875 44.28125 53.078125 
z
" id="DejaVuSans-115"/>
      <path d="M 18.3125 70.21875 
L 18.3125 54.6875 
L 36.8125 54.6875 
L 36.8125 47.703125 
L 18.3125 47.703125 
L 18.3125 18.015625 
Q 18.3125 11.328125 20.140625 9.421875 
Q 21.96875 7.515625 27.59375 7.515625 
L 36.8125 7.515625 
L 36.8125 0 
L 27.59375 0 
Q 17.1875 0 13.234375 3.875 
Q 9.28125 7.765625 9.28125 18.015625 
L 9.28125 47.703125 
L 2.6875 47.703125 
L 2.6875 54.6875 
L 9.28125 54.6875 
L 9.28125 70.21875 
z
" id="DejaVuSans-116"/>
      <path d="M 41.109375 46.296875 
Q 39.59375 47.171875 37.8125 47.578125 
Q 36.03125 48 33.890625 48 
Q 26.265625 48 22.1875 43.046875 
Q 18.109375 38.09375 18.109375 28.8125 
L 18.109375 0 
L 9.078125 0 
L 9.078125 54.6875 
L 18.109375 54.6875 
L 18.109375 46.1875 
Q 20.953125 51.171875 25.484375 53.578125 
Q 30.03125 56 36.53125 56 
Q 37.453125 56 38.578125 55.875 
Q 39.703125 55.765625 41.0625 55.515625 
z
" id="DejaVuSans-114"/>
      <path d="M 34.28125 27.484375 
Q 23.390625 27.484375 19.1875 25 
Q 14.984375 22.515625 14.984375 16.5 
Q 14.984375 11.71875 18.140625 8.90625 
Q 21.296875 6.109375 26.703125 6.109375 
Q 34.1875 6.109375 38.703125 11.40625 
Q 43.21875 16.703125 43.21875 25.484375 
L 43.21875 27.484375 
z
M 52.203125 31.203125 
L 52.203125 0 
L 43.21875 0 
L 43.21875 8.296875 
Q 40.140625 3.328125 35.546875 0.953125 
Q 30.953125 -1.421875 24.3125 -1.421875 
Q 15.921875 -1.421875 10.953125 3.296875 
Q 6 8.015625 6 15.921875 
Q 6 25.140625 12.171875 29.828125 
Q 18.359375 34.515625 30.609375 34.515625 
L 43.21875 34.515625 
L 43.21875 35.40625 
Q 43.21875 41.609375 39.140625 45 
Q 35.0625 48.390625 27.6875 48.390625 
Q 23 48.390625 18.546875 47.265625 
Q 14.109375 46.140625 10.015625 43.890625 
L 10.015625 52.203125 
Q 14.9375 54.109375 19.578125 55.046875 
Q 24.21875 56 28.609375 56 
Q 40.484375 56 46.34375 49.84375 
Q 52.203125 43.703125 52.203125 31.203125 
z
" id="DejaVuSans-97"/>
     </defs>
     <g transform="translate(213.311562 334.578963)scale(0.1 -0.1)">
      <use xlink:href="#DejaVuSans-77"/>
      <use x="86.279297" xlink:href="#DejaVuSans-117"/>
      <use x="149.658203" xlink:href="#DejaVuSans-101"/>
      <use x="211.181641" xlink:href="#DejaVuSans-115"/>
      <use x="263.28125" xlink:href="#DejaVuSans-116"/>
      <use x="302.490234" xlink:href="#DejaVuSans-114"/>
      <use x="343.603516" xlink:href="#DejaVuSans-97"/>
      <use x="404.882812" xlink:href="#DejaVuSans-115"/>
     </g>
    </g>
   </g>
   <g id="matplotlib.axis_2">
    <g id="ytick_1">
     <g id="line2d_8">
      <defs>
       <path d="M 0 0 
L -3.5 0 
" id="mee46c1d041" style="stroke:#000000;stroke-width:0.8;"/>
      </defs>
      <g>
       <use style="stroke:#000000;stroke-width:0.8;" x="57.6" xlink:href="#mee46c1d041" y="293.59857"/>
      </g>
     </g>
     <g id="text_9">
      <!-- 24 -->
      <g transform="translate(37.875 297.397789)scale(0.1 -0.1)">
       <use xlink:href="#DejaVuSans-50"/>
       <use x="63.623047" xlink:href="#DejaVuSans-52"/>
      </g>
     </g>
    </g>
    <g id="ytick_2">
     <g id="line2d_9">
      <g>
       <use style="stroke:#000000;stroke-width:0.8;" x="57.6" xlink:href="#mee46c1d041" y="249.716603"/>
      </g>
     </g>
     <g id="text_10">
      <!-- 26 -->
      <g transform="translate(37.875 253.515822)scale(0.1 -0.1)">
       <use xlink:href="#DejaVuSans-50"/>
       <use x="63.623047" xlink:href="#DejaVuSans-54"/>
      </g>
     </g>
    </g>
    <g id="ytick_3">
     <g id="line2d_10">
      <g>
       <use style="stroke:#000000;stroke-width:0.8;" x="57.6" xlink:href="#mee46c1d041" y="205.834636"/>
      </g>
     </g>
     <g id="text_11">
      <!-- 28 -->
      <defs>
       <path d="M 31.78125 34.625 
Q 24.75 34.625 20.71875 30.859375 
Q 16.703125 27.09375 16.703125 20.515625 
Q 16.703125 13.921875 20.71875 10.15625 
Q 24.75 6.390625 31.78125 6.390625 
Q 38.8125 6.390625 42.859375 10.171875 
Q 46.921875 13.96875 46.921875 20.515625 
Q 46.921875 27.09375 42.890625 30.859375 
Q 38.875 34.625 31.78125 34.625 
z
M 21.921875 38.8125 
Q 15.578125 40.375 12.03125 44.71875 
Q 8.5 49.078125 8.5 55.328125 
Q 8.5 64.0625 14.71875 69.140625 
Q 20.953125 74.21875 31.78125 74.21875 
Q 42.671875 74.21875 48.875 69.140625 
Q 55.078125 64.0625 55.078125 55.328125 
Q 55.078125 49.078125 51.53125 44.71875 
Q 48 40.375 41.703125 38.8125 
Q 48.828125 37.15625 52.796875 32.3125 
Q 56.78125 27.484375 56.78125 20.515625 
Q 56.78125 9.90625 50.3125 4.234375 
Q 43.84375 -1.421875 31.78125 -1.421875 
Q 19.734375 -1.421875 13.25 4.234375 
Q 6.78125 9.90625 6.78125 20.515625 
Q 6.78125 27.484375 10.78125 32.3125 
Q 14.796875 37.15625 21.921875 38.8125 
z
M 18.3125 54.390625 
Q 18.3125 48.734375 21.84375 45.5625 
Q 25.390625 42.390625 31.78125 42.390625 
Q 38.140625 42.390625 41.71875 45.5625 
Q 45.3125 48.734375 45.3125 54.390625 
Q 45.3125 60.0625 41.71875 63.234375 
Q 38.140625 66.40625 31.78125 66.40625 
Q 25.390625 66.40625 21.84375 63.234375 
Q 18.3125 60.0625 18.3125 54.390625 
z
" id="DejaVuSans-56"/>
      </defs>
      <g transform="translate(37.875 209.633855)scale(0.1 -0.1)">
       <use xlink:href="#DejaVuSans-50"/>
       <use x="63.623047" xlink:href="#DejaVuSans-56"/>
      </g>
     </g>
    </g>
    <g id="ytick_4">
     <g id="line2d_11">
      <g>
       <use style="stroke:#000000;stroke-width:0.8;" x="57.6" xlink:href="#mee46c1d041" y="161.952669"/>
      </g>
     </g>
     <g id="text_12">
      <!-- 30 -->
      <g transform="translate(37.875 165.751888)scale(0.1 -0.1)">
       <use xlink:href="#DejaVuSans-51"/>
       <use x="63.623047" xlink:href="#DejaVuSans-48"/>
      </g>
     </g>
    </g>
    <g id="ytick_5">
     <g id="line2d_12">
      <g>
       <use style="stroke:#000000;stroke-width:0.8;" x="57.6" xlink:href="#mee46c1d041" y="118.070702"/>
      </g>
     </g>
     <g id="text_13">
      <!-- 32 -->
      <g transform="translate(37.875 121.86992)scale(0.1 -0.1)">
       <use xlink:href="#DejaVuSans-51"/>
       <use x="63.623047" xlink:href="#DejaVuSans-50"/>
      </g>
     </g>
    </g>
    <g id="ytick_6">
     <g id="line2d_13">
      <g>
       <use style="stroke:#000000;stroke-width:0.8;" x="57.6" xlink:href="#mee46c1d041" y="74.188734"/>
      </g>
     </g>
     <g id="text_14">
      <!-- 34 -->
      <g transform="translate(37.875 77.987953)scale(0.1 -0.1)">
       <use xlink:href="#DejaVuSans-51"/>
       <use x="63.623047" xlink:href="#DejaVuSans-52"/>
      </g>
     </g>
    </g>
    <g id="text_15">
     <!-- Valor de Temperatura -->
     <defs>
      <path d="M 28.609375 0 
L 0.78125 72.90625 
L 11.078125 72.90625 
L 34.1875 11.53125 
L 57.328125 72.90625 
L 67.578125 72.90625 
L 39.796875 0 
z
" id="DejaVuSans-86"/>
      <path d="M 9.421875 75.984375 
L 18.40625 75.984375 
L 18.40625 0 
L 9.421875 0 
z
" id="DejaVuSans-108"/>
      <path d="M 30.609375 48.390625 
Q 23.390625 48.390625 19.1875 42.75 
Q 14.984375 37.109375 14.984375 27.296875 
Q 14.984375 17.484375 19.15625 11.84375 
Q 23.34375 6.203125 30.609375 6.203125 
Q 37.796875 6.203125 41.984375 11.859375 
Q 46.1875 17.53125 46.1875 27.296875 
Q 46.1875 37.015625 41.984375 42.703125 
Q 37.796875 48.390625 30.609375 48.390625 
z
M 30.609375 56 
Q 42.328125 56 49.015625 48.375 
Q 55.71875 40.765625 55.71875 27.296875 
Q 55.71875 13.875 49.015625 6.21875 
Q 42.328125 -1.421875 30.609375 -1.421875 
Q 18.84375 -1.421875 12.171875 6.21875 
Q 5.515625 13.875 5.515625 27.296875 
Q 5.515625 40.765625 12.171875 48.375 
Q 18.84375 56 30.609375 56 
z
" id="DejaVuSans-111"/>
      <path id="DejaVuSans-32"/>
      <path d="M 45.40625 46.390625 
L 45.40625 75.984375 
L 54.390625 75.984375 
L 54.390625 0 
L 45.40625 0 
L 45.40625 8.203125 
Q 42.578125 3.328125 38.25 0.953125 
Q 33.9375 -1.421875 27.875 -1.421875 
Q 17.96875 -1.421875 11.734375 6.484375 
Q 5.515625 14.40625 5.515625 27.296875 
Q 5.515625 40.1875 11.734375 48.09375 
Q 17.96875 56 27.875 56 
Q 33.9375 56 38.25 53.625 
Q 42.578125 51.265625 45.40625 46.390625 
z
M 14.796875 27.296875 
Q 14.796875 17.390625 18.875 11.75 
Q 22.953125 6.109375 30.078125 6.109375 
Q 37.203125 6.109375 41.296875 11.75 
Q 45.40625 17.390625 45.40625 27.296875 
Q 45.40625 37.203125 41.296875 42.84375 
Q 37.203125 48.484375 30.078125 48.484375 
Q 22.953125 48.484375 18.875 42.84375 
Q 14.796875 37.203125 14.796875 27.296875 
z
" id="DejaVuSans-100"/>
      <path d="M -0.296875 72.90625 
L 61.375 72.90625 
L 61.375 64.59375 
L 35.5 64.59375 
L 35.5 0 
L 25.59375 0 
L 25.59375 64.59375 
L -0.296875 64.59375 
z
" id="DejaVuSans-84"/>
      <path d="M 52 44.1875 
Q 55.375 50.25 60.0625 53.125 
Q 64.75 56 71.09375 56 
Q 79.640625 56 84.28125 50.015625 
Q 88.921875 44.046875 88.921875 33.015625 
L 88.921875 0 
L 79.890625 0 
L 79.890625 32.71875 
Q 79.890625 40.578125 77.09375 44.375 
Q 74.3125 48.1875 68.609375 48.1875 
Q 61.625 48.1875 57.5625 43.546875 
Q 53.515625 38.921875 53.515625 30.90625 
L 53.515625 0 
L 44.484375 0 
L 44.484375 32.71875 
Q 44.484375 40.625 41.703125 44.40625 
Q 38.921875 48.1875 33.109375 48.1875 
Q 26.21875 48.1875 22.15625 43.53125 
Q 18.109375 38.875 18.109375 30.90625 
L 18.109375 0 
L 9.078125 0 
L 9.078125 54.6875 
L 18.109375 54.6875 
L 18.109375 46.1875 
Q 21.1875 51.21875 25.484375 53.609375 
Q 29.78125 56 35.6875 56 
Q 41.65625 56 45.828125 52.96875 
Q 50 49.953125 52 44.1875 
z
" id="DejaVuSans-109"/>
      <path d="M 18.109375 8.203125 
L 18.109375 -20.796875 
L 9.078125 -20.796875 
L 9.078125 54.6875 
L 18.109375 54.6875 
L 18.109375 46.390625 
Q 20.953125 51.265625 25.265625 53.625 
Q 29.59375 56 35.59375 56 
Q 45.5625 56 51.78125 48.09375 
Q 58.015625 40.1875 58.015625 27.296875 
Q 58.015625 14.40625 51.78125 6.484375 
Q 45.5625 -1.421875 35.59375 -1.421875 
Q 29.59375 -1.421875 25.265625 0.953125 
Q 20.953125 3.328125 18.109375 8.203125 
z
M 48.6875 27.296875 
Q 48.6875 37.203125 44.609375 42.84375 
Q 40.53125 48.484375 33.40625 48.484375 
Q 26.265625 48.484375 22.1875 42.84375 
Q 18.109375 37.203125 18.109375 27.296875 
Q 18.109375 17.390625 22.1875 11.75 
Q 26.265625 6.109375 33.40625 6.109375 
Q 40.53125 6.109375 44.609375 11.75 
Q 48.6875 17.390625 48.6875 27.296875 
z
" id="DejaVuSans-112"/>
     </defs>
     <g transform="translate(31.795312 228.818769)rotate(-90)scale(0.1 -0.1)">
      <use xlink:href="#DejaVuSans-86"/>
      <use x="68.298828" xlink:href="#DejaVuSans-97"/>
      <use x="129.578125" xlink:href="#DejaVuSans-108"/>
      <use x="157.361328" xlink:href="#DejaVuSans-111"/>
      <use x="218.542969" xlink:href="#DejaVuSans-114"/>
      <use x="259.65625" xlink:href="#DejaVuSans-32"/>
      <use x="291.443359" xlink:href="#DejaVuSans-100"/>
      <use x="354.919922" xlink:href="#DejaVuSans-101"/>
      <use x="416.443359" xlink:href="#DejaVuSans-32"/>
      <use x="448.230469" xlink:href="#DejaVuSans-84"/>
      <use x="509.048828" xlink:href="#DejaVuSans-101"/>
      <use x="570.572266" xlink:href="#DejaVuSans-109"/>
      <use x="667.984375" xlink:href="#DejaVuSans-112"/>
      <use x="731.460938" xlink:href="#DejaVuSans-101"/>
      <use x="792.984375" xlink:href="#DejaVuSans-114"/>
      <use x="834.097656" xlink:href="#DejaVuSans-97"/>
      <use x="895.376953" xlink:href="#DejaVuSans-116"/>
      <use x="934.585938" xlink:href="#DejaVuSans-117"/>
      <use x="997.964844" xlink:href="#DejaVuSans-114"/>
      <use x="1039.078125" xlink:href="#DejaVuSans-97"/>
     </g>
    </g>
   </g>
   <g id="line2d_14">
    <path clip-path="url(#p11b97fa9c8)" d="M 73.832727 259.590046 
L 74.087318 259.590046 
L 74.240073 249.497193 
L 74.290991 249.497193 
L 74.443746 294.2568 
L 74.494664 294.2568 
L 74.647419 273.632275 
L 74.698337 273.632275 
L 74.851092 271.876997 
L 74.90201 271.876997 
L 75.054764 270.121718 
L 75.105683 270.121718 
L 75.258437 277.142833 
L 75.309356 277.142833 
L 75.46211 254.76303 
L 75.513028 254.76303 
L 75.665783 229.750308 
L 75.716701 229.750308 
L 75.869456 177.091948 
L 75.920374 177.091948 
L 76.073129 137.598177 
L 76.124047 137.598177 
L 76.276802 98.543226 
L 76.32772 98.543226 
L 76.480475 87.133915 
L 76.531393 87.133915 
L 76.684147 83.184538 
L 76.735066 83.184538 
L 76.88782 82.745718 
L 76.938738 82.745718 
L 77.091493 86.695095 
L 77.142411 86.695095 
L 77.295166 89.328013 
L 77.346084 89.328013 
L 77.498839 91.083292 
L 77.549757 91.083292 
L 77.702512 79.235161 
L 77.75343 79.235161 
L 77.906185 80.55162 
L 77.957103 80.55162 
L 78.109857 74.846964 
L 78.160776 74.846964 
L 78.31353 71.336407 
L 78.364449 71.336407 
L 78.517203 65.192931 
L 78.568121 65.192931 
L 78.720876 66.94821 
L 78.771794 66.94821 
L 78.924549 70.239357 
L 78.975467 70.239357 
L 79.128222 74.408144 
L 79.17914 74.408144 
L 79.331895 68.703489 
L 79.382813 68.703489 
L 79.535567 67.825849 
L 79.586486 67.825849 
L 79.73924 67.38703 
L 79.790159 67.38703 
L 79.942913 67.825849 
L 79.993831 67.825849 
L 80.146586 67.38703 
L 80.197504 67.38703 
L 80.350259 67.825849 
L 80.401177 67.825849 
L 80.553932 68.264669 
L 80.60485 68.264669 
L 80.757605 67.38703 
L 80.808523 67.38703 
L 80.961278 66.94821 
L 81.215869 66.94821 
L 81.368623 66.07057 
L 81.826887 66.07057 
L 81.979642 65.192931 
L 82.234233 65.192931 
L 82.386988 64.754111 
L 82.641579 64.754111 
L 82.794333 64.315292 
L 82.845252 64.315292 
L 82.998006 65.192931 
L 83.048924 65.192931 
L 83.201679 63.876472 
L 83.252597 63.876472 
L 83.405352 64.315292 
L 83.45627 64.315292 
L 83.609025 63.876472 
L 83.659943 63.876472 
L 83.812698 63.218243 
L 84.270962 63.218243 
L 84.423716 62.560013 
L 84.474634 62.560013 
L 84.627389 62.121193 
L 84.678307 62.121193 
L 84.831062 61.682374 
L 85.289326 61.682374 
L 85.442081 62.121193 
L 85.492999 62.121193 
L 85.645753 61.682374 
L 85.900344 61.682374 
L 86.053099 61.243554 
L 86.104017 61.243554 
L 86.256772 60.365915 
L 86.30769 60.365915 
L 86.460445 60.804734 
L 86.511363 60.804734 
L 86.664118 59.927095 
L 86.715036 59.927095 
L 86.867791 60.365915 
L 86.918709 60.365915 
L 87.071463 59.927095 
L 87.122382 59.927095 
L 87.275136 60.365915 
L 87.7334 60.365915 
L 87.886155 59.927095 
L 88.344419 59.927095 
L 88.497173 59.707685 
L 88.548092 59.707685 
L 88.700846 60.365915 
L 88.751765 60.365915 
L 88.904519 59.707685 
L 89.15911 59.707685 
L 89.311865 59.268866 
L 89.362783 59.268866 
L 89.515538 59.927095 
L 89.566456 59.927095 
L 89.719211 59.707685 
L 89.770129 59.707685 
L 89.922884 59.268866 
L 89.973802 59.268866 
L 90.126556 58.610636 
L 90.177475 58.610636 
L 90.330229 59.707685 
L 90.788493 59.707685 
L 90.941248 58.610636 
L 90.992166 58.610636 
L 91.144921 59.707685 
L 91.195839 59.707685 
L 91.348594 58.610636 
L 91.399512 58.610636 
L 91.552266 59.268866 
L 92.214203 59.268866 
L 92.366958 59.707685 
L 92.417876 59.707685 
L 92.570631 59.268866 
L 92.621549 59.268866 
L 92.774304 59.707685 
L 93.028895 59.707685 
L 93.181649 59.268866 
L 93.232568 59.268866 
L 93.385322 58.610636 
L 93.639913 58.610636 
L 93.792668 58.171816 
L 93.843586 58.171816 
L 93.996341 58.610636 
L 94.047259 58.610636 
L 94.200014 59.268866 
L 94.250932 59.268866 
L 94.403687 58.610636 
L 94.454605 58.610636 
L 94.607359 59.707685 
L 94.658278 59.707685 
L 94.811032 59.268866 
L 94.86195 59.268866 
L 95.014705 58.610636 
L 95.269296 58.610636 
L 95.422051 59.707685 
L 95.880315 59.707685 
L 96.033069 59.268866 
L 96.287661 59.268866 
L 96.440415 59.707685 
L 96.898679 59.707685 
L 97.051434 59.268866 
L 97.306025 59.268866 
L 97.45878 59.927095 
L 97.509698 59.927095 
L 97.662452 59.707685 
L 97.713371 59.707685 
L 97.866125 59.927095 
L 97.917043 59.927095 
L 98.069798 59.707685 
L 98.324389 59.707685 
L 98.477144 59.268866 
L 98.731735 59.268866 
L 98.88449 59.707685 
L 99.139081 59.707685 
L 99.291835 59.268866 
L 100.361118 59.268866 
L 100.513872 58.610636 
L 100.564791 58.610636 
L 100.717545 59.707685 
L 100.768464 59.707685 
L 100.921218 58.610636 
L 100.972136 58.610636 
L 101.124891 59.268866 
L 101.583155 59.268866 
L 101.73591 59.707685 
L 101.786828 59.707685 
L 101.939583 59.268866 
L 102.397846 59.268866 
L 102.550601 59.707685 
L 102.601519 59.707685 
L 102.754274 59.268866 
L 102.805192 59.268866 
L 102.957947 59.927095 
L 103.212538 59.927095 
L 103.365293 59.707685 
L 103.823557 59.707685 
L 103.976311 59.268866 
L 104.434575 59.268866 
L 104.58733 59.707685 
L 105.045594 59.707685 
L 105.198348 59.268866 
L 105.249267 59.268866 
L 105.402021 59.707685 
L 105.452939 59.707685 
L 105.605694 59.268866 
L 106.063958 59.268866 
L 106.216713 58.610636 
L 106.471304 58.610636 
L 106.624058 58.171816 
L 106.674977 58.171816 
L 106.827731 58.610636 
L 107.285995 58.610636 
L 107.43875 58.171816 
L 107.489668 58.171816 
L 107.642423 57.732997 
L 107.897014 57.732997 
L 108.049768 58.171816 
L 108.100687 58.171816 
L 108.253441 57.732997 
L 108.30436 57.732997 
L 108.457114 58.171816 
L 109.526397 58.171816 
L 109.679151 57.732997 
L 110.544761 57.732997 
L 110.697516 56.855357 
L 110.748434 56.855357 
L 110.901189 57.294177 
L 111.563125 57.294177 
L 111.71588 57.732997 
L 111.766798 57.732997 
L 111.919553 57.294177 
L 111.970471 57.294177 
L 112.123226 57.732997 
L 112.174144 57.732997 
L 112.326899 57.294177 
L 112.58149 57.294177 
L 112.734244 56.855357 
L 112.785163 56.855357 
L 112.937917 57.294177 
L 114.0072 57.294177 
L 114.159954 57.732997 
L 114.210873 57.732997 
L 114.363627 57.294177 
L 114.414545 57.294177 
L 114.5673 56.855357 
L 114.618218 56.855357 
L 114.770973 57.294177 
L 115.229237 57.294177 
L 115.381992 56.855357 
L 115.636583 56.855357 
L 115.789337 56.416538 
L 115.840256 56.416538 
L 115.99301 56.855357 
L 116.654947 56.855357 
L 116.807702 57.294177 
L 116.85862 57.294177 
L 117.011374 57.732997 
L 117.062293 57.732997 
L 117.215047 57.294177 
L 117.673311 57.294177 
L 117.826066 57.732997 
L 117.876984 57.732997 
L 118.029739 57.294177 
L 118.28433 57.294177 
L 118.437085 57.732997 
L 118.488003 57.732997 
L 118.640757 57.294177 
L 118.895348 57.294177 
L 119.048103 57.732997 
L 119.302694 57.732997 
L 119.455449 57.294177 
L 119.506367 57.294177 
L 119.659122 57.732997 
L 119.913713 57.732997 
L 120.066467 58.171816 
L 120.117386 58.171816 
L 120.27014 57.732997 
L 120.321059 57.732997 
L 120.473813 58.171816 
L 121.339423 58.171816 
L 121.492177 57.732997 
L 121.543096 57.732997 
L 121.69585 58.171816 
L 121.746769 58.171816 
L 121.899523 58.610636 
L 121.950441 58.610636 
L 122.103196 58.171816 
L 122.154114 58.171816 
L 122.306869 57.732997 
L 122.357787 57.732997 
L 122.510542 58.171816 
L 122.56146 58.171816 
L 122.714215 58.610636 
L 122.968806 58.610636 
L 123.12156 59.268866 
L 123.172479 59.268866 
L 123.325233 58.610636 
L 123.579824 58.610636 
L 123.732579 59.268866 
L 123.783497 59.268866 
L 123.936252 58.610636 
L 123.98717 58.610636 
L 124.139925 59.707685 
L 124.190843 59.707685 
L 124.343598 59.268866 
L 124.394516 59.268866 
L 124.54727 58.610636 
L 124.598189 58.610636 
L 124.750943 59.268866 
L 125.820226 59.268866 
L 125.97298 58.610636 
L 126.023899 58.610636 
L 126.176653 59.268866 
L 126.227572 59.268866 
L 126.380326 59.707685 
L 126.431244 59.707685 
L 126.583999 59.927095 
L 126.634917 59.927095 
L 126.787672 59.707685 
L 127.042263 59.707685 
L 127.195018 59.268866 
L 127.653282 59.268866 
L 127.806036 59.707685 
L 127.856954 59.707685 
L 128.009709 59.927095 
L 128.060627 59.927095 
L 128.213382 59.707685 
L 129.078992 59.707685 
L 129.231746 59.268866 
L 129.486337 59.268866 
L 129.639092 59.707685 
L 129.69001 59.707685 
L 129.842765 59.268866 
L 129.893683 59.268866 
L 130.046438 59.707685 
L 130.097356 59.707685 
L 130.250111 59.927095 
L 130.301029 59.927095 
L 130.453784 59.707685 
L 130.912047 59.707685 
L 131.064802 59.927095 
L 131.11572 59.927095 
L 131.268475 59.707685 
L 131.523066 59.707685 
L 131.675821 59.927095 
L 131.726739 59.927095 
L 131.879494 59.268866 
L 131.930412 59.268866 
L 132.083166 59.927095 
L 132.134085 59.927095 
L 132.286839 59.707685 
L 132.337757 59.707685 
L 132.490512 60.365915 
L 132.54143 60.365915 
L 132.694185 59.707685 
L 132.745103 59.707685 
L 132.897858 59.927095 
L 132.948776 59.927095 
L 133.101531 59.707685 
L 133.356122 59.707685 
L 133.508876 59.927095 
L 133.559795 59.927095 
L 133.712549 59.707685 
L 133.96714 59.707685 
L 134.119895 59.927095 
L 134.170813 59.927095 
L 134.323568 59.707685 
L 134.985505 59.707685 
L 135.138259 59.927095 
L 135.189178 59.927095 
L 135.341932 59.707685 
L 135.596523 59.707685 
L 135.749278 59.927095 
L 135.800196 59.927095 
L 135.952951 59.707685 
L 136.411215 59.707685 
L 136.563969 59.927095 
L 136.614888 59.927095 
L 136.767642 59.707685 
L 136.818561 59.707685 
L 136.971315 59.268866 
L 137.022233 59.268866 
L 137.174988 59.707685 
L 137.633252 59.707685 
L 137.786007 59.268866 
L 138.040598 59.268866 
L 138.193352 59.707685 
L 138.651616 59.707685 
L 138.804371 59.268866 
L 138.855289 59.268866 
L 139.008044 59.707685 
L 139.466308 59.707685 
L 139.619062 59.927095 
L 139.669981 59.927095 
L 139.822735 59.707685 
L 139.873653 59.707685 
L 140.026408 59.268866 
L 140.077326 59.268866 
L 140.230081 59.707685 
L 140.484672 59.707685 
L 140.637427 60.365915 
L 140.688345 60.365915 
L 140.8411 59.707685 
L 141.095691 59.707685 
L 141.248445 59.927095 
L 141.299364 59.927095 
L 141.452118 59.707685 
L 141.503036 59.707685 
L 141.655791 59.268866 
L 141.706709 59.268866 
L 141.859464 59.707685 
L 142.317728 59.707685 
L 142.470482 59.927095 
L 142.521401 59.927095 
L 142.674155 59.707685 
L 143.743438 59.707685 
L 143.896193 59.927095 
L 143.947111 59.927095 
L 144.099865 59.707685 
L 144.354456 59.707685 
L 144.507211 60.365915 
L 144.558129 60.365915 
L 144.710884 59.927095 
L 145.169148 59.927095 
L 145.321903 59.707685 
L 145.576494 59.707685 
L 145.729248 59.927095 
L 146.391185 59.927095 
L 146.54394 60.365915 
L 146.594858 60.365915 
L 146.747613 59.927095 
L 147.002204 59.927095 
L 147.154958 60.365915 
L 147.205877 60.365915 
L 147.358631 59.927095 
L 147.613222 59.927095 
L 147.765977 59.707685 
L 147.816895 59.707685 
L 147.96965 60.365915 
L 148.631587 60.365915 
L 148.784341 59.927095 
L 149.038932 59.927095 
L 149.191687 59.707685 
L 149.242605 59.707685 
L 149.39536 60.365915 
L 150.057297 60.365915 
L 150.210051 59.707685 
L 150.26097 59.707685 
L 150.413724 60.365915 
L 150.871988 60.365915 
L 151.024743 60.804734 
L 151.279334 60.804734 
L 151.432089 60.365915 
L 152.094025 60.365915 
L 152.24678 60.804734 
L 152.297698 60.804734 
L 152.450453 60.365915 
L 152.501371 60.365915 
L 152.654126 60.804734 
L 153.11239 60.804734 
L 153.265144 61.243554 
L 153.927081 61.243554 
L 154.079836 60.804734 
L 155.149118 60.804734 
L 155.301873 61.243554 
L 155.352791 61.243554 
L 155.505546 60.804734 
L 155.96381 60.804734 
L 156.116564 61.243554 
L 156.167483 61.243554 
L 156.320237 60.804734 
L 156.574828 60.804734 
L 156.727583 61.682374 
L 156.778501 61.682374 
L 156.931256 61.243554 
L 156.982174 61.243554 
L 157.134929 60.804734 
L 157.593193 60.804734 
L 157.745947 61.243554 
L 157.796866 61.243554 
L 157.94962 60.804734 
L 158.000538 60.804734 
L 158.153293 61.243554 
L 158.204211 61.243554 
L 158.356966 61.682374 
L 158.407884 61.682374 
L 158.560639 60.804734 
L 158.81523 60.804734 
L 158.967984 61.243554 
L 159.426248 61.243554 
L 159.579003 60.804734 
L 159.629921 60.804734 
L 159.782676 61.682374 
L 159.833594 61.682374 
L 159.986349 60.804734 
L 160.037267 60.804734 
L 160.190022 61.243554 
L 160.851958 61.243554 
L 161.004713 60.804734 
L 161.055631 60.804734 
L 161.208386 61.243554 
L 161.462977 61.243554 
L 161.615732 60.804734 
L 161.870323 60.804734 
L 162.023077 61.243554 
L 162.481341 61.243554 
L 162.634096 60.804734 
L 163.09236 60.804734 
L 163.245115 61.243554 
L 163.296033 61.243554 
L 163.448787 60.804734 
L 163.499706 60.804734 
L 163.65246 61.243554 
L 163.703379 61.243554 
L 163.856133 60.804734 
L 164.110724 60.804734 
L 164.263479 61.243554 
L 164.51807 61.243554 
L 164.670825 60.804734 
L 166.351126 60.804734 
L 166.50388 61.243554 
L 166.554799 61.243554 
L 166.707553 60.804734 
L 167.980509 60.804734 
L 168.133263 61.243554 
L 168.184182 61.243554 
L 168.336936 60.804734 
L 168.591527 60.804734 
L 168.744282 61.243554 
L 168.998873 61.243554 
L 169.151628 60.804734 
L 169.609892 60.804734 
L 169.762646 61.243554 
L 170.22091 61.243554 
L 170.373665 60.365915 
L 170.424583 60.365915 
L 170.577338 60.804734 
L 170.628256 60.804734 
L 170.781011 61.243554 
L 171.035602 61.243554 
L 171.188356 60.804734 
L 172.053966 60.804734 
L 172.206721 61.243554 
L 172.257639 61.243554 
L 172.410394 60.804734 
L 172.868657 60.804734 
L 173.021412 61.243554 
L 173.07233 61.243554 
L 173.225085 60.804734 
L 173.276003 60.804734 
L 173.428758 61.243554 
L 173.683349 61.243554 
L 173.836104 60.365915 
L 173.887022 60.365915 
L 174.039776 60.804734 
L 174.905386 60.804734 
L 175.058141 60.365915 
L 176.127423 60.365915 
L 176.280178 60.804734 
L 176.331096 60.804734 
L 176.483851 59.927095 
L 176.534769 59.927095 
L 176.687524 60.365915 
L 176.738442 60.365915 
L 176.891197 59.927095 
L 176.942115 59.927095 
L 177.094869 60.365915 
L 177.145788 60.365915 
L 177.298542 59.927095 
L 177.553133 59.927095 
L 177.705888 60.365915 
L 178.164152 60.365915 
L 178.316907 59.927095 
L 178.367825 59.927095 
L 178.520579 60.365915 
L 178.775171 60.365915 
L 178.927925 59.927095 
L 178.978843 59.927095 
L 179.131598 60.365915 
L 179.182516 60.365915 
L 179.335271 59.927095 
L 179.793535 59.927095 
L 179.946289 60.365915 
L 179.997208 60.365915 
L 180.149962 59.927095 
L 180.404553 59.927095 
L 180.557308 59.707685 
L 180.811899 59.707685 
L 180.964654 59.268866 
L 181.015572 59.268866 
L 181.168327 59.927095 
L 181.219245 59.927095 
L 181.372 59.707685 
L 181.830263 59.707685 
L 181.983018 59.927095 
L 182.033936 59.927095 
L 182.186691 59.707685 
L 182.237609 59.707685 
L 182.390364 59.268866 
L 182.441282 59.268866 
L 182.594037 59.707685 
L 182.644955 59.707685 
L 182.79771 59.927095 
L 183.052301 59.927095 
L 183.205055 59.268866 
L 183.255974 59.268866 
L 183.408728 59.707685 
L 184.274338 59.707685 
L 184.427093 58.610636 
L 184.478011 58.610636 
L 184.630765 59.268866 
L 185.903721 59.268866 
L 186.056475 59.707685 
L 186.107394 59.707685 
L 186.260148 59.268866 
L 186.514739 59.268866 
L 186.667494 59.707685 
L 186.718412 59.707685 
L 186.871167 59.268866 
L 187.125758 59.268866 
L 187.278513 59.707685 
L 187.329431 59.707685 
L 187.482185 59.268866 
L 187.533104 59.268866 
L 187.685858 59.707685 
L 189.162487 59.707685 
L 189.315241 59.268866 
L 189.366159 59.268866 
L 189.518914 59.707685 
L 190.384524 59.707685 
L 190.537278 59.927095 
L 190.588197 59.927095 
L 190.740951 59.707685 
L 191.199215 59.707685 
L 191.35197 59.927095 
L 192.013907 59.927095 
L 192.166661 59.707685 
L 192.624925 59.707685 
L 192.77768 59.927095 
L 193.032271 59.927095 
L 193.185026 59.707685 
L 193.235944 59.707685 
L 193.388699 59.927095 
L 193.64329 59.927095 
L 193.796044 59.707685 
L 193.846962 59.707685 
L 193.999717 59.927095 
L 194.457981 59.927095 
L 194.610736 59.707685 
L 194.661654 59.707685 
L 194.814409 59.927095 
L 194.865327 59.927095 
L 195.018081 59.707685 
L 195.069 59.707685 
L 195.221754 59.927095 
L 195.272673 59.927095 
L 195.425427 59.707685 
L 195.476345 59.707685 
L 195.6291 60.365915 
L 195.680018 60.365915 
L 195.832773 59.927095 
L 196.087364 59.927095 
L 196.240119 59.707685 
L 196.291037 59.707685 
L 196.443791 59.927095 
L 196.698383 59.927095 
L 196.851137 59.707685 
L 197.309401 59.707685 
L 197.462156 60.365915 
L 197.513074 60.365915 
L 197.665829 59.927095 
L 197.92042 59.927095 
L 198.073174 59.707685 
L 198.124093 59.707685 
L 198.276847 60.365915 
L 198.327765 60.365915 
L 198.48052 59.927095 
L 198.531438 59.927095 
L 198.684193 60.804734 
L 198.735111 60.804734 
L 198.887866 60.365915 
L 199.34613 60.365915 
L 199.498884 59.927095 
L 199.549803 59.927095 
L 199.702557 61.243554 
L 199.753476 61.243554 
L 199.90623 59.927095 
L 199.957148 59.927095 
L 200.109903 60.804734 
L 200.160821 60.804734 
L 200.313576 60.365915 
L 200.364494 60.365915 
L 200.517249 60.804734 
L 200.568167 60.804734 
L 200.720922 60.365915 
L 200.77184 60.365915 
L 200.924595 60.804734 
L 200.975513 60.804734 
L 201.128267 60.365915 
L 201.179186 60.365915 
L 201.33194 60.804734 
L 201.993877 60.804734 
L 202.146632 61.243554 
L 202.401223 61.243554 
L 202.553977 60.804734 
L 202.604896 60.804734 
L 202.75765 61.243554 
L 203.215914 61.243554 
L 203.368669 61.682374 
L 203.419587 61.682374 
L 203.572342 61.243554 
L 204.030606 61.243554 
L 204.18336 61.682374 
L 204.234279 61.682374 
L 204.387033 60.804734 
L 204.437951 60.804734 
L 204.590706 61.243554 
L 205.04897 61.243554 
L 205.201725 61.682374 
L 205.252643 61.682374 
L 205.405398 61.243554 
L 205.863661 61.243554 
L 206.016416 62.121193 
L 206.271007 62.121193 
L 206.423762 61.682374 
L 206.678353 61.682374 
L 206.831108 62.121193 
L 207.289372 62.121193 
L 207.442126 61.682374 
L 207.493044 61.682374 
L 207.645799 62.560013 
L 207.696717 62.560013 
L 207.849472 61.682374 
L 207.90039 61.682374 
L 208.053145 62.121193 
L 208.104063 62.121193 
L 208.256818 62.560013 
L 208.307736 62.560013 
L 208.46049 61.682374 
L 208.511409 61.682374 
L 208.664163 62.560013 
L 208.715082 62.560013 
L 208.867836 62.121193 
L 208.918754 62.121193 
L 209.071509 61.682374 
L 209.3261 61.682374 
L 209.478855 62.560013 
L 210.75181 62.560013 
L 210.904565 63.218243 
L 210.955483 63.218243 
L 211.108238 62.121193 
L 211.159156 62.121193 
L 211.311911 62.560013 
L 211.362829 62.560013 
L 211.515583 63.218243 
L 211.566502 63.218243 
L 211.719256 62.560013 
L 211.770175 62.560013 
L 211.922929 63.218243 
L 212.17752 63.218243 
L 212.330275 62.560013 
L 212.381193 62.560013 
L 212.533948 63.218243 
L 212.788539 63.218243 
L 212.941293 62.121193 
L 212.992212 62.121193 
L 213.144966 63.218243 
L 213.399557 63.218243 
L 213.552312 62.560013 
L 213.60323 62.560013 
L 213.755985 63.218243 
L 214.417922 63.218243 
L 214.570676 62.560013 
L 214.621595 62.560013 
L 214.774349 63.218243 
L 215.232613 63.218243 
L 215.385368 62.560013 
L 215.639959 62.560013 
L 215.792714 63.437652 
L 215.843632 63.437652 
L 215.996386 62.560013 
L 216.047305 62.560013 
L 216.200059 63.218243 
L 216.250978 63.218243 
L 216.403732 62.560013 
L 216.45465 62.560013 
L 216.607405 63.218243 
L 217.065669 63.218243 
L 217.218424 62.560013 
L 217.269342 62.560013 
L 217.422096 63.218243 
L 217.88036 63.218243 
L 218.033115 62.560013 
L 218.287706 62.560013 
L 218.440461 63.218243 
L 219.30607 63.218243 
L 219.458825 62.560013 
L 219.509743 62.560013 
L 219.662498 63.218243 
L 219.713416 63.218243 
L 219.866171 62.560013 
L 219.917089 62.560013 
L 220.069844 63.218243 
L 221.546472 63.218243 
L 221.699227 62.560013 
L 221.750145 62.560013 
L 221.9029 63.218243 
L 222.564836 63.218243 
L 222.717591 62.560013 
L 222.972182 62.560013 
L 223.124937 62.121193 
L 223.379528 62.121193 
L 223.532282 62.560013 
L 223.583201 62.560013 
L 223.735955 62.121193 
L 223.786874 62.121193 
L 223.939628 61.682374 
L 223.990546 61.682374 
L 224.143301 62.121193 
L 224.601565 62.121193 
L 224.75432 61.682374 
L 225.619929 61.682374 
L 225.772684 61.243554 
L 225.823602 61.243554 
L 225.976357 61.682374 
L 226.027275 61.682374 
L 226.18003 61.243554 
L 226.841966 61.243554 
L 226.994721 60.804734 
L 227.045639 60.804734 
L 227.198394 61.243554 
L 227.656658 61.243554 
L 227.809413 60.804734 
L 228.064004 60.804734 
L 228.216758 61.243554 
L 228.267677 61.243554 
L 228.420431 60.804734 
L 228.675022 60.804734 
L 228.827777 61.243554 
L 229.082368 61.243554 
L 229.235123 60.804734 
L 229.286041 60.804734 
L 229.438795 60.365915 
L 229.693387 60.365915 
L 229.846141 60.804734 
L 231.322769 60.804734 
L 231.475524 61.243554 
L 231.526442 61.243554 
L 231.679197 60.804734 
L 231.730115 60.804734 
L 231.88287 60.365915 
L 232.137461 60.365915 
L 232.290216 60.804734 
L 232.74848 60.804734 
L 232.901234 61.243554 
L 232.952152 61.243554 
L 233.104907 60.804734 
L 233.155825 60.804734 
L 233.30858 61.243554 
L 233.359498 61.243554 
L 233.512253 60.365915 
L 233.563171 60.365915 
L 233.715926 60.804734 
L 233.766844 60.804734 
L 233.919598 61.243554 
L 233.970517 61.243554 
L 234.123271 60.804734 
L 234.17419 60.804734 
L 234.326944 61.243554 
L 234.377862 61.243554 
L 234.530617 60.804734 
L 235.5999 60.804734 
L 235.752654 61.243554 
L 235.803572 61.243554 
L 235.956327 60.804734 
L 237.432955 60.804734 
L 237.58571 61.243554 
L 237.636628 61.243554 
L 237.789383 60.804734 
L 238.043974 60.804734 
L 238.196729 61.243554 
L 238.654993 61.243554 
L 238.807747 60.804734 
L 238.858665 60.804734 
L 239.01142 60.365915 
L 239.062338 60.365915 
L 239.215093 60.804734 
L 239.266011 60.804734 
L 239.418766 60.365915 
L 239.469684 60.365915 
L 239.622439 61.243554 
L 239.673357 61.243554 
L 239.826112 60.804734 
L 241.30274 60.804734 
L 241.455494 60.365915 
L 241.506413 60.365915 
L 241.659167 60.804734 
L 241.710086 60.804734 
L 241.86284 60.365915 
L 241.913758 60.365915 
L 242.066513 60.804734 
L 242.117431 60.804734 
L 242.270186 60.365915 
L 243.339468 60.365915 
L 243.492223 60.804734 
L 243.950487 60.804734 
L 244.103242 60.365915 
L 244.15416 60.365915 
L 244.306915 60.804734 
L 244.765179 60.804734 
L 244.917933 60.365915 
L 245.376197 60.365915 
L 245.528952 60.804734 
L 245.57987 60.804734 
L 245.732625 60.365915 
L 245.783543 60.365915 
L 245.936297 60.804734 
L 247.412926 60.804734 
L 247.56568 61.243554 
L 247.820271 61.243554 
L 247.973026 60.804734 
L 248.023944 60.804734 
L 248.176699 61.243554 
L 248.43129 61.243554 
L 248.584045 60.804734 
L 248.634963 60.804734 
L 248.787718 61.243554 
L 249.042309 61.243554 
L 249.195063 60.804734 
L 249.245982 60.804734 
L 249.398736 61.243554 
L 249.653327 61.243554 
L 249.806082 60.804734 
L 250.060673 60.804734 
L 250.213428 61.243554 
L 250.671692 61.243554 
L 250.824446 60.804734 
L 251.486383 60.804734 
L 251.639138 61.243554 
L 252.301074 61.243554 
L 252.453829 60.804734 
L 252.504747 60.804734 
L 252.657502 61.243554 
L 253.115766 61.243554 
L 253.268521 60.804734 
L 253.319439 60.804734 
L 253.472193 61.243554 
L 253.726785 61.243554 
L 253.879539 60.804734 
L 253.930457 60.804734 
L 254.083212 61.682374 
L 254.337803 61.682374 
L 254.490558 60.804734 
L 254.541476 60.804734 
L 254.694231 61.243554 
L 255.152495 61.243554 
L 255.305249 60.804734 
L 255.356167 60.804734 
L 255.508922 61.243554 
L 255.967186 61.243554 
L 256.119941 61.682374 
L 256.374532 61.682374 
L 256.527286 61.243554 
L 256.578205 61.243554 
L 256.730959 60.804734 
L 256.781877 60.804734 
L 256.934632 61.682374 
L 256.98555 61.682374 
L 257.138305 61.243554 
L 257.189223 61.243554 
L 257.341978 60.804734 
L 258.003915 60.804734 
L 258.156669 61.243554 
L 258.207588 61.243554 
L 258.360342 60.804734 
L 258.41126 60.804734 
L 258.564015 61.243554 
L 258.614933 61.243554 
L 258.767688 60.804734 
L 258.818606 60.804734 
L 258.971361 61.243554 
L 259.022279 61.243554 
L 259.175034 60.804734 
L 260.447989 60.804734 
L 260.600744 60.365915 
L 260.651662 60.365915 
L 260.804417 60.804734 
L 261.059008 60.804734 
L 261.211762 61.243554 
L 261.466353 61.243554 
L 261.619108 60.804734 
L 262.077372 60.804734 
L 262.230127 60.365915 
L 262.281045 60.365915 
L 262.433799 61.243554 
L 262.484718 61.243554 
L 262.637472 60.804734 
L 263.095736 60.804734 
L 263.248491 61.243554 
L 263.503082 61.243554 
L 263.655837 60.365915 
L 263.706755 60.365915 
L 263.85951 61.243554 
L 263.910428 61.243554 
L 264.063182 60.804734 
L 265.132465 60.804734 
L 265.28522 61.243554 
L 265.336138 61.243554 
L 265.488892 60.365915 
L 265.539811 60.365915 
L 265.692565 60.804734 
L 265.743484 60.804734 
L 265.896238 60.365915 
L 266.150829 60.365915 
L 266.303584 60.804734 
L 266.354502 60.804734 
L 266.507257 60.365915 
L 266.558175 60.365915 
L 266.71093 60.804734 
L 266.761848 60.804734 
L 266.914602 60.365915 
L 266.965521 60.365915 
L 267.118275 60.804734 
L 267.169194 60.804734 
L 267.321948 60.365915 
L 267.372866 60.365915 
L 267.525621 60.804734 
L 267.576539 60.804734 
L 267.729294 60.365915 
L 268.391231 60.365915 
L 268.543985 59.927095 
L 268.594904 59.927095 
L 268.747658 60.365915 
L 268.798576 60.365915 
L 268.951331 59.927095 
L 269.002249 59.927095 
L 269.155004 60.804734 
L 269.205922 60.804734 
L 269.358677 60.365915 
L 269.409595 60.365915 
L 269.56235 59.927095 
L 270.631632 59.927095 
L 270.784387 60.365915 
L 270.835305 60.365915 
L 270.98806 59.927095 
L 271.038978 59.927095 
L 271.191733 59.707685 
L 271.242651 59.707685 
L 271.395405 59.927095 
L 271.446324 59.927095 
L 271.599078 59.707685 
L 272.261015 59.707685 
L 272.41377 59.927095 
L 272.464688 59.927095 
L 272.617443 59.268866 
L 272.668361 59.268866 
L 272.821116 59.927095 
L 273.483052 59.927095 
L 273.635807 59.707685 
L 273.890398 59.707685 
L 274.043153 59.927095 
L 275.112435 59.927095 
L 275.26519 59.707685 
L 275.519781 59.707685 
L 275.672536 59.268866 
L 275.723454 59.268866 
L 275.876209 59.707685 
L 276.538145 59.707685 
L 276.6909 59.927095 
L 276.741818 59.927095 
L 276.894573 59.268866 
L 276.945491 59.268866 
L 277.098246 59.707685 
L 277.149164 59.707685 
L 277.301919 60.365915 
L 277.352837 60.365915 
L 277.505591 59.707685 
L 277.760183 59.707685 
L 277.912937 59.927095 
L 277.963855 59.927095 
L 278.11661 59.707685 
L 278.371201 59.707685 
L 278.523956 60.365915 
L 278.98222 60.365915 
L 279.134974 59.927095 
L 279.185893 59.927095 
L 279.338647 60.365915 
L 279.593238 60.365915 
L 279.745993 60.804734 
L 279.796911 60.804734 
L 279.949666 60.365915 
L 280.204257 60.365915 
L 280.357012 60.804734 
L 280.611603 60.804734 
L 280.764357 60.365915 
L 281.018948 60.365915 
L 281.171703 60.804734 
L 281.222621 60.804734 
L 281.375376 60.365915 
L 281.426294 60.365915 
L 281.579049 61.243554 
L 281.629967 61.243554 
L 281.782722 61.682374 
L 281.83364 61.682374 
L 281.986394 61.243554 
L 282.444658 61.243554 
L 282.597413 61.682374 
L 282.648331 61.682374 
L 282.801086 61.243554 
L 282.852004 61.243554 
L 283.004759 61.682374 
L 283.25935 61.682374 
L 283.412104 60.804734 
L 283.463023 60.804734 
L 283.615777 61.243554 
L 283.666696 61.243554 
L 283.81945 61.682374 
L 283.870368 61.682374 
L 284.023123 61.243554 
L 284.888733 61.243554 
L 285.041487 61.682374 
L 285.092406 61.682374 
L 285.24516 61.243554 
L 285.296078 61.243554 
L 285.448833 61.682374 
L 285.907097 61.682374 
L 286.059852 62.121193 
L 286.11077 62.121193 
L 286.263525 61.682374 
L 286.925461 61.682374 
L 287.078216 62.121193 
L 287.129134 62.121193 
L 287.281889 61.682374 
L 287.332807 61.682374 
L 287.485562 62.121193 
L 287.943826 62.121193 
L 288.09658 61.682374 
L 288.147499 61.682374 
L 288.300253 62.560013 
L 288.351171 62.560013 
L 288.503926 62.121193 
L 288.554844 62.121193 
L 288.707599 62.560013 
L 288.758517 62.560013 
L 288.911272 62.121193 
L 289.369536 62.121193 
L 289.52229 63.218243 
L 289.776881 63.218243 
L 289.929636 62.121193 
L 289.980554 62.121193 
L 290.133309 62.560013 
L 290.184227 62.560013 
L 290.336982 61.682374 
L 290.3879 61.682374 
L 290.540655 62.560013 
L 290.591573 62.560013 
L 290.744328 61.682374 
L 290.795246 61.682374 
L 290.948 61.243554 
L 290.998919 61.243554 
L 291.151673 61.682374 
L 291.202592 61.682374 
L 291.355346 61.243554 
L 291.609937 61.243554 
L 291.762692 61.682374 
L 291.81361 61.682374 
L 291.966365 60.804734 
L 292.017283 60.804734 
L 292.170038 61.243554 
L 292.220956 61.243554 
L 292.373711 60.804734 
L 292.628302 60.804734 
L 292.781056 59.927095 
L 292.831974 59.927095 
L 292.984729 60.365915 
L 293.23932 60.365915 
L 293.392075 59.927095 
L 293.442993 59.927095 
L 293.595748 60.365915 
L 294.054012 60.365915 
L 294.206766 59.927095 
L 294.461357 59.927095 
L 294.614112 59.707685 
L 294.66503 59.707685 
L 294.817785 59.927095 
L 295.072376 59.927095 
L 295.225131 59.707685 
L 297.720123 59.707685 
L 297.872878 59.268866 
L 298.127469 59.268866 
L 298.280224 59.707685 
L 298.331142 59.707685 
L 298.483896 59.268866 
L 298.534815 59.268866 
L 298.687569 59.707685 
L 299.145833 59.707685 
L 299.298588 59.268866 
L 299.349506 59.268866 
L 299.502261 59.707685 
L 299.756852 59.707685 
L 299.909606 59.268866 
L 299.960525 59.268866 
L 300.113279 59.707685 
L 300.164198 59.707685 
L 300.316952 59.268866 
L 300.36787 59.268866 
L 300.520625 59.707685 
L 300.571543 59.707685 
L 300.724298 58.610636 
L 300.775216 58.610636 
L 300.927971 59.268866 
L 301.182562 59.268866 
L 301.335317 58.171816 
L 301.386235 58.171816 
L 301.538989 58.610636 
L 301.79358 58.610636 
L 301.946335 59.268866 
L 302.404599 59.268866 
L 302.557354 58.610636 
L 302.811945 58.610636 
L 302.964699 58.171816 
L 303.422963 58.171816 
L 303.575718 58.610636 
L 304.033982 58.610636 
L 304.186737 58.171816 
L 304.237655 58.171816 
L 304.390409 58.610636 
L 304.441328 58.610636 
L 304.594082 59.268866 
L 304.645001 59.268866 
L 304.797755 58.171816 
L 304.848673 58.171816 
L 305.001428 59.268866 
L 305.052346 59.268866 
L 305.205101 57.732997 
L 305.256019 57.732997 
L 305.408774 58.171816 
L 305.459692 58.171816 
L 305.612447 58.610636 
L 305.663365 58.610636 
L 305.81612 58.171816 
L 306.070711 58.171816 
L 306.223465 58.610636 
L 306.274383 58.610636 
L 306.427138 58.171816 
L 307.089075 58.171816 
L 307.24183 58.610636 
L 307.292748 58.610636 
L 307.445502 57.732997 
L 307.496421 57.732997 
L 307.649175 58.610636 
L 307.700094 58.610636 
L 307.852848 59.268866 
L 307.903766 59.268866 
L 308.056521 58.171816 
L 308.311112 58.171816 
L 308.463867 58.610636 
L 309.125804 58.610636 
L 309.278558 57.732997 
L 309.329476 57.732997 
L 309.482231 58.171816 
L 309.533149 58.171816 
L 309.685904 58.610636 
L 309.736822 58.610636 
L 309.889577 58.171816 
L 309.940495 58.171816 
L 310.09325 57.732997 
L 310.551514 57.732997 
L 310.704268 58.171816 
L 310.755186 58.171816 
L 310.907941 57.732997 
L 310.958859 57.732997 
L 311.111614 58.171816 
L 311.569878 58.171816 
L 311.722633 57.732997 
L 311.977224 57.732997 
L 312.129978 58.610636 
L 312.180897 58.610636 
L 312.333651 58.171816 
L 312.384569 58.171816 
L 312.537324 57.294177 
L 312.588242 57.294177 
L 312.740997 57.732997 
L 312.791915 57.732997 
L 312.94467 58.171816 
L 312.995588 58.171816 
L 313.148343 57.732997 
L 313.199261 57.732997 
L 313.352016 58.171816 
L 313.402934 58.171816 
L 313.555688 57.732997 
L 313.606607 57.732997 
L 313.759361 58.171816 
L 314.013952 58.171816 
L 314.166707 57.732997 
L 314.421298 57.732997 
L 314.574053 58.171816 
L 315.032317 58.171816 
L 315.185071 57.294177 
L 315.23599 57.294177 
L 315.388744 58.171816 
L 316.254354 58.171816 
L 316.407108 57.732997 
L 316.458027 57.732997 
L 316.610781 58.171816 
L 316.6617 58.171816 
L 316.814454 57.732997 
L 317.069045 57.732997 
L 317.2218 58.171816 
L 317.272718 58.171816 
L 317.425473 57.294177 
L 317.680064 57.294177 
L 317.832819 57.732997 
L 317.883737 57.732997 
L 318.036491 57.294177 
L 318.291082 57.294177 
L 318.443837 57.732997 
L 318.698428 57.732997 
L 318.851183 58.171816 
L 318.902101 58.171816 
L 319.054856 57.732997 
L 319.716793 57.732997 
L 319.869547 57.294177 
L 319.920465 57.294177 
L 320.07322 57.732997 
L 320.124138 57.732997 
L 320.276893 57.294177 
L 320.531484 57.294177 
L 320.684239 56.855357 
L 320.735157 56.855357 
L 320.887911 57.294177 
L 321.142503 57.294177 
L 321.295257 57.732997 
L 321.346175 57.732997 
L 321.49893 57.294177 
L 321.549848 57.294177 
L 321.702603 57.732997 
L 322.160867 57.732997 
L 322.313622 57.294177 
L 322.975558 57.294177 
L 323.128313 56.855357 
L 323.179231 56.855357 
L 323.331986 56.416538 
L 323.382904 56.416538 
L 323.535659 56.855357 
L 323.586577 56.855357 
L 323.739332 57.294177 
L 323.993923 57.294177 
L 324.146677 56.855357 
L 324.401268 56.855357 
L 324.554023 56.416538 
L 324.604941 56.416538 
L 324.757696 56.855357 
L 324.808614 56.855357 
L 324.961369 56.416538 
L 325.012287 56.416538 
L 325.165042 56.855357 
L 325.21596 56.855357 
L 325.368714 56.416538 
L 325.623306 56.416538 
L 325.77606 56.855357 
L 326.030651 56.855357 
L 326.183406 57.294177 
L 326.234324 57.294177 
L 326.387079 56.855357 
L 326.845343 56.855357 
L 326.998097 56.416538 
L 327.049016 56.416538 
L 327.20177 56.855357 
L 327.252688 56.855357 
L 327.405443 56.416538 
L 327.660034 56.416538 
L 327.812789 56.855357 
L 327.863707 56.855357 
L 328.016462 57.294177 
L 328.06738 57.294177 
L 328.220135 56.416538 
L 328.882071 56.416538 
L 329.034826 57.294177 
L 329.085744 57.294177 
L 329.238499 56.416538 
L 329.696763 56.416538 
L 329.849518 56.855357 
L 329.900436 56.855357 
L 330.05319 56.416538 
L 330.104109 56.416538 
L 330.256863 55.758308 
L 330.307781 55.758308 
L 330.460536 56.416538 
L 330.511454 56.416538 
L 330.664209 55.977718 
L 330.715127 55.977718 
L 330.867882 56.416538 
L 331.326146 56.416538 
L 331.4789 56.855357 
L 331.529819 56.855357 
L 331.682573 56.416538 
L 332.955529 56.416538 
L 333.108283 55.977718 
L 333.159202 55.977718 
L 333.311956 56.416538 
L 333.566547 56.416538 
L 333.719302 55.977718 
L 333.77022 55.977718 
L 333.922975 56.416538 
L 334.381239 56.416538 
L 334.533993 56.855357 
L 334.584912 56.855357 
L 334.737666 55.977718 
L 335.806949 55.977718 
L 335.959703 56.416538 
L 336.214295 56.416538 
L 336.367049 55.977718 
L 336.62164 55.977718 
L 336.774395 56.416538 
L 336.825313 56.416538 
L 336.978068 55.977718 
L 337.436332 55.977718 
L 337.589086 56.416538 
L 337.640005 56.416538 
L 337.792759 55.977718 
L 338.454696 55.977718 
L 338.607451 56.416538 
L 338.658369 56.416538 
L 338.811124 55.977718 
L 338.862042 55.977718 
L 339.014796 55.758308 
L 339.065715 55.758308 
L 339.218469 55.977718 
L 340.287752 55.977718 
L 340.440506 56.416538 
L 340.491425 56.416538 
L 340.644179 55.977718 
L 340.89877 55.977718 
L 341.051525 56.416538 
L 341.509789 56.416538 
L 341.662544 55.977718 
L 341.713462 55.977718 
L 341.866216 56.416538 
L 341.917135 56.416538 
L 342.069889 55.977718 
L 342.120808 55.977718 
L 342.273562 56.416538 
L 342.32448 56.416538 
L 342.477235 55.977718 
L 342.731826 55.977718 
L 342.884581 56.416538 
L 343.342845 56.416538 
L 343.495599 55.977718 
L 343.546518 55.977718 
L 343.699272 56.416538 
L 344.157536 56.416538 
L 344.310291 55.977718 
L 344.361209 55.977718 
L 344.513964 56.416538 
L 344.972228 56.416538 
L 345.124982 55.977718 
L 345.583246 55.977718 
L 345.736001 56.416538 
L 345.786919 56.416538 
L 345.939674 55.977718 
L 346.194265 55.977718 
L 346.34702 56.416538 
L 346.397938 56.416538 
L 346.550692 55.977718 
L 346.601611 55.977718 
L 346.754365 56.416538 
L 346.805283 56.416538 
L 346.958038 55.977718 
L 347.008956 55.977718 
L 347.161711 56.855357 
L 349.249358 56.855357 
L 349.402112 57.294177 
L 349.656704 57.294177 
L 349.809458 56.855357 
L 350.064049 56.855357 
L 350.216804 57.294177 
L 350.471395 57.294177 
L 350.62415 56.855357 
L 350.675068 56.855357 
L 350.827823 57.294177 
L 350.878741 57.294177 
L 351.031495 56.855357 
L 351.082414 56.855357 
L 351.235168 57.294177 
L 351.489759 57.294177 
L 351.642514 56.855357 
L 351.693432 56.855357 
L 351.846187 57.294177 
L 351.897105 57.294177 
L 352.04986 56.416538 
L 352.100778 56.416538 
L 352.253533 57.294177 
L 352.304451 57.294177 
L 352.457205 56.855357 
L 352.711797 56.855357 
L 352.864551 57.294177 
L 352.915469 57.294177 
L 353.068224 56.855357 
L 353.119142 56.855357 
L 353.271897 57.294177 
L 353.322815 57.294177 
L 353.47557 56.855357 
L 353.526488 56.855357 
L 353.679243 57.294177 
L 353.730161 57.294177 
L 353.882915 56.855357 
L 353.933834 56.855357 
L 354.086588 57.294177 
L 354.137507 57.294177 
L 354.290261 56.855357 
L 354.341179 56.855357 
L 354.493934 57.732997 
L 354.544852 57.732997 
L 354.697607 57.294177 
L 354.952198 57.294177 
L 355.104953 57.732997 
L 355.155871 57.732997 
L 355.308626 57.294177 
L 355.359544 57.294177 
L 355.512298 56.855357 
L 355.563217 56.855357 
L 355.715971 57.294177 
L 355.766889 57.294177 
L 355.919644 56.855357 
L 355.970562 56.855357 
L 356.123317 57.294177 
L 357.599945 57.294177 
L 357.7527 57.732997 
L 358.007291 57.732997 
L 358.160046 57.294177 
L 358.414637 57.294177 
L 358.567391 57.732997 
L 358.61831 57.732997 
L 358.771064 56.855357 
L 359.025655 56.855357 
L 359.17841 57.294177 
L 360.247692 57.294177 
L 360.400447 57.732997 
L 360.451365 57.732997 
L 360.60412 58.171816 
L 360.655038 58.171816 
L 360.807793 57.294177 
L 361.062384 57.294177 
L 361.215139 57.732997 
L 361.266057 57.732997 
L 361.418811 57.294177 
L 361.877075 57.294177 
L 362.02983 56.855357 
L 362.080748 56.855357 
L 362.233503 57.294177 
L 362.691767 57.294177 
L 362.844522 56.855357 
L 363.099113 56.855357 
L 363.251867 57.732997 
L 363.302785 57.732997 
L 363.45554 57.294177 
L 363.710131 57.294177 
L 363.862886 56.855357 
L 363.913804 56.855357 
L 364.066559 57.294177 
L 364.524823 57.294177 
L 364.677577 56.855357 
L 364.728495 56.855357 
L 364.88125 57.294177 
L 364.932168 57.294177 
L 365.084923 56.855357 
L 365.339514 56.855357 
L 365.492269 57.294177 
L 365.543187 57.294177 
L 365.695942 56.855357 
L 365.74686 56.855357 
L 365.899614 57.294177 
L 365.950533 57.294177 
L 366.103287 56.855357 
L 366.154206 56.855357 
L 366.30696 56.416538 
L 366.357878 56.416538 
L 366.510633 57.294177 
L 366.561551 57.294177 
L 366.714306 56.416538 
L 366.765224 56.416538 
L 366.917979 56.855357 
L 366.968897 56.855357 
L 367.121652 56.416538 
L 367.17257 56.416538 
L 367.325325 57.294177 
L 367.376243 57.294177 
L 367.528997 56.416538 
L 367.987261 56.416538 
L 368.140016 55.977718 
L 368.190934 55.977718 
L 368.343689 56.855357 
L 368.394607 56.855357 
L 368.547362 56.416538 
L 368.59828 56.416538 
L 368.751035 56.855357 
L 369.412971 56.855357 
L 369.565726 55.977718 
L 369.616644 55.977718 
L 369.769399 56.855357 
L 369.820317 56.855357 
L 369.973072 56.416538 
L 370.02399 56.416538 
L 370.176745 56.855357 
L 370.227663 56.855357 
L 370.380417 56.416538 
L 371.246027 56.416538 
L 371.398782 55.977718 
L 372.87541 55.977718 
L 373.028165 56.416538 
L 373.079083 56.416538 
L 373.231838 55.977718 
L 373.282756 55.977718 
L 373.43551 55.758308 
L 373.690102 55.758308 
L 373.842856 55.977718 
L 373.893774 55.977718 
L 374.046529 55.758308 
L 374.097447 55.758308 
L 374.250202 55.977718 
L 374.504793 55.977718 
L 374.657548 56.416538 
L 374.708466 56.416538 
L 374.86122 55.758308 
L 375.115812 55.758308 
L 375.268566 55.977718 
L 375.523157 55.977718 
L 375.675912 55.758308 
L 375.72683 55.758308 
L 375.879585 55.100079 
L 375.930503 55.100079 
L 376.083258 55.758308 
L 376.337849 55.758308 
L 376.490603 55.100079 
L 377.356213 55.100079 
L 377.508968 55.758308 
L 377.559886 55.758308 
L 377.712641 55.100079 
L 378.170905 55.100079 
L 378.323659 55.758308 
L 378.374577 55.758308 
L 378.527332 54.661259 
L 378.57825 54.661259 
L 378.731005 55.100079 
L 378.985596 55.100079 
L 379.138351 54.661259 
L 379.392942 54.661259 
L 379.545696 55.100079 
L 379.800287 55.100079 
L 379.953042 54.661259 
L 381.022325 54.661259 
L 381.175079 54.222439 
L 381.225997 54.222439 
L 381.378752 54.661259 
L 381.42967 54.661259 
L 381.582425 54.222439 
L 381.633343 54.222439 
L 381.786098 54.661259 
L 382.244362 54.661259 
L 382.397116 54.222439 
L 382.651708 54.222439 
L 382.804462 54.661259 
L 383.059053 54.661259 
L 383.211808 54.222439 
L 383.466399 54.222439 
L 383.619154 53.78362 
L 383.670072 53.78362 
L 383.822827 54.222439 
L 384.892109 54.222439 
L 385.044864 54.661259 
L 385.095782 54.661259 
L 385.248537 54.222439 
L 385.503128 54.222439 
L 385.655882 54.661259 
L 385.706801 54.661259 
L 385.859555 54.222439 
L 386.114146 54.222439 
L 386.266901 54.661259 
L 386.521492 54.661259 
L 386.674247 54.222439 
L 386.725165 54.222439 
L 386.877919 53.3448 
L 386.928838 53.3448 
L 387.081592 53.78362 
L 387.132511 53.78362 
L 387.285265 54.222439 
L 387.336183 54.222439 
L 387.488938 53.3448 
L 387.539856 53.3448 
L 387.692611 54.222439 
L 388.150875 54.222439 
L 388.30363 53.78362 
L 388.354548 53.78362 
L 388.507302 54.222439 
L 388.965566 54.222439 
L 389.118321 54.661259 
L 389.169239 54.661259 
L 389.321994 53.78362 
L 389.372912 53.78362 
L 389.525667 54.222439 
L 389.983931 54.222439 
L 390.136685 53.78362 
L 390.187604 53.78362 
L 390.340358 54.222439 
L 390.391276 54.222439 
L 390.544031 53.78362 
L 390.594949 53.78362 
L 390.747704 54.222439 
L 391.409641 54.222439 
L 391.562395 53.3448 
L 391.816986 53.3448 
L 391.969741 53.78362 
L 392.020659 53.78362 
L 392.173414 54.222439 
L 392.631678 54.222439 
L 392.784433 53.3448 
L 392.835351 53.3448 
L 392.988105 53.78362 
L 393.242696 53.78362 
L 393.395451 54.222439 
L 393.650042 54.222439 
L 393.802797 53.78362 
L 393.853715 53.78362 
L 394.00647 53.3448 
L 394.057388 53.3448 
L 394.210143 53.78362 
L 394.261061 53.78362 
L 394.413815 53.3448 
L 394.464734 53.3448 
L 394.617488 53.78362 
L 395.075752 53.78362 
L 395.228507 53.3448 
L 395.279425 53.3448 
L 395.43218 53.78362 
L 395.686771 53.78362 
L 395.839525 53.3448 
L 395.890444 53.3448 
L 396.043198 53.78362 
L 397.112481 53.78362 
L 397.265236 53.3448 
L 397.316154 53.3448 
L 397.468908 53.78362 
L 397.519827 53.78362 
L 397.672581 54.222439 
L 397.723499 54.222439 
L 397.876254 53.78362 
L 398.334518 53.78362 
L 398.487273 53.3448 
L 398.487273 53.3448 
" style="fill:none;stroke:#1f77b4;stroke-linecap:square;stroke-width:1.5;"/>
   </g>
   <g id="patch_3">
    <path d="M 57.6 306.3024 
L 57.6 41.2992 
" style="fill:none;stroke:#000000;stroke-linecap:square;stroke-linejoin:miter;stroke-width:0.8;"/>
   </g>
   <g id="patch_4">
    <path d="M 414.72 306.3024 
L 414.72 41.2992 
" style="fill:none;stroke:#000000;stroke-linecap:square;stroke-linejoin:miter;stroke-width:0.8;"/>
   </g>
   <g id="patch_5">
    <path d="M 57.6 306.3024 
L 414.72 306.3024 
" style="fill:none;stroke:#000000;stroke-linecap:square;stroke-linejoin:miter;stroke-width:0.8;"/>
   </g>
   <g id="patch_6">
    <path d="M 57.6 41.2992 
L 414.72 41.2992 
" style="fill:none;stroke:#000000;stroke-linecap:square;stroke-linejoin:miter;stroke-width:0.8;"/>
   </g>
   <g id="text_16">
    <!-- Tempertura -->
    <g transform="translate(200.709375 35.2992)scale(0.12 -0.12)">
     <use xlink:href="#DejaVuSans-84"/>
     <use x="60.818359" xlink:href="#DejaVuSans-101"/>
     <use x="122.341797" xlink:href="#DejaVuSans-109"/>
     <use x="219.753906" xlink:href="#DejaVuSans-112"/>
     <use x="283.230469" xlink:href="#DejaVuSans-101"/>
     <use x="344.753906" xlink:href="#DejaVuSans-114"/>
     <use x="385.867188" xlink:href="#DejaVuSans-116"/>
     <use x="425.076172" xlink:href="#DejaVuSans-117"/>
     <use x="488.455078" xlink:href="#DejaVuSans-114"/>
     <use x="529.568359" xlink:href="#DejaVuSans-97"/>
    </g>
   </g>
  </g>
 </g>
 <defs>
  <clipPath id="p11b97fa9c8">
   <rect height="265.0032" width="357.12" x="57.6" y="41.2992"/>
  </clipPath>
 </defs>
</svg>
