<?xml version="1.0" encoding="utf-8" standalone="no"?>
<!DOCTYPE svg PUBLIC "-//W3C//DTD SVG 1.1//EN"
  "http://www.w3.org/Graphics/SVG/1.1/DTD/svg11.dtd">
<!-- Created with matplotlib (https://matplotlib.org/) -->
<svg height="344.16pt" version="1.1" viewBox="0 0 460.8 344.16" width="460.8pt" xmlns="http://www.w3.org/2000/svg" xmlns:xlink="http://www.w3.org/1999/xlink">
 <defs>
  <style type="text/css">
*{stroke-linecap:butt;stroke-linejoin:round;}
  </style>
 </defs>
 <g id="figure_1">
  <g id="patch_1">
   <path d="M 0 344.16 
L 460.8 344.16 
L 460.8 0 
L 0 0 
z
" style="fill:#ffffff;"/>
  </g>
  <g id="axes_1">
   <g id="patch_2">
    <path d="M 57.6 306.3024 
L 414.72 306.3024 
L 414.72 41.2992 
L 57.6 41.2992 
z
" style="fill:#ffffff;"/>
   </g>
   <g id="matplotlib.axis_1">
    <g id="xtick_1">
     <g id="line2d_1">
      <defs>
       <path d="M 0 0 
L 0 3.5 
" id="m1b257fa88f" style="stroke:#000000;stroke-width:0.8;"/>
      </defs>
      <g>
       <use style="stroke:#000000;stroke-width:0.8;" x="73.832727" xlink:href="#m1b257fa88f" y="306.3024"/>
      </g>
     </g>
     <g id="text_1">
      <!-- 0 -->
      <defs>
       <path d="M 31.78125 66.40625 
Q 24.171875 66.40625 20.328125 58.90625 
Q 16.5 51.421875 16.5 36.375 
Q 16.5 21.390625 20.328125 13.890625 
Q 24.171875 6.390625 31.78125 6.390625 
Q 39.453125 6.390625 43.28125 13.890625 
Q 47.125 21.390625 47.125 36.375 
Q 47.125 51.421875 43.28125 58.90625 
Q 39.453125 66.40625 31.78125 66.40625 
z
M 31.78125 74.21875 
Q 44.046875 74.21875 50.515625 64.515625 
Q 56.984375 54.828125 56.984375 36.375 
Q 56.984375 17.96875 50.515625 8.265625 
Q 44.046875 -1.421875 31.78125 -1.421875 
Q 19.53125 -1.421875 13.0625 8.265625 
Q 6.59375 17.96875 6.59375 36.375 
Q 6.59375 54.828125 13.0625 64.515625 
Q 19.53125 74.21875 31.78125 74.21875 
z
" id="DejaVuSans-48"/>
      </defs>
      <g transform="translate(70.651477 320.900838)scale(0.1 -0.1)">
       <use xlink:href="#DejaVuSans-48"/>
      </g>
     </g>
    </g>
    <g id="xtick_2">
     <g id="line2d_2">
      <g>
       <use style="stroke:#000000;stroke-width:0.8;" x="128.739801" xlink:href="#m1b257fa88f" y="306.3024"/>
      </g>
     </g>
     <g id="text_2">
      <!-- 5000 -->
      <defs>
       <path d="M 10.796875 72.90625 
L 49.515625 72.90625 
L 49.515625 64.59375 
L 19.828125 64.59375 
L 19.828125 46.734375 
Q 21.96875 47.46875 24.109375 47.828125 
Q 26.265625 48.1875 28.421875 48.1875 
Q 40.625 48.1875 47.75 41.5 
Q 54.890625 34.8125 54.890625 23.390625 
Q 54.890625 11.625 47.5625 5.09375 
Q 40.234375 -1.421875 26.90625 -1.421875 
Q 22.3125 -1.421875 17.546875 -0.640625 
Q 12.796875 0.140625 7.71875 1.703125 
L 7.71875 11.625 
Q 12.109375 9.234375 16.796875 8.0625 
Q 21.484375 6.890625 26.703125 6.890625 
Q 35.15625 6.890625 40.078125 11.328125 
Q 45.015625 15.765625 45.015625 23.390625 
Q 45.015625 31 40.078125 35.4375 
Q 35.15625 39.890625 26.703125 39.890625 
Q 22.75 39.890625 18.8125 39.015625 
Q 14.890625 38.140625 10.796875 36.28125 
z
" id="DejaVuSans-53"/>
      </defs>
      <g transform="translate(116.014801 320.900838)scale(0.1 -0.1)">
       <use xlink:href="#DejaVuSans-53"/>
       <use x="63.623047" xlink:href="#DejaVuSans-48"/>
       <use x="127.246094" xlink:href="#DejaVuSans-48"/>
       <use x="190.869141" xlink:href="#DejaVuSans-48"/>
      </g>
     </g>
    </g>
    <g id="xtick_3">
     <g id="line2d_3">
      <g>
       <use style="stroke:#000000;stroke-width:0.8;" x="183.646875" xlink:href="#m1b257fa88f" y="306.3024"/>
      </g>
     </g>
     <g id="text_3">
      <!-- 10000 -->
      <defs>
       <path d="M 12.40625 8.296875 
L 28.515625 8.296875 
L 28.515625 63.921875 
L 10.984375 60.40625 
L 10.984375 69.390625 
L 28.421875 72.90625 
L 38.28125 72.90625 
L 38.28125 8.296875 
L 54.390625 8.296875 
L 54.390625 0 
L 12.40625 0 
z
" id="DejaVuSans-49"/>
      </defs>
      <g transform="translate(167.740625 320.900838)scale(0.1 -0.1)">
       <use xlink:href="#DejaVuSans-49"/>
       <use x="63.623047" xlink:href="#DejaVuSans-48"/>
       <use x="127.246094" xlink:href="#DejaVuSans-48"/>
       <use x="190.869141" xlink:href="#DejaVuSans-48"/>
       <use x="254.492188" xlink:href="#DejaVuSans-48"/>
      </g>
     </g>
    </g>
    <g id="xtick_4">
     <g id="line2d_4">
      <g>
       <use style="stroke:#000000;stroke-width:0.8;" x="238.553948" xlink:href="#m1b257fa88f" y="306.3024"/>
      </g>
     </g>
     <g id="text_4">
      <!-- 15000 -->
      <g transform="translate(222.647698 320.900838)scale(0.1 -0.1)">
       <use xlink:href="#DejaVuSans-49"/>
       <use x="63.623047" xlink:href="#DejaVuSans-53"/>
       <use x="127.246094" xlink:href="#DejaVuSans-48"/>
       <use x="190.869141" xlink:href="#DejaVuSans-48"/>
       <use x="254.492188" xlink:href="#DejaVuSans-48"/>
      </g>
     </g>
    </g>
    <g id="xtick_5">
     <g id="line2d_5">
      <g>
       <use style="stroke:#000000;stroke-width:0.8;" x="293.461022" xlink:href="#m1b257fa88f" y="306.3024"/>
      </g>
     </g>
     <g id="text_5">
      <!-- 20000 -->
      <defs>
       <path d="M 19.1875 8.296875 
L 53.609375 8.296875 
L 53.609375 0 
L 7.328125 0 
L 7.328125 8.296875 
Q 12.9375 14.109375 22.625 23.890625 
Q 32.328125 33.6875 34.8125 36.53125 
Q 39.546875 41.84375 41.421875 45.53125 
Q 43.3125 49.21875 43.3125 52.78125 
Q 43.3125 58.59375 39.234375 62.25 
Q 35.15625 65.921875 28.609375 65.921875 
Q 23.96875 65.921875 18.8125 64.3125 
Q 13.671875 62.703125 7.8125 59.421875 
L 7.8125 69.390625 
Q 13.765625 71.78125 18.9375 73 
Q 24.125 74.21875 28.421875 74.21875 
Q 39.75 74.21875 46.484375 68.546875 
Q 53.21875 62.890625 53.21875 53.421875 
Q 53.21875 48.921875 51.53125 44.890625 
Q 49.859375 40.875 45.40625 35.40625 
Q 44.1875 33.984375 37.640625 27.21875 
Q 31.109375 20.453125 19.1875 8.296875 
z
" id="DejaVuSans-50"/>
      </defs>
      <g transform="translate(277.554772 320.900838)scale(0.1 -0.1)">
       <use xlink:href="#DejaVuSans-50"/>
       <use x="63.623047" xlink:href="#DejaVuSans-48"/>
       <use x="127.246094" xlink:href="#DejaVuSans-48"/>
       <use x="190.869141" xlink:href="#DejaVuSans-48"/>
       <use x="254.492188" xlink:href="#DejaVuSans-48"/>
      </g>
     </g>
    </g>
    <g id="xtick_6">
     <g id="line2d_6">
      <g>
       <use style="stroke:#000000;stroke-width:0.8;" x="348.368096" xlink:href="#m1b257fa88f" y="306.3024"/>
      </g>
     </g>
     <g id="text_6">
      <!-- 25000 -->
      <g transform="translate(332.461846 320.900838)scale(0.1 -0.1)">
       <use xlink:href="#DejaVuSans-50"/>
       <use x="63.623047" xlink:href="#DejaVuSans-53"/>
       <use x="127.246094" xlink:href="#DejaVuSans-48"/>
       <use x="190.869141" xlink:href="#DejaVuSans-48"/>
       <use x="254.492188" xlink:href="#DejaVuSans-48"/>
      </g>
     </g>
    </g>
    <g id="xtick_7">
     <g id="line2d_7">
      <g>
       <use style="stroke:#000000;stroke-width:0.8;" x="403.27517" xlink:href="#m1b257fa88f" y="306.3024"/>
      </g>
     </g>
     <g id="text_7">
      <!-- 30000 -->
      <defs>
       <path d="M 40.578125 39.3125 
Q 47.65625 37.796875 51.625 33 
Q 55.609375 28.21875 55.609375 21.1875 
Q 55.609375 10.40625 48.1875 4.484375 
Q 40.765625 -1.421875 27.09375 -1.421875 
Q 22.515625 -1.421875 17.65625 -0.515625 
Q 12.796875 0.390625 7.625 2.203125 
L 7.625 11.71875 
Q 11.71875 9.328125 16.59375 8.109375 
Q 21.484375 6.890625 26.8125 6.890625 
Q 36.078125 6.890625 40.9375 10.546875 
Q 45.796875 14.203125 45.796875 21.1875 
Q 45.796875 27.640625 41.28125 31.265625 
Q 36.765625 34.90625 28.71875 34.90625 
L 20.21875 34.90625 
L 20.21875 43.015625 
L 29.109375 43.015625 
Q 36.375 43.015625 40.234375 45.921875 
Q 44.09375 48.828125 44.09375 54.296875 
Q 44.09375 59.90625 40.109375 62.90625 
Q 36.140625 65.921875 28.71875 65.921875 
Q 24.65625 65.921875 20.015625 65.03125 
Q 15.375 64.15625 9.8125 62.3125 
L 9.8125 71.09375 
Q 15.4375 72.65625 20.34375 73.4375 
Q 25.25 74.21875 29.59375 74.21875 
Q 40.828125 74.21875 47.359375 69.109375 
Q 53.90625 64.015625 53.90625 55.328125 
Q 53.90625 49.265625 50.4375 45.09375 
Q 46.96875 40.921875 40.578125 39.3125 
z
" id="DejaVuSans-51"/>
      </defs>
      <g transform="translate(387.36892 320.900838)scale(0.1 -0.1)">
       <use xlink:href="#DejaVuSans-51"/>
       <use x="63.623047" xlink:href="#DejaVuSans-48"/>
       <use x="127.246094" xlink:href="#DejaVuSans-48"/>
       <use x="190.869141" xlink:href="#DejaVuSans-48"/>
       <use x="254.492188" xlink:href="#DejaVuSans-48"/>
      </g>
     </g>
    </g>
    <g id="text_8">
     <!-- Muestras -->
     <defs>
      <path d="M 9.8125 72.90625 
L 24.515625 72.90625 
L 43.109375 23.296875 
L 61.8125 72.90625 
L 76.515625 72.90625 
L 76.515625 0 
L 66.890625 0 
L 66.890625 64.015625 
L 48.09375 14.015625 
L 38.1875 14.015625 
L 19.390625 64.015625 
L 19.390625 0 
L 9.8125 0 
z
" id="DejaVuSans-77"/>
      <path d="M 8.5 21.578125 
L 8.5 54.6875 
L 17.484375 54.6875 
L 17.484375 21.921875 
Q 17.484375 14.15625 20.5 10.265625 
Q 23.53125 6.390625 29.59375 6.390625 
Q 36.859375 6.390625 41.078125 11.03125 
Q 45.3125 15.671875 45.3125 23.6875 
L 45.3125 54.6875 
L 54.296875 54.6875 
L 54.296875 0 
L 45.3125 0 
L 45.3125 8.40625 
Q 42.046875 3.421875 37.71875 1 
Q 33.40625 -1.421875 27.6875 -1.421875 
Q 18.265625 -1.421875 13.375 4.4375 
Q 8.5 10.296875 8.5 21.578125 
z
M 31.109375 56 
z
" id="DejaVuSans-117"/>
      <path d="M 56.203125 29.59375 
L 56.203125 25.203125 
L 14.890625 25.203125 
Q 15.484375 15.921875 20.484375 11.0625 
Q 25.484375 6.203125 34.421875 6.203125 
Q 39.59375 6.203125 44.453125 7.46875 
Q 49.3125 8.734375 54.109375 11.28125 
L 54.109375 2.78125 
Q 49.265625 0.734375 44.1875 -0.34375 
Q 39.109375 -1.421875 33.890625 -1.421875 
Q 20.796875 -1.421875 13.15625 6.1875 
Q 5.515625 13.8125 5.515625 26.8125 
Q 5.515625 40.234375 12.765625 48.109375 
Q 20.015625 56 32.328125 56 
Q 43.359375 56 49.78125 48.890625 
Q 56.203125 41.796875 56.203125 29.59375 
z
M 47.21875 32.234375 
Q 47.125 39.59375 43.09375 43.984375 
Q 39.0625 48.390625 32.421875 48.390625 
Q 24.90625 48.390625 20.390625 44.140625 
Q 15.875 39.890625 15.1875 32.171875 
z
" id="DejaVuSans-101"/>
      <path d="M 44.28125 53.078125 
L 44.28125 44.578125 
Q 40.484375 46.53125 36.375 47.5 
Q 32.28125 48.484375 27.875 48.484375 
Q 21.1875 48.484375 17.84375 46.4375 
Q 14.5 44.390625 14.5 40.28125 
Q 14.5 37.15625 16.890625 35.375 
Q 19.28125 33.59375 26.515625 31.984375 
L 29.59375 31.296875 
Q 39.15625 29.25 43.1875 25.515625 
Q 47.21875 21.78125 47.21875 15.09375 
Q 47.21875 7.46875 41.1875 3.015625 
Q 35.15625 -1.421875 24.609375 -1.421875 
Q 20.21875 -1.421875 15.453125 -0.5625 
Q 10.6875 0.296875 5.421875 2 
L 5.421875 11.28125 
Q 10.40625 8.6875 15.234375 7.390625 
Q 20.0625 6.109375 24.8125 6.109375 
Q 31.15625 6.109375 34.5625 8.28125 
Q 37.984375 10.453125 37.984375 14.40625 
Q 37.984375 18.0625 35.515625 20.015625 
Q 33.0625 21.96875 24.703125 23.78125 
L 21.578125 24.515625 
Q 13.234375 26.265625 9.515625 29.90625 
Q 5.8125 33.546875 5.8125 39.890625 
Q 5.8125 47.609375 11.28125 51.796875 
Q 16.75 56 26.8125 56 
Q 31.78125 56 36.171875 55.265625 
Q 40.578125 54.546875 44.28125 53.078125 
z
" id="DejaVuSans-115"/>
      <path d="M 18.3125 70.21875 
L 18.3125 54.6875 
L 36.8125 54.6875 
L 36.8125 47.703125 
L 18.3125 47.703125 
L 18.3125 18.015625 
Q 18.3125 11.328125 20.140625 9.421875 
Q 21.96875 7.515625 27.59375 7.515625 
L 36.8125 7.515625 
L 36.8125 0 
L 27.59375 0 
Q 17.1875 0 13.234375 3.875 
Q 9.28125 7.765625 9.28125 18.015625 
L 9.28125 47.703125 
L 2.6875 47.703125 
L 2.6875 54.6875 
L 9.28125 54.6875 
L 9.28125 70.21875 
z
" id="DejaVuSans-116"/>
      <path d="M 41.109375 46.296875 
Q 39.59375 47.171875 37.8125 47.578125 
Q 36.03125 48 33.890625 48 
Q 26.265625 48 22.1875 43.046875 
Q 18.109375 38.09375 18.109375 28.8125 
L 18.109375 0 
L 9.078125 0 
L 9.078125 54.6875 
L 18.109375 54.6875 
L 18.109375 46.1875 
Q 20.953125 51.171875 25.484375 53.578125 
Q 30.03125 56 36.53125 56 
Q 37.453125 56 38.578125 55.875 
Q 39.703125 55.765625 41.0625 55.515625 
z
" id="DejaVuSans-114"/>
      <path d="M 34.28125 27.484375 
Q 23.390625 27.484375 19.1875 25 
Q 14.984375 22.515625 14.984375 16.5 
Q 14.984375 11.71875 18.140625 8.90625 
Q 21.296875 6.109375 26.703125 6.109375 
Q 34.1875 6.109375 38.703125 11.40625 
Q 43.21875 16.703125 43.21875 25.484375 
L 43.21875 27.484375 
z
M 52.203125 31.203125 
L 52.203125 0 
L 43.21875 0 
L 43.21875 8.296875 
Q 40.140625 3.328125 35.546875 0.953125 
Q 30.953125 -1.421875 24.3125 -1.421875 
Q 15.921875 -1.421875 10.953125 3.296875 
Q 6 8.015625 6 15.921875 
Q 6 25.140625 12.171875 29.828125 
Q 18.359375 34.515625 30.609375 34.515625 
L 43.21875 34.515625 
L 43.21875 35.40625 
Q 43.21875 41.609375 39.140625 45 
Q 35.0625 48.390625 27.6875 48.390625 
Q 23 48.390625 18.546875 47.265625 
Q 14.109375 46.140625 10.015625 43.890625 
L 10.015625 52.203125 
Q 14.9375 54.109375 19.578125 55.046875 
Q 24.21875 56 28.609375 56 
Q 40.484375 56 46.34375 49.84375 
Q 52.203125 43.703125 52.203125 31.203125 
z
" id="DejaVuSans-97"/>
     </defs>
     <g transform="translate(213.311562 334.578963)scale(0.1 -0.1)">
      <use xlink:href="#DejaVuSans-77"/>
      <use x="86.279297" xlink:href="#DejaVuSans-117"/>
      <use x="149.658203" xlink:href="#DejaVuSans-101"/>
      <use x="211.181641" xlink:href="#DejaVuSans-115"/>
      <use x="263.28125" xlink:href="#DejaVuSans-116"/>
      <use x="302.490234" xlink:href="#DejaVuSans-114"/>
      <use x="343.603516" xlink:href="#DejaVuSans-97"/>
      <use x="404.882812" xlink:href="#DejaVuSans-115"/>
     </g>
    </g>
   </g>
   <g id="matplotlib.axis_2">
    <g id="ytick_1">
     <g id="line2d_8">
      <defs>
       <path d="M 0 0 
L -3.5 0 
" id="m29ab8e9486" style="stroke:#000000;stroke-width:0.8;"/>
      </defs>
      <g>
       <use style="stroke:#000000;stroke-width:0.8;" x="57.6" xlink:href="#m29ab8e9486" y="303.718497"/>
      </g>
     </g>
     <g id="text_9">
      <!-- 50 -->
      <g transform="translate(37.875 307.517715)scale(0.1 -0.1)">
       <use xlink:href="#DejaVuSans-53"/>
       <use x="63.623047" xlink:href="#DejaVuSans-48"/>
      </g>
     </g>
    </g>
    <g id="ytick_2">
     <g id="line2d_9">
      <g>
       <use style="stroke:#000000;stroke-width:0.8;" x="57.6" xlink:href="#m29ab8e9486" y="269.312327"/>
      </g>
     </g>
     <g id="text_10">
      <!-- 60 -->
      <defs>
       <path d="M 33.015625 40.375 
Q 26.375 40.375 22.484375 35.828125 
Q 18.609375 31.296875 18.609375 23.390625 
Q 18.609375 15.53125 22.484375 10.953125 
Q 26.375 6.390625 33.015625 6.390625 
Q 39.65625 6.390625 43.53125 10.953125 
Q 47.40625 15.53125 47.40625 23.390625 
Q 47.40625 31.296875 43.53125 35.828125 
Q 39.65625 40.375 33.015625 40.375 
z
M 52.59375 71.296875 
L 52.59375 62.3125 
Q 48.875 64.0625 45.09375 64.984375 
Q 41.3125 65.921875 37.59375 65.921875 
Q 27.828125 65.921875 22.671875 59.328125 
Q 17.53125 52.734375 16.796875 39.40625 
Q 19.671875 43.65625 24.015625 45.921875 
Q 28.375 48.1875 33.59375 48.1875 
Q 44.578125 48.1875 50.953125 41.515625 
Q 57.328125 34.859375 57.328125 23.390625 
Q 57.328125 12.15625 50.6875 5.359375 
Q 44.046875 -1.421875 33.015625 -1.421875 
Q 20.359375 -1.421875 13.671875 8.265625 
Q 6.984375 17.96875 6.984375 36.375 
Q 6.984375 53.65625 15.1875 63.9375 
Q 23.390625 74.21875 37.203125 74.21875 
Q 40.921875 74.21875 44.703125 73.484375 
Q 48.484375 72.75 52.59375 71.296875 
z
" id="DejaVuSans-54"/>
      </defs>
      <g transform="translate(37.875 273.111546)scale(0.1 -0.1)">
       <use xlink:href="#DejaVuSans-54"/>
       <use x="63.623047" xlink:href="#DejaVuSans-48"/>
      </g>
     </g>
    </g>
    <g id="ytick_3">
     <g id="line2d_10">
      <g>
       <use style="stroke:#000000;stroke-width:0.8;" x="57.6" xlink:href="#m29ab8e9486" y="234.906157"/>
      </g>
     </g>
     <g id="text_11">
      <!-- 70 -->
      <defs>
       <path d="M 8.203125 72.90625 
L 55.078125 72.90625 
L 55.078125 68.703125 
L 28.609375 0 
L 18.3125 0 
L 43.21875 64.59375 
L 8.203125 64.59375 
z
" id="DejaVuSans-55"/>
      </defs>
      <g transform="translate(37.875 238.705376)scale(0.1 -0.1)">
       <use xlink:href="#DejaVuSans-55"/>
       <use x="63.623047" xlink:href="#DejaVuSans-48"/>
      </g>
     </g>
    </g>
    <g id="ytick_4">
     <g id="line2d_11">
      <g>
       <use style="stroke:#000000;stroke-width:0.8;" x="57.6" xlink:href="#m29ab8e9486" y="200.499988"/>
      </g>
     </g>
     <g id="text_12">
      <!-- 80 -->
      <defs>
       <path d="M 31.78125 34.625 
Q 24.75 34.625 20.71875 30.859375 
Q 16.703125 27.09375 16.703125 20.515625 
Q 16.703125 13.921875 20.71875 10.15625 
Q 24.75 6.390625 31.78125 6.390625 
Q 38.8125 6.390625 42.859375 10.171875 
Q 46.921875 13.96875 46.921875 20.515625 
Q 46.921875 27.09375 42.890625 30.859375 
Q 38.875 34.625 31.78125 34.625 
z
M 21.921875 38.8125 
Q 15.578125 40.375 12.03125 44.71875 
Q 8.5 49.078125 8.5 55.328125 
Q 8.5 64.0625 14.71875 69.140625 
Q 20.953125 74.21875 31.78125 74.21875 
Q 42.671875 74.21875 48.875 69.140625 
Q 55.078125 64.0625 55.078125 55.328125 
Q 55.078125 49.078125 51.53125 44.71875 
Q 48 40.375 41.703125 38.8125 
Q 48.828125 37.15625 52.796875 32.3125 
Q 56.78125 27.484375 56.78125 20.515625 
Q 56.78125 9.90625 50.3125 4.234375 
Q 43.84375 -1.421875 31.78125 -1.421875 
Q 19.734375 -1.421875 13.25 4.234375 
Q 6.78125 9.90625 6.78125 20.515625 
Q 6.78125 27.484375 10.78125 32.3125 
Q 14.796875 37.15625 21.921875 38.8125 
z
M 18.3125 54.390625 
Q 18.3125 48.734375 21.84375 45.5625 
Q 25.390625 42.390625 31.78125 42.390625 
Q 38.140625 42.390625 41.71875 45.5625 
Q 45.3125 48.734375 45.3125 54.390625 
Q 45.3125 60.0625 41.71875 63.234375 
Q 38.140625 66.40625 31.78125 66.40625 
Q 25.390625 66.40625 21.84375 63.234375 
Q 18.3125 60.0625 18.3125 54.390625 
z
" id="DejaVuSans-56"/>
      </defs>
      <g transform="translate(37.875 204.299206)scale(0.1 -0.1)">
       <use xlink:href="#DejaVuSans-56"/>
       <use x="63.623047" xlink:href="#DejaVuSans-48"/>
      </g>
     </g>
    </g>
    <g id="ytick_5">
     <g id="line2d_12">
      <g>
       <use style="stroke:#000000;stroke-width:0.8;" x="57.6" xlink:href="#m29ab8e9486" y="166.093818"/>
      </g>
     </g>
     <g id="text_13">
      <!-- 90 -->
      <defs>
       <path d="M 10.984375 1.515625 
L 10.984375 10.5 
Q 14.703125 8.734375 18.5 7.8125 
Q 22.3125 6.890625 25.984375 6.890625 
Q 35.75 6.890625 40.890625 13.453125 
Q 46.046875 20.015625 46.78125 33.40625 
Q 43.953125 29.203125 39.59375 26.953125 
Q 35.25 24.703125 29.984375 24.703125 
Q 19.046875 24.703125 12.671875 31.3125 
Q 6.296875 37.9375 6.296875 49.421875 
Q 6.296875 60.640625 12.9375 67.421875 
Q 19.578125 74.21875 30.609375 74.21875 
Q 43.265625 74.21875 49.921875 64.515625 
Q 56.59375 54.828125 56.59375 36.375 
Q 56.59375 19.140625 48.40625 8.859375 
Q 40.234375 -1.421875 26.421875 -1.421875 
Q 22.703125 -1.421875 18.890625 -0.6875 
Q 15.09375 0.046875 10.984375 1.515625 
z
M 30.609375 32.421875 
Q 37.25 32.421875 41.125 36.953125 
Q 45.015625 41.5 45.015625 49.421875 
Q 45.015625 57.28125 41.125 61.84375 
Q 37.25 66.40625 30.609375 66.40625 
Q 23.96875 66.40625 20.09375 61.84375 
Q 16.21875 57.28125 16.21875 49.421875 
Q 16.21875 41.5 20.09375 36.953125 
Q 23.96875 32.421875 30.609375 32.421875 
z
" id="DejaVuSans-57"/>
      </defs>
      <g transform="translate(37.875 169.893037)scale(0.1 -0.1)">
       <use xlink:href="#DejaVuSans-57"/>
       <use x="63.623047" xlink:href="#DejaVuSans-48"/>
      </g>
     </g>
    </g>
    <g id="ytick_6">
     <g id="line2d_13">
      <g>
       <use style="stroke:#000000;stroke-width:0.8;" x="57.6" xlink:href="#m29ab8e9486" y="131.687648"/>
      </g>
     </g>
     <g id="text_14">
      <!-- 100 -->
      <g transform="translate(31.5125 135.486867)scale(0.1 -0.1)">
       <use xlink:href="#DejaVuSans-49"/>
       <use x="63.623047" xlink:href="#DejaVuSans-48"/>
       <use x="127.246094" xlink:href="#DejaVuSans-48"/>
      </g>
     </g>
    </g>
    <g id="ytick_7">
     <g id="line2d_14">
      <g>
       <use style="stroke:#000000;stroke-width:0.8;" x="57.6" xlink:href="#m29ab8e9486" y="97.281479"/>
      </g>
     </g>
     <g id="text_15">
      <!-- 110 -->
      <g transform="translate(31.5125 101.080697)scale(0.1 -0.1)">
       <use xlink:href="#DejaVuSans-49"/>
       <use x="63.623047" xlink:href="#DejaVuSans-49"/>
       <use x="127.246094" xlink:href="#DejaVuSans-48"/>
      </g>
     </g>
    </g>
    <g id="ytick_8">
     <g id="line2d_15">
      <g>
       <use style="stroke:#000000;stroke-width:0.8;" x="57.6" xlink:href="#m29ab8e9486" y="62.875309"/>
      </g>
     </g>
     <g id="text_16">
      <!-- 120 -->
      <g transform="translate(31.5125 66.674528)scale(0.1 -0.1)">
       <use xlink:href="#DejaVuSans-49"/>
       <use x="63.623047" xlink:href="#DejaVuSans-50"/>
       <use x="127.246094" xlink:href="#DejaVuSans-48"/>
      </g>
     </g>
    </g>
    <g id="text_17">
     <!-- Valor de Ritmo Cardíaco -->
     <defs>
      <path d="M 28.609375 0 
L 0.78125 72.90625 
L 11.078125 72.90625 
L 34.1875 11.53125 
L 57.328125 72.90625 
L 67.578125 72.90625 
L 39.796875 0 
z
" id="DejaVuSans-86"/>
      <path d="M 9.421875 75.984375 
L 18.40625 75.984375 
L 18.40625 0 
L 9.421875 0 
z
" id="DejaVuSans-108"/>
      <path d="M 30.609375 48.390625 
Q 23.390625 48.390625 19.1875 42.75 
Q 14.984375 37.109375 14.984375 27.296875 
Q 14.984375 17.484375 19.15625 11.84375 
Q 23.34375 6.203125 30.609375 6.203125 
Q 37.796875 6.203125 41.984375 11.859375 
Q 46.1875 17.53125 46.1875 27.296875 
Q 46.1875 37.015625 41.984375 42.703125 
Q 37.796875 48.390625 30.609375 48.390625 
z
M 30.609375 56 
Q 42.328125 56 49.015625 48.375 
Q 55.71875 40.765625 55.71875 27.296875 
Q 55.71875 13.875 49.015625 6.21875 
Q 42.328125 -1.421875 30.609375 -1.421875 
Q 18.84375 -1.421875 12.171875 6.21875 
Q 5.515625 13.875 5.515625 27.296875 
Q 5.515625 40.765625 12.171875 48.375 
Q 18.84375 56 30.609375 56 
z
" id="DejaVuSans-111"/>
      <path id="DejaVuSans-32"/>
      <path d="M 45.40625 46.390625 
L 45.40625 75.984375 
L 54.390625 75.984375 
L 54.390625 0 
L 45.40625 0 
L 45.40625 8.203125 
Q 42.578125 3.328125 38.25 0.953125 
Q 33.9375 -1.421875 27.875 -1.421875 
Q 17.96875 -1.421875 11.734375 6.484375 
Q 5.515625 14.40625 5.515625 27.296875 
Q 5.515625 40.1875 11.734375 48.09375 
Q 17.96875 56 27.875 56 
Q 33.9375 56 38.25 53.625 
Q 42.578125 51.265625 45.40625 46.390625 
z
M 14.796875 27.296875 
Q 14.796875 17.390625 18.875 11.75 
Q 22.953125 6.109375 30.078125 6.109375 
Q 37.203125 6.109375 41.296875 11.75 
Q 45.40625 17.390625 45.40625 27.296875 
Q 45.40625 37.203125 41.296875 42.84375 
Q 37.203125 48.484375 30.078125 48.484375 
Q 22.953125 48.484375 18.875 42.84375 
Q 14.796875 37.203125 14.796875 27.296875 
z
" id="DejaVuSans-100"/>
      <path d="M 44.390625 34.1875 
Q 47.5625 33.109375 50.5625 29.59375 
Q 53.5625 26.078125 56.59375 19.921875 
L 66.609375 0 
L 56 0 
L 46.6875 18.703125 
Q 43.0625 26.03125 39.671875 28.421875 
Q 36.28125 30.8125 30.421875 30.8125 
L 19.671875 30.8125 
L 19.671875 0 
L 9.8125 0 
L 9.8125 72.90625 
L 32.078125 72.90625 
Q 44.578125 72.90625 50.734375 67.671875 
Q 56.890625 62.453125 56.890625 51.90625 
Q 56.890625 45.015625 53.6875 40.46875 
Q 50.484375 35.9375 44.390625 34.1875 
z
M 19.671875 64.796875 
L 19.671875 38.921875 
L 32.078125 38.921875 
Q 39.203125 38.921875 42.84375 42.21875 
Q 46.484375 45.515625 46.484375 51.90625 
Q 46.484375 58.296875 42.84375 61.546875 
Q 39.203125 64.796875 32.078125 64.796875 
z
" id="DejaVuSans-82"/>
      <path d="M 9.421875 54.6875 
L 18.40625 54.6875 
L 18.40625 0 
L 9.421875 0 
z
M 9.421875 75.984375 
L 18.40625 75.984375 
L 18.40625 64.59375 
L 9.421875 64.59375 
z
" id="DejaVuSans-105"/>
      <path d="M 52 44.1875 
Q 55.375 50.25 60.0625 53.125 
Q 64.75 56 71.09375 56 
Q 79.640625 56 84.28125 50.015625 
Q 88.921875 44.046875 88.921875 33.015625 
L 88.921875 0 
L 79.890625 0 
L 79.890625 32.71875 
Q 79.890625 40.578125 77.09375 44.375 
Q 74.3125 48.1875 68.609375 48.1875 
Q 61.625 48.1875 57.5625 43.546875 
Q 53.515625 38.921875 53.515625 30.90625 
L 53.515625 0 
L 44.484375 0 
L 44.484375 32.71875 
Q 44.484375 40.625 41.703125 44.40625 
Q 38.921875 48.1875 33.109375 48.1875 
Q 26.21875 48.1875 22.15625 43.53125 
Q 18.109375 38.875 18.109375 30.90625 
L 18.109375 0 
L 9.078125 0 
L 9.078125 54.6875 
L 18.109375 54.6875 
L 18.109375 46.1875 
Q 21.1875 51.21875 25.484375 53.609375 
Q 29.78125 56 35.6875 56 
Q 41.65625 56 45.828125 52.96875 
Q 50 49.953125 52 44.1875 
z
" id="DejaVuSans-109"/>
      <path d="M 64.40625 67.28125 
L 64.40625 56.890625 
Q 59.421875 61.53125 53.78125 63.8125 
Q 48.140625 66.109375 41.796875 66.109375 
Q 29.296875 66.109375 22.65625 58.46875 
Q 16.015625 50.828125 16.015625 36.375 
Q 16.015625 21.96875 22.65625 14.328125 
Q 29.296875 6.6875 41.796875 6.6875 
Q 48.140625 6.6875 53.78125 8.984375 
Q 59.421875 11.28125 64.40625 15.921875 
L 64.40625 5.609375 
Q 59.234375 2.09375 53.4375 0.328125 
Q 47.65625 -1.421875 41.21875 -1.421875 
Q 24.65625 -1.421875 15.125 8.703125 
Q 5.609375 18.84375 5.609375 36.375 
Q 5.609375 53.953125 15.125 64.078125 
Q 24.65625 74.21875 41.21875 74.21875 
Q 47.75 74.21875 53.53125 72.484375 
Q 59.328125 70.75 64.40625 67.28125 
z
" id="DejaVuSans-67"/>
      <path d="M 20.703125 79.984375 
L 30.421875 79.984375 
L 14.5 61.625 
L 7.03125 61.625 
z
M 9.421875 54.6875 
L 18.40625 54.6875 
L 18.40625 0 
L 9.421875 0 
z
M 13.921875 56 
z
" id="DejaVuSans-237"/>
      <path d="M 48.78125 52.59375 
L 48.78125 44.1875 
Q 44.96875 46.296875 41.140625 47.34375 
Q 37.3125 48.390625 33.40625 48.390625 
Q 24.65625 48.390625 19.8125 42.84375 
Q 14.984375 37.3125 14.984375 27.296875 
Q 14.984375 17.28125 19.8125 11.734375 
Q 24.65625 6.203125 33.40625 6.203125 
Q 37.3125 6.203125 41.140625 7.25 
Q 44.96875 8.296875 48.78125 10.40625 
L 48.78125 2.09375 
Q 45.015625 0.34375 40.984375 -0.53125 
Q 36.96875 -1.421875 32.421875 -1.421875 
Q 20.0625 -1.421875 12.78125 6.34375 
Q 5.515625 14.109375 5.515625 27.296875 
Q 5.515625 40.671875 12.859375 48.328125 
Q 20.21875 56 33.015625 56 
Q 37.15625 56 41.109375 55.140625 
Q 45.0625 54.296875 48.78125 52.59375 
z
" id="DejaVuSans-99"/>
     </defs>
     <g transform="translate(25.432812 234.6008)rotate(-90)scale(0.1 -0.1)">
      <use xlink:href="#DejaVuSans-86"/>
      <use x="68.298828" xlink:href="#DejaVuSans-97"/>
      <use x="129.578125" xlink:href="#DejaVuSans-108"/>
      <use x="157.361328" xlink:href="#DejaVuSans-111"/>
      <use x="218.542969" xlink:href="#DejaVuSans-114"/>
      <use x="259.65625" xlink:href="#DejaVuSans-32"/>
      <use x="291.443359" xlink:href="#DejaVuSans-100"/>
      <use x="354.919922" xlink:href="#DejaVuSans-101"/>
      <use x="416.443359" xlink:href="#DejaVuSans-32"/>
      <use x="448.230469" xlink:href="#DejaVuSans-82"/>
      <use x="517.712891" xlink:href="#DejaVuSans-105"/>
      <use x="545.496094" xlink:href="#DejaVuSans-116"/>
      <use x="584.705078" xlink:href="#DejaVuSans-109"/>
      <use x="682.117188" xlink:href="#DejaVuSans-111"/>
      <use x="743.298828" xlink:href="#DejaVuSans-32"/>
      <use x="775.085938" xlink:href="#DejaVuSans-67"/>
      <use x="844.910156" xlink:href="#DejaVuSans-97"/>
      <use x="906.189453" xlink:href="#DejaVuSans-114"/>
      <use x="947.287109" xlink:href="#DejaVuSans-100"/>
      <use x="1010.763672" xlink:href="#DejaVuSans-237"/>
      <use x="1038.546875" xlink:href="#DejaVuSans-97"/>
      <use x="1099.826172" xlink:href="#DejaVuSans-99"/>
      <use x="1154.806641" xlink:href="#DejaVuSans-111"/>
     </g>
    </g>
   </g>
   <g id="line2d_16">
    <path clip-path="url(#p2f713851bf)" d="M 73.832727 291.091432 
L 74.019411 231.637571 
L 74.107263 238.484399 
L 74.173151 237.452214 
L 74.403761 226.579864 
L 74.678296 189.490013 
L 74.777129 193.343504 
L 74.985776 203.940605 
L 74.996757 203.252481 
L 75.01872 202.151484 
L 75.051664 205.764132 
L 75.337181 251.76518 
L 75.40307 249.287936 
L 75.556809 241.718579 
L 75.633679 244.436666 
L 75.754475 250.14809 
L 75.820363 249.184718 
L 76.18275 237.03934 
L 76.237657 236.695278 
L 76.303546 237.314589 
L 76.358453 235.86953 
L 76.479248 230.158106 
L 76.556118 232.738569 
L 76.96243 254.517674 
L 77.006356 252.625335 
L 77.621315 206.073787 
L 77.720148 210.064903 
L 77.840944 216.430044 
L 78.137442 233.701941 
L 78.258237 239.138116 
L 78.324126 237.727463 
L 78.335107 237.658651 
L 78.35707 237.899494 
L 78.368052 238.174743 
L 78.411977 237.383402 
L 78.532773 231.362322 
L 78.58768 232.566538 
L 78.675531 235.181407 
L 78.730438 233.770754 
L 78.928104 228.609828 
L 79.048899 220.386754 
L 79.125769 224.343463 
L 79.191658 227.164769 
L 79.257546 225.375648 
L 79.334416 222.416718 
L 79.378342 224.343463 
L 79.608951 233.633129 
L 79.872505 240.583175 
L 79.883487 240.755206 
L 79.916431 240.342332 
L 79.927412 240.342332 
L 80.179985 218.219165 
L 80.234892 219.148132 
L 80.322743 220.902846 
L 80.45452 221.935031 
L 80.509427 222.175875 
L 80.53139 221.728594 
L 80.542372 221.59097 
L 80.564335 221.831813 
L 80.586297 221.763001 
L 80.816907 233.977191 
L 80.893777 233.701941 
L 80.99261 235.663093 
L 81.06948 237.142558 
L 81.124387 236.626466 
L 81.212238 235.42225 
L 81.245182 234.390065 
L 81.322052 235.250219 
L 81.431866 238.449993 
L 81.497755 237.245777 
L 81.61855 232.910599 
L 81.937011 218.150353 
L 82.035844 214.950579 
L 82.288417 209.10153 
L 82.299398 209.032718 
L 82.332342 209.204749 
L 82.376268 209.204749 
L 82.464119 210.890651 
L 82.508045 209.789653 
L 82.749636 206.417849 
L 82.815525 206.693098 
L 82.837487 206.452255 
L 82.980246 202.736389 
L 83.123004 195.407875 
L 83.210855 197.059371 
L 83.353614 198.160368 
L 83.39754 198.091556 
L 83.496372 194.891782 
L 83.551279 193.549941 
L 83.595205 194.891782 
L 83.924647 210.477777 
L 83.957592 209.789653 
L 84.012499 208.757468 
L 84.056424 209.720841 
L 84.199183 214.709736 
L 84.243108 213.815175 
L 85.000826 183.640965 
L 85.022789 184.053839 
L 85.03377 184.088245 
L 85.044752 183.881808 
L 85.18751 180.131535 
L 85.253399 180.991689 
L 85.41812 179.168162 
L 85.440083 180.028317 
L 85.626767 193.687566 
L 85.868358 206.417849 
L 86.000135 216.258013 
L 86.186819 224.928368 
L 86.285652 218.735258 
L 86.483317 211.269119 
L 86.626075 202.977232 
L 86.878648 179.512224 
L 86.900611 179.856286 
L 87.295942 195.407875 
L 87.559496 207.828502 
L 87.581459 207.553252 
L 88.097585 197.33462 
L 88.119548 197.162589 
L 88.613712 178.583258 
L 88.701563 184.432306 
L 88.921191 202.461139 
L 88.965117 201.188111 
L 89.294559 191.623196 
L 89.382411 178.20479 
L 89.68989 134.887422 
L 89.722834 135.197078 
L 89.964426 157.595494 
L 90.392701 231.396728 
L 90.524478 228.988296 
L 90.941771 220.902846 
L 90.952753 221.040471 
L 91.117474 225.203617 
L 91.205325 227.78408 
L 91.227288 226.063772 
L 91.600656 197.162589 
L 91.809303 188.80189 
L 91.886173 190.797448 
L 92.226597 221.59097 
L 92.4023 226.545458 
L 92.413281 226.063772 
L 92.665854 220.008286 
L 92.709779 219.870661 
L 92.731742 220.352348 
L 92.753705 220.180317 
L 92.775668 220.283535 
L 92.852538 223.139247 
L 93.149036 233.013818 
L 93.203943 231.568759 
L 93.280813 229.160327 
L 93.357683 230.089294 
L 93.456515 230.536574 
L 93.390627 229.917263 
L 93.467497 230.502168 
L 93.774976 224.137026 
L 93.796939 224.068214 
L 93.818902 223.964995 
L 93.840865 224.481088 
L 93.939698 226.923926 
L 93.983623 225.616492 
L 94.280122 218.632039 
L 94.34601 216.498857 
L 94.378954 215.397859 
L 94.455824 216.395638 
L 94.477787 216.602075 
L 94.521713 215.707515 
L 94.543675 215.56989 
L 94.57662 216.154795 
L 94.960969 223.792965 
L 95.059802 227.749674 
L 95.12569 226.923926 
L 95.246486 223.65534 
L 95.652798 194.54772 
L 96.267758 159.659864 
L 96.454442 151.712039 
L 96.498367 153.363535 
L 96.630144 166.953972 
L 97.025475 209.10153 
L 97.223141 221.728594 
L 97.256085 250.044872 
L 97.278048 143.488965 
L 97.300011 83.897479 
L 97.387862 128.866342 
L 97.68436 173.835206 
L 97.827118 177.998353 
L 97.860063 177.447854 
L 97.91497 170.841869 
L 97.936933 180.957283 
L 97.958895 191.038291 
L 98.057728 190.350168 
L 98.079691 190.591011 
L 98.123617 189.902887 
L 98.420115 178.067165 
L 98.738576 143.729808 
L 98.793483 144.2459 
L 98.84839 144.52115 
L 98.870353 144.314713 
L 99.00213 140.461222 
L 99.035074 143.041684 
L 99.397461 183.193684 
L 99.496294 181.679813 
L 99.606108 179.064944 
L 99.661015 179.856286 
L 99.825736 182.952841 
L 99.891624 181.989468 
L 99.946532 180.957283 
L 99.990457 181.748625 
L 100.264993 189.317983 
L 100.275974 189.24917 
L 100.517565 188.182579 
L 100.561491 188.629859 
L 100.605416 188.973921 
L 100.649342 188.457828 
L 100.803082 187.356831 
L 100.836026 187.528862 
L 101.516874 196.095998 
L 101.549818 195.235844 
L 101.714539 191.210322 
L 101.747484 191.623196 
L 102.241647 197.231402 
L 102.34048 200.603206 
L 102.395387 199.811864 
L 102.560108 198.091556 
L 102.57109 198.160368 
L 102.582071 198.160368 
L 102.713848 194.478908 
L 102.845625 191.210322 
L 102.889551 191.623196 
L 102.955439 191.554384 
L 103.306844 196.44006 
L 103.471566 201.704204 
L 103.50451 201.01608 
L 103.790027 195.511093 
L 103.81199 195.683124 
L 104.064562 199.743052 
L 104.130451 199.020522 
L 104.152413 199.054929 
L 104.229283 199.639833 
L 104.273209 199.226959 
L 104.317135 198.95171 
L 104.36106 199.571021 
L 104.448912 202.736389 
L 104.5148 201.704204 
L 104.82228 195.339062 
L 105.074852 188.561047 
L 105.217611 180.71644 
L 105.393313 176.5877 
L 105.788644 185.808553 
L 105.810607 185.774147 
L 105.821588 185.877366 
L 106.041217 190.281355 
L 106.074161 189.24917 
L 106.590287 172.699803 
L 106.952674 164.270291 
L 106.963656 164.304697 
L 107.007581 164.82079 
L 107.040525 164.442322 
L 107.260154 155.152656 
L 107.523708 139.084975 
L 107.600578 140.56444 
L 107.831187 144.349119 
L 108.017871 150.370198 
L 108.16063 156.391278 
L 108.193574 155.599936 
L 108.962273 109.426857 
L 108.973254 109.495669 
L 108.995217 109.564481 
L 109.061106 110.631072 
L 109.083069 109.6677 
L 109.730972 60.294846 
L 109.862749 60.914157 
L 109.906675 60.914157 
L 109.994526 58.058445 
L 110.10434 53.3448 
L 110.170229 54.893078 
L 110.269061 58.333695 
L 110.33495 57.129479 
L 110.378876 55.753232 
L 110.422801 57.611165 
L 110.653411 73.369191 
L 111.378184 152.675412 
L 111.389166 152.572193 
L 111.477017 150.163761 
L 111.718608 136.4357 
L 111.784497 138.224821 
L 112.059032 156.01281 
L 112.465344 180.613222 
L 112.487307 180.647628 
L 112.608103 181.645407 
L 112.630066 181.16372 
L 112.948527 167.745314 
L 113.44269 139.497849 
L 113.453672 139.497849 
L 113.552504 142.456779 
L 113.772133 162.75642 
L 114.200408 211.61318 
L 114.365129 220.386754 
L 114.420036 219.320162 
L 114.52985 217.703072 
L 114.573776 218.047134 
L 114.826349 219.148132 
L 114.892237 218.115947 
L 114.925181 219.148132 
L 115.002051 220.971659 
L 115.045977 220.008286 
L 115.232661 218.322384 
L 115.551122 207.794096 
L 115.660936 202.805201 
L 115.715843 204.284666 
L 115.858601 209.617623 
L 116.220988 223.036029 
L 116.385709 227.164769 
L 116.418654 226.820707 
L 116.517486 224.99718 
L 116.572393 225.685304 
L 116.682208 226.304615 
L 116.70417 226.063772 
L 116.726133 225.788522 
L 116.759078 226.407833 
L 116.770059 226.820707 
L 116.824966 225.203617 
L 116.956743 217.943916 
L 117.593665 164.889602 
L 117.604646 166.197037 
L 117.890163 186.73752 
L 117.999977 191.038291 
L 118.054884 190.109324 
L 118.076847 190.074918 
L 118.087829 189.937294 
L 118.120773 190.591011 
L 118.25255 197.747494 
L 118.307457 193.859597 
L 118.494141 190.178137 
L 118.505122 189.937294 
L 118.571011 190.86626 
L 118.746714 195.167031 
L 118.823583 197.472245 
L 118.878491 196.646497 
L 118.933398 196.027186 
L 118.977323 196.474466 
L 119.18597 203.940605 
L 119.240877 203.252481 
L 119.306766 204.869571 
L 119.482468 208.688656 
L 119.603264 210.580995 
L 119.636208 210.133715 
L 119.735041 202.323515 
L 120.075465 182.195905 
L 120.108409 181.817438 
L 120.141353 181.576594 
L 120.185279 182.092687 
L 120.295093 183.985026 
L 120.492759 196.302435 
L 120.635517 202.63317 
L 120.668461 202.461139 
L 120.712387 202.667576 
L 120.778275 202.495546 
L 120.800238 202.392327 
L 121.030848 200.499988 
L 121.052811 200.431175 
L 121.085755 200.844049 
L 121.239495 203.940605 
L 121.28342 203.768574 
L 121.294402 203.768574 
L 121.448142 205.144821 
L 121.481086 205.076008 
L 121.722677 203.252481 
L 121.755621 203.424512 
L 121.832491 204.215854 
L 121.887398 203.596543 
L 122.096045 201.01608 
L 122.118008 201.084893 
L 122.183896 202.151484 
L 122.227822 201.256923 
L 122.590209 193.343504 
L 122.700023 190.178137 
L 123.139279 167.229222 
L 123.271056 168.399031 
L 123.304001 168.158188 
L 123.325964 168.915124 
L 123.413815 175.383484 
L 123.973867 222.279093 
L 124.171532 224.82515 
L 124.314291 225.513273 
L 124.369198 225.100399 
L 124.479012 224.687525 
L 124.489993 224.756337 
L 124.555882 225.341242 
L 124.62177 225.100399 
L 124.643733 225.203617 
L 124.69864 224.928368 
L 124.896306 223.20806 
L 124.940231 223.552121 
L 125.072008 224.343463 
L 125.093971 224.240245 
L 125.126916 224.171432 
L 125.357525 223.036029 
L 125.467339 222.93281 
L 125.566172 221.659782 
L 125.796782 218.80407 
L 125.851689 218.907288 
L 125.983466 217.427823 
L 126.181131 213.05824 
L 126.455667 199.708646 
L 126.785109 194.410096 
L 126.840016 196.199216 
L 127.070626 204.043823 
L 127.246329 205.316851 
L 127.268291 205.144821 
L 127.367124 203.871792 
L 127.41105 204.387885 
L 127.443994 204.69754 
L 127.498901 204.181448 
L 127.542827 203.665355 
L 127.575771 204.52551 
L 127.729511 207.897314 
L 127.762455 207.828502 
L 127.817362 207.897314 
L 127.927176 209.10153 
L 128.135823 211.578774 
L 128.234656 213.677551 
L 128.289563 212.817396 
L 128.619005 207.278003 
L 128.772745 205.764132 
L 128.937466 199.054929 
L 129.135132 182.505561 
L 129.332797 169.878497 
L 129.750091 153.535566 
L 129.772054 153.363535 
L 129.804998 154.051659 
L 129.848924 153.466754 
L 129.859905 153.879628 
L 129.903831 151.367977 
L 130.046589 148.615484 
L 130.222292 146.413489 
L 130.266218 146.551114 
L 130.354069 149.854106 
L 130.573697 163.685386 
L 130.639586 162.03389 
L 131.177675 133.579988 
L 131.232582 135.747576 
L 131.485155 157.389057 
L 131.83656 190.246949 
L 131.880486 189.490013 
L 132.440538 180.613222 
L 132.506426 181.404563 
L 132.550352 180.613222 
L 132.726055 165.405695 
L 132.868813 159.281396 
L 132.901757 159.831895 
L 133.066478 161.965078 
L 133.07746 161.896265 
L 133.110404 161.552204 
L 133.209237 159.143772 
L 133.242181 160.588831 
L 133.549661 180.097129 
L 133.571623 179.959504 
L 133.593586 179.925098 
L 133.615549 180.097129 
L 133.802233 182.78081 
L 134.08775 193.549941 
L 134.131676 193.274692 
L 134.208546 192.242507 
L 134.636821 175.452296 
L 134.900375 168.261407 
L 135.054114 163.513355 
L 135.141966 164.717571 
L 135.207854 164.54554 
L 135.284724 166.265849 
L 135.383557 167.917345 
L 135.416501 167.366846 
L 135.526315 163.272512 
L 135.603185 163.685386 
L 135.800851 165.577725 
L 135.833795 165.921787 
L 135.877721 165.061633 
L 135.998516 161.276954 
L 136.053423 162.48117 
L 136.141275 164.442322 
L 136.207163 163.926229 
L 136.273051 164.029448 
L 136.371884 165.302476 
L 136.404828 164.54554 
L 136.503661 161.001705 
L 136.547587 162.309139 
L 136.668382 165.852975 
L 136.712308 164.889602 
L 136.756234 164.132666 
L 136.800159 164.889602 
L 136.964881 167.573283 
L 136.997825 167.642096 
L 137.041751 168.399031 
L 137.184509 173.07827 
L 137.228435 172.114898 
L 137.382174 168.158188 
L 137.612784 161.173736 
L 137.964189 149.991731 
L 138.030078 152.262538 
L 138.480316 172.458959 
L 138.765833 182.884029 
L 138.776814 182.711998 
L 139.117238 178.480039 
L 139.633364 168.261407 
L 139.67729 168.089376 
L 139.710234 168.571062 
L 140.402063 183.296903 
L 140.424026 183.22809 
L 140.445989 183.572152 
L 140.654636 187.941736 
L 140.698562 187.769705 
L 140.76445 187.666486 
L 140.874264 186.324646 
L 141.159781 170.463402 
L 141.357447 156.184841 
L 141.412354 157.044995 
L 141.675908 163.582168 
L 141.950443 188.733078 
L 142.104183 195.167031 
L 142.290867 198.263587 
L 142.31283 197.747494 
L 142.378718 196.44006 
L 142.433625 197.128183 
L 142.488532 197.644276 
L 142.532458 197.128183 
L 142.609328 194.995001 
L 142.675216 195.855155 
L 142.697179 195.786342 
L 142.774049 195.063813 
L 142.817975 195.579905 
L 143.114473 199.536615 
L 143.125454 199.467803 
L 143.180361 198.95171 
L 143.213306 199.639833 
L 143.257231 200.603206 
L 143.301157 199.571021 
L 143.367045 198.332399 
L 143.443915 198.435617 
L 143.498822 197.816306 
L 143.553729 198.332399 
L 143.696488 200.603206 
L 143.839246 200.155926 
L 143.905135 199.123741 
L 143.960042 199.915083 
L 144.047893 200.327957 
L 144.080837 200.087114 
L 144.190652 198.848492 
L 144.234577 199.192553 
L 144.33341 201.119299 
L 144.443224 202.495546 
L 144.48715 202.117078 
L 144.498131 202.117078 
L 144.531075 201.807422 
L 144.56402 202.564358 
L 144.871499 208.516625 
L 144.915425 208.138157 
L 145.157016 203.837386 
L 145.167997 203.940605 
L 145.178979 204.009417 
L 145.200942 203.871792 
L 145.299774 201.01608 
L 145.354681 201.46336 
L 145.398607 201.600985 
L 145.431551 201.360142 
L 145.519403 199.536615 
L 145.739031 187.700893 
L 145.826882 190.246949 
L 146.068473 195.751936 
L 146.123381 196.268029 
L 146.189269 197.850713 
L 146.397916 210.993869 
L 146.529693 208.860687 
L 146.771284 202.323515 
L 147.056801 194.995001 
L 147.199559 195.098219 
L 147.452132 197.231402 
L 147.550964 199.467803 
L 147.605872 199.192553 
L 147.715686 197.816306 
L 147.880407 194.54772 
L 148.330645 183.916214 
L 148.506348 182.161499 
L 148.561255 182.608779 
L 148.638125 183.468934 
L 148.704013 183.193684 
L 148.725976 183.22809 
L 148.83579 185.980584 
L 148.923641 187.425643 
L 148.978548 187.081581 
L 149.022474 186.978363 
L 149.044437 187.1848 
L 149.165232 187.769705 
L 149.187195 187.700893 
L 149.253084 187.425643 
L 149.286028 187.666486 
L 149.384861 188.870702 
L 149.428786 188.010548 
L 149.637433 184.053839 
L 149.703322 183.021653 
L 149.857062 174.764173 
L 150.351225 139.841911 
L 150.461039 135.885201 
L 150.504965 137.811947 
L 150.7795 142.972872 
L 150.867352 145.794178 
L 151.032073 148.615484 
L 151.196794 150.886291 
L 151.416422 156.116029 
L 151.712921 160.760862 
L 151.932549 163.238106 
L 152.240029 165.990599 
L 152.316898 165.852975 
L 152.426713 165.921787 
L 152.734192 167.814126 
L 152.778118 167.538877 
L 152.833025 167.194815 
L 152.898913 167.401252 
L 153.096579 167.298034 
L 153.195412 166.850754 
L 153.228356 167.126003 
L 153.480928 169.362404 
L 153.557798 170.463402 
L 153.755464 172.734209 
L 153.865278 173.422332 
L 153.898222 173.147083 
L 154.008036 171.770836 
L 154.062943 172.218116 
L 154.19472 173.147083 
L 154.227665 172.90624 
L 154.293553 172.562178 
L 154.315516 172.803021 
L 154.908512 183.572152 
L 155.018326 183.468934 
L 155.161085 182.023875 
L 155.369732 179.581037 
L 155.51249 178.892913 
L 155.523472 178.927319 
L 155.622304 179.615443 
L 155.677211 179.271381 
L 155.732118 179.064944 
L 155.765063 179.340193 
L 156.193338 184.432306 
L 156.292171 184.501119 
L 156.698483 189.317983 
L 156.994981 192.242507 
L 157.027925 192.345725 
L 157.071851 192.139288 
L 157.159702 191.795227 
L 157.203628 192.001664 
L 157.258535 192.242507 
L 157.302461 191.967258 
L 157.346386 191.898445 
L 157.368349 192.242507 
L 157.708773 199.192553 
L 158.005271 205.076008 
L 158.104104 203.149263 
L 158.169992 202.63317 
L 158.2249 202.90842 
L 158.279807 202.805201 
L 158.411584 201.428954 
L 158.455509 201.979453 
L 158.752007 208.344594 
L 159.059487 214.537705 
L 159.08145 214.67533 
L 159.114394 214.365674 
L 159.531688 208.172563 
L 159.575614 208.65425 
L 159.652483 211.406743 
L 159.696409 215.397859 
L 159.740335 211.269119 
L 160.01487 191.795227 
L 160.289406 183.05606 
L 160.344313 178.927319 
L 160.355294 178.20479 
L 160.39922 181.817438 
L 160.574922 193.171474 
L 160.607867 192.345725 
L 160.717681 188.010548 
L 160.750625 190.281355 
L 160.882402 192.689787 
L 160.893383 192.655381 
L 160.959272 190.591011 
L 161.156937 185.464492 
L 161.167919 185.602116 
L 161.376566 187.1848 
L 161.815822 151.023916 
L 161.980543 141.149345 
L 162.013488 141.424594 
L 162.03545 141.321376 
L 162.145265 133.063895 
L 162.18919 132.100522 
L 162.244097 133.132707 
L 162.364893 143.626589 
L 162.793168 198.332399 
L 163.045741 214.159237 
L 163.188499 214.434486 
L 163.221443 214.365674 
L 163.265369 214.434486 
L 163.375183 215.741921 
L 163.528923 216.602075 
L 163.58383 216.085983 
L 163.770514 214.331268 
L 163.81444 214.709736 
L 163.89131 215.397859 
L 163.946217 215.191422 
L 164.001124 215.12261 
L 164.077994 215.019391 
L 164.099956 215.12261 
L 164.275659 216.430044 
L 164.319585 216.154795 
L 164.473325 214.537705 
L 164.967488 206.968348 
L 164.97847 207.03716 
L 165.318893 209.54881 
L 165.329875 209.342373 
L 165.516559 204.559916 
L 165.549503 205.041602 
L 165.60441 205.42007 
L 165.648336 204.97279 
L 166.010723 201.01608 
L 166.109555 199.708646 
L 166.735496 191.623196 
L 166.757459 191.554384 
L 166.790403 191.485571 
L 166.823347 191.657602 
L 166.911199 192.345725 
L 166.944143 192.070476 
L 167.207697 188.629859 
L 167.273585 188.010548 
L 167.328492 188.457828 
L 167.427325 189.558826 
L 167.482232 189.24917 
L 167.614009 187.941736 
L 167.690879 188.285797 
L 167.712842 188.182579 
L 167.976396 185.980584 
L 168.130136 184.776368 
L 168.185043 184.260276 
L 168.338783 182.161499 
L 168.426634 182.195905 
L 168.854909 178.755288 
L 168.876872 178.892913 
L 169.01963 180.957283 
L 169.107482 180.131535 
L 169.151407 179.959504 
L 169.184351 180.372378 
L 169.195333 180.303566 
L 169.217296 180.26916 
L 169.25024 180.475597 
L 169.338091 180.957283 
L 169.371036 180.71644 
L 169.733422 176.002795 
L 169.766366 176.14042 
L 169.788329 176.071607 
L 169.953051 174.454517 
L 170.02992 175.211453 
L 170.117772 176.14042 
L 170.161697 175.727546 
L 170.238567 174.798579 
L 170.293474 175.383484 
L 170.359363 175.830764 
L 170.403289 175.486702 
L 170.524084 174.110456 
L 170.578991 174.798579 
L 170.72175 176.931761 
L 170.754694 176.828543 
L 170.842545 176.931761 
L 170.886471 177.207011 
L 170.930396 176.828543 
L 171.029229 175.624327 
L 171.095118 175.968389 
L 171.161006 176.243638 
L 171.182969 176.071607 
L 171.391616 171.667617 
L 171.457504 172.18371 
L 171.622226 173.731988 
L 171.677133 173.387926 
L 171.786947 172.562178 
L 171.830872 172.734209 
L 171.896761 173.319114 
L 171.940687 172.803021 
L 172.072464 169.018342 
L 172.28111 159.556646 
L 172.303073 159.659864 
L 172.368962 159.831895 
L 172.401906 159.625458 
L 172.599571 158.937335 
L 172.610553 158.971741 
L 172.709386 160.244769 
L 173.049809 169.087155 
L 173.137661 169.637653 
L 173.170605 169.775278 
L 173.225512 169.465623 
L 173.368271 169.362404 
L 173.456122 170.56662 
L 173.620843 171.495587 
L 173.730657 170.291371 
L 173.917341 157.251432 
L 174.104025 136.607731 
L 174.191877 138.121602 
L 174.378561 143.660995 
L 174.543282 158.180399 
L 174.751929 187.425643 
L 174.83978 184.913993 
L 175.202167 170.394589 
L 175.718293 134.164893 
L 175.762219 133.6488 
L 175.784182 134.336923 
L 176.15755 143.110497 
L 176.377178 149.475638 
L 176.399141 149.406826 
L 176.486992 148.959546 
L 176.519937 149.234795 
L 176.794472 153.638785 
L 176.816435 153.535566 
L 176.849379 153.432348 
L 176.882323 153.638785 
L 177.39845 160.072738 
L 177.486301 161.276954 
L 177.541208 161.896265 
L 177.596115 161.380173 
L 177.738874 159.625458 
L 177.782799 160.657643 
L 177.914576 161.965078 
L 177.936539 161.861859 
L 177.969483 161.724234 
L 178.002428 162.03389 
L 178.10126 163.169294 
L 178.17813 162.722013 
L 178.276963 162.068296 
L 178.309907 162.309139 
L 178.397758 163.582168 
L 178.430703 162.92845 
L 178.551498 161.345767 
L 178.584443 161.517797 
L 178.891922 162.75642 
L 178.990755 163.272512 
L 179.012718 163.066075 
L 179.056643 162.825232 
L 179.100569 163.341324 
L 179.243327 163.857417 
L 179.309216 163.754198 
L 179.41903 163.513355 
L 179.440993 163.616574 
L 179.484919 163.857417 
L 179.528844 163.410137 
L 179.583751 162.825232 
L 179.627677 163.272512 
L 179.946138 166.541098 
L 180.264599 169.018342 
L 180.330487 168.330219 
L 180.648948 166.369067 
L 180.780725 166.025006 
L 180.81367 166.16263 
L 181.121149 166.781941 
L 181.176056 166.88516 
L 181.384703 168.605468 
L 181.406666 168.50225 
L 181.67022 166.850754 
L 181.681201 166.88516 
L 181.801997 167.022785 
L 181.889848 165.852975 
L 182.010644 165.233664 
L 182.032607 165.302476 
L 182.120458 165.921787 
L 182.252235 166.506692 
L 182.274198 166.265849 
L 182.373031 164.270291 
L 182.405975 165.474507 
L 182.592659 167.917345 
L 182.790324 169.362404 
L 182.823269 169.431216 
L 182.977008 171.770836 
L 183.031915 172.699803 
L 183.075841 171.667617 
L 183.119767 171.495587 
L 183.185655 171.598805 
L 183.207618 171.495587 
L 183.350377 170.222558 
L 183.383321 170.497808 
L 183.657856 173.387926 
L 183.668838 173.319114 
L 183.833559 172.355741 
L 183.877484 172.699803 
L 184.031224 174.282486 
L 184.086131 173.663175 
L 184.261834 171.839648 
L 184.272815 171.942867 
L 184.580295 174.52333 
L 184.646183 174.454517 
L 184.679128 174.351299 
L 184.690109 174.282486 
L 184.745016 174.592142 
L 184.887775 175.211453 
L 184.9317 174.936204 
L 185.074459 174.420111 
L 185.129366 174.351299 
L 185.283105 173.422332 
L 185.31605 173.663175 
L 185.370957 174.24808 
L 185.414882 173.731988 
L 185.46979 173.043864 
L 185.524697 173.663175 
L 185.711381 174.592142 
L 185.722362 174.52333 
L 186.238489 169.878497 
L 186.282414 170.222558 
L 186.348303 170.325777 
L 186.392228 170.222558 
L 186.55695 170.325777 
L 186.809522 172.458959 
L 187.149946 177.516666 
L 187.457426 180.647628 
L 187.49037 180.544409 
L 187.622147 179.09935 
L 187.841775 176.174826 
L 187.874719 176.346857 
L 187.918645 176.518887 
L 187.962571 176.346857 
L 188.105329 175.658733 
L 188.127292 175.796358 
L 188.248087 177.963947 
L 188.456734 179.512224 
L 188.555567 178.239196 
L 188.599493 177.860728 
L 188.6544 178.239196 
L 188.73127 179.271381 
L 188.797158 180.200348 
L 188.852065 179.753067 
L 188.983842 179.409006 
L 189.016787 179.443412 
L 189.258378 181.16372 
L 189.28034 181.129314 
L 189.313285 181.335751 
L 189.35721 181.507782 
L 189.401136 181.129314 
L 189.488987 180.26916 
L 189.554876 180.372378 
L 189.609783 180.131535 
L 189.653709 180.372378 
L 189.675671 180.475597 
L 189.730578 180.200348 
L 189.785486 180.131535 
L 189.81843 180.303566 
L 189.928244 180.785252 
L 189.961188 180.613222 
L 190.038058 180.131535 
L 190.081984 180.372378 
L 190.136891 180.441191 
L 190.169835 180.26916 
L 190.191798 180.200348 
L 190.345538 179.925098 
L 190.378482 179.856286 
L 190.663999 178.755288 
L 190.707924 178.824101 
L 190.817739 179.856286 
L 190.916571 179.753067 
L 191.037367 180.475597 
L 191.355828 184.260276 
L 191.410735 183.916214 
L 191.443679 183.709777 
L 191.487605 184.053839 
L 191.564475 184.501119 
L 191.6084 184.260276 
L 191.674289 183.985026 
L 191.718215 184.260276 
L 191.871954 184.84518 
L 191.926861 184.948399 
L 192.355137 190.350168 
L 192.442988 190.074918 
L 192.717523 187.666486 
L 192.728505 187.700893 
L 192.8493 188.216985 
L 192.893226 188.044954 
L 192.981077 187.494456 
L 193.025003 187.838517 
L 193.068929 188.010548 
L 193.112854 187.769705 
L 193.145798 187.666486 
L 193.178743 187.872923 
L 193.277575 189.042733 
L 193.343464 188.80189 
L 193.409352 188.698671 
L 193.727813 187.356831 
L 194.0902 190.178137 
L 194.210996 191.279134 
L 194.232959 191.14151 
L 194.309828 190.763042 
L 194.364735 191.038291 
L 194.430624 191.210322 
L 194.485531 191.107103 
L 194.540438 190.935072 
L 194.573382 191.14151 
L 194.661234 192.139288 
L 194.716141 191.795227 
L 194.836936 190.935072 
L 194.869881 191.14151 
L 195.10049 193.274692 
L 195.111472 193.20588 
L 195.155397 193.102661 
L 195.188342 193.274692 
L 195.40797 193.962815 
L 195.451896 193.859597 
L 195.550728 192.655381 
L 195.627598 191.554384 
L 195.671524 192.070476 
L 196.154706 200.327957 
L 196.297464 202.323515 
L 196.374334 201.600985 
L 196.550037 200.087114 
L 196.572 200.224738 
L 196.670833 199.811864 
L 196.703777 199.983895 
L 196.901442 200.912862 
L 196.934387 200.740831 
L 197.35168 197.472245 
L 197.527383 196.302435 
L 197.549346 196.371247 
L 197.65916 197.747494 
L 197.900751 199.743052 
L 197.96664 199.708646 
L 198.054491 199.536615 
L 198.076454 199.639833 
L 198.208231 203.3557 
L 198.416878 206.108193 
L 198.702394 210.993869 
L 198.757301 211.750805 
L 198.82319 211.234713 
L 199.284409 205.729725 
L 199.416186 204.284666 
L 199.547963 200.672019 
L 199.75661 190.281355 
L 199.811517 192.999443 
L 200.415495 230.020481 
L 200.470402 229.057108 
L 200.854752 217.943916 
L 200.898677 218.563227 
L 200.931622 219.010507 
L 200.975547 218.391196 
L 201.557562 197.33462 
L 201.612469 198.160368 
L 201.766209 199.39899 
L 201.832098 199.364584 
L 201.843079 199.467803 
L 202.0078 201.29133 
L 202.073689 200.603206 
L 202.271354 197.919525 
L 202.425094 195.958373 
L 202.46902 196.027186 
L 202.710611 198.160368 
L 202.974165 201.256923 
L 202.996127 201.084893 
L 203.160849 200.396769 
L 203.193793 200.740831 
L 203.281644 201.773016 
L 203.347533 201.428954 
L 203.446365 200.155926 
L 203.589124 194.650939 
L 203.644031 192.173695 
L 203.720901 193.20588 
L 203.907585 195.442281 
L 204.006418 196.715309 
L 204.18212 202.667576 
L 204.346841 211.234713 
L 204.41273 210.305746 
L 204.928856 204.456697 
L 205.137503 201.46336 
L 205.181429 202.048265 
L 205.49989 206.624286 
L 205.796388 208.860687 
L 205.840314 208.310188 
L 206.026998 205.764132 
L 206.048961 205.901756 
L 206.114849 206.452255 
L 206.35644 208.860687 
L 206.389385 208.516625 
L 206.81766 202.461139 
L 206.839623 202.392327 
L 206.927474 202.048265 
L 206.960418 202.220296 
L 207.070232 203.596543 
L 207.399675 208.482219 
L 207.487526 208.344594 
L 207.509489 208.482219 
L 207.586359 208.688656 
L 207.619303 208.516625 
L 207.641266 208.482219 
L 207.67421 208.65425 
L 207.773043 210.477777 
L 207.959727 213.574332 
L 207.970708 213.50552 
L 208.05856 213.127052 
L 208.091504 213.299083 
L 208.311132 216.154795 
L 208.420946 215.535484 
L 208.574686 212.817396 
L 208.651556 213.643144 
L 208.904129 215.982764 
L 209.002961 216.085983 
L 209.211608 218.735258 
L 209.233571 218.460008 
L 209.29946 217.083761 
L 209.365348 217.703072 
L 209.387311 217.806291 
L 209.431237 217.462229 
L 209.486144 215.397859 
L 209.530069 213.50552 
L 209.595958 215.12261 
L 210.210917 234.218034 
L 210.298768 233.80516 
L 210.320731 233.701941 
L 210.38662 232.153664 
L 210.551341 230.192512 
L 210.573304 230.364543 
L 210.606248 231.01826 
L 210.672136 232.841787 
L 210.738025 231.912821 
L 210.869802 231.396728 
L 210.880783 231.46554 
L 210.93569 231.637571 
L 210.968635 231.396728 
L 211.111393 229.160327 
L 211.210226 224.412276 
L 211.605557 183.812995 
L 211.715371 184.088245 
L 211.814204 184.088245 
L 211.967943 189.662044 
L 212.17659 213.50552 
L 212.242479 213.05824 
L 212.352293 211.750805 
L 212.396218 212.473335 
L 212.571921 221.143689 
L 212.725661 224.99718 
L 212.736642 224.928368 
L 212.824494 223.792965 
L 213.000196 222.244687 
L 213.055103 221.246908 
L 213.384546 214.365674 
L 213.57123 215.879546 
L 213.670063 215.56989 
L 213.779877 214.365674 
L 213.823802 214.881767 
L 214.032449 217.359011 
L 214.043431 217.290198 
L 214.098338 216.774106 
L 214.317966 214.709736 
L 214.328947 214.778548 
L 214.438762 215.397859 
L 214.482687 215.053797 
L 214.691334 211.578774 
L 214.757223 212.301304 
L 214.899981 213.127052 
L 214.910962 213.05824 
L 215.427089 209.170342 
L 215.89929 203.493324 
L 216.009104 202.977232 
L 216.031067 203.08045 
L 216.195788 204.800759 
L 216.514249 208.138157 
L 216.558175 208.172563 
L 216.667989 209.376779 
L 216.722896 208.998312 
L 216.920561 207.553252 
L 216.942524 207.622065 
L 217.074301 208.344594 
L 217.162152 208.757468 
L 217.195097 208.516625 
L 217.491595 202.151484 
L 217.799075 196.990558 
L 217.91987 199.880677 
L 218.315201 208.310188 
L 218.446978 207.897314 
L 218.490904 207.140378 
L 218.732495 202.977232 
L 218.798383 202.048265 
L 219.061937 197.162589 
L 219.204696 196.646497 
L 219.248621 196.88734 
L 219.39138 198.194774 
L 219.413343 198.882898 
L 219.446287 197.816306 
L 219.731804 172.871833 
L 219.973395 167.022785 
L 220.083209 160.4168 
L 220.127134 163.857417 
L 220.379707 184.432306 
L 220.445596 185.464492 
L 220.489521 184.67315 
L 220.577372 183.05606 
L 220.687187 178.824101 
L 220.731112 180.991689 
L 220.797001 182.436749 
L 220.862889 182.161499 
L 220.895834 181.920656 
L 220.939759 182.436749 
L 221.115462 189.558826 
L 221.280183 202.151484 
L 221.466867 209.10153 
L 221.532756 210.71862 
L 221.609625 212.886209 
L 221.664533 212.198085 
L 221.763365 211.234713 
L 221.829254 211.337931 
L 221.862198 211.234713 
L 221.982994 210.890651 
L 221.993975 210.925057 
L 222.42225 215.225828 
L 222.444213 215.191422 
L 222.57599 215.053797 
L 222.674823 214.950579 
L 222.817581 214.606517 
L 222.828563 214.67533 
L 223.190949 218.976101 
L 223.597262 226.373427 
L 223.89376 229.057108 
L 223.948667 228.644234 
L 224.003574 228.300173 
L 224.0475 228.644234 
L 224.420868 231.981633 
L 224.497738 231.878414 
L 224.607552 231.534353 
L 224.629515 231.74079 
L 224.695403 232.256882 
L 224.75031 231.912821 
L 224.794236 231.809602 
L 224.82718 231.981633 
L 225.068771 234.149222 
L 225.288399 238.243556 
L 225.497046 240.755206 
L 225.881396 243.782949 
L 225.903359 243.576512 
L 226.035136 240.583175 
L 226.090043 238.862867 
L 226.166913 239.10371 
L 226.254764 239.447772 
L 226.342615 239.310147 
L 226.353597 239.310147 
L 226.606169 243.782949 
L 226.825797 251.524337 
L 226.902667 251.008245 
L 226.913649 251.008245 
L 227.045426 252.556522 
L 227.122296 252.281273 
L 227.30898 252.384492 
L 227.341924 252.453304 
L 227.374868 252.178054 
L 227.440757 252.006024 
L 227.46272 252.178054 
L 227.616459 253.65752 
L 227.671366 253.21024 
L 227.737255 252.728553 
L 227.803143 252.900584 
L 228.132586 252.006024 
L 228.154549 252.109242 
L 228.385158 253.244646 
L 228.418103 253.21024 
L 228.440065 253.313458 
L 228.747545 255.205797 
L 228.813434 255.102579 
L 228.956192 254.070394 
L 228.989136 254.242425 
L 229.076987 254.448862 
L 229.09895 254.345643 
L 229.812742 248.599813 
L 229.889612 248.496594 
L 229.988445 247.980502 
L 230.021389 248.324563 
L 230.295925 250.905026 
L 230.449664 252.281273 
L 230.515553 251.937211 
L 230.603404 252.04043 
L 230.64733 252.350085 
L 230.691255 251.868399 
L 230.87794 249.631998 
L 230.888921 249.70081 
L 230.932847 249.597592 
L 231.086586 248.496594 
L 231.152475 248.909468 
L 231.207382 249.356749 
L 231.251308 248.909468 
L 231.35014 248.393376 
L 231.372103 248.565407 
L 231.394066 248.668625 
L 231.437992 248.496594 
L 231.459954 248.496594 
L 231.470936 248.427782 
L 231.50388 248.737438 
L 231.613694 249.631998 
L 231.668601 249.597592 
L 231.73449 249.528779 
L 231.855285 249.184718 
L 231.88823 249.25353 
L 231.932155 249.356749 
L 232.074914 250.457746 
L 232.118839 249.941653 
L 232.272579 247.808471 
L 232.36043 248.221345 
L 232.404356 248.152533 
L 232.525152 247.361191 
L 232.602022 247.567628 
L 232.623984 247.533222 
L 233.05226 242.544327 
L 233.249925 241.44333 
L 233.502498 241.340111 
L 233.557405 241.16808 
L 233.590349 241.340111 
L 233.645256 241.512142 
L 233.689182 241.271299 
L 233.777033 241.030456 
L 233.809977 241.202486 
L 233.83194 241.271299 
L 234.128438 242.475515 
L 234.227271 242.372296 
L 234.315122 241.44333 
L 234.359048 242.062641 
L 234.446899 243.23245 
L 234.501806 242.819576 
L 234.875174 240.342332 
L 234.897137 240.411144 
L 234.941063 240.824019 
L 234.974007 240.411144 
L 235.204617 234.97497 
L 235.270505 236.179186 
L 235.369338 237.48662 
L 235.413264 237.142558 
L 235.479152 236.626466 
L 235.523078 237.073746 
L 235.577985 237.211371 
L 235.610929 237.03934 
L 235.621911 237.03934 
L 235.665836 237.142558 
L 235.841539 238.346774 
L 235.863502 238.071525 
L 236.050186 231.878414 
L 236.149019 232.394507 
L 236.357665 231.46554 
L 236.39061 231.534353 
L 236.412573 231.46554 
L 236.500424 231.121479 
L 236.533368 231.362322 
L 237.027532 237.383402 
L 237.302067 239.654209 
L 237.335011 239.482178 
L 237.785249 234.114815 
L 237.960952 233.426692 
L 237.971933 233.529911 
L 238.114692 234.286846 
L 238.158617 234.046003 
L 238.202543 233.770754 
L 238.268432 234.046003 
L 238.619837 240.170301 
L 238.6418 240.067083 
L 238.663763 239.99827 
L 238.707688 240.239114 
L 238.949279 243.335669 
L 238.982224 243.06042 
L 239.234796 239.895052 
L 239.674053 235.663093 
L 239.750923 236.007155 
L 240.080365 240.135895 
L 240.223123 240.927237 
L 240.267049 241.030456 
L 240.552566 243.404481 
L 240.629436 242.647546 
L 240.838083 239.723021 
L 240.871027 240.239114 
L 241.002804 242.406702 
L 241.04673 241.856204 
L 241.299302 238.449993 
L 241.310284 238.587617 
L 241.343228 237.9339 
L 241.420098 234.734126 
L 241.650707 211.1659 
L 241.727577 214.365674 
L 242.155852 250.732995 
L 242.353518 266.31899 
L 242.386462 265.940522 
L 242.737867 258.405571 
L 243.089273 252.556522 
L 243.14418 252.728553 
L 243.177124 252.384492 
L 243.627362 247.017129 
L 243.671288 247.395597 
L 243.737176 248.496594 
L 243.792083 247.739659 
L 243.836009 247.120348 
L 243.890916 247.808471 
L 244.110544 249.528779 
L 244.187414 250.560965 
L 244.450968 254.448862 
L 244.472931 254.517674 
L 244.516857 254.689705 
L 244.560782 254.414456 
L 244.637652 254.345643 
L 244.736485 253.038209 
L 245.032983 249.528779 
L 245.076909 249.97606 
L 245.142797 250.629777 
L 245.186723 250.14809 
L 245.340463 248.427782 
L 245.406351 249.012687 
L 245.439295 249.081499 
L 245.483221 248.943875 
L 245.505184 248.943875 
L 245.582054 249.012687 
L 245.680887 249.597592 
L 245.713831 249.25353 
L 245.790701 248.668625 
L 245.823645 249.012687 
L 246.054255 250.14809 
L 246.087199 250.216903 
L 246.295846 250.905026 
L 246.394679 250.664183 
L 246.416641 250.801808 
L 246.460567 251.180276 
L 246.581363 252.178054 
L 246.625288 252.109242 
L 246.680195 251.249088 
L 246.965712 242.062641 
L 247.009638 242.475515 
L 247.064545 243.094826 
L 247.119452 242.716358 
L 247.240247 242.131453 
L 247.26221 242.234671 
L 247.350062 243.335669 
L 247.580671 250.801808 
L 247.635578 251.76518 
L 247.690485 251.077057 
L 247.932077 249.012687 
L 248.008947 250.14809 
L 248.096798 252.694147 
L 248.140723 251.661962 
L 248.34937 248.565407 
L 248.678813 245.847319 
L 248.73372 245.400039 
L 248.777646 245.812913 
L 248.909423 246.673067 
L 248.953348 246.501037 
L 248.997274 246.329006 
L 249.030218 246.673067 
L 249.107088 247.292378 
L 249.140032 246.845098 
L 249.183958 246.501037 
L 249.227884 246.879504 
L 249.414568 248.496594 
L 249.43653 248.324563 
L 249.568307 247.361191 
L 249.612233 247.705252 
L 249.656159 248.152533 
L 249.700084 247.705252 
L 249.89775 246.604255 
L 249.930694 246.673067 
L 250.183267 248.049314 
L 250.227192 248.255751 
L 250.260137 247.980502 
L 250.380932 246.845098 
L 250.468783 247.017129 
L 250.578598 247.464409 
L 250.611542 247.18916 
L 250.83117 245.400039 
L 250.886077 245.503258 
L 251.06178 248.496594 
L 251.160613 247.705252 
L 251.336315 247.292378 
L 251.369259 247.395597 
L 251.391222 247.464409 
L 251.424166 247.120348 
L 251.720665 242.028234 
L 251.819497 242.647546 
L 251.91833 241.340111 
L 251.984219 241.959422 
L 252.544271 246.776286 
L 252.566234 246.535443 
L 252.917639 241.61536 
L 252.961565 242.028234 
L 253.104323 243.23245 
L 253.137267 243.163638 
L 253.214137 242.647546 
L 253.258063 242.922795 
L 253.345914 242.991607 
L 253.323951 242.888389 
L 253.356895 242.888389 
L 253.444747 241.959422 
L 253.499654 242.544327 
L 253.510635 242.647546 
L 253.521617 242.303484 
L 253.697319 233.013818 
L 253.785171 234.734126 
L 254.235409 248.393376 
L 254.356204 253.244646 
L 254.389148 253.038209 
L 254.619758 247.808471 
L 254.861349 243.576512 
L 254.883312 243.5077 
L 254.916256 243.851761 
L 255.234717 247.120348 
L 255.278643 247.18916 
L 255.322569 247.017129 
L 255.509253 245.228008 
L 255.608086 242.028234 
L 255.79477 237.03934 
L 255.816732 236.970528 
L 255.871639 237.245777 
L 256.212063 239.963864 
L 256.321877 242.062641 
L 256.376785 240.996049 
L 256.629357 236.901715 
L 256.65132 236.970528 
L 256.684264 237.03934 
L 256.717208 236.729684 
L 256.980762 234.218034 
L 257.035669 234.630908 
L 257.079595 235.078188 
L 257.145484 234.630908 
L 257.573759 229.229139 
L 257.639647 229.814044 
L 257.716517 228.713047 
L 257.859276 228.128142 
L 257.96909 228.95389 
L 258.002034 228.437797 
L 258.309514 221.143689 
L 258.331476 221.246908 
L 258.408346 221.935031 
L 258.441291 221.556563 
L 258.638956 216.567669 
L 258.704844 217.63426 
L 259.045268 224.859556 
L 259.111157 225.857335 
L 259.286859 229.642013 
L 259.319804 228.368985 
L 259.407655 227.267988 
L 259.440599 227.612049 
L 259.781023 234.630908 
L 259.956726 241.512142 
L 260.06654 246.501037 
L 260.110466 245.847319 
L 260.483834 236.798497 
L 260.549722 234.493283 
L 260.615611 235.353438 
L 260.84622 239.55099 
L 261.087811 247.18916 
L 261.208607 252.522116 
L 261.285477 250.801808 
L 261.691789 238.587617 
L 261.779641 239.963864 
L 262.08712 246.191381 
L 262.262823 249.459967 
L 262.361656 250.973839 
L 262.405581 250.492152 
L 262.504414 249.528779 
L 262.54834 249.70081 
L 262.647172 249.941653 
L 262.669135 249.872841 
L 262.822875 248.909468 
L 262.855819 249.115905 
L 262.899745 248.668625 
L 263.273113 244.471072 
L 263.306057 244.127011 
L 263.580593 239.10371 
L 263.657463 240.067083 
L 263.811202 241.718579 
L 263.833165 241.61536 
L 263.899054 241.512142 
L 263.931998 241.44333 
L 263.964942 241.787391 
L 264.030831 242.475515 
L 264.085738 242.062641 
L 264.107701 242.131453 
L 264.26144 244.471072 
L 264.327329 244.023792 
L 264.393217 243.95498 
L 264.41518 244.092605 
L 264.514013 244.539885 
L 264.557939 244.195823 
L 264.700697 243.094826 
L 264.755604 243.5077 
L 264.909344 244.092605 
L 264.920325 244.023792 
L 264.997195 242.991607 
L 265.205842 240.824019 
L 265.359582 237.658651 
L 265.623136 231.052666 
L 265.65608 231.121479 
L 265.776876 231.912821 
L 265.80982 231.637571 
L 265.908653 230.605386 
L 265.974541 231.190291 
L 266.106318 234.493283 
L 266.216132 233.701941 
L 266.293002 234.837345 
L 266.347909 235.491062 
L 266.402816 234.837345 
L 266.523612 233.013818 
L 266.578519 233.426692 
L 266.864036 237.142558 
L 267.006794 237.658651 
L 267.094645 239.378959 
L 267.358199 243.404481 
L 267.402125 243.5077 
L 267.435069 243.335669 
L 267.621753 241.546548 
L 267.885307 237.727463 
L 267.951196 238.105931 
L 268.170824 242.062641 
L 268.346527 244.539885 
L 268.434378 245.744101 
L 268.621062 248.049314 
L 268.664988 247.739659 
L 268.697932 247.705252 
L 268.719895 247.911689 
L 268.785783 248.565407 
L 268.829709 248.08372 
L 268.862653 247.705252 
L 268.906579 248.496594 
L 269.411724 263.394466 
L 269.543501 264.564276 
L 269.587426 263.876152 
L 270.070609 255.549859 
L 270.169441 255.653078 
L 270.23533 255.997139 
L 270.279256 255.72189 
L 270.290237 255.653078 
L 270.334163 255.997139 
L 270.806364 262.499905 
L 270.839308 262.19025 
L 270.894215 261.846188 
L 270.93814 262.19025 
L 270.971085 262.327875 
L 271.01501 261.811782 
L 271.212676 259.781818 
L 271.454267 256.582044 
L 271.62997 255.136985 
L 271.695858 254.620893 
L 271.860579 254.001581 
L 272.146096 256.478826 
L 272.288855 257.098137 
L 272.508483 258.887258 
L 272.541427 258.474384 
L 272.596334 258.06151 
L 272.64026 258.474384 
L 272.706148 259.093695 
L 272.761055 258.715227 
L 272.936758 257.889479 
L 273.156386 256.134764 
L 273.189331 256.410013 
L 273.277182 256.926106 
L 273.321107 256.754075 
L 273.354052 256.685263 
L 273.386996 257.029324 
L 273.80429 261.983813 
L 273.826253 261.983813 
L 273.925085 264.598682 
L 273.969011 262.947186 
L 274.067844 254.758517 
L 274.331398 229.125921 
L 274.35336 229.160327 
L 274.485137 229.814044 
L 274.496119 229.67642 
L 274.58397 227.921705 
L 274.616914 229.160327 
L 274.73771 237.830682 
L 274.96832 256.478826 
L 274.990283 256.582044 
L 275.012245 256.065952 
L 275.407576 246.01935 
L 275.429539 246.191381 
L 275.484446 246.329006 
L 275.506409 246.156975 
L 275.682112 243.679731 
L 275.791926 243.851761 
L 275.868796 243.748543 
L 275.90174 243.610918 
L 275.945666 243.95498 
L 276.033517 244.608697 
L 276.088424 244.367854 
L 276.231182 244.436666 
L 276.308052 244.952759 
L 276.340997 244.608697 
L 276.472774 242.716358 
L 276.549643 243.163638 
L 276.824179 247.980502 
L 276.91203 247.223566 
L 277.010863 247.017129 
L 277.032826 247.120348 
L 277.186565 248.771844 
L 277.241473 248.08372 
L 277.439138 244.608697 
L 277.505027 245.468851 
L 277.559934 246.088162 
L 277.636803 245.916132 
L 277.900357 248.152533 
L 278.065079 249.528779 
L 278.109004 249.425561 
L 278.163911 249.184718 
L 278.196856 249.459967 
L 278.46041 251.868399 
L 278.526298 251.76518 
L 278.548261 251.696368 
L 278.592187 252.006024 
L 278.789852 252.866178 
L 278.93261 253.65752 
L 279.174202 255.72189 
L 279.262053 255.825108 
L 279.569532 259.85063 
L 279.635421 259.334538 
L 280.206455 253.416677 
L 280.283324 254.1048 
L 280.360194 254.620893 
L 280.40412 254.414456 
L 280.470008 254.173612 
L 280.502953 254.448862 
L 280.799451 257.442198 
L 280.832395 257.201355 
L 281.019079 256.065952 
L 281.041042 256.237983 
L 281.238708 256.822887 
L 281.282633 256.857294 
L 281.381466 257.373386 
L 281.425392 257.33898 
L 281.49128 257.889479 
L 281.886611 262.362281 
L 281.941518 262.775155 
L 281.996425 262.431093 
L 282.194091 260.986034 
L 282.358812 260.194692 
L 282.4247 259.575381 
L 282.479607 259.85063 
L 282.644329 260.366723 
L 282.65531 260.297911 
L 282.677273 260.263504 
L 282.951808 257.958291 
L 282.96279 258.027103 
L 282.995734 258.405571 
L 283.061622 259.162507 
L 283.127511 258.818445 
L 283.193399 258.715227 
L 283.237325 258.818445 
L 283.358121 260.263504 
L 283.544805 262.155844 
L 283.81934 265.286805 
L 283.929154 265.355617 
L 284.192708 266.972707 
L 284.291541 264.426651 
L 284.445281 262.947186 
L 284.577058 262.843967 
L 284.807667 261.295689 
L 284.851593 261.226877 
L 284.9065 260.986034 
L 284.950426 261.226877 
L 285.115147 261.674157 
L 285.126128 261.639751 
L 285.235942 261.226877 
L 285.279868 261.330096 
L 285.532441 262.534312 
L 285.554404 262.362281 
L 285.642255 262.018219 
L 285.68618 262.259062 
L 285.806976 262.499905 
L 285.817957 262.431093 
L 285.91679 261.123659 
L 286.114456 257.614229 
L 286.235251 258.302353 
L 286.410954 259.162507 
L 286.421935 259.093695 
L 286.564694 259.162507 
L 286.663526 260.366723 
L 286.883155 263.119216 
L 286.916099 263.188029 
L 286.949043 262.947186 
L 287.047876 262.603124 
L 287.069839 262.706342 
L 287.179653 264.082589 
L 287.267504 265.458836 
L 287.322411 265.252399 
L 287.926389 260.779597 
L 288.01424 260.263504 
L 288.047185 260.538754 
L 288.146017 261.570939 
L 288.178962 261.123659 
L 288.32172 260.022661 
L 288.640181 258.715227 
L 288.662144 258.749633 
L 288.728032 258.990476 
L 288.760977 258.749633 
L 289.134345 255.997139 
L 289.145326 256.065952 
L 289.310047 256.478826 
L 289.452806 255.377828 
L 289.507713 255.825108 
L 289.595564 256.513232 
L 289.63949 256.16917 
L 289.672434 256.237983 
L 289.749304 256.685263 
L 289.804211 256.410013 
L 290.067765 255.309016 
L 290.078746 255.377828 
L 290.111691 255.446641 
L 290.144635 255.136985 
L 290.276412 254.173612 
L 290.3423 254.276831 
L 290.397207 254.173612 
L 290.485059 255.653078 
L 290.539966 256.685263 
L 290.594873 255.653078 
L 290.616836 255.205797 
L 290.682724 256.478826 
L 290.737631 257.166949 
L 290.814501 256.994918 
L 290.858427 257.442198 
L 290.990204 258.715227 
L 291.034129 258.543196 
L 291.067074 258.474384 
L 291.132962 256.994918 
L 291.187869 255.653078 
L 291.231795 256.822887 
L 291.286702 258.715227 
L 291.35259 257.33898 
L 291.50633 255.962733 
L 291.5832 255.102579 
L 291.649089 255.481047 
L 291.780866 256.994918 
L 291.868717 258.577602 
L 291.912643 258.027103 
L 291.978531 257.442198 
L 292.033438 257.683042 
L 292.220122 258.130322 
L 292.242085 258.027103 
L 292.307974 257.855072 
L 292.373862 257.889479 
L 292.406806 257.78626 
L 292.538583 257.33898 
L 292.549565 257.373386 
L 292.736249 258.887258 
L 292.791156 258.302353 
L 292.90097 256.754075 
L 292.944896 257.166949 
L 293.109617 257.889479 
L 293.120598 257.855072 
L 293.296301 256.16917 
L 293.373171 255.205797 
L 293.428078 255.653078 
L 293.559855 257.029324 
L 293.603781 256.650857 
L 293.812427 254.173612 
L 293.856353 254.620893 
L 294.207758 258.543196 
L 294.229721 258.474384 
L 294.339535 257.717448 
L 294.383461 258.199134 
L 294.471312 259.231319 
L 294.515238 258.646414 
L 294.756829 255.618671 
L 294.866643 255.377828 
L 294.877625 255.446641 
L 295.009402 256.857294 
L 295.064309 256.237983 
L 295.108234 255.997139 
L 295.141179 256.306795 
L 295.415714 259.40335 
L 295.481602 259.747412 
L 295.53651 259.575381 
L 295.624361 259.506569 
L 295.646324 259.437756 
L 295.679268 259.85063 
L 295.800063 261.811782 
L 295.843989 261.295689 
L 296.063617 258.577602 
L 296.129506 258.990476 
L 296.206376 258.921664 
L 296.557781 256.650857 
L 296.590725 256.685263 
L 296.711521 257.545417 
L 296.744465 257.270168 
L 296.832316 256.685263 
L 296.876242 256.994918 
L 297.084889 258.543196 
L 297.150777 259.059288 
L 297.425313 260.814003 
L 297.436294 260.779597 
L 297.952421 255.618671 
L 297.974384 255.549859 
L 297.996346 255.481047 
L 298.051253 255.72189 
L 298.128123 257.373386 
L 298.391677 262.327875 
L 298.457566 262.878373 
L 298.633268 264.392245 
L 298.655231 264.426651 
L 298.688176 264.220214 
L 298.918785 262.018219 
L 298.962711 262.155844 
L 299.017618 262.259062 
L 299.281172 263.463278 
L 299.303135 263.394466 
L 299.325098 263.394466 
L 299.555707 264.942743 
L 299.588652 264.839525 
L 299.863187 263.119216 
L 299.907113 263.463278 
L 299.940057 263.394466 
L 300.082815 265.114774 
L 300.280481 267.075926 
L 300.357351 267.419988 
L 300.390295 267.144738 
L 300.752682 264.25462 
L 300.884458 262.775155 
L 300.939366 263.050404 
L 301.115068 263.463278 
L 301.20292 263.222435 
L 301.224882 263.36006 
L 301.345678 264.082589 
L 301.488436 264.564276 
L 301.521381 264.667494 
L 301.543343 264.564276 
L 301.642176 263.635309 
L 301.67512 263.979371 
L 301.993581 268.520985 
L 302.037507 268.039299 
L 302.081433 267.695237 
L 302.158303 267.867268 
L 302.454801 269.897232 
L 302.498726 269.381139 
L 302.696392 268.004893 
L 302.740318 268.108111 
L 302.806206 268.004893 
L 302.861113 267.867268 
L 302.894057 268.004893 
L 302.99289 268.693016 
L 303.025834 268.21133 
L 303.102704 266.800677 
L 303.14663 267.523206 
L 303.2235 268.555391 
L 303.256444 267.764049 
L 303.509017 256.513232 
L 303.816496 235.250219 
L 303.915329 238.518805 
L 304.211827 267.832862 
L 304.519307 294.2568 
L 304.607158 292.811741 
L 305.518616 277.741839 
L 305.727262 275.436625 
L 305.760207 275.677468 
L 305.782169 275.746281 
L 305.826095 275.436625 
L 305.957872 269.587576 
L 306.1775 259.40335 
L 306.386147 261.639751 
L 306.473999 261.226877 
L 306.495961 261.330096 
L 306.605776 263.979371 
L 306.770497 272.684132 
L 306.79246 272.34007 
L 307.26466 248.496594 
L 307.451345 243.679731 
L 307.484289 245.503258 
L 307.583121 252.006024 
L 307.659991 250.973839 
L 307.714898 253.072615 
L 308.033359 267.764049 
L 308.066304 268.520985 
L 308.231025 274.473252 
L 308.417709 277.156934 
L 308.516542 276.193561 
L 308.527523 276.124749 
L 308.560467 276.434404 
L 308.703226 277.913869 
L 308.73617 277.569808 
L 308.988743 271.961602 
L 309.406036 260.366723 
L 309.504869 258.474384 
L 309.691553 256.478826 
L 309.735479 256.410013 
L 309.779404 256.306795 
L 309.834312 256.478826 
L 310.031977 258.371165 
L 310.119828 258.130322 
L 310.185717 258.23354 
L 310.306512 259.609787 
L 310.570066 263.050404 
L 310.603011 262.947186 
L 310.67988 262.362281 
L 310.723806 262.603124 
L 310.800676 263.635309 
L 311.042267 266.972707 
L 311.37171 264.25462 
L 311.591338 259.162507 
L 311.668208 258.027103 
L 311.734096 258.199134 
L 311.789003 258.302353 
L 311.865873 259.40335 
L 312.294148 267.419988 
L 312.403963 267.93608 
L 312.447888 267.695237 
L 312.53574 267.592019 
L 312.689479 266.284584 
L 312.744386 266.835083 
L 312.788312 267.075926 
L 312.821256 266.559833 
L 312.865182 265.974929 
L 312.909108 266.559833 
L 312.996959 268.108111 
L 313.040885 267.351175 
L 313.260513 263.910558 
L 313.31542 264.220214 
L 313.524067 264.736306 
L 313.54603 264.598682 
L 313.6229 263.463278 
L 313.677807 264.392245 
L 313.842528 268.348954 
L 313.908416 267.660831 
L 313.930379 266.663052 
L 313.996268 268.38336 
L 314.237859 272.168039 
L 314.380617 273.200224 
L 314.40258 273.097006 
L 314.435524 272.993787 
L 314.468469 273.165818 
L 314.47945 273.165818 
L 314.567301 276.124749 
L 314.611227 277.810651 
L 314.699078 277.397777 
L 314.808892 278.705211 
L 314.852818 279.358929 
L 314.907725 278.36115 
L 314.973614 277.63862 
L 315.039502 277.913869 
L 315.061465 277.845057 
L 315.149316 276.434404 
L 315.215205 277.156934 
L 315.237168 277.225746 
L 315.25913 276.950497 
L 315.511703 273.200224 
L 315.522684 273.269037 
L 315.72035 275.952718 
L 315.808201 278.774024 
L 315.863108 277.673026 
L 315.896052 277.328965 
L 315.928997 278.0859 
L 315.983904 279.290116 
L 316.038811 278.189119 
L 316.071755 278.017088 
L 316.104699 278.429962 
L 316.302365 281.423299 
L 316.357272 280.907206 
L 316.642789 278.326743 
L 316.65377 278.429962 
L 316.851436 280.666363 
L 316.895361 280.563144 
L 317.180878 275.677468 
L 317.422469 246.776286 
L 317.576209 236.282404 
L 317.58719 236.351216 
L 317.74093 238.690836 
L 317.839763 243.23245 
L 318.235094 280.907206 
L 318.322945 280.081458 
L 318.762202 273.888348 
L 319.047718 270.172481 
L 319.080663 270.413324 
L 319.190477 272.168039 
L 319.267347 271.307885 
L 319.36618 270.516543 
L 319.399124 270.860605 
L 319.585808 273.372255 
L 319.805436 267.075926 
L 319.91525 266.491021 
L 319.937213 266.903895 
L 320.233711 269.897232 
L 320.244693 269.931638 
L 320.354507 275.918312 
L 320.431377 275.746281 
L 320.552172 277.225746 
L 320.618061 276.950497 
L 320.749838 276.46881 
L 320.760819 276.537623 
L 320.892596 275.092563 
L 320.980447 273.853941 
L 321.013392 274.370034 
L 321.07928 275.952718 
L 321.134187 275.230188 
L 321.189094 274.920533 
L 321.23302 275.264594 
L 321.254983 275.436625 
L 321.30989 274.886126 
L 321.419704 273.681911 
L 321.485593 274.025972 
L 321.562462 274.576471 
L 321.672277 276.090342 
L 321.716202 275.436625 
L 321.815035 274.370034 
L 321.858961 274.576471 
L 321.979756 275.918312 
L 322.034663 277.294558 
L 322.08957 276.296779 
L 322.16644 275.333407 
L 322.232329 275.436625 
L 322.309199 275.058157 
L 322.342143 275.333407 
L 322.451957 276.984903 
L 322.506864 276.262373 
L 322.660604 274.370034 
L 322.70453 274.645283 
L 322.781399 275.230188 
L 322.814344 274.748502 
L 322.902195 273.441067 
L 322.946121 273.95716 
L 323.297526 278.601993 
L 323.33047 278.36115 
L 323.451266 277.466589 
L 323.48421 277.810651 
L 323.56108 278.429962 
L 323.594024 277.982682 
L 323.802671 272.993787 
L 323.879541 269.037078 
L 324.088188 259.093695 
L 324.230946 256.754075 
L 324.296835 257.201355 
L 324.373705 257.442198 
L 324.406649 257.270168 
L 324.439593 257.098137 
L 324.472537 257.373386 
L 324.527444 260.814003 
L 324.812961 278.53318 
L 325.03259 281.59533 
L 325.131422 283.074795 
L 325.164366 282.455484 
L 325.460865 276.640841 
L 325.471846 276.640841 
L 325.65853 277.63862 
L 325.702456 277.741839 
L 325.724419 277.569808 
L 325.801289 276.812872 
L 325.845214 277.328965 
L 325.987973 277.982682 
L 325.998954 277.913869 
L 326.04288 277.810651 
L 326.086805 278.0859 
L 326.229564 278.670805 
L 326.251527 278.705211 
L 326.284471 278.53318 
L 326.537043 277.466589 
L 326.580969 277.225746 
L 326.624895 277.63862 
L 326.679802 278.154713 
L 326.734709 277.63862 
L 326.9763 273.165818 
L 327.20691 256.994918 
L 327.338687 256.513232 
L 327.360649 256.650857 
L 327.624203 259.781818 
L 327.876776 277.63862 
L 328.019534 278.842836 
L 328.041497 278.670805 
L 328.239163 276.090342 
L 328.283088 276.434404 
L 328.436828 278.53318 
L 328.502717 278.189119 
L 328.689401 277.500995 
L 328.733326 277.741839 
L 328.788233 278.154713 
L 328.84314 277.810651 
L 328.876085 277.673026 
L 328.92001 277.913869 
L 328.974917 277.982682 
L 329.007862 277.810651 
L 329.095713 277.225746 
L 329.15062 277.397777 
L 329.22749 276.606435 
L 329.260434 277.053715 
L 329.337304 278.154713 
L 329.392211 277.741839 
L 329.436137 277.810651 
L 329.53497 278.705211 
L 329.600858 278.326743 
L 329.655765 278.429962 
L 330.325631 282.627515 
L 330.380538 282.455484 
L 330.841758 276.950497 
L 330.863721 276.881684 
L 330.940591 276.606435 
L 330.984516 276.778466 
L 331.226107 280.081458 
L 331.379847 280.838394 
L 331.445736 281.010425 
L 331.467699 280.838394 
L 331.489661 280.563144 
L 331.983825 235.42225 
L 332.104621 234.97497 
L 332.126583 235.078188 
L 332.148546 235.319031 
L 332.532896 276.984903 
L 332.620747 276.193561 
L 332.708598 276.090342 
L 332.807431 274.817314 
L 332.895282 273.888348 
L 332.961171 274.129191 
L 333.070985 273.200224 
L 333.114911 273.613098 
L 333.367483 276.778466 
L 333.543186 278.601993 
L 333.587112 278.017088 
L 333.642019 276.984903 
L 333.696926 277.982682 
L 333.773796 279.049273 
L 333.817721 278.36115 
L 333.894591 277.741839 
L 333.938517 277.982682 
L 333.982443 278.017088 
L 333.993424 277.913869 
L 334.081275 276.124749 
L 334.147164 274.989345 
L 334.191089 275.608656 
L 334.289922 276.812872 
L 334.322866 276.46881 
L 334.674272 271.548728 
L 334.718197 271.823977 
L 334.784086 272.408882 
L 334.81703 271.89279 
L 335.102547 267.4888 
L 335.190398 266.731864 
L 335.256287 266.903895 
L 335.399045 268.452173 
L 335.882227 276.984903 
L 335.893209 276.950497 
L 336.035967 275.505438 
L 336.178725 273.853941 
L 336.200688 274.025972 
L 336.266577 274.542065 
L 336.28854 274.129191 
L 336.541112 269.55317 
L 336.639945 269.484358 
L 337.123127 265.286805 
L 337.156071 265.596461 
L 337.45257 268.555391 
L 337.529439 269.725201 
L 337.792993 274.989345 
L 337.880845 274.370034 
L 338.133417 272.133633 
L 338.583655 267.832862 
L 338.880154 266.284584 
L 338.902116 266.456615 
L 339.187633 268.38336 
L 339.198615 268.348954 
L 339.24254 268.108111 
L 339.275484 268.38336 
L 339.374317 269.587576 
L 339.39628 269.037078 
L 339.615908 256.926106 
L 339.813574 240.858425 
L 339.846518 241.512142 
L 340.132035 255.102579 
L 340.549329 288.751813 
L 340.615217 288.51097 
L 340.911715 284.691885 
L 340.999567 282.661921 
L 341.043492 283.315638 
L 341.120362 284.623072 
L 341.164288 283.934949 
L 341.296065 280.941612 
L 341.350972 281.423299 
L 341.383916 281.59533 
L 341.427842 281.354486 
L 341.438823 281.354486 
L 341.471767 281.251268 
L 341.537656 281.010425 
L 341.559619 281.182456 
L 341.658451 283.522075 
L 341.713359 282.455484 
L 341.790228 281.182456 
L 341.845135 281.801767 
L 341.965931 282.627515 
L 341.987894 282.48989 
L 342.053782 281.939391 
L 342.317336 279.97824 
L 342.405188 280.081458 
L 342.493039 280.391114 
L 342.547946 280.322301 
L 342.58089 280.219083 
L 342.65776 279.70299 
L 342.690704 280.15027 
L 342.877388 283.178013 
L 342.921314 282.971576 
L 343.04211 282.661921 
L 343.053091 282.730733 
L 343.184868 283.831731 
L 343.250757 283.315638 
L 343.657069 281.113643 
L 343.690013 281.251268 
L 343.722957 281.285674 
L 343.74492 281.182456 
L 343.843753 278.705211 
L 343.909641 280.253489 
L 344.063381 282.283453 
L 344.085344 282.145828 
L 344.151233 281.76736 
L 344.20614 282.111422 
L 344.228102 282.214641 
L 344.272028 281.973797 
L 344.403805 280.047052 
L 344.447731 280.941612 
L 344.524601 282.558702 
L 344.579508 281.973797 
L 344.75521 280.391114 
L 344.810117 280.838394 
L 344.941894 281.423299 
L 344.974839 281.251268 
L 345.106616 279.909427 
L 345.172504 278.946054 
L 345.238393 279.221304 
L 345.271337 279.186898 
L 345.633724 275.230188 
L 345.666668 275.436625 
L 345.809426 277.913869 
L 345.875315 276.984903 
L 345.985129 275.436625 
L 346.040036 276.124749 
L 346.281627 279.875021 
L 346.325553 280.047052 
L 346.369478 279.70299 
L 346.523218 279.393335 
L 346.567144 279.462147 
L 346.665977 280.563144 
L 346.709902 279.97824 
L 346.907568 277.982682 
L 346.973456 278.017088 
L 346.984438 277.294558 
L 347.23701 237.761869 
L 347.31388 231.706384 
L 347.368787 232.566538 
L 347.665285 239.619803 
L 347.851969 269.931638 
L 347.950802 283.487669 
L 348.027672 282.902764 
L 348.104542 281.182456 
L 348.499873 249.356749 
L 348.576743 250.388934 
L 348.818334 257.958291 
L 349.158758 283.143607 
L 349.202683 282.214641 
L 349.521144 268.796234 
L 349.729791 263.463278 
L 349.905494 261.846188 
L 349.927457 262.018219 
L 350.103159 263.738528 
L 350.399658 266.663052 
L 350.432602 266.559833 
L 350.454565 266.387803 
L 350.49849 266.800677 
L 350.564379 267.007114 
L 350.597323 266.731864 
L 350.608304 266.663052 
L 350.65223 267.007114 
L 350.860877 267.832862 
L 350.88284 267.764049 
L 351.157375 265.355617 
L 351.234245 264.082589 
L 351.289152 264.564276 
L 351.431911 265.286805 
L 351.904111 273.50988 
L 352.04687 273.372255 
L 352.145703 272.993787 
L 352.189628 273.269037 
L 352.266498 273.544286 
L 352.288461 273.337849 
L 352.508089 269.209108 
L 352.947346 260.435535 
L 353.002253 260.710785 
L 353.342677 262.878373 
L 353.386602 263.635309 
L 353.595249 267.832862 
L 353.606231 267.316769 
L 353.748989 265.286805 
L 354.352967 274.232409 
L 354.440818 275.746281 
L 354.495725 275.092563 
L 354.517688 275.161376 
L 354.748298 277.122528 
L 354.814186 276.434404 
L 354.880075 275.264594 
L 354.945963 275.746281 
L 355.00087 276.124749 
L 355.044796 275.677468 
L 355.253443 273.097006 
L 355.264424 273.165818 
L 355.341294 273.716317 
L 355.582885 275.746281 
L 355.593867 275.677468 
L 355.681718 274.989345 
L 355.725644 275.436625 
L 355.846439 277.500995 
L 355.890365 276.46881 
L 356.142937 270.585355 
L 356.296677 268.039299 
L 356.384529 268.38336 
L 356.54925 271.823977 
L 356.692008 278.53318 
L 356.735934 277.982682 
L 356.77986 277.466589 
L 356.823785 278.017088 
L 356.878692 279.118085 
L 356.944581 278.498774 
L 357.010469 278.601993 
L 357.164209 274.370034 
L 357.383837 265.252399 
L 357.504633 265.630867 
L 357.515614 265.630867 
L 357.86702 271.204666 
L 358.075666 275.230188 
L 358.108611 275.333407 
L 358.141555 275.161376 
L 358.251369 274.748502 
L 358.273332 274.817314 
L 358.405109 275.505438 
L 358.438053 275.161376 
L 358.580812 274.40444 
L 358.701607 273.681911 
L 358.95418 271.548728 
L 359.063994 270.585355 
L 359.085957 270.757386 
L 359.294604 272.924975 
L 359.316566 272.752944 
L 359.547176 270.447731 
L 359.58012 271.101448 
L 359.646009 272.133633 
L 359.711897 271.720759 
L 359.744842 271.823977 
L 359.777786 271.44551 
L 359.909563 268.280142 
L 359.975451 268.968265 
L 360.140172 270.103669 
L 360.151154 270.069263 
L 360.228024 269.55317 
L 360.271949 269.897232 
L 360.326856 270.344512 
L 360.381764 269.897232 
L 360.458633 268.108111 
L 360.74415 236.557653 
L 360.82102 238.449993 
L 361.150463 251.421119 
L 361.435979 284.382229 
L 361.512849 282.971576 
L 361.787385 272.856162 
L 361.919162 273.544286 
L 362.017994 272.924975 
L 362.116827 271.89279 
L 362.149771 272.34007 
L 362.347437 277.156934 
L 362.391362 276.193561 
L 362.687861 264.151402 
L 362.720805 264.392245 
L 362.786693 264.667494 
L 362.808656 264.426651 
L 363.006322 262.087031 
L 363.028285 262.603124 
L 363.127117 267.007114 
L 363.22595 270.103669 
L 363.269876 269.759607 
L 363.368708 267.867268 
L 363.45656 266.31899 
L 363.522448 266.387803 
L 363.566374 266.456615 
L 363.676188 268.38336 
L 364.192314 279.875021 
L 364.280166 280.563144 
L 364.324091 280.081458 
L 364.411943 278.257931 
L 364.840218 256.410013 
L 365.037883 238.415587 
L 365.103772 240.307926 
L 365.608917 274.748502 
L 365.718731 281.113643 
L 365.773638 280.42552 
L 365.982285 278.53318 
L 366.114062 278.429962 
L 366.179951 276.812872 
L 366.344672 274.817314 
L 366.377616 274.920533 
L 366.465467 276.296779 
L 366.520374 275.677468 
L 366.707058 273.269037 
L 366.740003 273.165818 
L 366.783928 273.372255 
L 366.860798 273.95716 
L 366.915705 273.681911 
L 366.959631 274.060378 
L 367.025519 274.748502 
L 367.080427 274.301222 
L 367.113371 274.40444 
L 367.245148 276.881684 
L 367.278092 276.124749 
L 367.387906 274.060378 
L 367.42085 274.473252 
L 367.585572 275.746281 
L 367.947958 280.081458 
L 368.046791 280.735175 
L 368.057772 280.494332 
L 368.11268 279.875021 
L 368.156605 280.494332 
L 368.222494 281.698548 
L 368.277401 281.113643 
L 368.453103 276.709653 
L 368.573899 274.920533 
L 368.606843 275.058157 
L 368.683713 275.505438 
L 368.727639 275.264594 
L 369.111988 270.860605 
L 369.177877 271.823977 
L 369.221802 272.236851 
L 369.27671 271.61754 
L 369.331617 271.032635 
L 369.375542 271.651947 
L 369.67204 276.881684 
L 369.759892 278.946054 
L 369.803817 278.257931 
L 370.012464 271.479916 
L 370.36387 263.291247 
L 370.451721 265.183587 
L 370.495647 267.179144 
L 370.682331 272.305664 
L 370.978829 275.092563 
L 371.033736 274.576471 
L 371.22042 272.821756 
L 371.286308 273.097006 
L 371.385141 274.198003 
L 371.429067 273.888348 
L 371.483974 273.785129 
L 371.505937 273.95716 
L 371.670658 275.333407 
L 371.725565 275.058157 
L 372.055007 271.823977 
L 372.07697 271.961602 
L 372.351506 275.436625 
L 372.38445 275.230188 
L 372.439357 274.645283 
L 372.483283 275.333407 
L 372.691929 277.569808 
L 372.702911 277.673026 
L 372.746837 277.328965 
L 372.944502 274.748502 
L 372.955483 274.817314 
L 373.065298 276.193561 
L 373.109223 276.950497 
L 373.16413 276.365592 
L 373.262963 274.645283 
L 373.31787 274.989345 
L 373.482591 275.436625 
L 373.493573 275.402219 
L 373.603387 274.025972 
L 373.658294 273.200224 
L 373.713201 273.853941 
L 373.899885 276.640841 
L 373.943811 276.090342 
L 374.108532 274.370034 
L 374.141476 274.232409 
L 374.17442 274.645283 
L 374.306197 276.262373 
L 374.361105 275.849499 
L 374.426993 275.746281 
L 374.536807 274.748502 
L 374.569751 275.264594 
L 374.63564 276.262373 
L 374.701528 275.849499 
L 374.800361 276.709653 
L 374.844287 276.262373 
L 374.954101 274.576471 
L 375.052934 274.714096 
L 375.085878 274.576471 
L 375.118822 274.920533 
L 375.195692 275.402219 
L 375.239618 275.161376 
L 375.272562 275.264594 
L 375.382376 276.46881 
L 375.448265 276.262373 
L 375.470227 276.193561 
L 375.503172 276.537623 
L 375.602004 278.670805 
L 375.64593 277.466589 
L 375.744763 274.886126 
L 375.79967 275.333407 
L 375.865558 275.780687 
L 375.898503 275.436625 
L 375.986354 274.060378 
L 376.03028 274.576471 
L 376.205982 275.505438 
L 376.227945 275.436625 
L 376.260889 275.849499 
L 376.381685 278.0859 
L 376.414629 277.466589 
L 376.557387 273.681911 
L 376.634257 274.370034 
L 376.645239 274.370034 
L 376.711127 271.789571 
L 376.766034 270.103669 
L 376.820941 271.44551 
L 376.88683 272.236851 
L 376.930756 271.479916 
L 377.018607 270.860605 
L 377.051551 271.135854 
L 377.348049 277.500995 
L 377.424919 280.42552 
L 377.479826 279.186898 
L 377.545715 277.913869 
L 377.600622 278.670805 
L 377.721417 280.563144 
L 377.765343 279.97824 
L 377.995953 277.122528 
L 378.017916 277.053715 
L 378.149693 275.780687 
L 378.226563 276.365592 
L 378.248525 276.434404 
L 378.292451 276.262373 
L 378.512079 272.168039 
L 378.720726 269.037078 
L 378.841522 267.764049 
L 379.028206 264.082589 
L 379.050169 264.25462 
L 379.13802 266.731864 
L 379.456481 271.961602 
L 379.544332 272.408882 
L 379.566295 272.168039 
L 379.621202 271.789571 
L 379.654146 272.305664 
L 379.818868 274.714096 
L 379.829849 274.645283 
L 379.884756 273.681911 
L 380.07144 271.376697 
L 380.126347 271.273479 
L 380.170273 271.479916 
L 380.269106 272.684132 
L 380.30205 273.269037 
L 380.356957 272.477695 
L 380.488734 271.376697 
L 380.499715 271.44551 
L 380.587567 273.200224 
L 380.620511 273.544286 
L 380.675418 272.924975 
L 380.873083 271.823977 
L 380.895046 271.89279 
L 381.092712 270.069263 
L 381.136637 269.312327 
L 381.213507 269.587576 
L 381.268414 269.312327 
L 381.301359 269.55317 
L 381.433136 271.823977 
L 381.597857 274.40444 
L 381.652764 274.301222 
L 381.685708 274.232409 
L 381.707671 274.473252 
L 381.817485 276.778466 
L 381.894355 275.918312 
L 382.135946 273.853941 
L 382.201835 274.025972 
L 382.212816 273.888348 
L 382.366556 272.305664 
L 382.410482 272.512101 
L 382.465389 272.752944 
L 382.509314 272.408882 
L 382.55324 272.168039 
L 382.586184 272.684132 
L 382.750905 275.333407 
L 382.772868 275.092563 
L 382.86072 273.95716 
L 382.904645 274.576471 
L 383.069366 277.500995 
L 383.102311 277.328965 
L 383.124274 277.225746 
L 383.157218 277.466589 
L 383.245069 278.946054 
L 383.288995 278.154713 
L 383.40979 276.709653 
L 383.442735 276.984903 
L 383.497642 277.466589 
L 383.56353 277.122528 
L 383.662363 276.950497 
L 383.684326 276.984903 
L 383.816103 278.154713 
L 383.849047 277.845057 
L 383.936898 276.881684 
L 384.013768 277.294558 
L 384.145545 278.017088 
L 384.233396 278.429962 
L 384.277322 278.326743 
L 384.321248 278.257931 
L 384.431062 276.950497 
L 384.474988 276.434404 
L 384.529895 276.950497 
L 384.617746 278.326743 
L 384.683634 277.810651 
L 384.738541 277.845057 
L 384.980133 276.640841 
L 385.067984 276.640841 
L 385.166817 277.982682 
L 385.210742 277.397777 
L 385.276631 276.950497 
L 385.320556 277.328965 
L 385.375464 277.500995 
L 385.430371 277.397777 
L 385.529203 277.122528 
L 385.551166 277.225746 
L 385.781776 278.774024 
L 385.803739 278.670805 
L 385.924534 277.500995 
L 385.990423 277.63862 
L 386.012386 277.569808 
L 386.133181 276.881684 
L 386.166125 277.156934 
L 386.210051 277.397777 
L 386.253977 276.984903 
L 386.517531 275.436625 
L 386.803047 277.63862 
L 386.868936 277.122528 
L 387.110527 275.402219 
L 387.154453 275.436625 
L 387.176416 275.264594 
L 387.418007 273.200224 
L 387.505858 272.993787 
L 387.527821 273.165818 
L 387.703523 273.95716 
L 387.758431 272.477695 
L 387.8353 270.069263 
L 387.890208 271.44551 
L 387.923152 271.789571 
L 387.967077 271.135854 
L 388.318483 267.316769 
L 388.351427 267.419988 
L 388.362408 267.351175 
L 388.395353 266.972707 
L 388.428297 267.93608 
L 388.52713 271.651947 
L 388.593018 271.273479 
L 388.614981 271.273479 
L 388.669888 271.101448 
L 388.713814 271.376697 
L 389.054237 278.36115 
L 389.109145 279.221304 
L 389.164052 278.498774 
L 389.251903 277.913869 
L 389.284847 278.326743 
L 389.46055 280.081458 
L 389.482513 279.97824 
L 389.53742 279.634178 
L 389.570364 280.081458 
L 389.636252 281.285674 
L 389.69116 280.563144 
L 389.779011 279.875021 
L 389.822936 280.047052 
L 389.910788 280.666363 
L 389.976676 281.079237 
L 390.009621 280.735175 
L 390.141398 279.290116 
L 390.185323 279.634178 
L 390.196305 279.70299 
L 390.24023 279.290116 
L 390.448877 277.673026 
L 390.789301 276.262373 
L 390.954022 275.57425 
L 391.019911 275.505438 
L 391.184632 273.716317 
L 391.261502 274.129191 
L 391.48113 275.333407 
L 391.514074 275.092563 
L 391.667814 274.473252 
L 391.700758 274.748502 
L 391.821554 276.193561 
L 391.876461 275.57425 
L 391.986275 274.748502 
L 392.019219 274.920533 
L 392.063145 275.161376 
L 392.129034 274.989345 
L 392.249829 274.301222 
L 392.304736 274.576471 
L 392.590253 276.881684 
L 392.634179 276.778466 
L 392.7989 275.849499 
L 392.842826 276.124749 
L 392.963621 277.673026 
L 393.02951 277.397777 
L 393.128342 277.741839 
L 393.150305 277.500995 
L 393.336989 276.640841 
L 393.50171 277.741839 
L 393.600543 277.63862 
L 393.666432 277.63862 
L 393.864097 276.434404 
L 394.522982 282.48989 
L 394.566908 282.214641 
L 394.852424 279.462147 
L 394.907332 279.290116 
L 394.940276 279.530959 
L 395.236774 282.283453 
L 395.247755 281.76736 
L 395.423458 264.770713 
L 395.862715 216.911731 
L 395.950566 209.720841 
L 396.005473 210.821839 
L 396.148231 219.25135 
L 396.258046 218.838476 
L 396.334915 218.80407 
L 396.477674 214.950579 
L 396.488655 214.606517 
L 396.532581 216.154795 
L 396.620432 218.80407 
L 396.675339 217.978322 
L 396.763191 213.127052 
L 396.960856 203.252481 
L 396.982819 203.3557 
L 397.14754 205.832944 
L 397.180484 204.731947 
L 397.444038 195.235844 
L 397.45502 195.407875 
L 397.663667 202.461139 
L 397.773481 201.01608 
L 397.971146 196.130404 
L 398.069979 194.375689 
L 398.124886 195.27025 
L 398.476291 200.259144 
L 398.487273 200.224738 
" style="fill:none;stroke:#1f77b4;stroke-linecap:square;stroke-width:1.5;"/>
   </g>
   <g id="patch_3">
    <path d="M 57.6 306.3024 
L 57.6 41.2992 
" style="fill:none;stroke:#000000;stroke-linecap:square;stroke-linejoin:miter;stroke-width:0.8;"/>
   </g>
   <g id="patch_4">
    <path d="M 414.72 306.3024 
L 414.72 41.2992 
" style="fill:none;stroke:#000000;stroke-linecap:square;stroke-linejoin:miter;stroke-width:0.8;"/>
   </g>
   <g id="patch_5">
    <path d="M 57.6 306.3024 
L 414.72 306.3024 
" style="fill:none;stroke:#000000;stroke-linecap:square;stroke-linejoin:miter;stroke-width:0.8;"/>
   </g>
   <g id="patch_6">
    <path d="M 57.6 41.2992 
L 414.72 41.2992 
" style="fill:none;stroke:#000000;stroke-linecap:square;stroke-linejoin:miter;stroke-width:0.8;"/>
   </g>
   <g id="text_18">
    <!-- Ritmo Cardíaco -->
    <g transform="translate(190.094063 35.2992)scale(0.12 -0.12)">
     <use xlink:href="#DejaVuSans-82"/>
     <use x="69.482422" xlink:href="#DejaVuSans-105"/>
     <use x="97.265625" xlink:href="#DejaVuSans-116"/>
     <use x="136.474609" xlink:href="#DejaVuSans-109"/>
     <use x="233.886719" xlink:href="#DejaVuSans-111"/>
     <use x="295.068359" xlink:href="#DejaVuSans-32"/>
     <use x="326.855469" xlink:href="#DejaVuSans-67"/>
     <use x="396.679688" xlink:href="#DejaVuSans-97"/>
     <use x="457.958984" xlink:href="#DejaVuSans-114"/>
     <use x="499.056641" xlink:href="#DejaVuSans-100"/>
     <use x="562.533203" xlink:href="#DejaVuSans-237"/>
     <use x="590.316406" xlink:href="#DejaVuSans-97"/>
     <use x="651.595703" xlink:href="#DejaVuSans-99"/>
     <use x="706.576172" xlink:href="#DejaVuSans-111"/>
    </g>
   </g>
  </g>
 </g>
 <defs>
  <clipPath id="p2f713851bf">
   <rect height="265.0032" width="357.12" x="57.6" y="41.2992"/>
  </clipPath>
 </defs>
</svg>
