<?xml version="1.0" encoding="utf-8" standalone="no"?>
<!DOCTYPE svg PUBLIC "-//W3C//DTD SVG 1.1//EN"
  "http://www.w3.org/Graphics/SVG/1.1/DTD/svg11.dtd">
<!-- Created with matplotlib (https://matplotlib.org/) -->
<svg height="344.16pt" version="1.1" viewBox="0 0 460.8 344.16" width="460.8pt" xmlns="http://www.w3.org/2000/svg" xmlns:xlink="http://www.w3.org/1999/xlink">
 <defs>
  <style type="text/css">
*{stroke-linecap:butt;stroke-linejoin:round;}
  </style>
 </defs>
 <g id="figure_1">
  <g id="patch_1">
   <path d="M 0 344.16 
L 460.8 344.16 
L 460.8 0 
L 0 0 
z
" style="fill:#ffffff;"/>
  </g>
  <g id="axes_1">
   <g id="patch_2">
    <path d="M 57.6 306.3024 
L 414.72 306.3024 
L 414.72 41.2992 
L 57.6 41.2992 
z
" style="fill:#ffffff;"/>
   </g>
   <g id="matplotlib.axis_1">
    <g id="xtick_1">
     <g id="line2d_1">
      <defs>
       <path d="M 0 0 
L 0 3.5 
" id="m78cef67f9e" style="stroke:#000000;stroke-width:0.8;"/>
      </defs>
      <g>
       <use style="stroke:#000000;stroke-width:0.8;" x="73.832727" xlink:href="#m78cef67f9e" y="306.3024"/>
      </g>
     </g>
     <g id="text_1">
      <!-- 0 -->
      <defs>
       <path d="M 31.78125 66.40625 
Q 24.171875 66.40625 20.328125 58.90625 
Q 16.5 51.421875 16.5 36.375 
Q 16.5 21.390625 20.328125 13.890625 
Q 24.171875 6.390625 31.78125 6.390625 
Q 39.453125 6.390625 43.28125 13.890625 
Q 47.125 21.390625 47.125 36.375 
Q 47.125 51.421875 43.28125 58.90625 
Q 39.453125 66.40625 31.78125 66.40625 
z
M 31.78125 74.21875 
Q 44.046875 74.21875 50.515625 64.515625 
Q 56.984375 54.828125 56.984375 36.375 
Q 56.984375 17.96875 50.515625 8.265625 
Q 44.046875 -1.421875 31.78125 -1.421875 
Q 19.53125 -1.421875 13.0625 8.265625 
Q 6.59375 17.96875 6.59375 36.375 
Q 6.59375 54.828125 13.0625 64.515625 
Q 19.53125 74.21875 31.78125 74.21875 
z
" id="DejaVuSans-48"/>
      </defs>
      <g transform="translate(70.651477 320.900838)scale(0.1 -0.1)">
       <use xlink:href="#DejaVuSans-48"/>
      </g>
     </g>
    </g>
    <g id="xtick_2">
     <g id="line2d_2">
      <g>
       <use style="stroke:#000000;stroke-width:0.8;" x="118.186865" xlink:href="#m78cef67f9e" y="306.3024"/>
      </g>
     </g>
     <g id="text_2">
      <!-- 2500 -->
      <defs>
       <path d="M 19.1875 8.296875 
L 53.609375 8.296875 
L 53.609375 0 
L 7.328125 0 
L 7.328125 8.296875 
Q 12.9375 14.109375 22.625 23.890625 
Q 32.328125 33.6875 34.8125 36.53125 
Q 39.546875 41.84375 41.421875 45.53125 
Q 43.3125 49.21875 43.3125 52.78125 
Q 43.3125 58.59375 39.234375 62.25 
Q 35.15625 65.921875 28.609375 65.921875 
Q 23.96875 65.921875 18.8125 64.3125 
Q 13.671875 62.703125 7.8125 59.421875 
L 7.8125 69.390625 
Q 13.765625 71.78125 18.9375 73 
Q 24.125 74.21875 28.421875 74.21875 
Q 39.75 74.21875 46.484375 68.546875 
Q 53.21875 62.890625 53.21875 53.421875 
Q 53.21875 48.921875 51.53125 44.890625 
Q 49.859375 40.875 45.40625 35.40625 
Q 44.1875 33.984375 37.640625 27.21875 
Q 31.109375 20.453125 19.1875 8.296875 
z
" id="DejaVuSans-50"/>
       <path d="M 10.796875 72.90625 
L 49.515625 72.90625 
L 49.515625 64.59375 
L 19.828125 64.59375 
L 19.828125 46.734375 
Q 21.96875 47.46875 24.109375 47.828125 
Q 26.265625 48.1875 28.421875 48.1875 
Q 40.625 48.1875 47.75 41.5 
Q 54.890625 34.8125 54.890625 23.390625 
Q 54.890625 11.625 47.5625 5.09375 
Q 40.234375 -1.421875 26.90625 -1.421875 
Q 22.3125 -1.421875 17.546875 -0.640625 
Q 12.796875 0.140625 7.71875 1.703125 
L 7.71875 11.625 
Q 12.109375 9.234375 16.796875 8.0625 
Q 21.484375 6.890625 26.703125 6.890625 
Q 35.15625 6.890625 40.078125 11.328125 
Q 45.015625 15.765625 45.015625 23.390625 
Q 45.015625 31 40.078125 35.4375 
Q 35.15625 39.890625 26.703125 39.890625 
Q 22.75 39.890625 18.8125 39.015625 
Q 14.890625 38.140625 10.796875 36.28125 
z
" id="DejaVuSans-53"/>
      </defs>
      <g transform="translate(105.461865 320.900838)scale(0.1 -0.1)">
       <use xlink:href="#DejaVuSans-50"/>
       <use x="63.623047" xlink:href="#DejaVuSans-53"/>
       <use x="127.246094" xlink:href="#DejaVuSans-48"/>
       <use x="190.869141" xlink:href="#DejaVuSans-48"/>
      </g>
     </g>
    </g>
    <g id="xtick_3">
     <g id="line2d_3">
      <g>
       <use style="stroke:#000000;stroke-width:0.8;" x="162.541002" xlink:href="#m78cef67f9e" y="306.3024"/>
      </g>
     </g>
     <g id="text_3">
      <!-- 5000 -->
      <g transform="translate(149.816002 320.900838)scale(0.1 -0.1)">
       <use xlink:href="#DejaVuSans-53"/>
       <use x="63.623047" xlink:href="#DejaVuSans-48"/>
       <use x="127.246094" xlink:href="#DejaVuSans-48"/>
       <use x="190.869141" xlink:href="#DejaVuSans-48"/>
      </g>
     </g>
    </g>
    <g id="xtick_4">
     <g id="line2d_4">
      <g>
       <use style="stroke:#000000;stroke-width:0.8;" x="206.89514" xlink:href="#m78cef67f9e" y="306.3024"/>
      </g>
     </g>
     <g id="text_4">
      <!-- 7500 -->
      <defs>
       <path d="M 8.203125 72.90625 
L 55.078125 72.90625 
L 55.078125 68.703125 
L 28.609375 0 
L 18.3125 0 
L 43.21875 64.59375 
L 8.203125 64.59375 
z
" id="DejaVuSans-55"/>
      </defs>
      <g transform="translate(194.17014 320.900838)scale(0.1 -0.1)">
       <use xlink:href="#DejaVuSans-55"/>
       <use x="63.623047" xlink:href="#DejaVuSans-53"/>
       <use x="127.246094" xlink:href="#DejaVuSans-48"/>
       <use x="190.869141" xlink:href="#DejaVuSans-48"/>
      </g>
     </g>
    </g>
    <g id="xtick_5">
     <g id="line2d_5">
      <g>
       <use style="stroke:#000000;stroke-width:0.8;" x="251.249278" xlink:href="#m78cef67f9e" y="306.3024"/>
      </g>
     </g>
     <g id="text_5">
      <!-- 10000 -->
      <defs>
       <path d="M 12.40625 8.296875 
L 28.515625 8.296875 
L 28.515625 63.921875 
L 10.984375 60.40625 
L 10.984375 69.390625 
L 28.421875 72.90625 
L 38.28125 72.90625 
L 38.28125 8.296875 
L 54.390625 8.296875 
L 54.390625 0 
L 12.40625 0 
z
" id="DejaVuSans-49"/>
      </defs>
      <g transform="translate(235.343028 320.900838)scale(0.1 -0.1)">
       <use xlink:href="#DejaVuSans-49"/>
       <use x="63.623047" xlink:href="#DejaVuSans-48"/>
       <use x="127.246094" xlink:href="#DejaVuSans-48"/>
       <use x="190.869141" xlink:href="#DejaVuSans-48"/>
       <use x="254.492188" xlink:href="#DejaVuSans-48"/>
      </g>
     </g>
    </g>
    <g id="xtick_6">
     <g id="line2d_6">
      <g>
       <use style="stroke:#000000;stroke-width:0.8;" x="295.603415" xlink:href="#m78cef67f9e" y="306.3024"/>
      </g>
     </g>
     <g id="text_6">
      <!-- 12500 -->
      <g transform="translate(279.697165 320.900838)scale(0.1 -0.1)">
       <use xlink:href="#DejaVuSans-49"/>
       <use x="63.623047" xlink:href="#DejaVuSans-50"/>
       <use x="127.246094" xlink:href="#DejaVuSans-53"/>
       <use x="190.869141" xlink:href="#DejaVuSans-48"/>
       <use x="254.492188" xlink:href="#DejaVuSans-48"/>
      </g>
     </g>
    </g>
    <g id="xtick_7">
     <g id="line2d_7">
      <g>
       <use style="stroke:#000000;stroke-width:0.8;" x="339.957553" xlink:href="#m78cef67f9e" y="306.3024"/>
      </g>
     </g>
     <g id="text_7">
      <!-- 15000 -->
      <g transform="translate(324.051303 320.900838)scale(0.1 -0.1)">
       <use xlink:href="#DejaVuSans-49"/>
       <use x="63.623047" xlink:href="#DejaVuSans-53"/>
       <use x="127.246094" xlink:href="#DejaVuSans-48"/>
       <use x="190.869141" xlink:href="#DejaVuSans-48"/>
       <use x="254.492188" xlink:href="#DejaVuSans-48"/>
      </g>
     </g>
    </g>
    <g id="xtick_8">
     <g id="line2d_8">
      <g>
       <use style="stroke:#000000;stroke-width:0.8;" x="384.31169" xlink:href="#m78cef67f9e" y="306.3024"/>
      </g>
     </g>
     <g id="text_8">
      <!-- 17500 -->
      <g transform="translate(368.40544 320.900838)scale(0.1 -0.1)">
       <use xlink:href="#DejaVuSans-49"/>
       <use x="63.623047" xlink:href="#DejaVuSans-55"/>
       <use x="127.246094" xlink:href="#DejaVuSans-53"/>
       <use x="190.869141" xlink:href="#DejaVuSans-48"/>
       <use x="254.492188" xlink:href="#DejaVuSans-48"/>
      </g>
     </g>
    </g>
    <g id="text_9">
     <!-- Muestras -->
     <defs>
      <path d="M 9.8125 72.90625 
L 24.515625 72.90625 
L 43.109375 23.296875 
L 61.8125 72.90625 
L 76.515625 72.90625 
L 76.515625 0 
L 66.890625 0 
L 66.890625 64.015625 
L 48.09375 14.015625 
L 38.1875 14.015625 
L 19.390625 64.015625 
L 19.390625 0 
L 9.8125 0 
z
" id="DejaVuSans-77"/>
      <path d="M 8.5 21.578125 
L 8.5 54.6875 
L 17.484375 54.6875 
L 17.484375 21.921875 
Q 17.484375 14.15625 20.5 10.265625 
Q 23.53125 6.390625 29.59375 6.390625 
Q 36.859375 6.390625 41.078125 11.03125 
Q 45.3125 15.671875 45.3125 23.6875 
L 45.3125 54.6875 
L 54.296875 54.6875 
L 54.296875 0 
L 45.3125 0 
L 45.3125 8.40625 
Q 42.046875 3.421875 37.71875 1 
Q 33.40625 -1.421875 27.6875 -1.421875 
Q 18.265625 -1.421875 13.375 4.4375 
Q 8.5 10.296875 8.5 21.578125 
z
M 31.109375 56 
z
" id="DejaVuSans-117"/>
      <path d="M 56.203125 29.59375 
L 56.203125 25.203125 
L 14.890625 25.203125 
Q 15.484375 15.921875 20.484375 11.0625 
Q 25.484375 6.203125 34.421875 6.203125 
Q 39.59375 6.203125 44.453125 7.46875 
Q 49.3125 8.734375 54.109375 11.28125 
L 54.109375 2.78125 
Q 49.265625 0.734375 44.1875 -0.34375 
Q 39.109375 -1.421875 33.890625 -1.421875 
Q 20.796875 -1.421875 13.15625 6.1875 
Q 5.515625 13.8125 5.515625 26.8125 
Q 5.515625 40.234375 12.765625 48.109375 
Q 20.015625 56 32.328125 56 
Q 43.359375 56 49.78125 48.890625 
Q 56.203125 41.796875 56.203125 29.59375 
z
M 47.21875 32.234375 
Q 47.125 39.59375 43.09375 43.984375 
Q 39.0625 48.390625 32.421875 48.390625 
Q 24.90625 48.390625 20.390625 44.140625 
Q 15.875 39.890625 15.1875 32.171875 
z
" id="DejaVuSans-101"/>
      <path d="M 44.28125 53.078125 
L 44.28125 44.578125 
Q 40.484375 46.53125 36.375 47.5 
Q 32.28125 48.484375 27.875 48.484375 
Q 21.1875 48.484375 17.84375 46.4375 
Q 14.5 44.390625 14.5 40.28125 
Q 14.5 37.15625 16.890625 35.375 
Q 19.28125 33.59375 26.515625 31.984375 
L 29.59375 31.296875 
Q 39.15625 29.25 43.1875 25.515625 
Q 47.21875 21.78125 47.21875 15.09375 
Q 47.21875 7.46875 41.1875 3.015625 
Q 35.15625 -1.421875 24.609375 -1.421875 
Q 20.21875 -1.421875 15.453125 -0.5625 
Q 10.6875 0.296875 5.421875 2 
L 5.421875 11.28125 
Q 10.40625 8.6875 15.234375 7.390625 
Q 20.0625 6.109375 24.8125 6.109375 
Q 31.15625 6.109375 34.5625 8.28125 
Q 37.984375 10.453125 37.984375 14.40625 
Q 37.984375 18.0625 35.515625 20.015625 
Q 33.0625 21.96875 24.703125 23.78125 
L 21.578125 24.515625 
Q 13.234375 26.265625 9.515625 29.90625 
Q 5.8125 33.546875 5.8125 39.890625 
Q 5.8125 47.609375 11.28125 51.796875 
Q 16.75 56 26.8125 56 
Q 31.78125 56 36.171875 55.265625 
Q 40.578125 54.546875 44.28125 53.078125 
z
" id="DejaVuSans-115"/>
      <path d="M 18.3125 70.21875 
L 18.3125 54.6875 
L 36.8125 54.6875 
L 36.8125 47.703125 
L 18.3125 47.703125 
L 18.3125 18.015625 
Q 18.3125 11.328125 20.140625 9.421875 
Q 21.96875 7.515625 27.59375 7.515625 
L 36.8125 7.515625 
L 36.8125 0 
L 27.59375 0 
Q 17.1875 0 13.234375 3.875 
Q 9.28125 7.765625 9.28125 18.015625 
L 9.28125 47.703125 
L 2.6875 47.703125 
L 2.6875 54.6875 
L 9.28125 54.6875 
L 9.28125 70.21875 
z
" id="DejaVuSans-116"/>
      <path d="M 41.109375 46.296875 
Q 39.59375 47.171875 37.8125 47.578125 
Q 36.03125 48 33.890625 48 
Q 26.265625 48 22.1875 43.046875 
Q 18.109375 38.09375 18.109375 28.8125 
L 18.109375 0 
L 9.078125 0 
L 9.078125 54.6875 
L 18.109375 54.6875 
L 18.109375 46.1875 
Q 20.953125 51.171875 25.484375 53.578125 
Q 30.03125 56 36.53125 56 
Q 37.453125 56 38.578125 55.875 
Q 39.703125 55.765625 41.0625 55.515625 
z
" id="DejaVuSans-114"/>
      <path d="M 34.28125 27.484375 
Q 23.390625 27.484375 19.1875 25 
Q 14.984375 22.515625 14.984375 16.5 
Q 14.984375 11.71875 18.140625 8.90625 
Q 21.296875 6.109375 26.703125 6.109375 
Q 34.1875 6.109375 38.703125 11.40625 
Q 43.21875 16.703125 43.21875 25.484375 
L 43.21875 27.484375 
z
M 52.203125 31.203125 
L 52.203125 0 
L 43.21875 0 
L 43.21875 8.296875 
Q 40.140625 3.328125 35.546875 0.953125 
Q 30.953125 -1.421875 24.3125 -1.421875 
Q 15.921875 -1.421875 10.953125 3.296875 
Q 6 8.015625 6 15.921875 
Q 6 25.140625 12.171875 29.828125 
Q 18.359375 34.515625 30.609375 34.515625 
L 43.21875 34.515625 
L 43.21875 35.40625 
Q 43.21875 41.609375 39.140625 45 
Q 35.0625 48.390625 27.6875 48.390625 
Q 23 48.390625 18.546875 47.265625 
Q 14.109375 46.140625 10.015625 43.890625 
L 10.015625 52.203125 
Q 14.9375 54.109375 19.578125 55.046875 
Q 24.21875 56 28.609375 56 
Q 40.484375 56 46.34375 49.84375 
Q 52.203125 43.703125 52.203125 31.203125 
z
" id="DejaVuSans-97"/>
     </defs>
     <g transform="translate(213.311562 334.578963)scale(0.1 -0.1)">
      <use xlink:href="#DejaVuSans-77"/>
      <use x="86.279297" xlink:href="#DejaVuSans-117"/>
      <use x="149.658203" xlink:href="#DejaVuSans-101"/>
      <use x="211.181641" xlink:href="#DejaVuSans-115"/>
      <use x="263.28125" xlink:href="#DejaVuSans-116"/>
      <use x="302.490234" xlink:href="#DejaVuSans-114"/>
      <use x="343.603516" xlink:href="#DejaVuSans-97"/>
      <use x="404.882812" xlink:href="#DejaVuSans-115"/>
     </g>
    </g>
   </g>
   <g id="matplotlib.axis_2">
    <g id="ytick_1">
     <g id="line2d_9">
      <defs>
       <path d="M 0 0 
L -3.5 0 
" id="m55bf850b66" style="stroke:#000000;stroke-width:0.8;"/>
      </defs>
      <g>
       <use style="stroke:#000000;stroke-width:0.8;" x="57.6" xlink:href="#m55bf850b66" y="281.961207"/>
      </g>
     </g>
     <g id="text_10">
      <!-- 60 -->
      <defs>
       <path d="M 33.015625 40.375 
Q 26.375 40.375 22.484375 35.828125 
Q 18.609375 31.296875 18.609375 23.390625 
Q 18.609375 15.53125 22.484375 10.953125 
Q 26.375 6.390625 33.015625 6.390625 
Q 39.65625 6.390625 43.53125 10.953125 
Q 47.40625 15.53125 47.40625 23.390625 
Q 47.40625 31.296875 43.53125 35.828125 
Q 39.65625 40.375 33.015625 40.375 
z
M 52.59375 71.296875 
L 52.59375 62.3125 
Q 48.875 64.0625 45.09375 64.984375 
Q 41.3125 65.921875 37.59375 65.921875 
Q 27.828125 65.921875 22.671875 59.328125 
Q 17.53125 52.734375 16.796875 39.40625 
Q 19.671875 43.65625 24.015625 45.921875 
Q 28.375 48.1875 33.59375 48.1875 
Q 44.578125 48.1875 50.953125 41.515625 
Q 57.328125 34.859375 57.328125 23.390625 
Q 57.328125 12.15625 50.6875 5.359375 
Q 44.046875 -1.421875 33.015625 -1.421875 
Q 20.359375 -1.421875 13.671875 8.265625 
Q 6.984375 17.96875 6.984375 36.375 
Q 6.984375 53.65625 15.1875 63.9375 
Q 23.390625 74.21875 37.203125 74.21875 
Q 40.921875 74.21875 44.703125 73.484375 
Q 48.484375 72.75 52.59375 71.296875 
z
" id="DejaVuSans-54"/>
      </defs>
      <g transform="translate(37.875 285.760425)scale(0.1 -0.1)">
       <use xlink:href="#DejaVuSans-54"/>
       <use x="63.623047" xlink:href="#DejaVuSans-48"/>
      </g>
     </g>
    </g>
    <g id="ytick_2">
     <g id="line2d_10">
      <g>
       <use style="stroke:#000000;stroke-width:0.8;" x="57.6" xlink:href="#m55bf850b66" y="230.942147"/>
      </g>
     </g>
     <g id="text_11">
      <!-- 80 -->
      <defs>
       <path d="M 31.78125 34.625 
Q 24.75 34.625 20.71875 30.859375 
Q 16.703125 27.09375 16.703125 20.515625 
Q 16.703125 13.921875 20.71875 10.15625 
Q 24.75 6.390625 31.78125 6.390625 
Q 38.8125 6.390625 42.859375 10.171875 
Q 46.921875 13.96875 46.921875 20.515625 
Q 46.921875 27.09375 42.890625 30.859375 
Q 38.875 34.625 31.78125 34.625 
z
M 21.921875 38.8125 
Q 15.578125 40.375 12.03125 44.71875 
Q 8.5 49.078125 8.5 55.328125 
Q 8.5 64.0625 14.71875 69.140625 
Q 20.953125 74.21875 31.78125 74.21875 
Q 42.671875 74.21875 48.875 69.140625 
Q 55.078125 64.0625 55.078125 55.328125 
Q 55.078125 49.078125 51.53125 44.71875 
Q 48 40.375 41.703125 38.8125 
Q 48.828125 37.15625 52.796875 32.3125 
Q 56.78125 27.484375 56.78125 20.515625 
Q 56.78125 9.90625 50.3125 4.234375 
Q 43.84375 -1.421875 31.78125 -1.421875 
Q 19.734375 -1.421875 13.25 4.234375 
Q 6.78125 9.90625 6.78125 20.515625 
Q 6.78125 27.484375 10.78125 32.3125 
Q 14.796875 37.15625 21.921875 38.8125 
z
M 18.3125 54.390625 
Q 18.3125 48.734375 21.84375 45.5625 
Q 25.390625 42.390625 31.78125 42.390625 
Q 38.140625 42.390625 41.71875 45.5625 
Q 45.3125 48.734375 45.3125 54.390625 
Q 45.3125 60.0625 41.71875 63.234375 
Q 38.140625 66.40625 31.78125 66.40625 
Q 25.390625 66.40625 21.84375 63.234375 
Q 18.3125 60.0625 18.3125 54.390625 
z
" id="DejaVuSans-56"/>
      </defs>
      <g transform="translate(37.875 234.741366)scale(0.1 -0.1)">
       <use xlink:href="#DejaVuSans-56"/>
       <use x="63.623047" xlink:href="#DejaVuSans-48"/>
      </g>
     </g>
    </g>
    <g id="ytick_3">
     <g id="line2d_11">
      <g>
       <use style="stroke:#000000;stroke-width:0.8;" x="57.6" xlink:href="#m55bf850b66" y="179.923087"/>
      </g>
     </g>
     <g id="text_12">
      <!-- 100 -->
      <g transform="translate(31.5125 183.722306)scale(0.1 -0.1)">
       <use xlink:href="#DejaVuSans-49"/>
       <use x="63.623047" xlink:href="#DejaVuSans-48"/>
       <use x="127.246094" xlink:href="#DejaVuSans-48"/>
      </g>
     </g>
    </g>
    <g id="ytick_4">
     <g id="line2d_12">
      <g>
       <use style="stroke:#000000;stroke-width:0.8;" x="57.6" xlink:href="#m55bf850b66" y="128.904027"/>
      </g>
     </g>
     <g id="text_13">
      <!-- 120 -->
      <g transform="translate(31.5125 132.703246)scale(0.1 -0.1)">
       <use xlink:href="#DejaVuSans-49"/>
       <use x="63.623047" xlink:href="#DejaVuSans-50"/>
       <use x="127.246094" xlink:href="#DejaVuSans-48"/>
      </g>
     </g>
    </g>
    <g id="ytick_5">
     <g id="line2d_13">
      <g>
       <use style="stroke:#000000;stroke-width:0.8;" x="57.6" xlink:href="#m55bf850b66" y="77.884968"/>
      </g>
     </g>
     <g id="text_14">
      <!-- 140 -->
      <defs>
       <path d="M 37.796875 64.3125 
L 12.890625 25.390625 
L 37.796875 25.390625 
z
M 35.203125 72.90625 
L 47.609375 72.90625 
L 47.609375 25.390625 
L 58.015625 25.390625 
L 58.015625 17.1875 
L 47.609375 17.1875 
L 47.609375 0 
L 37.796875 0 
L 37.796875 17.1875 
L 4.890625 17.1875 
L 4.890625 26.703125 
z
" id="DejaVuSans-52"/>
      </defs>
      <g transform="translate(31.5125 81.684186)scale(0.1 -0.1)">
       <use xlink:href="#DejaVuSans-49"/>
       <use x="63.623047" xlink:href="#DejaVuSans-52"/>
       <use x="127.246094" xlink:href="#DejaVuSans-48"/>
      </g>
     </g>
    </g>
    <g id="text_15">
     <!-- Valor de Ritmo Cardíaco -->
     <defs>
      <path d="M 28.609375 0 
L 0.78125 72.90625 
L 11.078125 72.90625 
L 34.1875 11.53125 
L 57.328125 72.90625 
L 67.578125 72.90625 
L 39.796875 0 
z
" id="DejaVuSans-86"/>
      <path d="M 9.421875 75.984375 
L 18.40625 75.984375 
L 18.40625 0 
L 9.421875 0 
z
" id="DejaVuSans-108"/>
      <path d="M 30.609375 48.390625 
Q 23.390625 48.390625 19.1875 42.75 
Q 14.984375 37.109375 14.984375 27.296875 
Q 14.984375 17.484375 19.15625 11.84375 
Q 23.34375 6.203125 30.609375 6.203125 
Q 37.796875 6.203125 41.984375 11.859375 
Q 46.1875 17.53125 46.1875 27.296875 
Q 46.1875 37.015625 41.984375 42.703125 
Q 37.796875 48.390625 30.609375 48.390625 
z
M 30.609375 56 
Q 42.328125 56 49.015625 48.375 
Q 55.71875 40.765625 55.71875 27.296875 
Q 55.71875 13.875 49.015625 6.21875 
Q 42.328125 -1.421875 30.609375 -1.421875 
Q 18.84375 -1.421875 12.171875 6.21875 
Q 5.515625 13.875 5.515625 27.296875 
Q 5.515625 40.765625 12.171875 48.375 
Q 18.84375 56 30.609375 56 
z
" id="DejaVuSans-111"/>
      <path id="DejaVuSans-32"/>
      <path d="M 45.40625 46.390625 
L 45.40625 75.984375 
L 54.390625 75.984375 
L 54.390625 0 
L 45.40625 0 
L 45.40625 8.203125 
Q 42.578125 3.328125 38.25 0.953125 
Q 33.9375 -1.421875 27.875 -1.421875 
Q 17.96875 -1.421875 11.734375 6.484375 
Q 5.515625 14.40625 5.515625 27.296875 
Q 5.515625 40.1875 11.734375 48.09375 
Q 17.96875 56 27.875 56 
Q 33.9375 56 38.25 53.625 
Q 42.578125 51.265625 45.40625 46.390625 
z
M 14.796875 27.296875 
Q 14.796875 17.390625 18.875 11.75 
Q 22.953125 6.109375 30.078125 6.109375 
Q 37.203125 6.109375 41.296875 11.75 
Q 45.40625 17.390625 45.40625 27.296875 
Q 45.40625 37.203125 41.296875 42.84375 
Q 37.203125 48.484375 30.078125 48.484375 
Q 22.953125 48.484375 18.875 42.84375 
Q 14.796875 37.203125 14.796875 27.296875 
z
" id="DejaVuSans-100"/>
      <path d="M 44.390625 34.1875 
Q 47.5625 33.109375 50.5625 29.59375 
Q 53.5625 26.078125 56.59375 19.921875 
L 66.609375 0 
L 56 0 
L 46.6875 18.703125 
Q 43.0625 26.03125 39.671875 28.421875 
Q 36.28125 30.8125 30.421875 30.8125 
L 19.671875 30.8125 
L 19.671875 0 
L 9.8125 0 
L 9.8125 72.90625 
L 32.078125 72.90625 
Q 44.578125 72.90625 50.734375 67.671875 
Q 56.890625 62.453125 56.890625 51.90625 
Q 56.890625 45.015625 53.6875 40.46875 
Q 50.484375 35.9375 44.390625 34.1875 
z
M 19.671875 64.796875 
L 19.671875 38.921875 
L 32.078125 38.921875 
Q 39.203125 38.921875 42.84375 42.21875 
Q 46.484375 45.515625 46.484375 51.90625 
Q 46.484375 58.296875 42.84375 61.546875 
Q 39.203125 64.796875 32.078125 64.796875 
z
" id="DejaVuSans-82"/>
      <path d="M 9.421875 54.6875 
L 18.40625 54.6875 
L 18.40625 0 
L 9.421875 0 
z
M 9.421875 75.984375 
L 18.40625 75.984375 
L 18.40625 64.59375 
L 9.421875 64.59375 
z
" id="DejaVuSans-105"/>
      <path d="M 52 44.1875 
Q 55.375 50.25 60.0625 53.125 
Q 64.75 56 71.09375 56 
Q 79.640625 56 84.28125 50.015625 
Q 88.921875 44.046875 88.921875 33.015625 
L 88.921875 0 
L 79.890625 0 
L 79.890625 32.71875 
Q 79.890625 40.578125 77.09375 44.375 
Q 74.3125 48.1875 68.609375 48.1875 
Q 61.625 48.1875 57.5625 43.546875 
Q 53.515625 38.921875 53.515625 30.90625 
L 53.515625 0 
L 44.484375 0 
L 44.484375 32.71875 
Q 44.484375 40.625 41.703125 44.40625 
Q 38.921875 48.1875 33.109375 48.1875 
Q 26.21875 48.1875 22.15625 43.53125 
Q 18.109375 38.875 18.109375 30.90625 
L 18.109375 0 
L 9.078125 0 
L 9.078125 54.6875 
L 18.109375 54.6875 
L 18.109375 46.1875 
Q 21.1875 51.21875 25.484375 53.609375 
Q 29.78125 56 35.6875 56 
Q 41.65625 56 45.828125 52.96875 
Q 50 49.953125 52 44.1875 
z
" id="DejaVuSans-109"/>
      <path d="M 64.40625 67.28125 
L 64.40625 56.890625 
Q 59.421875 61.53125 53.78125 63.8125 
Q 48.140625 66.109375 41.796875 66.109375 
Q 29.296875 66.109375 22.65625 58.46875 
Q 16.015625 50.828125 16.015625 36.375 
Q 16.015625 21.96875 22.65625 14.328125 
Q 29.296875 6.6875 41.796875 6.6875 
Q 48.140625 6.6875 53.78125 8.984375 
Q 59.421875 11.28125 64.40625 15.921875 
L 64.40625 5.609375 
Q 59.234375 2.09375 53.4375 0.328125 
Q 47.65625 -1.421875 41.21875 -1.421875 
Q 24.65625 -1.421875 15.125 8.703125 
Q 5.609375 18.84375 5.609375 36.375 
Q 5.609375 53.953125 15.125 64.078125 
Q 24.65625 74.21875 41.21875 74.21875 
Q 47.75 74.21875 53.53125 72.484375 
Q 59.328125 70.75 64.40625 67.28125 
z
" id="DejaVuSans-67"/>
      <path d="M 20.703125 79.984375 
L 30.421875 79.984375 
L 14.5 61.625 
L 7.03125 61.625 
z
M 9.421875 54.6875 
L 18.40625 54.6875 
L 18.40625 0 
L 9.421875 0 
z
M 13.921875 56 
z
" id="DejaVuSans-237"/>
      <path d="M 48.78125 52.59375 
L 48.78125 44.1875 
Q 44.96875 46.296875 41.140625 47.34375 
Q 37.3125 48.390625 33.40625 48.390625 
Q 24.65625 48.390625 19.8125 42.84375 
Q 14.984375 37.3125 14.984375 27.296875 
Q 14.984375 17.28125 19.8125 11.734375 
Q 24.65625 6.203125 33.40625 6.203125 
Q 37.3125 6.203125 41.140625 7.25 
Q 44.96875 8.296875 48.78125 10.40625 
L 48.78125 2.09375 
Q 45.015625 0.34375 40.984375 -0.53125 
Q 36.96875 -1.421875 32.421875 -1.421875 
Q 20.0625 -1.421875 12.78125 6.34375 
Q 5.515625 14.109375 5.515625 27.296875 
Q 5.515625 40.671875 12.859375 48.328125 
Q 20.21875 56 33.015625 56 
Q 37.15625 56 41.109375 55.140625 
Q 45.0625 54.296875 48.78125 52.59375 
z
" id="DejaVuSans-99"/>
     </defs>
     <g transform="translate(25.432812 234.6008)rotate(-90)scale(0.1 -0.1)">
      <use xlink:href="#DejaVuSans-86"/>
      <use x="68.298828" xlink:href="#DejaVuSans-97"/>
      <use x="129.578125" xlink:href="#DejaVuSans-108"/>
      <use x="157.361328" xlink:href="#DejaVuSans-111"/>
      <use x="218.542969" xlink:href="#DejaVuSans-114"/>
      <use x="259.65625" xlink:href="#DejaVuSans-32"/>
      <use x="291.443359" xlink:href="#DejaVuSans-100"/>
      <use x="354.919922" xlink:href="#DejaVuSans-101"/>
      <use x="416.443359" xlink:href="#DejaVuSans-32"/>
      <use x="448.230469" xlink:href="#DejaVuSans-82"/>
      <use x="517.712891" xlink:href="#DejaVuSans-105"/>
      <use x="545.496094" xlink:href="#DejaVuSans-116"/>
      <use x="584.705078" xlink:href="#DejaVuSans-109"/>
      <use x="682.117188" xlink:href="#DejaVuSans-111"/>
      <use x="743.298828" xlink:href="#DejaVuSans-32"/>
      <use x="775.085938" xlink:href="#DejaVuSans-67"/>
      <use x="844.910156" xlink:href="#DejaVuSans-97"/>
      <use x="906.189453" xlink:href="#DejaVuSans-114"/>
      <use x="947.287109" xlink:href="#DejaVuSans-100"/>
      <use x="1010.763672" xlink:href="#DejaVuSans-237"/>
      <use x="1038.546875" xlink:href="#DejaVuSans-97"/>
      <use x="1099.826172" xlink:href="#DejaVuSans-99"/>
      <use x="1154.806641" xlink:href="#DejaVuSans-111"/>
     </g>
    </g>
   </g>
   <g id="line2d_14">
    <path clip-path="url(#pd427ab2c9a)" d="M 73.832727 259.844444 
L 74.063369 224.564764 
L 74.240785 220.738335 
L 74.453685 221.401583 
L 74.489169 221.044449 
L 74.577877 218.519006 
L 74.61336 220.585278 
L 74.861743 228.824856 
L 74.897227 228.136099 
L 74.950452 229.105461 
L 75.35851 241.911245 
L 75.447218 240.941883 
L 75.518185 240.55924 
L 75.553668 240.941883 
L 75.642376 242.600002 
L 75.660118 241.783697 
L 76.050434 225.967789 
L 76.085917 226.044317 
L 76.174626 226.682055 
L 76.210109 226.222884 
L 76.352042 224.81986 
L 76.387526 225.508617 
L 76.440751 226.733074 
L 76.813325 239.232744 
L 76.937517 240.074559 
L 76.955259 239.819463 
L 77.132675 236.605263 
L 77.274608 228.008551 
L 77.895566 185.73926 
L 77.93105 185.841298 
L 77.948791 185.841298 
L 78.0375 187.142284 
L 78.303624 192.728871 
L 78.463299 197.728739 
L 79.421349 236.044053 
L 79.829407 264.308612 
L 79.953598 199.208292 
L 80.148756 164.489822 
L 80.18424 163.571479 
L 80.237465 164.413293 
L 80.911648 183.417893 
L 80.947131 181.122035 
L 80.982614 184.463783 
L 81.408414 214.284424 
L 81.69228 224.998426 
L 81.710022 225.023936 
L 81.816472 227.804475 
L 82.206788 238.39093 
L 82.401947 242.982645 
L 82.43743 242.344907 
L 83.200321 224.768841 
L 83.572896 210.024332 
L 83.643863 211.733471 
L 84.016437 219.513878 
L 84.069662 220.100597 
L 84.122887 219.666935 
L 84.26482 217.881268 
L 84.300304 218.391458 
L 84.601912 226.911641 
L 84.814812 232.855362 
L 85.11642 236.350167 
L 85.151903 236.554243 
L 85.258353 237.957268 
L 85.32932 238.90112 
L 85.382545 238.263382 
L 85.488995 236.809339 
L 85.54222 237.064434 
L 85.559961 237.064434 
L 85.737378 231.069695 
L 86.003503 223.416836 
L 86.038986 223.748459 
L 86.092211 223.365817 
L 86.234144 220.865883 
L 86.482527 207.98357 
L 87.351868 156.020658 
L 87.47606 155.255372 
L 87.653477 156.632886 
L 87.919601 160.79094 
L 87.937343 160.918487 
L 87.972826 160.663392 
L 88.132501 155.689034 
L 88.380884 147.78108 
L 88.416368 147.857608 
L 88.522818 148.495346 
L 89.126034 157.729796 
L 89.232484 164.234726 
L 89.51635 177.423153 
L 89.569575 176.785415 
L 89.676025 180.688373 
L 90.208275 197.703229 
L 90.563108 204.106121 
L 90.776008 208.876404 
L 90.793749 208.952932 
L 91.095358 218.748592 
L 91.130841 217.294548 
L 91.538899 197.346096 
L 92.284049 134.898767 
L 92.461465 129.363199 
L 92.479207 129.465237 
L 92.532432 129.618294 
L 92.567915 129.414218 
L 92.585657 129.414218 
L 92.692107 136.123224 
L 92.958231 150.204485 
L 92.975973 150.153466 
L 92.993715 150.204485 
L 93.011456 150.025918 
L 93.100165 148.597384 
L 93.224356 145.61277 
L 93.25984 146.12296 
L 93.384031 147.143341 
L 93.419514 147.015794 
L 93.437256 146.556622 
L 93.454998 147.398437 
L 93.845314 178.775158 
L 94.004989 189.234066 
L 94.519497 235.66141 
L 94.55498 234.00329 
L 94.909813 226.095336 
L 95.034005 223.544383 
L 95.371096 215.508881 
L 95.388838 215.814996 
L 95.72593 222.447473 
L 95.814638 223.16174 
L 96.967845 250.712033 
L 96.985587 250.661013 
L 97.003329 250.712033 
L 97.056554 250.533466 
L 97.074295 250.456937 
L 97.092037 250.788561 
L 97.411387 255.303748 
L 97.464612 254.972124 
L 98.529111 209.947804 
L 98.582336 211.299809 
L 99.096844 224.182121 
L 99.522644 232.651285 
L 99.575869 231.528866 
L 99.753285 221.197506 
L 99.966185 209.692709 
L 100.054893 210.611052 
L 100.179085 214.156876 
L 100.250052 213.136495 
L 100.480693 208.238665 
L 100.569401 209.208027 
L 100.640368 211.350828 
L 101.172618 231.579885 
L 101.190359 231.503357 
L 101.243584 230.993166 
L 101.261326 231.503357 
L 101.509709 241.783697 
L 101.669384 244.028536 
L 101.775834 245.482579 
L 101.811317 245.304012 
L 102.041959 232.549247 
L 102.6984 194.795143 
L 102.9113 189.54018 
L 102.929042 189.871804 
L 103.425808 204.157141 
L 103.479033 202.065359 
L 103.709674 195.432881 
L 103.816124 195.152276 
L 103.922574 194.514538 
L 103.940316 194.897181 
L 104.277407 202.932683 
L 105.16449 247.06417 
L 105.182232 246.936622 
L 105.519323 243.620383 
L 105.554806 244.079555 
L 105.785448 251.145695 
L 106.140281 261.375016 
L 106.246731 263.390269 
L 106.353181 264.793293 
L 106.388664 264.614726 
L 106.672531 261.987245 
L 106.867689 254.410914 
L 107.293489 230.508485 
L 107.31123 230.355428 
L 107.346714 230.636033 
L 107.488647 233.824724 
L 107.648322 234.819595 
L 107.683805 234.717557 
L 107.754772 234.896124 
L 107.94993 229.921766 
L 108.357988 209.641689 
L 109.103137 158.673649 
L 109.706354 148.469837 
L 109.88377 144.082198 
L 109.901512 144.413822 
L 110.09667 157.933872 
L 110.362795 171.326376 
L 110.877303 184.693369 
L 110.966011 187.831041 
L 111.019236 186.989227 
L 111.143428 182.47404 
L 111.232136 179.361878 
L 111.303103 180.050635 
L 111.427294 183.494421 
L 111.799869 199.055235 
L 111.906319 200.458259 
L 111.959544 200.330711 
L 112.048252 201.019468 
L 112.101477 200.458259 
L 112.190185 197.601191 
L 112.77566 156.658396 
L 112.953077 148.597384 
L 113.09501 147.270889 
L 113.148235 147.832099 
L 113.236943 150.765695 
L 113.556293 180.178182 
L 113.999834 220.279163 
L 114.212734 218.519006 
L 114.372409 211.733471 
L 114.620792 203.136759 
L 114.81595 199.31033 
L 114.993367 197.065491 
L 115.02885 197.601191 
L 115.117559 201.223545 
L 115.649808 227.319794 
L 116.004641 232.294152 
L 116.040125 232.39619 
L 116.057866 232.345171 
L 116.341733 228.136099 
L 116.412699 229.028932 
L 116.536891 232.217623 
L 116.572374 231.018675 
L 116.962691 220.534259 
L 116.980432 220.432221 
L 117.015916 220.738335 
L 117.264299 228.340175 
L 117.512682 233.314533 
L 117.565907 233.289024 
L 117.60139 233.671667 
L 117.92074 248.084551 
L 117.956223 248.237608 
L 118.151382 250.252861 
L 118.169123 250.252861 
L 118.275573 247.59987 
L 118.754598 230.25339 
L 119.109431 214.233405 
L 119.393297 207.600927 
L 119.517489 209.182518 
L 119.535231 208.748856 
L 119.74813 202.677588 
L 119.819097 203.723479 
L 120.741663 231.885999 
L 120.91908 237.498096 
L 120.936821 236.860358 
L 121.628746 211.682452 
L 121.983579 194.131895 
L 122.090029 194.795143 
L 122.160996 195.738996 
L 122.302929 197.397115 
L 122.338412 197.065491 
L 122.409379 196.631829 
L 122.462604 196.937944 
L 122.693245 201.529659 
L 123.030337 218.570025 
L 123.083562 213.544648 
L 123.367428 177.04051 
L 124.023869 86.175565 
L 124.094836 82.017512 
L 124.130319 84.644993 
L 124.485152 123.291931 
L 124.89321 163.775555 
L 124.981919 168.316251 
L 125.017402 166.709151 
L 125.567393 131.148866 
L 125.762552 128.597913 
L 125.780293 128.648932 
L 125.939968 124.899031 
L 126.06416 120.179768 
L 126.081901 121.251168 
L 126.507701 152.066681 
L 127.093176 205.483636 
L 127.323817 212.651814 
L 127.394784 212.116114 
L 127.696392 187.448398 
L 128.051225 165.306127 
L 128.157675 164.489822 
L 128.228642 164.744917 
L 128.388317 167.474437 
L 128.74315 181.275092 
L 129.133466 200.91743 
L 129.346366 202.703097 
L 129.435074 206.197903 
L 129.807649 220.942411 
L 130.002807 221.835245 
L 130.091515 223.365817 
L 130.35764 234.768576 
L 130.446348 235.202238 
L 130.499573 235.074691 
L 130.552798 234.258386 
L 130.818923 227.549379 
L 131.138273 203.697969 
L 132.078581 97.450777 
L 132.291481 92.348871 
L 132.415672 91.966228 
L 132.699539 104.848541 
L 132.876955 111.098376 
L 133.267272 125.893903 
L 133.56888 139.184368 
L 133.604363 139.158858 
L 133.622105 139.184368 
L 133.817263 134.439595 
L 134.633379 106.710736 
L 134.668862 106.710736 
L 134.739829 108.547423 
L 135.147887 127.194889 
L 135.39627 134.516124 
L 135.520462 137.398701 
L 136.655928 196.427753 
L 136.957536 198.545044 
L 136.993019 198.494025 
L 137.046244 198.468515 
L 137.223661 195.790015 
L 137.276886 196.555301 
L 137.454302 202.958193 
L 137.880102 225.023936 
L 138.252677 241.196978 
L 138.430093 242.217359 
L 138.465577 242.293888 
L 138.60751 244.028536 
L 138.660735 243.23774 
L 138.838151 233.697176 
L 139.281693 209.182518 
L 139.565559 207.294813 
L 140.026842 192.116642 
L 140.133292 192.167661 
L 140.151034 192.116642 
L 140.346192 186.734132 
L 140.452642 187.524927 
L 140.488125 187.448398 
L 140.523609 187.575946 
L 140.54135 187.499418 
L 140.612317 187.37187 
L 140.736508 189.361613 
L 141.251016 211.503885 
L 141.268758 211.478376 
L 141.2865 211.605923 
L 141.375208 212.957928 
L 141.428433 212.32019 
L 142.102616 199.437878 
L 142.120357 199.514406 
L 142.244549 200.968449 
L 142.883249 220.279163 
L 143.11389 233.697176 
L 143.32679 244.283631 
L 143.805815 253.467062 
L 143.841298 253.5691 
L 143.85904 253.518081 
L 143.96549 252.293623 
L 144.018715 252.421171 
L 144.089681 251.426299 
L 144.231614 246.069298 
L 144.320323 243.952007 
L 144.355806 244.921369 
L 144.639673 251.018147 
L 144.675156 250.201842 
L 144.994506 238.135834 
L 145.526755 201.427621 
L 146.342871 128.980556 
L 146.64448 118.011458 
L 146.697704 117.246172 
L 146.733188 117.34821 
L 146.875121 127.960175 
L 147.567046 188.723875 
L 147.797687 197.524663 
L 147.815429 197.065491 
L 147.904137 195.687977 
L 147.957362 195.866543 
L 148.081554 197.958325 
L 148.241228 208.315194 
L 148.542837 226.401451 
L 149.181536 264.691255 
L 149.252503 264.232083 
L 149.447661 261.477054 
L 149.678303 263.798421 
L 149.749269 265.048388 
L 149.784752 264.232083 
L 150.104102 255.048653 
L 150.192811 256.655753 
L 150.352485 262.650493 
L 150.423452 260.07403 
L 150.72506 244.130574 
L 151.381501 208.621308 
L 151.416985 206.708094 
L 151.47021 208.697837 
L 152.162134 232.039057 
L 152.286326 225.534127 
L 152.747609 198.978706 
L 153.120184 192.881928 
L 153.226634 190.815656 
L 153.244375 191.351357 
L 153.457275 206.784622 
L 153.812108 231.248261 
L 154.521774 251.094675 
L 154.557258 251.349771 
L 154.574999 251.094675 
L 154.681449 247.140698 
L 155.621757 213.4171 
L 155.76369 208.927423 
L 156.242715 195.560429 
L 156.420131 189.489161 
L 156.579806 186.172922 
L 156.597548 186.249451 
L 156.686256 187.193303 
L 156.916898 190.586071 
L 157.112056 189.820785 
L 157.129798 189.871804 
L 157.147539 189.820785 
L 157.253989 188.672856 
L 157.289473 189.029989 
L 157.502372 189.693237 
L 157.342698 188.774894 
L 157.520114 189.565689 
L 157.591081 188.341232 
L 157.768497 177.193567 
L 158.01688 167.091794 
L 158.212039 165.12756 
L 158.22978 165.12756 
L 158.637838 160.586864 
L 158.65558 161.632754 
L 159.418471 200.330711 
L 159.436213 200.024597 
L 159.471696 199.999087 
L 159.507179 199.897049 
L 159.524921 199.999087 
L 159.578146 202.192907 
L 159.826529 218.646553 
L 159.862013 218.187382 
L 160.234587 213.289552 
L 160.323296 213.92729 
L 160.447487 216.580282 
L 160.624904 225.202503 
L 160.731354 223.365817 
L 160.80232 222.141359 
L 160.855545 222.830116 
L 160.926512 225.381069 
L 161.281345 241.145959 
L 161.299087 241.09494 
L 161.494245 236.885867 
L 161.671661 226.809603 
L 162.363586 170.994752 
L 162.434553 171.428414 
L 162.487777 171.453923 
L 162.878094 181.708754 
L 163.605502 220.228144 
L 163.782918 229.335047 
L 163.871627 233.314533 
L 163.924852 232.268642 
L 164.102268 231.120714 
L 164.244201 228.646289 
L 164.581293 197.728739 
L 164.847418 180.254711 
L 164.936126 179.20882 
L 164.971609 179.616973 
L 165.184509 181.453659 
L 165.308701 186.81066 
L 165.858692 222.575021 
L 165.911917 222.217888 
L 166.018367 221.937283 
L 166.26675 225.151484 
L 166.302233 224.513745 
L 166.515133 219.717954 
L 166.5861 220.279163 
L 167.082866 235.993034 
L 167.100608 235.533862 
L 167.366733 229.233008 
L 167.739307 222.06483 
L 168.147365 207.932551 
L 168.236074 207.856022 
L 168.342524 207.600927 
L 168.360265 207.677456 
L 168.697357 211.605923 
L 168.73284 211.22328 
L 168.963482 208.825384 
L 169.26509 214.105857 
L 169.602181 218.442477 
L 169.637664 218.263911 
L 170.027981 214.4885 
L 170.258622 207.728475 
L 170.276364 207.549908 
L 170.311847 207.907041 
L 170.365072 208.417232 
L 170.400556 207.98357 
L 170.489264 207.269303 
L 170.542489 207.396851 
L 170.648939 206.146884 
L 170.844097 204.412236 
L 170.915064 204.998955 
L 171.039255 207.269303 
L 171.145705 208.748856 
L 171.181188 208.315194 
L 171.376347 204.361217 
L 171.606988 196.835905 
L 171.873113 200.458259 
L 172.689229 227.932022 
L 172.831162 227.294284 
L 172.884387 227.192246 
L 172.902129 227.166736 
L 173.079546 228.05957 
L 173.097287 228.05957 
L 173.203737 226.98817 
L 173.23922 227.294284 
L 173.292445 227.625908 
L 173.34567 227.294284 
L 173.505345 225.457598 
L 173.540829 225.840241 
L 173.948887 231.452337 
L 173.98437 231.069695 
L 174.232753 224.360688 
L 174.765003 214.284424 
L 174.782744 214.360952 
L 175.510152 239.309273 
L 175.634344 238.212363 
L 175.776277 236.503224 
L 176.02466 226.171865 
L 176.361752 207.42236 
L 176.55691 196.555301 
L 176.574652 196.886925 
L 176.947226 205.509146 
L 176.964968 205.560165 
L 177.000451 205.381598 
L 177.195609 203.978574 
L 177.266576 204.233669 
L 177.373026 207.269303 
L 177.585926 217.21802 
L 177.603668 217.039453 
L 177.852051 212.32019 
L 177.887534 212.524266 
L 178.082692 216.197639 
L 178.348817 220.99343 
L 178.402042 221.427092 
L 178.437525 221.069959 
L 178.650425 216.733339 
L 178.774617 217.371077 
L 178.8101 217.804739 
L 178.827842 216.911905 
L 179.023 213.162005 
L 179.253641 214.437481 
L 179.289125 214.182386 
L 179.306866 214.105857 
L 179.34235 214.360952 
L 179.395575 215.075219 
L 179.608475 222.013811 
L 180.016533 236.605263 
L 180.105241 235.533862 
L 180.122983 235.227748 
L 180.140724 236.171601 
L 180.389107 245.43156 
L 180.442332 245.304012 
L 180.477816 245.278503 
L 180.655232 243.314269 
L 180.814907 238.416439 
L 181.027807 233.697176 
L 181.16974 230.355428 
L 181.240707 215.712958 
L 181.613282 136.811982 
L 181.755215 127.373456 
L 181.790698 129.924409 
L 182.287464 169.795804 
L 182.642298 256.145562 
L 182.926164 275.838919 
L 183.050356 273.670609 
L 183.227772 264.538198 
L 184.505171 188.927951 
L 184.540655 188.672856 
L 184.576138 189.183047 
L 185.090646 197.397115 
L 185.214838 197.907306 
L 185.339029 201.937811 
L 185.747087 217.473115 
L 185.800312 217.090472 
L 185.906762 215.942543 
L 185.942245 216.478243 
L 186.42127 224.641293 
L 186.509978 224.896388 
L 186.52772 224.641293 
L 187.05997 219.258782 
L 187.148678 218.442477 
L 187.184161 218.646553 
L 187.503511 221.376073 
L 187.556736 221.886264 
L 187.627703 221.707697 
L 187.805119 220.355692 
L 187.840603 220.48324 
L 187.982536 220.789354 
L 188.000277 220.687316 
L 188.124469 220.559768 
L 188.213177 221.55464 
L 188.248661 221.325054 
L 188.426077 219.641425 
L 188.46156 219.973049 
L 188.550269 221.937283 
L 188.834135 228.391194 
L 188.869619 228.212627 
L 189.029293 225.125974 
L 189.295418 218.697573 
L 189.52606 211.861019 
L 189.561543 211.605923 
L 189.756701 206.401979 
L 189.880893 207.932551 
L 190.111534 211.095733 
L 190.164759 211.554904 
L 190.519592 217.75372 
L 190.590559 216.274167 
L 191.317967 187.831041 
L 191.655058 181.785283 
L 191.708283 181.887321 
L 191.938925 184.387255 
L 192.009891 183.57095 
L 192.116341 180.356749 
L 192.506658 168.39278 
L 192.542141 168.775423 
L 193.038907 181.504678 
L 193.872765 218.952668 
L 194.280823 228.824856 
L 194.617915 240.176597 
L 194.724365 238.90112 
L 194.848556 234.692048 
L 195.079198 227.753456 
L 195.682414 213.723214 
L 195.717897 213.92729 
L 195.842089 214.998691 
L 195.895314 214.871143 
L 195.930797 214.820124 
L 196.019505 214.437481 
L 196.054989 214.539519 
L 196.267889 216.529263 
L 196.356597 216.401715 
L 196.587238 214.947672 
L 196.835622 209.820256 
L 196.906588 210.100861 
L 196.942072 209.973313 
L 197.208196 207.600927 
L 197.261421 208.162137 
L 197.385613 210.534523 
L 197.421096 210.330447 
L 197.616254 208.54478 
L 197.633996 208.672327 
L 197.829154 211.937547 
L 197.900121 211.733471 
L 198.077537 209.820256 
L 198.130762 210.024332 
L 198.503337 215.04971 
L 198.733979 216.452734 
L 198.769462 216.325186 
L 198.875912 215.891524 
L 198.893654 215.968053 
L 199.195262 218.365949 
L 199.213003 218.187382 
L 199.443645 214.998691 
L 199.585578 212.498757 
L 199.621061 212.702833 
L 199.656545 212.626304 
L 199.81622 211.24879 
L 199.887186 211.682452 
L 200.153311 215.381334 
L 200.880719 233.186986 
L 200.969427 232.855362 
L 201.075877 232.141095 
L 201.359744 221.937283 
L 202.104893 203.697969 
L 202.122635 203.723479 
L 202.264568 204.590803 
L 202.317793 204.412236 
L 202.353276 204.284688 
L 202.424243 203.340836 
L 202.459726 204.080612 
L 202.566176 206.274432 
L 202.619401 206.146884 
L 202.850043 205.100993 
L 202.885526 204.998955 
L 202.921009 204.922426 
L 202.956493 205.049974 
L 203.116168 206.146884 
L 203.293584 209.820256 
L 203.666159 225.763712 
L 203.843575 228.569761 
L 204.00325 229.335047 
L 204.358083 220.279163 
L 204.393567 220.789354 
L 204.606467 224.692312 
L 204.819366 217.549644 
L 204.837108 217.804739 
L 204.996783 220.534259 
L 205.422583 235.533862 
L 205.475808 233.824724 
L 205.670966 230.865618 
L 205.812899 229.411575 
L 205.990316 228.59527 
L 206.043541 227.625908 
L 206.132249 226.42696 
L 206.185474 226.528998 
L 206.238699 227.243265 
L 206.25644 227.064698 
L 206.57579 242.548983 
L 206.593532 242.600002 
L 206.78869 236.248129 
L 206.966107 232.549247 
L 206.983848 232.600266 
L 207.125782 235.151219 
L 207.161265 234.819595 
L 207.32094 227.115717 
L 207.604806 206.784622 
L 207.658031 205.942808 
L 207.711256 206.759113 
L 207.835448 211.605923 
L 208.012864 220.228144 
L 208.066089 219.335311 
L 208.261247 213.034457 
L 208.314472 214.360952 
L 208.704789 224.182121 
L 208.758014 223.671931 
L 208.882205 219.666935 
L 209.04188 213.085476 
L 209.095105 213.340571 
L 209.219297 214.922162 
L 209.272522 214.360952 
L 209.698322 208.442742 
L 209.982188 207.218284 
L 210.248313 201.300073 
L 210.283796 200.840902 
L 210.319279 201.682716 
L 210.496696 207.524398 
L 210.603146 206.274432 
L 210.780562 204.463255 
L 210.798304 204.539783 
L 211.028946 207.651946 
L 211.170879 207.167265 
L 211.277329 205.636693 
L 211.561195 199.565425 
L 211.596679 199.641954 
L 211.898287 196.963453 
L 212.04022 194.769634 
L 212.075703 194.897181 
L 212.093445 194.922691 
L 212.306345 196.427753 
L 212.35957 196.682848 
L 212.395053 196.937944 
L 212.448278 196.631829 
L 212.714403 193.137024 
L 213.228911 177.193567 
L 213.299877 178.13742 
L 213.441811 182.805664 
L 213.636969 186.096393 
L 213.690194 186.734132 
L 213.86761 198.289949 
L 214.08051 208.799875 
L 214.098252 208.825384 
L 214.222444 210.789618 
L 214.275669 209.947804 
L 214.50631 206.91217 
L 214.595018 207.805003 
L 214.878885 214.105857 
L 214.949851 213.39159 
L 214.985335 213.289552 
L 215.003076 213.468119 
L 215.25146 218.646553 
L 215.340168 221.809735 
L 215.624034 230.636033 
L 215.659518 230.687052 
L 215.695001 230.610523 
L 215.996609 227.702437 
L 216.085317 225.33005 
L 216.138542 222.983174 
L 216.227251 223.365817 
L 216.404667 225.279031 
L 216.44015 225.074955 
L 216.564342 222.855626 
L 216.7595 221.044449 
L 216.777242 221.069959 
L 216.812725 220.99343 
L 216.830467 220.942411 
L 216.86595 221.120978 
L 216.901433 221.197506 
L 216.919175 221.120978 
L 217.682066 199.897049 
L 217.806258 200.534787 
L 218.178833 207.473379 
L 218.232058 210.228409 
L 218.782049 240.176597 
L 218.799791 240.457202 
L 218.835274 239.538858 
L 219.33204 223.034193 
L 219.86429 203.136759 
L 219.882032 203.315326 
L 219.97074 203.978574 
L 220.006223 203.697969 
L 220.236865 202.958193 
L 220.378798 207.014208 
L 220.573956 210.279428 
L 220.662664 210.71309 
L 220.715889 210.406975 
L 220.875564 209.845766 
L 220.928789 209.59067 
L 221.017497 209.310066 
L 221.052981 209.437613 
L 221.070722 209.514142 
L 221.123947 209.310066 
L 221.212656 208.493761 
L 221.265881 208.748856 
L 221.549747 212.269171 
L 221.567489 212.192642 
L 221.656197 211.427357 
L 221.90458 208.111118 
L 221.922322 208.289684 
L 222.22393 211.172261 
L 222.33038 212.014076 
L 222.75618 222.728078 
L 222.969079 231.579885 
L 223.004563 231.018675 
L 223.252946 228.952404 
L 223.341654 228.850365 
L 223.377138 228.467722 
L 224.140029 206.580546 
L 224.228737 207.141756 
L 224.512603 212.702833 
L 224.938403 229.615651 
L 225.257753 237.702172 
L 225.381945 239.028668 
L 225.43517 238.467458 
L 225.577103 236.044053 
L 225.967419 220.789354 
L 226.020644 219.768973 
L 226.091611 219.794482 
L 226.233544 219.462858 
L 226.446444 216.988434 
L 226.51741 217.422096 
L 226.552894 217.600663 
L 226.606119 217.243529 
L 226.62386 217.115982 
L 226.659344 217.600663 
L 226.73031 217.294548 
L 226.765794 216.478243 
L 226.819019 217.167001 
L 226.889985 218.136363 
L 226.94321 217.600663 
L 227.120627 216.350696 
L 227.15611 216.452734 
L 227.298043 216.707829 
L 227.68836 224.25865 
L 227.830293 225.381069 
L 227.865776 224.768841 
L 228.00771 223.544383 
L 228.043193 223.748459 
L 228.202868 224.998426 
L 228.273834 224.641293 
L 228.806084 220.177125 
L 228.859309 220.432221 
L 228.894792 220.228144 
L 229.1964 215.763977 
L 229.320592 214.998691 
L 229.338334 214.922162 
L 229.373817 215.04971 
L 229.462525 215.5599 
L 229.498009 215.304805 
L 229.799617 213.39159 
L 229.817358 213.289552 
L 229.8351 213.544648 
L 230.030258 218.621044 
L 230.243158 223.289288 
L 230.278641 224.513745 
L 230.36735 223.799479 
L 230.686699 219.080216 
L 231.094757 202.932683 
L 231.112499 202.371473 
L 231.201207 202.958193 
L 231.218949 203.570421 
L 231.254432 202.116378 
L 231.485074 195.228805 
L 231.715715 191.836038 
L 232.017324 203.64695 
L 232.141515 202.626569 
L 232.212482 203.902045 
L 232.372157 209.692709 
L 232.83344 228.08508 
L 233.188273 231.783961 
L 233.259239 231.32479 
L 233.738264 225.125974 
L 233.773747 225.253522 
L 234.039872 228.952404 
L 234.110839 228.824856 
L 234.12858 228.901384 
L 234.181805 229.233008 
L 234.217289 229.028932 
L 234.305997 228.391194 
L 234.34148 228.518742 
L 234.430189 228.850365 
L 234.465672 228.722818 
L 234.678572 226.095336 
L 234.909213 218.952668 
L 235.104372 214.539519 
L 235.122113 214.692576 
L 235.29953 215.763977 
L 235.335013 215.712958 
L 235.40598 214.565029 
L 235.547913 212.447738 
L 235.583396 212.575285 
L 235.743071 213.723214 
L 236.115646 217.345567 
L 236.151129 217.039453 
L 236.470479 213.595667 
L 236.523704 213.901781 
L 236.665637 214.616048 
L 236.683379 214.437481 
L 236.825312 212.32019 
L 237.109179 208.799875 
L 237.180145 209.973313 
L 237.712395 223.544383 
L 237.730136 223.467855 
L 237.747878 223.671931 
L 238.173678 226.98817 
L 238.244644 225.508617 
L 238.688186 202.703097 
L 238.954311 190.943204 
L 239.096244 189.616709 
L 239.113986 189.795275 
L 239.167211 189.948332 
L 239.202694 189.871804 
L 239.291402 189.285085 
L 239.326885 189.667728 
L 239.539785 196.376734 
L 239.91236 210.483504 
L 239.930102 209.692709 
L 240.160743 194.284952 
L 241.012343 136.863001 
L 241.083309 137.500739 
L 241.331692 145.485222 
L 241.580076 162.372531 
L 241.8462 185.458655 
L 242.147809 212.116114 
L 242.37845 223.110721 
L 242.396192 222.702569 
L 242.538125 217.72821 
L 243.247791 174.89771 
L 243.301016 175.331372 
L 243.354241 176.861944 
L 243.567141 189.948332 
L 244.400999 259.640368 
L 244.436482 259.563839 
L 244.542932 257.395529 
L 245.039698 246.247865 
L 245.16389 243.747931 
L 245.27034 236.044053 
L 245.48324 228.391194 
L 245.536465 228.722818 
L 246.600964 257.395529 
L 246.636447 257.165944 
L 246.760639 255.482315 
L 246.813864 256.120053 
L 246.902572 256.502696 
L 246.938055 256.324129 
L 247.168697 253.594609 
L 247.257405 254.206838 
L 247.292889 254.283367 
L 247.381597 256.528205 
L 247.470305 255.507824 
L 247.594497 253.645628 
L 247.860621 245.814203 
L 248.179971 235.865486 
L 248.446096 228.850365 
L 248.481579 230.380937 
L 248.836413 249.513085 
L 249.191246 267.854437 
L 249.262212 268.645232 
L 249.315437 269.078894 
L 249.386404 268.874818 
L 249.475112 269.002365 
L 249.492854 268.900327 
L 249.546079 268.492175 
L 249.599304 268.619722 
L 249.971878 272.905324 
L 249.98962 272.854304 
L 250.007362 272.726757 
L 250.042845 273.032871 
L 250.30897 279.155158 
L 250.752511 294.2568 
L 250.770253 294.027214 
L 250.929928 292.981324 
L 251.160569 288.160022 
L 251.213794 289.231423 
L 251.267019 289.690594 
L 251.284761 289.154894 
L 251.444436 281.119392 
L 252.260552 203.060231 
L 252.686352 151.097318 
L 252.863768 141.352678 
L 252.899252 141.403697 
L 252.970218 141.913888 
L 253.183118 150.969771 
L 253.999234 210.228409 
L 254.726642 222.192378 
L 255.24115 236.73281 
L 256.181458 261.426035 
L 256.199199 261.375016 
L 256.216941 261.349506 
L 256.678224 245.304012 
L 257.086282 227.625908 
L 257.210474 225.636165 
L 257.228215 225.712693 
L 257.458857 234.334914 
L 257.583048 233.620648 
L 257.636273 233.569628 
L 257.724982 234.692048 
L 257.937882 238.92663 
L 258.13304 237.523606 
L 258.150781 237.702172 
L 258.23949 238.416439 
L 258.274973 238.033796 
L 258.45239 233.186986 
L 259.037864 206.88666 
L 259.055606 207.090736 
L 259.179797 207.728475 
L 259.197539 207.600927 
L 259.339472 202.958193 
L 259.481406 197.830777 
L 259.552372 198.289949 
L 259.712047 200.91743 
L 259.871722 208.111118 
L 260.439455 238.339911 
L 260.581388 239.538858 
L 260.616871 239.283763 
L 260.723321 238.543987 
L 260.758805 238.92663 
L 260.847513 239.615387 
L 260.91848 239.411311 
L 260.953963 239.615387 
L 261.042671 238.799082 
L 261.149121 235.865486 
L 261.291054 233.289024 
L 261.326538 233.365552 
L 261.362021 233.186986 
L 261.379763 233.4931 
L 261.557179 238.39093 
L 261.982979 250.635504 
L 262.089429 253.262986 
L 262.160395 253.084419 
L 262.178137 253.058909 
L 262.32007 249.053913 
L 262.550712 233.748195 
L 262.95877 199.897049 
L 263.402311 175.790543 
L 263.455536 177.06602 
L 263.703919 190.968714 
L 263.863594 197.575682 
L 263.899078 197.320587 
L 264.502294 183.366874 
L 264.839385 166.326508 
L 264.874869 167.219341 
L 265.495827 206.657074 
L 266.205493 267.089151 
L 266.560326 278.900063 
L 266.578068 278.313344 
L 267.340959 236.248129 
L 267.624825 220.687316 
L 267.961917 206.070355 
L 268.405458 186.351489 
L 268.4232 186.223941 
L 268.494166 186.504546 
L 268.653841 187.37187 
L 268.724808 187.626965 
L 269.132866 195.228805 
L 269.469957 214.692576 
L 269.505441 214.156876 
L 269.71834 212.32019 
L 269.771565 212.243661 
L 269.807049 212.32019 
L 269.878015 213.008947 
L 270.090915 214.871143 
L 270.108657 214.743595 
L 270.197365 212.498757 
L 271.066706 170.305994 
L 271.403798 156.96451 
L 271.634439 152.1177 
L 271.900564 146.046432 
L 271.936047 145.791336 
L 271.953789 146.173979 
L 272.077981 149.235123 
L 272.645714 182.652607 
L 273.071513 214.156876 
L 273.231188 216.478243 
L 273.24893 216.401715 
L 273.373121 218.263911 
L 273.46183 217.72821 
L 273.586021 216.223148 
L 273.621505 216.835377 
L 273.763438 221.707697 
L 274.153754 239.947011 
L 274.277946 240.839844 
L 274.295687 240.712297 
L 274.384396 238.416439 
L 274.437621 236.426696 
L 274.597296 220.687316 
L 274.827937 166.862208 
L 275.147287 105.43526 
L 275.28922 104.593445 
L 275.377928 105.43526 
L 275.519862 110.231052 
L 275.661795 124.771484 
L 275.981145 185.535184 
L 276.14082 196.937944 
L 276.158561 197.473644 
L 276.194045 196.325715 
L 276.335978 187.626965 
L 276.531136 181.198564 
L 276.602103 181.019997 
L 276.637586 181.122035 
L 276.921452 182.729135 
L 277.116611 185.535184 
L 277.152094 184.183179 
L 277.240802 181.40264 
L 277.294027 183.111778 
L 277.506927 193.111514 
L 277.595635 191.836038 
L 277.75531 188.672856 
L 277.808535 189.029989 
L 278.216593 203.851026 
L 278.553685 228.977913 
L 279.068193 257.676134 
L 279.192384 258.568968 
L 279.564959 247.089679 
L 279.635926 245.814203 
L 279.724634 241.09494 
L 280.0085 229.743199 
L 280.097209 225.661674 
L 280.185917 226.809603 
L 280.629458 232.549247 
L 280.682683 232.93189 
L 280.735908 232.549247 
L 280.771392 232.600266 
L 280.789133 232.549247 
L 280.8601 231.273771 
L 281.002033 227.932022 
L 281.055258 228.697308 
L 281.268158 231.273771 
L 281.303641 231.528866 
L 281.587508 234.972653 
L 281.658474 232.778833 
L 282.314916 198.034853 
L 282.864907 152.934005 
L 283.024582 150.281013 
L 283.822956 181.198564 
L 283.982631 185.611712 
L 284.089081 186.351489 
L 284.106823 185.841298 
L 284.372948 180.433278 
L 284.408431 180.484297 
L 284.461656 181.147545 
L 284.603589 183.928083 
L 284.674556 183.698498 
L 284.940681 179.616973 
L 285.100355 176.045639 
L 285.15358 176.683377 
L 285.437447 181.530188 
L 285.561638 183.494421 
L 285.597122 183.417893 
L 285.632605 183.162797 
L 285.650347 183.494421 
L 285.916472 188.417761 
L 285.987438 188.009608 
L 286.00518 187.88206 
L 286.040663 188.341232 
L 286.164855 189.667728 
L 286.200338 189.412632 
L 286.466463 185.968846 
L 286.555171 179.361878 
L 287.087421 144.005669 
L 287.211612 141.735321 
L 287.406771 133.827367 
L 287.51322 131.786604 
L 287.548704 132.092719 
L 287.743862 145.944393 
L 288.15192 174.89771 
L 288.630945 190.943204 
L 288.68417 190.560561 
L 288.755136 189.922823 
L 289.163194 170.53558 
L 289.216419 170.918223 
L 289.429319 172.576343 
L 289.482544 172.321247 
L 289.766411 168.571346 
L 289.837377 168.112175 
L 289.979311 166.658132 
L 290.014794 167.040775 
L 290.227694 171.453923 
L 290.263177 170.101918 
L 290.547044 162.500078 
L 290.582527 162.704155 
L 290.759943 167.346889 
L 291.061552 174.489557 
L 291.238968 180.484297 
L 291.540576 189.616709 
L 291.735734 192.346228 
L 291.753476 192.295209 
L 291.842184 191.529923 
L 292.409917 179.872068 
L 292.959909 169.719275 
L 292.97765 169.591728 
L 293.013134 169.795804 
L 293.030875 169.795804 
L 293.101842 172.091661 
L 293.385708 179.872068 
L 293.5099 181.249583 
L 293.651833 186.479036 
L 293.971183 214.667067 
L 294.538916 244.89586 
L 294.680849 252.166076 
L 294.734074 250.150823 
L 295.035682 242.804078 
L 295.088907 243.952007 
L 295.284065 247.268246 
L 295.355032 246.936622 
L 295.408257 247.217227 
L 295.44374 246.809074 
L 295.514707 245.788693 
L 295.567932 246.171336 
L 295.727607 249.76818 
L 296.277598 264.94635 
L 296.685656 271.068637 
L 296.703398 271.068637 
L 296.969523 268.696251 
L 297.288872 245.916241 
L 297.69693 224.054574 
L 298.034022 218.110853 
L 298.087247 219.080216 
L 298.246922 223.72295 
L 298.566272 242.217359 
L 298.619497 240.55924 
L 298.690463 241.273506 
L 298.779171 241.987773 
L 298.796913 241.732678 
L 299.417871 231.248261 
L 299.719479 224.182121 
L 299.967862 213.136495 
L 300.48237 187.754513 
L 300.819462 166.836698 
L 301.067845 155.740053 
L 301.33397 143.95465 
L 301.387195 144.031179 
L 301.529128 145.689298 
L 301.759769 151.53098 
L 302.025894 158.367534 
L 302.043636 158.444063 
L 302.061378 158.418553 
L 302.221053 172.015133 
L 302.487177 190.841166 
L 302.700077 197.346096 
L 302.788785 198.672592 
L 302.824269 197.856287 
L 302.983944 195.866543 
L 303.019427 196.198167 
L 303.125877 197.779758 
L 303.16136 196.937944 
L 303.303293 190.254447 
L 303.533935 182.780155 
L 303.622643 178.69863 
L 303.711352 179.23433 
L 303.782318 177.933344 
L 304.030701 168.39278 
L 304.154893 169.132556 
L 304.279085 170.56109 
L 304.314568 170.484561 
L 304.403276 169.387651 
L 304.580693 167.372398 
L 304.651659 167.729532 
L 304.704884 167.550965 
L 304.722626 167.499946 
L 304.900042 172.346757 
L 305.041976 178.571082 
L 305.112942 176.428282 
L 305.467775 156.377791 
L 305.804867 142.602645 
L 306.248408 126.276546 
L 306.26615 126.404094 
L 306.3726 130.868261 
L 306.762916 146.046432 
L 306.7984 145.944393 
L 306.833883 146.046432 
L 306.904849 146.760698 
L 307.312908 155.102315 
L 307.330649 155.051296 
L 307.401616 153.214609 
L 307.703224 145.791336 
L 307.720966 145.740317 
L 307.738707 145.918884 
L 308.501598 156.403301 
L 308.572565 156.913491 
L 308.62579 156.530848 
L 308.749982 155.765562 
L 308.891915 150.765695 
L 309.229006 138.266025 
L 309.246748 138.419082 
L 309.388681 141.327168 
L 309.654806 154.719672 
L 310.45318 190.892185 
L 310.630597 193.774762 
L 311.038655 207.907041 
L 311.51768 238.288891 
L 312.067671 270.737013 
L 312.085413 270.788033 
L 312.103154 270.660485 
L 312.209604 268.18606 
L 312.617662 247.829456 
L 312.812821 217.626172 
L 313.540228 79.594106 
L 313.824095 53.3448 
L 313.859578 54.033557 
L 314.019253 62.247626 
L 314.604728 102.119021 
L 315.420844 163.520459 
L 316.059543 184.769898 
L 316.148252 185.280088 
L 316.183735 185.024993 
L 316.23696 184.973974 
L 316.66276 190.203428 
L 316.98211 196.835905 
L 317.159526 198.876668 
L 317.212751 198.621573 
L 317.301459 197.779758 
L 317.851451 184.208688 
L 317.940159 184.64235 
L 318.046609 187.958589 
L 318.365959 207.294813 
L 318.791758 232.651285 
L 318.933692 237.140963 
L 319.075625 240.763316 
L 319.12885 240.049049 
L 319.270783 238.288891 
L 319.678841 231.783961 
L 319.714324 231.273771 
L 319.767549 231.83498 
L 319.856258 234.5645 
L 320.086899 239.105196 
L 320.441732 243.008155 
L 320.494957 242.497964 
L 320.885274 236.120581 
L 320.95624 236.987905 
L 320.973982 236.375677 
L 321.133657 226.733074 
L 322.198156 157.551229 
L 322.215898 157.52572 
L 322.233639 157.551229 
L 322.322348 158.316515 
L 322.375573 157.908363 
L 322.464281 157.347153 
L 322.677181 151.352414 
L 322.925564 141.22513 
L 323.138464 129.618294 
L 323.227172 130.613166 
L 323.688455 149.184104 
L 324.256188 187.703494 
L 324.27393 187.524927 
L 324.628763 181.708754 
L 324.681988 180.994487 
L 324.770696 179.846559 
L 324.806179 180.101654 
L 324.877146 180.86694 
L 325.462621 195.866543 
L 325.870679 211.733471 
L 326.278737 230.993166 
L 327.077111 284.078498 
L 327.112595 283.874421 
L 327.272269 276.298091 
L 327.662586 233.161476 
L 328.230319 185.71375 
L 328.301285 186.861679 
L 328.88676 206.070355 
L 328.922243 206.019336 
L 328.957727 206.197903 
L 329.170627 209.182518 
L 329.259335 208.111118 
L 329.348043 206.759113 
L 329.41901 205.764241 
L 329.489976 206.070355 
L 329.507718 206.121374 
L 329.52546 206.070355 
L 329.702876 203.595931 
L 329.720618 203.774498 
L 329.827068 205.432617 
L 329.862551 204.845898 
L 329.933518 204.157141 
L 329.986743 204.412236 
L 330.022226 204.539783 
L 330.057709 204.361217 
L 330.181901 201.147016 
L 330.323834 199.437878 
L 330.359317 199.514406 
L 330.589959 201.47864 
L 330.802859 205.049974 
L 330.856084 205.381598 
L 331.370592 219.539387 
L 331.441558 218.82512 
L 331.796391 210.228409 
L 331.973808 201.555168 
L 332.399608 182.601588 
L 332.470574 182.397512 
L 332.506058 182.601588 
L 332.577024 183.03525 
L 332.647991 182.856683 
L 332.789924 182.729135 
L 332.896374 184.259707 
L 333.197982 197.601191 
L 333.889907 233.289024 
L 333.943132 232.345171 
L 334.280223 224.870879 
L 334.688281 214.029329 
L 334.989889 197.601191 
L 335.060856 200.585806 
L 335.273756 204.794879 
L 335.380206 205.483636 
L 335.397947 205.25405 
L 335.735039 200.330711 
L 335.947939 196.759377 
L 336.07213 194.131895 
L 336.480188 177.627229 
L 336.49793 177.703758 
L 336.515672 177.754777 
L 336.551155 177.627229 
L 336.728572 175.96911 
L 336.799538 176.989491 
L 338.076937 216.860886 
L 338.64467 242.548983 
L 338.875312 247.089679 
L 338.946278 247.59987 
L 339.265628 251.859961 
L 339.28337 252.115057 
L 339.318853 251.298752 
L 339.425303 248.084551 
L 339.478528 248.67127 
L 339.567236 249.564104 
L 339.620461 249.257989 
L 339.673686 249.257989 
L 339.797878 246.043789 
L 340.276903 213.034457 
L 340.844636 179.79554 
L 341.163985 174.36201 
L 341.305919 172.576343 
L 341.341402 172.958986 
L 341.501077 177.958853 
L 341.838168 186.172922 
L 341.926876 187.958589 
L 341.997843 187.065756 
L 342.06881 186.479036 
L 342.122035 186.683113 
L 342.157518 186.683113 
L 342.246226 186.30047 
L 342.263968 186.428017 
L 342.405901 188.009608 
L 342.459126 187.626965 
L 342.867184 182.984231 
L 342.884926 183.03525 
L 343.044601 184.897445 
L 343.434917 199.82052 
L 343.541367 199.131763 
L 343.594592 198.876668 
L 343.630075 199.131763 
L 343.6833 200.38173 
L 344.126842 212.830381 
L 344.233292 209.131499 
L 344.5349 200.91743 
L 344.552641 200.891921 
L 344.570383 200.968449 
L 344.605866 201.044978 
L 344.623608 200.840902 
L 344.712316 198.417496 
L 345.120374 172.346757 
L 345.226824 167.474437 
L 345.280049 167.80606 
L 345.315533 167.984627 
L 345.368758 167.729532 
L 345.492949 166.19896 
L 345.830041 160.714411 
L 345.883266 161.046035 
L 346.131649 166.19896 
L 346.220357 166.020393 
L 346.273582 165.510203 
L 346.68164 158.954254 
L 346.717123 159.056292 
L 346.823573 159.387916 
L 346.841315 159.438935 
L 346.876798 159.260368 
L 346.965507 157.933872 
L 347.178406 153.648271 
L 347.32034 151.786076 
L 347.373565 152.806457 
L 347.568723 162.908231 
L 347.923556 178.724139 
L 348.260647 187.780022 
L 348.438064 191.606452 
L 348.473547 190.560561 
L 348.544514 186.81066 
L 349.183213 148.801461 
L 349.307405 147.832099 
L 349.378372 147.832099 
L 349.502563 146.071941 
L 349.555788 146.429074 
L 349.715463 154.362538 
L 350.070296 172.780419 
L 350.265454 177.117039 
L 350.531579 186.30047 
L 350.673512 188.086137 
L 350.691254 188.009608 
L 350.726737 187.958589 
L 350.992862 190.713618 
L 351.063829 190.968714 
L 351.08157 190.713618 
L 351.170279 190.07588 
L 351.223504 190.203428 
L 351.329954 191.70849 
L 351.525112 193.953329 
L 351.542854 193.8768 
L 351.578337 193.774762 
L 351.61382 194.004348 
L 351.791237 195.534919 
L 351.808978 195.279824 
L 351.862203 194.718614 
L 351.93317 194.846162 
L 352.234778 197.218548 
L 352.447678 201.937811 
L 352.46542 201.98883 
L 352.483161 201.810264 
L 352.554128 201.657207 
L 352.589611 201.810264 
L 352.749286 202.881664 
L 353.157344 208.034589 
L 353.281536 210.917166 
L 353.334761 210.228409 
L 353.529919 209.310066 
L 353.583144 209.641689 
L 353.618627 209.718218 
L 353.636369 209.565161 
L 354.541193 196.58081 
L 354.842801 188.009608 
L 354.949251 188.800404 
L 355.215376 192.346228 
L 355.375051 192.116642 
L 355.463759 192.040114 
L 355.516984 191.912566 
L 355.534726 191.989095 
L 355.676659 195.050238 
L 355.925042 200.840902 
L 355.978267 200.38173 
L 356.262134 198.74912 
L 356.297617 198.876668 
L 356.404067 199.259311 
L 356.43955 199.182782 
L 357.042767 194.080876 
L 357.202441 193.519667 
L 357.237925 193.494157 
L 357.3976 191.785019 
L 357.450825 192.218681 
L 357.557275 192.856419 
L 357.6105 192.754381 
L 357.645983 192.728871 
L 357.770174 192.371738 
L 357.787916 192.473776 
L 357.876624 192.754381 
L 357.929849 192.499285 
L 358.036299 191.657471 
L 358.089524 191.963585 
L 358.142749 192.499285 
L 358.213716 192.24419 
L 358.266941 192.218681 
L 358.302424 192.24419 
L 358.391132 193.188043 
L 358.639516 198.111382 
L 358.657257 197.65221 
L 358.763707 196.708358 
L 358.79919 197.014472 
L 359.295957 202.932683 
L 359.366923 202.320454 
L 359.402407 202.167397 
L 359.562082 195.738996 
L 359.704015 191.096261 
L 359.739498 192.091133 
L 359.845948 193.570686 
L 359.881431 193.239062 
L 359.899173 193.137024 
L 359.952398 193.264571 
L 360.094331 194.540048 
L 360.165298 194.029857 
L 360.360456 191.019733 
L 360.449164 191.529923 
L 360.537873 193.366609 
L 361.26528 215.04971 
L 361.69108 231.018675 
L 361.921722 237.574625 
L 361.957205 237.191982 
L 362.258813 227.421832 
L 362.631388 213.97831 
L 362.720096 214.054838 
L 362.862029 211.75898 
L 363.003963 210.202899 
L 363.021704 210.279428 
L 363.057188 210.457994 
L 363.074929 210.15188 
L 363.216863 207.269303 
L 363.252346 207.473379 
L 363.323312 207.473379 
L 363.394279 206.452998 
L 363.571696 199.182782 
L 364.281362 168.571346 
L 364.405553 167.85708 
L 364.458778 168.010137 
L 364.600712 171.326376 
L 364.849095 180.254711 
L 364.884578 179.999616 
L 364.90232 180.484297 
L 365.22167 186.096393 
L 365.274895 185.994355 
L 365.399086 184.183179 
L 365.736178 173.596724 
L 366.002302 163.520459 
L 366.073269 162.780683 
L 366.108752 163.341893 
L 366.215202 163.775555 
L 366.232944 163.724536 
L 366.392619 162.015397 
L 366.428102 162.372531 
L 366.463585 163.290874 
L 367.208735 190.943204 
L 367.510343 196.04511 
L 367.58131 195.024729 
L 367.865176 189.412632 
L 367.936143 188.46878 
L 367.989368 188.902442 
L 368.255493 193.009476 
L 368.468392 204.106121 
L 368.858709 222.141359 
L 369.30225 232.727814 
L 369.319992 232.93189 
L 369.373217 232.268642 
L 369.657083 227.064698 
L 369.763533 226.171865 
L 369.781275 226.018808 
L 369.799017 226.477979 
L 370.118366 233.620648 
L 370.136108 233.442081 
L 370.295783 231.197242 
L 370.579649 225.712693 
L 371.094157 212.192642 
L 371.129641 212.116114 
L 371.147382 211.886528 
L 371.200607 212.575285 
L 371.253832 212.447738 
L 371.271574 212.702833 
L 371.537699 216.860886 
L 371.715115 223.365817 
L 371.98124 236.885867 
L 372.016723 236.503224 
L 372.265107 234.462462 
L 372.336073 238.850101 
L 372.371557 240.839844 
L 372.442523 239.870482 
L 372.690906 236.299148 
L 373.045739 227.932022 
L 373.081223 229.539123 
L 373.329606 237.191982 
L 373.347348 237.140963 
L 373.436056 232.217623 
L 373.507022 234.05431 
L 373.684439 235.916505 
L 373.719922 235.788958 
L 373.773147 235.355296 
L 374.358622 229.335047 
L 374.482813 233.926762 
L 374.536038 236.809339 
L 374.589263 234.462462 
L 375.600538 168.826442 
L 375.653763 170.612109 
L 375.884404 188.519799 
L 376.203754 210.100861 
L 376.469879 220.738335 
L 376.540845 219.89652 
L 376.59407 217.855758 
L 377.01987 191.785019 
L 377.250512 185.331107 
L 377.534378 181.632226 
L 377.676311 186.172922 
L 377.942436 200.764373 
L 378.403719 227.829984 
L 378.669844 236.630772 
L 378.723069 235.737939 
L 378.900486 234.05431 
L 378.953711 234.181857 
L 378.989194 234.130838 
L 379.113385 231.707433 
L 379.290802 228.467722 
L 379.48596 225.534127 
L 379.521443 225.636165 
L 379.556927 225.712693 
L 379.59241 225.508617 
L 379.645635 224.564764 
L 379.69886 225.151484 
L 380.461751 238.288891 
L 380.532718 239.232744 
L 380.745618 241.579621 
L 380.763359 241.60513 
L 380.852068 239.487839 
L 381.118192 230.049313 
L 381.437542 217.549644 
L 381.526251 212.702833 
L 381.916567 180.382259 
L 382.927841 104.593445 
L 382.945583 104.287331 
L 383.01655 104.976088 
L 383.264933 117.603306 
L 383.602024 133.67431 
L 383.850407 141.862869 
L 384.063307 148.163722 
L 384.09879 147.959646 
L 384.329432 143.648536 
L 384.506849 136.556886 
L 384.560074 137.143606 
L 384.914907 143.189364 
L 385.110065 146.071941 
L 385.500381 157.729796 
L 385.58909 158.546101 
L 385.624573 158.188968 
L 385.837473 156.071677 
L 385.855214 156.071677 
L 385.943923 157.474701 
L 386.210047 164.285745 
L 386.298756 164.107179 
L 386.369722 164.821445 
L 386.493914 167.678513 
L 387.043905 189.744256 
L 387.061647 189.667728 
L 387.168097 187.626965 
L 387.221322 188.264703 
L 388.161629 230.176861 
L 388.374529 238.543987 
L 388.516463 239.99803 
L 388.551946 239.921501 
L 388.605171 240.176597 
L 388.800329 244.717293 
L 388.924521 244.130574 
L 389.066454 242.982645 
L 389.332579 238.671534 
L 389.35032 239.691916 
L 389.439029 242.344907 
L 389.492254 241.834716 
L 389.740637 236.095072 
L 390.184178 208.315194 
L 391.018036 154.668653 
L 391.106744 153.393176 
L 391.159969 153.826838 
L 391.408352 156.326772 
L 391.461577 156.148205 
L 391.479319 156.199224 
L 391.497061 155.944129 
L 391.514802 155.689034 
L 391.568027 156.403301 
L 391.727702 157.678777 
L 391.763185 157.52572 
L 391.81641 157.296134 
L 391.869635 157.52572 
L 391.993827 158.367534 
L 392.064794 158.112439 
L 392.206727 154.974767 
L 392.472852 137.959911 
L 392.597043 139.924144 
L 392.827685 145.306655 
L 393.20026 157.602249 
L 393.377676 165.841827 
L 393.732509 181.40264 
L 393.838959 183.188307 
L 393.892184 182.805664 
L 393.980892 180.764902 
L 394.016376 181.887321 
L 394.247017 191.861547 
L 394.548625 212.626304 
L 395.02765 247.013151 
L 395.205067 254.283367 
L 395.222808 254.206838 
L 395.258292 253.951743 
L 395.293775 254.334386 
L 396.322791 286.935565 
L 396.517949 291.52728 
L 396.801815 277.828663 
L 397.334065 235.482843 
L 397.742123 209.437613 
L 397.990506 203.187778 
L 398.043731 202.320454 
L 398.434048 189.667728 
L 398.487273 187.244322 
L 398.487273 187.244322 
" style="fill:none;stroke:#1f77b4;stroke-linecap:square;stroke-width:1.5;"/>
   </g>
   <g id="patch_3">
    <path d="M 57.6 306.3024 
L 57.6 41.2992 
" style="fill:none;stroke:#000000;stroke-linecap:square;stroke-linejoin:miter;stroke-width:0.8;"/>
   </g>
   <g id="patch_4">
    <path d="M 414.72 306.3024 
L 414.72 41.2992 
" style="fill:none;stroke:#000000;stroke-linecap:square;stroke-linejoin:miter;stroke-width:0.8;"/>
   </g>
   <g id="patch_5">
    <path d="M 57.6 306.3024 
L 414.72 306.3024 
" style="fill:none;stroke:#000000;stroke-linecap:square;stroke-linejoin:miter;stroke-width:0.8;"/>
   </g>
   <g id="patch_6">
    <path d="M 57.6 41.2992 
L 414.72 41.2992 
" style="fill:none;stroke:#000000;stroke-linecap:square;stroke-linejoin:miter;stroke-width:0.8;"/>
   </g>
   <g id="text_16">
    <!-- Ritmo Cardíaco -->
    <g transform="translate(190.094063 35.2992)scale(0.12 -0.12)">
     <use xlink:href="#DejaVuSans-82"/>
     <use x="69.482422" xlink:href="#DejaVuSans-105"/>
     <use x="97.265625" xlink:href="#DejaVuSans-116"/>
     <use x="136.474609" xlink:href="#DejaVuSans-109"/>
     <use x="233.886719" xlink:href="#DejaVuSans-111"/>
     <use x="295.068359" xlink:href="#DejaVuSans-32"/>
     <use x="326.855469" xlink:href="#DejaVuSans-67"/>
     <use x="396.679688" xlink:href="#DejaVuSans-97"/>
     <use x="457.958984" xlink:href="#DejaVuSans-114"/>
     <use x="499.056641" xlink:href="#DejaVuSans-100"/>
     <use x="562.533203" xlink:href="#DejaVuSans-237"/>
     <use x="590.316406" xlink:href="#DejaVuSans-97"/>
     <use x="651.595703" xlink:href="#DejaVuSans-99"/>
     <use x="706.576172" xlink:href="#DejaVuSans-111"/>
    </g>
   </g>
  </g>
 </g>
 <defs>
  <clipPath id="pd427ab2c9a">
   <rect height="265.0032" width="357.12" x="57.6" y="41.2992"/>
  </clipPath>
 </defs>
</svg>
