<?xml version="1.0" encoding="utf-8" standalone="no"?>
<!DOCTYPE svg PUBLIC "-//W3C//DTD SVG 1.1//EN"
  "http://www.w3.org/Graphics/SVG/1.1/DTD/svg11.dtd">
<!-- Created with matplotlib (https://matplotlib.org/) -->
<svg height="344.16pt" version="1.1" viewBox="0 0 460.8 344.16" width="460.8pt" xmlns="http://www.w3.org/2000/svg" xmlns:xlink="http://www.w3.org/1999/xlink">
 <defs>
  <style type="text/css">
*{stroke-linecap:butt;stroke-linejoin:round;}
  </style>
 </defs>
 <g id="figure_1">
  <g id="patch_1">
   <path d="M 0 344.16 
L 460.8 344.16 
L 460.8 0 
L 0 0 
z
" style="fill:#ffffff;"/>
  </g>
  <g id="axes_1">
   <g id="patch_2">
    <path d="M 66.71 302.374833 
L 450 302.374833 
L 450 26.051 
L 66.71 26.051 
z
" style="fill:#ffffff;"/>
   </g>
   <g id="patch_3">
    <path clip-path="url(#pdf308b7153)" d="M 84.132273 302.374833 
L 87.616727 302.374833 
L 87.616727 296.215912 
L 84.132273 296.215912 
z
" style="fill:#1f77b4;"/>
   </g>
   <g id="patch_4">
    <path clip-path="url(#pdf308b7153)" d="M 87.616727 302.374833 
L 91.101182 302.374833 
L 91.101182 290.313613 
L 87.616727 290.313613 
z
" style="fill:#1f77b4;"/>
   </g>
   <g id="patch_5">
    <path clip-path="url(#pdf308b7153)" d="M 91.101182 302.374833 
L 94.585636 302.374833 
L 94.585636 276.712663 
L 91.101182 276.712663 
z
" style="fill:#1f77b4;"/>
   </g>
   <g id="patch_6">
    <path clip-path="url(#pdf308b7153)" d="M 94.585636 302.374833 
L 98.070091 302.374833 
L 98.070091 274.274757 
L 94.585636 274.274757 
z
" style="fill:#1f77b4;"/>
   </g>
   <g id="patch_7">
    <path clip-path="url(#pdf308b7153)" d="M 98.070091 302.374833 
L 101.554545 302.374833 
L 101.554545 251.820358 
L 98.070091 251.820358 
z
" style="fill:#1f77b4;"/>
   </g>
   <g id="patch_8">
    <path clip-path="url(#pdf308b7153)" d="M 101.554545 302.374833 
L 105.039 302.374833 
L 105.039 216.791496 
L 101.554545 216.791496 
z
" style="fill:#1f77b4;"/>
   </g>
   <g id="patch_9">
    <path clip-path="url(#pdf308b7153)" d="M 105.039 302.374833 
L 108.523455 302.374833 
L 108.523455 187.664932 
L 105.039 187.664932 
z
" style="fill:#1f77b4;"/>
   </g>
   <g id="patch_10">
    <path clip-path="url(#pdf308b7153)" d="M 108.523455 302.374833 
L 112.007909 302.374833 
L 112.007909 121.841466 
L 108.523455 121.841466 
z
" style="fill:#1f77b4;"/>
   </g>
   <g id="patch_11">
    <path clip-path="url(#pdf308b7153)" d="M 112.007909 302.374833 
L 115.492364 302.374833 
L 115.492364 109.267002 
L 112.007909 109.267002 
z
" style="fill:#1f77b4;"/>
   </g>
   <g id="patch_12">
    <path clip-path="url(#pdf308b7153)" d="M 115.492364 302.374833 
L 118.976818 302.374833 
L 118.976818 100.413554 
L 115.492364 100.413554 
z
" style="fill:#1f77b4;"/>
   </g>
   <g id="patch_13">
    <path clip-path="url(#pdf308b7153)" d="M 118.976818 302.374833 
L 122.461273 302.374833 
L 122.461273 90.148686 
L 118.976818 90.148686 
z
" style="fill:#1f77b4;"/>
   </g>
   <g id="patch_14">
    <path clip-path="url(#pdf308b7153)" d="M 122.461273 302.374833 
L 125.945727 302.374833 
L 125.945727 55.119823 
L 122.461273 55.119823 
z
" style="fill:#1f77b4;"/>
   </g>
   <g id="patch_15">
    <path clip-path="url(#pdf308b7153)" d="M 125.945727 302.374833 
L 129.430182 302.374833 
L 129.430182 52.040363 
L 125.945727 52.040363 
z
" style="fill:#1f77b4;"/>
   </g>
   <g id="patch_16">
    <path clip-path="url(#pdf308b7153)" d="M 129.430182 302.374833 
L 132.914636 302.374833 
L 132.914636 47.806105 
L 129.430182 47.806105 
z
" style="fill:#1f77b4;"/>
   </g>
   <g id="patch_17">
    <path clip-path="url(#pdf308b7153)" d="M 132.914636 302.374833 
L 136.399091 302.374833 
L 136.399091 39.209278 
L 132.914636 39.209278 
z
" style="fill:#1f77b4;"/>
   </g>
   <g id="patch_18">
    <path clip-path="url(#pdf308b7153)" d="M 136.399091 302.374833 
L 139.883545 302.374833 
L 139.883545 39.850832 
L 136.399091 39.850832 
z
" style="fill:#1f77b4;"/>
   </g>
   <g id="patch_19">
    <path clip-path="url(#pdf308b7153)" d="M 139.883545 302.374833 
L 143.368 302.374833 
L 143.368 46.138064 
L 139.883545 46.138064 
z
" style="fill:#1f77b4;"/>
   </g>
   <g id="patch_20">
    <path clip-path="url(#pdf308b7153)" d="M 143.368 302.374833 
L 146.852455 302.374833 
L 146.852455 53.06685 
L 143.368 53.06685 
z
" style="fill:#1f77b4;"/>
   </g>
   <g id="patch_21">
    <path clip-path="url(#pdf308b7153)" d="M 146.852455 302.374833 
L 150.336909 302.374833 
L 150.336909 75.392938 
L 146.852455 75.392938 
z
" style="fill:#1f77b4;"/>
   </g>
   <g id="patch_22">
    <path clip-path="url(#pdf308b7153)" d="M 150.336909 302.374833 
L 153.821364 302.374833 
L 153.821364 63.075096 
L 150.336909 63.075096 
z
" style="fill:#1f77b4;"/>
   </g>
   <g id="patch_23">
    <path clip-path="url(#pdf308b7153)" d="M 153.821364 302.374833 
L 157.305818 302.374833 
L 157.305818 66.539489 
L 153.821364 66.539489 
z
" style="fill:#1f77b4;"/>
   </g>
   <g id="patch_24">
    <path clip-path="url(#pdf308b7153)" d="M 157.305818 302.374833 
L 160.790273 302.374833 
L 160.790273 75.264627 
L 157.305818 75.264627 
z
" style="fill:#1f77b4;"/>
   </g>
   <g id="patch_25">
    <path clip-path="url(#pdf308b7153)" d="M 160.790273 302.374833 
L 164.274727 302.374833 
L 164.274727 81.423548 
L 160.790273 81.423548 
z
" style="fill:#1f77b4;"/>
   </g>
   <g id="patch_26">
    <path clip-path="url(#pdf308b7153)" d="M 164.274727 302.374833 
L 167.759182 302.374833 
L 167.759182 99.258756 
L 164.274727 99.258756 
z
" style="fill:#1f77b4;"/>
   </g>
   <g id="patch_27">
    <path clip-path="url(#pdf308b7153)" d="M 167.759182 302.374833 
L 171.243636 302.374833 
L 171.243636 101.31173 
L 167.759182 101.31173 
z
" style="fill:#1f77b4;"/>
   </g>
   <g id="patch_28">
    <path clip-path="url(#pdf308b7153)" d="M 171.243636 302.374833 
L 174.728091 302.374833 
L 174.728091 100.156932 
L 171.243636 100.156932 
z
" style="fill:#1f77b4;"/>
   </g>
   <g id="patch_29">
    <path clip-path="url(#pdf308b7153)" d="M 174.728091 302.374833 
L 178.212545 302.374833 
L 178.212545 102.85146 
L 174.728091 102.85146 
z
" style="fill:#1f77b4;"/>
   </g>
   <g id="patch_30">
    <path clip-path="url(#pdf308b7153)" d="M 178.212545 302.374833 
L 181.697 302.374833 
L 181.697 99.258756 
L 178.212545 99.258756 
z
" style="fill:#1f77b4;"/>
   </g>
   <g id="patch_31">
    <path clip-path="url(#pdf308b7153)" d="M 181.697 302.374833 
L 185.181455 302.374833 
L 185.181455 94.126322 
L 181.697 94.126322 
z
" style="fill:#1f77b4;"/>
   </g>
   <g id="patch_32">
    <path clip-path="url(#pdf308b7153)" d="M 185.181455 302.374833 
L 188.665909 302.374833 
L 188.665909 117.735519 
L 185.181455 117.735519 
z
" style="fill:#1f77b4;"/>
   </g>
   <g id="patch_33">
    <path clip-path="url(#pdf308b7153)" d="M 188.665909 302.374833 
L 192.150364 302.374833 
L 192.150364 132.491267 
L 188.665909 132.491267 
z
" style="fill:#1f77b4;"/>
   </g>
   <g id="patch_34">
    <path clip-path="url(#pdf308b7153)" d="M 192.150364 302.374833 
L 195.634818 302.374833 
L 195.634818 116.837343 
L 192.150364 116.837343 
z
" style="fill:#1f77b4;"/>
   </g>
   <g id="patch_35">
    <path clip-path="url(#pdf308b7153)" d="M 195.634818 302.374833 
L 199.119273 302.374833 
L 199.119273 107.470651 
L 195.634818 107.470651 
z
" style="fill:#1f77b4;"/>
   </g>
   <g id="patch_36">
    <path clip-path="url(#pdf308b7153)" d="M 199.119273 302.374833 
L 202.603727 302.374833 
L 202.603727 110.550111 
L 199.119273 110.550111 
z
" style="fill:#1f77b4;"/>
   </g>
   <g id="patch_37">
    <path clip-path="url(#pdf308b7153)" d="M 202.603727 302.374833 
L 206.088182 302.374833 
L 206.088182 128.128698 
L 202.603727 128.128698 
z
" style="fill:#1f77b4;"/>
   </g>
   <g id="patch_38">
    <path clip-path="url(#pdf308b7153)" d="M 206.088182 302.374833 
L 209.572636 302.374833 
L 209.572636 151.609583 
L 206.088182 151.609583 
z
" style="fill:#1f77b4;"/>
   </g>
   <g id="patch_39">
    <path clip-path="url(#pdf308b7153)" d="M 209.572636 302.374833 
L 213.057091 302.374833 
L 213.057091 157.640193 
L 209.572636 157.640193 
z
" style="fill:#1f77b4;"/>
   </g>
   <g id="patch_40">
    <path clip-path="url(#pdf308b7153)" d="M 213.057091 302.374833 
L 216.541545 302.374833 
L 216.541545 152.122827 
L 213.057091 152.122827 
z
" style="fill:#1f77b4;"/>
   </g>
   <g id="patch_41">
    <path clip-path="url(#pdf308b7153)" d="M 216.541545 302.374833 
L 220.026 302.374833 
L 220.026 148.401812 
L 216.541545 148.401812 
z
" style="fill:#1f77b4;"/>
   </g>
   <g id="patch_42">
    <path clip-path="url(#pdf308b7153)" d="M 220.026 302.374833 
L 223.510455 302.374833 
L 223.510455 160.847965 
L 220.026 160.847965 
z
" style="fill:#1f77b4;"/>
   </g>
   <g id="patch_43">
    <path clip-path="url(#pdf308b7153)" d="M 223.510455 302.374833 
L 226.994909 302.374833 
L 226.994909 156.998639 
L 223.510455 156.998639 
z
" style="fill:#1f77b4;"/>
   </g>
   <g id="patch_44">
    <path clip-path="url(#pdf308b7153)" d="M 226.994909 302.374833 
L 230.479364 302.374833 
L 230.479364 141.088094 
L 226.994909 141.088094 
z
" style="fill:#1f77b4;"/>
   </g>
   <g id="patch_45">
    <path clip-path="url(#pdf308b7153)" d="M 230.479364 302.374833 
L 233.963818 302.374833 
L 233.963818 158.538369 
L 230.479364 158.538369 
z
" style="fill:#1f77b4;"/>
   </g>
   <g id="patch_46">
    <path clip-path="url(#pdf308b7153)" d="M 233.963818 302.374833 
L 237.448273 302.374833 
L 237.448273 168.931548 
L 233.963818 168.931548 
z
" style="fill:#1f77b4;"/>
   </g>
   <g id="patch_47">
    <path clip-path="url(#pdf308b7153)" d="M 237.448273 302.374833 
L 240.932727 302.374833 
L 240.932727 186.638446 
L 237.448273 186.638446 
z
" style="fill:#1f77b4;"/>
   </g>
   <g id="patch_48">
    <path clip-path="url(#pdf308b7153)" d="M 240.932727 302.374833 
L 244.417182 302.374833 
L 244.417182 179.068105 
L 240.932727 179.068105 
z
" style="fill:#1f77b4;"/>
   </g>
   <g id="patch_49">
    <path clip-path="url(#pdf308b7153)" d="M 244.417182 302.374833 
L 247.901636 302.374833 
L 247.901636 155.202287 
L 244.417182 155.202287 
z
" style="fill:#1f77b4;"/>
   </g>
   <g id="patch_50">
    <path clip-path="url(#pdf308b7153)" d="M 247.901636 302.374833 
L 251.386091 302.374833 
L 251.386091 163.285871 
L 247.901636 163.285871 
z
" style="fill:#1f77b4;"/>
   </g>
   <g id="patch_51">
    <path clip-path="url(#pdf308b7153)" d="M 251.386091 302.374833 
L 254.870545 302.374833 
L 254.870545 178.169929 
L 251.386091 178.169929 
z
" style="fill:#1f77b4;"/>
   </g>
   <g id="patch_52">
    <path clip-path="url(#pdf308b7153)" d="M 254.870545 302.374833 
L 258.355 302.374833 
L 258.355 186.510135 
L 254.870545 186.510135 
z
" style="fill:#1f77b4;"/>
   </g>
   <g id="patch_53">
    <path clip-path="url(#pdf308b7153)" d="M 258.355 302.374833 
L 261.839455 302.374833 
L 261.839455 180.094592 
L 258.355 180.094592 
z
" style="fill:#1f77b4;"/>
   </g>
   <g id="patch_54">
    <path clip-path="url(#pdf308b7153)" d="M 261.839455 302.374833 
L 265.323909 302.374833 
L 265.323909 184.457161 
L 261.839455 184.457161 
z
" style="fill:#1f77b4;"/>
   </g>
   <g id="patch_55">
    <path clip-path="url(#pdf308b7153)" d="M 265.323909 302.374833 
L 268.808364 302.374833 
L 268.808364 196.903314 
L 265.323909 196.903314 
z
" style="fill:#1f77b4;"/>
   </g>
   <g id="patch_56">
    <path clip-path="url(#pdf308b7153)" d="M 268.808364 302.374833 
L 272.292818 302.374833 
L 272.292818 196.646692 
L 268.808364 196.646692 
z
" style="fill:#1f77b4;"/>
   </g>
   <g id="patch_57">
    <path clip-path="url(#pdf308b7153)" d="M 272.292818 302.374833 
L 275.777273 302.374833 
L 275.777273 200.752639 
L 272.292818 200.752639 
z
" style="fill:#1f77b4;"/>
   </g>
   <g id="patch_58">
    <path clip-path="url(#pdf308b7153)" d="M 275.777273 302.374833 
L 279.261727 302.374833 
L 279.261727 198.827977 
L 275.777273 198.827977 
z
" style="fill:#1f77b4;"/>
   </g>
   <g id="patch_59">
    <path clip-path="url(#pdf308b7153)" d="M 279.261727 302.374833 
L 282.746182 302.374833 
L 282.746182 208.707912 
L 279.261727 208.707912 
z
" style="fill:#1f77b4;"/>
   </g>
   <g id="patch_60">
    <path clip-path="url(#pdf308b7153)" d="M 282.746182 302.374833 
L 286.230636 302.374833 
L 286.230636 209.734399 
L 282.746182 209.734399 
z
" style="fill:#1f77b4;"/>
   </g>
   <g id="patch_61">
    <path clip-path="url(#pdf308b7153)" d="M 286.230636 302.374833 
L 289.715091 302.374833 
L 289.715091 219.999267 
L 286.230636 219.999267 
z
" style="fill:#1f77b4;"/>
   </g>
   <g id="patch_62">
    <path clip-path="url(#pdf308b7153)" d="M 289.715091 302.374833 
L 293.199545 302.374833 
L 293.199545 221.92393 
L 289.715091 221.92393 
z
" style="fill:#1f77b4;"/>
   </g>
   <g id="patch_63">
    <path clip-path="url(#pdf308b7153)" d="M 293.199545 302.374833 
L 296.684 302.374833 
L 296.684 236.551367 
L 293.199545 236.551367 
z
" style="fill:#1f77b4;"/>
   </g>
   <g id="patch_64">
    <path clip-path="url(#pdf308b7153)" d="M 296.684 302.374833 
L 300.168455 302.374833 
L 300.168455 234.241771 
L 296.684 234.241771 
z
" style="fill:#1f77b4;"/>
   </g>
   <g id="patch_65">
    <path clip-path="url(#pdf308b7153)" d="M 300.168455 302.374833 
L 303.652909 302.374833 
L 303.652909 235.268258 
L 300.168455 235.268258 
z
" style="fill:#1f77b4;"/>
   </g>
   <g id="patch_66">
    <path clip-path="url(#pdf308b7153)" d="M 303.652909 302.374833 
L 307.137364 302.374833 
L 307.137364 230.392446 
L 303.652909 230.392446 
z
" style="fill:#1f77b4;"/>
   </g>
   <g id="patch_67">
    <path clip-path="url(#pdf308b7153)" d="M 307.137364 302.374833 
L 310.621818 302.374833 
L 310.621818 217.304739 
L 307.137364 217.304739 
z
" style="fill:#1f77b4;"/>
   </g>
   <g id="patch_68">
    <path clip-path="url(#pdf308b7153)" d="M 310.621818 302.374833 
L 314.106273 302.374833 
L 314.106273 230.392446 
L 310.621818 230.392446 
z
" style="fill:#1f77b4;"/>
   </g>
   <g id="patch_69">
    <path clip-path="url(#pdf308b7153)" d="M 314.106273 302.374833 
L 317.590727 302.374833 
L 317.590727 242.453666 
L 314.106273 242.453666 
z
" style="fill:#1f77b4;"/>
   </g>
   <g id="patch_70">
    <path clip-path="url(#pdf308b7153)" d="M 317.590727 302.374833 
L 321.075182 302.374833 
L 321.075182 240.913936 
L 317.590727 240.913936 
z
" style="fill:#1f77b4;"/>
   </g>
   <g id="patch_71">
    <path clip-path="url(#pdf308b7153)" d="M 321.075182 302.374833 
L 324.559636 302.374833 
L 324.559636 245.276505 
L 321.075182 245.276505 
z
" style="fill:#1f77b4;"/>
   </g>
   <g id="patch_72">
    <path clip-path="url(#pdf308b7153)" d="M 324.559636 302.374833 
L 328.044091 302.374833 
L 328.044091 243.09522 
L 324.559636 243.09522 
z
" style="fill:#1f77b4;"/>
   </g>
   <g id="patch_73">
    <path clip-path="url(#pdf308b7153)" d="M 328.044091 302.374833 
L 331.528545 302.374833 
L 331.528545 227.056364 
L 328.044091 227.056364 
z
" style="fill:#1f77b4;"/>
   </g>
   <g id="patch_74">
    <path clip-path="url(#pdf308b7153)" d="M 331.528545 302.374833 
L 335.013 302.374833 
L 335.013 246.431302 
L 331.528545 246.431302 
z
" style="fill:#1f77b4;"/>
   </g>
   <g id="patch_75">
    <path clip-path="url(#pdf308b7153)" d="M 335.013 302.374833 
L 338.497455 302.374833 
L 338.497455 252.461912 
L 335.013 252.461912 
z
" style="fill:#1f77b4;"/>
   </g>
   <g id="patch_76">
    <path clip-path="url(#pdf308b7153)" d="M 338.497455 302.374833 
L 341.981909 302.374833 
L 341.981909 245.148194 
L 338.497455 245.148194 
z
" style="fill:#1f77b4;"/>
   </g>
   <g id="patch_77">
    <path clip-path="url(#pdf308b7153)" d="M 341.981909 302.374833 
L 345.466364 302.374833 
L 345.466364 254.643197 
L 341.981909 254.643197 
z
" style="fill:#1f77b4;"/>
   </g>
   <g id="patch_78">
    <path clip-path="url(#pdf308b7153)" d="M 345.466364 302.374833 
L 348.950818 302.374833 
L 348.950818 251.050493 
L 345.466364 251.050493 
z
" style="fill:#1f77b4;"/>
   </g>
   <g id="patch_79">
    <path clip-path="url(#pdf308b7153)" d="M 348.950818 302.374833 
L 352.435273 302.374833 
L 352.435273 254.514886 
L 348.950818 254.514886 
z
" style="fill:#1f77b4;"/>
   </g>
   <g id="patch_80">
    <path clip-path="url(#pdf308b7153)" d="M 352.435273 302.374833 
L 355.919727 302.374833 
L 355.919727 252.07698 
L 352.435273 252.07698 
z
" style="fill:#1f77b4;"/>
   </g>
   <g id="patch_81">
    <path clip-path="url(#pdf308b7153)" d="M 355.919727 302.374833 
L 359.404182 302.374833 
L 359.404182 255.284751 
L 355.919727 255.284751 
z
" style="fill:#1f77b4;"/>
   </g>
   <g id="patch_82">
    <path clip-path="url(#pdf308b7153)" d="M 359.404182 302.374833 
L 362.888636 302.374833 
L 362.888636 251.948669 
L 359.404182 251.948669 
z
" style="fill:#1f77b4;"/>
   </g>
   <g id="patch_83">
    <path clip-path="url(#pdf308b7153)" d="M 362.888636 302.374833 
L 366.373091 302.374833 
L 366.373091 247.072857 
L 362.888636 247.072857 
z
" style="fill:#1f77b4;"/>
   </g>
   <g id="patch_84">
    <path clip-path="url(#pdf308b7153)" d="M 366.373091 302.374833 
L 369.857545 302.374833 
L 369.857545 249.767384 
L 366.373091 249.767384 
z
" style="fill:#1f77b4;"/>
   </g>
   <g id="patch_85">
    <path clip-path="url(#pdf308b7153)" d="M 369.857545 302.374833 
L 373.342 302.374833 
L 373.342 254.514886 
L 369.857545 254.514886 
z
" style="fill:#1f77b4;"/>
   </g>
   <g id="patch_86">
    <path clip-path="url(#pdf308b7153)" d="M 373.342 302.374833 
L 376.826455 302.374833 
L 376.826455 262.341848 
L 373.342 262.341848 
z
" style="fill:#1f77b4;"/>
   </g>
   <g id="patch_87">
    <path clip-path="url(#pdf308b7153)" d="M 376.826455 302.374833 
L 380.310909 302.374833 
L 380.310909 271.451918 
L 376.826455 271.451918 
z
" style="fill:#1f77b4;"/>
   </g>
   <g id="patch_88">
    <path clip-path="url(#pdf308b7153)" d="M 380.310909 302.374833 
L 383.795364 302.374833 
L 383.795364 276.456041 
L 380.310909 276.456041 
z
" style="fill:#1f77b4;"/>
   </g>
   <g id="patch_89">
    <path clip-path="url(#pdf308b7153)" d="M 383.795364 302.374833 
L 387.279818 302.374833 
L 387.279818 271.836851 
L 383.795364 271.836851 
z
" style="fill:#1f77b4;"/>
   </g>
   <g id="patch_90">
    <path clip-path="url(#pdf308b7153)" d="M 387.279818 302.374833 
L 390.764273 302.374833 
L 390.764273 274.018135 
L 387.279818 274.018135 
z
" style="fill:#1f77b4;"/>
   </g>
   <g id="patch_91">
    <path clip-path="url(#pdf308b7153)" d="M 390.764273 302.374833 
L 394.248727 302.374833 
L 394.248727 274.788 
L 390.764273 274.788 
z
" style="fill:#1f77b4;"/>
   </g>
   <g id="patch_92">
    <path clip-path="url(#pdf308b7153)" d="M 394.248727 302.374833 
L 397.733182 302.374833 
L 397.733182 284.924558 
L 394.248727 284.924558 
z
" style="fill:#1f77b4;"/>
   </g>
   <g id="patch_93">
    <path clip-path="url(#pdf308b7153)" d="M 397.733182 302.374833 
L 401.217636 302.374833 
L 401.217636 285.052868 
L 397.733182 285.052868 
z
" style="fill:#1f77b4;"/>
   </g>
   <g id="patch_94">
    <path clip-path="url(#pdf308b7153)" d="M 401.217636 302.374833 
L 404.702091 302.374833 
L 404.702091 291.3401 
L 401.217636 291.3401 
z
" style="fill:#1f77b4;"/>
   </g>
   <g id="patch_95">
    <path clip-path="url(#pdf308b7153)" d="M 404.702091 302.374833 
L 408.186545 302.374833 
L 408.186545 293.136452 
L 404.702091 293.136452 
z
" style="fill:#1f77b4;"/>
   </g>
   <g id="patch_96">
    <path clip-path="url(#pdf308b7153)" d="M 408.186545 302.374833 
L 411.671 302.374833 
L 411.671 292.87983 
L 408.186545 292.87983 
z
" style="fill:#1f77b4;"/>
   </g>
   <g id="patch_97">
    <path clip-path="url(#pdf308b7153)" d="M 411.671 302.374833 
L 415.155455 302.374833 
L 415.155455 298.140575 
L 411.671 298.140575 
z
" style="fill:#1f77b4;"/>
   </g>
   <g id="patch_98">
    <path clip-path="url(#pdf308b7153)" d="M 415.155455 302.374833 
L 418.639909 302.374833 
L 418.639909 300.450171 
L 415.155455 300.450171 
z
" style="fill:#1f77b4;"/>
   </g>
   <g id="patch_99">
    <path clip-path="url(#pdf308b7153)" d="M 418.639909 302.374833 
L 422.124364 302.374833 
L 422.124364 300.578481 
L 418.639909 300.578481 
z
" style="fill:#1f77b4;"/>
   </g>
   <g id="patch_100">
    <path clip-path="url(#pdf308b7153)" d="M 422.124364 302.374833 
L 425.608818 302.374833 
L 425.608818 300.193549 
L 422.124364 300.193549 
z
" style="fill:#1f77b4;"/>
   </g>
   <g id="patch_101">
    <path clip-path="url(#pdf308b7153)" d="M 425.608818 302.374833 
L 429.093273 302.374833 
L 429.093273 294.419561 
L 425.608818 294.419561 
z
" style="fill:#1f77b4;"/>
   </g>
   <g id="patch_102">
    <path clip-path="url(#pdf308b7153)" d="M 429.093273 302.374833 
L 432.577727 302.374833 
L 432.577727 297.883954 
L 429.093273 297.883954 
z
" style="fill:#1f77b4;"/>
   </g>
   <g id="matplotlib.axis_1">
    <g id="xtick_1">
     <g id="line2d_1">
      <defs>
       <path d="M 0 0 
L 0 3.5 
" id="mbc6dfc67c8" style="stroke:#000000;stroke-width:0.8;"/>
      </defs>
      <g>
       <use style="stroke:#000000;stroke-width:0.8;" x="101.7646" xlink:href="#mbc6dfc67c8" y="302.374833"/>
      </g>
     </g>
     <g id="text_1">
      <!-- 100 -->
      <defs>
       <path d="M 12.40625 8.296875 
L 28.515625 8.296875 
L 28.515625 63.921875 
L 10.984375 60.40625 
L 10.984375 69.390625 
L 28.421875 72.90625 
L 38.28125 72.90625 
L 38.28125 8.296875 
L 54.390625 8.296875 
L 54.390625 0 
L 12.40625 0 
z
" id="DejaVuSans-49"/>
       <path d="M 31.78125 66.40625 
Q 24.171875 66.40625 20.328125 58.90625 
Q 16.5 51.421875 16.5 36.375 
Q 16.5 21.390625 20.328125 13.890625 
Q 24.171875 6.390625 31.78125 6.390625 
Q 39.453125 6.390625 43.28125 13.890625 
Q 47.125 21.390625 47.125 36.375 
Q 47.125 51.421875 43.28125 58.90625 
Q 39.453125 66.40625 31.78125 66.40625 
z
M 31.78125 74.21875 
Q 44.046875 74.21875 50.515625 64.515625 
Q 56.984375 54.828125 56.984375 36.375 
Q 56.984375 17.96875 50.515625 8.265625 
Q 44.046875 -1.421875 31.78125 -1.421875 
Q 19.53125 -1.421875 13.0625 8.265625 
Q 6.59375 17.96875 6.59375 36.375 
Q 6.59375 54.828125 13.0625 64.515625 
Q 19.53125 74.21875 31.78125 74.21875 
z
" id="DejaVuSans-48"/>
      </defs>
      <g transform="translate(92.22085 316.973271)scale(0.1 -0.1)">
       <use xlink:href="#DejaVuSans-49"/>
       <use x="63.623047" xlink:href="#DejaVuSans-48"/>
       <use x="127.246094" xlink:href="#DejaVuSans-48"/>
      </g>
     </g>
    </g>
    <g id="xtick_2">
     <g id="line2d_2">
      <g>
       <use style="stroke:#000000;stroke-width:0.8;" x="163.094435" xlink:href="#mbc6dfc67c8" y="302.374833"/>
      </g>
     </g>
     <g id="text_2">
      <!-- 120 -->
      <defs>
       <path d="M 19.1875 8.296875 
L 53.609375 8.296875 
L 53.609375 0 
L 7.328125 0 
L 7.328125 8.296875 
Q 12.9375 14.109375 22.625 23.890625 
Q 32.328125 33.6875 34.8125 36.53125 
Q 39.546875 41.84375 41.421875 45.53125 
Q 43.3125 49.21875 43.3125 52.78125 
Q 43.3125 58.59375 39.234375 62.25 
Q 35.15625 65.921875 28.609375 65.921875 
Q 23.96875 65.921875 18.8125 64.3125 
Q 13.671875 62.703125 7.8125 59.421875 
L 7.8125 69.390625 
Q 13.765625 71.78125 18.9375 73 
Q 24.125 74.21875 28.421875 74.21875 
Q 39.75 74.21875 46.484375 68.546875 
Q 53.21875 62.890625 53.21875 53.421875 
Q 53.21875 48.921875 51.53125 44.890625 
Q 49.859375 40.875 45.40625 35.40625 
Q 44.1875 33.984375 37.640625 27.21875 
Q 31.109375 20.453125 19.1875 8.296875 
z
" id="DejaVuSans-50"/>
      </defs>
      <g transform="translate(153.550685 316.973271)scale(0.1 -0.1)">
       <use xlink:href="#DejaVuSans-49"/>
       <use x="63.623047" xlink:href="#DejaVuSans-50"/>
       <use x="127.246094" xlink:href="#DejaVuSans-48"/>
      </g>
     </g>
    </g>
    <g id="xtick_3">
     <g id="line2d_3">
      <g>
       <use style="stroke:#000000;stroke-width:0.8;" x="224.424269" xlink:href="#mbc6dfc67c8" y="302.374833"/>
      </g>
     </g>
     <g id="text_3">
      <!-- 140 -->
      <defs>
       <path d="M 37.796875 64.3125 
L 12.890625 25.390625 
L 37.796875 25.390625 
z
M 35.203125 72.90625 
L 47.609375 72.90625 
L 47.609375 25.390625 
L 58.015625 25.390625 
L 58.015625 17.1875 
L 47.609375 17.1875 
L 47.609375 0 
L 37.796875 0 
L 37.796875 17.1875 
L 4.890625 17.1875 
L 4.890625 26.703125 
z
" id="DejaVuSans-52"/>
      </defs>
      <g transform="translate(214.880519 316.973271)scale(0.1 -0.1)">
       <use xlink:href="#DejaVuSans-49"/>
       <use x="63.623047" xlink:href="#DejaVuSans-52"/>
       <use x="127.246094" xlink:href="#DejaVuSans-48"/>
      </g>
     </g>
    </g>
    <g id="xtick_4">
     <g id="line2d_4">
      <g>
       <use style="stroke:#000000;stroke-width:0.8;" x="285.754104" xlink:href="#mbc6dfc67c8" y="302.374833"/>
      </g>
     </g>
     <g id="text_4">
      <!-- 160 -->
      <defs>
       <path d="M 33.015625 40.375 
Q 26.375 40.375 22.484375 35.828125 
Q 18.609375 31.296875 18.609375 23.390625 
Q 18.609375 15.53125 22.484375 10.953125 
Q 26.375 6.390625 33.015625 6.390625 
Q 39.65625 6.390625 43.53125 10.953125 
Q 47.40625 15.53125 47.40625 23.390625 
Q 47.40625 31.296875 43.53125 35.828125 
Q 39.65625 40.375 33.015625 40.375 
z
M 52.59375 71.296875 
L 52.59375 62.3125 
Q 48.875 64.0625 45.09375 64.984375 
Q 41.3125 65.921875 37.59375 65.921875 
Q 27.828125 65.921875 22.671875 59.328125 
Q 17.53125 52.734375 16.796875 39.40625 
Q 19.671875 43.65625 24.015625 45.921875 
Q 28.375 48.1875 33.59375 48.1875 
Q 44.578125 48.1875 50.953125 41.515625 
Q 57.328125 34.859375 57.328125 23.390625 
Q 57.328125 12.15625 50.6875 5.359375 
Q 44.046875 -1.421875 33.015625 -1.421875 
Q 20.359375 -1.421875 13.671875 8.265625 
Q 6.984375 17.96875 6.984375 36.375 
Q 6.984375 53.65625 15.1875 63.9375 
Q 23.390625 74.21875 37.203125 74.21875 
Q 40.921875 74.21875 44.703125 73.484375 
Q 48.484375 72.75 52.59375 71.296875 
z
" id="DejaVuSans-54"/>
      </defs>
      <g transform="translate(276.210354 316.973271)scale(0.1 -0.1)">
       <use xlink:href="#DejaVuSans-49"/>
       <use x="63.623047" xlink:href="#DejaVuSans-54"/>
       <use x="127.246094" xlink:href="#DejaVuSans-48"/>
      </g>
     </g>
    </g>
    <g id="xtick_5">
     <g id="line2d_5">
      <g>
       <use style="stroke:#000000;stroke-width:0.8;" x="347.083938" xlink:href="#mbc6dfc67c8" y="302.374833"/>
      </g>
     </g>
     <g id="text_5">
      <!-- 180 -->
      <defs>
       <path d="M 31.78125 34.625 
Q 24.75 34.625 20.71875 30.859375 
Q 16.703125 27.09375 16.703125 20.515625 
Q 16.703125 13.921875 20.71875 10.15625 
Q 24.75 6.390625 31.78125 6.390625 
Q 38.8125 6.390625 42.859375 10.171875 
Q 46.921875 13.96875 46.921875 20.515625 
Q 46.921875 27.09375 42.890625 30.859375 
Q 38.875 34.625 31.78125 34.625 
z
M 21.921875 38.8125 
Q 15.578125 40.375 12.03125 44.71875 
Q 8.5 49.078125 8.5 55.328125 
Q 8.5 64.0625 14.71875 69.140625 
Q 20.953125 74.21875 31.78125 74.21875 
Q 42.671875 74.21875 48.875 69.140625 
Q 55.078125 64.0625 55.078125 55.328125 
Q 55.078125 49.078125 51.53125 44.71875 
Q 48 40.375 41.703125 38.8125 
Q 48.828125 37.15625 52.796875 32.3125 
Q 56.78125 27.484375 56.78125 20.515625 
Q 56.78125 9.90625 50.3125 4.234375 
Q 43.84375 -1.421875 31.78125 -1.421875 
Q 19.734375 -1.421875 13.25 4.234375 
Q 6.78125 9.90625 6.78125 20.515625 
Q 6.78125 27.484375 10.78125 32.3125 
Q 14.796875 37.15625 21.921875 38.8125 
z
M 18.3125 54.390625 
Q 18.3125 48.734375 21.84375 45.5625 
Q 25.390625 42.390625 31.78125 42.390625 
Q 38.140625 42.390625 41.71875 45.5625 
Q 45.3125 48.734375 45.3125 54.390625 
Q 45.3125 60.0625 41.71875 63.234375 
Q 38.140625 66.40625 31.78125 66.40625 
Q 25.390625 66.40625 21.84375 63.234375 
Q 18.3125 60.0625 18.3125 54.390625 
z
" id="DejaVuSans-56"/>
      </defs>
      <g transform="translate(337.540188 316.973271)scale(0.1 -0.1)">
       <use xlink:href="#DejaVuSans-49"/>
       <use x="63.623047" xlink:href="#DejaVuSans-56"/>
       <use x="127.246094" xlink:href="#DejaVuSans-48"/>
      </g>
     </g>
    </g>
    <g id="xtick_6">
     <g id="line2d_6">
      <g>
       <use style="stroke:#000000;stroke-width:0.8;" x="408.413772" xlink:href="#mbc6dfc67c8" y="302.374833"/>
      </g>
     </g>
     <g id="text_6">
      <!-- 200 -->
      <g transform="translate(398.870022 316.973271)scale(0.1 -0.1)">
       <use xlink:href="#DejaVuSans-50"/>
       <use x="63.623047" xlink:href="#DejaVuSans-48"/>
       <use x="127.246094" xlink:href="#DejaVuSans-48"/>
      </g>
     </g>
    </g>
    <g id="text_7">
     <!-- Muestras -->
     <defs>
      <path d="M 9.8125 72.90625 
L 24.515625 72.90625 
L 43.109375 23.296875 
L 61.8125 72.90625 
L 76.515625 72.90625 
L 76.515625 0 
L 66.890625 0 
L 66.890625 64.015625 
L 48.09375 14.015625 
L 38.1875 14.015625 
L 19.390625 64.015625 
L 19.390625 0 
L 9.8125 0 
z
" id="DejaVuSans-77"/>
      <path d="M 8.5 21.578125 
L 8.5 54.6875 
L 17.484375 54.6875 
L 17.484375 21.921875 
Q 17.484375 14.15625 20.5 10.265625 
Q 23.53125 6.390625 29.59375 6.390625 
Q 36.859375 6.390625 41.078125 11.03125 
Q 45.3125 15.671875 45.3125 23.6875 
L 45.3125 54.6875 
L 54.296875 54.6875 
L 54.296875 0 
L 45.3125 0 
L 45.3125 8.40625 
Q 42.046875 3.421875 37.71875 1 
Q 33.40625 -1.421875 27.6875 -1.421875 
Q 18.265625 -1.421875 13.375 4.4375 
Q 8.5 10.296875 8.5 21.578125 
z
M 31.109375 56 
z
" id="DejaVuSans-117"/>
      <path d="M 56.203125 29.59375 
L 56.203125 25.203125 
L 14.890625 25.203125 
Q 15.484375 15.921875 20.484375 11.0625 
Q 25.484375 6.203125 34.421875 6.203125 
Q 39.59375 6.203125 44.453125 7.46875 
Q 49.3125 8.734375 54.109375 11.28125 
L 54.109375 2.78125 
Q 49.265625 0.734375 44.1875 -0.34375 
Q 39.109375 -1.421875 33.890625 -1.421875 
Q 20.796875 -1.421875 13.15625 6.1875 
Q 5.515625 13.8125 5.515625 26.8125 
Q 5.515625 40.234375 12.765625 48.109375 
Q 20.015625 56 32.328125 56 
Q 43.359375 56 49.78125 48.890625 
Q 56.203125 41.796875 56.203125 29.59375 
z
M 47.21875 32.234375 
Q 47.125 39.59375 43.09375 43.984375 
Q 39.0625 48.390625 32.421875 48.390625 
Q 24.90625 48.390625 20.390625 44.140625 
Q 15.875 39.890625 15.1875 32.171875 
z
" id="DejaVuSans-101"/>
      <path d="M 44.28125 53.078125 
L 44.28125 44.578125 
Q 40.484375 46.53125 36.375 47.5 
Q 32.28125 48.484375 27.875 48.484375 
Q 21.1875 48.484375 17.84375 46.4375 
Q 14.5 44.390625 14.5 40.28125 
Q 14.5 37.15625 16.890625 35.375 
Q 19.28125 33.59375 26.515625 31.984375 
L 29.59375 31.296875 
Q 39.15625 29.25 43.1875 25.515625 
Q 47.21875 21.78125 47.21875 15.09375 
Q 47.21875 7.46875 41.1875 3.015625 
Q 35.15625 -1.421875 24.609375 -1.421875 
Q 20.21875 -1.421875 15.453125 -0.5625 
Q 10.6875 0.296875 5.421875 2 
L 5.421875 11.28125 
Q 10.40625 8.6875 15.234375 7.390625 
Q 20.0625 6.109375 24.8125 6.109375 
Q 31.15625 6.109375 34.5625 8.28125 
Q 37.984375 10.453125 37.984375 14.40625 
Q 37.984375 18.0625 35.515625 20.015625 
Q 33.0625 21.96875 24.703125 23.78125 
L 21.578125 24.515625 
Q 13.234375 26.265625 9.515625 29.90625 
Q 5.8125 33.546875 5.8125 39.890625 
Q 5.8125 47.609375 11.28125 51.796875 
Q 16.75 56 26.8125 56 
Q 31.78125 56 36.171875 55.265625 
Q 40.578125 54.546875 44.28125 53.078125 
z
" id="DejaVuSans-115"/>
      <path d="M 18.3125 70.21875 
L 18.3125 54.6875 
L 36.8125 54.6875 
L 36.8125 47.703125 
L 18.3125 47.703125 
L 18.3125 18.015625 
Q 18.3125 11.328125 20.140625 9.421875 
Q 21.96875 7.515625 27.59375 7.515625 
L 36.8125 7.515625 
L 36.8125 0 
L 27.59375 0 
Q 17.1875 0 13.234375 3.875 
Q 9.28125 7.765625 9.28125 18.015625 
L 9.28125 47.703125 
L 2.6875 47.703125 
L 2.6875 54.6875 
L 9.28125 54.6875 
L 9.28125 70.21875 
z
" id="DejaVuSans-116"/>
      <path d="M 41.109375 46.296875 
Q 39.59375 47.171875 37.8125 47.578125 
Q 36.03125 48 33.890625 48 
Q 26.265625 48 22.1875 43.046875 
Q 18.109375 38.09375 18.109375 28.8125 
L 18.109375 0 
L 9.078125 0 
L 9.078125 54.6875 
L 18.109375 54.6875 
L 18.109375 46.1875 
Q 20.953125 51.171875 25.484375 53.578125 
Q 30.03125 56 36.53125 56 
Q 37.453125 56 38.578125 55.875 
Q 39.703125 55.765625 41.0625 55.515625 
z
" id="DejaVuSans-114"/>
      <path d="M 34.28125 27.484375 
Q 23.390625 27.484375 19.1875 25 
Q 14.984375 22.515625 14.984375 16.5 
Q 14.984375 11.71875 18.140625 8.90625 
Q 21.296875 6.109375 26.703125 6.109375 
Q 34.1875 6.109375 38.703125 11.40625 
Q 43.21875 16.703125 43.21875 25.484375 
L 43.21875 27.484375 
z
M 52.203125 31.203125 
L 52.203125 0 
L 43.21875 0 
L 43.21875 8.296875 
Q 40.140625 3.328125 35.546875 0.953125 
Q 30.953125 -1.421875 24.3125 -1.421875 
Q 15.921875 -1.421875 10.953125 3.296875 
Q 6 8.015625 6 15.921875 
Q 6 25.140625 12.171875 29.828125 
Q 18.359375 34.515625 30.609375 34.515625 
L 43.21875 34.515625 
L 43.21875 35.40625 
Q 43.21875 41.609375 39.140625 45 
Q 35.0625 48.390625 27.6875 48.390625 
Q 23 48.390625 18.546875 47.265625 
Q 14.109375 46.140625 10.015625 43.890625 
L 10.015625 52.203125 
Q 14.9375 54.109375 19.578125 55.046875 
Q 24.21875 56 28.609375 56 
Q 40.484375 56 46.34375 49.84375 
Q 52.203125 43.703125 52.203125 31.203125 
z
" id="DejaVuSans-97"/>
     </defs>
     <g transform="translate(235.506563 330.651396)scale(0.1 -0.1)">
      <use xlink:href="#DejaVuSans-77"/>
      <use x="86.279297" xlink:href="#DejaVuSans-117"/>
      <use x="149.658203" xlink:href="#DejaVuSans-101"/>
      <use x="211.181641" xlink:href="#DejaVuSans-115"/>
      <use x="263.28125" xlink:href="#DejaVuSans-116"/>
      <use x="302.490234" xlink:href="#DejaVuSans-114"/>
      <use x="343.603516" xlink:href="#DejaVuSans-97"/>
      <use x="404.882812" xlink:href="#DejaVuSans-115"/>
     </g>
    </g>
   </g>
   <g id="matplotlib.axis_2">
    <g id="ytick_1">
     <g id="line2d_7">
      <defs>
       <path d="M 0 0 
L -3.5 0 
" id="mab85f0a021" style="stroke:#000000;stroke-width:0.8;"/>
      </defs>
      <g>
       <use style="stroke:#000000;stroke-width:0.8;" x="66.71" xlink:href="#mab85f0a021" y="302.374833"/>
      </g>
     </g>
     <g id="text_8">
      <!-- 0.0000 -->
      <defs>
       <path d="M 10.6875 12.40625 
L 21 12.40625 
L 21 0 
L 10.6875 0 
z
" id="DejaVuSans-46"/>
      </defs>
      <g transform="translate(24.719375 306.174052)scale(0.1 -0.1)">
       <use xlink:href="#DejaVuSans-48"/>
       <use x="63.623047" xlink:href="#DejaVuSans-46"/>
       <use x="95.410156" xlink:href="#DejaVuSans-48"/>
       <use x="159.033203" xlink:href="#DejaVuSans-48"/>
       <use x="222.65625" xlink:href="#DejaVuSans-48"/>
       <use x="286.279297" xlink:href="#DejaVuSans-48"/>
      </g>
     </g>
    </g>
    <g id="ytick_2">
     <g id="line2d_8">
      <g>
       <use style="stroke:#000000;stroke-width:0.8;" x="66.71" xlink:href="#mab85f0a021" y="270.882115"/>
      </g>
     </g>
     <g id="text_9">
      <!-- 0.0025 -->
      <defs>
       <path d="M 10.796875 72.90625 
L 49.515625 72.90625 
L 49.515625 64.59375 
L 19.828125 64.59375 
L 19.828125 46.734375 
Q 21.96875 47.46875 24.109375 47.828125 
Q 26.265625 48.1875 28.421875 48.1875 
Q 40.625 48.1875 47.75 41.5 
Q 54.890625 34.8125 54.890625 23.390625 
Q 54.890625 11.625 47.5625 5.09375 
Q 40.234375 -1.421875 26.90625 -1.421875 
Q 22.3125 -1.421875 17.546875 -0.640625 
Q 12.796875 0.140625 7.71875 1.703125 
L 7.71875 11.625 
Q 12.109375 9.234375 16.796875 8.0625 
Q 21.484375 6.890625 26.703125 6.890625 
Q 35.15625 6.890625 40.078125 11.328125 
Q 45.015625 15.765625 45.015625 23.390625 
Q 45.015625 31 40.078125 35.4375 
Q 35.15625 39.890625 26.703125 39.890625 
Q 22.75 39.890625 18.8125 39.015625 
Q 14.890625 38.140625 10.796875 36.28125 
z
" id="DejaVuSans-53"/>
      </defs>
      <g transform="translate(24.719375 274.681334)scale(0.1 -0.1)">
       <use xlink:href="#DejaVuSans-48"/>
       <use x="63.623047" xlink:href="#DejaVuSans-46"/>
       <use x="95.410156" xlink:href="#DejaVuSans-48"/>
       <use x="159.033203" xlink:href="#DejaVuSans-48"/>
       <use x="222.65625" xlink:href="#DejaVuSans-50"/>
       <use x="286.279297" xlink:href="#DejaVuSans-53"/>
      </g>
     </g>
    </g>
    <g id="ytick_3">
     <g id="line2d_9">
      <g>
       <use style="stroke:#000000;stroke-width:0.8;" x="66.71" xlink:href="#mab85f0a021" y="239.389397"/>
      </g>
     </g>
     <g id="text_10">
      <!-- 0.0050 -->
      <g transform="translate(24.719375 243.188616)scale(0.1 -0.1)">
       <use xlink:href="#DejaVuSans-48"/>
       <use x="63.623047" xlink:href="#DejaVuSans-46"/>
       <use x="95.410156" xlink:href="#DejaVuSans-48"/>
       <use x="159.033203" xlink:href="#DejaVuSans-48"/>
       <use x="222.65625" xlink:href="#DejaVuSans-53"/>
       <use x="286.279297" xlink:href="#DejaVuSans-48"/>
      </g>
     </g>
    </g>
    <g id="ytick_4">
     <g id="line2d_10">
      <g>
       <use style="stroke:#000000;stroke-width:0.8;" x="66.71" xlink:href="#mab85f0a021" y="207.89668"/>
      </g>
     </g>
     <g id="text_11">
      <!-- 0.0075 -->
      <defs>
       <path d="M 8.203125 72.90625 
L 55.078125 72.90625 
L 55.078125 68.703125 
L 28.609375 0 
L 18.3125 0 
L 43.21875 64.59375 
L 8.203125 64.59375 
z
" id="DejaVuSans-55"/>
      </defs>
      <g transform="translate(24.719375 211.695898)scale(0.1 -0.1)">
       <use xlink:href="#DejaVuSans-48"/>
       <use x="63.623047" xlink:href="#DejaVuSans-46"/>
       <use x="95.410156" xlink:href="#DejaVuSans-48"/>
       <use x="159.033203" xlink:href="#DejaVuSans-48"/>
       <use x="222.65625" xlink:href="#DejaVuSans-55"/>
       <use x="286.279297" xlink:href="#DejaVuSans-53"/>
      </g>
     </g>
    </g>
    <g id="ytick_5">
     <g id="line2d_11">
      <g>
       <use style="stroke:#000000;stroke-width:0.8;" x="66.71" xlink:href="#mab85f0a021" y="176.403962"/>
      </g>
     </g>
     <g id="text_12">
      <!-- 0.0100 -->
      <g transform="translate(24.719375 180.20318)scale(0.1 -0.1)">
       <use xlink:href="#DejaVuSans-48"/>
       <use x="63.623047" xlink:href="#DejaVuSans-46"/>
       <use x="95.410156" xlink:href="#DejaVuSans-48"/>
       <use x="159.033203" xlink:href="#DejaVuSans-49"/>
       <use x="222.65625" xlink:href="#DejaVuSans-48"/>
       <use x="286.279297" xlink:href="#DejaVuSans-48"/>
      </g>
     </g>
    </g>
    <g id="ytick_6">
     <g id="line2d_12">
      <g>
       <use style="stroke:#000000;stroke-width:0.8;" x="66.71" xlink:href="#mab85f0a021" y="144.911244"/>
      </g>
     </g>
     <g id="text_13">
      <!-- 0.0125 -->
      <g transform="translate(24.719375 148.710462)scale(0.1 -0.1)">
       <use xlink:href="#DejaVuSans-48"/>
       <use x="63.623047" xlink:href="#DejaVuSans-46"/>
       <use x="95.410156" xlink:href="#DejaVuSans-48"/>
       <use x="159.033203" xlink:href="#DejaVuSans-49"/>
       <use x="222.65625" xlink:href="#DejaVuSans-50"/>
       <use x="286.279297" xlink:href="#DejaVuSans-53"/>
      </g>
     </g>
    </g>
    <g id="ytick_7">
     <g id="line2d_13">
      <g>
       <use style="stroke:#000000;stroke-width:0.8;" x="66.71" xlink:href="#mab85f0a021" y="113.418526"/>
      </g>
     </g>
     <g id="text_14">
      <!-- 0.0150 -->
      <g transform="translate(24.719375 117.217744)scale(0.1 -0.1)">
       <use xlink:href="#DejaVuSans-48"/>
       <use x="63.623047" xlink:href="#DejaVuSans-46"/>
       <use x="95.410156" xlink:href="#DejaVuSans-48"/>
       <use x="159.033203" xlink:href="#DejaVuSans-49"/>
       <use x="222.65625" xlink:href="#DejaVuSans-53"/>
       <use x="286.279297" xlink:href="#DejaVuSans-48"/>
      </g>
     </g>
    </g>
    <g id="ytick_8">
     <g id="line2d_14">
      <g>
       <use style="stroke:#000000;stroke-width:0.8;" x="66.71" xlink:href="#mab85f0a021" y="81.925808"/>
      </g>
     </g>
     <g id="text_15">
      <!-- 0.0175 -->
      <g transform="translate(24.719375 85.725027)scale(0.1 -0.1)">
       <use xlink:href="#DejaVuSans-48"/>
       <use x="63.623047" xlink:href="#DejaVuSans-46"/>
       <use x="95.410156" xlink:href="#DejaVuSans-48"/>
       <use x="159.033203" xlink:href="#DejaVuSans-49"/>
       <use x="222.65625" xlink:href="#DejaVuSans-55"/>
       <use x="286.279297" xlink:href="#DejaVuSans-53"/>
      </g>
     </g>
    </g>
    <g id="ytick_9">
     <g id="line2d_15">
      <g>
       <use style="stroke:#000000;stroke-width:0.8;" x="66.71" xlink:href="#mab85f0a021" y="50.43309"/>
      </g>
     </g>
     <g id="text_16">
      <!-- 0.0200 -->
      <g transform="translate(24.719375 54.232309)scale(0.1 -0.1)">
       <use xlink:href="#DejaVuSans-48"/>
       <use x="63.623047" xlink:href="#DejaVuSans-46"/>
       <use x="95.410156" xlink:href="#DejaVuSans-48"/>
       <use x="159.033203" xlink:href="#DejaVuSans-50"/>
       <use x="222.65625" xlink:href="#DejaVuSans-48"/>
       <use x="286.279297" xlink:href="#DejaVuSans-48"/>
      </g>
     </g>
    </g>
    <g id="text_17">
     <!-- Densidad de probabilidad -->
     <defs>
      <path d="M 19.671875 64.796875 
L 19.671875 8.109375 
L 31.59375 8.109375 
Q 46.6875 8.109375 53.6875 14.9375 
Q 60.6875 21.78125 60.6875 36.53125 
Q 60.6875 51.171875 53.6875 57.984375 
Q 46.6875 64.796875 31.59375 64.796875 
z
M 9.8125 72.90625 
L 30.078125 72.90625 
Q 51.265625 72.90625 61.171875 64.09375 
Q 71.09375 55.28125 71.09375 36.53125 
Q 71.09375 17.671875 61.125 8.828125 
Q 51.171875 0 30.078125 0 
L 9.8125 0 
z
" id="DejaVuSans-68"/>
      <path d="M 54.890625 33.015625 
L 54.890625 0 
L 45.90625 0 
L 45.90625 32.71875 
Q 45.90625 40.484375 42.875 44.328125 
Q 39.84375 48.1875 33.796875 48.1875 
Q 26.515625 48.1875 22.3125 43.546875 
Q 18.109375 38.921875 18.109375 30.90625 
L 18.109375 0 
L 9.078125 0 
L 9.078125 54.6875 
L 18.109375 54.6875 
L 18.109375 46.1875 
Q 21.34375 51.125 25.703125 53.5625 
Q 30.078125 56 35.796875 56 
Q 45.21875 56 50.046875 50.171875 
Q 54.890625 44.34375 54.890625 33.015625 
z
" id="DejaVuSans-110"/>
      <path d="M 9.421875 54.6875 
L 18.40625 54.6875 
L 18.40625 0 
L 9.421875 0 
z
M 9.421875 75.984375 
L 18.40625 75.984375 
L 18.40625 64.59375 
L 9.421875 64.59375 
z
" id="DejaVuSans-105"/>
      <path d="M 45.40625 46.390625 
L 45.40625 75.984375 
L 54.390625 75.984375 
L 54.390625 0 
L 45.40625 0 
L 45.40625 8.203125 
Q 42.578125 3.328125 38.25 0.953125 
Q 33.9375 -1.421875 27.875 -1.421875 
Q 17.96875 -1.421875 11.734375 6.484375 
Q 5.515625 14.40625 5.515625 27.296875 
Q 5.515625 40.1875 11.734375 48.09375 
Q 17.96875 56 27.875 56 
Q 33.9375 56 38.25 53.625 
Q 42.578125 51.265625 45.40625 46.390625 
z
M 14.796875 27.296875 
Q 14.796875 17.390625 18.875 11.75 
Q 22.953125 6.109375 30.078125 6.109375 
Q 37.203125 6.109375 41.296875 11.75 
Q 45.40625 17.390625 45.40625 27.296875 
Q 45.40625 37.203125 41.296875 42.84375 
Q 37.203125 48.484375 30.078125 48.484375 
Q 22.953125 48.484375 18.875 42.84375 
Q 14.796875 37.203125 14.796875 27.296875 
z
" id="DejaVuSans-100"/>
      <path id="DejaVuSans-32"/>
      <path d="M 18.109375 8.203125 
L 18.109375 -20.796875 
L 9.078125 -20.796875 
L 9.078125 54.6875 
L 18.109375 54.6875 
L 18.109375 46.390625 
Q 20.953125 51.265625 25.265625 53.625 
Q 29.59375 56 35.59375 56 
Q 45.5625 56 51.78125 48.09375 
Q 58.015625 40.1875 58.015625 27.296875 
Q 58.015625 14.40625 51.78125 6.484375 
Q 45.5625 -1.421875 35.59375 -1.421875 
Q 29.59375 -1.421875 25.265625 0.953125 
Q 20.953125 3.328125 18.109375 8.203125 
z
M 48.6875 27.296875 
Q 48.6875 37.203125 44.609375 42.84375 
Q 40.53125 48.484375 33.40625 48.484375 
Q 26.265625 48.484375 22.1875 42.84375 
Q 18.109375 37.203125 18.109375 27.296875 
Q 18.109375 17.390625 22.1875 11.75 
Q 26.265625 6.109375 33.40625 6.109375 
Q 40.53125 6.109375 44.609375 11.75 
Q 48.6875 17.390625 48.6875 27.296875 
z
" id="DejaVuSans-112"/>
      <path d="M 30.609375 48.390625 
Q 23.390625 48.390625 19.1875 42.75 
Q 14.984375 37.109375 14.984375 27.296875 
Q 14.984375 17.484375 19.15625 11.84375 
Q 23.34375 6.203125 30.609375 6.203125 
Q 37.796875 6.203125 41.984375 11.859375 
Q 46.1875 17.53125 46.1875 27.296875 
Q 46.1875 37.015625 41.984375 42.703125 
Q 37.796875 48.390625 30.609375 48.390625 
z
M 30.609375 56 
Q 42.328125 56 49.015625 48.375 
Q 55.71875 40.765625 55.71875 27.296875 
Q 55.71875 13.875 49.015625 6.21875 
Q 42.328125 -1.421875 30.609375 -1.421875 
Q 18.84375 -1.421875 12.171875 6.21875 
Q 5.515625 13.875 5.515625 27.296875 
Q 5.515625 40.765625 12.171875 48.375 
Q 18.84375 56 30.609375 56 
z
" id="DejaVuSans-111"/>
      <path d="M 48.6875 27.296875 
Q 48.6875 37.203125 44.609375 42.84375 
Q 40.53125 48.484375 33.40625 48.484375 
Q 26.265625 48.484375 22.1875 42.84375 
Q 18.109375 37.203125 18.109375 27.296875 
Q 18.109375 17.390625 22.1875 11.75 
Q 26.265625 6.109375 33.40625 6.109375 
Q 40.53125 6.109375 44.609375 11.75 
Q 48.6875 17.390625 48.6875 27.296875 
z
M 18.109375 46.390625 
Q 20.953125 51.265625 25.265625 53.625 
Q 29.59375 56 35.59375 56 
Q 45.5625 56 51.78125 48.09375 
Q 58.015625 40.1875 58.015625 27.296875 
Q 58.015625 14.40625 51.78125 6.484375 
Q 45.5625 -1.421875 35.59375 -1.421875 
Q 29.59375 -1.421875 25.265625 0.953125 
Q 20.953125 3.328125 18.109375 8.203125 
L 18.109375 0 
L 9.078125 0 
L 9.078125 75.984375 
L 18.109375 75.984375 
z
" id="DejaVuSans-98"/>
      <path d="M 9.421875 75.984375 
L 18.40625 75.984375 
L 18.40625 0 
L 9.421875 0 
z
" id="DejaVuSans-108"/>
     </defs>
     <g transform="translate(18.639688 228.423073)rotate(-90)scale(0.1 -0.1)">
      <use xlink:href="#DejaVuSans-68"/>
      <use x="77.001953" xlink:href="#DejaVuSans-101"/>
      <use x="138.525391" xlink:href="#DejaVuSans-110"/>
      <use x="201.904297" xlink:href="#DejaVuSans-115"/>
      <use x="254.003906" xlink:href="#DejaVuSans-105"/>
      <use x="281.787109" xlink:href="#DejaVuSans-100"/>
      <use x="345.263672" xlink:href="#DejaVuSans-97"/>
      <use x="406.542969" xlink:href="#DejaVuSans-100"/>
      <use x="470.019531" xlink:href="#DejaVuSans-32"/>
      <use x="501.806641" xlink:href="#DejaVuSans-100"/>
      <use x="565.283203" xlink:href="#DejaVuSans-101"/>
      <use x="626.806641" xlink:href="#DejaVuSans-32"/>
      <use x="658.59375" xlink:href="#DejaVuSans-112"/>
      <use x="722.070312" xlink:href="#DejaVuSans-114"/>
      <use x="763.152344" xlink:href="#DejaVuSans-111"/>
      <use x="824.333984" xlink:href="#DejaVuSans-98"/>
      <use x="887.810547" xlink:href="#DejaVuSans-97"/>
      <use x="949.089844" xlink:href="#DejaVuSans-98"/>
      <use x="1012.566406" xlink:href="#DejaVuSans-105"/>
      <use x="1040.349609" xlink:href="#DejaVuSans-108"/>
      <use x="1068.132812" xlink:href="#DejaVuSans-105"/>
      <use x="1095.916016" xlink:href="#DejaVuSans-100"/>
      <use x="1159.392578" xlink:href="#DejaVuSans-97"/>
      <use x="1220.671875" xlink:href="#DejaVuSans-100"/>
     </g>
    </g>
   </g>
   <g id="line2d_16">
    <path clip-path="url(#pdf308b7153)" d="M 84.132273 248.564915 
L 87.616727 244.310568 
L 91.101182 239.85792 
L 94.585636 235.212138 
L 98.070091 230.380106 
L 101.554545 225.370482 
L 105.039 220.193755 
L 108.523455 214.862272 
L 112.007909 209.390251 
L 115.492364 203.793771 
L 118.976818 198.090749 
L 122.461273 192.30088 
L 125.945727 186.445566 
L 129.430182 180.547816 
L 132.914636 174.632124 
L 136.399091 168.724321 
L 139.883545 162.851409 
L 143.368 157.041371 
L 146.852455 151.322964 
L 150.336909 145.725488 
L 153.821364 140.278551 
L 157.305818 135.011807 
L 160.790273 129.954699 
L 164.274727 125.136185 
L 167.759182 120.584463 
L 171.243636 116.326702 
L 174.728091 112.38877 
L 178.212545 108.794975 
L 181.697 105.567814 
L 185.181455 102.727738 
L 188.665909 100.292941 
L 192.150364 98.279161 
L 195.634818 96.699511 
L 199.119273 95.56434 
L 202.603727 94.881118 
L 206.088182 94.654353 
L 209.572636 94.885545 
L 213.057091 95.573165 
L 216.541545 96.712676 
L 220.026 98.296579 
L 223.510455 100.314499 
L 226.994909 102.753296 
L 230.479364 105.597207 
L 233.963818 108.828016 
L 237.448273 112.425251 
L 240.932727 116.366395 
L 244.417182 120.627126 
L 247.901636 125.18156 
L 251.386091 130.002519 
L 254.870545 135.061794 
L 258.355 140.330423 
L 261.839455 145.778958 
L 265.323909 151.377745 
L 268.808364 157.097179 
L 272.292818 162.907961 
L 275.777273 168.781343 
L 279.261727 174.68935 
L 282.746182 180.604991 
L 286.230636 186.502445 
L 289.715091 192.357233 
L 293.199545 198.146362 
L 296.684 203.848445 
L 300.168455 209.443804 
L 303.652909 214.91454 
L 307.137364 220.244591 
L 310.621818 225.419758 
L 314.106273 230.427711 
L 317.590727 235.257981 
L 321.075182 239.901924 
L 324.559636 244.352677 
L 328.044091 248.605085 
L 331.528545 252.655634 
L 335.013 256.502351 
L 338.497455 260.144709 
L 341.981909 263.583522 
L 345.466364 266.820825 
L 348.950818 269.859766 
L 352.435273 272.704478 
L 355.919727 275.359967 
L 359.404182 277.831989 
L 362.888636 280.126937 
L 366.373091 282.251727 
L 369.857545 284.213695 
L 373.342 286.02049 
L 376.826455 287.679984 
L 380.310909 289.20018 
L 383.795364 290.589138 
L 387.279818 291.854894 
L 390.764273 293.005402 
L 394.248727 294.048472 
L 397.733182 294.991725 
L 401.217636 295.842547 
L 404.702091 296.608056 
L 408.186545 297.295073 
L 411.671 297.910104 
L 415.155455 298.459316 
L 418.639909 298.948536 
L 422.124364 299.383237 
L 425.608818 299.768542 
L 429.093273 300.109225 
L 432.577727 300.409714 
" style="fill:none;stroke:#ff7f0e;stroke-dasharray:5.55,2.4;stroke-dashoffset:0;stroke-width:1.5;"/>
   </g>
   <g id="patch_103">
    <path d="M 66.71 302.374833 
L 66.71 26.051 
" style="fill:none;stroke:#000000;stroke-linecap:square;stroke-linejoin:miter;stroke-width:0.8;"/>
   </g>
   <g id="patch_104">
    <path d="M 450 302.374833 
L 450 26.051 
" style="fill:none;stroke:#000000;stroke-linecap:square;stroke-linejoin:miter;stroke-width:0.8;"/>
   </g>
   <g id="patch_105">
    <path d="M 66.71 302.374833 
L 450 302.374833 
" style="fill:none;stroke:#000000;stroke-linecap:square;stroke-linejoin:miter;stroke-width:0.8;"/>
   </g>
   <g id="patch_106">
    <path d="M 66.71 26.051 
L 450 26.051 
" style="fill:none;stroke:#000000;stroke-linecap:square;stroke-linejoin:miter;stroke-width:0.8;"/>
   </g>
   <g id="text_18">
    <!-- Histograma con función de ajuste para Ritmo Cardíaco -->
    <defs>
     <path d="M 9.8125 72.90625 
L 19.671875 72.90625 
L 19.671875 43.015625 
L 55.515625 43.015625 
L 55.515625 72.90625 
L 65.375 72.90625 
L 65.375 0 
L 55.515625 0 
L 55.515625 34.71875 
L 19.671875 34.71875 
L 19.671875 0 
L 9.8125 0 
z
" id="DejaVuSans-72"/>
     <path d="M 45.40625 27.984375 
Q 45.40625 37.75 41.375 43.109375 
Q 37.359375 48.484375 30.078125 48.484375 
Q 22.859375 48.484375 18.828125 43.109375 
Q 14.796875 37.75 14.796875 27.984375 
Q 14.796875 18.265625 18.828125 12.890625 
Q 22.859375 7.515625 30.078125 7.515625 
Q 37.359375 7.515625 41.375 12.890625 
Q 45.40625 18.265625 45.40625 27.984375 
z
M 54.390625 6.78125 
Q 54.390625 -7.171875 48.1875 -13.984375 
Q 42 -20.796875 29.203125 -20.796875 
Q 24.46875 -20.796875 20.265625 -20.09375 
Q 16.0625 -19.390625 12.109375 -17.921875 
L 12.109375 -9.1875 
Q 16.0625 -11.328125 19.921875 -12.34375 
Q 23.78125 -13.375 27.78125 -13.375 
Q 36.625 -13.375 41.015625 -8.765625 
Q 45.40625 -4.15625 45.40625 5.171875 
L 45.40625 9.625 
Q 42.625 4.78125 38.28125 2.390625 
Q 33.9375 0 27.875 0 
Q 17.828125 0 11.671875 7.65625 
Q 5.515625 15.328125 5.515625 27.984375 
Q 5.515625 40.671875 11.671875 48.328125 
Q 17.828125 56 27.875 56 
Q 33.9375 56 38.28125 53.609375 
Q 42.625 51.21875 45.40625 46.390625 
L 45.40625 54.6875 
L 54.390625 54.6875 
z
" id="DejaVuSans-103"/>
     <path d="M 52 44.1875 
Q 55.375 50.25 60.0625 53.125 
Q 64.75 56 71.09375 56 
Q 79.640625 56 84.28125 50.015625 
Q 88.921875 44.046875 88.921875 33.015625 
L 88.921875 0 
L 79.890625 0 
L 79.890625 32.71875 
Q 79.890625 40.578125 77.09375 44.375 
Q 74.3125 48.1875 68.609375 48.1875 
Q 61.625 48.1875 57.5625 43.546875 
Q 53.515625 38.921875 53.515625 30.90625 
L 53.515625 0 
L 44.484375 0 
L 44.484375 32.71875 
Q 44.484375 40.625 41.703125 44.40625 
Q 38.921875 48.1875 33.109375 48.1875 
Q 26.21875 48.1875 22.15625 43.53125 
Q 18.109375 38.875 18.109375 30.90625 
L 18.109375 0 
L 9.078125 0 
L 9.078125 54.6875 
L 18.109375 54.6875 
L 18.109375 46.1875 
Q 21.1875 51.21875 25.484375 53.609375 
Q 29.78125 56 35.6875 56 
Q 41.65625 56 45.828125 52.96875 
Q 50 49.953125 52 44.1875 
z
" id="DejaVuSans-109"/>
     <path d="M 48.78125 52.59375 
L 48.78125 44.1875 
Q 44.96875 46.296875 41.140625 47.34375 
Q 37.3125 48.390625 33.40625 48.390625 
Q 24.65625 48.390625 19.8125 42.84375 
Q 14.984375 37.3125 14.984375 27.296875 
Q 14.984375 17.28125 19.8125 11.734375 
Q 24.65625 6.203125 33.40625 6.203125 
Q 37.3125 6.203125 41.140625 7.25 
Q 44.96875 8.296875 48.78125 10.40625 
L 48.78125 2.09375 
Q 45.015625 0.34375 40.984375 -0.53125 
Q 36.96875 -1.421875 32.421875 -1.421875 
Q 20.0625 -1.421875 12.78125 6.34375 
Q 5.515625 14.109375 5.515625 27.296875 
Q 5.515625 40.671875 12.859375 48.328125 
Q 20.21875 56 33.015625 56 
Q 37.15625 56 41.109375 55.140625 
Q 45.0625 54.296875 48.78125 52.59375 
z
" id="DejaVuSans-99"/>
     <path d="M 37.109375 75.984375 
L 37.109375 68.5 
L 28.515625 68.5 
Q 23.6875 68.5 21.796875 66.546875 
Q 19.921875 64.59375 19.921875 59.515625 
L 19.921875 54.6875 
L 34.71875 54.6875 
L 34.71875 47.703125 
L 19.921875 47.703125 
L 19.921875 0 
L 10.890625 0 
L 10.890625 47.703125 
L 2.296875 47.703125 
L 2.296875 54.6875 
L 10.890625 54.6875 
L 10.890625 58.5 
Q 10.890625 67.625 15.140625 71.796875 
Q 19.390625 75.984375 28.609375 75.984375 
z
" id="DejaVuSans-102"/>
     <path d="M 30.609375 48.390625 
Q 23.390625 48.390625 19.1875 42.75 
Q 14.984375 37.109375 14.984375 27.296875 
Q 14.984375 17.484375 19.15625 11.84375 
Q 23.34375 6.203125 30.609375 6.203125 
Q 37.796875 6.203125 41.984375 11.859375 
Q 46.1875 17.53125 46.1875 27.296875 
Q 46.1875 37.015625 41.984375 42.703125 
Q 37.796875 48.390625 30.609375 48.390625 
z
M 30.609375 56 
Q 42.328125 56 49.015625 48.375 
Q 55.71875 40.765625 55.71875 27.296875 
Q 55.71875 13.875 49.015625 6.21875 
Q 42.328125 -1.421875 30.609375 -1.421875 
Q 18.84375 -1.421875 12.171875 6.21875 
Q 5.515625 13.875 5.515625 27.296875 
Q 5.515625 40.765625 12.171875 48.375 
Q 18.84375 56 30.609375 56 
z
M 37.40625 79.984375 
L 47.125 79.984375 
L 31.203125 61.625 
L 23.734375 61.625 
z
" id="DejaVuSans-243"/>
     <path d="M 9.421875 54.6875 
L 18.40625 54.6875 
L 18.40625 -0.984375 
Q 18.40625 -11.421875 14.421875 -16.109375 
Q 10.453125 -20.796875 1.609375 -20.796875 
L -1.8125 -20.796875 
L -1.8125 -13.1875 
L 0.59375 -13.1875 
Q 5.71875 -13.1875 7.5625 -10.8125 
Q 9.421875 -8.453125 9.421875 -0.984375 
z
M 9.421875 75.984375 
L 18.40625 75.984375 
L 18.40625 64.59375 
L 9.421875 64.59375 
z
" id="DejaVuSans-106"/>
     <path d="M 44.390625 34.1875 
Q 47.5625 33.109375 50.5625 29.59375 
Q 53.5625 26.078125 56.59375 19.921875 
L 66.609375 0 
L 56 0 
L 46.6875 18.703125 
Q 43.0625 26.03125 39.671875 28.421875 
Q 36.28125 30.8125 30.421875 30.8125 
L 19.671875 30.8125 
L 19.671875 0 
L 9.8125 0 
L 9.8125 72.90625 
L 32.078125 72.90625 
Q 44.578125 72.90625 50.734375 67.671875 
Q 56.890625 62.453125 56.890625 51.90625 
Q 56.890625 45.015625 53.6875 40.46875 
Q 50.484375 35.9375 44.390625 34.1875 
z
M 19.671875 64.796875 
L 19.671875 38.921875 
L 32.078125 38.921875 
Q 39.203125 38.921875 42.84375 42.21875 
Q 46.484375 45.515625 46.484375 51.90625 
Q 46.484375 58.296875 42.84375 61.546875 
Q 39.203125 64.796875 32.078125 64.796875 
z
" id="DejaVuSans-82"/>
     <path d="M 64.40625 67.28125 
L 64.40625 56.890625 
Q 59.421875 61.53125 53.78125 63.8125 
Q 48.140625 66.109375 41.796875 66.109375 
Q 29.296875 66.109375 22.65625 58.46875 
Q 16.015625 50.828125 16.015625 36.375 
Q 16.015625 21.96875 22.65625 14.328125 
Q 29.296875 6.6875 41.796875 6.6875 
Q 48.140625 6.6875 53.78125 8.984375 
Q 59.421875 11.28125 64.40625 15.921875 
L 64.40625 5.609375 
Q 59.234375 2.09375 53.4375 0.328125 
Q 47.65625 -1.421875 41.21875 -1.421875 
Q 24.65625 -1.421875 15.125 8.703125 
Q 5.609375 18.84375 5.609375 36.375 
Q 5.609375 53.953125 15.125 64.078125 
Q 24.65625 74.21875 41.21875 74.21875 
Q 47.75 74.21875 53.53125 72.484375 
Q 59.328125 70.75 64.40625 67.28125 
z
" id="DejaVuSans-67"/>
     <path d="M 20.703125 79.984375 
L 30.421875 79.984375 
L 14.5 61.625 
L 7.03125 61.625 
z
M 9.421875 54.6875 
L 18.40625 54.6875 
L 18.40625 0 
L 9.421875 0 
z
M 13.921875 56 
z
" id="DejaVuSans-237"/>
    </defs>
    <g transform="translate(93.67 20.051)scale(0.12 -0.12)">
     <use xlink:href="#DejaVuSans-72"/>
     <use x="75.195312" xlink:href="#DejaVuSans-105"/>
     <use x="102.978516" xlink:href="#DejaVuSans-115"/>
     <use x="155.078125" xlink:href="#DejaVuSans-116"/>
     <use x="194.287109" xlink:href="#DejaVuSans-111"/>
     <use x="255.46875" xlink:href="#DejaVuSans-103"/>
     <use x="318.945312" xlink:href="#DejaVuSans-114"/>
     <use x="360.058594" xlink:href="#DejaVuSans-97"/>
     <use x="421.337891" xlink:href="#DejaVuSans-109"/>
     <use x="518.75" xlink:href="#DejaVuSans-97"/>
     <use x="580.029297" xlink:href="#DejaVuSans-32"/>
     <use x="611.816406" xlink:href="#DejaVuSans-99"/>
     <use x="666.796875" xlink:href="#DejaVuSans-111"/>
     <use x="727.978516" xlink:href="#DejaVuSans-110"/>
     <use x="791.357422" xlink:href="#DejaVuSans-32"/>
     <use x="823.144531" xlink:href="#DejaVuSans-102"/>
     <use x="858.349609" xlink:href="#DejaVuSans-117"/>
     <use x="921.728516" xlink:href="#DejaVuSans-110"/>
     <use x="985.107422" xlink:href="#DejaVuSans-99"/>
     <use x="1040.087891" xlink:href="#DejaVuSans-105"/>
     <use x="1067.871094" xlink:href="#DejaVuSans-243"/>
     <use x="1129.052734" xlink:href="#DejaVuSans-110"/>
     <use x="1192.431641" xlink:href="#DejaVuSans-32"/>
     <use x="1224.21875" xlink:href="#DejaVuSans-100"/>
     <use x="1287.695312" xlink:href="#DejaVuSans-101"/>
     <use x="1349.21875" xlink:href="#DejaVuSans-32"/>
     <use x="1381.005859" xlink:href="#DejaVuSans-97"/>
     <use x="1442.285156" xlink:href="#DejaVuSans-106"/>
     <use x="1470.068359" xlink:href="#DejaVuSans-117"/>
     <use x="1533.447266" xlink:href="#DejaVuSans-115"/>
     <use x="1585.546875" xlink:href="#DejaVuSans-116"/>
     <use x="1624.755859" xlink:href="#DejaVuSans-101"/>
     <use x="1686.279297" xlink:href="#DejaVuSans-32"/>
     <use x="1718.066406" xlink:href="#DejaVuSans-112"/>
     <use x="1781.542969" xlink:href="#DejaVuSans-97"/>
     <use x="1842.822266" xlink:href="#DejaVuSans-114"/>
     <use x="1883.935547" xlink:href="#DejaVuSans-97"/>
     <use x="1945.214844" xlink:href="#DejaVuSans-32"/>
     <use x="1977.001953" xlink:href="#DejaVuSans-82"/>
     <use x="2046.484375" xlink:href="#DejaVuSans-105"/>
     <use x="2074.267578" xlink:href="#DejaVuSans-116"/>
     <use x="2113.476562" xlink:href="#DejaVuSans-109"/>
     <use x="2210.888672" xlink:href="#DejaVuSans-111"/>
     <use x="2272.070312" xlink:href="#DejaVuSans-32"/>
     <use x="2303.857422" xlink:href="#DejaVuSans-67"/>
     <use x="2373.681641" xlink:href="#DejaVuSans-97"/>
     <use x="2434.960938" xlink:href="#DejaVuSans-114"/>
     <use x="2476.058594" xlink:href="#DejaVuSans-100"/>
     <use x="2539.535156" xlink:href="#DejaVuSans-237"/>
     <use x="2567.318359" xlink:href="#DejaVuSans-97"/>
     <use x="2628.597656" xlink:href="#DejaVuSans-99"/>
     <use x="2683.578125" xlink:href="#DejaVuSans-111"/>
    </g>
   </g>
  </g>
 </g>
 <defs>
  <clipPath id="pdf308b7153">
   <rect height="276.323833" width="383.29" x="66.71" y="26.051"/>
  </clipPath>
 </defs>
</svg>
