<?xml version="1.0" encoding="utf-8" standalone="no"?>
<!DOCTYPE svg PUBLIC "-//W3C//DTD SVG 1.1//EN"
  "http://www.w3.org/Graphics/SVG/1.1/DTD/svg11.dtd">
<!-- Created with matplotlib (https://matplotlib.org/) -->
<svg height="344.16pt" version="1.1" viewBox="0 0 460.8 344.16" width="460.8pt" xmlns="http://www.w3.org/2000/svg" xmlns:xlink="http://www.w3.org/1999/xlink">
 <defs>
  <style type="text/css">
*{stroke-linecap:butt;stroke-linejoin:round;}
  </style>
 </defs>
 <g id="figure_1">
  <g id="patch_1">
   <path d="M 0 344.16 
L 460.8 344.16 
L 460.8 0 
L 0 0 
z
" style="fill:#ffffff;"/>
  </g>
  <g id="axes_1">
   <g id="patch_2">
    <path d="M 57.6 306.3024 
L 414.72 306.3024 
L 414.72 41.2992 
L 57.6 41.2992 
z
" style="fill:#ffffff;"/>
   </g>
   <g id="matplotlib.axis_1">
    <g id="xtick_1">
     <g id="line2d_1">
      <defs>
       <path d="M 0 0 
L 0 3.5 
" id="mc5c70500ac" style="stroke:#000000;stroke-width:0.8;"/>
      </defs>
      <g>
       <use style="stroke:#000000;stroke-width:0.8;" x="73.832727" xlink:href="#mc5c70500ac" y="306.3024"/>
      </g>
     </g>
     <g id="text_1">
      <!-- 0 -->
      <defs>
       <path d="M 31.78125 66.40625 
Q 24.171875 66.40625 20.328125 58.90625 
Q 16.5 51.421875 16.5 36.375 
Q 16.5 21.390625 20.328125 13.890625 
Q 24.171875 6.390625 31.78125 6.390625 
Q 39.453125 6.390625 43.28125 13.890625 
Q 47.125 21.390625 47.125 36.375 
Q 47.125 51.421875 43.28125 58.90625 
Q 39.453125 66.40625 31.78125 66.40625 
z
M 31.78125 74.21875 
Q 44.046875 74.21875 50.515625 64.515625 
Q 56.984375 54.828125 56.984375 36.375 
Q 56.984375 17.96875 50.515625 8.265625 
Q 44.046875 -1.421875 31.78125 -1.421875 
Q 19.53125 -1.421875 13.0625 8.265625 
Q 6.59375 17.96875 6.59375 36.375 
Q 6.59375 54.828125 13.0625 64.515625 
Q 19.53125 74.21875 31.78125 74.21875 
z
" id="DejaVuSans-48"/>
      </defs>
      <g transform="translate(70.651477 320.900838)scale(0.1 -0.1)">
       <use xlink:href="#DejaVuSans-48"/>
      </g>
     </g>
    </g>
    <g id="xtick_2">
     <g id="line2d_2">
      <g>
       <use style="stroke:#000000;stroke-width:0.8;" x="113.757778" xlink:href="#mc5c70500ac" y="306.3024"/>
      </g>
     </g>
     <g id="text_2">
      <!-- 2500 -->
      <defs>
       <path d="M 19.1875 8.296875 
L 53.609375 8.296875 
L 53.609375 0 
L 7.328125 0 
L 7.328125 8.296875 
Q 12.9375 14.109375 22.625 23.890625 
Q 32.328125 33.6875 34.8125 36.53125 
Q 39.546875 41.84375 41.421875 45.53125 
Q 43.3125 49.21875 43.3125 52.78125 
Q 43.3125 58.59375 39.234375 62.25 
Q 35.15625 65.921875 28.609375 65.921875 
Q 23.96875 65.921875 18.8125 64.3125 
Q 13.671875 62.703125 7.8125 59.421875 
L 7.8125 69.390625 
Q 13.765625 71.78125 18.9375 73 
Q 24.125 74.21875 28.421875 74.21875 
Q 39.75 74.21875 46.484375 68.546875 
Q 53.21875 62.890625 53.21875 53.421875 
Q 53.21875 48.921875 51.53125 44.890625 
Q 49.859375 40.875 45.40625 35.40625 
Q 44.1875 33.984375 37.640625 27.21875 
Q 31.109375 20.453125 19.1875 8.296875 
z
" id="DejaVuSans-50"/>
       <path d="M 10.796875 72.90625 
L 49.515625 72.90625 
L 49.515625 64.59375 
L 19.828125 64.59375 
L 19.828125 46.734375 
Q 21.96875 47.46875 24.109375 47.828125 
Q 26.265625 48.1875 28.421875 48.1875 
Q 40.625 48.1875 47.75 41.5 
Q 54.890625 34.8125 54.890625 23.390625 
Q 54.890625 11.625 47.5625 5.09375 
Q 40.234375 -1.421875 26.90625 -1.421875 
Q 22.3125 -1.421875 17.546875 -0.640625 
Q 12.796875 0.140625 7.71875 1.703125 
L 7.71875 11.625 
Q 12.109375 9.234375 16.796875 8.0625 
Q 21.484375 6.890625 26.703125 6.890625 
Q 35.15625 6.890625 40.078125 11.328125 
Q 45.015625 15.765625 45.015625 23.390625 
Q 45.015625 31 40.078125 35.4375 
Q 35.15625 39.890625 26.703125 39.890625 
Q 22.75 39.890625 18.8125 39.015625 
Q 14.890625 38.140625 10.796875 36.28125 
z
" id="DejaVuSans-53"/>
      </defs>
      <g transform="translate(101.032778 320.900838)scale(0.1 -0.1)">
       <use xlink:href="#DejaVuSans-50"/>
       <use x="63.623047" xlink:href="#DejaVuSans-53"/>
       <use x="127.246094" xlink:href="#DejaVuSans-48"/>
       <use x="190.869141" xlink:href="#DejaVuSans-48"/>
      </g>
     </g>
    </g>
    <g id="xtick_3">
     <g id="line2d_3">
      <g>
       <use style="stroke:#000000;stroke-width:0.8;" x="153.682829" xlink:href="#mc5c70500ac" y="306.3024"/>
      </g>
     </g>
     <g id="text_3">
      <!-- 5000 -->
      <g transform="translate(140.957829 320.900838)scale(0.1 -0.1)">
       <use xlink:href="#DejaVuSans-53"/>
       <use x="63.623047" xlink:href="#DejaVuSans-48"/>
       <use x="127.246094" xlink:href="#DejaVuSans-48"/>
       <use x="190.869141" xlink:href="#DejaVuSans-48"/>
      </g>
     </g>
    </g>
    <g id="xtick_4">
     <g id="line2d_4">
      <g>
       <use style="stroke:#000000;stroke-width:0.8;" x="193.607881" xlink:href="#mc5c70500ac" y="306.3024"/>
      </g>
     </g>
     <g id="text_4">
      <!-- 7500 -->
      <defs>
       <path d="M 8.203125 72.90625 
L 55.078125 72.90625 
L 55.078125 68.703125 
L 28.609375 0 
L 18.3125 0 
L 43.21875 64.59375 
L 8.203125 64.59375 
z
" id="DejaVuSans-55"/>
      </defs>
      <g transform="translate(180.882881 320.900838)scale(0.1 -0.1)">
       <use xlink:href="#DejaVuSans-55"/>
       <use x="63.623047" xlink:href="#DejaVuSans-53"/>
       <use x="127.246094" xlink:href="#DejaVuSans-48"/>
       <use x="190.869141" xlink:href="#DejaVuSans-48"/>
      </g>
     </g>
    </g>
    <g id="xtick_5">
     <g id="line2d_5">
      <g>
       <use style="stroke:#000000;stroke-width:0.8;" x="233.532932" xlink:href="#mc5c70500ac" y="306.3024"/>
      </g>
     </g>
     <g id="text_5">
      <!-- 10000 -->
      <defs>
       <path d="M 12.40625 8.296875 
L 28.515625 8.296875 
L 28.515625 63.921875 
L 10.984375 60.40625 
L 10.984375 69.390625 
L 28.421875 72.90625 
L 38.28125 72.90625 
L 38.28125 8.296875 
L 54.390625 8.296875 
L 54.390625 0 
L 12.40625 0 
z
" id="DejaVuSans-49"/>
      </defs>
      <g transform="translate(217.626682 320.900838)scale(0.1 -0.1)">
       <use xlink:href="#DejaVuSans-49"/>
       <use x="63.623047" xlink:href="#DejaVuSans-48"/>
       <use x="127.246094" xlink:href="#DejaVuSans-48"/>
       <use x="190.869141" xlink:href="#DejaVuSans-48"/>
       <use x="254.492188" xlink:href="#DejaVuSans-48"/>
      </g>
     </g>
    </g>
    <g id="xtick_6">
     <g id="line2d_6">
      <g>
       <use style="stroke:#000000;stroke-width:0.8;" x="273.457983" xlink:href="#mc5c70500ac" y="306.3024"/>
      </g>
     </g>
     <g id="text_6">
      <!-- 12500 -->
      <g transform="translate(257.551733 320.900838)scale(0.1 -0.1)">
       <use xlink:href="#DejaVuSans-49"/>
       <use x="63.623047" xlink:href="#DejaVuSans-50"/>
       <use x="127.246094" xlink:href="#DejaVuSans-53"/>
       <use x="190.869141" xlink:href="#DejaVuSans-48"/>
       <use x="254.492188" xlink:href="#DejaVuSans-48"/>
      </g>
     </g>
    </g>
    <g id="xtick_7">
     <g id="line2d_7">
      <g>
       <use style="stroke:#000000;stroke-width:0.8;" x="313.383034" xlink:href="#mc5c70500ac" y="306.3024"/>
      </g>
     </g>
     <g id="text_7">
      <!-- 15000 -->
      <g transform="translate(297.476784 320.900838)scale(0.1 -0.1)">
       <use xlink:href="#DejaVuSans-49"/>
       <use x="63.623047" xlink:href="#DejaVuSans-53"/>
       <use x="127.246094" xlink:href="#DejaVuSans-48"/>
       <use x="190.869141" xlink:href="#DejaVuSans-48"/>
       <use x="254.492188" xlink:href="#DejaVuSans-48"/>
      </g>
     </g>
    </g>
    <g id="xtick_8">
     <g id="line2d_8">
      <g>
       <use style="stroke:#000000;stroke-width:0.8;" x="353.308085" xlink:href="#mc5c70500ac" y="306.3024"/>
      </g>
     </g>
     <g id="text_8">
      <!-- 17500 -->
      <g transform="translate(337.401835 320.900838)scale(0.1 -0.1)">
       <use xlink:href="#DejaVuSans-49"/>
       <use x="63.623047" xlink:href="#DejaVuSans-55"/>
       <use x="127.246094" xlink:href="#DejaVuSans-53"/>
       <use x="190.869141" xlink:href="#DejaVuSans-48"/>
       <use x="254.492188" xlink:href="#DejaVuSans-48"/>
      </g>
     </g>
    </g>
    <g id="xtick_9">
     <g id="line2d_9">
      <g>
       <use style="stroke:#000000;stroke-width:0.8;" x="393.233136" xlink:href="#mc5c70500ac" y="306.3024"/>
      </g>
     </g>
     <g id="text_9">
      <!-- 20000 -->
      <g transform="translate(377.326886 320.900838)scale(0.1 -0.1)">
       <use xlink:href="#DejaVuSans-50"/>
       <use x="63.623047" xlink:href="#DejaVuSans-48"/>
       <use x="127.246094" xlink:href="#DejaVuSans-48"/>
       <use x="190.869141" xlink:href="#DejaVuSans-48"/>
       <use x="254.492188" xlink:href="#DejaVuSans-48"/>
      </g>
     </g>
    </g>
    <g id="text_10">
     <!-- Muestras -->
     <defs>
      <path d="M 9.8125 72.90625 
L 24.515625 72.90625 
L 43.109375 23.296875 
L 61.8125 72.90625 
L 76.515625 72.90625 
L 76.515625 0 
L 66.890625 0 
L 66.890625 64.015625 
L 48.09375 14.015625 
L 38.1875 14.015625 
L 19.390625 64.015625 
L 19.390625 0 
L 9.8125 0 
z
" id="DejaVuSans-77"/>
      <path d="M 8.5 21.578125 
L 8.5 54.6875 
L 17.484375 54.6875 
L 17.484375 21.921875 
Q 17.484375 14.15625 20.5 10.265625 
Q 23.53125 6.390625 29.59375 6.390625 
Q 36.859375 6.390625 41.078125 11.03125 
Q 45.3125 15.671875 45.3125 23.6875 
L 45.3125 54.6875 
L 54.296875 54.6875 
L 54.296875 0 
L 45.3125 0 
L 45.3125 8.40625 
Q 42.046875 3.421875 37.71875 1 
Q 33.40625 -1.421875 27.6875 -1.421875 
Q 18.265625 -1.421875 13.375 4.4375 
Q 8.5 10.296875 8.5 21.578125 
z
M 31.109375 56 
z
" id="DejaVuSans-117"/>
      <path d="M 56.203125 29.59375 
L 56.203125 25.203125 
L 14.890625 25.203125 
Q 15.484375 15.921875 20.484375 11.0625 
Q 25.484375 6.203125 34.421875 6.203125 
Q 39.59375 6.203125 44.453125 7.46875 
Q 49.3125 8.734375 54.109375 11.28125 
L 54.109375 2.78125 
Q 49.265625 0.734375 44.1875 -0.34375 
Q 39.109375 -1.421875 33.890625 -1.421875 
Q 20.796875 -1.421875 13.15625 6.1875 
Q 5.515625 13.8125 5.515625 26.8125 
Q 5.515625 40.234375 12.765625 48.109375 
Q 20.015625 56 32.328125 56 
Q 43.359375 56 49.78125 48.890625 
Q 56.203125 41.796875 56.203125 29.59375 
z
M 47.21875 32.234375 
Q 47.125 39.59375 43.09375 43.984375 
Q 39.0625 48.390625 32.421875 48.390625 
Q 24.90625 48.390625 20.390625 44.140625 
Q 15.875 39.890625 15.1875 32.171875 
z
" id="DejaVuSans-101"/>
      <path d="M 44.28125 53.078125 
L 44.28125 44.578125 
Q 40.484375 46.53125 36.375 47.5 
Q 32.28125 48.484375 27.875 48.484375 
Q 21.1875 48.484375 17.84375 46.4375 
Q 14.5 44.390625 14.5 40.28125 
Q 14.5 37.15625 16.890625 35.375 
Q 19.28125 33.59375 26.515625 31.984375 
L 29.59375 31.296875 
Q 39.15625 29.25 43.1875 25.515625 
Q 47.21875 21.78125 47.21875 15.09375 
Q 47.21875 7.46875 41.1875 3.015625 
Q 35.15625 -1.421875 24.609375 -1.421875 
Q 20.21875 -1.421875 15.453125 -0.5625 
Q 10.6875 0.296875 5.421875 2 
L 5.421875 11.28125 
Q 10.40625 8.6875 15.234375 7.390625 
Q 20.0625 6.109375 24.8125 6.109375 
Q 31.15625 6.109375 34.5625 8.28125 
Q 37.984375 10.453125 37.984375 14.40625 
Q 37.984375 18.0625 35.515625 20.015625 
Q 33.0625 21.96875 24.703125 23.78125 
L 21.578125 24.515625 
Q 13.234375 26.265625 9.515625 29.90625 
Q 5.8125 33.546875 5.8125 39.890625 
Q 5.8125 47.609375 11.28125 51.796875 
Q 16.75 56 26.8125 56 
Q 31.78125 56 36.171875 55.265625 
Q 40.578125 54.546875 44.28125 53.078125 
z
" id="DejaVuSans-115"/>
      <path d="M 18.3125 70.21875 
L 18.3125 54.6875 
L 36.8125 54.6875 
L 36.8125 47.703125 
L 18.3125 47.703125 
L 18.3125 18.015625 
Q 18.3125 11.328125 20.140625 9.421875 
Q 21.96875 7.515625 27.59375 7.515625 
L 36.8125 7.515625 
L 36.8125 0 
L 27.59375 0 
Q 17.1875 0 13.234375 3.875 
Q 9.28125 7.765625 9.28125 18.015625 
L 9.28125 47.703125 
L 2.6875 47.703125 
L 2.6875 54.6875 
L 9.28125 54.6875 
L 9.28125 70.21875 
z
" id="DejaVuSans-116"/>
      <path d="M 41.109375 46.296875 
Q 39.59375 47.171875 37.8125 47.578125 
Q 36.03125 48 33.890625 48 
Q 26.265625 48 22.1875 43.046875 
Q 18.109375 38.09375 18.109375 28.8125 
L 18.109375 0 
L 9.078125 0 
L 9.078125 54.6875 
L 18.109375 54.6875 
L 18.109375 46.1875 
Q 20.953125 51.171875 25.484375 53.578125 
Q 30.03125 56 36.53125 56 
Q 37.453125 56 38.578125 55.875 
Q 39.703125 55.765625 41.0625 55.515625 
z
" id="DejaVuSans-114"/>
      <path d="M 34.28125 27.484375 
Q 23.390625 27.484375 19.1875 25 
Q 14.984375 22.515625 14.984375 16.5 
Q 14.984375 11.71875 18.140625 8.90625 
Q 21.296875 6.109375 26.703125 6.109375 
Q 34.1875 6.109375 38.703125 11.40625 
Q 43.21875 16.703125 43.21875 25.484375 
L 43.21875 27.484375 
z
M 52.203125 31.203125 
L 52.203125 0 
L 43.21875 0 
L 43.21875 8.296875 
Q 40.140625 3.328125 35.546875 0.953125 
Q 30.953125 -1.421875 24.3125 -1.421875 
Q 15.921875 -1.421875 10.953125 3.296875 
Q 6 8.015625 6 15.921875 
Q 6 25.140625 12.171875 29.828125 
Q 18.359375 34.515625 30.609375 34.515625 
L 43.21875 34.515625 
L 43.21875 35.40625 
Q 43.21875 41.609375 39.140625 45 
Q 35.0625 48.390625 27.6875 48.390625 
Q 23 48.390625 18.546875 47.265625 
Q 14.109375 46.140625 10.015625 43.890625 
L 10.015625 52.203125 
Q 14.9375 54.109375 19.578125 55.046875 
Q 24.21875 56 28.609375 56 
Q 40.484375 56 46.34375 49.84375 
Q 52.203125 43.703125 52.203125 31.203125 
z
" id="DejaVuSans-97"/>
     </defs>
     <g transform="translate(213.311562 334.578963)scale(0.1 -0.1)">
      <use xlink:href="#DejaVuSans-77"/>
      <use x="86.279297" xlink:href="#DejaVuSans-117"/>
      <use x="149.658203" xlink:href="#DejaVuSans-101"/>
      <use x="211.181641" xlink:href="#DejaVuSans-115"/>
      <use x="263.28125" xlink:href="#DejaVuSans-116"/>
      <use x="302.490234" xlink:href="#DejaVuSans-114"/>
      <use x="343.603516" xlink:href="#DejaVuSans-97"/>
      <use x="404.882812" xlink:href="#DejaVuSans-115"/>
     </g>
    </g>
   </g>
   <g id="matplotlib.axis_2">
    <g id="ytick_1">
     <g id="line2d_10">
      <defs>
       <path d="M 0 0 
L -3.5 0 
" id="m4ec25d44d1" style="stroke:#000000;stroke-width:0.8;"/>
      </defs>
      <g>
       <use style="stroke:#000000;stroke-width:0.8;" x="57.6" xlink:href="#m4ec25d44d1" y="256.84009"/>
      </g>
     </g>
     <g id="text_11">
      <!-- 60 -->
      <defs>
       <path d="M 33.015625 40.375 
Q 26.375 40.375 22.484375 35.828125 
Q 18.609375 31.296875 18.609375 23.390625 
Q 18.609375 15.53125 22.484375 10.953125 
Q 26.375 6.390625 33.015625 6.390625 
Q 39.65625 6.390625 43.53125 10.953125 
Q 47.40625 15.53125 47.40625 23.390625 
Q 47.40625 31.296875 43.53125 35.828125 
Q 39.65625 40.375 33.015625 40.375 
z
M 52.59375 71.296875 
L 52.59375 62.3125 
Q 48.875 64.0625 45.09375 64.984375 
Q 41.3125 65.921875 37.59375 65.921875 
Q 27.828125 65.921875 22.671875 59.328125 
Q 17.53125 52.734375 16.796875 39.40625 
Q 19.671875 43.65625 24.015625 45.921875 
Q 28.375 48.1875 33.59375 48.1875 
Q 44.578125 48.1875 50.953125 41.515625 
Q 57.328125 34.859375 57.328125 23.390625 
Q 57.328125 12.15625 50.6875 5.359375 
Q 44.046875 -1.421875 33.015625 -1.421875 
Q 20.359375 -1.421875 13.671875 8.265625 
Q 6.984375 17.96875 6.984375 36.375 
Q 6.984375 53.65625 15.1875 63.9375 
Q 23.390625 74.21875 37.203125 74.21875 
Q 40.921875 74.21875 44.703125 73.484375 
Q 48.484375 72.75 52.59375 71.296875 
z
" id="DejaVuSans-54"/>
      </defs>
      <g transform="translate(37.875 260.639309)scale(0.1 -0.1)">
       <use xlink:href="#DejaVuSans-54"/>
       <use x="63.623047" xlink:href="#DejaVuSans-48"/>
      </g>
     </g>
    </g>
    <g id="ytick_2">
     <g id="line2d_11">
      <g>
       <use style="stroke:#000000;stroke-width:0.8;" x="57.6" xlink:href="#m4ec25d44d1" y="205.230836"/>
      </g>
     </g>
     <g id="text_12">
      <!-- 70 -->
      <g transform="translate(37.875 209.030055)scale(0.1 -0.1)">
       <use xlink:href="#DejaVuSans-55"/>
       <use x="63.623047" xlink:href="#DejaVuSans-48"/>
      </g>
     </g>
    </g>
    <g id="ytick_3">
     <g id="line2d_12">
      <g>
       <use style="stroke:#000000;stroke-width:0.8;" x="57.6" xlink:href="#m4ec25d44d1" y="153.621581"/>
      </g>
     </g>
     <g id="text_13">
      <!-- 80 -->
      <defs>
       <path d="M 31.78125 34.625 
Q 24.75 34.625 20.71875 30.859375 
Q 16.703125 27.09375 16.703125 20.515625 
Q 16.703125 13.921875 20.71875 10.15625 
Q 24.75 6.390625 31.78125 6.390625 
Q 38.8125 6.390625 42.859375 10.171875 
Q 46.921875 13.96875 46.921875 20.515625 
Q 46.921875 27.09375 42.890625 30.859375 
Q 38.875 34.625 31.78125 34.625 
z
M 21.921875 38.8125 
Q 15.578125 40.375 12.03125 44.71875 
Q 8.5 49.078125 8.5 55.328125 
Q 8.5 64.0625 14.71875 69.140625 
Q 20.953125 74.21875 31.78125 74.21875 
Q 42.671875 74.21875 48.875 69.140625 
Q 55.078125 64.0625 55.078125 55.328125 
Q 55.078125 49.078125 51.53125 44.71875 
Q 48 40.375 41.703125 38.8125 
Q 48.828125 37.15625 52.796875 32.3125 
Q 56.78125 27.484375 56.78125 20.515625 
Q 56.78125 9.90625 50.3125 4.234375 
Q 43.84375 -1.421875 31.78125 -1.421875 
Q 19.734375 -1.421875 13.25 4.234375 
Q 6.78125 9.90625 6.78125 20.515625 
Q 6.78125 27.484375 10.78125 32.3125 
Q 14.796875 37.15625 21.921875 38.8125 
z
M 18.3125 54.390625 
Q 18.3125 48.734375 21.84375 45.5625 
Q 25.390625 42.390625 31.78125 42.390625 
Q 38.140625 42.390625 41.71875 45.5625 
Q 45.3125 48.734375 45.3125 54.390625 
Q 45.3125 60.0625 41.71875 63.234375 
Q 38.140625 66.40625 31.78125 66.40625 
Q 25.390625 66.40625 21.84375 63.234375 
Q 18.3125 60.0625 18.3125 54.390625 
z
" id="DejaVuSans-56"/>
      </defs>
      <g transform="translate(37.875 157.4208)scale(0.1 -0.1)">
       <use xlink:href="#DejaVuSans-56"/>
       <use x="63.623047" xlink:href="#DejaVuSans-48"/>
      </g>
     </g>
    </g>
    <g id="ytick_4">
     <g id="line2d_13">
      <g>
       <use style="stroke:#000000;stroke-width:0.8;" x="57.6" xlink:href="#m4ec25d44d1" y="102.012327"/>
      </g>
     </g>
     <g id="text_14">
      <!-- 90 -->
      <defs>
       <path d="M 10.984375 1.515625 
L 10.984375 10.5 
Q 14.703125 8.734375 18.5 7.8125 
Q 22.3125 6.890625 25.984375 6.890625 
Q 35.75 6.890625 40.890625 13.453125 
Q 46.046875 20.015625 46.78125 33.40625 
Q 43.953125 29.203125 39.59375 26.953125 
Q 35.25 24.703125 29.984375 24.703125 
Q 19.046875 24.703125 12.671875 31.3125 
Q 6.296875 37.9375 6.296875 49.421875 
Q 6.296875 60.640625 12.9375 67.421875 
Q 19.578125 74.21875 30.609375 74.21875 
Q 43.265625 74.21875 49.921875 64.515625 
Q 56.59375 54.828125 56.59375 36.375 
Q 56.59375 19.140625 48.40625 8.859375 
Q 40.234375 -1.421875 26.421875 -1.421875 
Q 22.703125 -1.421875 18.890625 -0.6875 
Q 15.09375 0.046875 10.984375 1.515625 
z
M 30.609375 32.421875 
Q 37.25 32.421875 41.125 36.953125 
Q 45.015625 41.5 45.015625 49.421875 
Q 45.015625 57.28125 41.125 61.84375 
Q 37.25 66.40625 30.609375 66.40625 
Q 23.96875 66.40625 20.09375 61.84375 
Q 16.21875 57.28125 16.21875 49.421875 
Q 16.21875 41.5 20.09375 36.953125 
Q 23.96875 32.421875 30.609375 32.421875 
z
" id="DejaVuSans-57"/>
      </defs>
      <g transform="translate(37.875 105.811546)scale(0.1 -0.1)">
       <use xlink:href="#DejaVuSans-57"/>
       <use x="63.623047" xlink:href="#DejaVuSans-48"/>
      </g>
     </g>
    </g>
    <g id="ytick_5">
     <g id="line2d_14">
      <g>
       <use style="stroke:#000000;stroke-width:0.8;" x="57.6" xlink:href="#m4ec25d44d1" y="50.403072"/>
      </g>
     </g>
     <g id="text_15">
      <!-- 100 -->
      <g transform="translate(31.5125 54.202291)scale(0.1 -0.1)">
       <use xlink:href="#DejaVuSans-49"/>
       <use x="63.623047" xlink:href="#DejaVuSans-48"/>
       <use x="127.246094" xlink:href="#DejaVuSans-48"/>
      </g>
     </g>
    </g>
    <g id="text_16">
     <!-- Valor de Ritmo Cardíaco -->
     <defs>
      <path d="M 28.609375 0 
L 0.78125 72.90625 
L 11.078125 72.90625 
L 34.1875 11.53125 
L 57.328125 72.90625 
L 67.578125 72.90625 
L 39.796875 0 
z
" id="DejaVuSans-86"/>
      <path d="M 9.421875 75.984375 
L 18.40625 75.984375 
L 18.40625 0 
L 9.421875 0 
z
" id="DejaVuSans-108"/>
      <path d="M 30.609375 48.390625 
Q 23.390625 48.390625 19.1875 42.75 
Q 14.984375 37.109375 14.984375 27.296875 
Q 14.984375 17.484375 19.15625 11.84375 
Q 23.34375 6.203125 30.609375 6.203125 
Q 37.796875 6.203125 41.984375 11.859375 
Q 46.1875 17.53125 46.1875 27.296875 
Q 46.1875 37.015625 41.984375 42.703125 
Q 37.796875 48.390625 30.609375 48.390625 
z
M 30.609375 56 
Q 42.328125 56 49.015625 48.375 
Q 55.71875 40.765625 55.71875 27.296875 
Q 55.71875 13.875 49.015625 6.21875 
Q 42.328125 -1.421875 30.609375 -1.421875 
Q 18.84375 -1.421875 12.171875 6.21875 
Q 5.515625 13.875 5.515625 27.296875 
Q 5.515625 40.765625 12.171875 48.375 
Q 18.84375 56 30.609375 56 
z
" id="DejaVuSans-111"/>
      <path id="DejaVuSans-32"/>
      <path d="M 45.40625 46.390625 
L 45.40625 75.984375 
L 54.390625 75.984375 
L 54.390625 0 
L 45.40625 0 
L 45.40625 8.203125 
Q 42.578125 3.328125 38.25 0.953125 
Q 33.9375 -1.421875 27.875 -1.421875 
Q 17.96875 -1.421875 11.734375 6.484375 
Q 5.515625 14.40625 5.515625 27.296875 
Q 5.515625 40.1875 11.734375 48.09375 
Q 17.96875 56 27.875 56 
Q 33.9375 56 38.25 53.625 
Q 42.578125 51.265625 45.40625 46.390625 
z
M 14.796875 27.296875 
Q 14.796875 17.390625 18.875 11.75 
Q 22.953125 6.109375 30.078125 6.109375 
Q 37.203125 6.109375 41.296875 11.75 
Q 45.40625 17.390625 45.40625 27.296875 
Q 45.40625 37.203125 41.296875 42.84375 
Q 37.203125 48.484375 30.078125 48.484375 
Q 22.953125 48.484375 18.875 42.84375 
Q 14.796875 37.203125 14.796875 27.296875 
z
" id="DejaVuSans-100"/>
      <path d="M 44.390625 34.1875 
Q 47.5625 33.109375 50.5625 29.59375 
Q 53.5625 26.078125 56.59375 19.921875 
L 66.609375 0 
L 56 0 
L 46.6875 18.703125 
Q 43.0625 26.03125 39.671875 28.421875 
Q 36.28125 30.8125 30.421875 30.8125 
L 19.671875 30.8125 
L 19.671875 0 
L 9.8125 0 
L 9.8125 72.90625 
L 32.078125 72.90625 
Q 44.578125 72.90625 50.734375 67.671875 
Q 56.890625 62.453125 56.890625 51.90625 
Q 56.890625 45.015625 53.6875 40.46875 
Q 50.484375 35.9375 44.390625 34.1875 
z
M 19.671875 64.796875 
L 19.671875 38.921875 
L 32.078125 38.921875 
Q 39.203125 38.921875 42.84375 42.21875 
Q 46.484375 45.515625 46.484375 51.90625 
Q 46.484375 58.296875 42.84375 61.546875 
Q 39.203125 64.796875 32.078125 64.796875 
z
" id="DejaVuSans-82"/>
      <path d="M 9.421875 54.6875 
L 18.40625 54.6875 
L 18.40625 0 
L 9.421875 0 
z
M 9.421875 75.984375 
L 18.40625 75.984375 
L 18.40625 64.59375 
L 9.421875 64.59375 
z
" id="DejaVuSans-105"/>
      <path d="M 52 44.1875 
Q 55.375 50.25 60.0625 53.125 
Q 64.75 56 71.09375 56 
Q 79.640625 56 84.28125 50.015625 
Q 88.921875 44.046875 88.921875 33.015625 
L 88.921875 0 
L 79.890625 0 
L 79.890625 32.71875 
Q 79.890625 40.578125 77.09375 44.375 
Q 74.3125 48.1875 68.609375 48.1875 
Q 61.625 48.1875 57.5625 43.546875 
Q 53.515625 38.921875 53.515625 30.90625 
L 53.515625 0 
L 44.484375 0 
L 44.484375 32.71875 
Q 44.484375 40.625 41.703125 44.40625 
Q 38.921875 48.1875 33.109375 48.1875 
Q 26.21875 48.1875 22.15625 43.53125 
Q 18.109375 38.875 18.109375 30.90625 
L 18.109375 0 
L 9.078125 0 
L 9.078125 54.6875 
L 18.109375 54.6875 
L 18.109375 46.1875 
Q 21.1875 51.21875 25.484375 53.609375 
Q 29.78125 56 35.6875 56 
Q 41.65625 56 45.828125 52.96875 
Q 50 49.953125 52 44.1875 
z
" id="DejaVuSans-109"/>
      <path d="M 64.40625 67.28125 
L 64.40625 56.890625 
Q 59.421875 61.53125 53.78125 63.8125 
Q 48.140625 66.109375 41.796875 66.109375 
Q 29.296875 66.109375 22.65625 58.46875 
Q 16.015625 50.828125 16.015625 36.375 
Q 16.015625 21.96875 22.65625 14.328125 
Q 29.296875 6.6875 41.796875 6.6875 
Q 48.140625 6.6875 53.78125 8.984375 
Q 59.421875 11.28125 64.40625 15.921875 
L 64.40625 5.609375 
Q 59.234375 2.09375 53.4375 0.328125 
Q 47.65625 -1.421875 41.21875 -1.421875 
Q 24.65625 -1.421875 15.125 8.703125 
Q 5.609375 18.84375 5.609375 36.375 
Q 5.609375 53.953125 15.125 64.078125 
Q 24.65625 74.21875 41.21875 74.21875 
Q 47.75 74.21875 53.53125 72.484375 
Q 59.328125 70.75 64.40625 67.28125 
z
" id="DejaVuSans-67"/>
      <path d="M 20.703125 79.984375 
L 30.421875 79.984375 
L 14.5 61.625 
L 7.03125 61.625 
z
M 9.421875 54.6875 
L 18.40625 54.6875 
L 18.40625 0 
L 9.421875 0 
z
M 13.921875 56 
z
" id="DejaVuSans-237"/>
      <path d="M 48.78125 52.59375 
L 48.78125 44.1875 
Q 44.96875 46.296875 41.140625 47.34375 
Q 37.3125 48.390625 33.40625 48.390625 
Q 24.65625 48.390625 19.8125 42.84375 
Q 14.984375 37.3125 14.984375 27.296875 
Q 14.984375 17.28125 19.8125 11.734375 
Q 24.65625 6.203125 33.40625 6.203125 
Q 37.3125 6.203125 41.140625 7.25 
Q 44.96875 8.296875 48.78125 10.40625 
L 48.78125 2.09375 
Q 45.015625 0.34375 40.984375 -0.53125 
Q 36.96875 -1.421875 32.421875 -1.421875 
Q 20.0625 -1.421875 12.78125 6.34375 
Q 5.515625 14.109375 5.515625 27.296875 
Q 5.515625 40.671875 12.859375 48.328125 
Q 20.21875 56 33.015625 56 
Q 37.15625 56 41.109375 55.140625 
Q 45.0625 54.296875 48.78125 52.59375 
z
" id="DejaVuSans-99"/>
     </defs>
     <g transform="translate(25.432812 234.6008)rotate(-90)scale(0.1 -0.1)">
      <use xlink:href="#DejaVuSans-86"/>
      <use x="68.298828" xlink:href="#DejaVuSans-97"/>
      <use x="129.578125" xlink:href="#DejaVuSans-108"/>
      <use x="157.361328" xlink:href="#DejaVuSans-111"/>
      <use x="218.542969" xlink:href="#DejaVuSans-114"/>
      <use x="259.65625" xlink:href="#DejaVuSans-32"/>
      <use x="291.443359" xlink:href="#DejaVuSans-100"/>
      <use x="354.919922" xlink:href="#DejaVuSans-101"/>
      <use x="416.443359" xlink:href="#DejaVuSans-32"/>
      <use x="448.230469" xlink:href="#DejaVuSans-82"/>
      <use x="517.712891" xlink:href="#DejaVuSans-105"/>
      <use x="545.496094" xlink:href="#DejaVuSans-116"/>
      <use x="584.705078" xlink:href="#DejaVuSans-109"/>
      <use x="682.117188" xlink:href="#DejaVuSans-111"/>
      <use x="743.298828" xlink:href="#DejaVuSans-32"/>
      <use x="775.085938" xlink:href="#DejaVuSans-67"/>
      <use x="844.910156" xlink:href="#DejaVuSans-97"/>
      <use x="906.189453" xlink:href="#DejaVuSans-114"/>
      <use x="947.287109" xlink:href="#DejaVuSans-100"/>
      <use x="1010.763672" xlink:href="#DejaVuSans-237"/>
      <use x="1038.546875" xlink:href="#DejaVuSans-97"/>
      <use x="1099.826172" xlink:href="#DejaVuSans-99"/>
      <use x="1154.806641" xlink:href="#DejaVuSans-111"/>
     </g>
    </g>
   </g>
   <g id="line2d_15">
    <path clip-path="url(#pdfc3ee8c40)" d="M 73.832727 102.631638 
L 74.535408 54.01572 
L 74.583318 53.3448 
L 74.599288 53.912502 
L 74.758988 55.925263 
L 74.774958 55.822044 
L 74.806899 55.40917 
L 74.838839 56.183309 
L 75.254059 73.007926 
L 75.445699 76.981839 
L 75.493609 77.085057 
L 75.525549 76.87862 
L 75.63734 76.310918 
L 75.68525 76.723792 
L 76.0845 83.329777 
L 76.16435 83.020121 
L 76.19629 83.174949 
L 76.27614 84.878054 
L 76.515691 87.819782 
L 76.707331 90.658291 
L 76.914941 92.877489 
L 76.962851 92.980707 
L 77.074641 94.425767 
L 77.170462 95.715998 
L 77.218372 95.303124 
L 77.457922 92.309787 
L 77.505832 93.341972 
L 77.681502 95.819216 
L 77.729412 95.715998 
L 77.793292 95.457952 
L 77.825232 95.664389 
L 77.984933 97.62554 
L 78.032843 97.367494 
L 78.240453 95.974044 
L 78.288363 96.335309 
L 78.416123 98.244851 
L 78.448063 97.728759 
L 78.639703 94.89025 
L 78.783434 95.303124 
L 78.847314 95.199905 
L 78.879254 95.303124 
L 79.278504 97.780368 
L 79.310444 97.470713 
L 79.374324 97.109448 
L 79.406264 97.367494 
L 79.581935 98.657725 
L 79.725665 98.554507 
L 79.901335 98.141633 
L 79.917305 98.244851 
L 79.997155 98.657725 
L 80.029095 98.399679 
L 80.140885 97.109448 
L 80.188795 97.522322 
L 80.588046 102.425201 
L 80.635956 102.52842 
L 80.843566 103.147731 
L 80.939386 103.715432 
L 81.131027 106.399114 
L 81.178937 105.883021 
L 81.610127 102.631638 
L 81.674007 102.52842 
L 81.881618 101.909108 
L 82.041318 102.270373 
L 82.105198 102.373592 
L 82.504448 103.921869 
L 82.728029 105.779803 
L 82.775939 105.728193 
L 83.175189 103.147731 
L 83.239069 103.405777 
L 83.382799 103.302558 
L 83.67026 100.722096 
L 83.71817 100.876923 
L 84.0216 102.631638 
L 84.03757 102.52842 
L 84.197271 99.277037 
L 84.229211 100.567268 
L 84.436821 103.715432 
L 84.772191 106.811988 
L 84.820101 106.915206 
L 85.011742 108.876358 
L 85.155472 111.921304 
L 85.187412 110.889119 
L 85.283232 110.11498 
L 85.315172 110.269808 
L 85.363082 110.373026 
L 85.395022 110.269808 
L 85.618602 108.205438 
L 85.666512 108.618312 
L 86.017853 112.695443 
L 86.065763 112.953489 
L 86.097703 112.747052 
L 86.321283 111.405211 
L 86.608744 114.29533 
L 86.656654 113.882456 
L 86.944114 110.631072 
L 87.407245 114.656594 
L 87.455155 114.553376 
L 87.535005 114.501767 
L 87.566945 114.29533 
L 87.614855 114.553376 
L 87.854405 115.688779 
L 87.870375 115.585561 
L 87.934255 115.069468 
L 88.093956 114.501767 
L 88.205746 114.398548 
L 88.429326 113.005098 
L 88.477236 113.366363 
L 88.557086 114.24372 
L 88.604996 113.727628 
L 88.700816 112.437396 
L 88.748726 112.85027 
L 88.956337 114.501767 
L 89.052157 114.759813 
L 89.068127 114.656594 
L 89.547227 110.011761 
L 89.627077 110.166589 
L 89.659018 110.11498 
L 89.818718 107.689345 
L 89.882598 108.205438 
L 89.978418 108.360265 
L 89.994388 108.308656 
L 90.122148 108.205438 
L 90.265878 108.308656 
L 90.361698 108.876358 
L 91.60736 123.843042 
L 91.62333 123.791432 
L 91.81497 121.88189 
L 92.134371 117.133839 
L 92.166311 117.237057 
L 92.262131 117.649931 
L 92.310041 117.495103 
L 92.533621 116.3597 
L 92.565561 116.566137 
L 92.677351 118.682116 
L 92.916902 121.778671 
L 92.980782 121.88189 
L 93.044662 122.139936 
L 93.076602 121.985108 
L 93.252272 119.662692 
L 93.300182 119.972348 
L 93.539732 123.172121 
L 93.603613 122.656029 
L 93.779283 121.985108 
L 93.859133 122.036718 
L 94.162563 124.61718 
L 94.274353 124.720399 
L 94.354204 125.133273 
L 94.386144 124.978445 
L 94.545844 123.27534 
L 94.657634 123.326949 
L 94.721514 123.068903 
L 94.769424 123.326949 
L 94.817334 123.584995 
L 94.865244 123.326949 
L 94.977034 123.068903 
L 94.993004 123.172121 
L 95.184645 124.049479 
L 95.200615 123.94626 
L 95.344345 123.068903 
L 95.392255 123.326949 
L 95.488075 123.533386 
L 95.504045 123.430168 
L 95.711655 122.810857 
L 95.823445 122.759247 
L 96.094936 121.365797 
L 96.126876 121.520625 
L 96.174786 121.469016 
L 96.302546 121.004533 
L 96.318516 121.107751 
L 96.478216 122.656029 
L 96.558066 122.397983 
L 96.621946 122.501201 
L 96.765677 123.326949 
L 96.925377 125.081664 
L 97.260747 129.262013 
L 97.276717 129.210404 
L 97.388507 128.436265 
L 97.436417 128.745921 
L 97.564178 129.623278 
L 97.596118 129.46845 
L 97.723878 128.849139 
L 97.755818 129.003967 
L 98.043278 130.139371 
L 98.075218 130.242589 
L 98.123128 130.758682 
L 98.346709 132.823052 
L 98.394619 132.719833 
L 98.426559 132.874661 
L 98.490439 133.855237 
L 98.714019 138.396851 
L 98.809839 138.138805 
L 98.937599 136.693746 
L 99.14521 135.04225 
L 99.24103 134.37133 
L 99.30491 134.680985 
L 99.43267 135.197078 
L 99.44864 135.145468 
L 99.48058 135.04225 
L 99.62431 134.113283 
L 99.67222 134.422939 
L 99.75207 134.887422 
L 99.78401 134.680985 
L 99.863861 134.37133 
L 99.895801 134.526157 
L 100.055501 136.4357 
L 100.151321 136.074435 
L 100.231171 135.971216 
L 100.566541 134.526157 
L 100.710272 133.906846 
L 100.726242 134.010065 
L 100.901912 135.71317 
L 100.949822 135.403515 
L 101.013702 135.04225 
L 101.061612 135.300296 
L 101.221312 137.77754 
L 101.412953 139.790301 
L 101.556683 139.016162 
L 101.604593 139.274209 
L 101.732353 139.687083 
L 101.796233 139.583864 
L 101.892053 139.274209 
L 101.923993 139.429037 
L 102.067723 141.080533 
L 102.147574 140.56444 
L 102.323244 139.274209 
L 102.339214 139.325818 
L 102.435034 140.616049 
L 102.674584 142.783638 
L 102.722494 142.68042 
L 102.786374 142.525592 
L 102.818314 142.68042 
L 103.105775 143.815823 
L 103.201595 143.712605 
L 103.265475 143.196512 
L 103.473085 140.203175 
L 103.552935 141.338579 
L 103.904276 147.583299 
L 104.223676 153.105489 
L 104.447256 156.356872 
L 104.495167 156.047216 
L 104.590987 154.756985 
L 104.814567 153.00227 
L 104.846507 153.208707 
L 104.910387 153.00227 
L 104.990237 152.589396 
L 105.038147 152.847443 
L 105.325608 154.240893 
L 105.341578 154.137674 
L 105.884558 149.905715 
L 106.251869 147.325252 
L 106.363659 148.718702 
L 106.683059 152.228132 
L 106.778879 152.486178 
L 106.826789 152.434569 
L 106.89067 152.33135 
L 107.00246 152.176522 
L 107.01843 152.228132 
L 107.06634 152.950661 
L 107.43365 161.466188 
L 107.52947 162.03389 
L 107.769021 166.523895 
L 108.024541 170.497808 
L 108.088421 170.033324 
L 108.200211 168.072173 
L 108.407822 163.943432 
L 108.455732 164.304697 
L 108.519612 164.717571 
L 108.567522 164.356306 
L 108.886922 160.950096 
L 109.078562 157.079402 
L 109.381993 145.209273 
L 109.477813 138.293633 
L 109.541693 141.338579 
L 110.436014 197.902322 
L 110.499894 196.818528 
L 110.723474 189.335186 
L 111.074815 179.787474 
L 111.106755 180.04552 
L 111.186605 181.38736 
L 111.234515 180.871268 
L 111.521976 170.755854 
L 112.096896 148.87353 
L 112.112866 148.976749 
L 112.176746 150.112152 
L 112.352417 151.970085 
L 112.512117 152.073304 
L 112.751667 154.808594 
L 112.815547 154.137674 
L 113.118978 150.525026 
L 113.294648 147.015597 
L 113.342558 146.912378 
L 113.406438 146.80916 
L 113.438378 147.015597 
L 113.645988 147.841345 
L 113.981359 153.00227 
L 114.157029 154.756985 
L 114.188969 154.498939 
L 114.332699 153.879628 
L 114.364639 153.879628 
L 114.428519 153.466754 
L 114.460459 153.7248 
L 114.604189 155.531124 
L 114.6521 155.273078 
L 114.8118 153.621581 
L 114.9715 149.59606 
L 115.1312 141.132142 
L 115.22702 142.370764 
L 115.530451 146.13824 
L 115.642241 147.583299 
L 115.881791 155.427905 
L 116.025521 165.130445 
L 116.153281 169.723669 
L 116.185221 169.465623 
L 116.648352 163.582168 
L 116.760142 162.911247 
L 117.303123 155.066641 
L 117.335063 155.324687 
L 117.542673 160.434003 
L 117.734313 162.137108 
L 118.037744 164.046651 
L 118.133564 164.614353 
L 118.261324 166.16263 
L 118.309234 165.646538 
L 118.596695 161.517797 
L 118.612665 161.621016 
L 118.836245 163.788605 
L 119.075795 166.16263 
L 119.123705 165.646538 
L 119.682656 156.718137 
L 119.730566 156.614918 
L 119.906236 155.943998 
L 119.954146 156.202044 
L 120.081906 157.595494 
L 120.592947 165.594929 
L 120.720707 165.388492 
L 120.864437 165.904584 
L 120.880407 165.852975 
L 120.944288 165.594929 
L 120.992198 165.852975 
L 121.119958 168.072173 
L 121.375478 173.233098 
L 121.423388 173.12988 
L 121.551148 172.562178 
L 121.567118 172.613787 
L 121.742789 174.368502 
L 121.918459 177.103792 
L 121.998309 176.948965 
L 122.014279 176.948965 
L 122.173979 173.594363 
L 122.301739 172.097695 
L 122.333679 172.304132 
L 123.228 180.974486 
L 123.259941 180.561612 
L 123.355761 178.497242 
L 123.403671 178.910116 
L 123.483521 179.581037 
L 123.531431 179.271381 
L 123.611281 176.948965 
L 123.691131 173.12988 
L 123.755011 174.265283 
L 124.282022 192.328522 
L 124.313962 191.967258 
L 124.377842 190.935072 
L 124.425752 191.709211 
L 124.681272 204.198651 
L 124.825003 203.57934 
L 124.920823 201.618188 
L 125.128433 198.366805 
L 125.176343 198.160368 
L 125.208283 198.418414 
L 125.256193 199.39899 
L 125.352013 202.134281 
L 125.415893 201.256923 
L 125.591564 199.966692 
L 125.655444 200.069911 
L 125.735294 200.327957 
L 125.767234 200.069911 
L 125.879024 198.676461 
L 126.054694 194.650939 
L 126.230364 178.910116 
L 126.709465 128.591093 
L 126.725435 128.694312 
L 126.885135 129.003967 
L 126.901105 128.952358 
L 126.949015 128.849139 
L 126.980955 129.107186 
L 126.996925 128.952358 
L 127.092745 129.623278 
L 127.188566 132.565006 
L 127.284386 144.073869 
L 127.539906 173.12988 
L 127.587816 172.820224 
L 127.683636 171.581602 
L 127.795426 170.497808 
L 127.811396 170.652635 
L 127.875276 172.097695 
L 128.082887 182.161499 
L 128.290497 190.367371 
L 128.354377 190.264152 
L 128.466167 188.870702 
L 128.609897 186.23863 
L 128.689747 186.496677 
L 128.801538 185.258054 
L 129.232728 174.52333 
L 129.296608 174.420111 
L 129.328548 174.626548 
L 129.568099 176.690918 
L 129.631979 176.5877 
L 129.679889 176.484481 
L 129.743769 175.916779 
L 129.871529 174.420111 
L 129.903469 174.678157 
L 130.238839 178.910116 
L 130.254809 178.806898 
L 130.31869 178.290805 
L 130.62212 174.936204 
L 130.67003 175.039422 
L 130.82973 175.968389 
L 130.87764 175.658733 
L 131.197041 170.239761 
L 131.292861 171.323556 
L 131.468531 172.562178 
L 131.516441 172.458959 
L 131.708081 170.497808 
L 131.899722 169.362404 
L 131.963602 169.104358 
L 132.011512 169.362404 
L 132.075392 169.723669 
L 132.123302 169.362404 
L 132.219122 167.452862 
L 132.682253 160.588831 
L 132.937773 158.163196 
L 133.001653 157.595494 
L 133.113443 157.337448 
L 133.273143 158.111587 
L 133.800154 165.078836 
L 133.911944 165.130445 
L 134.071644 166.936769 
L 134.119554 166.678723 
L 134.438955 164.201479 
L 134.470895 164.304697 
L 134.646565 165.233664 
L 134.790295 166.007803 
L 134.806265 165.904584 
L 134.854175 165.388492 
L 135.029846 160.846877 
L 135.668646 148.821921 
L 135.716556 148.357438 
L 135.748497 148.821921 
L 136.243567 160.434003 
L 136.467147 165.336882 
L 136.738638 163.066075 
L 137.010128 157.647103 
L 137.105948 157.079402 
L 137.217738 154.39572 
L 137.457289 148.87353 
L 137.760719 147.841345 
L 137.808629 148.099391 
L 138.032209 150.163761 
L 138.064149 151.195947 
L 138.11206 149.59606 
L 138.44743 116.462918 
L 138.6231 109.753715 
L 138.67101 109.856934 
L 138.910561 102.270373 
L 139.038321 93.4968 
L 139.086231 96.490137 
L 139.421601 127.40408 
L 139.565331 131.068337 
L 139.581301 130.810291 
L 139.820852 124.101088 
L 139.916672 121.107751 
L 139.948612 122.397983 
L 140.076372 126.526723 
L 140.108312 126.423504 
L 140.140252 126.371895 
L 140.220102 125.752584 
L 140.268012 126.165458 
L 140.427712 132.100522 
L 140.667263 145.518929 
L 141.002633 166.16263 
L 141.098453 167.194815 
L 141.258154 172.200913 
L 141.338004 171.168728 
L 141.481734 169.723669 
L 141.513674 169.775278 
L 141.593524 169.878497 
L 141.609494 169.775278 
L 141.801134 169.207576 
L 141.817104 169.259186 
L 142.423965 175.710342 
L 142.471875 175.658733 
L 142.615605 175.452296 
L 142.791276 175.452296 
L 142.966946 174.781376 
L 143.030826 174.884594 
L 143.525896 180.613222 
L 144.164697 192.586569 
L 144.452158 195.167031 
L 144.579918 196.457263 
L 144.611858 196.199216 
L 144.739618 195.321859 
L 144.771558 195.579905 
L 145.106928 198.418414 
L 145.394389 200.844049 
L 145.442299 200.740831 
L 145.617969 200.173129 
L 145.633939 200.224738 
L 145.745729 201.256923 
L 145.777669 201.102096 
L 145.889459 200.586003 
L 145.9214 200.740831 
L 146.22483 203.424512 
L 147.167061 216.997746 
L 147.199001 217.100965 
L 147.454521 218.546024 
L 147.470492 218.546024 
L 147.614222 216.171998 
L 147.773922 211.1659 
L 147.869742 211.423947 
L 148.013472 212.043258 
L 148.045412 211.836821 
L 148.125262 211.785211 
L 148.157202 211.836821 
L 148.476603 217.359011 
L 148.636303 223.294075 
L 148.843913 230.158106 
L 148.859883 230.106497 
L 148.971673 229.383967 
L 148.987643 229.590404 
L 149.163314 231.706384 
L 149.211224 231.654774 
L 149.338984 231.29351 
L 149.354954 231.396728 
L 149.482714 231.448337 
L 149.610474 231.396728 
L 149.738234 230.880635 
L 149.754204 230.932245 
L 149.993755 233.35788 
L 150.025695 233.203052 
L 150.169425 231.96443 
L 150.201365 232.170867 
L 150.249275 232.325695 
L 150.281215 232.170867 
L 150.552705 231.035463 
L 150.600616 231.138682 
L 150.632556 230.932245 
L 150.744346 230.880635 
L 150.792256 231.190291 
L 150.967926 232.738569 
L 151.191506 232.841787 
L 151.510907 234.906157 
L 151.702547 235.680296 
L 151.718517 235.577078 
L 151.766427 235.060985 
L 151.942097 233.977191 
L 151.958067 234.0288 
L 152.117767 234.544893 
L 152.133737 234.493283 
L 152.261498 232.945006 
L 152.836418 226.906723 
L 152.900298 227.009941 
L 152.996119 227.164769 
L 153.012089 227.061551 
L 153.251639 225.771319 
L 153.395369 224.99718 
L 153.443279 224.842353 
L 153.475219 225.100399 
L 153.82656 229.125921 
L 153.89044 229.229139 
L 154.11402 231.29351 
L 154.16193 230.932245 
L 154.28969 230.674198 
L 154.30566 230.777417 
L 154.40148 231.396728 
L 154.44939 231.035463 
L 154.720881 227.319597 
L 154.816701 227.267988 
L 155.040281 225.616492 
L 155.104161 225.977756 
L 155.215951 226.906723 
L 155.263861 226.493849 
L 155.423562 225.461664 
L 155.487442 225.874538 
L 155.583262 225.616492 
L 155.599232 225.513273 
L 155.631172 225.771319 
L 155.806842 227.319597 
L 155.854752 227.267988 
L 155.982512 227.164769 
L 156.158183 226.648677 
L 156.477583 228.558219 
L 156.509523 228.300173 
L 156.765043 224.584306 
L 156.812953 224.842353 
L 156.940714 225.203617 
L 156.956684 225.100399 
L 157.132354 223.913386 
L 157.180264 224.223042 
L 157.228174 224.32626 
L 157.276084 224.171432 
L 157.595484 220.713612 
L 157.882945 216.946137 
L 158.074585 215.397859 
L 158.106525 215.294641 
L 158.282195 214.881767 
L 158.409956 214.933376 
L 158.489806 215.191422 
L 158.521746 215.036594 
L 158.633536 214.62372 
L 158.665476 214.778548 
L 158.761296 215.139813 
L 158.793236 214.933376 
L 158.952936 214.417283 
L 158.984876 214.62372 
L 159.160546 215.552687 
L 159.432037 216.584872 
L 159.591737 216.481653 
L 159.639647 215.965561 
L 159.735467 215.036594 
L 159.767407 215.294641 
L 159.927107 217.720276 
L 159.990988 217.255792 
L 160.390238 213.746363 
L 160.438148 213.849581 
L 160.470088 213.849581 
L 160.565908 213.385098 
L 160.581878 213.488317 
L 160.645758 214.107628 
L 160.677698 213.746363 
L 160.773519 210.649808 
L 161.013069 205.385664 
L 161.029039 205.334054 
L 161.045009 205.385664 
L 161.268589 209.10153 
L 161.332469 208.585438 
L 161.428289 207.811299 
L 161.460229 208.172563 
L 161.57202 208.688656 
L 161.58799 208.585438 
L 161.66784 208.43061 
L 161.69978 208.585438 
L 161.9553 210.391761 
L 161.97127 210.236934 
L 162.05112 207.191988 
L 162.25873 200.689222 
L 162.322611 201.256923 
L 162.386491 201.51497 
L 162.434401 201.256923 
L 162.657981 200.173129 
L 162.801711 199.966692 
L 162.913501 199.553818 
L 162.945441 199.708646 
L 163.216932 204.301869 
L 163.392602 207.295206 
L 163.488422 207.03716 
L 163.520362 207.191988 
L 163.680062 208.946702 
L 164.079313 212.352913 
L 164.111253 212.301304 
L 164.191103 210.133715 
L 164.350803 207.450034 
L 164.430653 207.656471 
L 164.462593 207.450034 
L 164.590353 206.675895 
L 165.037514 203.011638 
L 165.053484 203.166466 
L 165.261094 204.301869 
L 165.293034 204.095432 
L 165.388854 203.527731 
L 165.468705 203.682558 
L 165.596465 207.191988 
L 165.772135 210.546589 
L 165.883925 211.940039 
L 165.995715 213.127052 
L 166.043625 212.869006 
L 166.075565 212.972224 
L 166.235266 214.67533 
L 166.474816 217.875103 
L 166.522726 217.462229 
L 166.778246 214.107628 
L 167.001826 212.198085 
L 167.113617 210.236934 
L 167.257347 208.224173 
L 167.289287 208.327391 
L 167.321227 208.224173 
L 167.385107 207.656471 
L 167.528837 206.36624 
L 167.560777 206.417849 
L 167.592717 206.521067 
L 167.720477 208.069345 
L 167.912118 210.133715 
L 167.944058 210.133715 
L 168.103758 212.714178 
L 168.263458 214.159237 
L 168.343308 214.262456 
L 168.806439 217.978322 
L 168.886289 217.255792 
L 169.045989 214.67533 
L 169.221659 212.456132 
L 169.253599 212.869006 
L 169.46121 216.481653 
L 169.49315 216.171998 
L 170.0521 206.263021 
L 170.243741 182.522764 
L 170.403441 169.62045 
L 170.435381 170.239761 
L 170.595081 179.787474 
L 171.026272 210.133715 
L 171.393582 252.092039 
L 171.425522 252.350085 
L 171.473432 251.782384 
L 171.840743 243.421684 
L 171.936563 241.61536 
L 172.208053 235.783515 
L 172.239993 235.835124 
L 172.287903 236.970528 
L 172.335813 236.196389 
L 172.495514 231.706384 
L 172.575364 231.96443 
L 172.623274 231.448337 
L 172.990584 227.164769 
L 173.134314 225.71971 
L 173.278045 223.397294 
L 173.325955 223.706949 
L 173.437745 225.616492 
L 173.501625 224.842353 
L 173.581475 223.552121 
L 173.629385 224.068214 
L 173.884905 226.493849 
L 174.124456 229.590404 
L 174.379976 234.390065 
L 174.571616 234.906157 
L 174.731316 234.390065 
L 174.763256 234.286846 
L 175.210417 229.229139 
L 175.322207 227.164769 
L 175.370117 227.577643 
L 175.481907 228.816265 
L 175.513847 228.558219 
L 175.769368 225.513273 
L 175.785338 225.71971 
L 175.913098 226.493849 
L 175.961008 226.39063 
L 176.088768 226.287412 
L 176.120708 226.39063 
L 176.264438 227.267988 
L 176.296378 226.906723 
L 176.424139 225.874538 
L 176.456079 226.235803 
L 176.743539 228.093736 
L 176.855329 228.196954 
L 177.126819 229.229139 
L 177.17473 229.125921 
L 177.30249 228.867875 
L 177.31846 228.971093 
L 177.46219 230.622589 
L 177.57398 231.138682 
L 177.60592 231.035463 
L 177.65383 230.932245 
L 177.68577 230.674198 
L 177.92532 221.642579 
L 178.132931 215.965561 
L 178.148901 216.068779 
L 178.228751 217.204183 
L 178.276661 217.513839 
L 178.324571 217.204183 
L 178.532181 216.068779 
L 178.564121 216.223607 
L 178.675911 217.462229 
L 179.107102 230.519371 
L 179.218892 229.074312 
L 179.522323 226.39063 
L 179.554263 226.493849 
L 179.602173 227.009941 
L 179.697993 230.106497 
L 179.777843 231.912821 
L 179.825753 230.880635 
L 180.081273 225.874538 
L 180.129183 225.771319 
L 180.512464 224.171432 
L 180.704104 220.971659 
L 180.767984 221.59097 
L 180.959624 222.881201 
L 180.975594 222.777983 
L 181.087385 222.365108 
L 181.103355 222.519936 
L 181.247085 223.810168 
L 181.279025 223.397294 
L 181.358875 222.623155 
L 181.406785 222.93281 
L 181.678275 225.616492 
L 181.710215 225.513273 
L 181.917826 223.913386 
L 181.949766 224.171432 
L 182.045586 225.100399 
L 182.093496 224.687525 
L 182.221256 223.139247 
L 182.285136 223.294075 
L 182.428866 222.777983 
L 182.444836 222.881201 
L 182.540656 223.964995 
L 182.620506 223.552121 
L 182.668417 223.65534 
L 182.876027 225.255227 
L 182.907967 224.99718 
L 183.099607 223.139247 
L 183.163487 223.448903 
L 183.259307 223.552121 
L 183.387067 224.068214 
L 183.403037 223.964995 
L 183.786318 220.971659 
L 183.802288 221.074877 
L 183.834228 221.126486 
L 184.009898 224.687525 
L 184.089748 225.616492 
L 184.137658 225.358445 
L 184.169598 225.255227 
L 184.425119 223.810168 
L 184.520939 223.913386 
L 184.568849 224.068214 
L 184.600789 223.810168 
L 185.04795 215.913952 
L 185.14377 216.481653 
L 185.19168 216.842918 
L 185.22362 216.430044 
L 185.33541 214.881767 
L 185.38332 215.294641 
L 185.71869 219.526599 
L 185.910331 221.229705 
L 185.942271 221.332923 
L 186.213761 223.036029 
L 186.245701 223.036029 
L 186.565102 219.010507 
L 186.788682 215.294641 
L 187.060172 217.720276 
L 187.155992 217.100965 
L 187.219872 216.842918 
L 187.251812 216.997746 
L 187.411513 217.359011 
L 187.555243 215.810733 
L 187.603153 216.223607 
L 187.651063 216.842918 
L 187.667033 216.326826 
L 187.922553 202.392327 
L 188.018373 203.940605 
L 188.880754 232.738569 
L 188.960605 231.706384 
L 189.583435 218.287977 
L 189.615375 218.236368 
L 189.647315 218.13315 
L 189.679256 218.391196 
L 190.094476 223.552121 
L 190.142386 223.448903 
L 190.174326 223.65534 
L 190.190296 223.65534 
L 190.254176 223.552121 
L 190.541637 221.074877 
L 190.717307 214.933376 
L 190.940887 208.843484 
L 191.004767 208.327391 
L 191.052677 208.585438 
L 191.563718 212.55935 
L 191.739388 215.965561 
L 191.803268 214.778548 
L 192.154609 208.327391 
L 192.202519 208.224173 
L 192.234459 208.43061 
L 192.250429 208.43061 
L 192.282369 208.327391 
L 192.697589 204.198651 
L 192.761469 204.611525 
L 192.84132 205.488882 
L 192.9052 205.127617 
L 193.16072 201.876234 
L 193.32042 199.450599 
L 193.33639 199.553818 
L 193.3843 199.657037 
L 193.41624 199.39899 
L 193.55997 196.715309 
L 193.639821 197.489448 
L 193.655791 197.592666 
L 193.687731 197.33462 
L 193.959221 195.063813 
L 193.991161 195.167031 
L 194.134891 196.302435 
L 194.166831 195.837952 
L 194.278621 191.709211 
L 194.470262 185.619319 
L 194.502202 185.722538 
L 194.534142 185.619319 
L 194.629962 184.587134 
L 194.693842 185.206445 
L 194.773692 185.774147 
L 194.805632 185.464492 
L 194.981302 181.077705 
L 195.109062 177.723103 
L 195.156973 178.239196 
L 195.252793 181.077705 
L 195.476373 188.35461 
L 195.508313 188.303001 
L 195.524283 188.303001 
L 195.811743 192.070476 
L 196.051294 197.33462 
L 196.226964 193.773581 
L 196.306814 194.908985 
L 196.993525 212.714178 
L 197.185165 222.623155 
L 197.249045 221.642579 
L 197.760086 209.978887 
L 197.887846 204.611525 
L 197.935756 205.127617 
L 198.382917 213.901191 
L 198.846047 231.654774 
L 198.957837 229.074312 
L 199.149478 220.713612 
L 199.325148 216.842918 
L 199.548728 210.753026 
L 199.628578 211.836821 
L 199.772308 213.23027 
L 199.788278 213.127052 
L 199.836189 213.23027 
L 199.995889 215.810733 
L 200.091709 220.19752 
L 200.235439 225.100399 
L 200.267379 224.945571 
L 200.299319 225.255227 
L 200.522899 229.332358 
L 200.586779 228.609828 
L 200.73051 227.164769 
L 200.76245 227.319597 
L 200.79439 227.422815 
L 200.93812 227.78408 
L 201.19364 226.235803 
L 201.24155 226.545458 
L 201.28946 226.132584 
L 201.800501 219.578209 
L 201.864381 219.526599 
L 202.183782 214.365674 
L 202.295572 211.527165 
L 202.343482 211.836821 
L 202.630942 215.449468 
L 202.662882 215.294641 
L 202.742732 215.191422 
L 202.806612 215.036594 
L 202.822582 215.139813 
L 202.950343 216.584872 
L 203.014223 216.068779 
L 203.046163 215.965561 
L 203.078103 216.326826 
L 203.285713 219.578209 
L 203.349593 219.165335 
L 203.477353 218.80407 
L 203.653023 219.681427 
L 203.684963 219.423381 
L 203.924514 217.513839 
L 203.956454 217.720276 
L 204.196004 219.010507 
L 204.243914 218.907288 
L 204.339734 217.720276 
L 204.579285 214.778548 
L 204.818835 211.527165 
L 205.297936 199.450599 
L 205.329876 199.708646 
L 205.489576 200.740831 
L 205.537486 200.327957 
L 205.681216 198.779679 
L 205.761066 199.39899 
L 205.872856 202.90842 
L 205.968676 204.611525 
L 206.016586 204.198651 
L 206.112407 203.321294 
L 206.160317 203.682558 
L 206.320017 206.108193 
L 206.367927 205.64371 
L 206.575537 202.392327 
L 206.639417 202.90842 
L 206.942848 205.385664 
L 207.198368 209.359576 
L 207.214338 209.256358 
L 207.278218 209.359576 
L 207.374038 211.062682 
L 207.629558 217.720276 
L 207.693439 217.462229 
L 207.853139 218.13315 
L 207.901049 217.875103 
L 207.980899 216.842918 
L 208.140599 215.552687 
L 208.300299 212.972224 
L 208.55582 209.462795 
L 208.65164 210.030497 
L 208.95507 215.294641 
L 209.16268 219.681427 
L 209.242531 219.784646 
L 209.290441 220.300738 
L 209.625811 224.945571 
L 209.657751 224.687525 
L 209.737601 224.429479 
L 209.753571 224.584306 
L 209.865361 225.71971 
L 209.913271 225.255227 
L 209.977151 224.429479 
L 210.025062 225.100399 
L 210.839533 248.221345 
L 210.903413 249.201921 
L 210.967293 249.718013 
L 210.999233 249.356749 
L 211.398483 242.647546 
L 211.526243 240.583175 
L 211.765794 236.196389 
L 211.813704 236.09317 
L 211.861614 236.299607 
L 211.973404 236.867309 
L 212.021314 236.557653 
L 212.053254 236.351216 
L 212.101164 236.712481 
L 212.276834 239.447772 
L 212.452505 240.325129 
L 212.548325 242.131453 
L 212.803845 246.621458 
L 212.835785 246.363412 
L 212.931605 245.640882 
L 212.963545 245.898929 
L 213.043395 246.363412 
L 213.075335 246.156975 
L 213.426676 242.234671 
L 214.161297 234.132019 
L 214.305027 233.873972 
L 214.352937 233.977191 
L 214.576517 235.938342 
L 214.624427 235.783515 
L 214.656367 235.680296 
L 214.688308 236.041561 
L 214.879948 238.363977 
L 214.927858 238.260759 
L 215.055618 239.809037 
L 215.247258 241.202486 
L 215.295168 241.099268 
L 215.406958 239.963864 
L 215.438898 240.170301 
L 215.566659 241.512142 
L 215.630539 241.099268 
L 215.758299 239.809037 
L 215.854119 239.963864 
L 215.917999 239.55099 
L 216.173519 237.125355 
L 216.221429 237.073746 
L 216.25337 237.228574 
L 216.3971 238.260759 
L 216.41307 238.15754 
L 216.50889 237.899494 
L 216.52486 238.002713 
L 216.94008 243.06042 
L 217.339331 249.769623 
L 217.371271 248.685828 
L 217.530971 237.589839 
L 217.882312 198.521633 
L 217.946192 196.560481 
L 218.010072 197.076574 
L 218.153802 197.592666 
L 218.297532 194.754157 
L 218.329472 196.044389 
L 218.489172 204.869571 
L 218.808573 235.267422 
L 218.888423 237.744666 
L 218.936333 236.454435 
L 219.399464 222.416718 
L 219.495284 221.900625 
L 219.527224 222.158671 
L 219.607074 222.365108 
L 219.623044 222.26189 
L 219.734834 220.19752 
L 219.894534 218.391196 
L 219.910504 218.494414 
L 220.038264 218.546024 
L 220.086174 218.649242 
L 220.118114 218.494414 
L 220.134084 218.494414 
L 220.181995 218.391196 
L 220.213935 218.287977 
L 220.245875 218.494414 
L 220.405575 219.784646 
L 220.453485 219.526599 
L 220.581245 219.423381 
L 220.693035 219.526599 
L 220.804825 220.300738 
L 220.836765 219.939474 
L 220.996466 217.359011 
L 221.044376 216.946137 
L 221.108256 217.100965 
L 221.204076 218.391196 
L 221.555416 224.842353 
L 221.651236 223.964995 
L 221.810937 223.397294 
L 221.842877 223.448903 
L 221.938697 224.739134 
L 222.082427 226.029366 
L 222.098397 225.977756 
L 222.258097 222.674764 
L 222.449737 219.784646 
L 222.465707 219.836255 
L 222.481677 219.836255 
L 222.625408 222.003844 
L 222.689288 221.642579 
L 222.705258 221.59097 
L 222.737198 221.745797 
L 223.104508 224.842353 
L 223.344059 227.164769 
L 223.407939 227.164769 
L 223.503759 226.648677 
L 223.535699 226.906723 
L 223.966889 230.674198 
L 224.014799 230.519371 
L 224.09465 230.519371 
L 224.27032 231.96443 
L 224.31823 231.809602 
L 224.36614 231.706384 
L 224.39808 231.96443 
L 224.52584 232.325695 
L 224.55778 232.428913 
L 224.70151 234.802939 
L 224.861211 235.783515 
L 225.116731 236.8157 
L 225.547921 242.647546 
L 225.563891 242.544327 
L 225.627772 242.028234 
L 225.867322 240.738003 
L 225.899262 240.841222 
L 225.931202 240.583175 
L 226.058962 238.518805 
L 226.346422 233.770754 
L 226.474183 232.996615 
L 226.506123 233.203052 
L 226.697763 234.802939 
L 226.745673 234.544893 
L 226.857463 234.132019 
L 226.889403 234.390065 
L 227.336564 239.034898 
L 227.400444 238.518805 
L 227.655964 236.970528 
L 227.943424 238.105931 
L 228.039245 238.15754 
L 228.182975 238.931679 
L 228.198945 238.88007 
L 228.262825 238.931679 
L 228.390585 240.479957 
L 228.821776 245.744101 
L 228.997446 247.034332 
L 229.061326 246.673067 
L 229.444606 243.937777 
L 229.476546 244.040995 
L 229.524457 244.195823 
L 229.556397 243.937777 
L 229.700127 242.234671 
L 229.779977 242.647546 
L 229.987587 243.318466 
L 230.067437 243.266857 
L 230.434748 239.912255 
L 230.466688 239.809037 
L 230.498628 239.963864 
L 230.626388 241.61536 
L 230.674298 241.357314 
L 230.818028 240.94444 
L 230.833998 240.996049 
L 230.881908 241.099268 
L 231.041608 242.802373 
L 231.233249 245.898929 
L 231.249219 245.847319 
L 231.297129 245.589273 
L 231.313099 245.744101 
L 231.632499 250.492152 
L 231.776229 250.801808 
L 231.824139 250.750198 
L 231.87205 250.801808 
L 232.2713 253.330661 
L 232.30324 252.969396 
L 232.41503 249.511576 
L 232.57473 247.705252 
L 232.894131 246.363412 
L 233.085771 244.866743 
L 233.309351 244.350651 
L 233.325321 244.453869 
L 233.532932 245.07318 
L 233.612782 245.382836 
L 233.660692 245.12479 
L 233.788452 244.711916 
L 233.852332 244.866743 
L 234.219643 246.673067 
L 234.235613 246.621458 
L 234.379343 245.898929 
L 234.602923 246.621458 
L 234.634863 246.51824 
L 234.730683 245.228008 
L 235.066054 239.292944 
L 235.177844 239.705818 
L 235.577094 241.61536 
L 235.736794 241.718579 
L 235.896495 244.299042 
L 236.088135 246.415021 
L 236.231865 247.653643 
L 236.263805 247.447206 
L 236.423505 246.776286 
L 236.599176 248.58261 
L 236.742906 251.059854 
L 236.790816 250.801808 
L 236.822756 250.750198 
L 236.950516 249.25353 
L 237.094246 248.427782 
L 237.253946 248.737438 
L 237.269916 248.685828 
L 237.589317 245.898929 
L 237.828867 243.266857 
L 237.844837 243.318466 
L 237.940657 244.557088 
L 238.020507 245.228008 
L 238.052447 244.866743 
L 238.212148 243.00881 
L 238.244088 243.06042 
L 238.547518 241.718579 
L 238.659308 240.996049 
L 238.691248 241.099268 
L 238.723188 240.996049 
L 238.755128 240.94444 
L 238.771098 240.996049 
L 238.866918 241.357314 
L 238.882888 241.254096 
L 238.946769 240.686394 
L 239.074529 240.325129 
L 239.106469 240.221911 
L 239.170349 239.705818 
L 239.457809 236.867309 
L 239.521689 237.228574 
L 239.68139 237.589839 
L 239.7293 237.48662 
L 239.92094 235.938342 
L 239.98482 236.351216 
L 240.12855 237.641448 
L 240.16049 237.48662 
L 240.22437 237.125355 
L 240.27228 237.383402 
L 240.35213 237.899494 
L 240.41601 237.589839 
L 240.783321 235.835124 
L 240.879141 236.041561 
L 240.895111 235.938342 
L 241.118691 234.132019 
L 241.166601 234.235237 
L 241.214511 234.286846 
L 241.246452 234.390065 
L 241.294362 234.132019 
L 241.310332 234.132019 
L 241.406152 235.938342 
L 241.501972 237.899494 
L 241.549882 237.125355 
L 241.613762 235.680296 
L 241.661672 236.454435 
L 241.789432 238.622024 
L 241.837342 238.260759 
L 241.869282 238.15754 
L 241.917192 238.415587 
L 242.156743 240.94444 
L 242.188683 240.686394 
L 242.268533 240.583175 
L 242.348383 239.034898 
L 242.444203 236.351216 
L 242.492113 237.331792 
L 242.587933 240.94444 
L 242.651813 239.705818 
L 242.859424 237.125355 
L 242.875394 237.125355 
L 243.019124 235.525468 
L 243.083004 235.938342 
L 243.290614 237.899494 
L 243.434344 240.738003 
L 243.466284 240.428348 
L 243.594045 239.034898 
L 243.641955 239.189725 
L 243.865535 239.963864 
L 243.977325 239.912255 
L 244.073145 239.654209 
L 244.105085 239.809037 
L 244.137025 239.912255 
L 244.168965 239.705818 
L 244.184935 239.705818 
L 244.280755 239.034898 
L 244.408516 238.88007 
L 244.584186 239.705818 
L 244.695976 241.202486 
L 244.759856 240.583175 
L 244.935526 238.002713 
L 244.983436 238.415587 
L 245.191047 239.705818 
L 245.254927 239.654209 
L 245.494477 237.589839 
L 245.622237 235.680296 
L 245.654177 235.835124 
L 245.893727 238.415587 
L 245.925667 238.15754 
L 246.261038 234.132019 
L 246.340888 235.060985 
L 246.628348 240.428348 
L 246.772079 240.325129 
L 246.851929 240.686394 
L 246.899839 240.428348 
L 247.027599 239.447772 
L 247.059539 239.705818 
L 247.219239 241.718579 
L 247.267149 241.099268 
L 247.68237 236.041561 
L 247.81013 236.041561 
L 248.00177 238.15754 
L 248.04968 237.641448 
L 248.1455 236.867309 
L 248.17744 237.125355 
L 248.353111 240.738003 
L 248.512811 241.873407 
L 248.592661 241.976625 
L 248.688481 242.492718 
L 248.720421 242.286281 
L 248.880121 242.234671 
L 248.928031 242.028234 
L 248.959971 242.389499 
L 249.151612 245.589273 
L 249.215492 244.815134 
L 249.534892 240.738003 
L 249.598772 241.099268 
L 249.678622 241.512142 
L 249.726532 241.357314 
L 250.269513 237.847885 
L 250.317423 238.105931 
L 250.477123 239.189725 
L 250.509063 238.931679 
L 250.652794 237.899494 
L 250.684734 238.105931 
L 250.732644 238.622024 
L 250.940254 240.221911 
L 251.515175 244.092605 
L 251.563085 243.679731 
L 251.754725 240.841222 
L 251.962335 238.622024 
L 252.106065 236.970528 
L 252.281736 236.299607 
L 252.313676 236.196389 
L 252.345616 236.09317 
L 252.393526 236.299607 
L 252.441436 236.609263 
L 253.032327 247.550425 
L 253.239937 249.25353 
L 253.303817 249.511576 
L 253.335757 249.356749 
L 253.687097 245.898929 
L 253.766948 246.105366 
L 253.814858 246.156975 
L 254.214108 248.066517 
L 254.277988 247.963299 
L 254.293958 248.169736 
L 254.469628 249.098702 
L 254.645299 250.285715 
L 254.677239 250.027669 
L 254.836939 248.737438 
L 254.852909 248.840656 
L 254.884849 248.943875 
L 254.916789 248.737438 
L 255.060519 247.550425 
L 255.092459 247.808471 
L 255.236189 248.169736 
L 255.252159 248.169736 
L 255.36395 250.234106 
L 255.58753 252.453304 
L 255.77917 254.001581 
L 255.81111 253.743535 
L 256.130511 251.575947 
L 256.178421 251.524337 
L 256.306181 250.027669 
L 256.545731 247.034332 
L 256.577671 247.18916 
L 256.801251 247.911689 
L 256.833191 247.963299 
L 256.881102 248.066517 
L 256.913042 247.808471 
L 257.008862 247.705252 
L 257.024832 247.808471 
L 257.392142 249.459967 
L 257.471992 249.872841 
L 257.503932 249.718013 
L 257.647662 248.324563 
L 257.663633 248.479391 
L 258.158703 255.653078 
L 258.238553 254.77572 
L 258.286463 254.414456 
L 258.350343 254.620893 
L 258.398253 254.672502 
L 258.829444 257.717448 
L 258.877354 257.201355 
L 259.100934 255.291813 
L 259.180784 254.878939 
L 259.228695 255.033767 
L 259.324515 254.930548 
L 259.420335 254.672502 
L 259.452275 254.77572 
L 259.611975 255.911124 
L 259.643915 255.549859 
L 259.771675 253.072615 
L 259.819585 253.743535 
L 259.947345 255.704687 
L 259.979285 255.033767 
L 260.154956 245.847319 
L 260.570176 221.59097 
L 260.777787 206.159803 
L 260.809727 205.746929 
L 260.857637 206.521067 
L 260.905547 207.70808 
L 261.065247 221.642579 
L 261.767928 293.998754 
L 261.831808 294.2568 
L 261.847778 294.101972 
L 262.119268 288.166908 
L 262.390759 281.509314 
L 262.518519 279.393335 
L 262.790009 273.613098 
L 262.869859 273.716317 
L 262.917769 273.613098 
L 263.013589 272.322867 
L 263.39687 267.832862 
L 263.58851 266.026538 
L 263.63642 266.387803 
L 263.66836 266.491021 
L 263.71627 266.232975 
L 263.79612 264.065386 
L 263.923881 257.252965 
L 264.195371 242.389499 
L 264.243281 241.976625 
L 264.275221 242.389499 
L 264.514771 245.331227 
L 264.562681 245.228008 
L 264.690442 244.711916 
L 264.706412 244.866743 
L 264.866112 248.840656 
L 265.089692 261.846188 
L 265.105662 261.897797 
L 265.121632 261.846188 
L 265.185512 257.717448 
L 265.361182 246.260193 
L 265.409092 246.673067 
L 265.425062 246.673067 
L 265.536853 240.996049 
L 265.840283 225.203617 
L 266.095803 218.391196 
L 266.207593 227.061551 
L 266.287444 230.880635 
L 266.335354 230.003278 
L 266.383264 229.125921 
L 266.431174 230.003278 
L 266.558934 238.776851 
L 266.798484 250.905026 
L 267.277585 265.252399 
L 267.501165 268.607001 
L 267.549075 268.297345 
L 267.660865 267.058723 
L 267.692805 267.26516 
L 267.916386 269.742404 
L 267.932356 269.639186 
L 268.076086 267.316769 
L 268.347576 260.194692 
L 268.651007 252.04043 
L 269.178017 238.363977 
L 269.321747 237.589839 
L 269.417568 237.48662 
L 269.481448 237.331792 
L 269.529358 237.383402 
L 269.752938 239.396162 
L 269.848758 240.428348 
L 269.896668 240.170301 
L 270.072338 240.221911 
L 270.216069 241.770188 
L 270.647259 247.447206 
L 270.663229 247.395597 
L 270.790989 246.415021 
L 270.854869 246.776286 
L 270.95069 247.911689 
L 271.27009 253.330661 
L 271.46173 253.227443 
L 271.62143 251.524337 
L 272.100531 242.131453 
L 272.228291 239.912255 
L 272.276201 239.963864 
L 272.419931 240.428348 
L 272.531722 242.389499 
L 272.883062 248.737438 
L 273.010822 251.679165 
L 273.218432 254.259628 
L 273.298283 254.77572 
L 273.346193 254.517674 
L 273.713503 252.298476 
L 273.745443 252.556522 
L 273.857233 253.485489 
L 273.889173 252.969396 
L 273.969023 251.833993 
L 274.016933 252.298476 
L 274.160664 255.033767 
L 274.192604 254.672502 
L 274.543944 248.737438 
L 274.591854 248.995484 
L 274.767524 249.459967 
L 274.863345 249.511576 
L 274.927225 249.97606 
L 274.975135 249.614795 
L 275.070955 248.066517 
L 275.118865 248.685828 
L 275.390355 255.395031 
L 275.486175 254.362846 
L 275.518115 252.866178 
L 275.581995 254.414456 
L 275.853486 259.936646 
L 275.981246 261.381705 
L 276.156916 262.671936 
L 276.188856 262.620327 
L 276.252736 262.362281 
L 276.300646 262.620327 
L 276.316616 262.620327 
L 276.396466 265.252399 
L 276.508257 269.587576 
L 276.572137 269.123093 
L 276.620047 268.865047 
L 276.683927 269.123093 
L 276.859597 271.909993 
L 276.923477 270.877808 
L 277.035267 269.32953 
L 277.067207 269.381139 
L 277.147057 269.742404 
L 277.163027 269.639186 
L 277.290788 267.523206 
L 277.354668 268.297345 
L 277.418548 268.710219 
L 277.450488 268.297345 
L 277.801828 262.775155 
L 277.817798 262.671936 
L 277.849738 262.929983 
L 278.248989 271.032635 
L 278.328839 269.381139 
L 278.376749 268.865047 
L 278.408689 269.484358 
L 278.504509 271.806774 
L 278.552419 270.774589 
L 278.632269 269.897232 
L 278.664209 270.258497 
L 278.96764 275.006548 
L 279.01555 274.542065 
L 279.46271 270.361715 
L 279.49465 270.929417 
L 279.670321 273.613098 
L 279.686291 273.50988 
L 279.702261 273.50988 
L 279.782111 273.871144 
L 279.814051 273.767926 
L 279.861961 273.251833 
L 280.181361 269.742404 
L 280.197331 269.742404 
L 280.452852 246.673067 
L 280.820162 207.295206 
L 280.915982 208.482219 
L 281.107623 212.198085 
L 281.187473 216.068779 
L 281.778363 274.232409 
L 281.842243 273.974363 
L 282.033884 270.103669 
L 282.353284 265.355617 
L 282.800445 260.039864 
L 282.960145 258.130322 
L 282.992085 258.28515 
L 283.167755 261.123659 
L 283.247605 260.297911 
L 283.423275 258.646414 
L 283.455216 258.904461 
L 283.742676 262.929983 
L 283.998196 253.743535 
L 284.030136 253.743535 
L 284.221777 252.608132 
L 284.381477 254.930548 
L 284.461327 254.878939 
L 284.509237 255.291813 
L 284.732817 260.194692 
L 284.860577 266.749067 
L 284.908487 266.026538 
L 284.924457 265.974929 
L 284.940427 266.129756 
L 285.148038 268.710219 
L 285.243858 268.297345 
L 285.403558 267.574815 
L 285.499378 267.523206 
L 285.611168 266.232975 
L 285.770868 263.652512 
L 285.802809 264.065386 
L 285.914599 266.800677 
L 285.978479 265.974929 
L 286.074299 265.252399 
L 286.106239 265.458836 
L 286.170119 266.026538 
L 286.218029 265.613664 
L 286.409669 263.394466 
L 286.489519 263.80734 
L 286.68116 265.768492 
L 286.77698 267.007114 
L 286.82489 266.284584 
L 286.98459 264.426651 
L 287.0325 264.684697 
L 287.16026 265.355617 
L 287.30399 268.813438 
L 287.383841 267.316769 
L 287.495631 265.87171 
L 287.527571 266.026538 
L 287.575481 266.129756 
L 287.607421 265.974929 
L 287.703241 265.458836 
L 287.735181 265.716882 
L 287.831001 267.678034 
L 287.910851 268.348954 
L 287.942791 268.039299 
L 288.214282 264.426651 
L 288.246222 264.581479 
L 288.389952 265.716882 
L 288.421892 265.355617 
L 288.565622 263.033201 
L 288.597562 263.291247 
L 288.725322 264.47826 
L 288.757262 264.220214 
L 288.805172 264.220214 
L 288.932933 267.26516 
L 289.140543 270.774589 
L 289.188453 270.413324 
L 289.364123 269.071484 
L 289.396063 269.32953 
L 289.523823 270.516543 
L 289.539793 270.361715 
L 289.811284 264.220214 
L 290.002924 254.878939 
L 290.242474 242.234671 
L 290.402174 238.776851 
L 290.497995 238.002713 
L 290.529935 238.15754 
L 290.705605 239.034898 
L 290.737545 238.88007 
L 290.801425 238.518805 
L 290.833365 238.776851 
L 290.865305 239.292944 
L 291.440226 272.580913 
L 291.695746 275.935515 
L 291.807536 277.483792 
L 291.839476 276.9677 
L 292.302607 267.832862 
L 292.494247 268.968265 
L 292.526187 269.071484 
L 292.637977 269.484358 
L 292.669917 269.226312 
L 292.781707 268.090908 
L 292.813647 268.452173 
L 293.053198 269.845623 
L 293.133048 269.587576 
L 293.164988 269.639186 
L 293.324688 270.774589 
L 293.340658 270.671371 
L 293.388568 270.774589 
L 293.436478 270.929417 
L 293.484388 270.671371 
L 293.548268 270.103669 
L 293.612149 269.845623 
L 293.644089 270.103669 
L 293.723939 270.413324 
L 293.755879 270.155278 
L 293.915579 268.710219 
L 293.963489 269.123093 
L 294.059309 270.103669 
L 294.107219 269.742404 
L 294.45856 265.716882 
L 294.66617 245.12479 
L 294.85781 238.15754 
L 295.01751 237.641448 
L 295.04945 237.847885 
L 295.432731 242.544327 
L 295.736161 268.194126 
L 295.943772 270.929417 
L 296.007652 271.135854 
L 296.039592 270.877808 
L 296.327052 267.007114 
L 296.358992 267.161941 
L 296.422872 268.090908 
L 296.614512 270.671371 
L 296.630482 270.619761 
L 296.965853 269.123093 
L 296.997793 269.226312 
L 297.125553 270.103669 
L 297.173463 269.742404 
L 297.253313 269.381139 
L 297.301223 269.639186 
L 297.397043 269.845623 
L 297.413013 269.742404 
L 297.572714 268.710219 
L 297.636594 268.968265 
L 297.652564 268.968265 
L 297.764354 267.781252 
L 297.812264 268.452173 
L 297.924054 270.103669 
L 297.971964 269.742404 
L 298.051814 269.484358 
L 298.067784 269.587576 
L 298.211514 270.929417 
L 298.259424 270.619761 
L 298.355245 270.361715 
L 298.387185 270.516543 
L 298.658675 272.993787 
L 298.754495 273.613098 
L 298.786435 273.355052 
L 298.818375 273.200224 
L 298.866285 273.45827 
L 299.313446 276.812872 
L 299.409266 276.709653 
L 299.489116 275.677468 
L 299.840456 269.32953 
L 300.000157 268.452173 
L 300.032097 268.348954 
L 300.255677 267.781252 
L 300.287617 267.832862 
L 300.415377 269.32953 
L 300.814628 274.025972 
L 300.894478 274.129191 
L 300.990298 274.387237 
L 301.006268 274.284019 
L 301.054178 273.716317 
L 301.724919 206.417849 
L 301.932529 205.334054 
L 301.964469 205.385664 
L 302.012379 205.850147 
L 302.57133 268.348954 
L 302.65118 267.523206 
L 302.77894 267.161941 
L 302.81088 267.058723 
L 302.87476 266.54263 
L 303.353861 262.671936 
L 303.369831 262.775155 
L 303.449681 263.962168 
L 303.721171 267.832862 
L 303.912812 269.742404 
L 304.040572 270.774589 
L 304.056542 270.671371 
L 304.168332 268.555391 
L 304.184302 268.348954 
L 304.232212 268.968265 
L 304.375942 271.44551 
L 304.407882 271.032635 
L 304.551613 269.484358 
L 304.583553 269.639186 
L 304.679373 269.897232 
L 304.695343 269.742404 
L 304.791163 268.090908 
L 304.918923 265.355617 
L 304.966833 265.974929 
L 305.126533 268.090908 
L 305.158473 267.832862 
L 305.685484 260.194692 
L 305.717424 260.34952 
L 305.845184 261.484923 
L 305.877124 261.072049 
L 306.292345 254.156409 
L 306.356225 253.640317 
L 306.436075 252.969396 
L 306.515925 253.124224 
L 306.723535 255.188594 
L 307.410246 268.348954 
L 307.458156 268.297345 
L 307.649796 266.491021 
L 307.873377 263.652512 
L 307.921287 264.168605 
L 308.001137 264.684697 
L 308.017107 264.426651 
L 308.432327 257.201355 
L 308.512178 257.252965 
L 308.528148 257.201355 
L 308.879488 254.362846 
L 309.023218 252.969396 
L 309.039188 253.072615 
L 309.087098 252.969396 
L 309.246799 250.801808 
L 309.310679 251.524337 
L 309.566199 254.001581 
L 309.757839 255.962733 
L 310.06127 262.620327 
L 310.22097 265.355617 
L 310.25291 265.20079 
L 310.44455 264.065386 
L 310.57231 263.962168 
L 310.65216 262.362281 
L 310.77992 260.607566 
L 310.811861 260.814003 
L 310.843801 260.814003 
L 311.482601 253.898363 
L 311.738122 252.866178 
L 311.802002 252.298476 
L 311.849912 252.71135 
L 312.233192 255.446641 
L 312.265132 255.395031 
L 312.329012 255.033767 
L 312.360953 255.291813 
L 312.520653 257.252965 
L 312.552593 256.427216 
L 312.808113 242.286281 
L 313.159454 214.159237 
L 313.271244 217.875103 
L 313.718404 244.350651 
L 314.229445 285.999319 
L 314.437055 284.038168 
L 314.884216 276.864481 
L 314.932126 277.380574 
L 315.059886 279.806209 
L 315.091826 279.548162 
L 315.315406 274.284019 
L 315.395256 275.006548 
L 315.443166 275.264594 
L 315.491077 275.006548 
L 315.666747 274.387237 
L 315.682717 274.490456 
L 315.746597 275.935515 
L 315.842417 278.154713 
L 315.890327 277.483792 
L 316.034057 274.645283 
L 316.065997 274.800111 
L 316.289578 276.812872 
L 316.513158 274.645283 
L 316.800618 272.838959 
L 316.912408 272.942178 
L 317.056139 273.45827 
L 317.151959 273.355052 
L 317.295689 272.426085 
L 317.327629 272.735741 
L 317.615089 277.63862 
L 317.647029 277.483792 
L 317.85464 276.864481 
L 318.06225 278.619196 
L 318.12613 278.103103 
L 318.39762 275.935515 
L 318.685081 274.748502 
L 318.717021 274.645283 
L 318.748961 274.542065 
L 318.796871 274.748502 
L 318.844781 274.800111 
L 318.876721 274.645283 
L 319.020451 270.929417 
L 319.100301 272.735741 
L 319.307911 276.090342 
L 319.339851 276.296779 
L 319.387762 276.038733 
L 319.467612 275.522641 
L 319.515522 275.780687 
L 319.579402 276.193561 
L 319.627312 276.038733 
L 319.834922 272.942178 
L 319.882832 273.716317 
L 320.010592 276.709653 
L 320.058502 276.090342 
L 320.345963 273.45827 
L 320.393873 273.871144 
L 320.617453 275.006548 
L 320.649393 274.800111 
L 320.793123 274.025972 
L 320.952824 271.290682 
L 321.032674 271.703556 
L 321.096554 271.651947 
L 321.623564 265.716882 
L 321.639534 265.768492 
L 321.719384 266.903895 
L 321.879085 269.742404 
L 321.926995 269.226312 
L 322.134605 266.026538 
L 322.166545 266.232975 
L 322.246395 267.93608 
L 322.565796 272.684132 
L 322.629676 272.942178 
L 322.661616 272.684132 
L 322.805346 272.219648 
L 322.869226 272.168039 
L 322.965046 271.961602 
L 322.981016 272.064821 
L 323.124746 273.716317 
L 323.172656 273.200224 
L 323.396237 270.619761 
L 323.539967 269.639186 
L 323.555937 269.742404 
L 323.571907 269.897232 
L 323.715637 253.072615 
L 324.066977 200.431175 
L 324.146828 201.721407 
L 324.562048 210.236934 
L 324.929359 272.064821 
L 324.993239 278.103103 
L 325.057119 277.63862 
L 325.200849 275.935515 
L 325.79174 226.906723 
L 325.88756 228.196954 
L 326.19099 234.544893 
L 326.749941 277.587011 
L 326.781881 276.9677 
L 327.005461 269.484358 
L 327.468592 249.718013 
L 327.724112 246.415021 
L 327.835902 245.640882 
L 327.851872 245.744101 
L 328.235153 250.492152 
L 328.426793 252.298476 
L 328.586493 252.866178 
L 328.618433 252.556522 
L 328.634403 252.453304 
L 328.682313 252.866178 
L 328.794104 253.38227 
L 328.810074 253.330661 
L 328.857984 252.866178 
L 328.905894 253.330661 
L 329.001714 254.001581 
L 329.161414 254.517674 
L 329.225294 254.620893 
L 329.257234 254.517674 
L 329.321114 254.414456 
L 329.369024 254.517674 
L 329.416934 254.414456 
L 329.480814 253.846754 
L 329.768275 248.995484 
L 329.880065 249.872841 
L 330.311255 253.330661 
L 330.598716 259.678599 
L 330.742446 263.13642 
L 330.774386 262.775155 
L 330.854236 262.362281 
L 330.886176 262.620327 
L 330.950056 262.929983 
L 330.997966 262.671936 
L 331.093786 262.362281 
L 331.125727 262.620327 
L 331.269457 263.188029 
L 331.301397 262.878373 
L 331.524977 258.646414 
L 331.844377 253.898363 
L 331.972138 250.285715 
L 332.211688 243.576512 
L 332.259598 243.524903 
L 332.291538 243.576512 
L 332.882429 247.911689 
L 333.201829 254.620893 
L 333.217799 253.846754 
L 333.377499 251.008245 
L 333.425409 250.801808 
L 333.441379 251.008245 
L 333.80869 255.188594 
L 333.87257 255.033767 
L 333.88854 255.136985 
L 334.03227 257.511011 
L 334.431521 266.491021 
L 334.495401 265.613664 
L 334.527341 265.510445 
L 334.575251 265.768492 
L 334.878681 268.555391 
L 334.990471 267.161941 
L 335.070322 265.768492 
L 335.134202 266.129756 
L 335.245992 267.058723 
L 335.293902 266.645849 
L 335.613302 262.517108 
L 335.645242 262.671936 
L 335.868823 264.839525 
L 336.092403 266.491021 
L 336.124343 266.284584 
L 336.236133 265.355617 
L 336.284043 265.768492 
L 336.475683 269.123093 
L 336.523593 268.297345 
L 336.795084 260.607566 
L 336.922844 258.491587 
L 337.130454 254.930548 
L 337.178364 255.136985 
L 337.306124 255.911124 
L 337.465825 258.491587 
L 337.705375 270.671371 
L 337.769255 269.845623 
L 337.833135 269.071484 
L 337.881045 269.484358 
L 337.976865 271.548728 
L 338.040745 271.135854 
L 338.104625 270.361715 
L 338.152536 270.671371 
L 338.200446 270.774589 
L 338.216416 270.619761 
L 338.408056 263.80734 
L 338.535816 254.77572 
L 338.695516 250.801808 
L 338.711486 250.750198 
L 338.743426 250.801808 
L 338.839246 251.421119 
L 338.887156 251.3179 
L 338.903126 251.3179 
L 338.998947 253.846754 
L 339.142677 255.033767 
L 339.174617 255.136985 
L 339.462077 261.484923 
L 339.653717 264.684697 
L 339.765508 265.87171 
L 339.797448 265.716882 
L 339.973118 264.994353 
L 340.005058 265.097571 
L 340.196698 266.129756 
L 340.228638 265.87171 
L 340.404308 264.581479 
L 340.452218 264.47826 
L 340.595949 263.652512 
L 340.819529 261.846188 
L 340.899379 262.362281 
L 340.931319 261.897797 
L 341.154899 258.749633 
L 341.186839 259.007679 
L 341.49027 262.259062 
L 341.77773 260.039864 
L 341.85758 258.543196 
L 341.88952 259.162507 
L 342.00131 261.072049 
L 342.049221 260.452738 
L 342.081161 260.34952 
L 342.129071 260.607566 
L 342.145041 260.607566 
L 342.224891 259.059288 
L 342.384591 255.291813 
L 342.432501 255.807905 
L 342.719961 258.027103 
L 342.799811 257.459402 
L 342.847722 257.201355 
L 342.895632 257.459402 
L 342.991452 258.388368 
L 343.039362 258.027103 
L 343.167122 256.736872 
L 343.598312 207.70808 
L 343.710103 210.546589 
L 343.933683 214.262456 
L 344.125323 220.558785 
L 344.604424 279.444944 
L 344.652334 279.03207 
L 344.828004 272.684132 
L 345.115464 262.155844 
L 345.163374 262.517108 
L 345.275165 263.291247 
L 345.323075 263.13642 
L 345.355015 263.033201 
L 345.498745 261.484923 
L 345.594565 260.710785 
L 345.626505 261.072049 
L 345.929935 268.607001 
L 345.993816 267.161941 
L 346.425006 249.098702 
L 346.568736 249.872841 
L 346.600676 249.511576 
L 346.888137 246.002147 
L 347.063807 253.38227 
L 347.207537 258.027103 
L 347.239477 257.872276 
L 347.351267 256.582044 
L 347.542908 252.350085 
L 347.606788 252.556522 
L 347.702608 252.556522 
L 347.830368 254.672502 
L 348.517079 271.548728 
L 348.740659 273.716317 
L 348.788569 273.251833 
L 348.964239 268.813438 
L 349.28364 257.201355 
L 349.45931 246.51824 
L 349.84259 210.49498 
L 349.906471 211.785211 
L 350.433481 238.260759 
L 350.641091 261.330096 
L 350.832732 274.542065 
L 350.848702 274.490456 
L 350.912582 273.50988 
L 351.152132 270.774589 
L 351.295862 270.671371 
L 351.439593 270.00045 
L 351.727053 265.20079 
L 351.774963 265.097571 
L 351.790933 265.252399 
L 351.918693 267.316769 
L 351.982573 266.800677 
L 352.238094 262.775155 
L 352.286004 262.671936 
L 352.317944 262.620327 
L 352.365854 262.775155 
L 352.493614 263.80734 
L 352.541524 263.446075 
L 352.589434 263.446075 
L 352.733164 264.994353 
L 352.781074 264.581479 
L 352.844954 264.323432 
L 352.860924 264.47826 
L 353.052565 268.194126 
L 353.084505 267.523206 
L 353.260175 263.962168 
L 353.292115 264.323432 
L 353.515695 266.284584 
L 353.851066 269.123093 
L 354.218376 273.974363 
L 354.250316 273.251833 
L 354.314196 272.684132 
L 354.346136 273.097006 
L 354.425986 274.90333 
L 354.473896 275.419422 
L 354.521806 275.006548 
L 354.713447 271.290682 
L 354.984937 265.252399 
L 355.000907 265.355617 
L 355.032847 265.458836 
L 355.144637 266.129756 
L 355.208517 265.768492 
L 355.703588 259.523772 
L 355.767468 259.162507 
L 355.799408 259.420553 
L 355.927168 261.226877 
L 355.991048 260.452738 
L 356.086868 259.420553 
L 356.134779 260.091474 
L 356.629849 269.742404 
L 356.709699 271.290682 
L 356.757609 270.619761 
L 356.821489 266.749067 
L 356.99716 260.865612 
L 357.30059 257.252965 
L 357.58805 247.808471 
L 357.63596 248.58261 
L 357.795661 254.672502 
L 358.019241 261.072049 
L 358.083121 261.639751 
L 358.306701 263.704121 
L 358.482372 265.510445 
L 358.514312 265.355617 
L 358.833712 262.104234 
L 358.913562 262.41389 
L 358.977442 263.549294 
L 359.073262 264.168605 
L 359.105202 263.910558 
L 359.216992 263.549294 
L 359.232962 263.652512 
L 359.488483 265.87171 
L 359.536393 265.613664 
L 359.919673 262.41389 
L 360.047434 260.607566 
L 360.095344 261.072049 
L 360.350864 264.839525 
L 360.478624 266.026538 
L 360.526534 265.716882 
L 360.606384 264.839525 
L 360.638324 265.20079 
L 360.941755 268.968265 
L 360.989665 269.381139 
L 361.037575 269.123093 
L 361.341005 264.994353 
L 361.372945 265.20079 
L 361.436825 265.716882 
L 361.580555 268.297345 
L 361.644436 267.678034 
L 361.804136 264.839525 
L 361.883986 265.355617 
L 362.075626 266.026538 
L 362.091596 265.974929 
L 362.155476 265.87171 
L 362.267266 264.47826 
L 362.379057 262.671936 
L 362.442937 263.394466 
L 362.730397 267.832862 
L 362.778307 267.316769 
L 363.033827 264.426651 
L 363.081737 264.220214 
L 363.113677 264.581479 
L 363.321288 267.26516 
L 363.353228 266.903895 
L 363.656658 264.994353 
L 363.688598 265.458836 
L 363.800388 267.26516 
L 363.864268 266.749067 
L 363.896208 266.645849 
L 363.928149 266.800677 
L 364.039939 267.93608 
L 364.071879 267.781252 
L 364.263519 264.736306 
L 364.327399 265.355617 
L 364.343369 265.458836 
L 364.391279 265.097571 
L 364.455159 264.736306 
L 364.487099 264.994353 
L 364.614859 265.974929 
L 364.630829 265.87171 
L 364.694709 265.613664 
L 364.72665 265.768492 
L 364.88635 267.574815 
L 364.95023 267.419988 
L 365.01411 267.161941 
L 365.04605 267.419988 
L 365.20575 270.877808 
L 365.25366 269.742404 
L 365.41336 265.20079 
L 365.46127 265.510445 
L 365.589031 266.54263 
L 365.620971 266.284584 
L 365.764701 263.962168 
L 365.812611 264.47826 
L 366.004251 266.026538 
L 366.116041 266.026538 
L 366.339622 270.00045 
L 366.403502 268.607001 
L 366.595142 263.394466 
L 366.643052 263.962168 
L 366.722902 264.426651 
L 366.738872 264.168605 
L 366.898572 258.027103 
L 366.962452 259.523772 
L 367.074243 261.226877 
L 367.106183 260.710785 
L 367.265883 259.162507 
L 367.297823 259.317335 
L 367.713043 267.678034 
L 367.856774 273.50988 
L 367.904684 272.838959 
L 368.032444 269.742404 
L 368.080354 270.155278 
L 368.287964 273.716317 
L 368.319904 273.45827 
L 368.575424 270.103669 
L 368.878855 266.903895 
L 368.910795 266.54263 
L 368.974675 267.007114 
L 369.054525 267.523206 
L 369.102435 267.419988 
L 369.341985 264.065386 
L 369.773176 256.323998 
L 369.789146 256.427216 
L 369.821086 256.323998 
L 369.884966 255.395031 
L 370.188397 248.995484 
L 370.204367 249.098702 
L 370.284217 250.750198 
L 370.763317 260.452738 
L 370.938987 261.484923 
L 370.970928 261.123659 
L 371.050778 260.555957 
L 371.082718 260.865612 
L 371.322268 264.942743 
L 371.354208 264.839525 
L 371.418088 263.80734 
L 371.673608 260.039864 
L 371.785399 259.781818 
L 371.801369 259.833427 
L 371.977039 261.588142 
L 372.040919 262.775155 
L 372.104799 262.001016 
L 372.280469 259.936646 
L 372.328379 260.039864 
L 372.424199 261.846188 
L 372.504049 263.188029 
L 372.55196 262.671936 
L 372.87136 260.607566 
L 372.9033 260.710785 
L 372.95121 260.452738 
L 373.17479 258.28515 
L 373.25464 256.84009 
L 373.318521 257.252965 
L 373.350461 257.356183 
L 373.398371 257.098137 
L 373.446281 256.84009 
L 373.494191 257.201355 
L 373.637921 259.523772 
L 373.925381 264.47826 
L 373.989261 264.323432 
L 374.069111 264.323432 
L 374.244782 268.039299 
L 374.340602 267.007114 
L 374.644032 263.704121 
L 374.707912 263.652512 
L 374.723882 263.704121 
L 374.803732 263.910558 
L 374.819702 263.704121 
L 375.043283 261.330096 
L 375.059253 261.381705 
L 375.091193 261.484923 
L 375.187013 262.001016 
L 375.218953 261.846188 
L 375.314773 261.123659 
L 375.346713 261.588142 
L 375.602233 265.87171 
L 375.634173 265.510445 
L 375.761934 263.80734 
L 375.809844 264.426651 
L 376.065364 269.123093 
L 376.129244 268.813438 
L 376.145214 268.710219 
L 376.193124 269.071484 
L 376.320884 271.290682 
L 376.368794 270.413324 
L 376.560435 267.93608 
L 376.592375 268.194126 
L 376.688195 269.071484 
L 376.752075 268.710219 
L 376.927745 268.297345 
L 377.023565 268.968265 
L 377.151325 270.103669 
L 377.199235 269.639186 
L 377.326996 268.194126 
L 377.406846 268.555391 
L 377.710276 270.516543 
L 377.806096 270.413324 
L 377.965796 269.587576 
L 378.109527 267.523206 
L 378.173407 267.93608 
L 378.317137 270.361715 
L 378.365047 270.00045 
L 378.460867 269.484358 
L 378.492807 269.639186 
L 378.540717 269.587576 
L 378.923998 267.781252 
L 378.971908 267.832862 
L 379.115638 269.845623 
L 379.163548 269.32953 
L 379.275338 268.297345 
L 379.307278 268.452173 
L 379.419068 269.123093 
L 379.451008 269.071484 
L 379.498918 268.968265 
L 379.642649 268.555391 
L 379.658619 268.607001 
L 380.009959 271.032635 
L 380.057869 270.671371 
L 380.217569 269.123093 
L 380.297419 269.32953 
L 380.34533 269.226312 
L 380.521 268.194126 
L 380.55294 268.452173 
L 380.63279 268.968265 
L 380.66473 268.607001 
L 380.90428 267.523206 
L 381.07995 266.026538 
L 381.09592 266.129756 
L 381.495171 269.32953 
L 381.511141 269.226312 
L 381.734721 267.058723 
L 381.942332 265.974929 
L 382.006212 266.026538 
L 382.022182 265.974929 
L 382.373522 262.775155 
L 382.517252 262.362281 
L 382.533222 262.41389 
L 382.740833 263.80734 
L 382.804713 263.80734 
L 382.868593 262.259062 
L 382.996353 257.975494 
L 383.044263 259.059288 
L 383.124113 260.555957 
L 383.172023 259.936646 
L 383.379633 257.614229 
L 383.810824 253.330661 
L 383.842764 254.1048 
L 384.002464 260.34952 
L 384.082314 259.678599 
L 384.130224 259.781818 
L 384.162164 259.523772 
L 384.226044 259.575381 
L 384.321865 260.710785 
L 384.848875 271.703556 
L 384.880815 271.3939 
L 385.056486 269.742404 
L 385.072456 269.845623 
L 385.168276 271.806774 
L 385.312006 272.735741 
L 385.359916 272.993787 
L 385.407826 272.684132 
L 385.471706 272.322867 
L 385.503646 272.684132 
L 385.615436 274.800111 
L 385.679316 274.025972 
L 385.823047 272.684132 
L 385.854987 272.735741 
L 386.110507 274.490456 
L 386.158417 273.974363 
L 386.350057 271.806774 
L 386.381997 272.064821 
L 386.429907 272.426085 
L 386.477817 272.064821 
L 386.685428 270.413324 
L 386.749308 269.845623 
L 386.956918 268.555391 
L 387.132588 268.090908 
L 387.212438 268.039299 
L 387.436019 266.54263 
L 387.499899 266.491021 
L 387.659599 265.768492 
L 387.723479 265.20079 
L 387.867209 263.446075 
L 387.915119 263.704121 
L 388.138699 264.47826 
L 388.15467 264.47826 
L 388.2984 265.87171 
L 388.33034 265.716882 
L 388.52198 264.581479 
L 388.58586 264.684697 
L 388.79347 267.161941 
L 388.85735 266.491021 
L 389.033021 264.994353 
L 389.048991 265.097571 
L 389.144811 265.613664 
L 389.208691 265.458836 
L 389.240631 265.355617 
L 389.416301 264.323432 
L 389.464211 264.47826 
L 389.639881 265.355617 
L 389.703761 265.458836 
L 389.943312 268.194126 
L 390.039132 267.93608 
L 390.214802 266.645849 
L 390.246742 266.800677 
L 390.326592 268.039299 
L 390.454352 269.381139 
L 390.486292 269.071484 
L 390.534203 268.865047 
L 390.582113 269.123093 
L 390.614053 269.226312 
L 390.693903 269.484358 
L 390.709873 269.32953 
L 390.917483 268.039299 
L 390.997333 267.832862 
L 391.029273 268.039299 
L 391.236883 269.484358 
L 391.268823 269.32953 
L 391.332704 269.123093 
L 391.380614 269.32953 
L 391.444494 269.381139 
L 391.460464 269.484358 
L 391.492404 269.123093 
L 391.763894 267.523206 
L 391.891654 269.742404 
L 392.067325 271.3939 
L 392.099265 271.44551 
L 392.195085 272.684132 
L 392.322845 273.974363 
L 392.370755 273.871144 
L 392.402695 273.974363 
L 392.450605 274.490456 
L 392.690155 276.606435 
L 392.738065 276.554826 
L 392.833885 275.419422 
L 393.025526 273.45827 
L 393.281046 271.806774 
L 393.328956 272.168039 
L 393.472686 272.580913 
L 393.504626 272.684132 
L 393.744177 275.935515 
L 393.760147 276.296779 
L 393.792087 274.542065 
L 393.999697 253.124224 
L 394.798198 167.452862 
L 394.909988 170.755854 
L 395.085658 181.748625 
L 395.213419 180.819659 
L 395.261329 181.129314 
L 395.341179 181.077705 
L 395.357149 181.077705 
L 395.532819 177.103792 
L 395.580729 174.781376 
L 395.628639 176.329653 
L 395.772369 181.077705 
L 395.820279 180.71644 
L 395.948039 175.452296 
L 396.26744 157.750322 
L 396.28341 157.750322 
L 396.36326 159.040553 
L 396.42714 158.369633 
L 396.44311 158.008368 
L 396.47505 158.885725 
L 396.53893 161.621016 
L 396.58684 159.96952 
L 396.810421 153.105489 
L 396.970121 145.725366 
L 397.065941 147.944563 
L 397.289521 156.563309 
L 397.353401 155.840779 
L 397.449221 154.39572 
L 397.656832 149.079967 
L 397.880412 144.435134 
L 397.896382 144.69318 
L 398.183842 150.421808 
L 398.215782 150.370198 
L 398.231752 150.525026 
L 398.359513 152.073304 
L 398.471303 153.260317 
L 398.487273 153.208707 
" style="fill:none;stroke:#1f77b4;stroke-linecap:square;stroke-width:1.5;"/>
   </g>
   <g id="patch_3">
    <path d="M 57.6 306.3024 
L 57.6 41.2992 
" style="fill:none;stroke:#000000;stroke-linecap:square;stroke-linejoin:miter;stroke-width:0.8;"/>
   </g>
   <g id="patch_4">
    <path d="M 414.72 306.3024 
L 414.72 41.2992 
" style="fill:none;stroke:#000000;stroke-linecap:square;stroke-linejoin:miter;stroke-width:0.8;"/>
   </g>
   <g id="patch_5">
    <path d="M 57.6 306.3024 
L 414.72 306.3024 
" style="fill:none;stroke:#000000;stroke-linecap:square;stroke-linejoin:miter;stroke-width:0.8;"/>
   </g>
   <g id="patch_6">
    <path d="M 57.6 41.2992 
L 414.72 41.2992 
" style="fill:none;stroke:#000000;stroke-linecap:square;stroke-linejoin:miter;stroke-width:0.8;"/>
   </g>
   <g id="text_17">
    <!-- Ritmo Cardíaco -->
    <g transform="translate(190.094063 35.2992)scale(0.12 -0.12)">
     <use xlink:href="#DejaVuSans-82"/>
     <use x="69.482422" xlink:href="#DejaVuSans-105"/>
     <use x="97.265625" xlink:href="#DejaVuSans-116"/>
     <use x="136.474609" xlink:href="#DejaVuSans-109"/>
     <use x="233.886719" xlink:href="#DejaVuSans-111"/>
     <use x="295.068359" xlink:href="#DejaVuSans-32"/>
     <use x="326.855469" xlink:href="#DejaVuSans-67"/>
     <use x="396.679688" xlink:href="#DejaVuSans-97"/>
     <use x="457.958984" xlink:href="#DejaVuSans-114"/>
     <use x="499.056641" xlink:href="#DejaVuSans-100"/>
     <use x="562.533203" xlink:href="#DejaVuSans-237"/>
     <use x="590.316406" xlink:href="#DejaVuSans-97"/>
     <use x="651.595703" xlink:href="#DejaVuSans-99"/>
     <use x="706.576172" xlink:href="#DejaVuSans-111"/>
    </g>
   </g>
  </g>
 </g>
 <defs>
  <clipPath id="pdfc3ee8c40">
   <rect height="265.0032" width="357.12" x="57.6" y="41.2992"/>
  </clipPath>
 </defs>
</svg>
