<?xml version="1.0" encoding="utf-8" standalone="no"?>
<!DOCTYPE svg PUBLIC "-//W3C//DTD SVG 1.1//EN"
  "http://www.w3.org/Graphics/SVG/1.1/DTD/svg11.dtd">
<!-- Created with matplotlib (https://matplotlib.org/) -->
<svg height="344.16pt" version="1.1" viewBox="0 0 460.8 344.16" width="460.8pt" xmlns="http://www.w3.org/2000/svg" xmlns:xlink="http://www.w3.org/1999/xlink">
 <defs>
  <style type="text/css">
*{stroke-linecap:butt;stroke-linejoin:round;}
  </style>
 </defs>
 <g id="figure_1">
  <g id="patch_1">
   <path d="M 0 344.16 
L 460.8 344.16 
L 460.8 0 
L 0 0 
z
" style="fill:#ffffff;"/>
  </g>
  <g id="axes_1">
   <g id="patch_2">
    <path d="M 38.27 302.374833 
L 450 302.374833 
L 450 26.051 
L 38.27 26.051 
z
" style="fill:#ffffff;"/>
   </g>
   <g id="patch_3">
    <path clip-path="url(#p7c7dea1a1a)" d="M 56.985 302.374833 
L 60.728 302.374833 
L 60.728 299.5752 
L 56.985 299.5752 
z
" style="fill:#1f77b4;"/>
   </g>
   <g id="patch_4">
    <path clip-path="url(#p7c7dea1a1a)" d="M 60.728 302.374833 
L 64.471 302.374833 
L 64.471 289.776482 
L 60.728 289.776482 
z
" style="fill:#1f77b4;"/>
   </g>
   <g id="patch_5">
    <path clip-path="url(#p7c7dea1a1a)" d="M 64.471 302.374833 
L 68.214 302.374833 
L 68.214 302.374833 
L 64.471 302.374833 
z
" style="fill:#1f77b4;"/>
   </g>
   <g id="patch_6">
    <path clip-path="url(#p7c7dea1a1a)" d="M 68.214 302.374833 
L 71.957 302.374833 
L 71.957 285.577032 
L 68.214 285.577032 
z
" style="fill:#1f77b4;"/>
   </g>
   <g id="patch_7">
    <path clip-path="url(#p7c7dea1a1a)" d="M 71.957 302.374833 
L 75.7 302.374833 
L 75.7 277.178131 
L 71.957 277.178131 
z
" style="fill:#1f77b4;"/>
   </g>
   <g id="patch_8">
    <path clip-path="url(#p7c7dea1a1a)" d="M 75.7 302.374833 
L 79.443 302.374833 
L 79.443 302.374833 
L 75.7 302.374833 
z
" style="fill:#1f77b4;"/>
   </g>
   <g id="patch_9">
    <path clip-path="url(#p7c7dea1a1a)" d="M 79.443 302.374833 
L 83.186 302.374833 
L 83.186 282.777398 
L 79.443 282.777398 
z
" style="fill:#1f77b4;"/>
   </g>
   <g id="patch_10">
    <path clip-path="url(#p7c7dea1a1a)" d="M 83.186 302.374833 
L 86.929 302.374833 
L 86.929 293.975933 
L 83.186 293.975933 
z
" style="fill:#1f77b4;"/>
   </g>
   <g id="patch_11">
    <path clip-path="url(#p7c7dea1a1a)" d="M 86.929 302.374833 
L 90.672 302.374833 
L 90.672 302.374833 
L 86.929 302.374833 
z
" style="fill:#1f77b4;"/>
   </g>
   <g id="patch_12">
    <path clip-path="url(#p7c7dea1a1a)" d="M 90.672 302.374833 
L 94.415 302.374833 
L 94.415 293.975933 
L 90.672 293.975933 
z
" style="fill:#1f77b4;"/>
   </g>
   <g id="patch_13">
    <path clip-path="url(#p7c7dea1a1a)" d="M 94.415 302.374833 
L 98.158 302.374833 
L 98.158 302.374833 
L 94.415 302.374833 
z
" style="fill:#1f77b4;"/>
   </g>
   <g id="patch_14">
    <path clip-path="url(#p7c7dea1a1a)" d="M 98.158 302.374833 
L 101.901 302.374833 
L 101.901 296.775566 
L 98.158 296.775566 
z
" style="fill:#1f77b4;"/>
   </g>
   <g id="patch_15">
    <path clip-path="url(#p7c7dea1a1a)" d="M 101.901 302.374833 
L 105.644 302.374833 
L 105.644 293.975933 
L 101.901 293.975933 
z
" style="fill:#1f77b4;"/>
   </g>
   <g id="patch_16">
    <path clip-path="url(#p7c7dea1a1a)" d="M 105.644 302.374833 
L 109.387 302.374833 
L 109.387 302.374833 
L 105.644 302.374833 
z
" style="fill:#1f77b4;"/>
   </g>
   <g id="patch_17">
    <path clip-path="url(#p7c7dea1a1a)" d="M 109.387 302.374833 
L 113.13 302.374833 
L 113.13 285.577032 
L 109.387 285.577032 
z
" style="fill:#1f77b4;"/>
   </g>
   <g id="patch_18">
    <path clip-path="url(#p7c7dea1a1a)" d="M 113.13 302.374833 
L 116.873 302.374833 
L 116.873 291.176299 
L 113.13 291.176299 
z
" style="fill:#1f77b4;"/>
   </g>
   <g id="patch_19">
    <path clip-path="url(#p7c7dea1a1a)" d="M 116.873 302.374833 
L 120.616 302.374833 
L 120.616 302.374833 
L 116.873 302.374833 
z
" style="fill:#1f77b4;"/>
   </g>
   <g id="patch_20">
    <path clip-path="url(#p7c7dea1a1a)" d="M 120.616 302.374833 
L 124.359 302.374833 
L 124.359 274.378498 
L 120.616 274.378498 
z
" style="fill:#1f77b4;"/>
   </g>
   <g id="patch_21">
    <path clip-path="url(#p7c7dea1a1a)" d="M 124.359 302.374833 
L 128.102 302.374833 
L 128.102 302.374833 
L 124.359 302.374833 
z
" style="fill:#1f77b4;"/>
   </g>
   <g id="patch_22">
    <path clip-path="url(#p7c7dea1a1a)" d="M 128.102 302.374833 
L 131.845 302.374833 
L 131.845 288.376665 
L 128.102 288.376665 
z
" style="fill:#1f77b4;"/>
   </g>
   <g id="patch_23">
    <path clip-path="url(#p7c7dea1a1a)" d="M 131.845 302.374833 
L 135.588 302.374833 
L 135.588 293.975933 
L 131.845 293.975933 
z
" style="fill:#1f77b4;"/>
   </g>
   <g id="patch_24">
    <path clip-path="url(#p7c7dea1a1a)" d="M 135.588 302.374833 
L 139.331 302.374833 
L 139.331 291.176299 
L 135.588 291.176299 
z
" style="fill:#1f77b4;"/>
   </g>
   <g id="patch_25">
    <path clip-path="url(#p7c7dea1a1a)" d="M 139.331 302.374833 
L 143.074 302.374833 
L 143.074 302.374833 
L 139.331 302.374833 
z
" style="fill:#1f77b4;"/>
   </g>
   <g id="patch_26">
    <path clip-path="url(#p7c7dea1a1a)" d="M 143.074 302.374833 
L 146.817 302.374833 
L 146.817 279.977765 
L 143.074 279.977765 
z
" style="fill:#1f77b4;"/>
   </g>
   <g id="patch_27">
    <path clip-path="url(#p7c7dea1a1a)" d="M 146.817 302.374833 
L 150.56 302.374833 
L 150.56 302.374833 
L 146.817 302.374833 
z
" style="fill:#1f77b4;"/>
   </g>
   <g id="patch_28">
    <path clip-path="url(#p7c7dea1a1a)" d="M 150.56 302.374833 
L 154.303 302.374833 
L 154.303 254.781063 
L 150.56 254.781063 
z
" style="fill:#1f77b4;"/>
   </g>
   <g id="patch_29">
    <path clip-path="url(#p7c7dea1a1a)" d="M 154.303 302.374833 
L 158.046 302.374833 
L 158.046 263.179963 
L 154.303 263.179963 
z
" style="fill:#1f77b4;"/>
   </g>
   <g id="patch_30">
    <path clip-path="url(#p7c7dea1a1a)" d="M 158.046 302.374833 
L 161.789 302.374833 
L 161.789 302.374833 
L 158.046 302.374833 
z
" style="fill:#1f77b4;"/>
   </g>
   <g id="patch_31">
    <path clip-path="url(#p7c7dea1a1a)" d="M 161.789 302.374833 
L 165.532 302.374833 
L 165.532 285.577032 
L 161.789 285.577032 
z
" style="fill:#1f77b4;"/>
   </g>
   <g id="patch_32">
    <path clip-path="url(#p7c7dea1a1a)" d="M 165.532 302.374833 
L 169.275 302.374833 
L 169.275 302.374833 
L 165.532 302.374833 
z
" style="fill:#1f77b4;"/>
   </g>
   <g id="patch_33">
    <path clip-path="url(#p7c7dea1a1a)" d="M 169.275 302.374833 
L 173.018 302.374833 
L 173.018 285.577032 
L 169.275 285.577032 
z
" style="fill:#1f77b4;"/>
   </g>
   <g id="patch_34">
    <path clip-path="url(#p7c7dea1a1a)" d="M 173.018 302.374833 
L 176.761 302.374833 
L 176.761 288.376665 
L 173.018 288.376665 
z
" style="fill:#1f77b4;"/>
   </g>
   <g id="patch_35">
    <path clip-path="url(#p7c7dea1a1a)" d="M 176.761 302.374833 
L 180.504 302.374833 
L 180.504 302.374833 
L 176.761 302.374833 
z
" style="fill:#1f77b4;"/>
   </g>
   <g id="patch_36">
    <path clip-path="url(#p7c7dea1a1a)" d="M 180.504 302.374833 
L 184.247 302.374833 
L 184.247 285.577032 
L 180.504 285.577032 
z
" style="fill:#1f77b4;"/>
   </g>
   <g id="patch_37">
    <path clip-path="url(#p7c7dea1a1a)" d="M 184.247 302.374833 
L 187.99 302.374833 
L 187.99 263.179963 
L 184.247 263.179963 
z
" style="fill:#1f77b4;"/>
   </g>
   <g id="patch_38">
    <path clip-path="url(#p7c7dea1a1a)" d="M 187.99 302.374833 
L 191.733 302.374833 
L 191.733 257.580696 
L 187.99 257.580696 
z
" style="fill:#1f77b4;"/>
   </g>
   <g id="patch_39">
    <path clip-path="url(#p7c7dea1a1a)" d="M 191.733 302.374833 
L 195.476 302.374833 
L 195.476 302.374833 
L 191.733 302.374833 
z
" style="fill:#1f77b4;"/>
   </g>
   <g id="patch_40">
    <path clip-path="url(#p7c7dea1a1a)" d="M 195.476 302.374833 
L 199.219 302.374833 
L 199.219 302.374833 
L 195.476 302.374833 
z
" style="fill:#1f77b4;"/>
   </g>
   <g id="patch_41">
    <path clip-path="url(#p7c7dea1a1a)" d="M 199.219 302.374833 
L 202.962 302.374833 
L 202.962 254.781063 
L 199.219 254.781063 
z
" style="fill:#1f77b4;"/>
   </g>
   <g id="patch_42">
    <path clip-path="url(#p7c7dea1a1a)" d="M 202.962 302.374833 
L 206.705 302.374833 
L 206.705 257.580696 
L 202.962 257.580696 
z
" style="fill:#1f77b4;"/>
   </g>
   <g id="patch_43">
    <path clip-path="url(#p7c7dea1a1a)" d="M 206.705 302.374833 
L 210.448 302.374833 
L 210.448 302.374833 
L 206.705 302.374833 
z
" style="fill:#1f77b4;"/>
   </g>
   <g id="patch_44">
    <path clip-path="url(#p7c7dea1a1a)" d="M 210.448 302.374833 
L 214.191 302.374833 
L 214.191 190.389491 
L 210.448 190.389491 
z
" style="fill:#1f77b4;"/>
   </g>
   <g id="patch_45">
    <path clip-path="url(#p7c7dea1a1a)" d="M 214.191 302.374833 
L 217.934 302.374833 
L 217.934 125.997918 
L 214.191 125.997918 
z
" style="fill:#1f77b4;"/>
   </g>
   <g id="patch_46">
    <path clip-path="url(#p7c7dea1a1a)" d="M 217.934 302.374833 
L 221.677 302.374833 
L 221.677 302.374833 
L 217.934 302.374833 
z
" style="fill:#1f77b4;"/>
   </g>
   <g id="patch_47">
    <path clip-path="url(#p7c7dea1a1a)" d="M 221.677 302.374833 
L 225.42 302.374833 
L 225.42 226.784727 
L 221.677 226.784727 
z
" style="fill:#1f77b4;"/>
   </g>
   <g id="patch_48">
    <path clip-path="url(#p7c7dea1a1a)" d="M 225.42 302.374833 
L 229.163 302.374833 
L 229.163 302.374833 
L 225.42 302.374833 
z
" style="fill:#1f77b4;"/>
   </g>
   <g id="patch_49">
    <path clip-path="url(#p7c7dea1a1a)" d="M 229.163 302.374833 
L 232.906 302.374833 
L 232.906 39.209278 
L 229.163 39.209278 
z
" style="fill:#1f77b4;"/>
   </g>
   <g id="patch_50">
    <path clip-path="url(#p7c7dea1a1a)" d="M 232.906 302.374833 
L 236.649 302.374833 
L 236.649 117.599018 
L 232.906 117.599018 
z
" style="fill:#1f77b4;"/>
   </g>
   <g id="patch_51">
    <path clip-path="url(#p7c7dea1a1a)" d="M 236.649 302.374833 
L 240.392 302.374833 
L 240.392 237.983261 
L 236.649 237.983261 
z
" style="fill:#1f77b4;"/>
   </g>
   <g id="patch_52">
    <path clip-path="url(#p7c7dea1a1a)" d="M 240.392 302.374833 
L 244.135 302.374833 
L 244.135 302.374833 
L 240.392 302.374833 
z
" style="fill:#1f77b4;"/>
   </g>
   <g id="patch_53">
    <path clip-path="url(#p7c7dea1a1a)" d="M 244.135 302.374833 
L 247.878 302.374833 
L 247.878 288.376665 
L 244.135 288.376665 
z
" style="fill:#1f77b4;"/>
   </g>
   <g id="patch_54">
    <path clip-path="url(#p7c7dea1a1a)" d="M 247.878 302.374833 
L 251.621 302.374833 
L 251.621 302.374833 
L 247.878 302.374833 
z
" style="fill:#1f77b4;"/>
   </g>
   <g id="patch_55">
    <path clip-path="url(#p7c7dea1a1a)" d="M 251.621 302.374833 
L 255.364 302.374833 
L 255.364 282.777398 
L 251.621 282.777398 
z
" style="fill:#1f77b4;"/>
   </g>
   <g id="patch_56">
    <path clip-path="url(#p7c7dea1a1a)" d="M 255.364 302.374833 
L 259.107 302.374833 
L 259.107 271.578864 
L 255.364 271.578864 
z
" style="fill:#1f77b4;"/>
   </g>
   <g id="patch_57">
    <path clip-path="url(#p7c7dea1a1a)" d="M 259.107 302.374833 
L 262.85 302.374833 
L 262.85 302.374833 
L 259.107 302.374833 
z
" style="fill:#1f77b4;"/>
   </g>
   <g id="patch_58">
    <path clip-path="url(#p7c7dea1a1a)" d="M 262.85 302.374833 
L 266.593 302.374833 
L 266.593 274.378498 
L 262.85 274.378498 
z
" style="fill:#1f77b4;"/>
   </g>
   <g id="patch_59">
    <path clip-path="url(#p7c7dea1a1a)" d="M 266.593 302.374833 
L 270.336 302.374833 
L 270.336 302.374833 
L 266.593 302.374833 
z
" style="fill:#1f77b4;"/>
   </g>
   <g id="patch_60">
    <path clip-path="url(#p7c7dea1a1a)" d="M 270.336 302.374833 
L 274.079 302.374833 
L 274.079 268.77923 
L 270.336 268.77923 
z
" style="fill:#1f77b4;"/>
   </g>
   <g id="patch_61">
    <path clip-path="url(#p7c7dea1a1a)" d="M 274.079 302.374833 
L 277.822 302.374833 
L 277.822 235.183628 
L 274.079 235.183628 
z
" style="fill:#1f77b4;"/>
   </g>
   <g id="patch_62">
    <path clip-path="url(#p7c7dea1a1a)" d="M 277.822 302.374833 
L 281.565 302.374833 
L 281.565 302.374833 
L 277.822 302.374833 
z
" style="fill:#1f77b4;"/>
   </g>
   <g id="patch_63">
    <path clip-path="url(#p7c7dea1a1a)" d="M 281.565 302.374833 
L 285.308 302.374833 
L 285.308 218.385826 
L 281.565 218.385826 
z
" style="fill:#1f77b4;"/>
   </g>
   <g id="patch_64">
    <path clip-path="url(#p7c7dea1a1a)" d="M 285.308 302.374833 
L 289.051 302.374833 
L 289.051 207.187292 
L 285.308 207.187292 
z
" style="fill:#1f77b4;"/>
   </g>
   <g id="patch_65">
    <path clip-path="url(#p7c7dea1a1a)" d="M 289.051 302.374833 
L 292.794 302.374833 
L 292.794 302.374833 
L 289.051 302.374833 
z
" style="fill:#1f77b4;"/>
   </g>
   <g id="patch_66">
    <path clip-path="url(#p7c7dea1a1a)" d="M 292.794 302.374833 
L 296.537 302.374833 
L 296.537 263.179963 
L 292.794 263.179963 
z
" style="fill:#1f77b4;"/>
   </g>
   <g id="patch_67">
    <path clip-path="url(#p7c7dea1a1a)" d="M 296.537 302.374833 
L 300.28 302.374833 
L 300.28 302.374833 
L 296.537 302.374833 
z
" style="fill:#1f77b4;"/>
   </g>
   <g id="patch_68">
    <path clip-path="url(#p7c7dea1a1a)" d="M 300.28 302.374833 
L 304.023 302.374833 
L 304.023 249.181796 
L 300.28 249.181796 
z
" style="fill:#1f77b4;"/>
   </g>
   <g id="patch_69">
    <path clip-path="url(#p7c7dea1a1a)" d="M 304.023 302.374833 
L 307.766 302.374833 
L 307.766 271.578864 
L 304.023 271.578864 
z
" style="fill:#1f77b4;"/>
   </g>
   <g id="patch_70">
    <path clip-path="url(#p7c7dea1a1a)" d="M 307.766 302.374833 
L 311.509 302.374833 
L 311.509 302.374833 
L 307.766 302.374833 
z
" style="fill:#1f77b4;"/>
   </g>
   <g id="patch_71">
    <path clip-path="url(#p7c7dea1a1a)" d="M 311.509 302.374833 
L 315.252 302.374833 
L 315.252 268.77923 
L 311.509 268.77923 
z
" style="fill:#1f77b4;"/>
   </g>
   <g id="patch_72">
    <path clip-path="url(#p7c7dea1a1a)" d="M 315.252 302.374833 
L 318.995 302.374833 
L 318.995 271.578864 
L 315.252 271.578864 
z
" style="fill:#1f77b4;"/>
   </g>
   <g id="patch_73">
    <path clip-path="url(#p7c7dea1a1a)" d="M 318.995 302.374833 
L 322.738 302.374833 
L 322.738 302.374833 
L 318.995 302.374833 
z
" style="fill:#1f77b4;"/>
   </g>
   <g id="patch_74">
    <path clip-path="url(#p7c7dea1a1a)" d="M 322.738 302.374833 
L 326.481 302.374833 
L 326.481 260.38033 
L 322.738 260.38033 
z
" style="fill:#1f77b4;"/>
   </g>
   <g id="patch_75">
    <path clip-path="url(#p7c7dea1a1a)" d="M 326.481 302.374833 
L 330.224 302.374833 
L 330.224 302.374833 
L 326.481 302.374833 
z
" style="fill:#1f77b4;"/>
   </g>
   <g id="patch_76">
    <path clip-path="url(#p7c7dea1a1a)" d="M 330.224 302.374833 
L 333.967 302.374833 
L 333.967 235.183628 
L 330.224 235.183628 
z
" style="fill:#1f77b4;"/>
   </g>
   <g id="patch_77">
    <path clip-path="url(#p7c7dea1a1a)" d="M 333.967 302.374833 
L 337.71 302.374833 
L 337.71 302.374833 
L 333.967 302.374833 
z
" style="fill:#1f77b4;"/>
   </g>
   <g id="patch_78">
    <path clip-path="url(#p7c7dea1a1a)" d="M 337.71 302.374833 
L 341.453 302.374833 
L 341.453 240.782895 
L 337.71 240.782895 
z
" style="fill:#1f77b4;"/>
   </g>
   <g id="patch_79">
    <path clip-path="url(#p7c7dea1a1a)" d="M 341.453 302.374833 
L 345.196 302.374833 
L 345.196 302.374833 
L 341.453 302.374833 
z
" style="fill:#1f77b4;"/>
   </g>
   <g id="patch_80">
    <path clip-path="url(#p7c7dea1a1a)" d="M 345.196 302.374833 
L 348.939 302.374833 
L 348.939 268.77923 
L 345.196 268.77923 
z
" style="fill:#1f77b4;"/>
   </g>
   <g id="patch_81">
    <path clip-path="url(#p7c7dea1a1a)" d="M 348.939 302.374833 
L 352.682 302.374833 
L 352.682 302.374833 
L 348.939 302.374833 
z
" style="fill:#1f77b4;"/>
   </g>
   <g id="patch_82">
    <path clip-path="url(#p7c7dea1a1a)" d="M 352.682 302.374833 
L 356.425 302.374833 
L 356.425 235.183628 
L 352.682 235.183628 
z
" style="fill:#1f77b4;"/>
   </g>
   <g id="patch_83">
    <path clip-path="url(#p7c7dea1a1a)" d="M 356.425 302.374833 
L 360.168 302.374833 
L 360.168 190.389491 
L 356.425 190.389491 
z
" style="fill:#1f77b4;"/>
   </g>
   <g id="patch_84">
    <path clip-path="url(#p7c7dea1a1a)" d="M 360.168 302.374833 
L 363.911 302.374833 
L 363.911 302.374833 
L 360.168 302.374833 
z
" style="fill:#1f77b4;"/>
   </g>
   <g id="patch_85">
    <path clip-path="url(#p7c7dea1a1a)" d="M 363.911 302.374833 
L 367.654 302.374833 
L 367.654 193.189124 
L 363.911 193.189124 
z
" style="fill:#1f77b4;"/>
   </g>
   <g id="patch_86">
    <path clip-path="url(#p7c7dea1a1a)" d="M 367.654 302.374833 
L 371.397 302.374833 
L 371.397 302.374833 
L 367.654 302.374833 
z
" style="fill:#1f77b4;"/>
   </g>
   <g id="patch_87">
    <path clip-path="url(#p7c7dea1a1a)" d="M 371.397 302.374833 
L 375.14 302.374833 
L 375.14 209.986926 
L 371.397 209.986926 
z
" style="fill:#1f77b4;"/>
   </g>
   <g id="patch_88">
    <path clip-path="url(#p7c7dea1a1a)" d="M 375.14 302.374833 
L 378.883 302.374833 
L 378.883 212.786559 
L 375.14 212.786559 
z
" style="fill:#1f77b4;"/>
   </g>
   <g id="patch_89">
    <path clip-path="url(#p7c7dea1a1a)" d="M 378.883 302.374833 
L 382.626 302.374833 
L 382.626 302.374833 
L 378.883 302.374833 
z
" style="fill:#1f77b4;"/>
   </g>
   <g id="patch_90">
    <path clip-path="url(#p7c7dea1a1a)" d="M 382.626 302.374833 
L 386.369 302.374833 
L 386.369 226.784727 
L 382.626 226.784727 
z
" style="fill:#1f77b4;"/>
   </g>
   <g id="patch_91">
    <path clip-path="url(#p7c7dea1a1a)" d="M 386.369 302.374833 
L 390.112 302.374833 
L 390.112 221.18546 
L 386.369 221.18546 
z
" style="fill:#1f77b4;"/>
   </g>
   <g id="patch_92">
    <path clip-path="url(#p7c7dea1a1a)" d="M 390.112 302.374833 
L 393.855 302.374833 
L 393.855 302.374833 
L 390.112 302.374833 
z
" style="fill:#1f77b4;"/>
   </g>
   <g id="patch_93">
    <path clip-path="url(#p7c7dea1a1a)" d="M 393.855 302.374833 
L 397.598 302.374833 
L 397.598 218.385826 
L 393.855 218.385826 
z
" style="fill:#1f77b4;"/>
   </g>
   <g id="patch_94">
    <path clip-path="url(#p7c7dea1a1a)" d="M 397.598 302.374833 
L 401.341 302.374833 
L 401.341 302.374833 
L 397.598 302.374833 
z
" style="fill:#1f77b4;"/>
   </g>
   <g id="patch_95">
    <path clip-path="url(#p7c7dea1a1a)" d="M 401.341 302.374833 
L 405.084 302.374833 
L 405.084 226.784727 
L 401.341 226.784727 
z
" style="fill:#1f77b4;"/>
   </g>
   <g id="patch_96">
    <path clip-path="url(#p7c7dea1a1a)" d="M 405.084 302.374833 
L 408.827 302.374833 
L 408.827 167.992422 
L 405.084 167.992422 
z
" style="fill:#1f77b4;"/>
   </g>
   <g id="patch_97">
    <path clip-path="url(#p7c7dea1a1a)" d="M 408.827 302.374833 
L 412.57 302.374833 
L 412.57 302.374833 
L 408.827 302.374833 
z
" style="fill:#1f77b4;"/>
   </g>
   <g id="patch_98">
    <path clip-path="url(#p7c7dea1a1a)" d="M 412.57 302.374833 
L 416.313 302.374833 
L 416.313 134.396819 
L 412.57 134.396819 
z
" style="fill:#1f77b4;"/>
   </g>
   <g id="patch_99">
    <path clip-path="url(#p7c7dea1a1a)" d="M 416.313 302.374833 
L 420.056 302.374833 
L 420.056 109.200117 
L 416.313 109.200117 
z
" style="fill:#1f77b4;"/>
   </g>
   <g id="patch_100">
    <path clip-path="url(#p7c7dea1a1a)" d="M 420.056 302.374833 
L 423.799 302.374833 
L 423.799 302.374833 
L 420.056 302.374833 
z
" style="fill:#1f77b4;"/>
   </g>
   <g id="patch_101">
    <path clip-path="url(#p7c7dea1a1a)" d="M 423.799 302.374833 
L 427.542 302.374833 
L 427.542 198.788391 
L 423.799 198.788391 
z
" style="fill:#1f77b4;"/>
   </g>
   <g id="patch_102">
    <path clip-path="url(#p7c7dea1a1a)" d="M 427.542 302.374833 
L 431.285 302.374833 
L 431.285 262.480055 
L 427.542 262.480055 
z
" style="fill:#1f77b4;"/>
   </g>
   <g id="matplotlib.axis_1">
    <g id="xtick_1">
     <g id="line2d_1">
      <defs>
       <path d="M 0 0 
L 0 3.5 
" id="m73e70dea92" style="stroke:#000000;stroke-width:0.8;"/>
      </defs>
      <g>
       <use style="stroke:#000000;stroke-width:0.8;" x="77.779444" xlink:href="#m73e70dea92" y="302.374833"/>
      </g>
     </g>
     <g id="text_1">
      <!-- 31.8 -->
      <defs>
       <path d="M 40.578125 39.3125 
Q 47.65625 37.796875 51.625 33 
Q 55.609375 28.21875 55.609375 21.1875 
Q 55.609375 10.40625 48.1875 4.484375 
Q 40.765625 -1.421875 27.09375 -1.421875 
Q 22.515625 -1.421875 17.65625 -0.515625 
Q 12.796875 0.390625 7.625 2.203125 
L 7.625 11.71875 
Q 11.71875 9.328125 16.59375 8.109375 
Q 21.484375 6.890625 26.8125 6.890625 
Q 36.078125 6.890625 40.9375 10.546875 
Q 45.796875 14.203125 45.796875 21.1875 
Q 45.796875 27.640625 41.28125 31.265625 
Q 36.765625 34.90625 28.71875 34.90625 
L 20.21875 34.90625 
L 20.21875 43.015625 
L 29.109375 43.015625 
Q 36.375 43.015625 40.234375 45.921875 
Q 44.09375 48.828125 44.09375 54.296875 
Q 44.09375 59.90625 40.109375 62.90625 
Q 36.140625 65.921875 28.71875 65.921875 
Q 24.65625 65.921875 20.015625 65.03125 
Q 15.375 64.15625 9.8125 62.3125 
L 9.8125 71.09375 
Q 15.4375 72.65625 20.34375 73.4375 
Q 25.25 74.21875 29.59375 74.21875 
Q 40.828125 74.21875 47.359375 69.109375 
Q 53.90625 64.015625 53.90625 55.328125 
Q 53.90625 49.265625 50.4375 45.09375 
Q 46.96875 40.921875 40.578125 39.3125 
z
" id="DejaVuSans-51"/>
       <path d="M 12.40625 8.296875 
L 28.515625 8.296875 
L 28.515625 63.921875 
L 10.984375 60.40625 
L 10.984375 69.390625 
L 28.421875 72.90625 
L 38.28125 72.90625 
L 38.28125 8.296875 
L 54.390625 8.296875 
L 54.390625 0 
L 12.40625 0 
z
" id="DejaVuSans-49"/>
       <path d="M 10.6875 12.40625 
L 21 12.40625 
L 21 0 
L 10.6875 0 
z
" id="DejaVuSans-46"/>
       <path d="M 31.78125 34.625 
Q 24.75 34.625 20.71875 30.859375 
Q 16.703125 27.09375 16.703125 20.515625 
Q 16.703125 13.921875 20.71875 10.15625 
Q 24.75 6.390625 31.78125 6.390625 
Q 38.8125 6.390625 42.859375 10.171875 
Q 46.921875 13.96875 46.921875 20.515625 
Q 46.921875 27.09375 42.890625 30.859375 
Q 38.875 34.625 31.78125 34.625 
z
M 21.921875 38.8125 
Q 15.578125 40.375 12.03125 44.71875 
Q 8.5 49.078125 8.5 55.328125 
Q 8.5 64.0625 14.71875 69.140625 
Q 20.953125 74.21875 31.78125 74.21875 
Q 42.671875 74.21875 48.875 69.140625 
Q 55.078125 64.0625 55.078125 55.328125 
Q 55.078125 49.078125 51.53125 44.71875 
Q 48 40.375 41.703125 38.8125 
Q 48.828125 37.15625 52.796875 32.3125 
Q 56.78125 27.484375 56.78125 20.515625 
Q 56.78125 9.90625 50.3125 4.234375 
Q 43.84375 -1.421875 31.78125 -1.421875 
Q 19.734375 -1.421875 13.25 4.234375 
Q 6.78125 9.90625 6.78125 20.515625 
Q 6.78125 27.484375 10.78125 32.3125 
Q 14.796875 37.15625 21.921875 38.8125 
z
M 18.3125 54.390625 
Q 18.3125 48.734375 21.84375 45.5625 
Q 25.390625 42.390625 31.78125 42.390625 
Q 38.140625 42.390625 41.71875 45.5625 
Q 45.3125 48.734375 45.3125 54.390625 
Q 45.3125 60.0625 41.71875 63.234375 
Q 38.140625 66.40625 31.78125 66.40625 
Q 25.390625 66.40625 21.84375 63.234375 
Q 18.3125 60.0625 18.3125 54.390625 
z
" id="DejaVuSans-56"/>
      </defs>
      <g transform="translate(66.646632 316.973271)scale(0.1 -0.1)">
       <use xlink:href="#DejaVuSans-51"/>
       <use x="63.623047" xlink:href="#DejaVuSans-49"/>
       <use x="127.246094" xlink:href="#DejaVuSans-46"/>
       <use x="159.033203" xlink:href="#DejaVuSans-56"/>
      </g>
     </g>
    </g>
    <g id="xtick_2">
     <g id="line2d_2">
      <g>
       <use style="stroke:#000000;stroke-width:0.8;" x="137.192143" xlink:href="#m73e70dea92" y="302.374833"/>
      </g>
     </g>
     <g id="text_2">
      <!-- 32.0 -->
      <defs>
       <path d="M 19.1875 8.296875 
L 53.609375 8.296875 
L 53.609375 0 
L 7.328125 0 
L 7.328125 8.296875 
Q 12.9375 14.109375 22.625 23.890625 
Q 32.328125 33.6875 34.8125 36.53125 
Q 39.546875 41.84375 41.421875 45.53125 
Q 43.3125 49.21875 43.3125 52.78125 
Q 43.3125 58.59375 39.234375 62.25 
Q 35.15625 65.921875 28.609375 65.921875 
Q 23.96875 65.921875 18.8125 64.3125 
Q 13.671875 62.703125 7.8125 59.421875 
L 7.8125 69.390625 
Q 13.765625 71.78125 18.9375 73 
Q 24.125 74.21875 28.421875 74.21875 
Q 39.75 74.21875 46.484375 68.546875 
Q 53.21875 62.890625 53.21875 53.421875 
Q 53.21875 48.921875 51.53125 44.890625 
Q 49.859375 40.875 45.40625 35.40625 
Q 44.1875 33.984375 37.640625 27.21875 
Q 31.109375 20.453125 19.1875 8.296875 
z
" id="DejaVuSans-50"/>
       <path d="M 31.78125 66.40625 
Q 24.171875 66.40625 20.328125 58.90625 
Q 16.5 51.421875 16.5 36.375 
Q 16.5 21.390625 20.328125 13.890625 
Q 24.171875 6.390625 31.78125 6.390625 
Q 39.453125 6.390625 43.28125 13.890625 
Q 47.125 21.390625 47.125 36.375 
Q 47.125 51.421875 43.28125 58.90625 
Q 39.453125 66.40625 31.78125 66.40625 
z
M 31.78125 74.21875 
Q 44.046875 74.21875 50.515625 64.515625 
Q 56.984375 54.828125 56.984375 36.375 
Q 56.984375 17.96875 50.515625 8.265625 
Q 44.046875 -1.421875 31.78125 -1.421875 
Q 19.53125 -1.421875 13.0625 8.265625 
Q 6.59375 17.96875 6.59375 36.375 
Q 6.59375 54.828125 13.0625 64.515625 
Q 19.53125 74.21875 31.78125 74.21875 
z
" id="DejaVuSans-48"/>
      </defs>
      <g transform="translate(126.05933 316.973271)scale(0.1 -0.1)">
       <use xlink:href="#DejaVuSans-51"/>
       <use x="63.623047" xlink:href="#DejaVuSans-50"/>
       <use x="127.246094" xlink:href="#DejaVuSans-46"/>
       <use x="159.033203" xlink:href="#DejaVuSans-48"/>
      </g>
     </g>
    </g>
    <g id="xtick_3">
     <g id="line2d_3">
      <g>
       <use style="stroke:#000000;stroke-width:0.8;" x="196.604841" xlink:href="#m73e70dea92" y="302.374833"/>
      </g>
     </g>
     <g id="text_3">
      <!-- 32.2 -->
      <g transform="translate(185.472029 316.973271)scale(0.1 -0.1)">
       <use xlink:href="#DejaVuSans-51"/>
       <use x="63.623047" xlink:href="#DejaVuSans-50"/>
       <use x="127.246094" xlink:href="#DejaVuSans-46"/>
       <use x="159.033203" xlink:href="#DejaVuSans-50"/>
      </g>
     </g>
    </g>
    <g id="xtick_4">
     <g id="line2d_4">
      <g>
       <use style="stroke:#000000;stroke-width:0.8;" x="256.01754" xlink:href="#m73e70dea92" y="302.374833"/>
      </g>
     </g>
     <g id="text_4">
      <!-- 32.4 -->
      <defs>
       <path d="M 37.796875 64.3125 
L 12.890625 25.390625 
L 37.796875 25.390625 
z
M 35.203125 72.90625 
L 47.609375 72.90625 
L 47.609375 25.390625 
L 58.015625 25.390625 
L 58.015625 17.1875 
L 47.609375 17.1875 
L 47.609375 0 
L 37.796875 0 
L 37.796875 17.1875 
L 4.890625 17.1875 
L 4.890625 26.703125 
z
" id="DejaVuSans-52"/>
      </defs>
      <g transform="translate(244.884727 316.973271)scale(0.1 -0.1)">
       <use xlink:href="#DejaVuSans-51"/>
       <use x="63.623047" xlink:href="#DejaVuSans-50"/>
       <use x="127.246094" xlink:href="#DejaVuSans-46"/>
       <use x="159.033203" xlink:href="#DejaVuSans-52"/>
      </g>
     </g>
    </g>
    <g id="xtick_5">
     <g id="line2d_5">
      <g>
       <use style="stroke:#000000;stroke-width:0.8;" x="315.430238" xlink:href="#m73e70dea92" y="302.374833"/>
      </g>
     </g>
     <g id="text_5">
      <!-- 32.6 -->
      <defs>
       <path d="M 33.015625 40.375 
Q 26.375 40.375 22.484375 35.828125 
Q 18.609375 31.296875 18.609375 23.390625 
Q 18.609375 15.53125 22.484375 10.953125 
Q 26.375 6.390625 33.015625 6.390625 
Q 39.65625 6.390625 43.53125 10.953125 
Q 47.40625 15.53125 47.40625 23.390625 
Q 47.40625 31.296875 43.53125 35.828125 
Q 39.65625 40.375 33.015625 40.375 
z
M 52.59375 71.296875 
L 52.59375 62.3125 
Q 48.875 64.0625 45.09375 64.984375 
Q 41.3125 65.921875 37.59375 65.921875 
Q 27.828125 65.921875 22.671875 59.328125 
Q 17.53125 52.734375 16.796875 39.40625 
Q 19.671875 43.65625 24.015625 45.921875 
Q 28.375 48.1875 33.59375 48.1875 
Q 44.578125 48.1875 50.953125 41.515625 
Q 57.328125 34.859375 57.328125 23.390625 
Q 57.328125 12.15625 50.6875 5.359375 
Q 44.046875 -1.421875 33.015625 -1.421875 
Q 20.359375 -1.421875 13.671875 8.265625 
Q 6.984375 17.96875 6.984375 36.375 
Q 6.984375 53.65625 15.1875 63.9375 
Q 23.390625 74.21875 37.203125 74.21875 
Q 40.921875 74.21875 44.703125 73.484375 
Q 48.484375 72.75 52.59375 71.296875 
z
" id="DejaVuSans-54"/>
      </defs>
      <g transform="translate(304.297426 316.973271)scale(0.1 -0.1)">
       <use xlink:href="#DejaVuSans-51"/>
       <use x="63.623047" xlink:href="#DejaVuSans-50"/>
       <use x="127.246094" xlink:href="#DejaVuSans-46"/>
       <use x="159.033203" xlink:href="#DejaVuSans-54"/>
      </g>
     </g>
    </g>
    <g id="xtick_6">
     <g id="line2d_6">
      <g>
       <use style="stroke:#000000;stroke-width:0.8;" x="374.842937" xlink:href="#m73e70dea92" y="302.374833"/>
      </g>
     </g>
     <g id="text_6">
      <!-- 32.8 -->
      <g transform="translate(363.710124 316.973271)scale(0.1 -0.1)">
       <use xlink:href="#DejaVuSans-51"/>
       <use x="63.623047" xlink:href="#DejaVuSans-50"/>
       <use x="127.246094" xlink:href="#DejaVuSans-46"/>
       <use x="159.033203" xlink:href="#DejaVuSans-56"/>
      </g>
     </g>
    </g>
    <g id="xtick_7">
     <g id="line2d_7">
      <g>
       <use style="stroke:#000000;stroke-width:0.8;" x="434.255635" xlink:href="#m73e70dea92" y="302.374833"/>
      </g>
     </g>
     <g id="text_7">
      <!-- 33.0 -->
      <g transform="translate(423.122822 316.973271)scale(0.1 -0.1)">
       <use xlink:href="#DejaVuSans-51"/>
       <use x="63.623047" xlink:href="#DejaVuSans-51"/>
       <use x="127.246094" xlink:href="#DejaVuSans-46"/>
       <use x="159.033203" xlink:href="#DejaVuSans-48"/>
      </g>
     </g>
    </g>
    <g id="text_8">
     <!-- Muestras -->
     <defs>
      <path d="M 9.8125 72.90625 
L 24.515625 72.90625 
L 43.109375 23.296875 
L 61.8125 72.90625 
L 76.515625 72.90625 
L 76.515625 0 
L 66.890625 0 
L 66.890625 64.015625 
L 48.09375 14.015625 
L 38.1875 14.015625 
L 19.390625 64.015625 
L 19.390625 0 
L 9.8125 0 
z
" id="DejaVuSans-77"/>
      <path d="M 8.5 21.578125 
L 8.5 54.6875 
L 17.484375 54.6875 
L 17.484375 21.921875 
Q 17.484375 14.15625 20.5 10.265625 
Q 23.53125 6.390625 29.59375 6.390625 
Q 36.859375 6.390625 41.078125 11.03125 
Q 45.3125 15.671875 45.3125 23.6875 
L 45.3125 54.6875 
L 54.296875 54.6875 
L 54.296875 0 
L 45.3125 0 
L 45.3125 8.40625 
Q 42.046875 3.421875 37.71875 1 
Q 33.40625 -1.421875 27.6875 -1.421875 
Q 18.265625 -1.421875 13.375 4.4375 
Q 8.5 10.296875 8.5 21.578125 
z
M 31.109375 56 
z
" id="DejaVuSans-117"/>
      <path d="M 56.203125 29.59375 
L 56.203125 25.203125 
L 14.890625 25.203125 
Q 15.484375 15.921875 20.484375 11.0625 
Q 25.484375 6.203125 34.421875 6.203125 
Q 39.59375 6.203125 44.453125 7.46875 
Q 49.3125 8.734375 54.109375 11.28125 
L 54.109375 2.78125 
Q 49.265625 0.734375 44.1875 -0.34375 
Q 39.109375 -1.421875 33.890625 -1.421875 
Q 20.796875 -1.421875 13.15625 6.1875 
Q 5.515625 13.8125 5.515625 26.8125 
Q 5.515625 40.234375 12.765625 48.109375 
Q 20.015625 56 32.328125 56 
Q 43.359375 56 49.78125 48.890625 
Q 56.203125 41.796875 56.203125 29.59375 
z
M 47.21875 32.234375 
Q 47.125 39.59375 43.09375 43.984375 
Q 39.0625 48.390625 32.421875 48.390625 
Q 24.90625 48.390625 20.390625 44.140625 
Q 15.875 39.890625 15.1875 32.171875 
z
" id="DejaVuSans-101"/>
      <path d="M 44.28125 53.078125 
L 44.28125 44.578125 
Q 40.484375 46.53125 36.375 47.5 
Q 32.28125 48.484375 27.875 48.484375 
Q 21.1875 48.484375 17.84375 46.4375 
Q 14.5 44.390625 14.5 40.28125 
Q 14.5 37.15625 16.890625 35.375 
Q 19.28125 33.59375 26.515625 31.984375 
L 29.59375 31.296875 
Q 39.15625 29.25 43.1875 25.515625 
Q 47.21875 21.78125 47.21875 15.09375 
Q 47.21875 7.46875 41.1875 3.015625 
Q 35.15625 -1.421875 24.609375 -1.421875 
Q 20.21875 -1.421875 15.453125 -0.5625 
Q 10.6875 0.296875 5.421875 2 
L 5.421875 11.28125 
Q 10.40625 8.6875 15.234375 7.390625 
Q 20.0625 6.109375 24.8125 6.109375 
Q 31.15625 6.109375 34.5625 8.28125 
Q 37.984375 10.453125 37.984375 14.40625 
Q 37.984375 18.0625 35.515625 20.015625 
Q 33.0625 21.96875 24.703125 23.78125 
L 21.578125 24.515625 
Q 13.234375 26.265625 9.515625 29.90625 
Q 5.8125 33.546875 5.8125 39.890625 
Q 5.8125 47.609375 11.28125 51.796875 
Q 16.75 56 26.8125 56 
Q 31.78125 56 36.171875 55.265625 
Q 40.578125 54.546875 44.28125 53.078125 
z
" id="DejaVuSans-115"/>
      <path d="M 18.3125 70.21875 
L 18.3125 54.6875 
L 36.8125 54.6875 
L 36.8125 47.703125 
L 18.3125 47.703125 
L 18.3125 18.015625 
Q 18.3125 11.328125 20.140625 9.421875 
Q 21.96875 7.515625 27.59375 7.515625 
L 36.8125 7.515625 
L 36.8125 0 
L 27.59375 0 
Q 17.1875 0 13.234375 3.875 
Q 9.28125 7.765625 9.28125 18.015625 
L 9.28125 47.703125 
L 2.6875 47.703125 
L 2.6875 54.6875 
L 9.28125 54.6875 
L 9.28125 70.21875 
z
" id="DejaVuSans-116"/>
      <path d="M 41.109375 46.296875 
Q 39.59375 47.171875 37.8125 47.578125 
Q 36.03125 48 33.890625 48 
Q 26.265625 48 22.1875 43.046875 
Q 18.109375 38.09375 18.109375 28.8125 
L 18.109375 0 
L 9.078125 0 
L 9.078125 54.6875 
L 18.109375 54.6875 
L 18.109375 46.1875 
Q 20.953125 51.171875 25.484375 53.578125 
Q 30.03125 56 36.53125 56 
Q 37.453125 56 38.578125 55.875 
Q 39.703125 55.765625 41.0625 55.515625 
z
" id="DejaVuSans-114"/>
      <path d="M 34.28125 27.484375 
Q 23.390625 27.484375 19.1875 25 
Q 14.984375 22.515625 14.984375 16.5 
Q 14.984375 11.71875 18.140625 8.90625 
Q 21.296875 6.109375 26.703125 6.109375 
Q 34.1875 6.109375 38.703125 11.40625 
Q 43.21875 16.703125 43.21875 25.484375 
L 43.21875 27.484375 
z
M 52.203125 31.203125 
L 52.203125 0 
L 43.21875 0 
L 43.21875 8.296875 
Q 40.140625 3.328125 35.546875 0.953125 
Q 30.953125 -1.421875 24.3125 -1.421875 
Q 15.921875 -1.421875 10.953125 3.296875 
Q 6 8.015625 6 15.921875 
Q 6 25.140625 12.171875 29.828125 
Q 18.359375 34.515625 30.609375 34.515625 
L 43.21875 34.515625 
L 43.21875 35.40625 
Q 43.21875 41.609375 39.140625 45 
Q 35.0625 48.390625 27.6875 48.390625 
Q 23 48.390625 18.546875 47.265625 
Q 14.109375 46.140625 10.015625 43.890625 
L 10.015625 52.203125 
Q 14.9375 54.109375 19.578125 55.046875 
Q 24.21875 56 28.609375 56 
Q 40.484375 56 46.34375 49.84375 
Q 52.203125 43.703125 52.203125 31.203125 
z
" id="DejaVuSans-97"/>
     </defs>
     <g transform="translate(221.286563 330.651396)scale(0.1 -0.1)">
      <use xlink:href="#DejaVuSans-77"/>
      <use x="86.279297" xlink:href="#DejaVuSans-117"/>
      <use x="149.658203" xlink:href="#DejaVuSans-101"/>
      <use x="211.181641" xlink:href="#DejaVuSans-115"/>
      <use x="263.28125" xlink:href="#DejaVuSans-116"/>
      <use x="302.490234" xlink:href="#DejaVuSans-114"/>
      <use x="343.603516" xlink:href="#DejaVuSans-97"/>
      <use x="404.882812" xlink:href="#DejaVuSans-115"/>
     </g>
    </g>
   </g>
   <g id="matplotlib.axis_2">
    <g id="ytick_1">
     <g id="line2d_8">
      <defs>
       <path d="M 0 0 
L -3.5 0 
" id="md8ff51e8d5" style="stroke:#000000;stroke-width:0.8;"/>
      </defs>
      <g>
       <use style="stroke:#000000;stroke-width:0.8;" x="38.27" xlink:href="#md8ff51e8d5" y="302.374833"/>
      </g>
     </g>
     <g id="text_9">
      <!-- 0 -->
      <g transform="translate(24.9075 306.174052)scale(0.1 -0.1)">
       <use xlink:href="#DejaVuSans-48"/>
      </g>
     </g>
    </g>
    <g id="ytick_2">
     <g id="line2d_9">
      <g>
       <use style="stroke:#000000;stroke-width:0.8;" x="38.27" xlink:href="#md8ff51e8d5" y="256.843133"/>
      </g>
     </g>
     <g id="text_10">
      <!-- 1 -->
      <g transform="translate(24.9075 260.642352)scale(0.1 -0.1)">
       <use xlink:href="#DejaVuSans-49"/>
      </g>
     </g>
    </g>
    <g id="ytick_3">
     <g id="line2d_10">
      <g>
       <use style="stroke:#000000;stroke-width:0.8;" x="38.27" xlink:href="#md8ff51e8d5" y="211.311432"/>
      </g>
     </g>
     <g id="text_11">
      <!-- 2 -->
      <g transform="translate(24.9075 215.110651)scale(0.1 -0.1)">
       <use xlink:href="#DejaVuSans-50"/>
      </g>
     </g>
    </g>
    <g id="ytick_4">
     <g id="line2d_11">
      <g>
       <use style="stroke:#000000;stroke-width:0.8;" x="38.27" xlink:href="#md8ff51e8d5" y="165.779732"/>
      </g>
     </g>
     <g id="text_12">
      <!-- 3 -->
      <g transform="translate(24.9075 169.57895)scale(0.1 -0.1)">
       <use xlink:href="#DejaVuSans-51"/>
      </g>
     </g>
    </g>
    <g id="ytick_5">
     <g id="line2d_12">
      <g>
       <use style="stroke:#000000;stroke-width:0.8;" x="38.27" xlink:href="#md8ff51e8d5" y="120.248031"/>
      </g>
     </g>
     <g id="text_13">
      <!-- 4 -->
      <g transform="translate(24.9075 124.04725)scale(0.1 -0.1)">
       <use xlink:href="#DejaVuSans-52"/>
      </g>
     </g>
    </g>
    <g id="ytick_6">
     <g id="line2d_13">
      <g>
       <use style="stroke:#000000;stroke-width:0.8;" x="38.27" xlink:href="#md8ff51e8d5" y="74.71633"/>
      </g>
     </g>
     <g id="text_14">
      <!-- 5 -->
      <defs>
       <path d="M 10.796875 72.90625 
L 49.515625 72.90625 
L 49.515625 64.59375 
L 19.828125 64.59375 
L 19.828125 46.734375 
Q 21.96875 47.46875 24.109375 47.828125 
Q 26.265625 48.1875 28.421875 48.1875 
Q 40.625 48.1875 47.75 41.5 
Q 54.890625 34.8125 54.890625 23.390625 
Q 54.890625 11.625 47.5625 5.09375 
Q 40.234375 -1.421875 26.90625 -1.421875 
Q 22.3125 -1.421875 17.546875 -0.640625 
Q 12.796875 0.140625 7.71875 1.703125 
L 7.71875 11.625 
Q 12.109375 9.234375 16.796875 8.0625 
Q 21.484375 6.890625 26.703125 6.890625 
Q 35.15625 6.890625 40.078125 11.328125 
Q 45.015625 15.765625 45.015625 23.390625 
Q 45.015625 31 40.078125 35.4375 
Q 35.15625 39.890625 26.703125 39.890625 
Q 22.75 39.890625 18.8125 39.015625 
Q 14.890625 38.140625 10.796875 36.28125 
z
" id="DejaVuSans-53"/>
      </defs>
      <g transform="translate(24.9075 78.515549)scale(0.1 -0.1)">
       <use xlink:href="#DejaVuSans-53"/>
      </g>
     </g>
    </g>
    <g id="ytick_7">
     <g id="line2d_14">
      <g>
       <use style="stroke:#000000;stroke-width:0.8;" x="38.27" xlink:href="#md8ff51e8d5" y="29.18463"/>
      </g>
     </g>
     <g id="text_15">
      <!-- 6 -->
      <g transform="translate(24.9075 32.983849)scale(0.1 -0.1)">
       <use xlink:href="#DejaVuSans-54"/>
      </g>
     </g>
    </g>
    <g id="text_16">
     <!-- Densidad de probabilidad -->
     <defs>
      <path d="M 19.671875 64.796875 
L 19.671875 8.109375 
L 31.59375 8.109375 
Q 46.6875 8.109375 53.6875 14.9375 
Q 60.6875 21.78125 60.6875 36.53125 
Q 60.6875 51.171875 53.6875 57.984375 
Q 46.6875 64.796875 31.59375 64.796875 
z
M 9.8125 72.90625 
L 30.078125 72.90625 
Q 51.265625 72.90625 61.171875 64.09375 
Q 71.09375 55.28125 71.09375 36.53125 
Q 71.09375 17.671875 61.125 8.828125 
Q 51.171875 0 30.078125 0 
L 9.8125 0 
z
" id="DejaVuSans-68"/>
      <path d="M 54.890625 33.015625 
L 54.890625 0 
L 45.90625 0 
L 45.90625 32.71875 
Q 45.90625 40.484375 42.875 44.328125 
Q 39.84375 48.1875 33.796875 48.1875 
Q 26.515625 48.1875 22.3125 43.546875 
Q 18.109375 38.921875 18.109375 30.90625 
L 18.109375 0 
L 9.078125 0 
L 9.078125 54.6875 
L 18.109375 54.6875 
L 18.109375 46.1875 
Q 21.34375 51.125 25.703125 53.5625 
Q 30.078125 56 35.796875 56 
Q 45.21875 56 50.046875 50.171875 
Q 54.890625 44.34375 54.890625 33.015625 
z
" id="DejaVuSans-110"/>
      <path d="M 9.421875 54.6875 
L 18.40625 54.6875 
L 18.40625 0 
L 9.421875 0 
z
M 9.421875 75.984375 
L 18.40625 75.984375 
L 18.40625 64.59375 
L 9.421875 64.59375 
z
" id="DejaVuSans-105"/>
      <path d="M 45.40625 46.390625 
L 45.40625 75.984375 
L 54.390625 75.984375 
L 54.390625 0 
L 45.40625 0 
L 45.40625 8.203125 
Q 42.578125 3.328125 38.25 0.953125 
Q 33.9375 -1.421875 27.875 -1.421875 
Q 17.96875 -1.421875 11.734375 6.484375 
Q 5.515625 14.40625 5.515625 27.296875 
Q 5.515625 40.1875 11.734375 48.09375 
Q 17.96875 56 27.875 56 
Q 33.9375 56 38.25 53.625 
Q 42.578125 51.265625 45.40625 46.390625 
z
M 14.796875 27.296875 
Q 14.796875 17.390625 18.875 11.75 
Q 22.953125 6.109375 30.078125 6.109375 
Q 37.203125 6.109375 41.296875 11.75 
Q 45.40625 17.390625 45.40625 27.296875 
Q 45.40625 37.203125 41.296875 42.84375 
Q 37.203125 48.484375 30.078125 48.484375 
Q 22.953125 48.484375 18.875 42.84375 
Q 14.796875 37.203125 14.796875 27.296875 
z
" id="DejaVuSans-100"/>
      <path id="DejaVuSans-32"/>
      <path d="M 18.109375 8.203125 
L 18.109375 -20.796875 
L 9.078125 -20.796875 
L 9.078125 54.6875 
L 18.109375 54.6875 
L 18.109375 46.390625 
Q 20.953125 51.265625 25.265625 53.625 
Q 29.59375 56 35.59375 56 
Q 45.5625 56 51.78125 48.09375 
Q 58.015625 40.1875 58.015625 27.296875 
Q 58.015625 14.40625 51.78125 6.484375 
Q 45.5625 -1.421875 35.59375 -1.421875 
Q 29.59375 -1.421875 25.265625 0.953125 
Q 20.953125 3.328125 18.109375 8.203125 
z
M 48.6875 27.296875 
Q 48.6875 37.203125 44.609375 42.84375 
Q 40.53125 48.484375 33.40625 48.484375 
Q 26.265625 48.484375 22.1875 42.84375 
Q 18.109375 37.203125 18.109375 27.296875 
Q 18.109375 17.390625 22.1875 11.75 
Q 26.265625 6.109375 33.40625 6.109375 
Q 40.53125 6.109375 44.609375 11.75 
Q 48.6875 17.390625 48.6875 27.296875 
z
" id="DejaVuSans-112"/>
      <path d="M 30.609375 48.390625 
Q 23.390625 48.390625 19.1875 42.75 
Q 14.984375 37.109375 14.984375 27.296875 
Q 14.984375 17.484375 19.15625 11.84375 
Q 23.34375 6.203125 30.609375 6.203125 
Q 37.796875 6.203125 41.984375 11.859375 
Q 46.1875 17.53125 46.1875 27.296875 
Q 46.1875 37.015625 41.984375 42.703125 
Q 37.796875 48.390625 30.609375 48.390625 
z
M 30.609375 56 
Q 42.328125 56 49.015625 48.375 
Q 55.71875 40.765625 55.71875 27.296875 
Q 55.71875 13.875 49.015625 6.21875 
Q 42.328125 -1.421875 30.609375 -1.421875 
Q 18.84375 -1.421875 12.171875 6.21875 
Q 5.515625 13.875 5.515625 27.296875 
Q 5.515625 40.765625 12.171875 48.375 
Q 18.84375 56 30.609375 56 
z
" id="DejaVuSans-111"/>
      <path d="M 48.6875 27.296875 
Q 48.6875 37.203125 44.609375 42.84375 
Q 40.53125 48.484375 33.40625 48.484375 
Q 26.265625 48.484375 22.1875 42.84375 
Q 18.109375 37.203125 18.109375 27.296875 
Q 18.109375 17.390625 22.1875 11.75 
Q 26.265625 6.109375 33.40625 6.109375 
Q 40.53125 6.109375 44.609375 11.75 
Q 48.6875 17.390625 48.6875 27.296875 
z
M 18.109375 46.390625 
Q 20.953125 51.265625 25.265625 53.625 
Q 29.59375 56 35.59375 56 
Q 45.5625 56 51.78125 48.09375 
Q 58.015625 40.1875 58.015625 27.296875 
Q 58.015625 14.40625 51.78125 6.484375 
Q 45.5625 -1.421875 35.59375 -1.421875 
Q 29.59375 -1.421875 25.265625 0.953125 
Q 20.953125 3.328125 18.109375 8.203125 
L 18.109375 0 
L 9.078125 0 
L 9.078125 75.984375 
L 18.109375 75.984375 
z
" id="DejaVuSans-98"/>
      <path d="M 9.421875 75.984375 
L 18.40625 75.984375 
L 18.40625 0 
L 9.421875 0 
z
" id="DejaVuSans-108"/>
     </defs>
     <g transform="translate(18.827813 228.423073)rotate(-90)scale(0.1 -0.1)">
      <use xlink:href="#DejaVuSans-68"/>
      <use x="77.001953" xlink:href="#DejaVuSans-101"/>
      <use x="138.525391" xlink:href="#DejaVuSans-110"/>
      <use x="201.904297" xlink:href="#DejaVuSans-115"/>
      <use x="254.003906" xlink:href="#DejaVuSans-105"/>
      <use x="281.787109" xlink:href="#DejaVuSans-100"/>
      <use x="345.263672" xlink:href="#DejaVuSans-97"/>
      <use x="406.542969" xlink:href="#DejaVuSans-100"/>
      <use x="470.019531" xlink:href="#DejaVuSans-32"/>
      <use x="501.806641" xlink:href="#DejaVuSans-100"/>
      <use x="565.283203" xlink:href="#DejaVuSans-101"/>
      <use x="626.806641" xlink:href="#DejaVuSans-32"/>
      <use x="658.59375" xlink:href="#DejaVuSans-112"/>
      <use x="722.070312" xlink:href="#DejaVuSans-114"/>
      <use x="763.152344" xlink:href="#DejaVuSans-111"/>
      <use x="824.333984" xlink:href="#DejaVuSans-98"/>
      <use x="887.810547" xlink:href="#DejaVuSans-97"/>
      <use x="949.089844" xlink:href="#DejaVuSans-98"/>
      <use x="1012.566406" xlink:href="#DejaVuSans-105"/>
      <use x="1040.349609" xlink:href="#DejaVuSans-108"/>
      <use x="1068.132812" xlink:href="#DejaVuSans-105"/>
      <use x="1095.916016" xlink:href="#DejaVuSans-100"/>
      <use x="1159.392578" xlink:href="#DejaVuSans-97"/>
      <use x="1220.671875" xlink:href="#DejaVuSans-100"/>
     </g>
    </g>
   </g>
   <g id="line2d_15">
    <path clip-path="url(#p7c7dea1a1a)" d="M 56.985 300.045359 
L 60.728 299.802386 
L 64.471 299.538509 
L 68.214 299.25245 
L 71.957 298.942911 
L 75.7 298.608579 
L 79.443 298.248135 
L 83.186 297.860259 
L 86.929 297.443643 
L 90.672 296.996996 
L 94.415 296.519056 
L 98.158 296.008604 
L 101.901 295.464468 
L 105.644 294.885543 
L 109.387 294.2708 
L 113.13 293.619298 
L 116.873 292.930199 
L 120.616 292.202783 
L 124.359 291.436458 
L 128.102 290.630779 
L 131.845 289.785458 
L 135.588 288.900376 
L 139.331 287.975602 
L 143.074 287.011401 
L 146.817 286.008246 
L 150.56 284.96683 
L 154.303 283.888077 
L 158.046 282.773149 
L 161.789 281.623453 
L 165.532 280.440647 
L 169.275 279.226645 
L 173.018 277.98362 
L 176.761 276.714001 
L 180.504 275.420474 
L 184.247 274.105979 
L 187.99 272.7737 
L 191.733 271.42706 
L 195.476 270.069711 
L 199.219 268.705515 
L 202.962 267.338538 
L 206.705 265.973025 
L 210.448 264.613382 
L 214.191 263.264157 
L 217.934 261.930013 
L 221.677 260.615705 
L 225.42 259.326051 
L 229.163 258.065905 
L 232.906 256.840126 
L 236.649 255.653547 
L 240.392 254.510947 
L 244.135 253.417015 
L 247.878 252.37632 
L 251.621 251.393281 
L 255.364 250.472133 
L 259.107 249.6169 
L 262.85 248.83136 
L 266.593 248.119026 
L 270.336 247.483112 
L 274.079 246.926512 
L 277.822 246.451779 
L 281.565 246.061103 
L 285.308 245.756296 
L 289.051 245.538778 
L 292.794 245.409567 
L 296.537 245.369265 
L 300.28 245.418064 
L 304.023 245.555733 
L 307.766 245.781628 
L 311.509 246.094695 
L 315.252 246.493475 
L 318.995 246.976119 
L 322.738 247.540402 
L 326.481 248.183737 
L 330.224 248.903198 
L 333.967 249.695543 
L 337.71 250.557232 
L 341.453 251.484461 
L 345.196 252.473187 
L 348.939 253.519154 
L 352.682 254.617929 
L 356.425 255.764929 
L 360.168 256.955455 
L 363.911 258.184722 
L 367.654 259.447893 
L 371.397 260.740108 
L 375.14 262.056515 
L 378.883 263.392302 
L 382.626 264.74272 
L 386.369 266.103118 
L 390.112 267.468959 
L 393.855 268.835851 
L 397.598 270.199565 
L 401.341 271.556057 
L 405.084 272.90148 
L 408.827 274.232206 
L 412.57 275.544835 
L 416.313 276.836203 
L 420.056 278.103397 
L 423.799 279.343754 
L 427.542 280.554869 
L 431.285 281.734595 
" style="fill:none;stroke:#ff7f0e;stroke-dasharray:5.55,2.4;stroke-dashoffset:0;stroke-width:1.5;"/>
   </g>
   <g id="patch_103">
    <path d="M 38.27 302.374833 
L 38.27 26.051 
" style="fill:none;stroke:#000000;stroke-linecap:square;stroke-linejoin:miter;stroke-width:0.8;"/>
   </g>
   <g id="patch_104">
    <path d="M 450 302.374833 
L 450 26.051 
" style="fill:none;stroke:#000000;stroke-linecap:square;stroke-linejoin:miter;stroke-width:0.8;"/>
   </g>
   <g id="patch_105">
    <path d="M 38.27 302.374833 
L 450 302.374833 
" style="fill:none;stroke:#000000;stroke-linecap:square;stroke-linejoin:miter;stroke-width:0.8;"/>
   </g>
   <g id="patch_106">
    <path d="M 38.27 26.051 
L 450 26.051 
" style="fill:none;stroke:#000000;stroke-linecap:square;stroke-linejoin:miter;stroke-width:0.8;"/>
   </g>
   <g id="text_17">
    <!-- Histograma con función de ajuste para Temperatura -->
    <defs>
     <path d="M 9.8125 72.90625 
L 19.671875 72.90625 
L 19.671875 43.015625 
L 55.515625 43.015625 
L 55.515625 72.90625 
L 65.375 72.90625 
L 65.375 0 
L 55.515625 0 
L 55.515625 34.71875 
L 19.671875 34.71875 
L 19.671875 0 
L 9.8125 0 
z
" id="DejaVuSans-72"/>
     <path d="M 45.40625 27.984375 
Q 45.40625 37.75 41.375 43.109375 
Q 37.359375 48.484375 30.078125 48.484375 
Q 22.859375 48.484375 18.828125 43.109375 
Q 14.796875 37.75 14.796875 27.984375 
Q 14.796875 18.265625 18.828125 12.890625 
Q 22.859375 7.515625 30.078125 7.515625 
Q 37.359375 7.515625 41.375 12.890625 
Q 45.40625 18.265625 45.40625 27.984375 
z
M 54.390625 6.78125 
Q 54.390625 -7.171875 48.1875 -13.984375 
Q 42 -20.796875 29.203125 -20.796875 
Q 24.46875 -20.796875 20.265625 -20.09375 
Q 16.0625 -19.390625 12.109375 -17.921875 
L 12.109375 -9.1875 
Q 16.0625 -11.328125 19.921875 -12.34375 
Q 23.78125 -13.375 27.78125 -13.375 
Q 36.625 -13.375 41.015625 -8.765625 
Q 45.40625 -4.15625 45.40625 5.171875 
L 45.40625 9.625 
Q 42.625 4.78125 38.28125 2.390625 
Q 33.9375 0 27.875 0 
Q 17.828125 0 11.671875 7.65625 
Q 5.515625 15.328125 5.515625 27.984375 
Q 5.515625 40.671875 11.671875 48.328125 
Q 17.828125 56 27.875 56 
Q 33.9375 56 38.28125 53.609375 
Q 42.625 51.21875 45.40625 46.390625 
L 45.40625 54.6875 
L 54.390625 54.6875 
z
" id="DejaVuSans-103"/>
     <path d="M 52 44.1875 
Q 55.375 50.25 60.0625 53.125 
Q 64.75 56 71.09375 56 
Q 79.640625 56 84.28125 50.015625 
Q 88.921875 44.046875 88.921875 33.015625 
L 88.921875 0 
L 79.890625 0 
L 79.890625 32.71875 
Q 79.890625 40.578125 77.09375 44.375 
Q 74.3125 48.1875 68.609375 48.1875 
Q 61.625 48.1875 57.5625 43.546875 
Q 53.515625 38.921875 53.515625 30.90625 
L 53.515625 0 
L 44.484375 0 
L 44.484375 32.71875 
Q 44.484375 40.625 41.703125 44.40625 
Q 38.921875 48.1875 33.109375 48.1875 
Q 26.21875 48.1875 22.15625 43.53125 
Q 18.109375 38.875 18.109375 30.90625 
L 18.109375 0 
L 9.078125 0 
L 9.078125 54.6875 
L 18.109375 54.6875 
L 18.109375 46.1875 
Q 21.1875 51.21875 25.484375 53.609375 
Q 29.78125 56 35.6875 56 
Q 41.65625 56 45.828125 52.96875 
Q 50 49.953125 52 44.1875 
z
" id="DejaVuSans-109"/>
     <path d="M 48.78125 52.59375 
L 48.78125 44.1875 
Q 44.96875 46.296875 41.140625 47.34375 
Q 37.3125 48.390625 33.40625 48.390625 
Q 24.65625 48.390625 19.8125 42.84375 
Q 14.984375 37.3125 14.984375 27.296875 
Q 14.984375 17.28125 19.8125 11.734375 
Q 24.65625 6.203125 33.40625 6.203125 
Q 37.3125 6.203125 41.140625 7.25 
Q 44.96875 8.296875 48.78125 10.40625 
L 48.78125 2.09375 
Q 45.015625 0.34375 40.984375 -0.53125 
Q 36.96875 -1.421875 32.421875 -1.421875 
Q 20.0625 -1.421875 12.78125 6.34375 
Q 5.515625 14.109375 5.515625 27.296875 
Q 5.515625 40.671875 12.859375 48.328125 
Q 20.21875 56 33.015625 56 
Q 37.15625 56 41.109375 55.140625 
Q 45.0625 54.296875 48.78125 52.59375 
z
" id="DejaVuSans-99"/>
     <path d="M 37.109375 75.984375 
L 37.109375 68.5 
L 28.515625 68.5 
Q 23.6875 68.5 21.796875 66.546875 
Q 19.921875 64.59375 19.921875 59.515625 
L 19.921875 54.6875 
L 34.71875 54.6875 
L 34.71875 47.703125 
L 19.921875 47.703125 
L 19.921875 0 
L 10.890625 0 
L 10.890625 47.703125 
L 2.296875 47.703125 
L 2.296875 54.6875 
L 10.890625 54.6875 
L 10.890625 58.5 
Q 10.890625 67.625 15.140625 71.796875 
Q 19.390625 75.984375 28.609375 75.984375 
z
" id="DejaVuSans-102"/>
     <path d="M 30.609375 48.390625 
Q 23.390625 48.390625 19.1875 42.75 
Q 14.984375 37.109375 14.984375 27.296875 
Q 14.984375 17.484375 19.15625 11.84375 
Q 23.34375 6.203125 30.609375 6.203125 
Q 37.796875 6.203125 41.984375 11.859375 
Q 46.1875 17.53125 46.1875 27.296875 
Q 46.1875 37.015625 41.984375 42.703125 
Q 37.796875 48.390625 30.609375 48.390625 
z
M 30.609375 56 
Q 42.328125 56 49.015625 48.375 
Q 55.71875 40.765625 55.71875 27.296875 
Q 55.71875 13.875 49.015625 6.21875 
Q 42.328125 -1.421875 30.609375 -1.421875 
Q 18.84375 -1.421875 12.171875 6.21875 
Q 5.515625 13.875 5.515625 27.296875 
Q 5.515625 40.765625 12.171875 48.375 
Q 18.84375 56 30.609375 56 
z
M 37.40625 79.984375 
L 47.125 79.984375 
L 31.203125 61.625 
L 23.734375 61.625 
z
" id="DejaVuSans-243"/>
     <path d="M 9.421875 54.6875 
L 18.40625 54.6875 
L 18.40625 -0.984375 
Q 18.40625 -11.421875 14.421875 -16.109375 
Q 10.453125 -20.796875 1.609375 -20.796875 
L -1.8125 -20.796875 
L -1.8125 -13.1875 
L 0.59375 -13.1875 
Q 5.71875 -13.1875 7.5625 -10.8125 
Q 9.421875 -8.453125 9.421875 -0.984375 
z
M 9.421875 75.984375 
L 18.40625 75.984375 
L 18.40625 64.59375 
L 9.421875 64.59375 
z
" id="DejaVuSans-106"/>
     <path d="M -0.296875 72.90625 
L 61.375 72.90625 
L 61.375 64.59375 
L 35.5 64.59375 
L 35.5 0 
L 25.59375 0 
L 25.59375 64.59375 
L -0.296875 64.59375 
z
" id="DejaVuSans-84"/>
    </defs>
    <g transform="translate(86.388438 20.051)scale(0.12 -0.12)">
     <use xlink:href="#DejaVuSans-72"/>
     <use x="75.195312" xlink:href="#DejaVuSans-105"/>
     <use x="102.978516" xlink:href="#DejaVuSans-115"/>
     <use x="155.078125" xlink:href="#DejaVuSans-116"/>
     <use x="194.287109" xlink:href="#DejaVuSans-111"/>
     <use x="255.46875" xlink:href="#DejaVuSans-103"/>
     <use x="318.945312" xlink:href="#DejaVuSans-114"/>
     <use x="360.058594" xlink:href="#DejaVuSans-97"/>
     <use x="421.337891" xlink:href="#DejaVuSans-109"/>
     <use x="518.75" xlink:href="#DejaVuSans-97"/>
     <use x="580.029297" xlink:href="#DejaVuSans-32"/>
     <use x="611.816406" xlink:href="#DejaVuSans-99"/>
     <use x="666.796875" xlink:href="#DejaVuSans-111"/>
     <use x="727.978516" xlink:href="#DejaVuSans-110"/>
     <use x="791.357422" xlink:href="#DejaVuSans-32"/>
     <use x="823.144531" xlink:href="#DejaVuSans-102"/>
     <use x="858.349609" xlink:href="#DejaVuSans-117"/>
     <use x="921.728516" xlink:href="#DejaVuSans-110"/>
     <use x="985.107422" xlink:href="#DejaVuSans-99"/>
     <use x="1040.087891" xlink:href="#DejaVuSans-105"/>
     <use x="1067.871094" xlink:href="#DejaVuSans-243"/>
     <use x="1129.052734" xlink:href="#DejaVuSans-110"/>
     <use x="1192.431641" xlink:href="#DejaVuSans-32"/>
     <use x="1224.21875" xlink:href="#DejaVuSans-100"/>
     <use x="1287.695312" xlink:href="#DejaVuSans-101"/>
     <use x="1349.21875" xlink:href="#DejaVuSans-32"/>
     <use x="1381.005859" xlink:href="#DejaVuSans-97"/>
     <use x="1442.285156" xlink:href="#DejaVuSans-106"/>
     <use x="1470.068359" xlink:href="#DejaVuSans-117"/>
     <use x="1533.447266" xlink:href="#DejaVuSans-115"/>
     <use x="1585.546875" xlink:href="#DejaVuSans-116"/>
     <use x="1624.755859" xlink:href="#DejaVuSans-101"/>
     <use x="1686.279297" xlink:href="#DejaVuSans-32"/>
     <use x="1718.066406" xlink:href="#DejaVuSans-112"/>
     <use x="1781.542969" xlink:href="#DejaVuSans-97"/>
     <use x="1842.822266" xlink:href="#DejaVuSans-114"/>
     <use x="1883.935547" xlink:href="#DejaVuSans-97"/>
     <use x="1945.214844" xlink:href="#DejaVuSans-32"/>
     <use x="1977.001953" xlink:href="#DejaVuSans-84"/>
     <use x="2037.820312" xlink:href="#DejaVuSans-101"/>
     <use x="2099.34375" xlink:href="#DejaVuSans-109"/>
     <use x="2196.755859" xlink:href="#DejaVuSans-112"/>
     <use x="2260.232422" xlink:href="#DejaVuSans-101"/>
     <use x="2321.755859" xlink:href="#DejaVuSans-114"/>
     <use x="2362.869141" xlink:href="#DejaVuSans-97"/>
     <use x="2424.148438" xlink:href="#DejaVuSans-116"/>
     <use x="2463.357422" xlink:href="#DejaVuSans-117"/>
     <use x="2526.736328" xlink:href="#DejaVuSans-114"/>
     <use x="2567.849609" xlink:href="#DejaVuSans-97"/>
    </g>
   </g>
  </g>
 </g>
 <defs>
  <clipPath id="p7c7dea1a1a">
   <rect height="276.323833" width="411.73" x="38.27" y="26.051"/>
  </clipPath>
 </defs>
</svg>
