<?xml version="1.0" encoding="utf-8" standalone="no"?>
<!DOCTYPE svg PUBLIC "-//W3C//DTD SVG 1.1//EN"
  "http://www.w3.org/Graphics/SVG/1.1/DTD/svg11.dtd">
<!-- Created with matplotlib (https://matplotlib.org/) -->
<svg height="344.16pt" version="1.1" viewBox="0 0 460.8 344.16" width="460.8pt" xmlns="http://www.w3.org/2000/svg" xmlns:xlink="http://www.w3.org/1999/xlink">
 <defs>
  <style type="text/css">
*{stroke-linecap:butt;stroke-linejoin:round;}
  </style>
 </defs>
 <g id="figure_1">
  <g id="patch_1">
   <path d="M 0 344.16 
L 460.8 344.16 
L 460.8 0 
L 0 0 
z
" style="fill:#ffffff;"/>
  </g>
  <g id="axes_1">
   <g id="patch_2">
    <path d="M 57.6 306.3024 
L 414.72 306.3024 
L 414.72 41.2992 
L 57.6 41.2992 
z
" style="fill:#ffffff;"/>
   </g>
   <g id="matplotlib.axis_1">
    <g id="xtick_1">
     <g id="line2d_1">
      <defs>
       <path d="M 0 0 
L 0 3.5 
" id="m6e42aecae9" style="stroke:#000000;stroke-width:0.8;"/>
      </defs>
      <g>
       <use style="stroke:#000000;stroke-width:0.8;" x="73.832727" xlink:href="#m6e42aecae9" y="306.3024"/>
      </g>
     </g>
     <g id="text_1">
      <!-- 0 -->
      <defs>
       <path d="M 31.78125 66.40625 
Q 24.171875 66.40625 20.328125 58.90625 
Q 16.5 51.421875 16.5 36.375 
Q 16.5 21.390625 20.328125 13.890625 
Q 24.171875 6.390625 31.78125 6.390625 
Q 39.453125 6.390625 43.28125 13.890625 
Q 47.125 21.390625 47.125 36.375 
Q 47.125 51.421875 43.28125 58.90625 
Q 39.453125 66.40625 31.78125 66.40625 
z
M 31.78125 74.21875 
Q 44.046875 74.21875 50.515625 64.515625 
Q 56.984375 54.828125 56.984375 36.375 
Q 56.984375 17.96875 50.515625 8.265625 
Q 44.046875 -1.421875 31.78125 -1.421875 
Q 19.53125 -1.421875 13.0625 8.265625 
Q 6.59375 17.96875 6.59375 36.375 
Q 6.59375 54.828125 13.0625 64.515625 
Q 19.53125 74.21875 31.78125 74.21875 
z
" id="DejaVuSans-48"/>
      </defs>
      <g transform="translate(70.651477 320.900838)scale(0.1 -0.1)">
       <use xlink:href="#DejaVuSans-48"/>
      </g>
     </g>
    </g>
    <g id="xtick_2">
     <g id="line2d_2">
      <g>
       <use style="stroke:#000000;stroke-width:0.8;" x="136.725898" xlink:href="#m6e42aecae9" y="306.3024"/>
      </g>
     </g>
     <g id="text_2">
      <!-- 1000 -->
      <defs>
       <path d="M 12.40625 8.296875 
L 28.515625 8.296875 
L 28.515625 63.921875 
L 10.984375 60.40625 
L 10.984375 69.390625 
L 28.421875 72.90625 
L 38.28125 72.90625 
L 38.28125 8.296875 
L 54.390625 8.296875 
L 54.390625 0 
L 12.40625 0 
z
" id="DejaVuSans-49"/>
      </defs>
      <g transform="translate(124.000898 320.900838)scale(0.1 -0.1)">
       <use xlink:href="#DejaVuSans-49"/>
       <use x="63.623047" xlink:href="#DejaVuSans-48"/>
       <use x="127.246094" xlink:href="#DejaVuSans-48"/>
       <use x="190.869141" xlink:href="#DejaVuSans-48"/>
      </g>
     </g>
    </g>
    <g id="xtick_3">
     <g id="line2d_3">
      <g>
       <use style="stroke:#000000;stroke-width:0.8;" x="199.619068" xlink:href="#m6e42aecae9" y="306.3024"/>
      </g>
     </g>
     <g id="text_3">
      <!-- 2000 -->
      <defs>
       <path d="M 19.1875 8.296875 
L 53.609375 8.296875 
L 53.609375 0 
L 7.328125 0 
L 7.328125 8.296875 
Q 12.9375 14.109375 22.625 23.890625 
Q 32.328125 33.6875 34.8125 36.53125 
Q 39.546875 41.84375 41.421875 45.53125 
Q 43.3125 49.21875 43.3125 52.78125 
Q 43.3125 58.59375 39.234375 62.25 
Q 35.15625 65.921875 28.609375 65.921875 
Q 23.96875 65.921875 18.8125 64.3125 
Q 13.671875 62.703125 7.8125 59.421875 
L 7.8125 69.390625 
Q 13.765625 71.78125 18.9375 73 
Q 24.125 74.21875 28.421875 74.21875 
Q 39.75 74.21875 46.484375 68.546875 
Q 53.21875 62.890625 53.21875 53.421875 
Q 53.21875 48.921875 51.53125 44.890625 
Q 49.859375 40.875 45.40625 35.40625 
Q 44.1875 33.984375 37.640625 27.21875 
Q 31.109375 20.453125 19.1875 8.296875 
z
" id="DejaVuSans-50"/>
      </defs>
      <g transform="translate(186.894068 320.900838)scale(0.1 -0.1)">
       <use xlink:href="#DejaVuSans-50"/>
       <use x="63.623047" xlink:href="#DejaVuSans-48"/>
       <use x="127.246094" xlink:href="#DejaVuSans-48"/>
       <use x="190.869141" xlink:href="#DejaVuSans-48"/>
      </g>
     </g>
    </g>
    <g id="xtick_4">
     <g id="line2d_4">
      <g>
       <use style="stroke:#000000;stroke-width:0.8;" x="262.512238" xlink:href="#m6e42aecae9" y="306.3024"/>
      </g>
     </g>
     <g id="text_4">
      <!-- 3000 -->
      <defs>
       <path d="M 40.578125 39.3125 
Q 47.65625 37.796875 51.625 33 
Q 55.609375 28.21875 55.609375 21.1875 
Q 55.609375 10.40625 48.1875 4.484375 
Q 40.765625 -1.421875 27.09375 -1.421875 
Q 22.515625 -1.421875 17.65625 -0.515625 
Q 12.796875 0.390625 7.625 2.203125 
L 7.625 11.71875 
Q 11.71875 9.328125 16.59375 8.109375 
Q 21.484375 6.890625 26.8125 6.890625 
Q 36.078125 6.890625 40.9375 10.546875 
Q 45.796875 14.203125 45.796875 21.1875 
Q 45.796875 27.640625 41.28125 31.265625 
Q 36.765625 34.90625 28.71875 34.90625 
L 20.21875 34.90625 
L 20.21875 43.015625 
L 29.109375 43.015625 
Q 36.375 43.015625 40.234375 45.921875 
Q 44.09375 48.828125 44.09375 54.296875 
Q 44.09375 59.90625 40.109375 62.90625 
Q 36.140625 65.921875 28.71875 65.921875 
Q 24.65625 65.921875 20.015625 65.03125 
Q 15.375 64.15625 9.8125 62.3125 
L 9.8125 71.09375 
Q 15.4375 72.65625 20.34375 73.4375 
Q 25.25 74.21875 29.59375 74.21875 
Q 40.828125 74.21875 47.359375 69.109375 
Q 53.90625 64.015625 53.90625 55.328125 
Q 53.90625 49.265625 50.4375 45.09375 
Q 46.96875 40.921875 40.578125 39.3125 
z
" id="DejaVuSans-51"/>
      </defs>
      <g transform="translate(249.787238 320.900838)scale(0.1 -0.1)">
       <use xlink:href="#DejaVuSans-51"/>
       <use x="63.623047" xlink:href="#DejaVuSans-48"/>
       <use x="127.246094" xlink:href="#DejaVuSans-48"/>
       <use x="190.869141" xlink:href="#DejaVuSans-48"/>
      </g>
     </g>
    </g>
    <g id="xtick_5">
     <g id="line2d_5">
      <g>
       <use style="stroke:#000000;stroke-width:0.8;" x="325.405409" xlink:href="#m6e42aecae9" y="306.3024"/>
      </g>
     </g>
     <g id="text_5">
      <!-- 4000 -->
      <defs>
       <path d="M 37.796875 64.3125 
L 12.890625 25.390625 
L 37.796875 25.390625 
z
M 35.203125 72.90625 
L 47.609375 72.90625 
L 47.609375 25.390625 
L 58.015625 25.390625 
L 58.015625 17.1875 
L 47.609375 17.1875 
L 47.609375 0 
L 37.796875 0 
L 37.796875 17.1875 
L 4.890625 17.1875 
L 4.890625 26.703125 
z
" id="DejaVuSans-52"/>
      </defs>
      <g transform="translate(312.680409 320.900838)scale(0.1 -0.1)">
       <use xlink:href="#DejaVuSans-52"/>
       <use x="63.623047" xlink:href="#DejaVuSans-48"/>
       <use x="127.246094" xlink:href="#DejaVuSans-48"/>
       <use x="190.869141" xlink:href="#DejaVuSans-48"/>
      </g>
     </g>
    </g>
    <g id="xtick_6">
     <g id="line2d_6">
      <g>
       <use style="stroke:#000000;stroke-width:0.8;" x="388.298579" xlink:href="#m6e42aecae9" y="306.3024"/>
      </g>
     </g>
     <g id="text_6">
      <!-- 5000 -->
      <defs>
       <path d="M 10.796875 72.90625 
L 49.515625 72.90625 
L 49.515625 64.59375 
L 19.828125 64.59375 
L 19.828125 46.734375 
Q 21.96875 47.46875 24.109375 47.828125 
Q 26.265625 48.1875 28.421875 48.1875 
Q 40.625 48.1875 47.75 41.5 
Q 54.890625 34.8125 54.890625 23.390625 
Q 54.890625 11.625 47.5625 5.09375 
Q 40.234375 -1.421875 26.90625 -1.421875 
Q 22.3125 -1.421875 17.546875 -0.640625 
Q 12.796875 0.140625 7.71875 1.703125 
L 7.71875 11.625 
Q 12.109375 9.234375 16.796875 8.0625 
Q 21.484375 6.890625 26.703125 6.890625 
Q 35.15625 6.890625 40.078125 11.328125 
Q 45.015625 15.765625 45.015625 23.390625 
Q 45.015625 31 40.078125 35.4375 
Q 35.15625 39.890625 26.703125 39.890625 
Q 22.75 39.890625 18.8125 39.015625 
Q 14.890625 38.140625 10.796875 36.28125 
z
" id="DejaVuSans-53"/>
      </defs>
      <g transform="translate(375.573579 320.900838)scale(0.1 -0.1)">
       <use xlink:href="#DejaVuSans-53"/>
       <use x="63.623047" xlink:href="#DejaVuSans-48"/>
       <use x="127.246094" xlink:href="#DejaVuSans-48"/>
       <use x="190.869141" xlink:href="#DejaVuSans-48"/>
      </g>
     </g>
    </g>
    <g id="text_7">
     <!-- Muestras -->
     <defs>
      <path d="M 9.8125 72.90625 
L 24.515625 72.90625 
L 43.109375 23.296875 
L 61.8125 72.90625 
L 76.515625 72.90625 
L 76.515625 0 
L 66.890625 0 
L 66.890625 64.015625 
L 48.09375 14.015625 
L 38.1875 14.015625 
L 19.390625 64.015625 
L 19.390625 0 
L 9.8125 0 
z
" id="DejaVuSans-77"/>
      <path d="M 8.5 21.578125 
L 8.5 54.6875 
L 17.484375 54.6875 
L 17.484375 21.921875 
Q 17.484375 14.15625 20.5 10.265625 
Q 23.53125 6.390625 29.59375 6.390625 
Q 36.859375 6.390625 41.078125 11.03125 
Q 45.3125 15.671875 45.3125 23.6875 
L 45.3125 54.6875 
L 54.296875 54.6875 
L 54.296875 0 
L 45.3125 0 
L 45.3125 8.40625 
Q 42.046875 3.421875 37.71875 1 
Q 33.40625 -1.421875 27.6875 -1.421875 
Q 18.265625 -1.421875 13.375 4.4375 
Q 8.5 10.296875 8.5 21.578125 
z
M 31.109375 56 
z
" id="DejaVuSans-117"/>
      <path d="M 56.203125 29.59375 
L 56.203125 25.203125 
L 14.890625 25.203125 
Q 15.484375 15.921875 20.484375 11.0625 
Q 25.484375 6.203125 34.421875 6.203125 
Q 39.59375 6.203125 44.453125 7.46875 
Q 49.3125 8.734375 54.109375 11.28125 
L 54.109375 2.78125 
Q 49.265625 0.734375 44.1875 -0.34375 
Q 39.109375 -1.421875 33.890625 -1.421875 
Q 20.796875 -1.421875 13.15625 6.1875 
Q 5.515625 13.8125 5.515625 26.8125 
Q 5.515625 40.234375 12.765625 48.109375 
Q 20.015625 56 32.328125 56 
Q 43.359375 56 49.78125 48.890625 
Q 56.203125 41.796875 56.203125 29.59375 
z
M 47.21875 32.234375 
Q 47.125 39.59375 43.09375 43.984375 
Q 39.0625 48.390625 32.421875 48.390625 
Q 24.90625 48.390625 20.390625 44.140625 
Q 15.875 39.890625 15.1875 32.171875 
z
" id="DejaVuSans-101"/>
      <path d="M 44.28125 53.078125 
L 44.28125 44.578125 
Q 40.484375 46.53125 36.375 47.5 
Q 32.28125 48.484375 27.875 48.484375 
Q 21.1875 48.484375 17.84375 46.4375 
Q 14.5 44.390625 14.5 40.28125 
Q 14.5 37.15625 16.890625 35.375 
Q 19.28125 33.59375 26.515625 31.984375 
L 29.59375 31.296875 
Q 39.15625 29.25 43.1875 25.515625 
Q 47.21875 21.78125 47.21875 15.09375 
Q 47.21875 7.46875 41.1875 3.015625 
Q 35.15625 -1.421875 24.609375 -1.421875 
Q 20.21875 -1.421875 15.453125 -0.5625 
Q 10.6875 0.296875 5.421875 2 
L 5.421875 11.28125 
Q 10.40625 8.6875 15.234375 7.390625 
Q 20.0625 6.109375 24.8125 6.109375 
Q 31.15625 6.109375 34.5625 8.28125 
Q 37.984375 10.453125 37.984375 14.40625 
Q 37.984375 18.0625 35.515625 20.015625 
Q 33.0625 21.96875 24.703125 23.78125 
L 21.578125 24.515625 
Q 13.234375 26.265625 9.515625 29.90625 
Q 5.8125 33.546875 5.8125 39.890625 
Q 5.8125 47.609375 11.28125 51.796875 
Q 16.75 56 26.8125 56 
Q 31.78125 56 36.171875 55.265625 
Q 40.578125 54.546875 44.28125 53.078125 
z
" id="DejaVuSans-115"/>
      <path d="M 18.3125 70.21875 
L 18.3125 54.6875 
L 36.8125 54.6875 
L 36.8125 47.703125 
L 18.3125 47.703125 
L 18.3125 18.015625 
Q 18.3125 11.328125 20.140625 9.421875 
Q 21.96875 7.515625 27.59375 7.515625 
L 36.8125 7.515625 
L 36.8125 0 
L 27.59375 0 
Q 17.1875 0 13.234375 3.875 
Q 9.28125 7.765625 9.28125 18.015625 
L 9.28125 47.703125 
L 2.6875 47.703125 
L 2.6875 54.6875 
L 9.28125 54.6875 
L 9.28125 70.21875 
z
" id="DejaVuSans-116"/>
      <path d="M 41.109375 46.296875 
Q 39.59375 47.171875 37.8125 47.578125 
Q 36.03125 48 33.890625 48 
Q 26.265625 48 22.1875 43.046875 
Q 18.109375 38.09375 18.109375 28.8125 
L 18.109375 0 
L 9.078125 0 
L 9.078125 54.6875 
L 18.109375 54.6875 
L 18.109375 46.1875 
Q 20.953125 51.171875 25.484375 53.578125 
Q 30.03125 56 36.53125 56 
Q 37.453125 56 38.578125 55.875 
Q 39.703125 55.765625 41.0625 55.515625 
z
" id="DejaVuSans-114"/>
      <path d="M 34.28125 27.484375 
Q 23.390625 27.484375 19.1875 25 
Q 14.984375 22.515625 14.984375 16.5 
Q 14.984375 11.71875 18.140625 8.90625 
Q 21.296875 6.109375 26.703125 6.109375 
Q 34.1875 6.109375 38.703125 11.40625 
Q 43.21875 16.703125 43.21875 25.484375 
L 43.21875 27.484375 
z
M 52.203125 31.203125 
L 52.203125 0 
L 43.21875 0 
L 43.21875 8.296875 
Q 40.140625 3.328125 35.546875 0.953125 
Q 30.953125 -1.421875 24.3125 -1.421875 
Q 15.921875 -1.421875 10.953125 3.296875 
Q 6 8.015625 6 15.921875 
Q 6 25.140625 12.171875 29.828125 
Q 18.359375 34.515625 30.609375 34.515625 
L 43.21875 34.515625 
L 43.21875 35.40625 
Q 43.21875 41.609375 39.140625 45 
Q 35.0625 48.390625 27.6875 48.390625 
Q 23 48.390625 18.546875 47.265625 
Q 14.109375 46.140625 10.015625 43.890625 
L 10.015625 52.203125 
Q 14.9375 54.109375 19.578125 55.046875 
Q 24.21875 56 28.609375 56 
Q 40.484375 56 46.34375 49.84375 
Q 52.203125 43.703125 52.203125 31.203125 
z
" id="DejaVuSans-97"/>
     </defs>
     <g transform="translate(213.311562 334.578963)scale(0.1 -0.1)">
      <use xlink:href="#DejaVuSans-77"/>
      <use x="86.279297" xlink:href="#DejaVuSans-117"/>
      <use x="149.658203" xlink:href="#DejaVuSans-101"/>
      <use x="211.181641" xlink:href="#DejaVuSans-115"/>
      <use x="263.28125" xlink:href="#DejaVuSans-116"/>
      <use x="302.490234" xlink:href="#DejaVuSans-114"/>
      <use x="343.603516" xlink:href="#DejaVuSans-97"/>
      <use x="404.882812" xlink:href="#DejaVuSans-115"/>
     </g>
    </g>
   </g>
   <g id="matplotlib.axis_2">
    <g id="ytick_1">
     <g id="line2d_7">
      <defs>
       <path d="M 0 0 
L -3.5 0 
" id="m26a1ac024e" style="stroke:#000000;stroke-width:0.8;"/>
      </defs>
      <g>
       <use style="stroke:#000000;stroke-width:0.8;" x="57.6" xlink:href="#m26a1ac024e" y="271.018076"/>
      </g>
     </g>
     <g id="text_8">
      <!-- 60 -->
      <defs>
       <path d="M 33.015625 40.375 
Q 26.375 40.375 22.484375 35.828125 
Q 18.609375 31.296875 18.609375 23.390625 
Q 18.609375 15.53125 22.484375 10.953125 
Q 26.375 6.390625 33.015625 6.390625 
Q 39.65625 6.390625 43.53125 10.953125 
Q 47.40625 15.53125 47.40625 23.390625 
Q 47.40625 31.296875 43.53125 35.828125 
Q 39.65625 40.375 33.015625 40.375 
z
M 52.59375 71.296875 
L 52.59375 62.3125 
Q 48.875 64.0625 45.09375 64.984375 
Q 41.3125 65.921875 37.59375 65.921875 
Q 27.828125 65.921875 22.671875 59.328125 
Q 17.53125 52.734375 16.796875 39.40625 
Q 19.671875 43.65625 24.015625 45.921875 
Q 28.375 48.1875 33.59375 48.1875 
Q 44.578125 48.1875 50.953125 41.515625 
Q 57.328125 34.859375 57.328125 23.390625 
Q 57.328125 12.15625 50.6875 5.359375 
Q 44.046875 -1.421875 33.015625 -1.421875 
Q 20.359375 -1.421875 13.671875 8.265625 
Q 6.984375 17.96875 6.984375 36.375 
Q 6.984375 53.65625 15.1875 63.9375 
Q 23.390625 74.21875 37.203125 74.21875 
Q 40.921875 74.21875 44.703125 73.484375 
Q 48.484375 72.75 52.59375 71.296875 
z
" id="DejaVuSans-54"/>
      </defs>
      <g transform="translate(37.875 274.817295)scale(0.1 -0.1)">
       <use xlink:href="#DejaVuSans-54"/>
       <use x="63.623047" xlink:href="#DejaVuSans-48"/>
      </g>
     </g>
    </g>
    <g id="ytick_2">
     <g id="line2d_8">
      <g>
       <use style="stroke:#000000;stroke-width:0.8;" x="57.6" xlink:href="#m26a1ac024e" y="232.09224"/>
      </g>
     </g>
     <g id="text_9">
      <!-- 70 -->
      <defs>
       <path d="M 8.203125 72.90625 
L 55.078125 72.90625 
L 55.078125 68.703125 
L 28.609375 0 
L 18.3125 0 
L 43.21875 64.59375 
L 8.203125 64.59375 
z
" id="DejaVuSans-55"/>
      </defs>
      <g transform="translate(37.875 235.891458)scale(0.1 -0.1)">
       <use xlink:href="#DejaVuSans-55"/>
       <use x="63.623047" xlink:href="#DejaVuSans-48"/>
      </g>
     </g>
    </g>
    <g id="ytick_3">
     <g id="line2d_9">
      <g>
       <use style="stroke:#000000;stroke-width:0.8;" x="57.6" xlink:href="#m26a1ac024e" y="193.166403"/>
      </g>
     </g>
     <g id="text_10">
      <!-- 80 -->
      <defs>
       <path d="M 31.78125 34.625 
Q 24.75 34.625 20.71875 30.859375 
Q 16.703125 27.09375 16.703125 20.515625 
Q 16.703125 13.921875 20.71875 10.15625 
Q 24.75 6.390625 31.78125 6.390625 
Q 38.8125 6.390625 42.859375 10.171875 
Q 46.921875 13.96875 46.921875 20.515625 
Q 46.921875 27.09375 42.890625 30.859375 
Q 38.875 34.625 31.78125 34.625 
z
M 21.921875 38.8125 
Q 15.578125 40.375 12.03125 44.71875 
Q 8.5 49.078125 8.5 55.328125 
Q 8.5 64.0625 14.71875 69.140625 
Q 20.953125 74.21875 31.78125 74.21875 
Q 42.671875 74.21875 48.875 69.140625 
Q 55.078125 64.0625 55.078125 55.328125 
Q 55.078125 49.078125 51.53125 44.71875 
Q 48 40.375 41.703125 38.8125 
Q 48.828125 37.15625 52.796875 32.3125 
Q 56.78125 27.484375 56.78125 20.515625 
Q 56.78125 9.90625 50.3125 4.234375 
Q 43.84375 -1.421875 31.78125 -1.421875 
Q 19.734375 -1.421875 13.25 4.234375 
Q 6.78125 9.90625 6.78125 20.515625 
Q 6.78125 27.484375 10.78125 32.3125 
Q 14.796875 37.15625 21.921875 38.8125 
z
M 18.3125 54.390625 
Q 18.3125 48.734375 21.84375 45.5625 
Q 25.390625 42.390625 31.78125 42.390625 
Q 38.140625 42.390625 41.71875 45.5625 
Q 45.3125 48.734375 45.3125 54.390625 
Q 45.3125 60.0625 41.71875 63.234375 
Q 38.140625 66.40625 31.78125 66.40625 
Q 25.390625 66.40625 21.84375 63.234375 
Q 18.3125 60.0625 18.3125 54.390625 
z
" id="DejaVuSans-56"/>
      </defs>
      <g transform="translate(37.875 196.965622)scale(0.1 -0.1)">
       <use xlink:href="#DejaVuSans-56"/>
       <use x="63.623047" xlink:href="#DejaVuSans-48"/>
      </g>
     </g>
    </g>
    <g id="ytick_4">
     <g id="line2d_10">
      <g>
       <use style="stroke:#000000;stroke-width:0.8;" x="57.6" xlink:href="#m26a1ac024e" y="154.240567"/>
      </g>
     </g>
     <g id="text_11">
      <!-- 90 -->
      <defs>
       <path d="M 10.984375 1.515625 
L 10.984375 10.5 
Q 14.703125 8.734375 18.5 7.8125 
Q 22.3125 6.890625 25.984375 6.890625 
Q 35.75 6.890625 40.890625 13.453125 
Q 46.046875 20.015625 46.78125 33.40625 
Q 43.953125 29.203125 39.59375 26.953125 
Q 35.25 24.703125 29.984375 24.703125 
Q 19.046875 24.703125 12.671875 31.3125 
Q 6.296875 37.9375 6.296875 49.421875 
Q 6.296875 60.640625 12.9375 67.421875 
Q 19.578125 74.21875 30.609375 74.21875 
Q 43.265625 74.21875 49.921875 64.515625 
Q 56.59375 54.828125 56.59375 36.375 
Q 56.59375 19.140625 48.40625 8.859375 
Q 40.234375 -1.421875 26.421875 -1.421875 
Q 22.703125 -1.421875 18.890625 -0.6875 
Q 15.09375 0.046875 10.984375 1.515625 
z
M 30.609375 32.421875 
Q 37.25 32.421875 41.125 36.953125 
Q 45.015625 41.5 45.015625 49.421875 
Q 45.015625 57.28125 41.125 61.84375 
Q 37.25 66.40625 30.609375 66.40625 
Q 23.96875 66.40625 20.09375 61.84375 
Q 16.21875 57.28125 16.21875 49.421875 
Q 16.21875 41.5 20.09375 36.953125 
Q 23.96875 32.421875 30.609375 32.421875 
z
" id="DejaVuSans-57"/>
      </defs>
      <g transform="translate(37.875 158.039786)scale(0.1 -0.1)">
       <use xlink:href="#DejaVuSans-57"/>
       <use x="63.623047" xlink:href="#DejaVuSans-48"/>
      </g>
     </g>
    </g>
    <g id="ytick_5">
     <g id="line2d_11">
      <g>
       <use style="stroke:#000000;stroke-width:0.8;" x="57.6" xlink:href="#m26a1ac024e" y="115.314731"/>
      </g>
     </g>
     <g id="text_12">
      <!-- 100 -->
      <g transform="translate(31.5125 119.11395)scale(0.1 -0.1)">
       <use xlink:href="#DejaVuSans-49"/>
       <use x="63.623047" xlink:href="#DejaVuSans-48"/>
       <use x="127.246094" xlink:href="#DejaVuSans-48"/>
      </g>
     </g>
    </g>
    <g id="ytick_6">
     <g id="line2d_12">
      <g>
       <use style="stroke:#000000;stroke-width:0.8;" x="57.6" xlink:href="#m26a1ac024e" y="76.388895"/>
      </g>
     </g>
     <g id="text_13">
      <!-- 110 -->
      <g transform="translate(31.5125 80.188114)scale(0.1 -0.1)">
       <use xlink:href="#DejaVuSans-49"/>
       <use x="63.623047" xlink:href="#DejaVuSans-49"/>
       <use x="127.246094" xlink:href="#DejaVuSans-48"/>
      </g>
     </g>
    </g>
    <g id="text_14">
     <!-- Valor de Ritmo Cardíaco -->
     <defs>
      <path d="M 28.609375 0 
L 0.78125 72.90625 
L 11.078125 72.90625 
L 34.1875 11.53125 
L 57.328125 72.90625 
L 67.578125 72.90625 
L 39.796875 0 
z
" id="DejaVuSans-86"/>
      <path d="M 9.421875 75.984375 
L 18.40625 75.984375 
L 18.40625 0 
L 9.421875 0 
z
" id="DejaVuSans-108"/>
      <path d="M 30.609375 48.390625 
Q 23.390625 48.390625 19.1875 42.75 
Q 14.984375 37.109375 14.984375 27.296875 
Q 14.984375 17.484375 19.15625 11.84375 
Q 23.34375 6.203125 30.609375 6.203125 
Q 37.796875 6.203125 41.984375 11.859375 
Q 46.1875 17.53125 46.1875 27.296875 
Q 46.1875 37.015625 41.984375 42.703125 
Q 37.796875 48.390625 30.609375 48.390625 
z
M 30.609375 56 
Q 42.328125 56 49.015625 48.375 
Q 55.71875 40.765625 55.71875 27.296875 
Q 55.71875 13.875 49.015625 6.21875 
Q 42.328125 -1.421875 30.609375 -1.421875 
Q 18.84375 -1.421875 12.171875 6.21875 
Q 5.515625 13.875 5.515625 27.296875 
Q 5.515625 40.765625 12.171875 48.375 
Q 18.84375 56 30.609375 56 
z
" id="DejaVuSans-111"/>
      <path id="DejaVuSans-32"/>
      <path d="M 45.40625 46.390625 
L 45.40625 75.984375 
L 54.390625 75.984375 
L 54.390625 0 
L 45.40625 0 
L 45.40625 8.203125 
Q 42.578125 3.328125 38.25 0.953125 
Q 33.9375 -1.421875 27.875 -1.421875 
Q 17.96875 -1.421875 11.734375 6.484375 
Q 5.515625 14.40625 5.515625 27.296875 
Q 5.515625 40.1875 11.734375 48.09375 
Q 17.96875 56 27.875 56 
Q 33.9375 56 38.25 53.625 
Q 42.578125 51.265625 45.40625 46.390625 
z
M 14.796875 27.296875 
Q 14.796875 17.390625 18.875 11.75 
Q 22.953125 6.109375 30.078125 6.109375 
Q 37.203125 6.109375 41.296875 11.75 
Q 45.40625 17.390625 45.40625 27.296875 
Q 45.40625 37.203125 41.296875 42.84375 
Q 37.203125 48.484375 30.078125 48.484375 
Q 22.953125 48.484375 18.875 42.84375 
Q 14.796875 37.203125 14.796875 27.296875 
z
" id="DejaVuSans-100"/>
      <path d="M 44.390625 34.1875 
Q 47.5625 33.109375 50.5625 29.59375 
Q 53.5625 26.078125 56.59375 19.921875 
L 66.609375 0 
L 56 0 
L 46.6875 18.703125 
Q 43.0625 26.03125 39.671875 28.421875 
Q 36.28125 30.8125 30.421875 30.8125 
L 19.671875 30.8125 
L 19.671875 0 
L 9.8125 0 
L 9.8125 72.90625 
L 32.078125 72.90625 
Q 44.578125 72.90625 50.734375 67.671875 
Q 56.890625 62.453125 56.890625 51.90625 
Q 56.890625 45.015625 53.6875 40.46875 
Q 50.484375 35.9375 44.390625 34.1875 
z
M 19.671875 64.796875 
L 19.671875 38.921875 
L 32.078125 38.921875 
Q 39.203125 38.921875 42.84375 42.21875 
Q 46.484375 45.515625 46.484375 51.90625 
Q 46.484375 58.296875 42.84375 61.546875 
Q 39.203125 64.796875 32.078125 64.796875 
z
" id="DejaVuSans-82"/>
      <path d="M 9.421875 54.6875 
L 18.40625 54.6875 
L 18.40625 0 
L 9.421875 0 
z
M 9.421875 75.984375 
L 18.40625 75.984375 
L 18.40625 64.59375 
L 9.421875 64.59375 
z
" id="DejaVuSans-105"/>
      <path d="M 52 44.1875 
Q 55.375 50.25 60.0625 53.125 
Q 64.75 56 71.09375 56 
Q 79.640625 56 84.28125 50.015625 
Q 88.921875 44.046875 88.921875 33.015625 
L 88.921875 0 
L 79.890625 0 
L 79.890625 32.71875 
Q 79.890625 40.578125 77.09375 44.375 
Q 74.3125 48.1875 68.609375 48.1875 
Q 61.625 48.1875 57.5625 43.546875 
Q 53.515625 38.921875 53.515625 30.90625 
L 53.515625 0 
L 44.484375 0 
L 44.484375 32.71875 
Q 44.484375 40.625 41.703125 44.40625 
Q 38.921875 48.1875 33.109375 48.1875 
Q 26.21875 48.1875 22.15625 43.53125 
Q 18.109375 38.875 18.109375 30.90625 
L 18.109375 0 
L 9.078125 0 
L 9.078125 54.6875 
L 18.109375 54.6875 
L 18.109375 46.1875 
Q 21.1875 51.21875 25.484375 53.609375 
Q 29.78125 56 35.6875 56 
Q 41.65625 56 45.828125 52.96875 
Q 50 49.953125 52 44.1875 
z
" id="DejaVuSans-109"/>
      <path d="M 64.40625 67.28125 
L 64.40625 56.890625 
Q 59.421875 61.53125 53.78125 63.8125 
Q 48.140625 66.109375 41.796875 66.109375 
Q 29.296875 66.109375 22.65625 58.46875 
Q 16.015625 50.828125 16.015625 36.375 
Q 16.015625 21.96875 22.65625 14.328125 
Q 29.296875 6.6875 41.796875 6.6875 
Q 48.140625 6.6875 53.78125 8.984375 
Q 59.421875 11.28125 64.40625 15.921875 
L 64.40625 5.609375 
Q 59.234375 2.09375 53.4375 0.328125 
Q 47.65625 -1.421875 41.21875 -1.421875 
Q 24.65625 -1.421875 15.125 8.703125 
Q 5.609375 18.84375 5.609375 36.375 
Q 5.609375 53.953125 15.125 64.078125 
Q 24.65625 74.21875 41.21875 74.21875 
Q 47.75 74.21875 53.53125 72.484375 
Q 59.328125 70.75 64.40625 67.28125 
z
" id="DejaVuSans-67"/>
      <path d="M 20.703125 79.984375 
L 30.421875 79.984375 
L 14.5 61.625 
L 7.03125 61.625 
z
M 9.421875 54.6875 
L 18.40625 54.6875 
L 18.40625 0 
L 9.421875 0 
z
M 13.921875 56 
z
" id="DejaVuSans-237"/>
      <path d="M 48.78125 52.59375 
L 48.78125 44.1875 
Q 44.96875 46.296875 41.140625 47.34375 
Q 37.3125 48.390625 33.40625 48.390625 
Q 24.65625 48.390625 19.8125 42.84375 
Q 14.984375 37.3125 14.984375 27.296875 
Q 14.984375 17.28125 19.8125 11.734375 
Q 24.65625 6.203125 33.40625 6.203125 
Q 37.3125 6.203125 41.140625 7.25 
Q 44.96875 8.296875 48.78125 10.40625 
L 48.78125 2.09375 
Q 45.015625 0.34375 40.984375 -0.53125 
Q 36.96875 -1.421875 32.421875 -1.421875 
Q 20.0625 -1.421875 12.78125 6.34375 
Q 5.515625 14.109375 5.515625 27.296875 
Q 5.515625 40.671875 12.859375 48.328125 
Q 20.21875 56 33.015625 56 
Q 37.15625 56 41.109375 55.140625 
Q 45.0625 54.296875 48.78125 52.59375 
z
" id="DejaVuSans-99"/>
     </defs>
     <g transform="translate(25.432812 234.6008)rotate(-90)scale(0.1 -0.1)">
      <use xlink:href="#DejaVuSans-86"/>
      <use x="68.298828" xlink:href="#DejaVuSans-97"/>
      <use x="129.578125" xlink:href="#DejaVuSans-108"/>
      <use x="157.361328" xlink:href="#DejaVuSans-111"/>
      <use x="218.542969" xlink:href="#DejaVuSans-114"/>
      <use x="259.65625" xlink:href="#DejaVuSans-32"/>
      <use x="291.443359" xlink:href="#DejaVuSans-100"/>
      <use x="354.919922" xlink:href="#DejaVuSans-101"/>
      <use x="416.443359" xlink:href="#DejaVuSans-32"/>
      <use x="448.230469" xlink:href="#DejaVuSans-82"/>
      <use x="517.712891" xlink:href="#DejaVuSans-105"/>
      <use x="545.496094" xlink:href="#DejaVuSans-116"/>
      <use x="584.705078" xlink:href="#DejaVuSans-109"/>
      <use x="682.117188" xlink:href="#DejaVuSans-111"/>
      <use x="743.298828" xlink:href="#DejaVuSans-32"/>
      <use x="775.085938" xlink:href="#DejaVuSans-67"/>
      <use x="844.910156" xlink:href="#DejaVuSans-97"/>
      <use x="906.189453" xlink:href="#DejaVuSans-114"/>
      <use x="947.287109" xlink:href="#DejaVuSans-100"/>
      <use x="1010.763672" xlink:href="#DejaVuSans-237"/>
      <use x="1038.546875" xlink:href="#DejaVuSans-97"/>
      <use x="1099.826172" xlink:href="#DejaVuSans-99"/>
      <use x="1154.806641" xlink:href="#DejaVuSans-111"/>
     </g>
    </g>
   </g>
   <g id="line2d_13">
    <path clip-path="url(#p4ee8258731)" d="M 73.832727 228.199656 
L 73.89562 214.575613 
L 74.0843 243.225029 
L 74.461659 263.544315 
L 74.524552 262.960428 
L 75.216377 255.603445 
L 75.27927 255.603445 
L 75.405057 255.992703 
L 75.719522 260.5081 
L 75.782416 261.053062 
L 76.537134 246.728354 
L 77.291852 236.646562 
L 77.417638 236.374082 
L 77.543424 234.038531 
L 77.669211 235.868046 
L 77.920783 231.313723 
L 78.612608 221.387635 
L 79.178647 215.276278 
L 79.556006 208.269628 
L 79.681792 208.34748 
L 79.933365 208.658886 
L 79.996258 208.61996 
L 80.310724 209.320625 
L 80.62519 211.578324 
L 80.876762 213.602467 
L 81.002549 213.874948 
L 81.065442 213.797097 
L 81.254121 212.940728 
L 81.317015 212.629322 
L 81.568587 214.264207 
L 81.694374 213.719245 
L 82.197519 216.249424 
L 82.260412 216.132647 
L 82.323305 216.249424 
L 82.386198 216.249424 
L 82.574878 215.159501 
L 82.637771 214.848094 
L 82.700664 215.470908 
L 83.140916 197.253616 
L 83.266703 198.148911 
L 83.518276 201.029422 
L 83.832741 205.544819 
L 83.958528 205.700523 
L 84.021421 205.622671 
L 84.272994 202.897863 
L 85.090605 190.558372 
L 85.530857 180.982617 
L 86.034002 168.720978 
L 86.474255 162.414993 
L 86.914507 172.652488 
L 86.9774 170.706196 
L 88.109477 141.31719 
L 88.298156 140.421895 
L 88.486836 140.811154 
L 88.801302 142.095706 
L 89.430234 144.392331 
L 89.681806 145.092996 
L 89.807593 144.898367 
L 89.996272 144.976218 
L 90.122058 145.676883 
L 90.93967 153.072792 
L 91.505708 162.609622 
L 92.13464 174.676631 
L 92.637785 182.461799 
L 93.203824 196.202619 
L 94.021435 214.497762 
L 94.461687 218.390345 
L 95.719551 221.270857 
L 95.782444 221.309783 
L 95.90823 221.660116 
L 96.285589 220.49234 
L 96.411375 218.468197 
L 96.725841 213.01858 
L 98.109491 197.136839 
L 98.48685 194.139549 
L 100.184966 167.475352 
L 100.939684 162.414993 
L 101.317043 158.911668 
L 101.883081 154.746603 
L 102.071761 153.968086 
L 102.323333 154.357345 
L 102.952265 154.318419 
L 103.078051 154.162716 
L 103.329624 154.551974 
L 103.581197 154.824455 
L 104.021449 154.12379 
L 104.83906 164.049878 
L 105.908244 191.803999 
L 106.537176 205.544819 
L 107.41768 215.938018 
L 108.927116 242.212957 
L 109.052903 240.539146 
L 109.870514 225.35807 
L 110.18498 219.246714 
L 110.876805 212.901802 
L 111.37995 205.700523 
L 111.945989 188.222822 
L 112.826493 156.848598 
L 113.203852 151.905017 
L 113.455425 150.270132 
L 113.76989 149.764096 
L 114.084356 150.542613 
L 114.210143 151.398981 
L 114.524609 156.303637 
L 114.839074 160.66333 
L 115.15354 162.492845 
L 115.279327 162.687474 
L 115.530899 163.894175 
L 115.971151 166.774687 
L 116.474297 167.786758 
L 116.914549 169.73305 
L 117.291908 170.706196 
L 117.417694 170.511567 
L 117.669267 169.888753 
L 118.046626 166.813612 
L 118.738451 153.929161 
L 118.92713 152.761386 
L 119.11581 152.800311 
L 119.178703 152.488905 
L 119.933421 157.549263 
L 120.184994 157.821744 
L 120.751032 158.211003 
L 121.128391 157.549263 
L 121.442857 157.043228 
L 121.568644 156.887524 
L 121.631537 156.887524 
L 122.512041 160.546553 
L 122.637827 160.351924 
L 122.8894 159.573407 
L 122.952293 160.079443 
L 123.015187 159.884814 
L 123.707011 156.887524 
L 124.147264 155.99223 
L 124.461729 157.276783 
L 124.650409 157.821744 
L 124.713302 157.743893 
L 124.901982 157.821744 
L 125.027768 158.016373 
L 125.405127 159.028445 
L 125.593806 158.600261 
L 125.719593 158.989519 
L 126.411418 162.921029 
L 126.725884 164.478062 
L 126.85167 164.555914 
L 127.857961 166.618983 
L 127.920854 166.813612 
L 128.298213 164.633766 
L 128.361106 164.555914 
L 128.423999 164.633766 
L 128.612679 165.06195 
L 128.738465 165.06195 
L 128.990038 164.478062 
L 129.052931 164.555914 
L 129.178717 164.867321 
L 129.556076 166.774687 
L 129.681863 167.086093 
L 129.744756 167.008242 
L 130.059222 166.190799 
L 130.247901 165.918318 
L 130.373687 165.99617 
L 130.436581 166.035096 
L 130.876833 167.669981 
L 131.002619 167.592129 
L 131.317085 167.202871 
L 131.568658 168.059239 
L 132.386269 174.87126 
L 132.637842 177.206811 
L 132.763628 177.012181 
L 133.20388 173.625634 
L 133.707025 170.472641 
L 133.832812 169.927679 
L 133.958598 168.954533 
L 134.273064 164.439136 
L 134.650423 159.106297 
L 134.901996 158.833816 
L 135.153568 158.79489 
L 135.405141 157.938522 
L 136.096966 154.318419 
L 136.348539 152.216424 
L 136.411432 151.982869 
L 136.600111 152.956015 
L 136.914577 154.357345 
L 137.16615 154.551974 
L 137.480616 154.551974 
L 137.606402 155.096936 
L 137.732188 156.070082 
L 138.36112 161.558625 
L 138.612693 160.974737 
L 138.927159 160.935811 
L 139.178731 160.157294 
L 139.870556 156.848598 
L 139.996343 156.653969 
L 140.310808 157.471412 
L 140.562381 158.444558 
L 141.12842 161.831105 
L 141.317099 162.7264 
L 141.505779 163.388139 
L 141.568672 163.271361 
L 141.631565 163.388139 
L 142.197603 166.618983 
L 142.952322 179.26988 
L 143.769933 192.660368 
L 144.021505 195.774435 
L 145.153582 215.042723 
L 145.782514 230.613058 
L 146.034087 232.870756 
L 146.159873 233.571421 
L 146.28566 233.454644 
L 146.411446 233.727125 
L 146.474339 233.571421 
L 146.663019 232.09224 
L 147.040378 227.031881 
L 147.920882 211.734027 
L 148.738493 186.665789 
L 149.933463 147.701027 
L 150.436609 137.774939 
L 150.751075 135.089056 
L 150.876861 134.699798 
L 151.317113 133.337393 
L 151.820259 133.025987 
L 152.071831 133.532022 
L 152.63787 137.113199 
L 153.015229 140.499747 
L 153.266801 141.083635 
L 153.392588 141.278264 
L 153.769947 145.170848 
L 154.084413 148.79095 
L 154.650451 156.186859 
L 154.902024 156.381488 
L 155.153597 156.45934 
L 155.845421 158.32778 
L 155.971208 158.249928 
L 156.096994 157.743893 
L 157.103285 143.925221 
L 157.79511 132.052841 
L 158.486935 106.439641 
L 158.927187 94.10015 
L 160.247943 53.734058 
L 160.310837 53.3448 
L 160.37373 53.539429 
L 160.436623 53.734058 
L 160.625302 56.848125 
L 161.191341 78.02378 
L 162.386311 113.952327 
L 164.084427 186.159753 
L 164.335999 189.195968 
L 164.398893 188.689932 
L 164.713358 182.150392 
L 164.839145 181.761133 
L 164.902038 181.800059 
L 165.34229 179.542361 
L 165.405183 179.659138 
L 165.971222 171.640416 
L 166.411474 160.780108 
L 166.788833 153.968086 
L 167.480658 142.640668 
L 167.795124 139.72123 
L 167.858017 139.72123 
L 168.046696 138.553455 
L 168.801415 126.603224 
L 168.927201 126.525372 
L 169.052987 126.875705 
L 169.11588 126.797853 
L 169.178774 126.213965 
L 169.241667 126.291817 
L 169.556133 127.459592 
L 169.619026 127.38174 
L 169.744812 127.187111 
L 169.807705 127.303889 
L 170.373744 130.37903 
L 170.68821 128.354886 
L 170.813996 128.160257 
L 170.876889 128.238109 
L 171.128462 129.055551 
L 171.442928 128.04348 
L 171.88318 138.280975 
L 172.449218 151.204352 
L 172.826577 154.707677 
L 174.147334 167.942462 
L 174.650479 181.488653 
L 175.279411 192.115406 
L 175.342304 191.920777 
L 175.468091 190.830853 
L 175.530984 191.14226 
L 175.65677 191.60937 
L 176.034129 197.175765 
L 177.229099 224.501702 
L 178.172497 246.183392 
L 178.23539 245.83306 
L 178.298283 245.910911 
L 178.42407 246.416947 
L 178.486963 246.378022 
L 179.115894 240.344517 
L 179.61904 229.639912 
L 180.185078 208.15285 
L 181.317155 164.867321 
L 182.449233 132.442099 
L 183.644203 112.979181 
L 183.832882 112.784552 
L 184.084455 113.290588 
L 184.273134 114.925473 
L 184.461814 117.844911 
L 184.713387 116.365729 
L 184.77628 116.365729 
L 184.902066 115.97647 
L 184.964959 116.093248 
L 185.027852 116.093248 
L 185.468105 123.995193 
L 186.851754 162.804251 
L 187.3549 168.33172 
L 187.480686 167.669981 
L 187.920938 163.66062 
L 188.801443 149.647319 
L 189.304588 126.213965 
L 190.122199 89.545828 
L 190.562451 86.821019 
L 191.12849 98.109512 
L 192.008994 122.009975 
L 192.826606 148.32384 
L 193.329751 159.417704 
L 193.89579 165.723689 
L 194.524721 152.177498 
L 195.027867 140.032637 
L 195.531012 132.130692 
L 196.159944 116.404655 
L 196.222837 115.97647 
L 196.28573 116.015396 
L 196.663089 121.270384 
L 197.292021 140.032637 
L 197.795166 156.186859 
L 199.178816 189.663078 
L 199.430389 192.465738 
L 199.744854 197.370394 
L 199.933534 199.199908 
L 199.996427 199.783796 
L 200.05932 199.667018 
L 200.373786 196.085841 
L 200.814038 186.27653 
L 201.317184 175.649777 
L 201.757436 172.53571 
L 202.134795 170.589419 
L 202.260581 169.888753 
L 202.386368 170.316938 
L 202.700833 173.392079 
L 203.644231 193.244255 
L 203.83291 195.385176 
L 203.958697 195.385176 
L 204.084483 194.918066 
L 204.210269 195.229473 
L 204.650522 193.244255 
L 205.342347 187.716786 
L 205.656812 186.743641 
L 205.719706 186.665789 
L 205.782599 186.821492 
L 206.034171 185.108755 
L 206.725996 167.942462 
L 207.417821 150.931871 
L 207.543607 149.296986 
L 207.606501 149.491615 
L 207.79518 149.880874 
L 207.98386 151.009723 
L 208.738578 159.417704 
L 208.801471 159.573407 
L 208.864364 159.495555 
L 208.99015 159.573407 
L 209.053044 159.690184 
L 209.681975 167.475352 
L 210.248014 185.965124 
L 211.380091 228.900321 
L 211.694557 234.038531 
L 211.820343 234.311012 
L 211.883236 234.155309 
L 211.946129 234.155309 
L 212.260595 236.257304 
L 212.889527 243.575361 
L 213.203993 242.991474 
L 213.455565 245.015617 
L 213.581352 244.665285 
L 213.832925 243.847842 
L 215.153681 224.774182 
L 215.342361 223.061446 
L 215.845506 236.841192 
L 216.411545 251.555158 
L 217.040476 263.894648 
L 217.354942 268.487896 
L 218.235446 280.438128 
L 218.864378 288.65148 
L 219.115951 291.531991 
L 219.681989 293.595061 
L 219.807776 294.2568 
L 220.185135 288.223295 
L 221.065639 268.799303 
L 221.505891 257.277256 
L 222.07193 251.866564 
L 222.260609 251.049122 
L 222.386396 250.854493 
L 222.512182 251.360529 
L 222.575075 251.282677 
L 223.2669 234.42779 
L 223.644259 223.333927 
L 223.958725 221.076228 
L 224.273191 222.477558 
L 224.524763 225.202367 
L 225.216588 235.790194 
L 225.593947 232.598276 
L 225.908413 230.02917 
L 226.222879 225.202367 
L 226.348665 223.645333 
L 226.851811 230.262725 
L 226.914704 230.2238 
L 227.166277 230.846613 
L 227.292063 231.391575 
L 227.669422 230.2238 
L 227.858102 228.082879 
L 228.361247 220.920525 
L 228.675713 217.027941 
L 228.990179 213.291061 
L 229.115965 213.329987 
L 229.178858 213.407838 
L 230.059362 206.089781 
L 230.122256 205.934078 
L 230.562508 202.313975 
L 230.625401 202.430752 
L 231.757478 216.521905 
L 231.883264 219.324565 
L 231.946158 218.935307 
L 232.134837 218.273568 
L 232.19773 218.390345 
L 232.700876 214.88702 
L 233.015341 211.967582 
L 233.078235 211.928657 
L 233.266914 212.317915 
L 233.392701 212.512544 
L 233.455594 212.434692 
L 233.895846 211.928657 
L 234.210312 201.807939 
L 235.027923 178.841696 
L 235.845534 164.672691 
L 235.908427 164.555914 
L 236.285786 162.7264 
L 236.34868 162.7264 
L 236.537359 162.921029 
L 236.726039 162.7264 
L 236.851825 162.414993 
L 237.166291 161.169366 
L 237.54365 161.636476 
L 237.669436 161.052589 
L 237.858116 166.112947 
L 239.682018 219.519195 
L 240.185163 227.498991 
L 240.436736 227.927175 
L 240.562522 228.121804 
L 240.814095 229.873467 
L 240.939881 230.418429 
L 241.12856 228.511063 
L 241.883279 218.15679 
L 242.071958 218.001087 
L 242.260638 218.351419 
L 242.386424 217.68968 
L 242.763783 213.719245 
L 243.078249 210.877659 
L 243.329821 207.88037 
L 243.581394 207.179705 
L 243.770074 209.009219 
L 244.021646 213.913874 
L 244.587685 229.056024 
L 245.09083 243.069325 
L 246.097121 270.901298 
L 246.348694 273.937514 
L 246.411587 274.054291 
L 246.47448 274.015365 
L 246.663159 273.626107 
L 246.726053 273.742884 
L 247.040518 275.572399 
L 247.103412 275.222066 
L 247.417877 272.652961 
L 248.424168 259.262473 
L 248.990207 247.000835 
L 249.556245 235.868046 
L 250.059391 227.69362 
L 250.185177 227.927175 
L 250.373857 228.277508 
L 250.43675 228.316434 
L 251.002788 225.007737 
L 251.191468 225.163441 
L 251.946186 230.340577 
L 252.260652 234.505641 
L 252.575117 241.90155 
L 253.01537 253.228969 
L 253.770088 261.987282 
L 254.21034 268.799303 
L 254.650592 275.883805 
L 254.965058 280.749535 
L 255.342417 283.863602 
L 255.719776 285.887745 
L 255.845562 285.809894 
L 256.160028 286.783039 
L 256.285815 286.705188 
L 256.78896 284.836748 
L 257.103426 286.004523 
L 257.354998 287.250149 
L 257.543678 287.639408 
L 257.921037 286.783039 
L 258.109716 287.172298 
L 258.17261 287.172298 
L 258.738648 280.827387 
L 259.053114 270.706669 
L 260.688336 210.293771 
L 261.505948 178.841696 
L 262.575132 139.565527 
L 262.952491 135.089056 
L 263.078277 134.193762 
L 263.392743 130.028697 
L 263.958781 121.426087 
L 264.273247 119.090537 
L 264.839286 113.057033 
L 265.279538 108.230229 
L 265.531111 107.334935 
L 265.971363 109.592633 
L 266.91476 118.50665 
L 267.669478 128.354886 
L 267.921051 129.016625 
L 268.109731 130.106549 
L 268.235517 131.079695 
L 269.116021 140.889006 
L 269.556273 143.224556 
L 270.373885 145.98829 
L 270.688351 147.156065 
L 270.87703 147.233917 
L 271.317282 147.311768 
L 271.443069 147.311768 
L 271.631748 147.039288 
L 271.883321 147.117139 
L 272.072 147.428546 
L 272.323573 147.117139 
L 272.449359 147.428546 
L 272.512252 147.233917 
L 272.826718 146.844658 
L 273.141184 146.766807 
L 273.45565 146.377548 
L 273.707223 146.4554 
L 273.958795 146.727881 
L 274.147475 146.377548 
L 274.336154 145.365477 
L 274.65062 143.730592 
L 274.776407 143.458111 
L 275.027979 145.015144 
L 275.531125 148.674173 
L 275.782697 149.958725 
L 276.03427 150.347984 
L 276.285843 152.411053 
L 276.663202 156.264711 
L 277.22924 160.546553 
L 277.543706 161.363995 
L 277.858172 161.831105 
L 278.046851 162.687474 
L 278.361317 164.244507 
L 278.42421 164.244507 
L 278.549997 163.582768 
L 279.367608 155.486194 
L 279.430501 155.52512 
L 279.556288 156.186859 
L 279.744967 157.627115 
L 279.80786 157.432486 
L 281.065724 147.233917 
L 281.317296 146.377548 
L 281.505976 146.338623 
L 281.568869 146.182919 
L 281.883335 142.835297 
L 282.072014 142.173558 
L 282.197801 142.562816 
L 282.952519 145.793661 
L 283.141198 145.793661 
L 283.58145 141.862151 
L 283.77013 142.095706 
L 284.336169 141.667522 
L 284.587741 141.122561 
L 284.650634 141.200412 
L 285.027993 143.808443 
L 285.216673 144.11985 
L 285.342459 144.392331 
L 285.656925 147.311768 
L 286.097177 149.958725 
L 286.600323 158.249928 
L 287.103468 165.412282 
L 287.669507 168.643127 
L 287.921079 169.032385 
L 288.235545 167.786758 
L 288.487118 165.606911 
L 288.612904 163.972026 
L 288.73869 165.723689 
L 289.241836 174.170595 
L 289.493408 173.820263 
L 289.682088 172.847117 
L 289.996554 168.448498 
L 291.191524 142.446039 
L 291.443097 142.679594 
L 291.820456 144.197702 
L 292.386494 147.233917 
L 292.70096 143.808443 
L 292.88964 142.173558 
L 293.015426 140.733302 
L 293.078319 141.278264 
L 293.958824 146.182919 
L 294.336183 148.713099 
L 294.650648 153.150644 
L 294.902221 157.082153 
L 294.965114 156.576117 
L 295.216687 155.213713 
L 295.594046 153.773457 
L 296.034298 151.32113 
L 296.285871 152.021795 
L 296.977696 145.871513 
L 297.229268 145.560106 
L 297.355055 145.482254 
L 297.732414 144.431257 
L 298.04688 145.015144 
L 298.361345 144.197702 
L 298.550025 143.925221 
L 298.675811 144.003072 
L 298.864491 144.197702 
L 298.927384 144.11985 
L 298.990277 144.197702 
L 299.304743 144.392331 
L 299.744995 145.949364 
L 299.807888 145.871513 
L 300.373927 145.015144 
L 300.43682 145.015144 
L 300.562606 145.209773 
L 300.688393 144.976218 
L 301.191538 141.862151 
L 301.317325 141.901077 
L 301.380218 142.056781 
L 301.506004 141.667522 
L 301.757577 140.344044 
L 301.883363 140.889006 
L 301.946256 140.811154 
L 302.134936 140.421895 
L 302.889654 137.191051 
L 303.01544 137.697087 
L 303.267013 140.227266 
L 303.895944 149.102357 
L 304.273304 154.551974 
L 304.776449 162.414993 
L 304.965128 163.46599 
L 305.279594 161.519699 
L 305.531167 160.468701 
L 305.78274 159.223074 
L 305.845633 159.300926 
L 306.160099 160.390849 
L 306.411671 161.169366 
L 306.663244 162.220364 
L 306.78903 161.947883 
L 306.97771 160.857959 
L 307.229283 156.45934 
L 308.675825 127.887776 
L 308.738719 127.498518 
L 309.241864 129.717291 
L 309.304757 129.795142 
L 309.36765 129.717291 
L 309.619223 129.211255 
L 309.745009 128.744145 
L 309.996582 130.028697 
L 310.059475 130.223326 
L 310.122368 130.184401 
L 310.373941 129.133403 
L 310.562621 128.627367 
L 310.877086 126.720001 
L 311.94627 132.052841 
L 312.323629 132.948135 
L 312.512309 133.142764 
L 312.826775 134.58302 
L 313.078347 134.388391 
L 313.267027 134.699798 
L 313.707279 136.412534 
L 314.084638 138.748085 
L 314.210424 138.98164 
L 315.028036 145.793661 
L 315.468288 154.045938 
L 316.09722 168.759904 
L 316.851938 187.055047 
L 317.166403 191.998628 
L 317.417976 193.049626 
L 317.606656 193.633514 
L 317.984015 198.148911 
L 318.550053 206.673669 
L 318.801626 208.269628 
L 318.927412 208.464257 
L 319.116092 208.425331 
L 319.367664 208.542109 
L 319.430558 208.425331 
L 319.493451 208.464257 
L 319.619237 208.542109 
L 319.87081 208.15285 
L 319.996596 207.646815 
L 320.185276 206.479039 
L 320.373955 206.206559 
L 320.436848 206.323336 
L 320.499741 206.595817 
L 321.06578 217.105793 
L 321.631819 233.454644 
L 322.44943 249.10283 
L 322.638109 249.920273 
L 322.826789 252.139045 
L 322.889682 252.061194 
L 322.952575 252.022268 
L 323.141255 252.528304 
L 323.329934 253.696079 
L 323.45572 252.995414 
L 324.084652 240.072036 
L 325.216729 216.638683 
L 325.971447 206.479039 
L 326.03434 205.895152 
L 326.097234 206.011929 
L 326.160127 206.089781 
L 326.411699 209.125996 
L 326.474593 209.048145 
L 326.600379 209.048145 
L 326.663272 209.787736 
L 326.726165 209.515255 
L 327.040631 206.595817 
L 327.166418 205.544819 
L 327.229311 205.739449 
L 327.41799 209.048145 
L 327.480883 209.009219 
L 327.732456 208.61996 
L 327.795349 208.542109 
L 327.921136 209.009219 
L 328.109815 209.709884 
L 328.172708 209.593106 
L 328.361388 208.931367 
L 328.487174 206.907224 
L 329.053213 194.41203 
L 329.682144 174.482002 
L 330.499756 150.425835 
L 330.562649 149.880874 
L 330.625542 150.075503 
L 330.688435 150.075503 
L 330.751328 149.958725 
L 331.002901 148.012434 
L 331.19158 145.871513 
L 331.757619 147.350694 
L 331.946298 147.428546 
L 332.009192 147.350694 
L 332.072085 147.428546 
L 332.260764 147.350694 
L 332.386551 147.233917 
L 332.638123 146.533252 
L 333.141269 149.958725 
L 333.204162 149.841948 
L 333.267055 149.686244 
L 333.644414 145.287625 
L 333.833094 141.589671 
L 333.895987 141.706448 
L 334.084666 141.901077 
L 334.336239 140.344044 
L 334.650705 136.412534 
L 334.776491 135.945424 
L 334.839384 135.945424 
L 335.090957 136.256831 
L 335.15385 136.217905 
L 335.405423 135.089056 
L 335.656996 134.388391 
L 336.034355 133.726652 
L 336.726179 126.291817 
L 336.914859 127.887776 
L 337.103538 132.169618 
L 338.046936 158.249928 
L 338.612975 164.633766 
L 338.738761 165.918318 
L 339.619265 176.428294 
L 339.745052 177.012181 
L 339.870838 178.569215 
L 340.49977 187.794638 
L 340.688449 186.665789 
L 340.877129 183.318167 
L 342.009206 160.546553 
L 342.260778 158.79489 
L 342.449458 157.821744 
L 342.701031 155.914378 
L 342.952603 157.86067 
L 343.392855 158.522409 
L 343.581535 159.612333 
L 343.644428 159.573407 
L 343.896001 159.612333 
L 344.524933 160.468701 
L 345.279651 163.855249 
L 345.342544 163.855249 
L 345.46833 164.166656 
L 345.594116 164.750543 
L 345.65701 164.633766 
L 345.782796 164.361285 
L 345.971475 163.582768 
L 346.034369 163.271361 
L 346.097262 163.310287 
L 346.160155 163.46599 
L 346.223048 163.310287 
L 346.474621 164.166656 
L 346.789087 161.363995 
L 346.85198 160.935811 
L 347.166446 164.828395 
L 347.480912 170.978677 
L 349.619279 240.188814 
L 350.311104 262.532244 
L 350.688463 268.877155 
L 350.751356 268.993932 
L 351.128715 266.736234 
L 351.568968 262.765799 
L 351.883433 259.223547 
L 352.00922 258.756437 
L 352.135006 259.340325 
L 352.512365 262.765799 
L 353.015511 267.70938 
L 353.141297 268.020786 
L 353.20419 267.981861 
L 353.267083 267.981861 
L 353.39287 267.24227 
L 353.644442 263.894648 
L 355.468344 222.244003 
L 356.285955 190.947631 
L 357.103567 157.237857 
L 357.669605 144.898367 
L 357.858285 146.260771 
L 358.109857 151.204352 
L 358.36143 158.133151 
L 361.12873 256.887997 
L 361.380302 257.004775 
L 361.443195 256.810146 
L 361.757661 249.531014 
L 362.13502 237.152598 
L 363.204204 193.47781 
L 364.336281 154.435197 
L 364.650747 147.428546 
L 364.776533 144.236627 
L 364.839427 144.236627 
L 365.657038 147.117139 
L 365.90861 149.102357 
L 366.285969 154.824455 
L 366.600435 159.106297 
L 366.726222 159.300926 
L 366.977794 159.378778 
L 367.166474 159.378778 
L 367.418047 158.911668 
L 367.669619 158.989519 
L 367.858299 158.989519 
L 368.046978 158.717038 
L 368.235658 157.666041 
L 368.424337 156.381488 
L 368.48723 156.576117 
L 368.550124 156.45934 
L 368.864589 153.968086 
L 369.179055 151.437907 
L 369.430628 149.180209 
L 370.436919 138.942714 
L 370.499812 138.942714 
L 370.688491 138.553455 
L 371.06585 138.475604 
L 371.317423 138.203123 
L 371.380316 138.280975 
L 371.568996 138.864862 
L 371.631889 138.864862 
L 371.820568 138.98164 
L 372.009248 138.942714 
L 372.197928 139.91586 
L 372.4495 142.640668 
L 373.455791 153.734531 
L 374.147616 158.600261 
L 374.210509 158.522409 
L 374.713654 154.902307 
L 375.02812 151.204352 
L 375.405479 144.625886 
L 375.468372 145.482254 
L 376.285984 155.719749 
L 376.789129 165.645837 
L 377.229381 179.853768 
L 379.179069 255.330964 
L 379.808001 244.548507 
L 380.625612 226.642623 
L 382.323728 170.083383 
L 382.638194 164.283433 
L 382.701087 163.19351 
L 382.76398 163.46599 
L 383.015553 163.894175 
L 383.644485 167.942462 
L 383.833164 168.33172 
L 384.021844 168.176017 
L 384.273416 168.643127 
L 384.650775 169.149163 
L 384.776562 169.227014 
L 384.965241 169.343792 
L 385.091027 169.304866 
L 385.468386 167.280722 
L 386.223105 160.935811 
L 387.229395 148.674173 
L 388.235686 138.864862 
L 388.550152 138.592381 
L 388.738831 138.553455 
L 389.11619 137.38568 
L 389.241977 137.424606 
L 389.430656 138.086345 
L 389.619336 139.176269 
L 389.870908 142.290336 
L 390.248267 153.462051 
L 391.631917 208.931367 
L 392.009276 220.881599 
L 392.763994 228.472137 
L 392.889781 228.511063 
L 393.07846 227.927175 
L 393.330033 226.175513 
L 393.518712 223.723185 
L 393.770285 217.105793 
L 396.160225 143.613814 
L 396.348905 140.927931 
L 396.411798 141.005783 
L 396.474691 141.278264 
L 396.977837 151.048649 
L 397.292302 154.435197 
L 398.047021 163.855249 
L 398.42438 165.723689 
L 398.487273 165.606911 
L 398.487273 165.606911 
" style="fill:none;stroke:#1f77b4;stroke-linecap:square;stroke-width:1.5;"/>
   </g>
   <g id="patch_3">
    <path d="M 57.6 306.3024 
L 57.6 41.2992 
" style="fill:none;stroke:#000000;stroke-linecap:square;stroke-linejoin:miter;stroke-width:0.8;"/>
   </g>
   <g id="patch_4">
    <path d="M 414.72 306.3024 
L 414.72 41.2992 
" style="fill:none;stroke:#000000;stroke-linecap:square;stroke-linejoin:miter;stroke-width:0.8;"/>
   </g>
   <g id="patch_5">
    <path d="M 57.6 306.3024 
L 414.72 306.3024 
" style="fill:none;stroke:#000000;stroke-linecap:square;stroke-linejoin:miter;stroke-width:0.8;"/>
   </g>
   <g id="patch_6">
    <path d="M 57.6 41.2992 
L 414.72 41.2992 
" style="fill:none;stroke:#000000;stroke-linecap:square;stroke-linejoin:miter;stroke-width:0.8;"/>
   </g>
   <g id="text_15">
    <!-- Ritmo Cardíaco -->
    <g transform="translate(190.094063 35.2992)scale(0.12 -0.12)">
     <use xlink:href="#DejaVuSans-82"/>
     <use x="69.482422" xlink:href="#DejaVuSans-105"/>
     <use x="97.265625" xlink:href="#DejaVuSans-116"/>
     <use x="136.474609" xlink:href="#DejaVuSans-109"/>
     <use x="233.886719" xlink:href="#DejaVuSans-111"/>
     <use x="295.068359" xlink:href="#DejaVuSans-32"/>
     <use x="326.855469" xlink:href="#DejaVuSans-67"/>
     <use x="396.679688" xlink:href="#DejaVuSans-97"/>
     <use x="457.958984" xlink:href="#DejaVuSans-114"/>
     <use x="499.056641" xlink:href="#DejaVuSans-100"/>
     <use x="562.533203" xlink:href="#DejaVuSans-237"/>
     <use x="590.316406" xlink:href="#DejaVuSans-97"/>
     <use x="651.595703" xlink:href="#DejaVuSans-99"/>
     <use x="706.576172" xlink:href="#DejaVuSans-111"/>
    </g>
   </g>
  </g>
 </g>
 <defs>
  <clipPath id="p4ee8258731">
   <rect height="265.0032" width="357.12" x="57.6" y="41.2992"/>
  </clipPath>
 </defs>
</svg>
