<?xml version="1.0" encoding="utf-8" standalone="no"?>
<!DOCTYPE svg PUBLIC "-//W3C//DTD SVG 1.1//EN"
  "http://www.w3.org/Graphics/SVG/1.1/DTD/svg11.dtd">
<!-- Created with matplotlib (https://matplotlib.org/) -->
<svg height="344.16pt" version="1.1" viewBox="0 0 460.8 344.16" width="460.8pt" xmlns="http://www.w3.org/2000/svg" xmlns:xlink="http://www.w3.org/1999/xlink">
 <defs>
  <style type="text/css">
*{stroke-linecap:butt;stroke-linejoin:round;}
  </style>
 </defs>
 <g id="figure_1">
  <g id="patch_1">
   <path d="M 0 344.16 
L 460.8 344.16 
L 460.8 0 
L 0 0 
z
" style="fill:#ffffff;"/>
  </g>
  <g id="axes_1">
   <g id="patch_2">
    <path d="M 57.6 306.3024 
L 414.72 306.3024 
L 414.72 41.2992 
L 57.6 41.2992 
z
" style="fill:#ffffff;"/>
   </g>
   <g id="matplotlib.axis_1">
    <g id="xtick_1">
     <g id="line2d_1">
      <defs>
       <path d="M 0 0 
L 0 3.5 
" id="me938a971cf" style="stroke:#000000;stroke-width:0.8;"/>
      </defs>
      <g>
       <use style="stroke:#000000;stroke-width:0.8;" x="73.832727" xlink:href="#me938a971cf" y="306.3024"/>
      </g>
     </g>
     <g id="text_1">
      <!-- 0 -->
      <defs>
       <path d="M 31.78125 66.40625 
Q 24.171875 66.40625 20.328125 58.90625 
Q 16.5 51.421875 16.5 36.375 
Q 16.5 21.390625 20.328125 13.890625 
Q 24.171875 6.390625 31.78125 6.390625 
Q 39.453125 6.390625 43.28125 13.890625 
Q 47.125 21.390625 47.125 36.375 
Q 47.125 51.421875 43.28125 58.90625 
Q 39.453125 66.40625 31.78125 66.40625 
z
M 31.78125 74.21875 
Q 44.046875 74.21875 50.515625 64.515625 
Q 56.984375 54.828125 56.984375 36.375 
Q 56.984375 17.96875 50.515625 8.265625 
Q 44.046875 -1.421875 31.78125 -1.421875 
Q 19.53125 -1.421875 13.0625 8.265625 
Q 6.59375 17.96875 6.59375 36.375 
Q 6.59375 54.828125 13.0625 64.515625 
Q 19.53125 74.21875 31.78125 74.21875 
z
" id="DejaVuSans-48"/>
      </defs>
      <g transform="translate(70.651477 320.900838)scale(0.1 -0.1)">
       <use xlink:href="#DejaVuSans-48"/>
      </g>
     </g>
    </g>
    <g id="xtick_2">
     <g id="line2d_2">
      <g>
       <use style="stroke:#000000;stroke-width:0.8;" x="136.725898" xlink:href="#me938a971cf" y="306.3024"/>
      </g>
     </g>
     <g id="text_2">
      <!-- 1000 -->
      <defs>
       <path d="M 12.40625 8.296875 
L 28.515625 8.296875 
L 28.515625 63.921875 
L 10.984375 60.40625 
L 10.984375 69.390625 
L 28.421875 72.90625 
L 38.28125 72.90625 
L 38.28125 8.296875 
L 54.390625 8.296875 
L 54.390625 0 
L 12.40625 0 
z
" id="DejaVuSans-49"/>
      </defs>
      <g transform="translate(124.000898 320.900838)scale(0.1 -0.1)">
       <use xlink:href="#DejaVuSans-49"/>
       <use x="63.623047" xlink:href="#DejaVuSans-48"/>
       <use x="127.246094" xlink:href="#DejaVuSans-48"/>
       <use x="190.869141" xlink:href="#DejaVuSans-48"/>
      </g>
     </g>
    </g>
    <g id="xtick_3">
     <g id="line2d_3">
      <g>
       <use style="stroke:#000000;stroke-width:0.8;" x="199.619068" xlink:href="#me938a971cf" y="306.3024"/>
      </g>
     </g>
     <g id="text_3">
      <!-- 2000 -->
      <defs>
       <path d="M 19.1875 8.296875 
L 53.609375 8.296875 
L 53.609375 0 
L 7.328125 0 
L 7.328125 8.296875 
Q 12.9375 14.109375 22.625 23.890625 
Q 32.328125 33.6875 34.8125 36.53125 
Q 39.546875 41.84375 41.421875 45.53125 
Q 43.3125 49.21875 43.3125 52.78125 
Q 43.3125 58.59375 39.234375 62.25 
Q 35.15625 65.921875 28.609375 65.921875 
Q 23.96875 65.921875 18.8125 64.3125 
Q 13.671875 62.703125 7.8125 59.421875 
L 7.8125 69.390625 
Q 13.765625 71.78125 18.9375 73 
Q 24.125 74.21875 28.421875 74.21875 
Q 39.75 74.21875 46.484375 68.546875 
Q 53.21875 62.890625 53.21875 53.421875 
Q 53.21875 48.921875 51.53125 44.890625 
Q 49.859375 40.875 45.40625 35.40625 
Q 44.1875 33.984375 37.640625 27.21875 
Q 31.109375 20.453125 19.1875 8.296875 
z
" id="DejaVuSans-50"/>
      </defs>
      <g transform="translate(186.894068 320.900838)scale(0.1 -0.1)">
       <use xlink:href="#DejaVuSans-50"/>
       <use x="63.623047" xlink:href="#DejaVuSans-48"/>
       <use x="127.246094" xlink:href="#DejaVuSans-48"/>
       <use x="190.869141" xlink:href="#DejaVuSans-48"/>
      </g>
     </g>
    </g>
    <g id="xtick_4">
     <g id="line2d_4">
      <g>
       <use style="stroke:#000000;stroke-width:0.8;" x="262.512238" xlink:href="#me938a971cf" y="306.3024"/>
      </g>
     </g>
     <g id="text_4">
      <!-- 3000 -->
      <defs>
       <path d="M 40.578125 39.3125 
Q 47.65625 37.796875 51.625 33 
Q 55.609375 28.21875 55.609375 21.1875 
Q 55.609375 10.40625 48.1875 4.484375 
Q 40.765625 -1.421875 27.09375 -1.421875 
Q 22.515625 -1.421875 17.65625 -0.515625 
Q 12.796875 0.390625 7.625 2.203125 
L 7.625 11.71875 
Q 11.71875 9.328125 16.59375 8.109375 
Q 21.484375 6.890625 26.8125 6.890625 
Q 36.078125 6.890625 40.9375 10.546875 
Q 45.796875 14.203125 45.796875 21.1875 
Q 45.796875 27.640625 41.28125 31.265625 
Q 36.765625 34.90625 28.71875 34.90625 
L 20.21875 34.90625 
L 20.21875 43.015625 
L 29.109375 43.015625 
Q 36.375 43.015625 40.234375 45.921875 
Q 44.09375 48.828125 44.09375 54.296875 
Q 44.09375 59.90625 40.109375 62.90625 
Q 36.140625 65.921875 28.71875 65.921875 
Q 24.65625 65.921875 20.015625 65.03125 
Q 15.375 64.15625 9.8125 62.3125 
L 9.8125 71.09375 
Q 15.4375 72.65625 20.34375 73.4375 
Q 25.25 74.21875 29.59375 74.21875 
Q 40.828125 74.21875 47.359375 69.109375 
Q 53.90625 64.015625 53.90625 55.328125 
Q 53.90625 49.265625 50.4375 45.09375 
Q 46.96875 40.921875 40.578125 39.3125 
z
" id="DejaVuSans-51"/>
      </defs>
      <g transform="translate(249.787238 320.900838)scale(0.1 -0.1)">
       <use xlink:href="#DejaVuSans-51"/>
       <use x="63.623047" xlink:href="#DejaVuSans-48"/>
       <use x="127.246094" xlink:href="#DejaVuSans-48"/>
       <use x="190.869141" xlink:href="#DejaVuSans-48"/>
      </g>
     </g>
    </g>
    <g id="xtick_5">
     <g id="line2d_5">
      <g>
       <use style="stroke:#000000;stroke-width:0.8;" x="325.405409" xlink:href="#me938a971cf" y="306.3024"/>
      </g>
     </g>
     <g id="text_5">
      <!-- 4000 -->
      <defs>
       <path d="M 37.796875 64.3125 
L 12.890625 25.390625 
L 37.796875 25.390625 
z
M 35.203125 72.90625 
L 47.609375 72.90625 
L 47.609375 25.390625 
L 58.015625 25.390625 
L 58.015625 17.1875 
L 47.609375 17.1875 
L 47.609375 0 
L 37.796875 0 
L 37.796875 17.1875 
L 4.890625 17.1875 
L 4.890625 26.703125 
z
" id="DejaVuSans-52"/>
      </defs>
      <g transform="translate(312.680409 320.900838)scale(0.1 -0.1)">
       <use xlink:href="#DejaVuSans-52"/>
       <use x="63.623047" xlink:href="#DejaVuSans-48"/>
       <use x="127.246094" xlink:href="#DejaVuSans-48"/>
       <use x="190.869141" xlink:href="#DejaVuSans-48"/>
      </g>
     </g>
    </g>
    <g id="xtick_6">
     <g id="line2d_6">
      <g>
       <use style="stroke:#000000;stroke-width:0.8;" x="388.298579" xlink:href="#me938a971cf" y="306.3024"/>
      </g>
     </g>
     <g id="text_6">
      <!-- 5000 -->
      <defs>
       <path d="M 10.796875 72.90625 
L 49.515625 72.90625 
L 49.515625 64.59375 
L 19.828125 64.59375 
L 19.828125 46.734375 
Q 21.96875 47.46875 24.109375 47.828125 
Q 26.265625 48.1875 28.421875 48.1875 
Q 40.625 48.1875 47.75 41.5 
Q 54.890625 34.8125 54.890625 23.390625 
Q 54.890625 11.625 47.5625 5.09375 
Q 40.234375 -1.421875 26.90625 -1.421875 
Q 22.3125 -1.421875 17.546875 -0.640625 
Q 12.796875 0.140625 7.71875 1.703125 
L 7.71875 11.625 
Q 12.109375 9.234375 16.796875 8.0625 
Q 21.484375 6.890625 26.703125 6.890625 
Q 35.15625 6.890625 40.078125 11.328125 
Q 45.015625 15.765625 45.015625 23.390625 
Q 45.015625 31 40.078125 35.4375 
Q 35.15625 39.890625 26.703125 39.890625 
Q 22.75 39.890625 18.8125 39.015625 
Q 14.890625 38.140625 10.796875 36.28125 
z
" id="DejaVuSans-53"/>
      </defs>
      <g transform="translate(375.573579 320.900838)scale(0.1 -0.1)">
       <use xlink:href="#DejaVuSans-53"/>
       <use x="63.623047" xlink:href="#DejaVuSans-48"/>
       <use x="127.246094" xlink:href="#DejaVuSans-48"/>
       <use x="190.869141" xlink:href="#DejaVuSans-48"/>
      </g>
     </g>
    </g>
    <g id="text_7">
     <!-- Muestras -->
     <defs>
      <path d="M 9.8125 72.90625 
L 24.515625 72.90625 
L 43.109375 23.296875 
L 61.8125 72.90625 
L 76.515625 72.90625 
L 76.515625 0 
L 66.890625 0 
L 66.890625 64.015625 
L 48.09375 14.015625 
L 38.1875 14.015625 
L 19.390625 64.015625 
L 19.390625 0 
L 9.8125 0 
z
" id="DejaVuSans-77"/>
      <path d="M 8.5 21.578125 
L 8.5 54.6875 
L 17.484375 54.6875 
L 17.484375 21.921875 
Q 17.484375 14.15625 20.5 10.265625 
Q 23.53125 6.390625 29.59375 6.390625 
Q 36.859375 6.390625 41.078125 11.03125 
Q 45.3125 15.671875 45.3125 23.6875 
L 45.3125 54.6875 
L 54.296875 54.6875 
L 54.296875 0 
L 45.3125 0 
L 45.3125 8.40625 
Q 42.046875 3.421875 37.71875 1 
Q 33.40625 -1.421875 27.6875 -1.421875 
Q 18.265625 -1.421875 13.375 4.4375 
Q 8.5 10.296875 8.5 21.578125 
z
M 31.109375 56 
z
" id="DejaVuSans-117"/>
      <path d="M 56.203125 29.59375 
L 56.203125 25.203125 
L 14.890625 25.203125 
Q 15.484375 15.921875 20.484375 11.0625 
Q 25.484375 6.203125 34.421875 6.203125 
Q 39.59375 6.203125 44.453125 7.46875 
Q 49.3125 8.734375 54.109375 11.28125 
L 54.109375 2.78125 
Q 49.265625 0.734375 44.1875 -0.34375 
Q 39.109375 -1.421875 33.890625 -1.421875 
Q 20.796875 -1.421875 13.15625 6.1875 
Q 5.515625 13.8125 5.515625 26.8125 
Q 5.515625 40.234375 12.765625 48.109375 
Q 20.015625 56 32.328125 56 
Q 43.359375 56 49.78125 48.890625 
Q 56.203125 41.796875 56.203125 29.59375 
z
M 47.21875 32.234375 
Q 47.125 39.59375 43.09375 43.984375 
Q 39.0625 48.390625 32.421875 48.390625 
Q 24.90625 48.390625 20.390625 44.140625 
Q 15.875 39.890625 15.1875 32.171875 
z
" id="DejaVuSans-101"/>
      <path d="M 44.28125 53.078125 
L 44.28125 44.578125 
Q 40.484375 46.53125 36.375 47.5 
Q 32.28125 48.484375 27.875 48.484375 
Q 21.1875 48.484375 17.84375 46.4375 
Q 14.5 44.390625 14.5 40.28125 
Q 14.5 37.15625 16.890625 35.375 
Q 19.28125 33.59375 26.515625 31.984375 
L 29.59375 31.296875 
Q 39.15625 29.25 43.1875 25.515625 
Q 47.21875 21.78125 47.21875 15.09375 
Q 47.21875 7.46875 41.1875 3.015625 
Q 35.15625 -1.421875 24.609375 -1.421875 
Q 20.21875 -1.421875 15.453125 -0.5625 
Q 10.6875 0.296875 5.421875 2 
L 5.421875 11.28125 
Q 10.40625 8.6875 15.234375 7.390625 
Q 20.0625 6.109375 24.8125 6.109375 
Q 31.15625 6.109375 34.5625 8.28125 
Q 37.984375 10.453125 37.984375 14.40625 
Q 37.984375 18.0625 35.515625 20.015625 
Q 33.0625 21.96875 24.703125 23.78125 
L 21.578125 24.515625 
Q 13.234375 26.265625 9.515625 29.90625 
Q 5.8125 33.546875 5.8125 39.890625 
Q 5.8125 47.609375 11.28125 51.796875 
Q 16.75 56 26.8125 56 
Q 31.78125 56 36.171875 55.265625 
Q 40.578125 54.546875 44.28125 53.078125 
z
" id="DejaVuSans-115"/>
      <path d="M 18.3125 70.21875 
L 18.3125 54.6875 
L 36.8125 54.6875 
L 36.8125 47.703125 
L 18.3125 47.703125 
L 18.3125 18.015625 
Q 18.3125 11.328125 20.140625 9.421875 
Q 21.96875 7.515625 27.59375 7.515625 
L 36.8125 7.515625 
L 36.8125 0 
L 27.59375 0 
Q 17.1875 0 13.234375 3.875 
Q 9.28125 7.765625 9.28125 18.015625 
L 9.28125 47.703125 
L 2.6875 47.703125 
L 2.6875 54.6875 
L 9.28125 54.6875 
L 9.28125 70.21875 
z
" id="DejaVuSans-116"/>
      <path d="M 41.109375 46.296875 
Q 39.59375 47.171875 37.8125 47.578125 
Q 36.03125 48 33.890625 48 
Q 26.265625 48 22.1875 43.046875 
Q 18.109375 38.09375 18.109375 28.8125 
L 18.109375 0 
L 9.078125 0 
L 9.078125 54.6875 
L 18.109375 54.6875 
L 18.109375 46.1875 
Q 20.953125 51.171875 25.484375 53.578125 
Q 30.03125 56 36.53125 56 
Q 37.453125 56 38.578125 55.875 
Q 39.703125 55.765625 41.0625 55.515625 
z
" id="DejaVuSans-114"/>
      <path d="M 34.28125 27.484375 
Q 23.390625 27.484375 19.1875 25 
Q 14.984375 22.515625 14.984375 16.5 
Q 14.984375 11.71875 18.140625 8.90625 
Q 21.296875 6.109375 26.703125 6.109375 
Q 34.1875 6.109375 38.703125 11.40625 
Q 43.21875 16.703125 43.21875 25.484375 
L 43.21875 27.484375 
z
M 52.203125 31.203125 
L 52.203125 0 
L 43.21875 0 
L 43.21875 8.296875 
Q 40.140625 3.328125 35.546875 0.953125 
Q 30.953125 -1.421875 24.3125 -1.421875 
Q 15.921875 -1.421875 10.953125 3.296875 
Q 6 8.015625 6 15.921875 
Q 6 25.140625 12.171875 29.828125 
Q 18.359375 34.515625 30.609375 34.515625 
L 43.21875 34.515625 
L 43.21875 35.40625 
Q 43.21875 41.609375 39.140625 45 
Q 35.0625 48.390625 27.6875 48.390625 
Q 23 48.390625 18.546875 47.265625 
Q 14.109375 46.140625 10.015625 43.890625 
L 10.015625 52.203125 
Q 14.9375 54.109375 19.578125 55.046875 
Q 24.21875 56 28.609375 56 
Q 40.484375 56 46.34375 49.84375 
Q 52.203125 43.703125 52.203125 31.203125 
z
" id="DejaVuSans-97"/>
     </defs>
     <g transform="translate(213.311562 334.578963)scale(0.1 -0.1)">
      <use xlink:href="#DejaVuSans-77"/>
      <use x="86.279297" xlink:href="#DejaVuSans-117"/>
      <use x="149.658203" xlink:href="#DejaVuSans-101"/>
      <use x="211.181641" xlink:href="#DejaVuSans-115"/>
      <use x="263.28125" xlink:href="#DejaVuSans-116"/>
      <use x="302.490234" xlink:href="#DejaVuSans-114"/>
      <use x="343.603516" xlink:href="#DejaVuSans-97"/>
      <use x="404.882812" xlink:href="#DejaVuSans-115"/>
     </g>
    </g>
   </g>
   <g id="matplotlib.axis_2">
    <g id="ytick_1">
     <g id="line2d_7">
      <defs>
       <path d="M 0 0 
L -3.5 0 
" id="mc4f5eccafc" style="stroke:#000000;stroke-width:0.8;"/>
      </defs>
      <g>
       <use style="stroke:#000000;stroke-width:0.8;" x="57.6" xlink:href="#mc4f5eccafc" y="280.8728"/>
      </g>
     </g>
     <g id="text_8">
      <!-- 31.8 -->
      <defs>
       <path d="M 10.6875 12.40625 
L 21 12.40625 
L 21 0 
L 10.6875 0 
z
" id="DejaVuSans-46"/>
       <path d="M 31.78125 34.625 
Q 24.75 34.625 20.71875 30.859375 
Q 16.703125 27.09375 16.703125 20.515625 
Q 16.703125 13.921875 20.71875 10.15625 
Q 24.75 6.390625 31.78125 6.390625 
Q 38.8125 6.390625 42.859375 10.171875 
Q 46.921875 13.96875 46.921875 20.515625 
Q 46.921875 27.09375 42.890625 30.859375 
Q 38.875 34.625 31.78125 34.625 
z
M 21.921875 38.8125 
Q 15.578125 40.375 12.03125 44.71875 
Q 8.5 49.078125 8.5 55.328125 
Q 8.5 64.0625 14.71875 69.140625 
Q 20.953125 74.21875 31.78125 74.21875 
Q 42.671875 74.21875 48.875 69.140625 
Q 55.078125 64.0625 55.078125 55.328125 
Q 55.078125 49.078125 51.53125 44.71875 
Q 48 40.375 41.703125 38.8125 
Q 48.828125 37.15625 52.796875 32.3125 
Q 56.78125 27.484375 56.78125 20.515625 
Q 56.78125 9.90625 50.3125 4.234375 
Q 43.84375 -1.421875 31.78125 -1.421875 
Q 19.734375 -1.421875 13.25 4.234375 
Q 6.78125 9.90625 6.78125 20.515625 
Q 6.78125 27.484375 10.78125 32.3125 
Q 14.796875 37.15625 21.921875 38.8125 
z
M 18.3125 54.390625 
Q 18.3125 48.734375 21.84375 45.5625 
Q 25.390625 42.390625 31.78125 42.390625 
Q 38.140625 42.390625 41.71875 45.5625 
Q 45.3125 48.734375 45.3125 54.390625 
Q 45.3125 60.0625 41.71875 63.234375 
Q 38.140625 66.40625 31.78125 66.40625 
Q 25.390625 66.40625 21.84375 63.234375 
Q 18.3125 60.0625 18.3125 54.390625 
z
" id="DejaVuSans-56"/>
      </defs>
      <g transform="translate(28.334375 284.672019)scale(0.1 -0.1)">
       <use xlink:href="#DejaVuSans-51"/>
       <use x="63.623047" xlink:href="#DejaVuSans-49"/>
       <use x="127.246094" xlink:href="#DejaVuSans-46"/>
       <use x="159.033203" xlink:href="#DejaVuSans-56"/>
      </g>
     </g>
    </g>
    <g id="ytick_2">
     <g id="line2d_8">
      <g>
       <use style="stroke:#000000;stroke-width:0.8;" x="57.6" xlink:href="#mc4f5eccafc" y="242.6328"/>
      </g>
     </g>
     <g id="text_9">
      <!-- 32.0 -->
      <g transform="translate(28.334375 246.432019)scale(0.1 -0.1)">
       <use xlink:href="#DejaVuSans-51"/>
       <use x="63.623047" xlink:href="#DejaVuSans-50"/>
       <use x="127.246094" xlink:href="#DejaVuSans-46"/>
       <use x="159.033203" xlink:href="#DejaVuSans-48"/>
      </g>
     </g>
    </g>
    <g id="ytick_3">
     <g id="line2d_9">
      <g>
       <use style="stroke:#000000;stroke-width:0.8;" x="57.6" xlink:href="#mc4f5eccafc" y="204.3928"/>
      </g>
     </g>
     <g id="text_10">
      <!-- 32.2 -->
      <g transform="translate(28.334375 208.192019)scale(0.1 -0.1)">
       <use xlink:href="#DejaVuSans-51"/>
       <use x="63.623047" xlink:href="#DejaVuSans-50"/>
       <use x="127.246094" xlink:href="#DejaVuSans-46"/>
       <use x="159.033203" xlink:href="#DejaVuSans-50"/>
      </g>
     </g>
    </g>
    <g id="ytick_4">
     <g id="line2d_10">
      <g>
       <use style="stroke:#000000;stroke-width:0.8;" x="57.6" xlink:href="#mc4f5eccafc" y="166.1528"/>
      </g>
     </g>
     <g id="text_11">
      <!-- 32.4 -->
      <g transform="translate(28.334375 169.952019)scale(0.1 -0.1)">
       <use xlink:href="#DejaVuSans-51"/>
       <use x="63.623047" xlink:href="#DejaVuSans-50"/>
       <use x="127.246094" xlink:href="#DejaVuSans-46"/>
       <use x="159.033203" xlink:href="#DejaVuSans-52"/>
      </g>
     </g>
    </g>
    <g id="ytick_5">
     <g id="line2d_11">
      <g>
       <use style="stroke:#000000;stroke-width:0.8;" x="57.6" xlink:href="#mc4f5eccafc" y="127.9128"/>
      </g>
     </g>
     <g id="text_12">
      <!-- 32.6 -->
      <defs>
       <path d="M 33.015625 40.375 
Q 26.375 40.375 22.484375 35.828125 
Q 18.609375 31.296875 18.609375 23.390625 
Q 18.609375 15.53125 22.484375 10.953125 
Q 26.375 6.390625 33.015625 6.390625 
Q 39.65625 6.390625 43.53125 10.953125 
Q 47.40625 15.53125 47.40625 23.390625 
Q 47.40625 31.296875 43.53125 35.828125 
Q 39.65625 40.375 33.015625 40.375 
z
M 52.59375 71.296875 
L 52.59375 62.3125 
Q 48.875 64.0625 45.09375 64.984375 
Q 41.3125 65.921875 37.59375 65.921875 
Q 27.828125 65.921875 22.671875 59.328125 
Q 17.53125 52.734375 16.796875 39.40625 
Q 19.671875 43.65625 24.015625 45.921875 
Q 28.375 48.1875 33.59375 48.1875 
Q 44.578125 48.1875 50.953125 41.515625 
Q 57.328125 34.859375 57.328125 23.390625 
Q 57.328125 12.15625 50.6875 5.359375 
Q 44.046875 -1.421875 33.015625 -1.421875 
Q 20.359375 -1.421875 13.671875 8.265625 
Q 6.984375 17.96875 6.984375 36.375 
Q 6.984375 53.65625 15.1875 63.9375 
Q 23.390625 74.21875 37.203125 74.21875 
Q 40.921875 74.21875 44.703125 73.484375 
Q 48.484375 72.75 52.59375 71.296875 
z
" id="DejaVuSans-54"/>
      </defs>
      <g transform="translate(28.334375 131.712019)scale(0.1 -0.1)">
       <use xlink:href="#DejaVuSans-51"/>
       <use x="63.623047" xlink:href="#DejaVuSans-50"/>
       <use x="127.246094" xlink:href="#DejaVuSans-46"/>
       <use x="159.033203" xlink:href="#DejaVuSans-54"/>
      </g>
     </g>
    </g>
    <g id="ytick_6">
     <g id="line2d_12">
      <g>
       <use style="stroke:#000000;stroke-width:0.8;" x="57.6" xlink:href="#mc4f5eccafc" y="89.6728"/>
      </g>
     </g>
     <g id="text_13">
      <!-- 32.8 -->
      <g transform="translate(28.334375 93.472019)scale(0.1 -0.1)">
       <use xlink:href="#DejaVuSans-51"/>
       <use x="63.623047" xlink:href="#DejaVuSans-50"/>
       <use x="127.246094" xlink:href="#DejaVuSans-46"/>
       <use x="159.033203" xlink:href="#DejaVuSans-56"/>
      </g>
     </g>
    </g>
    <g id="ytick_7">
     <g id="line2d_13">
      <g>
       <use style="stroke:#000000;stroke-width:0.8;" x="57.6" xlink:href="#mc4f5eccafc" y="51.4328"/>
      </g>
     </g>
     <g id="text_14">
      <!-- 33.0 -->
      <g transform="translate(28.334375 55.232019)scale(0.1 -0.1)">
       <use xlink:href="#DejaVuSans-51"/>
       <use x="63.623047" xlink:href="#DejaVuSans-51"/>
       <use x="127.246094" xlink:href="#DejaVuSans-46"/>
       <use x="159.033203" xlink:href="#DejaVuSans-48"/>
      </g>
     </g>
    </g>
    <g id="text_15">
     <!-- Valor de Temperatura -->
     <defs>
      <path d="M 28.609375 0 
L 0.78125 72.90625 
L 11.078125 72.90625 
L 34.1875 11.53125 
L 57.328125 72.90625 
L 67.578125 72.90625 
L 39.796875 0 
z
" id="DejaVuSans-86"/>
      <path d="M 9.421875 75.984375 
L 18.40625 75.984375 
L 18.40625 0 
L 9.421875 0 
z
" id="DejaVuSans-108"/>
      <path d="M 30.609375 48.390625 
Q 23.390625 48.390625 19.1875 42.75 
Q 14.984375 37.109375 14.984375 27.296875 
Q 14.984375 17.484375 19.15625 11.84375 
Q 23.34375 6.203125 30.609375 6.203125 
Q 37.796875 6.203125 41.984375 11.859375 
Q 46.1875 17.53125 46.1875 27.296875 
Q 46.1875 37.015625 41.984375 42.703125 
Q 37.796875 48.390625 30.609375 48.390625 
z
M 30.609375 56 
Q 42.328125 56 49.015625 48.375 
Q 55.71875 40.765625 55.71875 27.296875 
Q 55.71875 13.875 49.015625 6.21875 
Q 42.328125 -1.421875 30.609375 -1.421875 
Q 18.84375 -1.421875 12.171875 6.21875 
Q 5.515625 13.875 5.515625 27.296875 
Q 5.515625 40.765625 12.171875 48.375 
Q 18.84375 56 30.609375 56 
z
" id="DejaVuSans-111"/>
      <path id="DejaVuSans-32"/>
      <path d="M 45.40625 46.390625 
L 45.40625 75.984375 
L 54.390625 75.984375 
L 54.390625 0 
L 45.40625 0 
L 45.40625 8.203125 
Q 42.578125 3.328125 38.25 0.953125 
Q 33.9375 -1.421875 27.875 -1.421875 
Q 17.96875 -1.421875 11.734375 6.484375 
Q 5.515625 14.40625 5.515625 27.296875 
Q 5.515625 40.1875 11.734375 48.09375 
Q 17.96875 56 27.875 56 
Q 33.9375 56 38.25 53.625 
Q 42.578125 51.265625 45.40625 46.390625 
z
M 14.796875 27.296875 
Q 14.796875 17.390625 18.875 11.75 
Q 22.953125 6.109375 30.078125 6.109375 
Q 37.203125 6.109375 41.296875 11.75 
Q 45.40625 17.390625 45.40625 27.296875 
Q 45.40625 37.203125 41.296875 42.84375 
Q 37.203125 48.484375 30.078125 48.484375 
Q 22.953125 48.484375 18.875 42.84375 
Q 14.796875 37.203125 14.796875 27.296875 
z
" id="DejaVuSans-100"/>
      <path d="M -0.296875 72.90625 
L 61.375 72.90625 
L 61.375 64.59375 
L 35.5 64.59375 
L 35.5 0 
L 25.59375 0 
L 25.59375 64.59375 
L -0.296875 64.59375 
z
" id="DejaVuSans-84"/>
      <path d="M 52 44.1875 
Q 55.375 50.25 60.0625 53.125 
Q 64.75 56 71.09375 56 
Q 79.640625 56 84.28125 50.015625 
Q 88.921875 44.046875 88.921875 33.015625 
L 88.921875 0 
L 79.890625 0 
L 79.890625 32.71875 
Q 79.890625 40.578125 77.09375 44.375 
Q 74.3125 48.1875 68.609375 48.1875 
Q 61.625 48.1875 57.5625 43.546875 
Q 53.515625 38.921875 53.515625 30.90625 
L 53.515625 0 
L 44.484375 0 
L 44.484375 32.71875 
Q 44.484375 40.625 41.703125 44.40625 
Q 38.921875 48.1875 33.109375 48.1875 
Q 26.21875 48.1875 22.15625 43.53125 
Q 18.109375 38.875 18.109375 30.90625 
L 18.109375 0 
L 9.078125 0 
L 9.078125 54.6875 
L 18.109375 54.6875 
L 18.109375 46.1875 
Q 21.1875 51.21875 25.484375 53.609375 
Q 29.78125 56 35.6875 56 
Q 41.65625 56 45.828125 52.96875 
Q 50 49.953125 52 44.1875 
z
" id="DejaVuSans-109"/>
      <path d="M 18.109375 8.203125 
L 18.109375 -20.796875 
L 9.078125 -20.796875 
L 9.078125 54.6875 
L 18.109375 54.6875 
L 18.109375 46.390625 
Q 20.953125 51.265625 25.265625 53.625 
Q 29.59375 56 35.59375 56 
Q 45.5625 56 51.78125 48.09375 
Q 58.015625 40.1875 58.015625 27.296875 
Q 58.015625 14.40625 51.78125 6.484375 
Q 45.5625 -1.421875 35.59375 -1.421875 
Q 29.59375 -1.421875 25.265625 0.953125 
Q 20.953125 3.328125 18.109375 8.203125 
z
M 48.6875 27.296875 
Q 48.6875 37.203125 44.609375 42.84375 
Q 40.53125 48.484375 33.40625 48.484375 
Q 26.265625 48.484375 22.1875 42.84375 
Q 18.109375 37.203125 18.109375 27.296875 
Q 18.109375 17.390625 22.1875 11.75 
Q 26.265625 6.109375 33.40625 6.109375 
Q 40.53125 6.109375 44.609375 11.75 
Q 48.6875 17.390625 48.6875 27.296875 
z
" id="DejaVuSans-112"/>
     </defs>
     <g transform="translate(22.254687 228.818769)rotate(-90)scale(0.1 -0.1)">
      <use xlink:href="#DejaVuSans-86"/>
      <use x="68.298828" xlink:href="#DejaVuSans-97"/>
      <use x="129.578125" xlink:href="#DejaVuSans-108"/>
      <use x="157.361328" xlink:href="#DejaVuSans-111"/>
      <use x="218.542969" xlink:href="#DejaVuSans-114"/>
      <use x="259.65625" xlink:href="#DejaVuSans-32"/>
      <use x="291.443359" xlink:href="#DejaVuSans-100"/>
      <use x="354.919922" xlink:href="#DejaVuSans-101"/>
      <use x="416.443359" xlink:href="#DejaVuSans-32"/>
      <use x="448.230469" xlink:href="#DejaVuSans-84"/>
      <use x="509.048828" xlink:href="#DejaVuSans-101"/>
      <use x="570.572266" xlink:href="#DejaVuSans-109"/>
      <use x="667.984375" xlink:href="#DejaVuSans-112"/>
      <use x="731.460938" xlink:href="#DejaVuSans-101"/>
      <use x="792.984375" xlink:href="#DejaVuSans-114"/>
      <use x="834.097656" xlink:href="#DejaVuSans-97"/>
      <use x="895.376953" xlink:href="#DejaVuSans-116"/>
      <use x="934.585938" xlink:href="#DejaVuSans-117"/>
      <use x="997.964844" xlink:href="#DejaVuSans-114"/>
      <use x="1039.078125" xlink:href="#DejaVuSans-97"/>
     </g>
    </g>
   </g>
   <g id="line2d_14">
    <path clip-path="url(#pc7790af435)" d="M 73.832727 290.4328 
L 74.147193 290.4328 
L 74.272979 294.2568 
L 74.398766 294.2568 
L 74.524552 290.4328 
L 74.901911 290.4328 
L 75.027698 286.6088 
L 75.656629 286.6088 
L 75.782416 290.4328 
L 75.908202 290.4328 
L 76.033988 286.6088 
L 76.159775 286.6088 
L 76.285561 282.7848 
L 76.914493 282.7848 
L 77.040279 278.9608 
L 77.166065 278.9608 
L 77.291852 286.6088 
L 77.417638 286.6088 
L 77.543424 278.9608 
L 77.669211 278.9608 
L 77.794997 282.7848 
L 77.920783 282.7848 
L 78.04657 286.6088 
L 78.172356 286.6088 
L 78.298142 282.7848 
L 78.927074 282.7848 
L 79.05286 278.9608 
L 79.178647 278.9608 
L 79.304433 282.7848 
L 79.430219 282.7848 
L 79.556006 278.9608 
L 79.681792 278.9608 
L 79.807578 282.7848 
L 79.933365 282.7848 
L 80.059151 278.9608 
L 80.184937 278.9608 
L 80.310724 275.1368 
L 80.43651 275.1368 
L 80.562297 278.9608 
L 80.939656 278.9608 
L 81.065442 271.3128 
L 81.442801 271.3128 
L 81.568587 275.1368 
L 81.945946 275.1368 
L 82.071733 271.3128 
L 82.197519 271.3128 
L 82.323305 267.4888 
L 82.700664 267.4888 
L 82.826451 263.6648 
L 82.952237 263.6648 
L 83.078023 259.8408 
L 83.455382 259.8408 
L 83.581169 263.6648 
L 83.958528 263.6648 
L 84.084314 259.8408 
L 84.461673 259.8408 
L 84.587459 256.0168 
L 84.964818 256.0168 
L 85.090605 252.1928 
L 85.216391 252.1928 
L 85.342177 256.0168 
L 85.467964 256.0168 
L 85.59375 259.8408 
L 85.971109 259.8408 
L 86.096895 252.1928 
L 86.474255 252.1928 
L 86.600041 256.0168 
L 86.725827 256.0168 
L 86.851614 252.1928 
L 88.235263 252.1928 
L 88.36105 248.3688 
L 88.486836 248.3688 
L 88.612622 252.1928 
L 88.738409 252.1928 
L 88.864195 248.3688 
L 89.493127 248.3688 
L 89.618913 244.5448 
L 89.744699 244.5448 
L 89.870486 242.6328 
L 90.247845 242.6328 
L 90.373631 244.5448 
L 90.499417 244.5448 
L 90.625204 236.8968 
L 90.75099 236.8968 
L 90.876776 244.5448 
L 91.002563 244.5448 
L 91.128349 248.3688 
L 91.254135 248.3688 
L 91.379922 236.8968 
L 91.757281 236.8968 
L 91.883067 242.6328 
L 92.260426 242.6328 
L 92.386213 236.8968 
L 92.763572 236.8968 
L 92.889358 233.0728 
L 93.266717 233.0728 
L 93.392503 236.8968 
L 93.51829 236.8968 
L 93.644076 233.0728 
L 94.776153 233.0728 
L 94.901939 236.8968 
L 95.027726 236.8968 
L 95.153512 229.2488 
L 95.782444 229.2488 
L 95.90823 233.0728 
L 96.034016 233.0728 
L 96.159803 236.8968 
L 96.285589 236.8968 
L 96.411375 233.0728 
L 96.537162 233.0728 
L 96.662948 229.2488 
L 96.788734 229.2488 
L 96.914521 233.0728 
L 97.040307 233.0728 
L 97.166093 229.2488 
L 97.29188 229.2488 
L 97.417666 233.0728 
L 98.801316 233.0728 
L 98.927102 229.2488 
L 99.052889 229.2488 
L 99.178675 225.4248 
L 99.556034 225.4248 
L 99.68182 229.2488 
L 100.059179 229.2488 
L 100.184966 233.0728 
L 100.310752 233.0728 
L 100.436538 229.2488 
L 100.562325 229.2488 
L 100.688111 225.4248 
L 100.813897 225.4248 
L 100.939684 229.2488 
L 101.568615 229.2488 
L 101.694402 225.4248 
L 101.820188 225.4248 
L 101.945974 229.2488 
L 102.323333 229.2488 
L 102.44912 225.4248 
L 102.826479 225.4248 
L 102.952265 221.6008 
L 103.581197 221.6008 
L 103.706983 217.7768 
L 103.83277 217.7768 
L 103.958556 221.6008 
L 104.335915 221.6008 
L 104.461701 217.7768 
L 105.090633 217.7768 
L 105.216419 221.6008 
L 105.342206 221.6008 
L 105.467992 213.9528 
L 105.845351 213.9528 
L 105.971137 212.0408 
L 106.096924 212.0408 
L 106.22271 213.9528 
L 106.600069 213.9528 
L 106.725855 217.7768 
L 106.851642 217.7768 
L 106.977428 212.0408 
L 107.103214 212.0408 
L 107.229001 213.9528 
L 107.60636 213.9528 
L 107.732146 212.0408 
L 107.857932 212.0408 
L 107.983719 208.2168 
L 108.109505 208.2168 
L 108.235291 212.0408 
L 108.864223 212.0408 
L 108.99001 208.2168 
L 109.115796 208.2168 
L 109.241582 212.0408 
L 109.367369 212.0408 
L 109.493155 208.2168 
L 109.870514 208.2168 
L 109.9963 212.0408 
L 110.122087 212.0408 
L 110.247873 208.2168 
L 110.876805 208.2168 
L 111.002591 212.0408 
L 111.128377 212.0408 
L 111.254164 208.2168 
L 111.631523 208.2168 
L 111.757309 202.4808 
L 112.889386 202.4808 
L 113.015172 198.6568 
L 113.392531 198.6568 
L 113.518318 202.4808 
L 113.644104 202.4808 
L 113.76989 198.6568 
L 113.895677 198.6568 
L 114.021463 202.4808 
L 114.147249 202.4808 
L 114.273036 208.2168 
L 115.15354 208.2168 
L 115.279327 212.0408 
L 115.405113 212.0408 
L 115.530899 202.4808 
L 115.656686 202.4808 
L 115.782472 212.0408 
L 116.662976 212.0408 
L 116.788763 208.2168 
L 116.914549 208.2168 
L 117.040335 202.4808 
L 117.417694 202.4808 
L 117.543481 208.2168 
L 117.92084 208.2168 
L 118.046626 202.4808 
L 118.92713 202.4808 
L 119.052917 198.6568 
L 119.681848 198.6568 
L 119.807635 202.4808 
L 120.184994 202.4808 
L 120.31078 198.6568 
L 120.436567 198.6568 
L 120.562353 202.4808 
L 120.688139 202.4808 
L 120.813926 198.6568 
L 121.191285 198.6568 
L 121.317071 194.8328 
L 121.442857 194.8328 
L 121.568644 198.6568 
L 121.946003 198.6568 
L 122.071789 194.8328 
L 122.449148 194.8328 
L 122.574934 198.6568 
L 123.203866 198.6568 
L 123.329652 194.8328 
L 123.455439 194.8328 
L 123.581225 198.6568 
L 123.707011 198.6568 
L 123.832798 194.8328 
L 124.461729 194.8328 
L 124.587516 191.0088 
L 124.964875 191.0088 
L 125.090661 198.6568 
L 125.216447 198.6568 
L 125.342234 194.8328 
L 125.719593 194.8328 
L 125.845379 191.0088 
L 126.474311 191.0088 
L 126.600097 194.8328 
L 126.725884 194.8328 
L 126.85167 191.0088 
L 126.977456 191.0088 
L 127.103243 194.8328 
L 127.480602 194.8328 
L 127.606388 191.0088 
L 127.732174 191.0088 
L 127.857961 194.8328 
L 128.23532 194.8328 
L 128.361106 187.1848 
L 128.486892 187.1848 
L 128.612679 194.8328 
L 129.24161 194.8328 
L 129.367397 191.0088 
L 129.493183 191.0088 
L 129.618969 194.8328 
L 129.744756 194.8328 
L 129.870542 191.0088 
L 130.247901 191.0088 
L 130.373687 194.8328 
L 131.002619 194.8328 
L 131.128405 191.0088 
L 131.254192 191.0088 
L 131.379978 194.8328 
L 132.763628 194.8328 
L 132.889414 191.0088 
L 134.273064 191.0088 
L 134.39885 194.8328 
L 134.524637 194.8328 
L 134.650423 191.0088 
L 135.027782 191.0088 
L 135.153568 187.1848 
L 135.279355 187.1848 
L 135.405141 191.0088 
L 137.543509 191.0088 
L 137.669295 194.8328 
L 137.795082 194.8328 
L 137.920868 191.0088 
L 138.5498 191.0088 
L 138.675586 194.8328 
L 138.801372 194.8328 
L 138.927159 187.1848 
L 139.052945 187.1848 
L 139.178731 194.8328 
L 139.55609 194.8328 
L 139.681877 191.0088 
L 140.059236 191.0088 
L 140.185022 194.8328 
L 141.065526 194.8328 
L 141.191313 191.0088 
L 141.568672 191.0088 
L 141.694458 187.1848 
L 141.820244 187.1848 
L 141.946031 194.8328 
L 142.071817 194.8328 
L 142.197603 191.0088 
L 143.078108 191.0088 
L 143.203894 194.8328 
L 143.329681 194.8328 
L 143.455467 191.0088 
L 143.832826 191.0088 
L 143.958612 194.8328 
L 144.084399 194.8328 
L 144.210185 191.0088 
L 146.09698 191.0088 
L 146.222766 194.8328 
L 146.348553 194.8328 
L 146.474339 191.0088 
L 147.606416 191.0088 
L 147.732202 187.1848 
L 147.857989 187.1848 
L 147.983775 191.0088 
L 148.86428 191.0088 
L 148.990066 187.1848 
L 149.115852 187.1848 
L 149.241639 191.0088 
L 149.367425 191.0088 
L 149.493211 187.1848 
L 149.87057 187.1848 
L 149.996357 191.0088 
L 150.122143 191.0088 
L 150.247929 187.1848 
L 151.128434 187.1848 
L 151.25422 183.3608 
L 151.380006 183.3608 
L 151.505793 191.0088 
L 151.883152 191.0088 
L 152.008938 187.1848 
L 152.134724 187.1848 
L 152.260511 183.3608 
L 152.63787 183.3608 
L 152.763656 187.1848 
L 152.889442 187.1848 
L 153.015229 191.0088 
L 153.141015 191.0088 
L 153.266801 187.1848 
L 153.392588 187.1848 
L 153.518374 183.3608 
L 154.147306 183.3608 
L 154.273092 179.5368 
L 154.398879 179.5368 
L 154.524665 187.1848 
L 154.650451 187.1848 
L 154.776238 183.3608 
L 154.902024 183.3608 
L 155.02781 187.1848 
L 155.405169 187.1848 
L 155.530956 183.3608 
L 155.908315 183.3608 
L 156.034101 187.1848 
L 156.159887 187.1848 
L 156.285674 183.3608 
L 156.663033 183.3608 
L 156.788819 179.5368 
L 156.914605 179.5368 
L 157.040392 187.1848 
L 157.417751 187.1848 
L 157.543537 183.3608 
L 158.172469 183.3608 
L 158.298255 187.1848 
L 158.424041 187.1848 
L 158.549828 183.3608 
L 159.430332 183.3608 
L 159.556118 187.1848 
L 159.681905 187.1848 
L 159.807691 183.3608 
L 160.436623 183.3608 
L 160.562409 179.5368 
L 160.688196 179.5368 
L 160.813982 183.3608 
L 161.442914 183.3608 
L 161.5687 179.5368 
L 162.197632 179.5368 
L 162.323418 187.1848 
L 162.449204 187.1848 
L 162.574991 179.5368 
L 162.700777 179.5368 
L 162.826563 183.3608 
L 163.707068 183.3608 
L 163.832854 179.5368 
L 164.210213 179.5368 
L 164.335999 183.3608 
L 164.713358 183.3608 
L 164.839145 179.5368 
L 164.964931 179.5368 
L 165.090717 183.3608 
L 165.971222 183.3608 
L 166.097008 179.5368 
L 166.222795 179.5368 
L 166.348581 183.3608 
L 166.72594 183.3608 
L 166.851726 179.5368 
L 166.977513 179.5368 
L 167.103299 187.1848 
L 167.229085 187.1848 
L 167.354872 183.3608 
L 167.480658 183.3608 
L 167.606444 179.5368 
L 167.983803 179.5368 
L 168.10959 183.3608 
L 168.235376 183.3608 
L 168.361162 187.1848 
L 168.486949 187.1848 
L 168.612735 183.3608 
L 168.990094 183.3608 
L 169.11588 179.5368 
L 169.241667 179.5368 
L 169.367453 183.3608 
L 169.744812 183.3608 
L 169.870598 179.5368 
L 169.996385 179.5368 
L 170.122171 183.3608 
L 170.247957 183.3608 
L 170.373744 179.5368 
L 170.49953 179.5368 
L 170.625316 183.3608 
L 171.002675 183.3608 
L 171.128462 179.5368 
L 171.505821 179.5368 
L 171.631607 183.3608 
L 171.757394 183.3608 
L 171.88318 187.1848 
L 172.008966 187.1848 
L 172.134753 179.5368 
L 172.512112 179.5368 
L 172.637898 183.3608 
L 174.524693 183.3608 
L 174.650479 179.5368 
L 174.776266 179.5368 
L 174.902052 183.3608 
L 175.279411 183.3608 
L 175.405197 179.5368 
L 175.530984 179.5368 
L 175.65677 183.3608 
L 177.291993 183.3608 
L 177.417779 179.5368 
L 177.543565 179.5368 
L 177.669352 183.3608 
L 178.046711 183.3608 
L 178.172497 179.5368 
L 178.549856 179.5368 
L 178.675642 183.3608 
L 178.801429 183.3608 
L 178.927215 179.5368 
L 179.304574 179.5368 
L 179.43036 183.3608 
L 179.807719 183.3608 
L 179.933506 179.5368 
L 180.059292 179.5368 
L 180.185078 183.3608 
L 180.562437 183.3608 
L 180.688224 179.5368 
L 180.81401 179.5368 
L 180.939796 183.3608 
L 181.820301 183.3608 
L 181.946087 179.5368 
L 182.071873 179.5368 
L 182.19766 183.3608 
L 182.575019 183.3608 
L 182.700805 179.5368 
L 182.826592 179.5368 
L 182.952378 183.3608 
L 183.329737 183.3608 
L 183.455523 179.5368 
L 183.58131 179.5368 
L 183.707096 183.3608 
L 184.084455 183.3608 
L 184.210241 179.5368 
L 184.336028 179.5368 
L 184.461814 183.3608 
L 184.839173 183.3608 
L 184.964959 179.5368 
L 185.090746 179.5368 
L 185.216532 183.3608 
L 186.097036 183.3608 
L 186.222823 179.5368 
L 186.851754 179.5368 
L 186.977541 183.3608 
L 187.3549 183.3608 
L 187.480686 179.5368 
L 187.858045 179.5368 
L 187.983831 183.3608 
L 188.109618 183.3608 
L 188.235404 179.5368 
L 188.612763 179.5368 
L 188.73855 177.6248 
L 188.864336 177.6248 
L 188.990122 179.5368 
L 189.619054 179.5368 
L 189.74484 177.6248 
L 190.122199 177.6248 
L 190.247986 183.3608 
L 190.373772 183.3608 
L 190.499558 179.5368 
L 190.625345 179.5368 
L 190.751131 177.6248 
L 190.876917 177.6248 
L 191.002704 183.3608 
L 191.12849 183.3608 
L 191.254276 179.5368 
L 191.380063 179.5368 
L 191.505849 183.3608 
L 191.631635 183.3608 
L 191.757422 171.8888 
L 191.883208 171.8888 
L 192.008994 179.5368 
L 192.386353 179.5368 
L 192.51214 177.6248 
L 192.637926 177.6248 
L 192.763712 179.5368 
L 193.392644 179.5368 
L 193.51843 177.6248 
L 193.89579 177.6248 
L 194.021576 179.5368 
L 194.90208 179.5368 
L 195.027867 177.6248 
L 195.405226 177.6248 
L 195.531012 179.5368 
L 195.656798 179.5368 
L 195.782585 177.6248 
L 195.908371 177.6248 
L 196.034157 179.5368 
L 196.159944 179.5368 
L 196.28573 177.6248 
L 196.411516 177.6248 
L 196.537303 179.5368 
L 196.663089 179.5368 
L 196.788875 177.6248 
L 196.914662 177.6248 
L 197.040448 179.5368 
L 197.166234 179.5368 
L 197.292021 177.6248 
L 197.920952 177.6248 
L 198.046739 183.3608 
L 198.172525 183.3608 
L 198.298311 179.5368 
L 198.67567 179.5368 
L 198.801457 183.3608 
L 198.927243 183.3608 
L 199.053029 179.5368 
L 199.430389 179.5368 
L 199.556175 177.6248 
L 199.933534 177.6248 
L 200.05932 171.8888 
L 200.185107 171.8888 
L 200.310893 179.5368 
L 200.688252 179.5368 
L 200.814038 177.6248 
L 201.946115 177.6248 
L 202.071902 171.8888 
L 202.197688 171.8888 
L 202.323474 177.6248 
L 202.449261 177.6248 
L 202.575047 168.0648 
L 202.700833 168.0648 
L 202.82662 171.8888 
L 202.952406 171.8888 
L 203.078192 168.0648 
L 203.203979 168.0648 
L 203.329765 164.2408 
L 203.455551 164.2408 
L 203.581338 168.0648 
L 203.707124 168.0648 
L 203.83291 164.2408 
L 203.958697 164.2408 
L 204.084483 168.0648 
L 204.210269 168.0648 
L 204.336056 171.8888 
L 204.461842 171.8888 
L 204.587628 168.0648 
L 204.713415 168.0648 
L 204.839201 164.2408 
L 204.964987 164.2408 
L 205.090774 160.4168 
L 205.21656 160.4168 
L 205.342347 168.0648 
L 205.468133 168.0648 
L 205.593919 164.2408 
L 205.971278 164.2408 
L 206.097065 168.0648 
L 206.222851 168.0648 
L 206.348637 164.2408 
L 206.977569 164.2408 
L 207.103355 160.4168 
L 208.235432 160.4168 
L 208.361219 164.2408 
L 208.738578 164.2408 
L 208.864364 160.4168 
L 208.99015 160.4168 
L 209.115937 164.2408 
L 209.241723 164.2408 
L 209.367509 160.4168 
L 209.493296 160.4168 
L 209.619082 156.5928 
L 209.744868 156.5928 
L 209.870655 160.4168 
L 209.996441 160.4168 
L 210.122227 156.5928 
L 211.002732 156.5928 
L 211.128518 152.7688 
L 211.254305 152.7688 
L 211.380091 160.4168 
L 211.505877 160.4168 
L 211.631664 156.5928 
L 212.260595 156.5928 
L 212.386382 152.7688 
L 212.512168 152.7688 
L 212.637954 156.5928 
L 212.763741 156.5928 
L 212.889527 152.7688 
L 213.015313 152.7688 
L 213.1411 156.5928 
L 213.266886 156.5928 
L 213.392672 148.9448 
L 213.518459 148.9448 
L 213.644245 152.7688 
L 214.524749 152.7688 
L 214.650536 156.5928 
L 214.776322 156.5928 
L 214.902108 152.7688 
L 215.279467 152.7688 
L 215.405254 148.9448 
L 215.53104 148.9448 
L 215.656826 152.7688 
L 216.788904 152.7688 
L 216.91469 148.9448 
L 217.292049 148.9448 
L 217.417835 152.7688 
L 218.549912 152.7688 
L 218.675699 148.9448 
L 219.053058 148.9448 
L 219.178844 152.7688 
L 219.30463 152.7688 
L 219.430417 148.9448 
L 219.556203 148.9448 
L 219.681989 147.0328 
L 219.807776 147.0328 
L 219.933562 156.5928 
L 220.059348 156.5928 
L 220.185135 152.7688 
L 220.310921 152.7688 
L 220.436707 148.9448 
L 220.562494 148.9448 
L 220.68828 152.7688 
L 220.814066 152.7688 
L 220.939853 148.9448 
L 221.317212 148.9448 
L 221.442998 147.0328 
L 221.568784 147.0328 
L 221.694571 148.9448 
L 221.820357 148.9448 
L 221.946143 152.7688 
L 222.07193 152.7688 
L 222.197716 148.9448 
L 222.826648 148.9448 
L 222.952434 147.0328 
L 223.078221 147.0328 
L 223.204007 148.9448 
L 223.581366 148.9448 
L 223.707152 152.7688 
L 223.832939 152.7688 
L 223.958725 147.0328 
L 224.587657 147.0328 
L 224.713443 148.9448 
L 225.593947 148.9448 
L 225.719734 147.0328 
L 226.348665 147.0328 
L 226.474452 148.9448 
L 226.851811 148.9448 
L 226.977597 147.0328 
L 227.606529 147.0328 
L 227.732315 148.9448 
L 227.858102 148.9448 
L 227.983888 147.0328 
L 228.61282 147.0328 
L 228.738606 148.9448 
L 228.864392 148.9448 
L 228.990179 147.0328 
L 229.115965 147.0328 
L 229.241751 148.9448 
L 229.367538 148.9448 
L 229.493324 147.0328 
L 229.61911 147.0328 
L 229.744897 148.9448 
L 230.122256 148.9448 
L 230.248042 147.0328 
L 230.876974 147.0328 
L 231.00276 148.9448 
L 231.128546 148.9448 
L 231.254333 147.0328 
L 231.883264 147.0328 
L 232.009051 141.2968 
L 232.134837 141.2968 
L 232.260623 147.0328 
L 232.38641 147.0328 
L 232.512196 141.2968 
L 232.637982 141.2968 
L 232.763769 148.9448 
L 232.889555 148.9448 
L 233.015341 147.0328 
L 233.141128 147.0328 
L 233.266914 141.2968 
L 233.644273 141.2968 
L 233.77006 147.0328 
L 234.147419 147.0328 
L 234.273205 141.2968 
L 234.398991 141.2968 
L 234.524778 147.0328 
L 235.153709 147.0328 
L 235.279496 148.9448 
L 235.405282 148.9448 
L 235.531068 147.0328 
L 236.411573 147.0328 
L 236.537359 141.2968 
L 236.663145 141.2968 
L 236.788932 137.4728 
L 237.166291 137.4728 
L 237.292077 141.2968 
L 237.417863 141.2968 
L 237.54365 137.4728 
L 237.669436 137.4728 
L 237.795222 141.2968 
L 237.921009 141.2968 
L 238.046795 137.4728 
L 238.424154 137.4728 
L 238.54994 141.2968 
L 238.927299 141.2968 
L 239.053086 137.4728 
L 239.178872 137.4728 
L 239.304659 141.2968 
L 239.93359 141.2968 
L 240.059377 137.4728 
L 240.939881 137.4728 
L 241.065667 141.2968 
L 241.191454 141.2968 
L 241.31724 137.4728 
L 241.694599 137.4728 
L 241.820385 133.6488 
L 241.946172 133.6488 
L 242.071958 137.4728 
L 243.204035 137.4728 
L 243.329821 133.6488 
L 243.70718 133.6488 
L 243.832967 137.4728 
L 243.958753 137.4728 
L 244.084539 129.8248 
L 244.210326 129.8248 
L 244.336112 137.4728 
L 244.461898 137.4728 
L 244.587685 133.6488 
L 244.713471 133.6488 
L 244.839258 129.8248 
L 244.965044 129.8248 
L 245.09083 133.6488 
L 245.719762 133.6488 
L 245.845548 129.8248 
L 245.971335 129.8248 
L 246.097121 133.6488 
L 246.47448 133.6488 
L 246.600266 129.8248 
L 247.229198 129.8248 
L 247.354984 133.6488 
L 247.732343 133.6488 
L 247.85813 129.8248 
L 248.487061 129.8248 
L 248.612848 126.0008 
L 248.738634 126.0008 
L 248.86442 129.8248 
L 249.241779 129.8248 
L 249.367566 126.0008 
L 249.493352 126.0008 
L 249.619138 122.1768 
L 249.744925 122.1768 
L 249.870711 126.0008 
L 250.24807 126.0008 
L 250.373857 129.8248 
L 250.499643 129.8248 
L 250.625429 126.0008 
L 251.757506 126.0008 
L 251.883293 122.1768 
L 252.009079 122.1768 
L 252.134865 126.0008 
L 252.260652 126.0008 
L 252.386438 122.1768 
L 252.512224 122.1768 
L 252.638011 126.0008 
L 252.763797 126.0008 
L 252.889583 122.1768 
L 253.770088 122.1768 
L 253.895874 118.3528 
L 254.02166 118.3528 
L 254.147447 122.1768 
L 254.273233 122.1768 
L 254.399019 118.3528 
L 254.524806 118.3528 
L 254.650592 122.1768 
L 255.782669 122.1768 
L 255.908455 118.3528 
L 256.034242 118.3528 
L 256.160028 122.1768 
L 256.537387 122.1768 
L 256.663174 118.3528 
L 257.040533 118.3528 
L 257.166319 116.4408 
L 258.046823 116.4408 
L 258.17261 118.3528 
L 258.549969 118.3528 
L 258.675755 116.4408 
L 258.801541 116.4408 
L 258.927328 118.3528 
L 259.053114 118.3528 
L 259.1789 112.6168 
L 259.304687 112.6168 
L 259.430473 116.4408 
L 259.807832 116.4408 
L 259.933618 112.6168 
L 260.059405 112.6168 
L 260.185191 116.4408 
L 260.56255 116.4408 
L 260.688336 112.6168 
L 260.814123 112.6168 
L 260.939909 116.4408 
L 261.317268 116.4408 
L 261.443054 112.6168 
L 261.568841 112.6168 
L 261.694627 116.4408 
L 261.820414 116.4408 
L 261.9462 112.6168 
L 262.826704 112.6168 
L 262.952491 116.4408 
L 263.078277 116.4408 
L 263.204063 112.6168 
L 263.32985 112.6168 
L 263.455636 116.4408 
L 263.581422 116.4408 
L 263.707209 112.6168 
L 264.084568 112.6168 
L 264.210354 106.8808 
L 264.33614 106.8808 
L 264.461927 116.4408 
L 264.587713 116.4408 
L 264.713499 106.8808 
L 264.839286 106.8808 
L 264.965072 112.6168 
L 265.342431 112.6168 
L 265.468217 106.8808 
L 265.594004 106.8808 
L 265.71979 112.6168 
L 266.097149 112.6168 
L 266.222935 106.8808 
L 266.348722 106.8808 
L 266.474508 116.4408 
L 266.600294 116.4408 
L 266.726081 112.6168 
L 266.851867 112.6168 
L 266.977653 106.8808 
L 267.355013 106.8808 
L 267.480799 103.0568 
L 267.606585 103.0568 
L 267.732372 106.8808 
L 267.858158 106.8808 
L 267.983944 103.0568 
L 268.109731 103.0568 
L 268.235517 106.8808 
L 268.612876 106.8808 
L 268.738662 103.0568 
L 268.864449 103.0568 
L 268.990235 112.6168 
L 269.116021 112.6168 
L 269.241808 106.8808 
L 269.367594 106.8808 
L 269.49338 112.6168 
L 269.870739 112.6168 
L 269.996526 106.8808 
L 270.122312 106.8808 
L 270.248098 112.6168 
L 270.87703 112.6168 
L 271.002816 103.0568 
L 273.141184 103.0568 
L 273.266971 106.8808 
L 273.392757 106.8808 
L 273.518543 103.0568 
L 273.64433 103.0568 
L 273.770116 95.4088 
L 273.895902 95.4088 
L 274.021689 99.2328 
L 274.902193 99.2328 
L 275.027979 103.0568 
L 275.153766 103.0568 
L 275.279552 99.2328 
L 275.908484 99.2328 
L 276.03427 103.0568 
L 276.160056 103.0568 
L 276.285843 99.2328 
L 276.411629 99.2328 
L 276.537415 95.4088 
L 276.663202 95.4088 
L 276.788988 99.2328 
L 276.914774 99.2328 
L 277.040561 103.0568 
L 277.166347 103.0568 
L 277.292133 99.2328 
L 277.921065 99.2328 
L 278.046851 103.0568 
L 278.172638 103.0568 
L 278.298424 99.2328 
L 278.675783 99.2328 
L 278.80157 103.0568 
L 278.927356 103.0568 
L 279.053142 99.2328 
L 279.178929 99.2328 
L 279.304715 95.4088 
L 279.430501 95.4088 
L 279.556288 99.2328 
L 279.682074 99.2328 
L 279.80786 103.0568 
L 280.436792 103.0568 
L 280.562578 95.4088 
L 280.688365 95.4088 
L 280.814151 99.2328 
L 281.443083 99.2328 
L 281.568869 95.4088 
L 281.694655 95.4088 
L 281.820442 99.2328 
L 282.197801 99.2328 
L 282.323587 95.4088 
L 282.952519 95.4088 
L 283.078305 99.2328 
L 283.455664 99.2328 
L 283.58145 91.5848 
L 283.707237 91.5848 
L 283.833023 99.2328 
L 283.958809 99.2328 
L 284.084596 95.4088 
L 284.713528 95.4088 
L 284.839314 99.2328 
L 284.9651 99.2328 
L 285.090887 95.4088 
L 285.216673 95.4088 
L 285.342459 103.0568 
L 285.468246 103.0568 
L 285.594032 99.2328 
L 286.222964 99.2328 
L 286.34875 103.0568 
L 286.474536 103.0568 
L 286.600323 95.4088 
L 287.229254 95.4088 
L 287.355041 99.2328 
L 288.73869 99.2328 
L 288.864477 95.4088 
L 288.990263 95.4088 
L 289.116049 99.2328 
L 289.241836 99.2328 
L 289.367622 95.4088 
L 289.493408 95.4088 
L 289.619195 99.2328 
L 290.248127 99.2328 
L 290.373913 95.4088 
L 291.254417 95.4088 
L 291.380204 91.5848 
L 291.50599 91.5848 
L 291.631776 95.4088 
L 292.009135 95.4088 
L 292.134922 99.2328 
L 292.260708 99.2328 
L 292.386494 95.4088 
L 293.015426 95.4088 
L 293.141212 103.0568 
L 293.266999 103.0568 
L 293.392785 95.4088 
L 293.770144 95.4088 
L 293.89593 99.2328 
L 294.021717 99.2328 
L 294.147503 95.4088 
L 294.273289 95.4088 
L 294.399076 91.5848 
L 295.782726 91.5848 
L 295.908512 95.4088 
L 297.040589 95.4088 
L 297.166375 91.5848 
L 297.795307 91.5848 
L 297.921093 95.4088 
L 298.298452 95.4088 
L 298.424239 91.5848 
L 298.550025 91.5848 
L 298.675811 87.7608 
L 298.801598 87.7608 
L 298.927384 91.5848 
L 299.304743 91.5848 
L 299.430529 95.4088 
L 299.556316 95.4088 
L 299.682102 91.5848 
L 299.807888 91.5848 
L 299.933675 95.4088 
L 300.059461 95.4088 
L 300.185247 87.7608 
L 300.311034 87.7608 
L 300.43682 91.5848 
L 300.562606 91.5848 
L 300.688393 87.7608 
L 301.317325 87.7608 
L 301.443111 91.5848 
L 302.072043 91.5848 
L 302.197829 87.7608 
L 302.575188 87.7608 
L 302.700974 91.5848 
L 303.078333 91.5848 
L 303.20412 87.7608 
L 303.833051 87.7608 
L 303.958838 91.5848 
L 304.587769 91.5848 
L 304.713556 87.7608 
L 305.090915 87.7608 
L 305.216701 83.9368 
L 305.342487 83.9368 
L 305.468274 87.7608 
L 305.59406 87.7608 
L 305.719846 91.5848 
L 305.845633 91.5848 
L 305.971419 87.7608 
L 306.600351 87.7608 
L 306.726137 91.5848 
L 307.355069 91.5848 
L 307.480855 95.4088 
L 307.606642 95.4088 
L 307.732428 91.5848 
L 308.36136 91.5848 
L 308.487146 87.7608 
L 308.864505 87.7608 
L 308.990291 91.5848 
L 309.116078 91.5848 
L 309.241864 87.7608 
L 309.870796 87.7608 
L 309.996582 83.9368 
L 310.122368 83.9368 
L 310.248155 91.5848 
L 310.373941 91.5848 
L 310.499727 87.7608 
L 311.631804 87.7608 
L 311.757591 83.9368 
L 312.386522 83.9368 
L 312.512309 87.7608 
L 312.638095 87.7608 
L 312.763882 82.0248 
L 313.141241 82.0248 
L 313.267027 83.9368 
L 313.644386 83.9368 
L 313.770172 82.0248 
L 313.895959 82.0248 
L 314.021745 83.9368 
L 314.147531 83.9368 
L 314.273318 87.7608 
L 314.902249 87.7608 
L 315.028036 83.9368 
L 315.90854 83.9368 
L 316.034326 82.0248 
L 316.160113 82.0248 
L 316.285899 83.9368 
L 316.411685 83.9368 
L 316.537472 82.0248 
L 317.166403 82.0248 
L 317.29219 83.9368 
L 317.417976 83.9368 
L 317.543762 87.7608 
L 317.669549 87.7608 
L 317.795335 82.0248 
L 317.921121 82.0248 
L 318.046908 83.9368 
L 318.172694 83.9368 
L 318.298481 82.0248 
L 318.67584 82.0248 
L 318.801626 87.7608 
L 318.927412 87.7608 
L 319.053199 83.9368 
L 319.178985 83.9368 
L 319.304771 82.0248 
L 319.430558 82.0248 
L 319.556344 83.9368 
L 319.68213 83.9368 
L 319.807917 82.0248 
L 320.436848 82.0248 
L 320.562635 83.9368 
L 321.443139 83.9368 
L 321.568925 82.0248 
L 321.694712 82.0248 
L 321.820498 83.9368 
L 321.946284 83.9368 
L 322.072071 76.2888 
L 322.197857 76.2888 
L 322.323643 82.0248 
L 322.952575 82.0248 
L 323.078361 83.9368 
L 323.204148 83.9368 
L 323.329934 76.2888 
L 323.45572 76.2888 
L 323.581507 83.9368 
L 323.707293 83.9368 
L 323.833079 82.0248 
L 324.462011 82.0248 
L 324.587798 76.2888 
L 324.713584 76.2888 
L 324.83937 82.0248 
L 324.965157 82.0248 
L 325.090943 83.9368 
L 325.216729 83.9368 
L 325.342516 76.2888 
L 325.719875 76.2888 
L 325.845661 83.9368 
L 325.971447 83.9368 
L 326.097234 82.0248 
L 326.22302 82.0248 
L 326.348806 83.9368 
L 326.474593 83.9368 
L 326.600379 82.0248 
L 327.229311 82.0248 
L 327.355097 76.2888 
L 328.235601 76.2888 
L 328.361388 82.0248 
L 328.487174 82.0248 
L 328.61296 76.2888 
L 329.493465 76.2888 
L 329.619251 72.4648 
L 329.745038 72.4648 
L 329.870824 76.2888 
L 330.248183 76.2888 
L 330.373969 82.0248 
L 330.499756 82.0248 
L 330.625542 72.4648 
L 330.751328 72.4648 
L 330.877115 76.2888 
L 331.254474 76.2888 
L 331.38026 72.4648 
L 331.757619 72.4648 
L 331.883405 76.2888 
L 333.267055 76.2888 
L 333.392841 72.4648 
L 333.7702 72.4648 
L 333.895987 76.2888 
L 334.021773 76.2888 
L 334.147559 72.4648 
L 334.273346 72.4648 
L 334.399132 82.0248 
L 334.524918 82.0248 
L 334.650705 72.4648 
L 334.776491 72.4648 
L 334.902277 76.2888 
L 336.034355 76.2888 
L 336.160141 72.4648 
L 336.285927 72.4648 
L 336.411714 76.2888 
L 336.5375 76.2888 
L 336.663286 72.4648 
L 337.040645 72.4648 
L 337.166432 68.6408 
L 337.292218 68.6408 
L 337.418004 72.4648 
L 337.543791 72.4648 
L 337.669577 68.6408 
L 338.046936 68.6408 
L 338.172722 72.4648 
L 338.298509 72.4648 
L 338.424295 68.6408 
L 338.550081 68.6408 
L 338.675868 72.4648 
L 339.053227 72.4648 
L 339.179013 64.8168 
L 339.304799 64.8168 
L 339.430586 68.6408 
L 339.556372 68.6408 
L 339.682158 64.8168 
L 340.059517 64.8168 
L 340.185304 68.6408 
L 340.562663 68.6408 
L 340.688449 64.8168 
L 340.814235 64.8168 
L 340.940022 68.6408 
L 341.317381 68.6408 
L 341.443167 72.4648 
L 341.568954 72.4648 
L 341.69474 64.8168 
L 341.820526 64.8168 
L 341.946313 68.6408 
L 342.575244 68.6408 
L 342.701031 72.4648 
L 342.826817 72.4648 
L 342.952603 68.6408 
L 343.329962 68.6408 
L 343.455749 72.4648 
L 343.833108 72.4648 
L 343.958894 68.6408 
L 344.08468 68.6408 
L 344.210467 72.4648 
L 344.336253 72.4648 
L 344.462039 68.6408 
L 344.587826 68.6408 
L 344.713612 64.8168 
L 344.839398 64.8168 
L 344.965185 72.4648 
L 345.090971 72.4648 
L 345.216757 68.6408 
L 345.845689 68.6408 
L 345.971475 72.4648 
L 346.097262 72.4648 
L 346.223048 68.6408 
L 346.348834 68.6408 
L 346.474621 72.4648 
L 346.600407 72.4648 
L 346.726194 68.6408 
L 347.103553 68.6408 
L 347.229339 64.8168 
L 347.355125 64.8168 
L 347.480912 68.6408 
L 347.858271 68.6408 
L 347.984057 64.8168 
L 348.109843 64.8168 
L 348.23563 68.6408 
L 349.367707 68.6408 
L 349.493493 72.4648 
L 349.619279 72.4648 
L 349.745066 68.6408 
L 350.62557 68.6408 
L 350.751356 72.4648 
L 350.877143 72.4648 
L 351.002929 64.8168 
L 351.380288 64.8168 
L 351.506074 68.6408 
L 351.631861 68.6408 
L 351.757647 64.8168 
L 351.883433 64.8168 
L 352.00922 68.6408 
L 352.386579 68.6408 
L 352.512365 60.9928 
L 352.638152 60.9928 
L 352.763938 68.6408 
L 352.889724 68.6408 
L 353.015511 64.8168 
L 353.141297 64.8168 
L 353.267083 68.6408 
L 353.39287 68.6408 
L 353.518656 72.4648 
L 353.644442 72.4648 
L 353.770229 68.6408 
L 353.896015 68.6408 
L 354.021801 64.8168 
L 354.147588 64.8168 
L 354.273374 72.4648 
L 354.39916 72.4648 
L 354.524947 64.8168 
L 354.650733 64.8168 
L 354.776519 60.9928 
L 354.902306 60.9928 
L 355.028092 68.6408 
L 355.153878 68.6408 
L 355.279665 64.8168 
L 356.411742 64.8168 
L 356.537528 68.6408 
L 356.663314 68.6408 
L 356.789101 60.9928 
L 356.914887 60.9928 
L 357.040673 68.6408 
L 357.16646 68.6408 
L 357.292246 64.8168 
L 357.418032 64.8168 
L 357.543819 68.6408 
L 357.669605 68.6408 
L 357.795391 64.8168 
L 358.424323 64.8168 
L 358.55011 68.6408 
L 358.675896 68.6408 
L 358.801682 64.8168 
L 358.927469 64.8168 
L 359.053255 60.9928 
L 359.179041 60.9928 
L 359.304828 64.8168 
L 359.933759 64.8168 
L 360.059546 68.6408 
L 360.185332 68.6408 
L 360.311118 64.8168 
L 360.436905 64.8168 
L 360.562691 68.6408 
L 360.688477 68.6408 
L 360.814264 64.8168 
L 361.443195 64.8168 
L 361.568982 60.9928 
L 361.946341 60.9928 
L 362.072127 64.8168 
L 362.197913 64.8168 
L 362.3237 60.9928 
L 362.449486 60.9928 
L 362.575272 64.8168 
L 362.701059 64.8168 
L 362.826845 60.9928 
L 362.952631 60.9928 
L 363.078418 64.8168 
L 363.70735 64.8168 
L 363.833136 60.9928 
L 363.958922 60.9928 
L 364.084709 64.8168 
L 364.462068 64.8168 
L 364.587854 60.9928 
L 364.71364 60.9928 
L 364.839427 64.8168 
L 365.468358 64.8168 
L 365.594145 60.9928 
L 365.719931 60.9928 
L 365.845717 64.8168 
L 365.971504 64.8168 
L 366.09729 60.9928 
L 366.977794 60.9928 
L 367.103581 64.8168 
L 367.48094 64.8168 
L 367.606726 60.9928 
L 367.732512 60.9928 
L 367.858299 64.8168 
L 367.984085 64.8168 
L 368.109871 60.9928 
L 368.235658 60.9928 
L 368.361444 64.8168 
L 368.48723 64.8168 
L 368.613017 60.9928 
L 368.738803 60.9928 
L 368.864589 64.8168 
L 368.990376 64.8168 
L 369.116162 60.9928 
L 369.241949 60.9928 
L 369.367735 64.8168 
L 369.493521 64.8168 
L 369.619308 60.9928 
L 370.499812 60.9928 
L 370.625598 64.8168 
L 371.002957 64.8168 
L 371.128744 60.9928 
L 372.260821 60.9928 
L 372.386607 64.8168 
L 372.512393 64.8168 
L 372.63818 60.9928 
L 372.763966 60.9928 
L 372.889752 57.1688 
L 373.015539 57.1688 
L 373.141325 60.9928 
L 373.770257 60.9928 
L 373.896043 64.8168 
L 374.021829 64.8168 
L 374.147616 60.9928 
L 374.273402 60.9928 
L 374.399188 68.6408 
L 374.524975 68.6408 
L 374.650761 64.8168 
L 374.776547 64.8168 
L 374.902334 60.9928 
L 375.02812 60.9928 
L 375.153907 64.8168 
L 375.279693 64.8168 
L 375.405479 60.9928 
L 375.531266 60.9928 
L 375.657052 57.1688 
L 375.782838 57.1688 
L 375.908625 60.9928 
L 376.034411 60.9928 
L 376.160197 64.8168 
L 376.285984 64.8168 
L 376.41177 60.9928 
L 377.040702 60.9928 
L 377.166488 57.1688 
L 377.292274 57.1688 
L 377.418061 64.8168 
L 377.543847 64.8168 
L 377.669633 60.9928 
L 378.298565 60.9928 
L 378.424351 57.1688 
L 378.550138 57.1688 
L 378.675924 60.9928 
L 379.053283 60.9928 
L 379.179069 57.1688 
L 379.304856 57.1688 
L 379.430642 60.9928 
L 379.808001 60.9928 
L 379.933787 57.1688 
L 380.059574 57.1688 
L 380.18536 64.8168 
L 380.311146 64.8168 
L 380.436933 57.1688 
L 380.562719 57.1688 
L 380.688506 60.9928 
L 381.317437 60.9928 
L 381.443224 64.8168 
L 381.56901 64.8168 
L 381.694796 60.9928 
L 382.575301 60.9928 
L 382.701087 57.1688 
L 382.826873 57.1688 
L 382.95266 60.9928 
L 383.078446 60.9928 
L 383.204232 68.6408 
L 383.330019 68.6408 
L 383.455805 60.9928 
L 384.336309 60.9928 
L 384.462096 57.1688 
L 384.839455 57.1688 
L 384.965241 60.9928 
L 385.3426 60.9928 
L 385.468386 57.1688 
L 385.594173 57.1688 
L 385.719959 53.3448 
L 385.845745 53.3448 
L 385.971532 64.8168 
L 386.348891 64.8168 
L 386.474677 60.9928 
L 386.852036 60.9928 
L 386.977823 57.1688 
L 387.103609 57.1688 
L 387.229395 60.9928 
L 387.355182 60.9928 
L 387.480968 57.1688 
L 387.606754 57.1688 
L 387.732541 60.9928 
L 388.1099 60.9928 
L 388.235686 57.1688 
L 388.613045 57.1688 
L 388.738831 60.9928 
L 389.11619 60.9928 
L 389.241977 57.1688 
L 389.619336 57.1688 
L 389.745122 53.3448 
L 389.870908 53.3448 
L 389.996695 60.9928 
L 390.122481 60.9928 
L 390.248267 57.1688 
L 390.374054 57.1688 
L 390.49984 60.9928 
L 390.625626 60.9928 
L 390.751413 57.1688 
L 392.135063 57.1688 
L 392.260849 53.3448 
L 392.386635 53.3448 
L 392.512422 57.1688 
L 393.392926 57.1688 
L 393.518712 53.3448 
L 393.896071 53.3448 
L 394.021858 57.1688 
L 394.650789 57.1688 
L 394.776576 53.3448 
L 395.153935 53.3448 
L 395.279721 57.1688 
L 395.405507 57.1688 
L 395.531294 53.3448 
L 395.65708 53.3448 
L 395.782866 57.1688 
L 395.908653 57.1688 
L 396.034439 53.3448 
L 396.663371 53.3448 
L 396.789157 57.1688 
L 397.418089 57.1688 
L 397.543875 53.3448 
L 397.921234 53.3448 
L 398.047021 57.1688 
L 398.172807 57.1688 
L 398.298593 53.3448 
L 398.487273 53.3448 
L 398.487273 53.3448 
" style="fill:none;stroke:#1f77b4;stroke-linecap:square;stroke-width:1.5;"/>
   </g>
   <g id="patch_3">
    <path d="M 57.6 306.3024 
L 57.6 41.2992 
" style="fill:none;stroke:#000000;stroke-linecap:square;stroke-linejoin:miter;stroke-width:0.8;"/>
   </g>
   <g id="patch_4">
    <path d="M 414.72 306.3024 
L 414.72 41.2992 
" style="fill:none;stroke:#000000;stroke-linecap:square;stroke-linejoin:miter;stroke-width:0.8;"/>
   </g>
   <g id="patch_5">
    <path d="M 57.6 306.3024 
L 414.72 306.3024 
" style="fill:none;stroke:#000000;stroke-linecap:square;stroke-linejoin:miter;stroke-width:0.8;"/>
   </g>
   <g id="patch_6">
    <path d="M 57.6 41.2992 
L 414.72 41.2992 
" style="fill:none;stroke:#000000;stroke-linecap:square;stroke-linejoin:miter;stroke-width:0.8;"/>
   </g>
   <g id="text_16">
    <!-- Tempertura -->
    <g transform="translate(200.709375 35.2992)scale(0.12 -0.12)">
     <use xlink:href="#DejaVuSans-84"/>
     <use x="60.818359" xlink:href="#DejaVuSans-101"/>
     <use x="122.341797" xlink:href="#DejaVuSans-109"/>
     <use x="219.753906" xlink:href="#DejaVuSans-112"/>
     <use x="283.230469" xlink:href="#DejaVuSans-101"/>
     <use x="344.753906" xlink:href="#DejaVuSans-114"/>
     <use x="385.867188" xlink:href="#DejaVuSans-116"/>
     <use x="425.076172" xlink:href="#DejaVuSans-117"/>
     <use x="488.455078" xlink:href="#DejaVuSans-114"/>
     <use x="529.568359" xlink:href="#DejaVuSans-97"/>
    </g>
   </g>
  </g>
 </g>
 <defs>
  <clipPath id="pc7790af435">
   <rect height="265.0032" width="357.12" x="57.6" y="41.2992"/>
  </clipPath>
 </defs>
</svg>
