<?xml version="1.0" encoding="utf-8" standalone="no"?>
<!DOCTYPE svg PUBLIC "-//W3C//DTD SVG 1.1//EN"
  "http://www.w3.org/Graphics/SVG/1.1/DTD/svg11.dtd">
<!-- Created with matplotlib (https://matplotlib.org/) -->
<svg height="344.16pt" version="1.1" viewBox="0 0 460.8 344.16" width="460.8pt" xmlns="http://www.w3.org/2000/svg" xmlns:xlink="http://www.w3.org/1999/xlink">
 <defs>
  <style type="text/css">
*{stroke-linecap:butt;stroke-linejoin:round;}
  </style>
 </defs>
 <g id="figure_1">
  <g id="patch_1">
   <path d="M 0 344.16 
L 460.8 344.16 
L 460.8 0 
L 0 0 
z
" style="fill:#ffffff;"/>
  </g>
  <g id="axes_1">
   <g id="patch_2">
    <path d="M 57.6 306.3024 
L 414.72 306.3024 
L 414.72 41.2992 
L 57.6 41.2992 
z
" style="fill:#ffffff;"/>
   </g>
   <g id="matplotlib.axis_1">
    <g id="xtick_1">
     <g id="line2d_1">
      <defs>
       <path d="M 0 0 
L 0 3.5 
" id="m4aea7fc78d" style="stroke:#000000;stroke-width:0.8;"/>
      </defs>
      <g>
       <use style="stroke:#000000;stroke-width:0.8;" x="73.832727" xlink:href="#m4aea7fc78d" y="306.3024"/>
      </g>
     </g>
     <g id="text_1">
      <!-- 0 -->
      <defs>
       <path d="M 31.78125 66.40625 
Q 24.171875 66.40625 20.328125 58.90625 
Q 16.5 51.421875 16.5 36.375 
Q 16.5 21.390625 20.328125 13.890625 
Q 24.171875 6.390625 31.78125 6.390625 
Q 39.453125 6.390625 43.28125 13.890625 
Q 47.125 21.390625 47.125 36.375 
Q 47.125 51.421875 43.28125 58.90625 
Q 39.453125 66.40625 31.78125 66.40625 
z
M 31.78125 74.21875 
Q 44.046875 74.21875 50.515625 64.515625 
Q 56.984375 54.828125 56.984375 36.375 
Q 56.984375 17.96875 50.515625 8.265625 
Q 44.046875 -1.421875 31.78125 -1.421875 
Q 19.53125 -1.421875 13.0625 8.265625 
Q 6.59375 17.96875 6.59375 36.375 
Q 6.59375 54.828125 13.0625 64.515625 
Q 19.53125 74.21875 31.78125 74.21875 
z
" id="DejaVuSans-48"/>
      </defs>
      <g transform="translate(70.651477 320.900838)scale(0.1 -0.1)">
       <use xlink:href="#DejaVuSans-48"/>
      </g>
     </g>
    </g>
    <g id="xtick_2">
     <g id="line2d_2">
      <g>
       <use style="stroke:#000000;stroke-width:0.8;" x="130.001334" xlink:href="#m4aea7fc78d" y="306.3024"/>
      </g>
     </g>
     <g id="text_2">
      <!-- 500 -->
      <defs>
       <path d="M 10.796875 72.90625 
L 49.515625 72.90625 
L 49.515625 64.59375 
L 19.828125 64.59375 
L 19.828125 46.734375 
Q 21.96875 47.46875 24.109375 47.828125 
Q 26.265625 48.1875 28.421875 48.1875 
Q 40.625 48.1875 47.75 41.5 
Q 54.890625 34.8125 54.890625 23.390625 
Q 54.890625 11.625 47.5625 5.09375 
Q 40.234375 -1.421875 26.90625 -1.421875 
Q 22.3125 -1.421875 17.546875 -0.640625 
Q 12.796875 0.140625 7.71875 1.703125 
L 7.71875 11.625 
Q 12.109375 9.234375 16.796875 8.0625 
Q 21.484375 6.890625 26.703125 6.890625 
Q 35.15625 6.890625 40.078125 11.328125 
Q 45.015625 15.765625 45.015625 23.390625 
Q 45.015625 31 40.078125 35.4375 
Q 35.15625 39.890625 26.703125 39.890625 
Q 22.75 39.890625 18.8125 39.015625 
Q 14.890625 38.140625 10.796875 36.28125 
z
" id="DejaVuSans-53"/>
      </defs>
      <g transform="translate(120.457584 320.900838)scale(0.1 -0.1)">
       <use xlink:href="#DejaVuSans-53"/>
       <use x="63.623047" xlink:href="#DejaVuSans-48"/>
       <use x="127.246094" xlink:href="#DejaVuSans-48"/>
      </g>
     </g>
    </g>
    <g id="xtick_3">
     <g id="line2d_3">
      <g>
       <use style="stroke:#000000;stroke-width:0.8;" x="186.16994" xlink:href="#m4aea7fc78d" y="306.3024"/>
      </g>
     </g>
     <g id="text_3">
      <!-- 1000 -->
      <defs>
       <path d="M 12.40625 8.296875 
L 28.515625 8.296875 
L 28.515625 63.921875 
L 10.984375 60.40625 
L 10.984375 69.390625 
L 28.421875 72.90625 
L 38.28125 72.90625 
L 38.28125 8.296875 
L 54.390625 8.296875 
L 54.390625 0 
L 12.40625 0 
z
" id="DejaVuSans-49"/>
      </defs>
      <g transform="translate(173.44494 320.900838)scale(0.1 -0.1)">
       <use xlink:href="#DejaVuSans-49"/>
       <use x="63.623047" xlink:href="#DejaVuSans-48"/>
       <use x="127.246094" xlink:href="#DejaVuSans-48"/>
       <use x="190.869141" xlink:href="#DejaVuSans-48"/>
      </g>
     </g>
    </g>
    <g id="xtick_4">
     <g id="line2d_4">
      <g>
       <use style="stroke:#000000;stroke-width:0.8;" x="242.338547" xlink:href="#m4aea7fc78d" y="306.3024"/>
      </g>
     </g>
     <g id="text_4">
      <!-- 1500 -->
      <g transform="translate(229.613547 320.900838)scale(0.1 -0.1)">
       <use xlink:href="#DejaVuSans-49"/>
       <use x="63.623047" xlink:href="#DejaVuSans-53"/>
       <use x="127.246094" xlink:href="#DejaVuSans-48"/>
       <use x="190.869141" xlink:href="#DejaVuSans-48"/>
      </g>
     </g>
    </g>
    <g id="xtick_5">
     <g id="line2d_5">
      <g>
       <use style="stroke:#000000;stroke-width:0.8;" x="298.507153" xlink:href="#m4aea7fc78d" y="306.3024"/>
      </g>
     </g>
     <g id="text_5">
      <!-- 2000 -->
      <defs>
       <path d="M 19.1875 8.296875 
L 53.609375 8.296875 
L 53.609375 0 
L 7.328125 0 
L 7.328125 8.296875 
Q 12.9375 14.109375 22.625 23.890625 
Q 32.328125 33.6875 34.8125 36.53125 
Q 39.546875 41.84375 41.421875 45.53125 
Q 43.3125 49.21875 43.3125 52.78125 
Q 43.3125 58.59375 39.234375 62.25 
Q 35.15625 65.921875 28.609375 65.921875 
Q 23.96875 65.921875 18.8125 64.3125 
Q 13.671875 62.703125 7.8125 59.421875 
L 7.8125 69.390625 
Q 13.765625 71.78125 18.9375 73 
Q 24.125 74.21875 28.421875 74.21875 
Q 39.75 74.21875 46.484375 68.546875 
Q 53.21875 62.890625 53.21875 53.421875 
Q 53.21875 48.921875 51.53125 44.890625 
Q 49.859375 40.875 45.40625 35.40625 
Q 44.1875 33.984375 37.640625 27.21875 
Q 31.109375 20.453125 19.1875 8.296875 
z
" id="DejaVuSans-50"/>
      </defs>
      <g transform="translate(285.782153 320.900838)scale(0.1 -0.1)">
       <use xlink:href="#DejaVuSans-50"/>
       <use x="63.623047" xlink:href="#DejaVuSans-48"/>
       <use x="127.246094" xlink:href="#DejaVuSans-48"/>
       <use x="190.869141" xlink:href="#DejaVuSans-48"/>
      </g>
     </g>
    </g>
    <g id="xtick_6">
     <g id="line2d_6">
      <g>
       <use style="stroke:#000000;stroke-width:0.8;" x="354.67576" xlink:href="#m4aea7fc78d" y="306.3024"/>
      </g>
     </g>
     <g id="text_6">
      <!-- 2500 -->
      <g transform="translate(341.95076 320.900838)scale(0.1 -0.1)">
       <use xlink:href="#DejaVuSans-50"/>
       <use x="63.623047" xlink:href="#DejaVuSans-53"/>
       <use x="127.246094" xlink:href="#DejaVuSans-48"/>
       <use x="190.869141" xlink:href="#DejaVuSans-48"/>
      </g>
     </g>
    </g>
    <g id="xtick_7">
     <g id="line2d_7">
      <g>
       <use style="stroke:#000000;stroke-width:0.8;" x="410.844366" xlink:href="#m4aea7fc78d" y="306.3024"/>
      </g>
     </g>
     <g id="text_7">
      <!-- 3000 -->
      <defs>
       <path d="M 40.578125 39.3125 
Q 47.65625 37.796875 51.625 33 
Q 55.609375 28.21875 55.609375 21.1875 
Q 55.609375 10.40625 48.1875 4.484375 
Q 40.765625 -1.421875 27.09375 -1.421875 
Q 22.515625 -1.421875 17.65625 -0.515625 
Q 12.796875 0.390625 7.625 2.203125 
L 7.625 11.71875 
Q 11.71875 9.328125 16.59375 8.109375 
Q 21.484375 6.890625 26.8125 6.890625 
Q 36.078125 6.890625 40.9375 10.546875 
Q 45.796875 14.203125 45.796875 21.1875 
Q 45.796875 27.640625 41.28125 31.265625 
Q 36.765625 34.90625 28.71875 34.90625 
L 20.21875 34.90625 
L 20.21875 43.015625 
L 29.109375 43.015625 
Q 36.375 43.015625 40.234375 45.921875 
Q 44.09375 48.828125 44.09375 54.296875 
Q 44.09375 59.90625 40.109375 62.90625 
Q 36.140625 65.921875 28.71875 65.921875 
Q 24.65625 65.921875 20.015625 65.03125 
Q 15.375 64.15625 9.8125 62.3125 
L 9.8125 71.09375 
Q 15.4375 72.65625 20.34375 73.4375 
Q 25.25 74.21875 29.59375 74.21875 
Q 40.828125 74.21875 47.359375 69.109375 
Q 53.90625 64.015625 53.90625 55.328125 
Q 53.90625 49.265625 50.4375 45.09375 
Q 46.96875 40.921875 40.578125 39.3125 
z
" id="DejaVuSans-51"/>
      </defs>
      <g transform="translate(398.119366 320.900838)scale(0.1 -0.1)">
       <use xlink:href="#DejaVuSans-51"/>
       <use x="63.623047" xlink:href="#DejaVuSans-48"/>
       <use x="127.246094" xlink:href="#DejaVuSans-48"/>
       <use x="190.869141" xlink:href="#DejaVuSans-48"/>
      </g>
     </g>
    </g>
    <g id="text_8">
     <!-- Muestras -->
     <defs>
      <path d="M 9.8125 72.90625 
L 24.515625 72.90625 
L 43.109375 23.296875 
L 61.8125 72.90625 
L 76.515625 72.90625 
L 76.515625 0 
L 66.890625 0 
L 66.890625 64.015625 
L 48.09375 14.015625 
L 38.1875 14.015625 
L 19.390625 64.015625 
L 19.390625 0 
L 9.8125 0 
z
" id="DejaVuSans-77"/>
      <path d="M 8.5 21.578125 
L 8.5 54.6875 
L 17.484375 54.6875 
L 17.484375 21.921875 
Q 17.484375 14.15625 20.5 10.265625 
Q 23.53125 6.390625 29.59375 6.390625 
Q 36.859375 6.390625 41.078125 11.03125 
Q 45.3125 15.671875 45.3125 23.6875 
L 45.3125 54.6875 
L 54.296875 54.6875 
L 54.296875 0 
L 45.3125 0 
L 45.3125 8.40625 
Q 42.046875 3.421875 37.71875 1 
Q 33.40625 -1.421875 27.6875 -1.421875 
Q 18.265625 -1.421875 13.375 4.4375 
Q 8.5 10.296875 8.5 21.578125 
z
M 31.109375 56 
z
" id="DejaVuSans-117"/>
      <path d="M 56.203125 29.59375 
L 56.203125 25.203125 
L 14.890625 25.203125 
Q 15.484375 15.921875 20.484375 11.0625 
Q 25.484375 6.203125 34.421875 6.203125 
Q 39.59375 6.203125 44.453125 7.46875 
Q 49.3125 8.734375 54.109375 11.28125 
L 54.109375 2.78125 
Q 49.265625 0.734375 44.1875 -0.34375 
Q 39.109375 -1.421875 33.890625 -1.421875 
Q 20.796875 -1.421875 13.15625 6.1875 
Q 5.515625 13.8125 5.515625 26.8125 
Q 5.515625 40.234375 12.765625 48.109375 
Q 20.015625 56 32.328125 56 
Q 43.359375 56 49.78125 48.890625 
Q 56.203125 41.796875 56.203125 29.59375 
z
M 47.21875 32.234375 
Q 47.125 39.59375 43.09375 43.984375 
Q 39.0625 48.390625 32.421875 48.390625 
Q 24.90625 48.390625 20.390625 44.140625 
Q 15.875 39.890625 15.1875 32.171875 
z
" id="DejaVuSans-101"/>
      <path d="M 44.28125 53.078125 
L 44.28125 44.578125 
Q 40.484375 46.53125 36.375 47.5 
Q 32.28125 48.484375 27.875 48.484375 
Q 21.1875 48.484375 17.84375 46.4375 
Q 14.5 44.390625 14.5 40.28125 
Q 14.5 37.15625 16.890625 35.375 
Q 19.28125 33.59375 26.515625 31.984375 
L 29.59375 31.296875 
Q 39.15625 29.25 43.1875 25.515625 
Q 47.21875 21.78125 47.21875 15.09375 
Q 47.21875 7.46875 41.1875 3.015625 
Q 35.15625 -1.421875 24.609375 -1.421875 
Q 20.21875 -1.421875 15.453125 -0.5625 
Q 10.6875 0.296875 5.421875 2 
L 5.421875 11.28125 
Q 10.40625 8.6875 15.234375 7.390625 
Q 20.0625 6.109375 24.8125 6.109375 
Q 31.15625 6.109375 34.5625 8.28125 
Q 37.984375 10.453125 37.984375 14.40625 
Q 37.984375 18.0625 35.515625 20.015625 
Q 33.0625 21.96875 24.703125 23.78125 
L 21.578125 24.515625 
Q 13.234375 26.265625 9.515625 29.90625 
Q 5.8125 33.546875 5.8125 39.890625 
Q 5.8125 47.609375 11.28125 51.796875 
Q 16.75 56 26.8125 56 
Q 31.78125 56 36.171875 55.265625 
Q 40.578125 54.546875 44.28125 53.078125 
z
" id="DejaVuSans-115"/>
      <path d="M 18.3125 70.21875 
L 18.3125 54.6875 
L 36.8125 54.6875 
L 36.8125 47.703125 
L 18.3125 47.703125 
L 18.3125 18.015625 
Q 18.3125 11.328125 20.140625 9.421875 
Q 21.96875 7.515625 27.59375 7.515625 
L 36.8125 7.515625 
L 36.8125 0 
L 27.59375 0 
Q 17.1875 0 13.234375 3.875 
Q 9.28125 7.765625 9.28125 18.015625 
L 9.28125 47.703125 
L 2.6875 47.703125 
L 2.6875 54.6875 
L 9.28125 54.6875 
L 9.28125 70.21875 
z
" id="DejaVuSans-116"/>
      <path d="M 41.109375 46.296875 
Q 39.59375 47.171875 37.8125 47.578125 
Q 36.03125 48 33.890625 48 
Q 26.265625 48 22.1875 43.046875 
Q 18.109375 38.09375 18.109375 28.8125 
L 18.109375 0 
L 9.078125 0 
L 9.078125 54.6875 
L 18.109375 54.6875 
L 18.109375 46.1875 
Q 20.953125 51.171875 25.484375 53.578125 
Q 30.03125 56 36.53125 56 
Q 37.453125 56 38.578125 55.875 
Q 39.703125 55.765625 41.0625 55.515625 
z
" id="DejaVuSans-114"/>
      <path d="M 34.28125 27.484375 
Q 23.390625 27.484375 19.1875 25 
Q 14.984375 22.515625 14.984375 16.5 
Q 14.984375 11.71875 18.140625 8.90625 
Q 21.296875 6.109375 26.703125 6.109375 
Q 34.1875 6.109375 38.703125 11.40625 
Q 43.21875 16.703125 43.21875 25.484375 
L 43.21875 27.484375 
z
M 52.203125 31.203125 
L 52.203125 0 
L 43.21875 0 
L 43.21875 8.296875 
Q 40.140625 3.328125 35.546875 0.953125 
Q 30.953125 -1.421875 24.3125 -1.421875 
Q 15.921875 -1.421875 10.953125 3.296875 
Q 6 8.015625 6 15.921875 
Q 6 25.140625 12.171875 29.828125 
Q 18.359375 34.515625 30.609375 34.515625 
L 43.21875 34.515625 
L 43.21875 35.40625 
Q 43.21875 41.609375 39.140625 45 
Q 35.0625 48.390625 27.6875 48.390625 
Q 23 48.390625 18.546875 47.265625 
Q 14.109375 46.140625 10.015625 43.890625 
L 10.015625 52.203125 
Q 14.9375 54.109375 19.578125 55.046875 
Q 24.21875 56 28.609375 56 
Q 40.484375 56 46.34375 49.84375 
Q 52.203125 43.703125 52.203125 31.203125 
z
" id="DejaVuSans-97"/>
     </defs>
     <g transform="translate(213.311562 334.578963)scale(0.1 -0.1)">
      <use xlink:href="#DejaVuSans-77"/>
      <use x="86.279297" xlink:href="#DejaVuSans-117"/>
      <use x="149.658203" xlink:href="#DejaVuSans-101"/>
      <use x="211.181641" xlink:href="#DejaVuSans-115"/>
      <use x="263.28125" xlink:href="#DejaVuSans-116"/>
      <use x="302.490234" xlink:href="#DejaVuSans-114"/>
      <use x="343.603516" xlink:href="#DejaVuSans-97"/>
      <use x="404.882812" xlink:href="#DejaVuSans-115"/>
     </g>
    </g>
   </g>
   <g id="matplotlib.axis_2">
    <g id="ytick_1">
     <g id="line2d_8">
      <defs>
       <path d="M 0 0 
L -3.5 0 
" id="m6453243e5a" style="stroke:#000000;stroke-width:0.8;"/>
      </defs>
      <g>
       <use style="stroke:#000000;stroke-width:0.8;" x="57.6" xlink:href="#m6453243e5a" y="279.1998"/>
      </g>
     </g>
     <g id="text_9">
      <!-- 31.6 -->
      <defs>
       <path d="M 10.6875 12.40625 
L 21 12.40625 
L 21 0 
L 10.6875 0 
z
" id="DejaVuSans-46"/>
       <path d="M 33.015625 40.375 
Q 26.375 40.375 22.484375 35.828125 
Q 18.609375 31.296875 18.609375 23.390625 
Q 18.609375 15.53125 22.484375 10.953125 
Q 26.375 6.390625 33.015625 6.390625 
Q 39.65625 6.390625 43.53125 10.953125 
Q 47.40625 15.53125 47.40625 23.390625 
Q 47.40625 31.296875 43.53125 35.828125 
Q 39.65625 40.375 33.015625 40.375 
z
M 52.59375 71.296875 
L 52.59375 62.3125 
Q 48.875 64.0625 45.09375 64.984375 
Q 41.3125 65.921875 37.59375 65.921875 
Q 27.828125 65.921875 22.671875 59.328125 
Q 17.53125 52.734375 16.796875 39.40625 
Q 19.671875 43.65625 24.015625 45.921875 
Q 28.375 48.1875 33.59375 48.1875 
Q 44.578125 48.1875 50.953125 41.515625 
Q 57.328125 34.859375 57.328125 23.390625 
Q 57.328125 12.15625 50.6875 5.359375 
Q 44.046875 -1.421875 33.015625 -1.421875 
Q 20.359375 -1.421875 13.671875 8.265625 
Q 6.984375 17.96875 6.984375 36.375 
Q 6.984375 53.65625 15.1875 63.9375 
Q 23.390625 74.21875 37.203125 74.21875 
Q 40.921875 74.21875 44.703125 73.484375 
Q 48.484375 72.75 52.59375 71.296875 
z
" id="DejaVuSans-54"/>
      </defs>
      <g transform="translate(28.334375 282.999019)scale(0.1 -0.1)">
       <use xlink:href="#DejaVuSans-51"/>
       <use x="63.623047" xlink:href="#DejaVuSans-49"/>
       <use x="127.246094" xlink:href="#DejaVuSans-46"/>
       <use x="159.033203" xlink:href="#DejaVuSans-54"/>
      </g>
     </g>
    </g>
    <g id="ytick_2">
     <g id="line2d_9">
      <g>
       <use style="stroke:#000000;stroke-width:0.8;" x="57.6" xlink:href="#m6453243e5a" y="229.0098"/>
      </g>
     </g>
     <g id="text_10">
      <!-- 31.7 -->
      <defs>
       <path d="M 8.203125 72.90625 
L 55.078125 72.90625 
L 55.078125 68.703125 
L 28.609375 0 
L 18.3125 0 
L 43.21875 64.59375 
L 8.203125 64.59375 
z
" id="DejaVuSans-55"/>
      </defs>
      <g transform="translate(28.334375 232.809019)scale(0.1 -0.1)">
       <use xlink:href="#DejaVuSans-51"/>
       <use x="63.623047" xlink:href="#DejaVuSans-49"/>
       <use x="127.246094" xlink:href="#DejaVuSans-46"/>
       <use x="159.033203" xlink:href="#DejaVuSans-55"/>
      </g>
     </g>
    </g>
    <g id="ytick_3">
     <g id="line2d_10">
      <g>
       <use style="stroke:#000000;stroke-width:0.8;" x="57.6" xlink:href="#m6453243e5a" y="178.8198"/>
      </g>
     </g>
     <g id="text_11">
      <!-- 31.8 -->
      <defs>
       <path d="M 31.78125 34.625 
Q 24.75 34.625 20.71875 30.859375 
Q 16.703125 27.09375 16.703125 20.515625 
Q 16.703125 13.921875 20.71875 10.15625 
Q 24.75 6.390625 31.78125 6.390625 
Q 38.8125 6.390625 42.859375 10.171875 
Q 46.921875 13.96875 46.921875 20.515625 
Q 46.921875 27.09375 42.890625 30.859375 
Q 38.875 34.625 31.78125 34.625 
z
M 21.921875 38.8125 
Q 15.578125 40.375 12.03125 44.71875 
Q 8.5 49.078125 8.5 55.328125 
Q 8.5 64.0625 14.71875 69.140625 
Q 20.953125 74.21875 31.78125 74.21875 
Q 42.671875 74.21875 48.875 69.140625 
Q 55.078125 64.0625 55.078125 55.328125 
Q 55.078125 49.078125 51.53125 44.71875 
Q 48 40.375 41.703125 38.8125 
Q 48.828125 37.15625 52.796875 32.3125 
Q 56.78125 27.484375 56.78125 20.515625 
Q 56.78125 9.90625 50.3125 4.234375 
Q 43.84375 -1.421875 31.78125 -1.421875 
Q 19.734375 -1.421875 13.25 4.234375 
Q 6.78125 9.90625 6.78125 20.515625 
Q 6.78125 27.484375 10.78125 32.3125 
Q 14.796875 37.15625 21.921875 38.8125 
z
M 18.3125 54.390625 
Q 18.3125 48.734375 21.84375 45.5625 
Q 25.390625 42.390625 31.78125 42.390625 
Q 38.140625 42.390625 41.71875 45.5625 
Q 45.3125 48.734375 45.3125 54.390625 
Q 45.3125 60.0625 41.71875 63.234375 
Q 38.140625 66.40625 31.78125 66.40625 
Q 25.390625 66.40625 21.84375 63.234375 
Q 18.3125 60.0625 18.3125 54.390625 
z
" id="DejaVuSans-56"/>
      </defs>
      <g transform="translate(28.334375 182.619019)scale(0.1 -0.1)">
       <use xlink:href="#DejaVuSans-51"/>
       <use x="63.623047" xlink:href="#DejaVuSans-49"/>
       <use x="127.246094" xlink:href="#DejaVuSans-46"/>
       <use x="159.033203" xlink:href="#DejaVuSans-56"/>
      </g>
     </g>
    </g>
    <g id="ytick_4">
     <g id="line2d_11">
      <g>
       <use style="stroke:#000000;stroke-width:0.8;" x="57.6" xlink:href="#m6453243e5a" y="128.6298"/>
      </g>
     </g>
     <g id="text_12">
      <!-- 31.9 -->
      <defs>
       <path d="M 10.984375 1.515625 
L 10.984375 10.5 
Q 14.703125 8.734375 18.5 7.8125 
Q 22.3125 6.890625 25.984375 6.890625 
Q 35.75 6.890625 40.890625 13.453125 
Q 46.046875 20.015625 46.78125 33.40625 
Q 43.953125 29.203125 39.59375 26.953125 
Q 35.25 24.703125 29.984375 24.703125 
Q 19.046875 24.703125 12.671875 31.3125 
Q 6.296875 37.9375 6.296875 49.421875 
Q 6.296875 60.640625 12.9375 67.421875 
Q 19.578125 74.21875 30.609375 74.21875 
Q 43.265625 74.21875 49.921875 64.515625 
Q 56.59375 54.828125 56.59375 36.375 
Q 56.59375 19.140625 48.40625 8.859375 
Q 40.234375 -1.421875 26.421875 -1.421875 
Q 22.703125 -1.421875 18.890625 -0.6875 
Q 15.09375 0.046875 10.984375 1.515625 
z
M 30.609375 32.421875 
Q 37.25 32.421875 41.125 36.953125 
Q 45.015625 41.5 45.015625 49.421875 
Q 45.015625 57.28125 41.125 61.84375 
Q 37.25 66.40625 30.609375 66.40625 
Q 23.96875 66.40625 20.09375 61.84375 
Q 16.21875 57.28125 16.21875 49.421875 
Q 16.21875 41.5 20.09375 36.953125 
Q 23.96875 32.421875 30.609375 32.421875 
z
" id="DejaVuSans-57"/>
      </defs>
      <g transform="translate(28.334375 132.429019)scale(0.1 -0.1)">
       <use xlink:href="#DejaVuSans-51"/>
       <use x="63.623047" xlink:href="#DejaVuSans-49"/>
       <use x="127.246094" xlink:href="#DejaVuSans-46"/>
       <use x="159.033203" xlink:href="#DejaVuSans-57"/>
      </g>
     </g>
    </g>
    <g id="ytick_5">
     <g id="line2d_12">
      <g>
       <use style="stroke:#000000;stroke-width:0.8;" x="57.6" xlink:href="#m6453243e5a" y="78.4398"/>
      </g>
     </g>
     <g id="text_13">
      <!-- 32.0 -->
      <g transform="translate(28.334375 82.239019)scale(0.1 -0.1)">
       <use xlink:href="#DejaVuSans-51"/>
       <use x="63.623047" xlink:href="#DejaVuSans-50"/>
       <use x="127.246094" xlink:href="#DejaVuSans-46"/>
       <use x="159.033203" xlink:href="#DejaVuSans-48"/>
      </g>
     </g>
    </g>
    <g id="text_14">
     <!-- Valor de Temperatura -->
     <defs>
      <path d="M 28.609375 0 
L 0.78125 72.90625 
L 11.078125 72.90625 
L 34.1875 11.53125 
L 57.328125 72.90625 
L 67.578125 72.90625 
L 39.796875 0 
z
" id="DejaVuSans-86"/>
      <path d="M 9.421875 75.984375 
L 18.40625 75.984375 
L 18.40625 0 
L 9.421875 0 
z
" id="DejaVuSans-108"/>
      <path d="M 30.609375 48.390625 
Q 23.390625 48.390625 19.1875 42.75 
Q 14.984375 37.109375 14.984375 27.296875 
Q 14.984375 17.484375 19.15625 11.84375 
Q 23.34375 6.203125 30.609375 6.203125 
Q 37.796875 6.203125 41.984375 11.859375 
Q 46.1875 17.53125 46.1875 27.296875 
Q 46.1875 37.015625 41.984375 42.703125 
Q 37.796875 48.390625 30.609375 48.390625 
z
M 30.609375 56 
Q 42.328125 56 49.015625 48.375 
Q 55.71875 40.765625 55.71875 27.296875 
Q 55.71875 13.875 49.015625 6.21875 
Q 42.328125 -1.421875 30.609375 -1.421875 
Q 18.84375 -1.421875 12.171875 6.21875 
Q 5.515625 13.875 5.515625 27.296875 
Q 5.515625 40.765625 12.171875 48.375 
Q 18.84375 56 30.609375 56 
z
" id="DejaVuSans-111"/>
      <path id="DejaVuSans-32"/>
      <path d="M 45.40625 46.390625 
L 45.40625 75.984375 
L 54.390625 75.984375 
L 54.390625 0 
L 45.40625 0 
L 45.40625 8.203125 
Q 42.578125 3.328125 38.25 0.953125 
Q 33.9375 -1.421875 27.875 -1.421875 
Q 17.96875 -1.421875 11.734375 6.484375 
Q 5.515625 14.40625 5.515625 27.296875 
Q 5.515625 40.1875 11.734375 48.09375 
Q 17.96875 56 27.875 56 
Q 33.9375 56 38.25 53.625 
Q 42.578125 51.265625 45.40625 46.390625 
z
M 14.796875 27.296875 
Q 14.796875 17.390625 18.875 11.75 
Q 22.953125 6.109375 30.078125 6.109375 
Q 37.203125 6.109375 41.296875 11.75 
Q 45.40625 17.390625 45.40625 27.296875 
Q 45.40625 37.203125 41.296875 42.84375 
Q 37.203125 48.484375 30.078125 48.484375 
Q 22.953125 48.484375 18.875 42.84375 
Q 14.796875 37.203125 14.796875 27.296875 
z
" id="DejaVuSans-100"/>
      <path d="M -0.296875 72.90625 
L 61.375 72.90625 
L 61.375 64.59375 
L 35.5 64.59375 
L 35.5 0 
L 25.59375 0 
L 25.59375 64.59375 
L -0.296875 64.59375 
z
" id="DejaVuSans-84"/>
      <path d="M 52 44.1875 
Q 55.375 50.25 60.0625 53.125 
Q 64.75 56 71.09375 56 
Q 79.640625 56 84.28125 50.015625 
Q 88.921875 44.046875 88.921875 33.015625 
L 88.921875 0 
L 79.890625 0 
L 79.890625 32.71875 
Q 79.890625 40.578125 77.09375 44.375 
Q 74.3125 48.1875 68.609375 48.1875 
Q 61.625 48.1875 57.5625 43.546875 
Q 53.515625 38.921875 53.515625 30.90625 
L 53.515625 0 
L 44.484375 0 
L 44.484375 32.71875 
Q 44.484375 40.625 41.703125 44.40625 
Q 38.921875 48.1875 33.109375 48.1875 
Q 26.21875 48.1875 22.15625 43.53125 
Q 18.109375 38.875 18.109375 30.90625 
L 18.109375 0 
L 9.078125 0 
L 9.078125 54.6875 
L 18.109375 54.6875 
L 18.109375 46.1875 
Q 21.1875 51.21875 25.484375 53.609375 
Q 29.78125 56 35.6875 56 
Q 41.65625 56 45.828125 52.96875 
Q 50 49.953125 52 44.1875 
z
" id="DejaVuSans-109"/>
      <path d="M 18.109375 8.203125 
L 18.109375 -20.796875 
L 9.078125 -20.796875 
L 9.078125 54.6875 
L 18.109375 54.6875 
L 18.109375 46.390625 
Q 20.953125 51.265625 25.265625 53.625 
Q 29.59375 56 35.59375 56 
Q 45.5625 56 51.78125 48.09375 
Q 58.015625 40.1875 58.015625 27.296875 
Q 58.015625 14.40625 51.78125 6.484375 
Q 45.5625 -1.421875 35.59375 -1.421875 
Q 29.59375 -1.421875 25.265625 0.953125 
Q 20.953125 3.328125 18.109375 8.203125 
z
M 48.6875 27.296875 
Q 48.6875 37.203125 44.609375 42.84375 
Q 40.53125 48.484375 33.40625 48.484375 
Q 26.265625 48.484375 22.1875 42.84375 
Q 18.109375 37.203125 18.109375 27.296875 
Q 18.109375 17.390625 22.1875 11.75 
Q 26.265625 6.109375 33.40625 6.109375 
Q 40.53125 6.109375 44.609375 11.75 
Q 48.6875 17.390625 48.6875 27.296875 
z
" id="DejaVuSans-112"/>
     </defs>
     <g transform="translate(22.254687 228.818769)rotate(-90)scale(0.1 -0.1)">
      <use xlink:href="#DejaVuSans-86"/>
      <use x="68.298828" xlink:href="#DejaVuSans-97"/>
      <use x="129.578125" xlink:href="#DejaVuSans-108"/>
      <use x="157.361328" xlink:href="#DejaVuSans-111"/>
      <use x="218.542969" xlink:href="#DejaVuSans-114"/>
      <use x="259.65625" xlink:href="#DejaVuSans-32"/>
      <use x="291.443359" xlink:href="#DejaVuSans-100"/>
      <use x="354.919922" xlink:href="#DejaVuSans-101"/>
      <use x="416.443359" xlink:href="#DejaVuSans-32"/>
      <use x="448.230469" xlink:href="#DejaVuSans-84"/>
      <use x="509.048828" xlink:href="#DejaVuSans-101"/>
      <use x="570.572266" xlink:href="#DejaVuSans-109"/>
      <use x="667.984375" xlink:href="#DejaVuSans-112"/>
      <use x="731.460938" xlink:href="#DejaVuSans-101"/>
      <use x="792.984375" xlink:href="#DejaVuSans-114"/>
      <use x="834.097656" xlink:href="#DejaVuSans-97"/>
      <use x="895.376953" xlink:href="#DejaVuSans-116"/>
      <use x="934.585938" xlink:href="#DejaVuSans-117"/>
      <use x="997.964844" xlink:href="#DejaVuSans-114"/>
      <use x="1039.078125" xlink:href="#DejaVuSans-97"/>
     </g>
    </g>
   </g>
   <g id="line2d_13">
    <path clip-path="url(#p82b5e1d3df)" d="M 73.832727 53.3448 
L 74.394413 53.3448 
L 74.506751 83.4588 
L 75.293111 83.4588 
L 75.405448 103.5348 
L 75.74246 103.5348 
L 75.854797 83.4588 
L 76.191809 83.4588 
L 76.304146 78.4398 
L 76.641158 78.4398 
L 76.753495 93.4968 
L 77.090506 93.4968 
L 77.202844 103.5348 
L 77.539855 103.5348 
L 77.652193 113.5728 
L 77.989204 113.5728 
L 78.101541 133.6488 
L 78.438553 133.6488 
L 78.55089 123.6108 
L 78.887902 123.6108 
L 79.000239 133.6488 
L 80.235948 133.6488 
L 80.348286 123.6108 
L 80.685297 123.6108 
L 80.797634 133.6488 
L 82.482693 133.6488 
L 82.59503 143.6868 
L 83.830739 143.6868 
L 83.943076 153.7248 
L 85.178786 153.7248 
L 85.291123 143.6868 
L 85.628135 143.6868 
L 85.740472 153.7248 
L 86.077483 153.7248 
L 86.189821 143.6868 
L 86.526832 143.6868 
L 86.63917 153.7248 
L 86.976181 153.7248 
L 87.088518 163.7628 
L 89.672274 163.7628 
L 89.784612 193.8768 
L 90.570972 193.8768 
L 90.683309 183.8388 
L 91.020321 183.8388 
L 91.132658 203.9148 
L 91.919019 203.9148 
L 92.031356 193.8768 
L 92.368367 193.8768 
L 92.480705 203.9148 
L 92.817716 203.9148 
L 92.930053 183.8388 
L 93.267065 183.8388 
L 93.379402 213.9528 
L 93.716414 213.9528 
L 93.828751 193.8768 
L 94.165763 193.8768 
L 94.2781 163.7628 
L 94.615112 163.7628 
L 94.727449 143.6868 
L 95.064461 143.6868 
L 95.176798 163.7628 
L 95.963158 163.7628 
L 96.075495 173.8008 
L 96.412507 173.8008 
L 96.524844 183.8388 
L 96.861856 183.8388 
L 96.974193 203.9148 
L 97.311205 203.9148 
L 97.423542 193.8768 
L 97.760554 193.8768 
L 97.872891 203.9148 
L 98.209902 203.9148 
L 98.32224 193.8768 
L 100.007298 193.8768 
L 100.119635 203.9148 
L 100.456647 203.9148 
L 100.568984 193.8768 
L 101.804693 193.8768 
L 101.917031 183.8388 
L 102.254042 183.8388 
L 102.366379 173.8008 
L 102.703391 173.8008 
L 102.815728 183.8388 
L 103.15274 183.8388 
L 103.265077 203.9148 
L 103.602089 203.9148 
L 103.714426 183.8388 
L 104.051438 183.8388 
L 104.163775 173.8008 
L 104.500786 173.8008 
L 104.613124 183.8388 
L 105.399484 183.8388 
L 105.511821 173.8008 
L 105.848833 173.8008 
L 105.96117 183.8388 
L 106.298182 183.8388 
L 106.410519 173.8008 
L 106.747531 173.8008 
L 106.859868 183.8388 
L 107.646228 183.8388 
L 107.758566 173.8008 
L 108.544926 173.8008 
L 108.657263 183.8388 
L 109.443624 183.8388 
L 109.555961 173.8008 
L 111.241019 173.8008 
L 111.353356 163.7628 
L 111.690368 163.7628 
L 111.802705 173.8008 
L 113.487763 173.8008 
L 113.600101 163.7628 
L 114.386461 163.7628 
L 114.498798 153.7248 
L 115.285159 153.7248 
L 115.397496 163.7628 
L 115.734508 163.7628 
L 115.846845 153.7248 
L 117.531903 153.7248 
L 117.64424 143.6868 
L 118.87995 143.6868 
L 118.992287 133.6488 
L 119.778647 133.6488 
L 119.890985 143.6868 
L 120.227996 143.6868 
L 120.340333 133.6488 
L 120.677345 133.6488 
L 120.789682 123.6108 
L 122.924089 123.6108 
L 123.036427 113.5728 
L 123.373438 113.5728 
L 123.485775 123.6108 
L 123.822787 123.6108 
L 123.935124 103.5348 
L 124.721485 103.5348 
L 124.833822 113.5728 
L 125.170834 113.5728 
L 125.283171 103.5348 
L 125.620182 103.5348 
L 125.73252 93.4968 
L 126.069531 93.4968 
L 126.181869 103.5348 
L 126.51888 103.5348 
L 126.631217 93.4968 
L 126.968229 93.4968 
L 127.080566 103.5348 
L 127.866927 103.5348 
L 127.979264 93.4968 
L 128.316276 93.4968 
L 128.428613 103.5348 
L 129.664322 103.5348 
L 129.776659 113.5728 
L 130.113671 113.5728 
L 130.226008 103.5348 
L 130.56302 103.5348 
L 130.675357 113.5728 
L 131.911066 113.5728 
L 132.023404 103.5348 
L 132.809764 103.5348 
L 132.922101 113.5728 
L 133.708462 113.5728 
L 133.820799 103.5348 
L 134.607159 103.5348 
L 134.719497 113.5728 
L 135.505857 113.5728 
L 135.618194 123.6108 
L 135.955206 123.6108 
L 136.067543 113.5728 
L 136.404555 113.5728 
L 136.516892 123.6108 
L 136.853904 123.6108 
L 136.966241 113.5728 
L 137.752601 113.5728 
L 137.864939 123.6108 
L 138.20195 123.6108 
L 138.314288 103.5348 
L 138.651299 103.5348 
L 138.763636 123.6108 
L 139.100648 123.6108 
L 139.212985 113.5728 
L 139.549997 113.5728 
L 139.662334 123.6108 
L 139.999346 123.6108 
L 140.111683 113.5728 
L 140.448695 113.5728 
L 140.561032 123.6108 
L 140.898043 123.6108 
L 141.010381 113.5728 
L 141.347392 113.5728 
L 141.459729 123.6108 
L 142.695439 123.6108 
L 142.807776 113.5728 
L 143.144788 113.5728 
L 143.257125 123.6108 
L 144.043485 123.6108 
L 144.155823 113.5728 
L 145.840881 113.5728 
L 145.953218 103.5348 
L 146.739578 103.5348 
L 146.851916 113.5728 
L 147.188927 113.5728 
L 147.301265 123.6108 
L 148.087625 123.6108 
L 148.199962 113.5728 
L 148.536974 113.5728 
L 148.649311 123.6108 
L 150.334369 123.6108 
L 150.446707 113.5728 
L 153.479811 113.5728 
L 153.592148 123.6108 
L 153.92916 123.6108 
L 154.041497 113.5728 
L 155.277207 113.5728 
L 155.389544 123.6108 
L 155.726556 123.6108 
L 155.838893 113.5728 
L 156.625253 113.5728 
L 156.73759 103.5348 
L 157.074602 103.5348 
L 157.186939 113.5728 
L 157.523951 113.5728 
L 157.636288 123.6108 
L 157.9733 123.6108 
L 158.085637 103.5348 
L 158.422649 103.5348 
L 158.534986 123.6108 
L 158.871997 123.6108 
L 158.984335 113.5728 
L 159.770695 113.5728 
L 159.883032 103.5348 
L 160.220044 103.5348 
L 160.332381 113.5728 
L 160.669393 113.5728 
L 160.78173 123.6108 
L 161.118742 123.6108 
L 161.231079 113.5728 
L 161.568091 113.5728 
L 161.680428 103.5348 
L 162.916137 103.5348 
L 163.028474 113.5728 
L 164.713533 113.5728 
L 164.82587 103.5348 
L 165.162881 103.5348 
L 165.275219 113.5728 
L 166.960277 113.5728 
L 167.072614 103.5348 
L 167.858975 103.5348 
L 167.971312 113.5728 
L 168.308323 113.5728 
L 168.420661 103.5348 
L 170.105719 103.5348 
L 170.218056 113.5728 
L 170.555068 113.5728 
L 170.667405 103.5348 
L 171.453765 103.5348 
L 171.566103 93.4968 
L 171.903114 93.4968 
L 172.015451 103.5348 
L 173.251161 103.5348 
L 173.363498 93.4968 
L 173.70051 93.4968 
L 173.812847 103.5348 
L 174.149858 103.5348 
L 174.262196 93.4968 
L 174.599207 93.4968 
L 174.711545 103.5348 
L 175.048556 103.5348 
L 175.160893 93.4968 
L 175.497905 93.4968 
L 175.610242 83.4588 
L 175.947254 83.4588 
L 176.059591 93.4968 
L 176.845952 93.4968 
L 176.958289 83.4588 
L 177.744649 83.4588 
L 177.856986 93.4968 
L 178.643347 93.4968 
L 178.755684 83.4588 
L 179.092696 83.4588 
L 179.205033 93.4968 
L 179.991394 93.4968 
L 180.103731 83.4588 
L 180.440742 83.4588 
L 180.55308 93.4968 
L 181.33944 93.4968 
L 181.451777 83.4588 
L 181.788789 83.4588 
L 181.901126 93.4968 
L 182.687487 93.4968 
L 182.799824 83.4588 
L 183.136835 83.4588 
L 183.249173 93.4968 
L 184.484882 93.4968 
L 184.597219 103.5348 
L 185.832929 103.5348 
L 185.945266 113.5728 
L 187.180975 113.5728 
L 187.293312 93.4968 
L 187.630324 93.4968 
L 187.742661 103.5348 
L 188.079673 103.5348 
L 188.19201 113.5728 
L 188.529022 113.5728 
L 188.641359 103.5348 
L 188.978371 103.5348 
L 189.090708 113.5728 
L 189.427719 113.5728 
L 189.540057 103.5348 
L 189.877068 103.5348 
L 189.989405 123.6108 
L 190.326417 123.6108 
L 190.438754 113.5728 
L 191.674464 113.5728 
L 191.786801 123.6108 
L 193.02251 123.6108 
L 193.134847 113.5728 
L 193.471859 113.5728 
L 193.584196 123.6108 
L 194.370557 123.6108 
L 194.482894 133.6488 
L 195.269254 133.6488 
L 195.381592 113.5728 
L 195.718603 113.5728 
L 195.830941 133.6488 
L 196.167952 133.6488 
L 196.280289 123.6108 
L 197.515999 123.6108 
L 197.628336 133.6488 
L 200.212092 133.6488 
L 200.324429 143.6868 
L 201.560138 143.6868 
L 201.672476 133.6488 
L 202.458836 133.6488 
L 202.571173 143.6868 
L 203.806883 143.6868 
L 203.91922 133.6488 
L 204.256232 133.6488 
L 204.368569 153.7248 
L 206.502976 153.7248 
L 206.615313 163.7628 
L 206.952325 163.7628 
L 207.064662 153.7248 
L 207.851022 153.7248 
L 207.96336 163.7628 
L 208.74972 163.7628 
L 208.862057 143.6868 
L 209.199069 143.6868 
L 209.311406 153.7248 
L 210.996464 153.7248 
L 211.108802 173.8008 
L 211.895162 173.8008 
L 212.007499 163.7628 
L 213.243209 163.7628 
L 213.355546 173.8008 
L 213.692557 173.8008 
L 213.804895 163.7628 
L 214.141906 163.7628 
L 214.254243 183.8388 
L 214.591255 183.8388 
L 214.703592 173.8008 
L 215.489953 173.8008 
L 215.60229 163.7628 
L 215.939302 163.7628 
L 216.051639 183.8388 
L 216.837999 183.8388 
L 216.950337 173.8008 
L 217.287348 173.8008 
L 217.399685 163.7628 
L 217.736697 163.7628 
L 217.849034 173.8008 
L 218.186046 173.8008 
L 218.298383 183.8388 
L 220.43279 183.8388 
L 220.545127 173.8008 
L 220.882139 173.8008 
L 220.994476 183.8388 
L 222.679534 183.8388 
L 222.791872 193.8768 
L 223.128883 193.8768 
L 223.241221 183.8388 
L 224.926279 183.8388 
L 225.038616 193.8768 
L 226.274325 193.8768 
L 226.386662 203.9148 
L 226.723674 203.9148 
L 226.836011 213.9528 
L 227.622372 213.9528 
L 227.734709 203.9148 
L 228.970418 203.9148 
L 229.082756 193.8768 
L 229.419767 193.8768 
L 229.532104 203.9148 
L 230.318465 203.9148 
L 230.430802 193.8768 
L 231.217163 193.8768 
L 231.3295 213.9528 
L 231.666511 213.9528 
L 231.778849 203.9148 
L 232.11586 203.9148 
L 232.228198 193.8768 
L 233.463907 193.8768 
L 233.576244 213.9528 
L 233.913256 213.9528 
L 234.025593 203.9148 
L 235.261302 203.9148 
L 235.37364 193.8768 
L 236.16 193.8768 
L 236.272337 203.9148 
L 236.609349 203.9148 
L 236.721686 193.8768 
L 237.058698 193.8768 
L 237.171035 203.9148 
L 238.406744 203.9148 
L 238.519081 193.8768 
L 239.305442 193.8768 
L 239.417779 183.8388 
L 239.754791 183.8388 
L 239.867128 193.8768 
L 240.653489 193.8768 
L 240.765826 203.9148 
L 241.102837 203.9148 
L 241.215175 183.8388 
L 241.552186 183.8388 
L 241.664523 193.8768 
L 242.001535 193.8768 
L 242.113872 203.9148 
L 242.450884 203.9148 
L 242.563221 193.8768 
L 242.900233 193.8768 
L 243.01257 183.8388 
L 243.349582 183.8388 
L 243.461919 193.8768 
L 243.79893 193.8768 
L 243.911268 183.8388 
L 244.697628 183.8388 
L 244.809965 193.8768 
L 245.146977 193.8768 
L 245.259314 183.8388 
L 245.596326 183.8388 
L 245.708663 193.8768 
L 246.045675 193.8768 
L 246.158012 183.8388 
L 248.741768 183.8388 
L 248.854105 193.8768 
L 249.191117 193.8768 
L 249.303454 183.8388 
L 249.640466 183.8388 
L 249.752803 193.8768 
L 251.437861 193.8768 
L 251.550198 183.8388 
L 254.583303 183.8388 
L 254.69564 193.8768 
L 255.032652 193.8768 
L 255.144989 183.8388 
L 255.931349 183.8388 
L 256.043687 173.8008 
L 256.380698 173.8008 
L 256.493036 183.8388 
L 257.728745 183.8388 
L 257.841082 173.8008 
L 258.178094 173.8008 
L 258.290431 183.8388 
L 258.627443 183.8388 
L 258.73978 193.8768 
L 259.52614 193.8768 
L 259.638478 183.8388 
L 260.424838 183.8388 
L 260.537175 173.8008 
L 260.874187 173.8008 
L 260.986524 183.8388 
L 262.222233 183.8388 
L 262.334571 173.8008 
L 263.120931 173.8008 
L 263.233268 183.8388 
L 263.57028 183.8388 
L 263.682617 173.8008 
L 264.468978 173.8008 
L 264.581315 183.8388 
L 265.367675 183.8388 
L 265.480013 193.8768 
L 265.817024 193.8768 
L 265.929361 183.8388 
L 268.513117 183.8388 
L 268.625455 193.8768 
L 268.962466 193.8768 
L 269.074803 183.8388 
L 271.658559 183.8388 
L 271.770897 173.8008 
L 272.557257 173.8008 
L 272.669594 183.8388 
L 273.455955 183.8388 
L 273.568292 173.8008 
L 275.25335 173.8008 
L 275.365687 183.8388 
L 275.702699 183.8388 
L 275.815036 173.8008 
L 276.152048 173.8008 
L 276.264385 183.8388 
L 276.601397 183.8388 
L 276.713734 173.8008 
L 277.050746 173.8008 
L 277.163083 183.8388 
L 277.500094 183.8388 
L 277.612432 173.8008 
L 279.746839 173.8008 
L 279.859176 183.8388 
L 281.094885 183.8388 
L 281.207222 173.8008 
L 283.341629 173.8008 
L 283.453967 183.8388 
L 283.790978 183.8388 
L 283.903316 163.7628 
L 284.240327 163.7628 
L 284.352664 173.8008 
L 286.037723 173.8008 
L 286.15006 183.8388 
L 286.93642 183.8388 
L 287.048757 173.8008 
L 287.835118 173.8008 
L 287.947455 183.8388 
L 288.284467 183.8388 
L 288.396804 173.8008 
L 289.632513 173.8008 
L 289.744851 183.8388 
L 290.98056 183.8388 
L 291.092897 173.8008 
L 292.328606 173.8008 
L 292.440944 163.7628 
L 292.777955 163.7628 
L 292.890293 183.8388 
L 293.227304 183.8388 
L 293.339641 173.8008 
L 294.126002 173.8008 
L 294.238339 183.8388 
L 294.575351 183.8388 
L 294.687688 173.8008 
L 298.170142 173.8008 
L 298.282479 193.8768 
L 298.61949 193.8768 
L 298.731828 183.8388 
L 299.967537 183.8388 
L 300.079874 173.8008 
L 300.416886 173.8008 
L 300.529223 183.8388 
L 301.315584 183.8388 
L 301.427921 173.8008 
L 301.764932 173.8008 
L 301.87727 183.8388 
L 303.112979 183.8388 
L 303.225316 193.8768 
L 303.562328 193.8768 
L 303.674665 183.8388 
L 304.011677 183.8388 
L 304.124014 193.8768 
L 305.809072 193.8768 
L 305.921409 183.8388 
L 306.258421 183.8388 
L 306.370758 193.8768 
L 307.606467 193.8768 
L 307.718805 183.8388 
L 308.055816 183.8388 
L 308.168154 193.8768 
L 308.505165 193.8768 
L 308.617502 183.8388 
L 309.403863 183.8388 
L 309.5162 203.9148 
L 309.853212 203.9148 
L 309.965549 183.8388 
L 310.751909 183.8388 
L 310.864247 193.8768 
L 312.099956 193.8768 
L 312.212293 203.9148 
L 312.998654 203.9148 
L 313.110991 193.8768 
L 314.3467 193.8768 
L 314.459037 203.9148 
L 315.245398 203.9148 
L 315.357735 213.9528 
L 315.694747 213.9528 
L 315.807084 203.9148 
L 316.144096 203.9148 
L 316.256433 193.8768 
L 316.593444 193.8768 
L 316.705782 203.9148 
L 317.492142 203.9148 
L 317.604479 193.8768 
L 317.941491 193.8768 
L 318.053828 203.9148 
L 318.39084 203.9148 
L 318.503177 193.8768 
L 318.840189 193.8768 
L 318.952526 213.9528 
L 319.738886 213.9528 
L 319.851224 203.9148 
L 320.637584 203.9148 
L 320.749921 193.8768 
L 321.086933 193.8768 
L 321.19927 203.9148 
L 321.536282 203.9148 
L 321.648619 193.8768 
L 321.985631 193.8768 
L 322.097968 203.9148 
L 323.333677 203.9148 
L 323.446014 213.9528 
L 323.783026 213.9528 
L 323.895363 203.9148 
L 324.232375 203.9148 
L 324.344712 213.9528 
L 325.131073 213.9528 
L 325.24341 203.9148 
L 325.580422 203.9148 
L 325.692759 213.9528 
L 326.479119 213.9528 
L 326.591456 203.9148 
L 326.928468 203.9148 
L 327.040805 213.9528 
L 329.624561 213.9528 
L 329.736898 203.9148 
L 330.523259 203.9148 
L 330.635596 213.9528 
L 330.972608 213.9528 
L 331.084945 223.9908 
L 332.770003 223.9908 
L 332.88234 213.9528 
L 333.219352 213.9528 
L 333.331689 223.9908 
L 334.567399 223.9908 
L 334.679736 213.9528 
L 335.466096 213.9528 
L 335.578433 223.9908 
L 336.814143 223.9908 
L 336.92648 234.0288 
L 337.263492 234.0288 
L 337.375829 223.9908 
L 337.712841 223.9908 
L 337.825178 234.0288 
L 339.959585 234.0288 
L 340.071922 244.0668 
L 340.858282 244.0668 
L 340.97062 234.0288 
L 341.307631 234.0288 
L 341.419969 244.0668 
L 344.902422 244.0668 
L 345.014759 234.0288 
L 345.351771 234.0288 
L 345.464108 254.1048 
L 346.250469 254.1048 
L 346.362806 264.1428 
L 346.699818 264.1428 
L 346.812155 254.1048 
L 347.598515 254.1048 
L 347.710852 244.0668 
L 348.047864 244.0668 
L 348.160201 264.1428 
L 348.946562 264.1428 
L 349.058899 254.1048 
L 349.395911 254.1048 
L 349.508248 264.1428 
L 349.84526 264.1428 
L 349.957597 254.1048 
L 351.193306 254.1048 
L 351.305643 244.0668 
L 351.642655 244.0668 
L 351.754992 254.1048 
L 352.990701 254.1048 
L 353.103039 234.0288 
L 353.44005 234.0288 
L 353.552388 254.1048 
L 354.338748 254.1048 
L 354.451085 264.1428 
L 355.237446 264.1428 
L 355.349783 254.1048 
L 356.136143 254.1048 
L 356.248481 274.1808 
L 356.585492 274.1808 
L 356.69783 254.1048 
L 357.034841 254.1048 
L 357.147178 264.1428 
L 357.48419 264.1428 
L 357.596527 274.1808 
L 357.933539 274.1808 
L 358.045876 264.1428 
L 360.180283 264.1428 
L 360.29262 274.1808 
L 360.629632 274.1808 
L 360.741969 254.1048 
L 361.52833 254.1048 
L 361.640667 264.1428 
L 367.369865 264.1428 
L 367.482202 254.1048 
L 367.819214 254.1048 
L 367.931551 274.1808 
L 368.268562 274.1808 
L 368.3809 254.1048 
L 368.717911 254.1048 
L 368.830249 264.1428 
L 369.16726 264.1428 
L 369.279597 274.1808 
L 369.616609 274.1808 
L 369.728946 264.1428 
L 370.065958 264.1428 
L 370.178295 274.1808 
L 370.515307 274.1808 
L 370.627644 264.1428 
L 374.559446 264.1428 
L 374.671784 274.1808 
L 375.907493 274.1808 
L 376.01983 264.1428 
L 376.806191 264.1428 
L 376.918528 274.1808 
L 378.603586 274.1808 
L 378.715923 264.1428 
L 379.052935 264.1428 
L 379.165272 284.2188 
L 379.502284 284.2188 
L 379.614621 274.1808 
L 380.85033 274.1808 
L 380.962668 264.1428 
L 381.299679 264.1428 
L 381.412016 284.2188 
L 381.749028 284.2188 
L 381.861365 274.1808 
L 382.198377 274.1808 
L 382.310714 284.2188 
L 382.647726 284.2188 
L 382.760063 274.1808 
L 383.097075 274.1808 
L 383.209412 284.2188 
L 383.546423 284.2188 
L 383.658761 274.1808 
L 383.995772 274.1808 
L 384.108109 264.1428 
L 384.445121 264.1428 
L 384.557458 274.1808 
L 385.793168 274.1808 
L 385.905505 264.1428 
L 386.242517 264.1428 
L 386.354854 274.1808 
L 386.691865 274.1808 
L 386.804203 264.1428 
L 387.141214 264.1428 
L 387.253551 274.1808 
L 390.736005 274.1808 
L 390.848342 294.2568 
L 392.084052 294.2568 
L 392.196389 274.1808 
L 392.5334 274.1808 
L 392.645738 284.2188 
L 392.982749 284.2188 
L 393.095087 274.1808 
L 395.229494 274.1808 
L 395.341831 284.2188 
L 395.678842 284.2188 
L 395.79118 274.1808 
L 396.128191 274.1808 
L 396.240528 294.2568 
L 396.57754 294.2568 
L 396.689877 284.2188 
L 397.476238 284.2188 
L 397.588575 274.1808 
L 398.374936 274.1808 
L 398.487273 284.2188 
L 398.487273 284.2188 
" style="fill:none;stroke:#1f77b4;stroke-linecap:square;stroke-width:1.5;"/>
   </g>
   <g id="patch_3">
    <path d="M 57.6 306.3024 
L 57.6 41.2992 
" style="fill:none;stroke:#000000;stroke-linecap:square;stroke-linejoin:miter;stroke-width:0.8;"/>
   </g>
   <g id="patch_4">
    <path d="M 414.72 306.3024 
L 414.72 41.2992 
" style="fill:none;stroke:#000000;stroke-linecap:square;stroke-linejoin:miter;stroke-width:0.8;"/>
   </g>
   <g id="patch_5">
    <path d="M 57.6 306.3024 
L 414.72 306.3024 
" style="fill:none;stroke:#000000;stroke-linecap:square;stroke-linejoin:miter;stroke-width:0.8;"/>
   </g>
   <g id="patch_6">
    <path d="M 57.6 41.2992 
L 414.72 41.2992 
" style="fill:none;stroke:#000000;stroke-linecap:square;stroke-linejoin:miter;stroke-width:0.8;"/>
   </g>
   <g id="text_15">
    <!-- Tempertura -->
    <g transform="translate(200.709375 35.2992)scale(0.12 -0.12)">
     <use xlink:href="#DejaVuSans-84"/>
     <use x="60.818359" xlink:href="#DejaVuSans-101"/>
     <use x="122.341797" xlink:href="#DejaVuSans-109"/>
     <use x="219.753906" xlink:href="#DejaVuSans-112"/>
     <use x="283.230469" xlink:href="#DejaVuSans-101"/>
     <use x="344.753906" xlink:href="#DejaVuSans-114"/>
     <use x="385.867188" xlink:href="#DejaVuSans-116"/>
     <use x="425.076172" xlink:href="#DejaVuSans-117"/>
     <use x="488.455078" xlink:href="#DejaVuSans-114"/>
     <use x="529.568359" xlink:href="#DejaVuSans-97"/>
    </g>
   </g>
  </g>
 </g>
 <defs>
  <clipPath id="p82b5e1d3df">
   <rect height="265.0032" width="357.12" x="57.6" y="41.2992"/>
  </clipPath>
 </defs>
</svg>
