<?xml version="1.0" encoding="utf-8" standalone="no"?>
<!DOCTYPE svg PUBLIC "-//W3C//DTD SVG 1.1//EN"
  "http://www.w3.org/Graphics/SVG/1.1/DTD/svg11.dtd">
<!-- Created with matplotlib (https://matplotlib.org/) -->
<svg height="344.16pt" version="1.1" viewBox="0 0 460.8 344.16" width="460.8pt" xmlns="http://www.w3.org/2000/svg" xmlns:xlink="http://www.w3.org/1999/xlink">
 <defs>
  <style type="text/css">
*{stroke-linecap:butt;stroke-linejoin:round;}
  </style>
 </defs>
 <g id="figure_1">
  <g id="patch_1">
   <path d="M 0 344.16 
L 460.8 344.16 
L 460.8 0 
L 0 0 
z
" style="fill:#ffffff;"/>
  </g>
  <g id="axes_1">
   <g id="patch_2">
    <path d="M 57.6 306.3024 
L 414.72 306.3024 
L 414.72 41.2992 
L 57.6 41.2992 
z
" style="fill:#ffffff;"/>
   </g>
   <g id="matplotlib.axis_1">
    <g id="xtick_1">
     <g id="line2d_1">
      <defs>
       <path d="M 0 0 
L 0 3.5 
" id="mc629dcc3fa" style="stroke:#000000;stroke-width:0.8;"/>
      </defs>
      <g>
       <use style="stroke:#000000;stroke-width:0.8;" x="73.832727" xlink:href="#mc629dcc3fa" y="306.3024"/>
      </g>
     </g>
     <g id="text_1">
      <!-- 0 -->
      <defs>
       <path d="M 31.78125 66.40625 
Q 24.171875 66.40625 20.328125 58.90625 
Q 16.5 51.421875 16.5 36.375 
Q 16.5 21.390625 20.328125 13.890625 
Q 24.171875 6.390625 31.78125 6.390625 
Q 39.453125 6.390625 43.28125 13.890625 
Q 47.125 21.390625 47.125 36.375 
Q 47.125 51.421875 43.28125 58.90625 
Q 39.453125 66.40625 31.78125 66.40625 
z
M 31.78125 74.21875 
Q 44.046875 74.21875 50.515625 64.515625 
Q 56.984375 54.828125 56.984375 36.375 
Q 56.984375 17.96875 50.515625 8.265625 
Q 44.046875 -1.421875 31.78125 -1.421875 
Q 19.53125 -1.421875 13.0625 8.265625 
Q 6.59375 17.96875 6.59375 36.375 
Q 6.59375 54.828125 13.0625 64.515625 
Q 19.53125 74.21875 31.78125 74.21875 
z
" id="DejaVuSans-48"/>
      </defs>
      <g transform="translate(70.651477 320.900838)scale(0.1 -0.1)">
       <use xlink:href="#DejaVuSans-48"/>
      </g>
     </g>
    </g>
    <g id="xtick_2">
     <g id="line2d_2">
      <g>
       <use style="stroke:#000000;stroke-width:0.8;" x="117.154658" xlink:href="#mc629dcc3fa" y="306.3024"/>
      </g>
     </g>
     <g id="text_2">
      <!-- 5000 -->
      <defs>
       <path d="M 10.796875 72.90625 
L 49.515625 72.90625 
L 49.515625 64.59375 
L 19.828125 64.59375 
L 19.828125 46.734375 
Q 21.96875 47.46875 24.109375 47.828125 
Q 26.265625 48.1875 28.421875 48.1875 
Q 40.625 48.1875 47.75 41.5 
Q 54.890625 34.8125 54.890625 23.390625 
Q 54.890625 11.625 47.5625 5.09375 
Q 40.234375 -1.421875 26.90625 -1.421875 
Q 22.3125 -1.421875 17.546875 -0.640625 
Q 12.796875 0.140625 7.71875 1.703125 
L 7.71875 11.625 
Q 12.109375 9.234375 16.796875 8.0625 
Q 21.484375 6.890625 26.703125 6.890625 
Q 35.15625 6.890625 40.078125 11.328125 
Q 45.015625 15.765625 45.015625 23.390625 
Q 45.015625 31 40.078125 35.4375 
Q 35.15625 39.890625 26.703125 39.890625 
Q 22.75 39.890625 18.8125 39.015625 
Q 14.890625 38.140625 10.796875 36.28125 
z
" id="DejaVuSans-53"/>
      </defs>
      <g transform="translate(104.429658 320.900838)scale(0.1 -0.1)">
       <use xlink:href="#DejaVuSans-53"/>
       <use x="63.623047" xlink:href="#DejaVuSans-48"/>
       <use x="127.246094" xlink:href="#DejaVuSans-48"/>
       <use x="190.869141" xlink:href="#DejaVuSans-48"/>
      </g>
     </g>
    </g>
    <g id="xtick_3">
     <g id="line2d_3">
      <g>
       <use style="stroke:#000000;stroke-width:0.8;" x="160.476588" xlink:href="#mc629dcc3fa" y="306.3024"/>
      </g>
     </g>
     <g id="text_3">
      <!-- 10000 -->
      <defs>
       <path d="M 12.40625 8.296875 
L 28.515625 8.296875 
L 28.515625 63.921875 
L 10.984375 60.40625 
L 10.984375 69.390625 
L 28.421875 72.90625 
L 38.28125 72.90625 
L 38.28125 8.296875 
L 54.390625 8.296875 
L 54.390625 0 
L 12.40625 0 
z
" id="DejaVuSans-49"/>
      </defs>
      <g transform="translate(144.570338 320.900838)scale(0.1 -0.1)">
       <use xlink:href="#DejaVuSans-49"/>
       <use x="63.623047" xlink:href="#DejaVuSans-48"/>
       <use x="127.246094" xlink:href="#DejaVuSans-48"/>
       <use x="190.869141" xlink:href="#DejaVuSans-48"/>
       <use x="254.492188" xlink:href="#DejaVuSans-48"/>
      </g>
     </g>
    </g>
    <g id="xtick_4">
     <g id="line2d_4">
      <g>
       <use style="stroke:#000000;stroke-width:0.8;" x="203.798518" xlink:href="#mc629dcc3fa" y="306.3024"/>
      </g>
     </g>
     <g id="text_4">
      <!-- 15000 -->
      <g transform="translate(187.892268 320.900838)scale(0.1 -0.1)">
       <use xlink:href="#DejaVuSans-49"/>
       <use x="63.623047" xlink:href="#DejaVuSans-53"/>
       <use x="127.246094" xlink:href="#DejaVuSans-48"/>
       <use x="190.869141" xlink:href="#DejaVuSans-48"/>
       <use x="254.492188" xlink:href="#DejaVuSans-48"/>
      </g>
     </g>
    </g>
    <g id="xtick_5">
     <g id="line2d_5">
      <g>
       <use style="stroke:#000000;stroke-width:0.8;" x="247.120448" xlink:href="#mc629dcc3fa" y="306.3024"/>
      </g>
     </g>
     <g id="text_5">
      <!-- 20000 -->
      <defs>
       <path d="M 19.1875 8.296875 
L 53.609375 8.296875 
L 53.609375 0 
L 7.328125 0 
L 7.328125 8.296875 
Q 12.9375 14.109375 22.625 23.890625 
Q 32.328125 33.6875 34.8125 36.53125 
Q 39.546875 41.84375 41.421875 45.53125 
Q 43.3125 49.21875 43.3125 52.78125 
Q 43.3125 58.59375 39.234375 62.25 
Q 35.15625 65.921875 28.609375 65.921875 
Q 23.96875 65.921875 18.8125 64.3125 
Q 13.671875 62.703125 7.8125 59.421875 
L 7.8125 69.390625 
Q 13.765625 71.78125 18.9375 73 
Q 24.125 74.21875 28.421875 74.21875 
Q 39.75 74.21875 46.484375 68.546875 
Q 53.21875 62.890625 53.21875 53.421875 
Q 53.21875 48.921875 51.53125 44.890625 
Q 49.859375 40.875 45.40625 35.40625 
Q 44.1875 33.984375 37.640625 27.21875 
Q 31.109375 20.453125 19.1875 8.296875 
z
" id="DejaVuSans-50"/>
      </defs>
      <g transform="translate(231.214198 320.900838)scale(0.1 -0.1)">
       <use xlink:href="#DejaVuSans-50"/>
       <use x="63.623047" xlink:href="#DejaVuSans-48"/>
       <use x="127.246094" xlink:href="#DejaVuSans-48"/>
       <use x="190.869141" xlink:href="#DejaVuSans-48"/>
       <use x="254.492188" xlink:href="#DejaVuSans-48"/>
      </g>
     </g>
    </g>
    <g id="xtick_6">
     <g id="line2d_6">
      <g>
       <use style="stroke:#000000;stroke-width:0.8;" x="290.442379" xlink:href="#mc629dcc3fa" y="306.3024"/>
      </g>
     </g>
     <g id="text_6">
      <!-- 25000 -->
      <g transform="translate(274.536129 320.900838)scale(0.1 -0.1)">
       <use xlink:href="#DejaVuSans-50"/>
       <use x="63.623047" xlink:href="#DejaVuSans-53"/>
       <use x="127.246094" xlink:href="#DejaVuSans-48"/>
       <use x="190.869141" xlink:href="#DejaVuSans-48"/>
       <use x="254.492188" xlink:href="#DejaVuSans-48"/>
      </g>
     </g>
    </g>
    <g id="xtick_7">
     <g id="line2d_7">
      <g>
       <use style="stroke:#000000;stroke-width:0.8;" x="333.764309" xlink:href="#mc629dcc3fa" y="306.3024"/>
      </g>
     </g>
     <g id="text_7">
      <!-- 30000 -->
      <defs>
       <path d="M 40.578125 39.3125 
Q 47.65625 37.796875 51.625 33 
Q 55.609375 28.21875 55.609375 21.1875 
Q 55.609375 10.40625 48.1875 4.484375 
Q 40.765625 -1.421875 27.09375 -1.421875 
Q 22.515625 -1.421875 17.65625 -0.515625 
Q 12.796875 0.390625 7.625 2.203125 
L 7.625 11.71875 
Q 11.71875 9.328125 16.59375 8.109375 
Q 21.484375 6.890625 26.8125 6.890625 
Q 36.078125 6.890625 40.9375 10.546875 
Q 45.796875 14.203125 45.796875 21.1875 
Q 45.796875 27.640625 41.28125 31.265625 
Q 36.765625 34.90625 28.71875 34.90625 
L 20.21875 34.90625 
L 20.21875 43.015625 
L 29.109375 43.015625 
Q 36.375 43.015625 40.234375 45.921875 
Q 44.09375 48.828125 44.09375 54.296875 
Q 44.09375 59.90625 40.109375 62.90625 
Q 36.140625 65.921875 28.71875 65.921875 
Q 24.65625 65.921875 20.015625 65.03125 
Q 15.375 64.15625 9.8125 62.3125 
L 9.8125 71.09375 
Q 15.4375 72.65625 20.34375 73.4375 
Q 25.25 74.21875 29.59375 74.21875 
Q 40.828125 74.21875 47.359375 69.109375 
Q 53.90625 64.015625 53.90625 55.328125 
Q 53.90625 49.265625 50.4375 45.09375 
Q 46.96875 40.921875 40.578125 39.3125 
z
" id="DejaVuSans-51"/>
      </defs>
      <g transform="translate(317.858059 320.900838)scale(0.1 -0.1)">
       <use xlink:href="#DejaVuSans-51"/>
       <use x="63.623047" xlink:href="#DejaVuSans-48"/>
       <use x="127.246094" xlink:href="#DejaVuSans-48"/>
       <use x="190.869141" xlink:href="#DejaVuSans-48"/>
       <use x="254.492188" xlink:href="#DejaVuSans-48"/>
      </g>
     </g>
    </g>
    <g id="xtick_8">
     <g id="line2d_8">
      <g>
       <use style="stroke:#000000;stroke-width:0.8;" x="377.086239" xlink:href="#mc629dcc3fa" y="306.3024"/>
      </g>
     </g>
     <g id="text_8">
      <!-- 35000 -->
      <g transform="translate(361.179989 320.900838)scale(0.1 -0.1)">
       <use xlink:href="#DejaVuSans-51"/>
       <use x="63.623047" xlink:href="#DejaVuSans-53"/>
       <use x="127.246094" xlink:href="#DejaVuSans-48"/>
       <use x="190.869141" xlink:href="#DejaVuSans-48"/>
       <use x="254.492188" xlink:href="#DejaVuSans-48"/>
      </g>
     </g>
    </g>
    <g id="text_9">
     <!-- Muestras -->
     <defs>
      <path d="M 9.8125 72.90625 
L 24.515625 72.90625 
L 43.109375 23.296875 
L 61.8125 72.90625 
L 76.515625 72.90625 
L 76.515625 0 
L 66.890625 0 
L 66.890625 64.015625 
L 48.09375 14.015625 
L 38.1875 14.015625 
L 19.390625 64.015625 
L 19.390625 0 
L 9.8125 0 
z
" id="DejaVuSans-77"/>
      <path d="M 8.5 21.578125 
L 8.5 54.6875 
L 17.484375 54.6875 
L 17.484375 21.921875 
Q 17.484375 14.15625 20.5 10.265625 
Q 23.53125 6.390625 29.59375 6.390625 
Q 36.859375 6.390625 41.078125 11.03125 
Q 45.3125 15.671875 45.3125 23.6875 
L 45.3125 54.6875 
L 54.296875 54.6875 
L 54.296875 0 
L 45.3125 0 
L 45.3125 8.40625 
Q 42.046875 3.421875 37.71875 1 
Q 33.40625 -1.421875 27.6875 -1.421875 
Q 18.265625 -1.421875 13.375 4.4375 
Q 8.5 10.296875 8.5 21.578125 
z
M 31.109375 56 
z
" id="DejaVuSans-117"/>
      <path d="M 56.203125 29.59375 
L 56.203125 25.203125 
L 14.890625 25.203125 
Q 15.484375 15.921875 20.484375 11.0625 
Q 25.484375 6.203125 34.421875 6.203125 
Q 39.59375 6.203125 44.453125 7.46875 
Q 49.3125 8.734375 54.109375 11.28125 
L 54.109375 2.78125 
Q 49.265625 0.734375 44.1875 -0.34375 
Q 39.109375 -1.421875 33.890625 -1.421875 
Q 20.796875 -1.421875 13.15625 6.1875 
Q 5.515625 13.8125 5.515625 26.8125 
Q 5.515625 40.234375 12.765625 48.109375 
Q 20.015625 56 32.328125 56 
Q 43.359375 56 49.78125 48.890625 
Q 56.203125 41.796875 56.203125 29.59375 
z
M 47.21875 32.234375 
Q 47.125 39.59375 43.09375 43.984375 
Q 39.0625 48.390625 32.421875 48.390625 
Q 24.90625 48.390625 20.390625 44.140625 
Q 15.875 39.890625 15.1875 32.171875 
z
" id="DejaVuSans-101"/>
      <path d="M 44.28125 53.078125 
L 44.28125 44.578125 
Q 40.484375 46.53125 36.375 47.5 
Q 32.28125 48.484375 27.875 48.484375 
Q 21.1875 48.484375 17.84375 46.4375 
Q 14.5 44.390625 14.5 40.28125 
Q 14.5 37.15625 16.890625 35.375 
Q 19.28125 33.59375 26.515625 31.984375 
L 29.59375 31.296875 
Q 39.15625 29.25 43.1875 25.515625 
Q 47.21875 21.78125 47.21875 15.09375 
Q 47.21875 7.46875 41.1875 3.015625 
Q 35.15625 -1.421875 24.609375 -1.421875 
Q 20.21875 -1.421875 15.453125 -0.5625 
Q 10.6875 0.296875 5.421875 2 
L 5.421875 11.28125 
Q 10.40625 8.6875 15.234375 7.390625 
Q 20.0625 6.109375 24.8125 6.109375 
Q 31.15625 6.109375 34.5625 8.28125 
Q 37.984375 10.453125 37.984375 14.40625 
Q 37.984375 18.0625 35.515625 20.015625 
Q 33.0625 21.96875 24.703125 23.78125 
L 21.578125 24.515625 
Q 13.234375 26.265625 9.515625 29.90625 
Q 5.8125 33.546875 5.8125 39.890625 
Q 5.8125 47.609375 11.28125 51.796875 
Q 16.75 56 26.8125 56 
Q 31.78125 56 36.171875 55.265625 
Q 40.578125 54.546875 44.28125 53.078125 
z
" id="DejaVuSans-115"/>
      <path d="M 18.3125 70.21875 
L 18.3125 54.6875 
L 36.8125 54.6875 
L 36.8125 47.703125 
L 18.3125 47.703125 
L 18.3125 18.015625 
Q 18.3125 11.328125 20.140625 9.421875 
Q 21.96875 7.515625 27.59375 7.515625 
L 36.8125 7.515625 
L 36.8125 0 
L 27.59375 0 
Q 17.1875 0 13.234375 3.875 
Q 9.28125 7.765625 9.28125 18.015625 
L 9.28125 47.703125 
L 2.6875 47.703125 
L 2.6875 54.6875 
L 9.28125 54.6875 
L 9.28125 70.21875 
z
" id="DejaVuSans-116"/>
      <path d="M 41.109375 46.296875 
Q 39.59375 47.171875 37.8125 47.578125 
Q 36.03125 48 33.890625 48 
Q 26.265625 48 22.1875 43.046875 
Q 18.109375 38.09375 18.109375 28.8125 
L 18.109375 0 
L 9.078125 0 
L 9.078125 54.6875 
L 18.109375 54.6875 
L 18.109375 46.1875 
Q 20.953125 51.171875 25.484375 53.578125 
Q 30.03125 56 36.53125 56 
Q 37.453125 56 38.578125 55.875 
Q 39.703125 55.765625 41.0625 55.515625 
z
" id="DejaVuSans-114"/>
      <path d="M 34.28125 27.484375 
Q 23.390625 27.484375 19.1875 25 
Q 14.984375 22.515625 14.984375 16.5 
Q 14.984375 11.71875 18.140625 8.90625 
Q 21.296875 6.109375 26.703125 6.109375 
Q 34.1875 6.109375 38.703125 11.40625 
Q 43.21875 16.703125 43.21875 25.484375 
L 43.21875 27.484375 
z
M 52.203125 31.203125 
L 52.203125 0 
L 43.21875 0 
L 43.21875 8.296875 
Q 40.140625 3.328125 35.546875 0.953125 
Q 30.953125 -1.421875 24.3125 -1.421875 
Q 15.921875 -1.421875 10.953125 3.296875 
Q 6 8.015625 6 15.921875 
Q 6 25.140625 12.171875 29.828125 
Q 18.359375 34.515625 30.609375 34.515625 
L 43.21875 34.515625 
L 43.21875 35.40625 
Q 43.21875 41.609375 39.140625 45 
Q 35.0625 48.390625 27.6875 48.390625 
Q 23 48.390625 18.546875 47.265625 
Q 14.109375 46.140625 10.015625 43.890625 
L 10.015625 52.203125 
Q 14.9375 54.109375 19.578125 55.046875 
Q 24.21875 56 28.609375 56 
Q 40.484375 56 46.34375 49.84375 
Q 52.203125 43.703125 52.203125 31.203125 
z
" id="DejaVuSans-97"/>
     </defs>
     <g transform="translate(213.311562 334.578963)scale(0.1 -0.1)">
      <use xlink:href="#DejaVuSans-77"/>
      <use x="86.279297" xlink:href="#DejaVuSans-117"/>
      <use x="149.658203" xlink:href="#DejaVuSans-101"/>
      <use x="211.181641" xlink:href="#DejaVuSans-115"/>
      <use x="263.28125" xlink:href="#DejaVuSans-116"/>
      <use x="302.490234" xlink:href="#DejaVuSans-114"/>
      <use x="343.603516" xlink:href="#DejaVuSans-97"/>
      <use x="404.882812" xlink:href="#DejaVuSans-115"/>
     </g>
    </g>
   </g>
   <g id="matplotlib.axis_2">
    <g id="ytick_1">
     <g id="line2d_9">
      <defs>
       <path d="M 0 0 
L -3.5 0 
" id="ma1d68b8ef2" style="stroke:#000000;stroke-width:0.8;"/>
      </defs>
      <g>
       <use style="stroke:#000000;stroke-width:0.8;" x="57.6" xlink:href="#ma1d68b8ef2" y="280.453748"/>
      </g>
     </g>
     <g id="text_10">
      <!-- 60 -->
      <defs>
       <path d="M 33.015625 40.375 
Q 26.375 40.375 22.484375 35.828125 
Q 18.609375 31.296875 18.609375 23.390625 
Q 18.609375 15.53125 22.484375 10.953125 
Q 26.375 6.390625 33.015625 6.390625 
Q 39.65625 6.390625 43.53125 10.953125 
Q 47.40625 15.53125 47.40625 23.390625 
Q 47.40625 31.296875 43.53125 35.828125 
Q 39.65625 40.375 33.015625 40.375 
z
M 52.59375 71.296875 
L 52.59375 62.3125 
Q 48.875 64.0625 45.09375 64.984375 
Q 41.3125 65.921875 37.59375 65.921875 
Q 27.828125 65.921875 22.671875 59.328125 
Q 17.53125 52.734375 16.796875 39.40625 
Q 19.671875 43.65625 24.015625 45.921875 
Q 28.375 48.1875 33.59375 48.1875 
Q 44.578125 48.1875 50.953125 41.515625 
Q 57.328125 34.859375 57.328125 23.390625 
Q 57.328125 12.15625 50.6875 5.359375 
Q 44.046875 -1.421875 33.015625 -1.421875 
Q 20.359375 -1.421875 13.671875 8.265625 
Q 6.984375 17.96875 6.984375 36.375 
Q 6.984375 53.65625 15.1875 63.9375 
Q 23.390625 74.21875 37.203125 74.21875 
Q 40.921875 74.21875 44.703125 73.484375 
Q 48.484375 72.75 52.59375 71.296875 
z
" id="DejaVuSans-54"/>
      </defs>
      <g transform="translate(37.875 284.252967)scale(0.1 -0.1)">
       <use xlink:href="#DejaVuSans-54"/>
       <use x="63.623047" xlink:href="#DejaVuSans-48"/>
      </g>
     </g>
    </g>
    <g id="ytick_2">
     <g id="line2d_10">
      <g>
       <use style="stroke:#000000;stroke-width:0.8;" x="57.6" xlink:href="#ma1d68b8ef2" y="229.141288"/>
      </g>
     </g>
     <g id="text_11">
      <!-- 80 -->
      <defs>
       <path d="M 31.78125 34.625 
Q 24.75 34.625 20.71875 30.859375 
Q 16.703125 27.09375 16.703125 20.515625 
Q 16.703125 13.921875 20.71875 10.15625 
Q 24.75 6.390625 31.78125 6.390625 
Q 38.8125 6.390625 42.859375 10.171875 
Q 46.921875 13.96875 46.921875 20.515625 
Q 46.921875 27.09375 42.890625 30.859375 
Q 38.875 34.625 31.78125 34.625 
z
M 21.921875 38.8125 
Q 15.578125 40.375 12.03125 44.71875 
Q 8.5 49.078125 8.5 55.328125 
Q 8.5 64.0625 14.71875 69.140625 
Q 20.953125 74.21875 31.78125 74.21875 
Q 42.671875 74.21875 48.875 69.140625 
Q 55.078125 64.0625 55.078125 55.328125 
Q 55.078125 49.078125 51.53125 44.71875 
Q 48 40.375 41.703125 38.8125 
Q 48.828125 37.15625 52.796875 32.3125 
Q 56.78125 27.484375 56.78125 20.515625 
Q 56.78125 9.90625 50.3125 4.234375 
Q 43.84375 -1.421875 31.78125 -1.421875 
Q 19.734375 -1.421875 13.25 4.234375 
Q 6.78125 9.90625 6.78125 20.515625 
Q 6.78125 27.484375 10.78125 32.3125 
Q 14.796875 37.15625 21.921875 38.8125 
z
M 18.3125 54.390625 
Q 18.3125 48.734375 21.84375 45.5625 
Q 25.390625 42.390625 31.78125 42.390625 
Q 38.140625 42.390625 41.71875 45.5625 
Q 45.3125 48.734375 45.3125 54.390625 
Q 45.3125 60.0625 41.71875 63.234375 
Q 38.140625 66.40625 31.78125 66.40625 
Q 25.390625 66.40625 21.84375 63.234375 
Q 18.3125 60.0625 18.3125 54.390625 
z
" id="DejaVuSans-56"/>
      </defs>
      <g transform="translate(37.875 232.940507)scale(0.1 -0.1)">
       <use xlink:href="#DejaVuSans-56"/>
       <use x="63.623047" xlink:href="#DejaVuSans-48"/>
      </g>
     </g>
    </g>
    <g id="ytick_3">
     <g id="line2d_11">
      <g>
       <use style="stroke:#000000;stroke-width:0.8;" x="57.6" xlink:href="#ma1d68b8ef2" y="177.828828"/>
      </g>
     </g>
     <g id="text_12">
      <!-- 100 -->
      <g transform="translate(31.5125 181.628047)scale(0.1 -0.1)">
       <use xlink:href="#DejaVuSans-49"/>
       <use x="63.623047" xlink:href="#DejaVuSans-48"/>
       <use x="127.246094" xlink:href="#DejaVuSans-48"/>
      </g>
     </g>
    </g>
    <g id="ytick_4">
     <g id="line2d_12">
      <g>
       <use style="stroke:#000000;stroke-width:0.8;" x="57.6" xlink:href="#ma1d68b8ef2" y="126.516368"/>
      </g>
     </g>
     <g id="text_13">
      <!-- 120 -->
      <g transform="translate(31.5125 130.315587)scale(0.1 -0.1)">
       <use xlink:href="#DejaVuSans-49"/>
       <use x="63.623047" xlink:href="#DejaVuSans-50"/>
       <use x="127.246094" xlink:href="#DejaVuSans-48"/>
      </g>
     </g>
    </g>
    <g id="ytick_5">
     <g id="line2d_13">
      <g>
       <use style="stroke:#000000;stroke-width:0.8;" x="57.6" xlink:href="#ma1d68b8ef2" y="75.203908"/>
      </g>
     </g>
     <g id="text_14">
      <!-- 140 -->
      <defs>
       <path d="M 37.796875 64.3125 
L 12.890625 25.390625 
L 37.796875 25.390625 
z
M 35.203125 72.90625 
L 47.609375 72.90625 
L 47.609375 25.390625 
L 58.015625 25.390625 
L 58.015625 17.1875 
L 47.609375 17.1875 
L 47.609375 0 
L 37.796875 0 
L 37.796875 17.1875 
L 4.890625 17.1875 
L 4.890625 26.703125 
z
" id="DejaVuSans-52"/>
      </defs>
      <g transform="translate(31.5125 79.003127)scale(0.1 -0.1)">
       <use xlink:href="#DejaVuSans-49"/>
       <use x="63.623047" xlink:href="#DejaVuSans-52"/>
       <use x="127.246094" xlink:href="#DejaVuSans-48"/>
      </g>
     </g>
    </g>
    <g id="text_15">
     <!-- Valor de Ritmo Cardíaco -->
     <defs>
      <path d="M 28.609375 0 
L 0.78125 72.90625 
L 11.078125 72.90625 
L 34.1875 11.53125 
L 57.328125 72.90625 
L 67.578125 72.90625 
L 39.796875 0 
z
" id="DejaVuSans-86"/>
      <path d="M 9.421875 75.984375 
L 18.40625 75.984375 
L 18.40625 0 
L 9.421875 0 
z
" id="DejaVuSans-108"/>
      <path d="M 30.609375 48.390625 
Q 23.390625 48.390625 19.1875 42.75 
Q 14.984375 37.109375 14.984375 27.296875 
Q 14.984375 17.484375 19.15625 11.84375 
Q 23.34375 6.203125 30.609375 6.203125 
Q 37.796875 6.203125 41.984375 11.859375 
Q 46.1875 17.53125 46.1875 27.296875 
Q 46.1875 37.015625 41.984375 42.703125 
Q 37.796875 48.390625 30.609375 48.390625 
z
M 30.609375 56 
Q 42.328125 56 49.015625 48.375 
Q 55.71875 40.765625 55.71875 27.296875 
Q 55.71875 13.875 49.015625 6.21875 
Q 42.328125 -1.421875 30.609375 -1.421875 
Q 18.84375 -1.421875 12.171875 6.21875 
Q 5.515625 13.875 5.515625 27.296875 
Q 5.515625 40.765625 12.171875 48.375 
Q 18.84375 56 30.609375 56 
z
" id="DejaVuSans-111"/>
      <path id="DejaVuSans-32"/>
      <path d="M 45.40625 46.390625 
L 45.40625 75.984375 
L 54.390625 75.984375 
L 54.390625 0 
L 45.40625 0 
L 45.40625 8.203125 
Q 42.578125 3.328125 38.25 0.953125 
Q 33.9375 -1.421875 27.875 -1.421875 
Q 17.96875 -1.421875 11.734375 6.484375 
Q 5.515625 14.40625 5.515625 27.296875 
Q 5.515625 40.1875 11.734375 48.09375 
Q 17.96875 56 27.875 56 
Q 33.9375 56 38.25 53.625 
Q 42.578125 51.265625 45.40625 46.390625 
z
M 14.796875 27.296875 
Q 14.796875 17.390625 18.875 11.75 
Q 22.953125 6.109375 30.078125 6.109375 
Q 37.203125 6.109375 41.296875 11.75 
Q 45.40625 17.390625 45.40625 27.296875 
Q 45.40625 37.203125 41.296875 42.84375 
Q 37.203125 48.484375 30.078125 48.484375 
Q 22.953125 48.484375 18.875 42.84375 
Q 14.796875 37.203125 14.796875 27.296875 
z
" id="DejaVuSans-100"/>
      <path d="M 44.390625 34.1875 
Q 47.5625 33.109375 50.5625 29.59375 
Q 53.5625 26.078125 56.59375 19.921875 
L 66.609375 0 
L 56 0 
L 46.6875 18.703125 
Q 43.0625 26.03125 39.671875 28.421875 
Q 36.28125 30.8125 30.421875 30.8125 
L 19.671875 30.8125 
L 19.671875 0 
L 9.8125 0 
L 9.8125 72.90625 
L 32.078125 72.90625 
Q 44.578125 72.90625 50.734375 67.671875 
Q 56.890625 62.453125 56.890625 51.90625 
Q 56.890625 45.015625 53.6875 40.46875 
Q 50.484375 35.9375 44.390625 34.1875 
z
M 19.671875 64.796875 
L 19.671875 38.921875 
L 32.078125 38.921875 
Q 39.203125 38.921875 42.84375 42.21875 
Q 46.484375 45.515625 46.484375 51.90625 
Q 46.484375 58.296875 42.84375 61.546875 
Q 39.203125 64.796875 32.078125 64.796875 
z
" id="DejaVuSans-82"/>
      <path d="M 9.421875 54.6875 
L 18.40625 54.6875 
L 18.40625 0 
L 9.421875 0 
z
M 9.421875 75.984375 
L 18.40625 75.984375 
L 18.40625 64.59375 
L 9.421875 64.59375 
z
" id="DejaVuSans-105"/>
      <path d="M 52 44.1875 
Q 55.375 50.25 60.0625 53.125 
Q 64.75 56 71.09375 56 
Q 79.640625 56 84.28125 50.015625 
Q 88.921875 44.046875 88.921875 33.015625 
L 88.921875 0 
L 79.890625 0 
L 79.890625 32.71875 
Q 79.890625 40.578125 77.09375 44.375 
Q 74.3125 48.1875 68.609375 48.1875 
Q 61.625 48.1875 57.5625 43.546875 
Q 53.515625 38.921875 53.515625 30.90625 
L 53.515625 0 
L 44.484375 0 
L 44.484375 32.71875 
Q 44.484375 40.625 41.703125 44.40625 
Q 38.921875 48.1875 33.109375 48.1875 
Q 26.21875 48.1875 22.15625 43.53125 
Q 18.109375 38.875 18.109375 30.90625 
L 18.109375 0 
L 9.078125 0 
L 9.078125 54.6875 
L 18.109375 54.6875 
L 18.109375 46.1875 
Q 21.1875 51.21875 25.484375 53.609375 
Q 29.78125 56 35.6875 56 
Q 41.65625 56 45.828125 52.96875 
Q 50 49.953125 52 44.1875 
z
" id="DejaVuSans-109"/>
      <path d="M 64.40625 67.28125 
L 64.40625 56.890625 
Q 59.421875 61.53125 53.78125 63.8125 
Q 48.140625 66.109375 41.796875 66.109375 
Q 29.296875 66.109375 22.65625 58.46875 
Q 16.015625 50.828125 16.015625 36.375 
Q 16.015625 21.96875 22.65625 14.328125 
Q 29.296875 6.6875 41.796875 6.6875 
Q 48.140625 6.6875 53.78125 8.984375 
Q 59.421875 11.28125 64.40625 15.921875 
L 64.40625 5.609375 
Q 59.234375 2.09375 53.4375 0.328125 
Q 47.65625 -1.421875 41.21875 -1.421875 
Q 24.65625 -1.421875 15.125 8.703125 
Q 5.609375 18.84375 5.609375 36.375 
Q 5.609375 53.953125 15.125 64.078125 
Q 24.65625 74.21875 41.21875 74.21875 
Q 47.75 74.21875 53.53125 72.484375 
Q 59.328125 70.75 64.40625 67.28125 
z
" id="DejaVuSans-67"/>
      <path d="M 20.703125 79.984375 
L 30.421875 79.984375 
L 14.5 61.625 
L 7.03125 61.625 
z
M 9.421875 54.6875 
L 18.40625 54.6875 
L 18.40625 0 
L 9.421875 0 
z
M 13.921875 56 
z
" id="DejaVuSans-237"/>
      <path d="M 48.78125 52.59375 
L 48.78125 44.1875 
Q 44.96875 46.296875 41.140625 47.34375 
Q 37.3125 48.390625 33.40625 48.390625 
Q 24.65625 48.390625 19.8125 42.84375 
Q 14.984375 37.3125 14.984375 27.296875 
Q 14.984375 17.28125 19.8125 11.734375 
Q 24.65625 6.203125 33.40625 6.203125 
Q 37.3125 6.203125 41.140625 7.25 
Q 44.96875 8.296875 48.78125 10.40625 
L 48.78125 2.09375 
Q 45.015625 0.34375 40.984375 -0.53125 
Q 36.96875 -1.421875 32.421875 -1.421875 
Q 20.0625 -1.421875 12.78125 6.34375 
Q 5.515625 14.109375 5.515625 27.296875 
Q 5.515625 40.671875 12.859375 48.328125 
Q 20.21875 56 33.015625 56 
Q 37.15625 56 41.109375 55.140625 
Q 45.0625 54.296875 48.78125 52.59375 
z
" id="DejaVuSans-99"/>
     </defs>
     <g transform="translate(25.432812 234.6008)rotate(-90)scale(0.1 -0.1)">
      <use xlink:href="#DejaVuSans-86"/>
      <use x="68.298828" xlink:href="#DejaVuSans-97"/>
      <use x="129.578125" xlink:href="#DejaVuSans-108"/>
      <use x="157.361328" xlink:href="#DejaVuSans-111"/>
      <use x="218.542969" xlink:href="#DejaVuSans-114"/>
      <use x="259.65625" xlink:href="#DejaVuSans-32"/>
      <use x="291.443359" xlink:href="#DejaVuSans-100"/>
      <use x="354.919922" xlink:href="#DejaVuSans-101"/>
      <use x="416.443359" xlink:href="#DejaVuSans-32"/>
      <use x="448.230469" xlink:href="#DejaVuSans-82"/>
      <use x="517.712891" xlink:href="#DejaVuSans-105"/>
      <use x="545.496094" xlink:href="#DejaVuSans-116"/>
      <use x="584.705078" xlink:href="#DejaVuSans-109"/>
      <use x="682.117188" xlink:href="#DejaVuSans-111"/>
      <use x="743.298828" xlink:href="#DejaVuSans-32"/>
      <use x="775.085938" xlink:href="#DejaVuSans-67"/>
      <use x="844.910156" xlink:href="#DejaVuSans-97"/>
      <use x="906.189453" xlink:href="#DejaVuSans-114"/>
      <use x="947.287109" xlink:href="#DejaVuSans-100"/>
      <use x="1010.763672" xlink:href="#DejaVuSans-237"/>
      <use x="1038.546875" xlink:href="#DejaVuSans-97"/>
      <use x="1099.826172" xlink:href="#DejaVuSans-99"/>
      <use x="1154.806641" xlink:href="#DejaVuSans-111"/>
     </g>
    </g>
   </g>
   <g id="line2d_14">
    <path clip-path="url(#pc57bdadf2d)" d="M 73.832727 271.910224 
L 73.841392 176.546017 
L 73.945364 220.956951 
L 73.962693 221.162201 
L 74.006015 220.777357 
L 74.07533 228.397258 
L 74.283275 237.171688 
L 74.387248 242.918684 
L 74.343926 235.940189 
L 74.508549 240.609623 
L 74.534543 239.993873 
L 74.70783 226.703946 
L 74.959097 207.205212 
L 74.993755 207.667024 
L 75.097728 210.360928 
L 75.132385 208.924179 
L 75.184371 207.153899 
L 75.227693 209.180741 
L 75.331666 218.160422 
L 75.435639 216.13358 
L 75.55694 205.229682 
L 75.643584 200.714185 
L 75.686906 202.766684 
L 75.704235 203.356777 
L 75.747557 201.817403 
L 75.842865 195.865158 
L 75.981495 190.785224 
L 75.998824 190.47735 
L 76.068139 191.170068 
L 76.076803 191.118755 
L 76.154783 188.553132 
L 76.250091 179.034671 
L 76.501358 146.913071 
L 76.579338 140.678607 
L 76.631324 143.372511 
L 76.795947 163.410027 
L 77.272489 227.909789 
L 77.333139 225.241541 
L 77.376461 227.011821 
L 77.506427 231.758224 
L 77.541085 230.62935 
L 77.792352 224.831042 
L 77.827009 227.524946 
L 77.913653 232.656192 
L 77.965639 230.039256 
L 78.433516 213.234426 
L 78.546153 217.339422 
L 78.589475 216.903266 
L 78.59814 216.826298 
L 78.641462 217.262454 
L 78.650126 217.262454 
L 78.710777 218.44264 
L 78.8754 224.266604 
L 78.892729 223.496918 
L 78.901393 223.060762 
L 78.962044 223.881761 
L 78.996701 223.702167 
L 79.118003 227.858477 
L 79.169989 226.626978 
L 79.239304 225.857291 
L 79.273962 226.755259 
L 79.741839 244.663307 
L 79.776496 240.635279 
L 80.313688 144.80926 
L 80.660263 102.219918 
L 80.677592 102.014668 
L 80.703585 102.707387 
L 80.746907 102.271231 
L 80.807558 103.631011 
L 80.859544 102.399512 
L 80.972181 98.935921 
L 80.998175 100.91145 
L 81.292764 137.599859 
L 81.665332 196.609188 
L 81.673997 197.122313 
L 81.734647 194.171847 
L 81.925264 179.624764 
L 82.159202 154.302065 
L 82.19386 156.662438 
L 82.679065 194.428409 
L 82.748381 186.218415 
L 82.757045 184.627729 
L 82.82636 190.913505 
L 82.96499 200.970748 
L 82.999648 200.406311 
L 83.04297 199.636624 
L 83.077627 200.61156 
L 83.155607 207.846617 
L 83.67547 268.651882 
L 83.874751 280.530717 
L 83.909408 277.554594 
L 84.611224 218.032141 
L 84.637217 219.084046 
L 84.983792 233.75941 
L 85.070436 233.631128 
L 85.0791 233.579816 
L 85.096429 234.144253 
L 85.382354 245.509963 
L 85.425676 243.970589 
L 85.598964 239.968217 
L 85.902217 221.880575 
L 85.919546 222.983793 
L 86.526053 245.099463 
L 86.586704 246.587525 
L 86.708005 251.000396 
L 86.759991 250.102428 
L 86.785984 249.230116 
L 86.863964 250.384647 
L 86.941943 250.76949 
L 86.924615 250.128084 
L 86.950608 250.35899 
L 87.245197 230.937224 
L 87.323176 229.782694 
L 87.375163 229.910975 
L 87.418485 229.962288 
L 87.435813 229.269569 
L 87.470471 227.011821 
L 87.539786 229.141288 
L 87.704409 231.270755 
L 87.739067 232.681848 
L 88.232937 262.314794 
L 88.25893 262.032575 
L 88.293588 260.262295 
L 88.510197 244.021902 
L 88.553519 244.355433 
L 88.596841 244.329776 
L 88.666156 245.638244 
L 88.692149 246.510556 
L 88.744136 244.842901 
L 88.908759 239.40378 
L 88.934752 241.37931 
L 89.056054 251.92402 
L 89.125369 249.153148 
L 89.212013 242.225965 
L 89.445951 217.647297 
L 90.026465 102.733043 
L 90.381705 80.643029 
L 90.407698 79.642436 
L 90.442355 81.92584 
L 90.667629 91.93177 
L 90.684958 91.444302 
L 91.066191 73.228378 
L 91.118177 76.024907 
L 91.308794 88.724741 
L 91.334787 87.211024 
L 91.473417 83.080371 
L 91.490746 84.10662 
L 91.93263 121.513403 
L 92.582459 205.229682 
L 92.608452 205.409275 
L 92.634445 204.459995 
L 92.738418 202.535778 
L 92.764411 202.894965 
L 92.816397 204.331714 
L 92.868383 203.151527 
L 93.033007 192.068036 
L 93.128315 196.763126 
L 93.258281 204.203433 
L 93.301603 202.766684 
L 93.466226 199.174812 
L 93.492219 199.816217 
L 93.639514 203.536371 
L 93.674171 203.177183 
L 93.708829 203.562027 
L 93.760815 201.43256 
L 93.873452 199.841873 
L 93.890781 200.226717 
L 94.150713 210.797084 
L 94.445302 232.604879 
L 94.488624 231.57863 
L 94.748555 204.690901 
L 94.904514 187.065071 
L 94.939172 188.989288 
L 95.129788 199.585311 
L 95.537014 231.065505 
L 95.571672 228.833413 
L 95.94424 207.07693 
L 96.039549 203.356777 
L 96.065542 201.689122 
L 96.117528 205.280994 
L 96.221501 208.949835 
L 96.273487 208.308429 
L 96.481432 203.818589 
L 97.157255 167.694617 
L 97.22657 169.875397 
L 97.269892 169.875397 
L 97.42585 173.031113 
L 97.443179 173.005457 
L 97.469172 173.415957 
L 97.547152 176.340767 
L 97.607803 174.750081 
L 97.64246 174.031706 
L 97.677118 175.904611 
L 97.703111 176.469048 
L 97.746433 175.263205 
L 97.798419 168.849148 
L 98.248967 108.428726 
L 98.283625 108.120851 
L 98.292289 109.275381 
L 98.968111 186.090134 
L 99.011433 185.089541 
L 99.150063 173.082426 
L 99.236707 176.109861 
L 99.747906 228.679476 
L 99.851879 231.886505 
L 99.895201 231.527318 
L 99.912529 231.37338 
L 99.921194 231.014193 
L 99.97318 233.297597 
L 100.233112 241.122748 
L 100.259105 240.506998 
L 100.415064 228.961695 
L 100.926262 137.086735 
L 100.969584 138.266921 
L 101.463454 154.302065 
L 101.480783 154.430346 
L 101.524105 154.148128 
L 101.628078 149.91485 
L 101.697393 144.347448 
L 101.714722 149.350413 
L 101.914002 175.391486 
L 102.000646 175.98158 
L 102.043968 175.955923 
L 102.078626 175.134924 
L 102.104619 173.980394 
L 102.139277 176.084204 
L 102.217256 180.702326 
L 102.234585 175.57108 
L 102.451194 150.556256 
L 102.572496 149.735256 
L 102.598489 150.043131 
L 102.685133 155.584877 
L 102.893078 166.591399 
L 102.910407 165.693431 
L 103.031708 161.07531 
L 103.057701 162.64034 
L 103.127017 166.976243 
L 103.170338 163.153465 
L 103.317633 145.322385 
L 103.352291 147.477508 
L 103.456263 168.772179 
L 103.664208 201.381247 
L 103.716195 209.950428 
L 103.811503 219.05839 
L 103.863489 218.314359 
L 104.149414 203.305465 
L 104.175407 204.819182 
L 104.660613 243.714027 
L 104.677942 243.457465 
L 104.729928 238.634093 
L 104.903216 231.065505 
L 105.067839 229.013007 
L 105.102497 229.218257 
L 105.111161 228.44857 
L 105.492394 185.525697 
L 105.752325 150.504943 
L 105.786983 149.530006 
L 105.838969 151.223318 
L 106.133558 182.318668 
L 106.246196 180.394451 
L 106.39349 176.340767 
L 106.419483 176.674298 
L 106.6101 191.63188 
L 106.696744 188.29657 
L 106.74873 186.551946 
L 107.129963 151.967348 
L 107.16462 154.917815 
L 107.199278 155.76447 
L 107.225271 153.198847 
L 107.2426 151.787755 
L 107.294586 155.584877 
L 107.320579 157.611719 
L 107.389894 155.071752 
L 107.398559 154.81519 
L 107.433216 156.277595 
L 107.485203 161.152279 
L 107.545853 156.867688 
L 107.693148 148.118914 
L 107.719141 148.888601 
L 107.970408 170.952958 
L 108.022395 171.029927 
L 108.221676 179.573452 
L 108.290991 176.494704 
L 108.420956 168.336023 
L 108.481607 169.824084 
L 108.550922 172.133145 
L 108.620237 171.286489 
L 108.680888 170.337209 
L 108.776196 169.028741 
L 108.802189 170.003678 
L 108.888833 182.523918 
L 109.148765 215.492174 
L 109.304724 224.189636 
L 109.339381 223.060762 
L 109.443354 212.208176 
L 109.504005 218.930109 
L 109.98921 285.918525 
L 110.032532 283.09634 
L 110.058525 282.172716 
L 110.12784 283.712089 
L 110.136505 283.737746 
L 110.145169 283.455527 
L 110.214484 280.91556 
L 110.266471 282.634528 
L 110.283799 282.762809 
L 110.301128 282.044435 
L 110.491745 270.139944 
L 110.578389 273.526566 
L 110.69969 278.991343 
L 110.743012 277.939438 
L 111.262875 203.151527 
L 111.323526 204.56262 
L 111.349519 205.486244 
L 111.392841 202.664059 
L 111.566129 181.369388 
L 111.774074 164.051433 
L 111.869382 156.354564 
L 111.930033 159.535936 
L 112.111985 177.751859 
L 112.233286 194.633659 
L 112.415238 220.033327 
L 112.475889 216.13358 
L 112.761814 180.984544 
L 112.987088 143.962604 
L 113.073732 144.60401 
L 113.099725 144.424417 
L 113.134382 145.168447 
L 113.489622 157.816969 
L 113.558937 157.432125 
L 113.636917 158.278781 
L 113.671574 157.560406 
L 113.818869 151.454224 
L 113.870855 151.736442 
L 113.931506 152.63441 
L 114.347396 200.021467 
L 114.356061 199.944498 
L 114.451369 198.09725 
L 114.858595 146.99004 
L 114.988561 145.758541 
L 114.997225 145.886822 
L 115.248493 151.223318 
L 115.274486 150.941099 
L 115.456438 147.503164 
L 115.49976 148.375476 
L 115.517089 148.657695 
L 115.569075 147.862351 
L 115.577739 147.888008 
L 115.595068 147.682758 
L 115.647054 148.272851 
L 115.673048 148.529413 
L 115.716369 147.759727 
L 115.768356 146.220353 
L 115.855 147.092665 
L 116.184246 153.583691 
L 116.374863 155.456596 
L 116.418185 154.738221 
L 116.582808 152.557442 
L 116.591472 152.63441 
L 116.652123 152.993597 
L 116.678116 152.480473 
L 116.799418 150.197068 
L 116.84274 150.633224 
L 116.886062 151.27463 
L 116.964041 151.018068 
L 117.042021 147.169633 
L 117.102671 148.760319 
L 117.154658 149.863537 
L 117.310616 156.149314 
L 117.362603 155.636189 
L 117.388596 155.636189 
L 117.483904 158.253125 
L 117.544555 162.383778 
L 117.605206 160.382592 
L 117.804486 152.377848 
L 117.83048 153.25016 
L 118.220377 195.71122 
L 118.272363 197.071001 
L 118.350343 200.585904 
L 118.393665 197.584125 
L 119.112809 142.500199 
L 119.294761 155.200033 
L 119.797295 204.177776 
L 120.109213 231.78388 
L 120.178528 228.551195 
L 120.308494 204.973119 
L 120.707056 140.31942 
L 120.750378 141.910106 
L 121.044967 162.999527 
L 121.192261 168.926116 
L 121.200926 168.849148 
L 121.20959 168.849148 
L 121.304898 171.466083 
L 121.356885 170.208928 
L 121.530173 165.385557 
L 121.573494 162.101559 
L 121.64281 165.205963 
L 121.911405 176.853891 
L 121.963392 176.161173 
L 121.989385 175.442799 
L 122.526577 146.092072 
L 122.647878 147.682758 
L 122.717193 143.526449 
L 122.90781 138.497827 
L 122.916474 138.497827 
L 123.020447 142.551512 
L 123.055104 140.550326 
L 123.3237 123.232371 
L 123.358358 122.924496 
L 123.384351 123.899433 
L 123.626954 141.653544 
L 124.138153 169.362272 
L 124.198803 169.618835 
L 124.207468 169.567522 
L 124.632023 147.220946 
L 124.66668 148.709007 
L 124.787982 163.717902 
L 125.221201 223.163387 
L 125.333838 230.808943 
L 125.37716 227.396665 
L 125.940345 134.675049 
L 126.070311 137.420266 
L 126.182948 141.602231 
L 126.260927 146.57954 
L 126.330242 144.680979 
L 126.338907 144.655323 
L 126.356236 144.860573 
L 126.460208 146.322978 
L 126.50353 145.96379 
L 126.572845 145.707228 
L 126.590174 145.938134 
L 126.676818 148.14457 
L 126.711475 146.733477 
L 126.78079 143.834323 
L 126.815448 145.96379 
L 127.803188 234.734346 
L 127.907161 230.937224 
L 127.959147 229.782694 
L 128.011133 230.680662 
L 128.097777 234.91394 
L 128.141099 231.78388 
L 128.271065 220.469482 
L 128.375037 222.521981 
L 128.505003 218.23739 
L 128.55699 219.05839 
L 128.75627 226.26779 
L 128.790928 225.600728 
L 128.894901 220.289889 
L 128.964216 222.214106 
L 128.97288 222.470668 
L 129.042195 221.521388 
L 129.102846 219.084046 
L 129.215483 212.79827 
L 129.293462 206.101994 
L 129.345449 210.61749 
L 129.596716 234.092941 
L 129.839319 249.794553 
L 129.873976 249.101835 
L 130.029935 241.276685 
L 130.17723 231.963473 
L 130.263874 233.964659 
L 130.463155 241.327997 
L 130.480483 240.686592 
L 130.73175 222.650262 
L 131.078326 176.546017 
L 131.112983 181.933825 
L 131.346922 225.72901 
L 131.546203 241.404966 
L 131.554867 241.507591 
L 131.589525 241.37931 
L 131.598189 241.37931 
L 131.918771 185.910541 
L 131.9361 186.090134 
L 131.996751 189.374132 
L 132.057402 187.706477 
L 132.066066 187.655164 
L 132.092059 188.142633 
L 132.204696 190.528662 
L 132.248018 189.374132 
L 132.274011 189.194538 
L 132.334662 189.810288 
L 132.343326 190.143819 
L 132.369319 187.629508 
L 132.585929 174.236956 
L 132.689902 171.209521 
L 133.053806 158.843218 
L 133.097128 160.510873 
L 133.383053 175.391486 
L 133.513018 177.957109 
L 133.729628 183.986323 
L 133.833601 182.960074 
L 133.902916 180.574045 
L 133.928909 182.44695 
L 134.474765 243.89362 
L 134.54408 240.22478 
L 135.661786 108.890538 
L 135.713772 106.709758 
L 135.731101 105.991384 
L 135.791752 107.736008 
L 136.02569 126.695962 
L 136.363601 183.216636 
L 136.536889 201.945684 
L 136.554218 201.509528 
L 136.961444 189.579381 
L 136.987437 190.579974 
L 137.36867 219.468889 
L 137.498636 225.882947 
L 137.533294 225.498104 
L 137.550622 225.472447 
L 137.58528 223.881761 
L 137.775896 216.646704 
L 137.983842 205.588869 
L 138.044492 206.769056 
L 138.139801 208.795898 
L 138.174458 208.051867 
L 138.737643 187.270321 
L 138.798294 187.911727 
L 138.910931 190.220787 
L 138.954253 188.912319 
L 139.136205 180.702326 
L 139.162198 182.369981 
L 139.222849 183.80673 
L 139.266171 182.703512 
L 139.318157 180.317482 
L 139.378808 182.267356 
L 139.491445 194.684971 
L 140.05463 267.061196 
L 140.19326 264.033761 
L 140.314561 254.361362 
L 140.357883 254.463987 
L 140.401205 254.540956 
L 140.444527 255.105393 
L 140.461856 254.617925 
L 140.557164 244.406745 
L 140.747781 231.527318 
L 140.860418 213.5423 
L 141.250315 155.713158 
L 141.284973 155.430939 
L 141.328295 155.944064 
L 141.475589 161.870653 
L 141.527576 160.202998 
L 141.596891 157.560406 
L 141.666206 158.073531 
L 141.75285 159.176749 
L 141.787507 158.330093 
L 142.012781 153.147535 
L 142.021446 153.198847 
L 142.281377 156.021033 
L 142.368021 168.541273 
L 142.558637 205.871088 
L 142.861891 259.928764 
L 142.905213 259.466952 
L 142.922542 259.672202 
L 142.948535 259.030796 
L 143.035179 252.154927 
L 143.607028 160.716123 
L 143.693672 166.488774 
L 143.944939 192.966004 
L 144.126891 212.79827 
L 144.187542 209.514272 
L 144.378159 198.430781 
L 144.690076 170.722052 
L 144.742063 168.079461 
L 145.227268 122.28309 
L 145.279255 124.797401 
L 145.747132 180.779295 
L 145.851104 175.391486 
L 146.085043 165.205963 
L 146.163022 160.202998 
L 146.448947 141.2687 
L 146.61357 134.161925 
L 146.648228 136.727548 
L 147.176755 194.890221 
L 147.298057 191.375318 
L 147.358707 190.195131 
L 147.402029 191.606224 
L 147.419358 191.888442 
L 147.471344 190.785224 
L 147.60131 182.2417 
L 147.95655 161.460153 
L 147.982543 161.716716 
L 148.138502 171.979208 
L 148.355112 198.815624 
L 148.528399 209.950428 
L 148.545728 209.719522 
L 148.641036 206.820368 
L 149.247543 177.059141 
L 149.256208 176.982173 
L 149.290865 177.495297 
L 149.29953 177.777516 
L 149.360181 176.72561 
L 149.594119 167.643305 
L 149.620112 168.336023 
L 149.862715 193.735691 
L 149.897372 193.60741 
L 149.940694 192.760754 
L 149.992681 193.684378 
L 150.113982 197.661094 
L 150.157304 194.941534 
L 150.451893 176.161173 
L 150.555866 172.748895 
L 150.616516 173.646863 
L 150.729154 180.522732 
L 150.824462 178.90639 
L 150.859119 178.855077 
L 150.91977 178.162359 
L 150.963092 178.778109 
L 151.13638 184.55076 
L 151.171037 182.2417 
L 151.240352 177.392672 
L 151.309667 178.932046 
L 151.344325 179.239921 
L 151.396311 178.803765 
L 151.465626 176.289454 
L 151.569599 165.693431 
L 151.820866 145.938134 
L 151.933503 144.090886 
L 151.959496 144.39876 
L 152.037476 147.477508 
L 152.340729 158.381406 
L 152.349394 158.330093 
L 152.358058 158.381406 
L 152.384051 157.94525 
L 152.522681 155.841439 
L 152.531346 155.892751 
L 152.635318 165.128994 
L 153.198504 231.527318 
L 153.319805 228.833413 
L 153.337134 228.551195 
L 153.363127 227.29404 
L 153.423778 229.654413 
L 153.501757 231.116818 
L 153.519086 229.731381 
L 153.787682 203.94687 
L 153.978298 192.529848 
L 154.012956 192.452879 
L 154.02162 192.401567 
L 154.047613 192.889035 
L 154.090935 192.709442 
L 154.333538 202.202247 
L 154.411518 209.309022 
L 154.45484 213.670581 
L 154.524155 209.514272 
L 155.000696 176.212486 
L 155.156655 178.29064 
L 155.338607 186.885477 
L 155.589874 204.639588 
L 155.9971 237.146032 
L 156.005765 237.171688 
L 156.031758 237.017751 
L 156.040422 237.017751 
L 156.118402 233.169316 
L 156.664258 200.919435 
L 156.698915 199.970155 
L 156.733573 202.125278 
L 156.950183 208.154492 
L 157.010833 208.667617 
L 157.080148 210.463553 
L 157.106142 208.924179 
L 157.357409 194.120534 
L 157.374738 194.813252 
L 157.487375 208.282773 
L 157.851279 245.048151 
L 157.894601 244.278464 
L 157.998573 239.968217 
L 158.475115 181.343732 
L 158.700389 159.484624 
L 158.752375 160.45956 
L 158.787033 159.792498 
L 158.856348 155.251346 
L 158.925663 156.405876 
L 159.45419 198.918249 
L 159.488848 197.071001 
L 160.147341 159.151093 
L 160.311964 160.895716 
L 160.511245 167.899867 
L 160.623882 165.97565 
L 160.823163 162.896902 
L 160.857821 162.691652 
L 160.87515 162.896902 
L 161.065766 182.010794 
L 161.50765 236.581595 
L 161.516314 236.709876 
L 161.550972 235.811908 
L 161.576965 235.221815 
L 161.620287 236.709876 
L 161.802239 244.406745 
L 161.871554 247.613774 
L 161.914876 244.996838 
L 161.975527 242.610809 
L 162.027513 244.227151 
L 162.105492 246.638837 
L 162.14015 244.535026 
L 162.616691 200.996404 
L 162.642684 200.354998 
L 162.668677 202.125278 
L 162.781315 209.46296 
L 162.815972 205.614525 
L 163.3445 152.608754 
L 163.396486 154.943471 
L 163.691075 168.849148 
L 164.184945 220.161608 
L 164.384226 222.59895 
L 164.245596 219.905045 
L 164.39289 222.3937 
L 164.444877 220.62342 
L 164.53152 221.008263 
L 164.566178 219.776764 
L 164.635493 215.492174 
L 164.704808 216.87761 
L 164.713473 216.903266 
L 165.042719 197.199282 
L 165.068712 197.584125 
L 165.155356 202.894965 
L 165.207343 199.893186 
L 165.233336 198.738656 
L 165.293986 200.329342 
L 165.389295 206.640774 
L 165.432617 203.664652 
L 165.822514 160.716123 
L 165.883165 154.738221 
L 165.943815 159.869467 
L 166.273062 240.250436 
L 166.437685 265.957978 
L 166.463679 265.444854 
L 166.498336 265.624447 
L 166.602309 264.162042 
L 166.72361 252.154927 
L 167.200151 197.378875 
L 167.234809 195.91647 
L 167.330117 180.317482 
L 167.650699 130.92924 
L 167.78933 124.386901 
L 167.806658 127.029493 
L 168.092583 165.257275 
L 168.135905 165.128994 
L 168.239878 164.436276 
L 168.257206 164.923744 
L 168.447823 168.207742 
L 168.482481 168.207742 
L 168.69909 185.346104 
L 169.037001 216.390142 
L 169.184296 218.930109 
L 169.227618 218.23739 
L 169.27094 214.594206 
L 169.305597 212.079895 
L 169.392241 213.183113 
L 169.435563 213.798863 
L 169.608851 226.370415 
L 169.946762 242.816059 
L 169.955426 242.73909 
L 169.964091 242.73909 
L 169.972755 242.53384 
L 170.024741 243.765339 
L 170.04207 243.816652 
L 170.146043 245.561275 
L 170.172036 244.355433 
L 170.371317 225.600728 
L 170.830529 166.206556 
L 170.969159 164.538901 
L 171.073132 163.333058 
L 171.177105 158.663624 
L 171.341728 152.044317 
L 171.367721 152.300879 
L 171.437036 154.917815 
L 171.792276 181.856856 
L 171.852927 180.47142 
L 172.000221 173.005457 
L 172.242824 151.736442 
L 172.286146 157.765656 
L 172.485427 178.136703 
L 172.554742 179.881327 
L 172.5894 178.470234 
L 172.832002 136.907141 
L 172.875324 126.721618 
L 172.961968 128.440585 
L 173.031283 132.08377 
L 173.135256 153.891565 
L 173.377859 204.459995 
L 173.386523 203.869902 
L 173.447174 202.715371 
L 173.473167 203.94687 
L 173.481831 204.844838 
L 173.551146 201.252966 
L 173.724434 187.116383 
L 173.819742 188.424851 
L 173.897722 190.990474 
L 173.915051 191.42663 
L 173.975701 189.322819 
L 174.339606 169.695803 
L 174.512893 165.642119 
L 174.573544 166.719681 
L 174.998099 175.853298 
L 175.439983 207.128243 
L 175.561284 205.486244 
L 175.569948 205.486244 
L 175.734572 209.309022 
L 175.769229 207.461774 
L 176.367072 155.713158 
L 176.436387 157.047282 
L 176.748305 166.103931 
L 176.81762 165.97565 
L 176.904264 166.411806 
L 176.990908 165.257275 
L 177.120873 163.256089 
L 177.155531 163.769214 
L 177.207517 163.897495 
L 177.242175 163.717902 
L 177.302826 161.28056 
L 177.380805 158.253125 
L 177.441456 159.946436 
L 177.606079 173.415957 
L 177.866011 199.636624 
L 177.874675 199.585311 
L 177.94399 198.09725 
L 178.177929 175.699361 
L 178.351216 162.64034 
L 178.411867 162.43509 
L 178.429196 162.64034 
L 178.533168 168.797835 
L 178.905737 185.987509 
L 178.949059 186.423665 
L 178.966388 185.961853 
L 179.356285 162.999527 
L 179.416936 163.410027 
L 179.477586 162.896902 
L 179.876148 160.074717 
L 179.884813 160.126029 
L 180.19673 163.974464 
L 180.240052 163.79487 
L 180.257381 163.79487 
L 180.404676 165.077682 
L 180.560635 163.769214 
L 180.621285 164.102745 
L 180.647279 164.025776 
L 180.716594 162.127215 
L 180.829231 162.871246 
L 180.898546 166.719681 
L 181.063169 176.72561 
L 181.106491 175.648049 
L 181.167142 173.929081 
L 181.236457 174.621799 
L 181.26245 174.570487 
L 181.392416 167.489367 
L 182.25019 53.3448 
L 182.319505 57.757672 
L 182.553443 111.635755 
L 182.874026 160.844404 
L 182.995327 161.023997 
L 183.081971 161.357528 
L 183.107964 161.203591 
L 183.125293 161.100966 
L 183.177279 161.48581 
L 183.185944 161.48581 
L 183.255259 161.460153 
L 183.272588 162.563371 
L 183.419882 164.923744 
L 183.480533 165.308588 
L 183.51519 164.923744 
L 183.532519 164.744151 
L 183.59317 165.205963 
L 183.645156 167.104524 
L 184.139026 191.22138 
L 184.234334 191.862786 
L 184.242999 191.477942 
L 184.251663 190.913505 
L 184.294985 194.710627 
L 184.563581 215.10733 
L 184.58091 211.77202 
L 184.953478 152.095629 
L 184.970807 152.685723 
L 185.048787 154.661252 
L 185.066115 153.147535 
L 185.083444 151.839067 
L 185.100773 156.611126 
L 185.308718 223.933073 
L 185.395362 210.155678 
L 185.421355 206.384212 
L 185.456013 216.492767 
L 185.473342 219.186671 
L 185.559985 215.620455 
L 185.585979 215.72308 
L 185.646629 217.211141 
L 185.733273 219.135358 
L 185.759266 217.903859 
L 185.819917 214.004112 
L 185.897896 215.748736 
L 186.053855 223.496918 
L 186.322451 231.912161 
L 186.426424 227.396665 
L 186.469746 229.962288 
L 186.591047 236.27372 
L 186.643034 235.478377 
L 186.729678 234.221222 
L 186.755671 234.836971 
L 186.946287 245.176432 
L 186.980945 244.150183 
L 187.197554 232.93841 
L 187.500808 208.051867 
L 187.596116 202.073965 
L 187.795397 190.349068 
L 188.046664 173.467269 
L 188.211288 162.22984 
L 188.228616 163.769214 
L 188.341253 169.054397 
L 188.375911 168.849148 
L 188.419233 167.95118 
L 188.575192 163.512652 
L 188.644507 164.795463 
L 188.705158 164.231026 
L 188.74848 163.076496 
L 188.791801 161.870653 
L 188.861117 162.358121 
L 188.94776 162.768621 
L 188.973754 162.383778 
L 189.051733 160.947029 
L 189.086391 161.973278 
L 189.155706 164.307995 
L 189.233685 163.538308 
L 189.597589 148.503757 
L 189.710226 143.064636 
L 189.744884 143.783011 
L 190.091459 159.689873 
L 190.550672 191.862786 
L 190.593994 191.247036 
L 190.749953 188.424851 
L 190.775946 188.861007 
L 190.975227 192.119348 
L 191.226494 196.686157 
L 191.269816 195.71122 
L 191.469097 178.393265 
L 191.781015 156.277595 
L 191.824337 155.76447 
L 191.893652 156.149314 
L 191.997624 157.996562 
L 192.309542 161.665403 
L 192.3442 161.588435 
L 192.829405 152.814004 
L 192.83807 152.557442 
L 192.89872 153.660659 
L 192.942042 154.943471 
L 193.028686 154.558627 
L 193.106666 153.840253 
L 193.149988 154.276409 
L 193.288618 157.94525 
L 193.401255 164.923744 
L 193.479234 163.666589 
L 193.539885 163.769214 
L 193.591871 164.821119 
L 193.739166 180.189201 
L 193.791152 179.316889 
L 193.981769 174.493518 
L 194.059748 175.314518 
L 194.094406 175.827642 
L 194.111734 175.006643 
L 194.259029 159.818155 
L 194.311015 160.177342 
L 194.345673 160.202998 
L 194.856872 165.000713 
L 194.917522 164.61587 
L 194.95218 165.077682 
L 195.056153 169.490553 
L 195.22944 192.966004 
L 195.671324 244.868557 
L 195.991906 248.126898 
L 196.009235 247.793367 
L 196.052557 247.998617 
L 196.390468 235.11919 
L 196.841016 188.553132 
L 197.083619 171.671333 
L 197.118276 172.004864 
L 197.291564 179.368202 
L 197.898071 221.495732 
L 198.106016 232.168723 
L 198.183996 237.607844 
L 198.279304 241.327997 
L 198.33129 240.430029 
L 198.539236 233.246285 
L 198.556565 234.529096 
L 198.634544 243.303527 
L 198.660537 235.760596 
L 199.015777 159.869467 
L 199.111085 147.041352 
L 199.154407 138.882671 
L 199.197729 148.272851 
L 199.61362 220.469482 
L 199.622284 220.366858 
L 199.986188 198.225531 
L 200.124818 189.502413 
L 200.150812 191.683192 
L 200.575366 240.353061 
L 200.66201 235.734939 
L 201.15588 193.684378 
L 201.173209 193.787003 
L 201.320504 202.202247 
L 201.805709 256.157298 
L 201.875024 252.154927 
L 202.178278 235.632314 
L 202.186942 235.888877 
L 202.308244 242.662121 
L 202.368894 246.407931 
L 202.464203 251.154334 
L 202.507525 249.281429 
L 202.550846 249.486679 
L 202.57684 247.870336 
L 203.200675 194.838909 
L 203.269991 195.326377 
L 203.425949 199.944498 
L 203.512593 199.25178 
L 203.616566 200.868123 
L 203.963141 233.75941 
L 204.049785 225.72901 
L 204.664957 145.322385 
L 204.69095 147.041352 
L 204.846909 164.923744 
L 204.959546 176.622985 
L 205.037525 176.109861 
L 205.193484 174.365237 
L 205.479409 135.932204 
L 205.626704 137.291985 
L 206.016601 143.115949 
L 206.111909 143.398167 
L 206.137902 143.269886 
L 206.17256 143.141605 
L 206.207217 143.577761 
L 206.458485 149.222132 
L 206.484478 148.888601 
L 206.545128 148.401132 
L 206.579786 148.914257 
L 206.623108 149.658288 
L 206.709752 149.350413 
L 206.735745 149.427381 
L 206.80506 150.427974 
L 207.013005 154.866502 
L 207.030334 154.173784 
L 207.151635 144.039573 
L 207.220951 149.658288 
L 207.37691 163.769214 
L 207.636841 208.693273 
L 207.671499 214.773799 
L 207.758143 211.23324 
L 207.862115 201.894372 
L 208.208691 168.336023 
L 208.217355 168.592585 
L 208.355985 172.64627 
L 208.407971 170.337209 
L 208.555266 164.795463 
L 208.615917 165.513838 
L 208.728554 166.617056 
L 208.763211 165.97565 
L 208.815198 165.180307 
L 208.85852 166.155243 
L 209.066465 170.568115 
L 209.153109 178.213672 
L 209.231088 174.185643 
L 209.335061 170.568115 
L 209.672972 137.856422 
L 209.724958 144.424417 
L 209.915575 174.057362 
L 210.305472 238.4545 
L 210.366123 242.73909 
L 210.40078 237.607844 
L 211.085267 126.567681 
L 211.119924 125.41315 
L 211.171911 127.234742 
L 211.319205 128.363617 
L 211.379856 127.850492 
L 211.405849 128.389273 
L 211.4665 131.006208 
L 211.518486 128.697148 
L 211.570472 125.926275 
L 211.622459 128.491898 
L 211.82174 147.759727 
L 212.142322 192.375911 
L 212.471569 227.422321 
L 212.610199 234.221222 
L 212.670849 232.168723 
L 213.121397 204.177776 
L 213.268692 206.101994 
L 213.398658 198.995218 
L 214.048487 160.382592 
L 214.143795 168.592585 
L 214.187117 167.822898 
L 214.195781 167.771586 
L 214.21311 168.079461 
L 214.265096 172.517988 
L 214.455713 208.180148 
L 214.758966 256.131642 
L 214.802288 254.027831 
L 214.871603 248.716992 
L 215.070884 235.247471 
L 215.166193 220.751701 
L 215.538761 158.920187 
L 215.582083 161.152279 
L 215.712049 176.751266 
L 216.058624 229.39785 
L 216.136604 228.03807 
L 216.231912 226.242134 
L 216.292563 226.960509 
L 216.379207 229.834006 
L 216.630474 241.251029 
L 216.656467 241.507591 
L 216.777768 246.253994 
L 216.829755 243.046965 
L 217.046364 236.709876 
L 217.115679 235.760596 
L 217.141673 236.248064 
L 217.193659 241.020123 
L 217.288967 240.045186 
L 217.306296 240.506998 
L 217.401604 244.71462 
L 217.444926 242.610809 
L 217.488248 241.78981 
L 217.557563 242.277278 
L 217.574892 242.482528 
L 217.635543 241.533247 
L 217.652871 241.456279 
L 217.687529 238.941968 
L 218.562632 154.789534 
L 218.718591 141.396981 
L 218.865885 131.339739 
L 218.961194 131.596302 
L 218.987187 131.262771 
L 219.004516 131.057521 
L 219.021844 132.160739 
L 219.385749 164.359307 
L 219.463728 163.666589 
L 219.472392 163.717902 
L 219.524379 163.538308 
L 219.714995 158.920187 
L 219.732324 158.791905 
L 219.78431 159.176749 
L 219.974927 168.592585 
L 220.00092 167.822898 
L 220.044242 167.104524 
L 220.061571 168.515617 
L 220.191537 171.235177 
L 220.27818 173.980394 
L 220.304174 174.698768 
L 220.338831 172.364051 
L 220.49479 169.31096 
L 220.512119 170.003678 
L 220.893352 224.651448 
L 221.257256 267.420383 
L 221.300578 259.41564 
L 221.777119 168.079461 
L 221.811777 171.876583 
L 222.028386 202.920621 
L 222.201674 210.745771 
L 222.210338 210.720115 
L 222.530921 176.982173 
L 222.695544 165.847369 
L 223.215407 250.872115 
L 223.258729 248.896585 
L 223.397359 237.915719 
L 223.804585 194.76194 
L 223.81325 194.838909 
L 223.821914 194.890221 
L 223.847907 194.505378 
L 223.865236 194.55669 
L 223.882565 194.197503 
L 223.943216 195.146783 
L 223.95188 194.710627 
L 224.142497 202.843652 
L 224.211812 200.406311 
L 224.506401 184.75601 
L 224.567051 187.372946 
L 225.07825 237.223001 
L 225.130237 232.784473 
L 225.468148 190.349068 
L 225.676093 165.7704 
L 225.702086 165.462525 
L 225.719415 166.206556 
L 225.780066 165.642119 
L 225.918696 176.289454 
L 226.152634 207.846617 
L 226.178627 207.410461 
L 226.195956 207.461774 
L 226.265271 209.001148 
L 226.308593 211.258896 
L 226.369244 209.180741 
L 226.542531 188.168289 
L 226.785134 161.408841 
L 226.871778 156.713751 
L 226.897771 160.947029 
L 227.400306 255.772455 
L 227.469621 250.230709 
L 227.859518 195.993439 
L 228.093457 151.325942 
L 228.154107 153.583691 
L 228.188765 157.380813 
L 228.621984 212.336458 
L 228.682635 210.848396 
L 228.812601 197.917656 
L 228.873251 203.048902 
L 229.185169 190.579974 
L 229.315135 180.984544 
L 229.505752 161.229247 
L 229.549073 163.769214 
L 229.557738 163.897495 
L 229.627053 163.461339 
L 229.635717 163.461339 
L 229.66171 163.512652 
L 229.705032 163.256089 
L 229.765683 162.22984 
L 229.809005 161.100966 
L 229.826334 162.768621 
L 230.01695 186.474978 
L 230.051608 183.088355 
L 230.129587 181.112826 
L 230.181574 181.600294 
L 230.328868 193.042973 
L 230.337533 193.530441 
L 230.380855 190.400381 
L 230.45017 188.347882 
L 230.467498 190.47735 
L 230.822738 222.932481 
L 230.857396 222.804199 
L 230.900718 222.419356 
L 231.00469 209.25771 
L 231.212636 196.250001 
L 231.689177 162.383778 
L 231.897122 158.971499 
L 231.905786 159.09978 
L 231.914451 159.279374 
L 231.940444 157.868281 
L 232.252362 141.987075 
L 232.269691 142.115356 
L 232.321677 140.883857 
L 232.434314 138.651765 
L 232.468972 138.908327 
L 232.590273 142.346262 
L 232.70291 146.271665 
L 232.720239 146.605196 
L 232.780889 145.065822 
L 232.850205 144.347448 
L 232.884862 144.911885 
L 232.893526 145.040166 
L 232.936848 144.296135 
L 232.962842 144.013917 
L 233.014828 144.80926 
L 233.170787 147.888008 
L 233.214109 147.297914 
L 233.240102 146.066415 
L 233.266095 149.350413 
L 233.500033 177.110454 
L 233.534691 175.263205 
L 233.578013 172.517988 
L 233.647328 175.134924 
L 233.759965 183.60148 
L 233.820616 178.90639 
L 234.019897 165.334244 
L 234.063219 168.259054 
L 234.097876 170.952958 
L 234.201849 170.824677 
L 234.279828 170.568115 
L 234.392465 177.777516 
L 234.643732 199.380061 
L 234.687054 197.327563 
L 234.704383 195.993439 
L 234.730376 200.406311 
L 235.380205 286.482962 
L 235.475514 281.685247 
L 236.056027 244.868557 
L 236.16 238.813687 
L 236.203322 241.020123 
L 236.211986 241.507591 
L 236.229315 238.762374 
L 236.445925 199.585311 
L 236.480582 201.381247 
L 236.575891 205.460588 
L 236.610548 202.253559 
L 236.740514 181.472013 
L 236.818493 187.372946 
L 236.853151 187.911727 
L 236.887808 186.500634 
L 236.896473 186.603259 
L 236.922466 188.732726 
L 236.965788 192.452879 
L 237.017774 187.783445 
L 237.104418 178.649827 
L 237.139076 183.729761 
L 237.425 245.509963 
L 237.476987 240.686592 
L 237.771576 201.560841 
L 237.970857 171.671333 
L 238.005514 172.364051 
L 238.022843 172.261426 
L 238.222124 168.130773 
L 238.265446 169.952365 
L 238.300103 171.286489 
L 238.334761 169.157022 
L 238.430069 158.509687 
L 238.464727 165.7704 
L 238.949932 263.341043 
L 239.001919 258.338078 
L 239.331165 241.969403 
L 239.357158 241.712841 
L 239.391816 242.277278 
L 239.547775 245.638244 
L 239.556439 245.612588 
L 239.669076 252.052302 
L 239.738391 253.001582 
L 239.764385 251.128677 
L 240.024316 224.446198 
L 240.197604 211.643739 
L 240.292912 205.614525 
L 240.318905 204.716557 
L 240.379556 206.307243 
L 240.552844 219.391921 
L 240.570173 217.339422 
L 240.674145 203.869902 
L 240.752125 208.051867 
L 240.830104 213.927144 
L 240.899419 212.59302 
L 240.968734 215.338236 
L 241.349967 275.450783 
L 241.427947 282.942403 
L 241.479933 278.657812 
L 241.609899 252.308864 
L 242.060447 165.949994 
L 242.103769 167.438055 
L 242.259728 186.73154 
L 242.649625 252.95027 
L 242.71894 249.101835 
L 242.874899 223.291668 
L 243.195481 178.675484 
L 243.238803 178.136703 
L 243.29079 179.291233 
L 243.438084 186.295384 
L 243.481406 183.088355 
L 243.498735 182.139075 
L 243.585379 182.626543 
L 243.84531 193.017316 
L 243.897297 191.554911 
L 243.905961 191.42663 
L 243.957947 192.119348 
L 244.746407 245.356026 
L 244.954352 268.780164 
L 245.032331 267.625633 
L 245.084318 267.420383 
L 245.162297 273.834441 
L 245.231612 272.449004 
L 245.508873 255.515893 
L 246.219352 159.535936 
L 246.245345 160.895716 
L 246.583256 187.88607 
L 246.591921 187.783445 
L 246.799866 177.572266 
L 247.02514 156.790719 
L 247.077126 157.355157 
L 247.120448 157.688688 
L 247.415037 162.101559 
L 247.432366 162.178528 
L 247.467024 161.793684 
L 247.692298 158.278781 
L 247.700962 158.253125 
L 247.709627 158.509687 
L 247.718291 158.509687 
L 248.108188 177.572266 
L 248.437435 213.567957 
L 248.463428 217.159829 
L 248.515415 208.488023 
L 248.983291 118.511624 
L 249.043942 127.157774 
L 249.381853 164.821119 
L 249.529148 170.593771 
L 249.555141 169.413585 
L 249.650449 167.13018 
L 249.7111 167.386742 
L 249.737093 167.001899 
L 249.806408 164.41062 
L 249.84973 163.256089 
L 249.919045 164.231026 
L 249.962367 164.282339 
L 250.334936 171.235177 
L 250.629525 187.88607 
L 250.776819 192.401567 
L 250.863463 201.124685 
L 251.140723 220.546451 
L 251.33134 225.087604 
L 251.357333 223.75348 
L 251.46997 215.877017 
L 251.885861 185.730947 
L 251.955176 183.60148 
L 252.024491 184.114604 
L 252.033155 184.448135 
L 252.085142 182.267356 
L 252.440381 168.669554 
L 252.509696 163.769214 
L 252.561683 166.591399 
L 252.579012 167.874211 
L 252.656991 165.719088 
L 252.682984 165.821712 
L 252.708977 165.898681 
L 252.752299 165.513838 
L 253.098875 154.738221 
L 253.185519 155.944064 
L 253.384799 174.313925 
L 253.766032 202.715371 
L 253.921991 215.748736 
L 254.129937 241.276685 
L 254.181923 239.070249 
L 254.199252 239.018937 
L 254.225245 239.224187 
L 254.311889 243.175246 
L 254.355211 240.481342 
L 254.658464 214.953393 
L 254.701786 216.698017 
L 254.745108 218.545265 
L 254.797094 216.492767 
L 254.840416 213.439675 
L 254.901067 217.005891 
L 254.935725 217.801235 
L 254.979047 216.390142 
L 255.186992 202.253559 
L 255.273636 200.842466 
L 255.299629 201.560841 
L 255.334286 203.869902 
L 255.386273 201.22731 
L 255.524903 198.353812 
L 255.550896 198.430781 
L 255.680862 202.279215 
L 255.715519 201.63781 
L 255.85415 197.661094 
L 255.871478 198.045937 
L 255.906136 197.071001 
L 255.966787 195.839502 
L 256.088088 193.042973 
L 256.096752 194.454065 
L 256.122745 197.071001 
L 256.192061 193.273879 
L 256.244047 190.785224 
L 256.382677 174.108675 
L 256.417335 177.007829 
L 256.607951 185.859228 
L 256.642609 180.26617 
L 256.694595 188.861007 
L 256.90254 213.157457 
L 256.963191 212.977863 
L 257.067164 221.110888 
L 257.171136 229.39785 
L 257.231787 226.755259 
L 257.25778 226.26779 
L 257.292438 227.268383 
L 257.543705 239.60903 
L 257.604355 239.275499 
L 257.639013 240.353061 
L 257.673671 238.967624 
L 257.933602 219.391921 
L 257.959595 219.956358 
L 257.976924 220.21292 
L 258.046239 222.162794 
L 258.10689 221.700981 
L 258.115554 221.624013 
L 258.150212 222.265419 
L 258.158876 222.291075 
L 258.306171 227.858477 
L 258.3235 226.626978 
L 258.496787 205.614525 
L 258.826034 161.48581 
L 258.87802 162.050247 
L 258.921342 161.460153 
L 259.163945 157.047282 
L 259.198603 157.996562 
L 259.345897 160.382592 
L 259.363226 159.689873 
L 259.423877 159.048468 
L 259.458534 159.869467 
L 259.605829 176.212486 
L 260.099699 246.715806 
L 260.221 241.661528 
L 260.888158 181.882512 
L 261.182747 146.066415 
L 261.200076 146.066415 
L 261.321377 150.171412 
L 261.607302 164.61587 
L 261.615966 164.564557 
L 261.659288 164.307995 
L 261.685281 164.667182 
L 261.84124 167.104524 
L 261.884562 166.847962 
L 261.997199 166.92493 
L 262.092507 170.824677 
L 262.33511 181.292419 
L 262.352439 181.21545 
L 262.404425 180.317482 
L 262.673021 158.971499 
L 262.898295 144.219167 
L 262.941617 146.605196 
L 263.071583 155.123065 
L 263.158227 153.45541 
L 263.331515 141.089107 
L 263.383501 145.835509 
L 263.522131 155.123065 
L 263.556789 155.046096 
L 263.600111 157.303844 
L 263.782063 189.887256 
L 263.8947 201.124685 
L 263.938022 200.919435 
L 263.990008 203.151527 
L 264.145967 208.359742 
L 264.17196 208.10318 
L 264.258604 205.332307 
L 264.752474 178.034078 
L 264.813125 180.26617 
L 265.29833 203.023246 
L 265.384974 196.378282 
L 265.566926 182.369981 
L 265.601584 182.908762 
L 265.618913 182.498262 
L 265.636241 183.781073 
L 265.705556 189.707663 
L 265.783536 187.629508 
L 265.922166 186.500634 
L 265.93083 186.551946 
L 265.956824 186.680227 
L 265.974152 186.038822 
L 266.034803 184.371167 
L 266.078125 186.167103 
L 266.520009 208.051867 
L 266.589324 204.76787 
L 266.892577 178.932046 
L 266.953228 181.985137 
L 267.317132 207.256524 
L 267.360454 209.822147 
L 267.41244 215.158643 
L 267.464427 209.822147 
L 267.98429 170.901646 
L 268.036276 167.566336 
L 268.105591 169.824084 
L 268.33953 176.93086 
L 268.391516 179.881327 
L 268.495489 187.834758 
L 268.556139 186.346696 
L 268.599461 183.293605 
L 268.677441 174.544831 
L 268.746756 178.470234 
L 269.093331 204.844838 
L 269.205968 226.652634 
L 269.32727 225.549416 
L 269.379256 227.935445 
L 269.413914 225.472447 
L 269.795147 202.125278 
L 269.907784 192.966004 
L 270.029085 187.193352 
L 270.063743 188.168289 
L 270.410318 220.546451 
L 270.462304 221.957544 
L 270.514291 221.008263 
L 270.59227 211.746364 
L 271.068811 157.432125 
L 271.112133 156.149314 
L 271.190113 156.842032 
L 271.285421 158.253125 
L 271.311414 157.637375 
L 271.467373 152.993597 
L 271.510695 153.891565 
L 271.709976 156.611126 
L 271.787955 152.557442 
L 271.865935 152.814004 
L 271.874599 152.762691 
L 271.909257 153.147535 
L 272.117202 167.13018 
L 272.411791 180.445764 
L 272.463778 179.932639 
L 272.628401 191.093099 
L 272.78436 204.639588 
L 272.827682 201.894372 
L 272.974976 197.661094 
L 272.983641 198.020281 
L 273.018298 194.96719 
L 273.208915 160.972685 
L 273.49484 86.749212 
L 273.702785 60.118045 
L 273.728778 61.7857 
L 274.014703 104.528979 
L 274.612545 167.438055 
L 274.647203 166.103931 
L 274.690525 164.949401 
L 274.742511 166.591399 
L 274.794497 169.824084 
L 275.305696 254.027831 
L 275.331689 250.692521 
L 275.634943 221.752294 
L 275.704258 218.160422 
L 275.756244 220.546451 
L 275.808231 228.115039 
L 275.860217 238.813687 
L 275.929532 230.501068 
L 276.38008 183.267949 
L 276.388744 185.012573 
L 276.752649 240.506998 
L 276.761313 240.378717 
L 276.778642 240.353061 
L 276.787306 240.481342 
L 276.813299 240.943154 
L 276.87395 240.096498 
L 276.969258 234.400815 
L 277.099224 226.319103 
L 277.159875 227.550602 
L 277.315834 236.658564 
L 277.393813 234.657378 
L 277.428471 234.015972 
L 277.463128 235.991502 
L 277.619087 244.663307 
L 277.671074 243.560089 
L 277.714396 240.481342 
L 277.870354 231.655599 
L 277.922341 232.271348 
L 277.956998 233.169316 
L 277.991656 231.501661 
L 278.182272 212.926551 
L 278.511519 146.656509 
L 278.684807 160.767435 
L 278.953403 228.705132 
L 279.06604 219.699796 
L 279.135355 208.308429 
L 279.542581 134.521112 
L 279.932478 124.46387 
L 279.958472 124.540838 
L 279.993129 125.284869 
L 280.123095 128.876741 
L 280.183746 128.184023 
L 280.365698 127.106461 
L 280.383026 127.157774 
L 280.46967 128.517554 
L 280.564979 127.79918 
L 280.616965 126.97818 
L 280.781588 125.156588 
L 281.110835 158.89453 
L 281.379431 200.354998 
L 281.474739 193.940941 
L 281.59604 188.655757 
L 281.899294 171.62002 
L 281.907958 172.517988 
L 282.332513 205.588869 
L 282.367171 205.973712 
L 282.393164 204.690901 
L 282.66176 177.777516 
L 282.982342 158.022219 
L 283.060322 157.483438 
L 283.198952 156.098001 
L 283.216281 156.328907 
L 283.406897 157.765656 
L 283.536863 156.226282 
L 283.606178 156.457188 
L 283.762137 154.994783 
L 283.883438 153.147535 
L 283.918096 153.25016 
L 283.944089 153.583691 
L 284.273336 158.201812 
L 284.325322 159.279374 
L 284.515939 165.97565 
L 284.550596 165.590806 
L 285.113781 158.509687 
L 285.13111 158.637968 
L 285.295733 159.946436 
L 285.321726 159.818155 
L 285.382377 159.664217 
L 285.391042 159.792498 
L 285.399706 159.946436 
L 285.451692 159.228061 
L 285.590322 157.12425 
L 285.616316 157.226875 
L 285.789603 158.407062 
L 285.815596 158.073531 
L 285.850254 158.201812 
L 285.919569 157.303844 
L 286.205494 124.669119 
L 286.508747 93.855987 
L 286.526076 93.753362 
L 286.543405 94.317799 
L 287.279878 137.984703 
L 287.314535 137.856422 
L 287.38385 135.932204 
L 287.643782 127.029493 
L 287.678439 126.439399 
L 287.747755 126.97818 
L 287.756419 127.029493 
L 288.276282 204.690901 
L 288.319604 198.045937 
L 288.605529 152.557442 
L 288.830803 134.213237 
L 288.94344 135.573017 
L 288.978097 135.41908 
L 289.004091 135.803923 
L 289.056077 137.035422 
L 289.099399 135.675642 
L 289.142721 134.854643 
L 289.212036 135.62433 
L 289.264022 136.907141 
L 289.307344 137.420266 
L 289.342002 135.957861 
L 289.454639 133.366581 
L 289.489296 133.828394 
L 289.601933 138.446515 
L 289.731899 142.936355 
L 289.757892 142.346262 
L 289.827207 141.602231 
L 289.870529 142.038387 
L 289.965837 143.65473 
L 289.896522 141.833137 
L 290.000495 142.628481 
L 290.20844 135.752611 
L 290.251762 136.317048 
L 290.34707 139.652358 
L 290.416385 138.75439 
L 290.485701 136.137454 
L 290.537687 137.753797 
L 291.170187 175.186236 
L 291.230838 177.751859 
L 291.300153 176.802579 
L 291.473441 168.541273 
L 291.698715 152.557442 
L 291.802687 147.169633 
L 291.854674 148.247195 
L 291.932653 150.453631 
L 292.244571 187.88607 
L 292.495838 220.854326 
L 292.556489 219.084046 
L 292.599811 218.288703 
L 292.643133 219.212327 
L 292.868407 231.501661 
L 292.963715 228.756445 
L 293.059023 226.960509 
L 293.085016 227.858477 
L 293.301626 236.838157 
L 293.336284 234.349503 
L 293.518236 226.88354 
L 293.578886 228.115039 
L 293.630873 227.345352 
L 293.812825 208.359742 
L 294.003441 195.91647 
L 294.029434 196.506564 
L 294.055428 194.96719 
L 294.350017 168.797835 
L 294.445325 167.13018 
L 294.462654 168.028148 
L 294.488647 169.439241 
L 294.549298 166.92493 
L 294.566626 166.463118 
L 294.59262 168.412992 
L 294.748578 179.11164 
L 294.835222 178.08539 
L 294.887209 177.187422 
L 295.060496 174.878362 
L 295.095154 174.621799 
L 295.138476 175.340174 
L 295.450394 180.522732 
L 295.485051 180.317482 
L 295.50238 180.26617 
L 295.563031 179.881327 
L 295.589024 180.394451 
L 295.615017 180.779295 
L 295.667003 179.932639 
L 295.840291 171.722645 
L 295.944264 172.389707 
L 296.108887 170.183272 
L 296.143545 170.722052 
L 296.62875 191.247036 
L 296.724059 190.47735 
L 296.76738 190.400381 
L 296.802038 190.195131 
L 296.810702 190.220787 
L 296.819367 191.170068 
L 296.880017 187.193352 
L 296.966661 183.550167 
L 297.001319 185.448728 
L 297.443203 210.874052 
L 297.495189 208.539335 
L 297.876422 186.218415 
L 297.954401 188.809695 
L 298.11036 199.508342 
L 298.214333 210.591834 
L 298.292312 208.231461 
L 298.387621 201.509528 
L 298.74286 172.107489 
L 298.768854 172.312739 
L 298.950806 183.216636 
L 299.193409 197.250594 
L 299.219402 197.455844 
L 299.245395 197.071001 
L 299.661285 186.167103 
L 299.7306 187.116383 
L 299.886559 197.147969 
L 300.068512 202.664059 
L 300.137827 203.74162 
L 300.233135 204.896151 
L 300.276457 204.075151 
L 300.458409 197.378875 
L 300.553717 199.072187 
L 301.134231 213.285738 
L 301.437485 228.705132 
L 301.454813 228.756445 
L 301.532793 229.526132 
L 301.56745 228.884726 
L 301.723409 217.08286 
L 301.888033 205.537557 
L 301.905361 207.128243 
L 301.983341 214.594206 
L 302.052656 214.517237 
L 302.06132 214.517237 
L 302.243272 225.549416 
L 302.407896 230.988537 
L 302.477211 224.523167 
L 302.529197 229.089976 
L 302.780464 251.38524 
L 302.797793 251.154334 
L 302.823786 251.205646 
L 302.893101 249.589304 
L 303.196355 219.135358 
L 303.360978 211.053646 
L 303.447622 209.46296 
L 303.473615 208.949835 
L 303.508273 211.181927 
L 303.655567 221.752294 
L 303.698889 219.212327 
L 303.89817 213.311394 
L 304.010807 211.566771 
L 304.158102 200.842466 
L 304.210088 201.560841 
L 304.218752 201.560841 
L 304.244746 204.049495 
L 304.591321 241.37931 
L 304.74728 249.076179 
L 304.773273 247.408524 
L 304.781938 246.330962 
L 304.877246 247.998617 
L 304.911903 251.205646 
L 304.96389 245.253401 
L 305.093855 229.269569 
L 305.145842 233.451535 
L 305.24115 237.094719 
L 305.440431 246.151369 
L 305.475088 245.612588 
L 305.51841 246.407931 
L 305.59639 247.665086 
L 305.613719 246.587525 
L 305.87365 225.292854 
L 306.384849 188.476164 
L 306.514815 178.264984 
L 306.58413 178.778109 
L 306.662109 181.472013 
L 306.835397 192.119348 
L 307.112657 209.770835 
L 307.225294 210.61749 
L 307.259952 210.335272 
L 307.519884 206.384212 
L 307.545877 206.563806 
L 307.580534 207.256524 
L 307.641185 208.667617 
L 307.693171 207.718336 
L 308.152384 193.427816 
L 308.169712 193.479128 
L 308.291014 192.375911 
L 308.308343 192.504192 
L 308.689576 223.035105 
L 308.706904 222.804199 
L 308.732898 222.727231 
L 308.750226 223.189043 
L 308.854199 233.631128 
L 308.897521 226.062541 
L 309.079473 208.308429 
L 309.096802 208.539335 
L 309.114131 208.795898 
L 309.287418 213.875831 
L 309.304747 213.106144 
L 309.374062 211.823333 
L 309.382727 214.209362 
L 309.530021 232.476598 
L 309.54735 230.090569 
L 309.781288 208.359742 
L 309.893925 204.049495 
L 309.997898 194.428409 
L 310.101871 196.609188 
L 310.119199 196.865751 
L 310.145193 196.301314 
L 310.240501 190.349068 
L 310.439782 182.190387 
L 310.517761 185.217822 
L 310.561083 183.139668 
L 310.639063 177.13611 
L 310.682384 181.164138 
L 310.864337 210.078709 
L 310.942316 198.661687 
L 311.046289 188.681413 
L 311.080946 193.863972 
L 311.236905 209.770835 
L 311.332213 201.304279 
L 311.3842 196.686157 
L 311.418857 202.920621 
L 311.566152 227.858477 
L 311.618138 221.36745 
L 312.112008 198.405125 
L 312.267967 199.508342 
L 312.467248 201.252966 
L 312.631871 204.511307 
L 312.657864 203.433746 
L 312.735844 201.099029 
L 312.779166 202.510121 
L 312.952454 204.177776 
L 312.969782 204.254745 
L 313.065091 205.204026 
L 313.099748 204.511307 
L 313.307693 200.919435 
L 313.325022 201.124685 
L 313.35968 201.868716 
L 313.532967 206.101994 
L 313.593618 203.818589 
L 313.63694 205.588869 
L 313.697591 208.026211 
L 313.749577 206.12765 
L 313.905536 194.428409 
L 314.052831 185.859228 
L 314.061495 186.167103 
L 314.122146 187.783445 
L 314.156803 186.244072 
L 314.226118 184.371167 
L 314.278105 185.063885 
L 314.34742 184.96126 
L 314.477386 194.120534 
L 315.153208 238.326219 
L 315.161872 237.299969 
L 315.300502 233.118004 
L 315.33516 232.912754 
L 315.352489 233.374566 
L 315.456461 247.049337 
L 315.586427 255.361955 
L 315.629749 254.669237 
L 315.664406 253.976519 
L 315.6904 255.25933 
L 315.725057 256.593454 
L 315.768379 254.027831 
L 316.010982 224.266604 
L 316.088961 231.912161 
L 316.166941 235.170502 
L 316.210263 233.631128 
L 316.253585 232.476598 
L 316.305571 234.092941 
L 316.400879 241.199716 
L 316.478859 238.634093 
L 316.790777 208.282773 
L 316.834099 205.999369 
L 316.894749 199.380061 
L 316.990058 202.407496 
L 317.016051 203.048902 
L 317.146016 210.155678 
L 317.284647 221.880575 
L 317.37129 221.187857 
L 317.657215 209.642553 
L 317.700537 212.516051 
L 317.709202 213.183113 
L 317.752523 209.514272 
L 317.891154 205.332307 
L 317.934476 206.512493 
L 318.099099 209.078116 
L 318.116428 209.05246 
L 318.15975 206.948649 
L 318.350366 194.197503 
L 318.393688 195.736877 
L 318.454339 197.327563 
L 318.523654 196.73747 
L 318.601633 196.12172 
L 318.65362 196.557876 
L 318.766257 198.943905 
L 318.800914 197.532813 
L 318.974202 190.733912 
L 318.991531 190.785224 
L 319.026188 191.862786 
L 319.251462 198.148562 
L 319.268791 197.917656 
L 319.312113 197.147969 
L 319.338106 198.148562 
L 319.381428 200.098436 
L 319.459408 199.174812 
L 319.520058 197.071001 
L 319.684682 186.603259 
L 319.745332 186.628915 
L 319.788654 185.653978 
L 319.849305 186.628915 
L 319.909956 188.014351 
L 319.953278 187.013758 
L 320.039921 184.165917 
L 320.091908 185.525697 
L 320.221873 186.346696 
L 320.230538 186.295384 
L 320.334511 185.063885 
L 320.438483 182.369981 
L 320.481805 184.165917 
L 320.715744 190.836537 
L 320.819716 194.55669 
L 320.941018 201.63781 
L 320.993004 199.380061 
L 321.18362 192.452879 
L 321.452216 180.984544 
L 321.460881 181.241107 
L 321.712148 191.606224 
L 322.379306 254.412675 
L 322.483278 251.026052 
L 322.595915 232.091755 
L 322.812525 207.513086 
L 322.873176 208.924179 
L 323.02047 212.79827 
L 323.063792 212.644332 
L 323.089785 212.59302 
L 323.107114 213.054832 
L 323.141772 213.567957 
L 323.185094 212.772613 
L 323.280402 204.511307 
L 323.419032 187.013758 
L 323.471018 189.194538 
L 323.51434 187.270321 
L 323.626977 182.44695 
L 323.65297 182.780481 
L 323.921566 196.994032 
L 323.956224 193.556097 
L 324.016875 189.040601 
L 324.103518 189.810288 
L 324.276806 186.680227 
L 324.311464 186.885477 
L 324.44143 193.042973 
L 324.597388 202.715371 
L 324.692697 201.766091 
L 324.736019 199.944498 
L 325.117252 175.134924 
L 325.160574 176.597329 
L 325.203895 176.674298 
L 325.229889 176.494704 
L 325.238553 176.469048 
L 325.255882 176.597329 
L 325.333861 179.624764 
L 325.619786 191.606224 
L 325.654444 191.503599 
L 325.70643 190.220787 
L 325.749752 189.168882 
L 325.810403 190.2721 
L 326.044341 204.126464 
L 326.165642 201.252966 
L 326.191635 201.22731 
L 326.217629 201.381247 
L 326.286944 203.408089 
L 326.33893 202.38184 
L 326.399581 197.635438 
L 326.55554 180.445764 
L 326.581533 184.75601 
L 326.824136 212.131208 
L 326.945437 227.011821 
L 327.040745 225.72901 
L 327.075403 227.217071 
L 327.092732 223.933073 
L 327.248691 206.178962 
L 327.283348 207.846617 
L 327.40465 211.566771 
L 327.430643 211.387177 
L 327.4653 211.361521 
L 327.716567 255.567205 
L 327.863862 265.957978 
L 327.889855 263.956792 
L 327.985163 257.363141 
L 328.071807 258.722921 
L 328.574342 294.2568 
L 328.66965 291.562896 
L 328.894924 256.388204 
L 329.284821 188.09132 
L 329.336808 184.75601 
L 329.423451 186.244072 
L 329.596739 190.836537 
L 329.640061 190.195131 
L 329.744034 190.220787 
L 329.787356 187.14204 
L 329.891328 184.319854 
L 329.93465 184.884291 
L 329.986637 185.063885 
L 329.995301 184.807323 
L 330.116602 178.726796 
L 330.229239 181.087169 
L 330.255233 181.164138 
L 330.28989 180.984544 
L 330.385198 178.08539 
L 330.5065 177.059141 
L 330.64513 185.474385 
L 330.78376 184.55076 
L 330.853075 186.038822 
L 330.948383 189.117569 
L 331.017699 188.604445 
L 331.294959 184.55076 
L 331.303623 184.627729 
L 331.468247 190.143819 
L 331.580884 200.842466 
L 331.736843 223.625199 
L 331.797493 216.492767 
L 331.832151 214.696831 
L 331.875473 218.23739 
L 332.04876 228.756445 
L 332.118076 228.166351 
L 332.152733 226.319103 
L 332.256706 220.110295 
L 332.274035 223.933073 
L 332.352014 237.813094 
L 332.412665 231.629942 
L 332.724583 193.427816 
L 332.819891 194.55669 
L 332.89787 202.79234 
L 333.157802 223.112074 
L 333.227117 224.087011 
L 333.244446 223.419949 
L 333.74698 176.289454 
L 333.82496 177.007829 
L 333.850953 176.494704 
L 333.894275 173.082426 
L 333.96359 175.98158 
L 333.980919 176.109861 
L 333.989583 175.725017 
L 334.110884 179.291233 
L 334.119549 179.188608 
L 334.232186 178.162359 
L 334.266843 178.521546 
L 334.414138 179.624764 
L 334.500782 173.929081 
L 334.570097 175.057955 
L 334.604754 175.314518 
L 334.630748 174.929674 
L 334.838693 162.43509 
L 334.87335 163.281746 
L 335.037974 172.389707 
L 335.072631 171.850927 
L 335.107289 170.978615 
L 335.133282 172.697582 
L 335.384549 193.427816 
L 335.471193 188.424851 
L 335.479857 187.783445 
L 335.549172 190.785224 
L 335.869755 204.511307 
L 335.895748 203.921214 
L 336.095029 195.71122 
L 336.190337 188.142633 
L 336.242323 190.964818 
L 336.311638 197.507157 
L 336.424275 196.250001 
L 336.450269 196.173033 
L 336.502255 195.352033 
L 336.562906 193.299535 
L 336.588899 195.146783 
L 337.082769 230.552381 
L 337.100098 229.320882 
L 337.28205 206.358556 
L 337.481331 174.698768 
L 337.576639 176.212486 
L 337.741262 177.007829 
L 337.801913 176.597329 
L 337.83657 176.494704 
L 337.862564 176.72561 
L 337.983865 179.291233 
L 338.035851 178.213672 
L 338.261125 173.929081 
L 338.313112 172.64627 
L 338.425749 168.541273 
L 338.469071 169.439241 
L 338.642358 172.774551 
L 338.703009 173.415957 
L 338.746331 172.64627 
L 338.754995 172.569301 
L 338.815646 173.005457 
L 338.841639 174.108675 
L 338.910954 175.699361 
L 338.954276 174.827049 
L 338.988934 174.031706 
L 339.04092 175.904611 
L 339.084242 176.494704 
L 339.136228 175.725017 
L 339.196879 175.006643 
L 339.231537 175.827642 
L 339.335509 182.575231 
L 339.422153 182.190387 
L 339.456811 182.523918 
L 339.508797 182.113419 
L 339.855372 162.512059 
L 339.968009 166.488774 
L 340.089311 176.366423 
L 340.557188 233.708097 
L 340.782462 246.125712 
L 340.808455 245.689557 
L 340.843112 243.842308 
L 341.189688 202.125278 
L 341.397633 175.596736 
L 341.475612 178.034078 
L 341.657565 182.626543 
L 341.718215 181.754231 
L 341.735544 181.728575 
L 341.839517 180.830607 
L 341.86551 181.21545 
L 341.952154 185.525697 
L 341.986811 186.988102 
L 342.056126 185.705291 
L 342.307394 182.652199 
L 342.342051 182.908762 
L 342.376709 183.139668 
L 342.428695 182.754824 
L 342.549996 179.368202 
L 342.63664 179.932639 
L 342.844585 182.318668 
L 342.870579 182.267356 
L 342.879243 182.2417 
L 342.896572 182.369981 
L 343.34712 263.187105 
L 343.529072 277.58025 
L 343.546401 277.246719 
L 343.581058 276.42572 
L 343.789004 270.755693 
L 343.892976 275.912596 
L 343.936298 274.758065 
L 344.100921 265.829697 
L 344.11825 266.137572 
L 344.126915 266.137572 
L 344.33486 224.651448 
L 344.646778 178.008422 
L 345.054004 151.27463 
L 345.114655 151.402911 
L 345.166641 150.710193 
L 345.175305 151.787755 
L 345.313936 180.445764 
L 345.53921 216.621048 
L 345.790477 240.866185 
L 345.833799 234.452128 
L 345.9551 220.366858 
L 346.03308 221.829263 
L 346.085066 224.831042 
L 346.128388 228.551195 
L 346.189039 224.831042 
L 346.31034 224.087011 
L 346.474963 233.451535 
L 346.483628 233.425879 
L 346.492292 233.374566 
L 346.509621 233.810722 
L 346.691573 238.685406 
L 346.752224 241.404966 
L 346.80421 239.737311 
L 346.882189 237.299969 
L 346.916847 239.224187 
L 347.090135 245.304713 
L 347.107463 244.406745 
L 347.471368 228.24332 
L 347.497361 229.192601 
L 347.506025 229.141288 
L 347.540683 229.6031 
L 347.618662 230.603693 
L 347.661984 230.885912 
L 347.705306 230.244506 
L 347.71397 230.244506 
L 347.921916 219.725452 
L 347.999895 214.902081 
L 348.225169 198.815624 
L 348.233834 198.430781 
L 348.28582 200.842466 
L 348.554416 221.059576 
L 348.823012 241.712841 
L 348.831676 241.122748 
L 349.256231 194.120534 
L 349.524827 165.693431 
L 349.672122 161.460153 
L 349.949382 160.382592 
L 349.958046 160.433904 
L 349.98404 160.844404 
L 350.373937 168.336023 
L 350.39993 168.464304 
L 350.425923 168.156429 
L 350.703184 161.48581 
L 350.876471 158.458374 
L 350.928458 157.868281 
L 350.97178 158.535343 
L 351.240376 163.79487 
L 351.38767 184.422479 
L 351.768903 225.421135 
L 351.803561 225.498104 
L 351.942191 214.594206 
L 352.288766 182.369981 
L 352.860616 148.452445 
L 352.86928 148.503757 
L 352.903938 148.785976 
L 353.025239 154.661252 
L 353.259178 182.626543 
L 353.345821 180.343139 
L 353.389143 179.932639 
L 353.432465 180.47142 
L 353.510445 182.754824 
L 353.553767 181.343732 
L 353.735719 172.44102 
L 353.761712 174.95533 
L 354.07363 195.352033 
L 354.654144 239.455093 
L 354.758116 236.196751 
L 355.165342 163.153465 
L 355.355959 145.245416 
L 355.537911 131.339739 
L 355.815171 89.058272 
L 355.823836 89.186553 
L 355.927808 93.368519 
L 356.023117 104.067167 
L 356.473665 171.799614 
L 356.854898 203.562027 
L 357.140822 251.795739 
L 357.184144 257.671016 
L 357.253459 252.693707 
L 357.366097 238.685406 
L 357.704008 165.97565 
L 357.747329 170.208928 
L 358.30185 216.569735 
L 358.310515 216.518423 
L 358.327843 216.569735 
L 358.37983 218.878796 
L 358.570446 225.72901 
L 358.596439 224.728417 
L 358.752398 222.291075 
L 358.761063 222.470668 
L 358.830378 223.419949 
L 358.847707 224.010042 
L 358.908357 222.342387 
L 358.917022 222.342387 
L 358.986337 218.750515 
L 359.003665 217.929516 
L 359.107638 218.109109 
L 359.15096 218.673546 
L 359.185618 217.647297 
L 359.254933 215.081674 
L 359.332912 216.107923 
L 359.341577 216.056611 
L 359.36757 216.364486 
L 359.393563 217.031548 
L 359.436885 215.338236 
L 359.575515 213.670581 
L 359.610173 213.439675 
L 359.653494 213.927144 
L 359.748803 221.264826 
L 360.043392 248.973554 
L 360.104043 252.308864 
L 360.147364 249.076179 
L 360.363974 213.234426 
L 360.927159 121.12856 
L 360.970481 119.076061 
L 361.039796 120.743716 
L 361.083118 123.181058 
L 361.602981 242.148997 
L 361.715618 237.736125 
L 361.750276 238.890656 
L 361.767605 239.839936 
L 361.819591 237.299969 
L 361.940892 234.092941 
L 362.140173 229.859663 
L 362.148838 229.859663 
L 362.226817 226.960509 
L 362.547399 189.117569 
L 362.850653 140.678607 
L 363.023941 134.649393 
L 363.041269 135.239486 
L 363.197228 144.167854 
L 363.283872 144.039573 
L 363.292537 144.039573 
L 363.344523 145.809853 
L 363.994352 229.834006 
L 364.072331 224.651448 
L 364.566201 178.803765 
L 364.618188 179.060327 
L 364.739489 183.781073 
L 364.817469 181.21545 
L 364.834797 180.574045 
L 364.886784 182.267356 
L 365.120722 196.480907 
L 365.35466 207.89793 
L 365.406647 207.384805 
L 365.441304 208.231461 
L 365.857195 230.603693 
L 365.865859 230.295819 
L 366.429044 160.767435 
L 366.810277 93.214581 
L 366.905586 103.374449 
L 367.156853 156.149314 
L 367.512093 238.967624 
L 367.676716 249.61496 
L 367.68538 246.972368 
L 367.694045 244.458058 
L 367.798017 244.586339 
L 368.109935 230.475412 
L 368.153257 233.579816 
L 368.213908 238.377531 
L 368.274559 234.606065 
L 368.335209 233.631128 
L 368.378531 234.580409 
L 368.61247 245.253401 
L 368.655792 242.097684 
L 368.707778 239.968217 
L 368.777093 241.276685 
L 368.820415 241.327997 
L 368.898394 237.42825 
L 369.063018 231.450349 
L 369.080346 231.758224 
L 369.10634 231.835192 
L 369.123668 231.57863 
L 369.175655 231.912161 
L 369.218977 230.603693 
L 369.366271 227.807164 
L 369.452915 224.984979 
L 369.504901 226.755259 
L 369.574216 228.756445 
L 369.617538 227.08879 
L 369.799491 219.725452 
L 369.834148 220.854326 
L 370.050758 238.172281 
L 370.085415 234.144253 
L 370.553292 162.871246 
L 370.717915 150.761505 
L 370.778566 148.888601 
L 370.882539 137.676828 
L 370.908532 143.834323 
L 371.107813 178.08539 
L 371.419731 245.356026 
L 371.506375 238.197937 
L 371.567025 240.22478 
L 371.610347 238.582781 
L 371.922265 221.36745 
L 371.948258 221.700981 
L 372.312162 238.300562 
L 372.424799 240.737904 
L 372.442128 240.430029 
L 372.615416 229.782694 
L 372.728053 232.399629 
L 372.788704 232.784473 
L 372.806032 232.476598 
L 373.213259 220.238576 
L 373.273909 218.699203 
L 373.325896 220.033327 
L 373.620485 227.217071 
L 373.637814 227.29404 
L 373.698464 229.39785 
L 373.767779 231.78388 
L 373.819766 230.860256 
L 374.019047 226.960509 
L 374.027711 227.037477 
L 374.079697 229.782694 
L 374.3223 242.482528 
L 374.400279 244.227151 
L 374.452266 243.944933 
L 374.660211 234.580409 
L 374.920143 207.974898 
L 375.076102 210.027397 
L 375.119424 209.514272 
L 375.145417 210.360928 
L 375.414013 221.264826 
L 375.431341 220.854326 
L 375.708602 193.40216 
L 375.959869 153.891565 
L 376.237129 126.208493 
L 376.306444 130.031272 
L 376.505725 178.521546 
L 376.808979 230.090569 
L 376.834972 229.218257 
L 377.42415 189.425444 
L 377.450143 189.707663 
L 377.753397 198.661687 
L 377.770726 197.507157 
L 377.900691 190.143819 
L 377.944013 191.760161 
L 378.091308 198.430781 
L 378.13463 196.352626 
L 378.177952 197.712406 
L 378.35124 216.954579 
L 378.455212 225.241541 
L 378.507198 223.189043 
L 378.715144 200.201061 
L 378.914425 181.882512 
L 378.940418 181.600294 
L 378.975075 182.498262 
L 379.209014 212.131208 
L 379.503603 251.256958 
L 379.572918 253.335113 
L 379.633569 252.488458 
L 379.711548 249.743241 
L 380.214083 220.674732 
L 380.274733 218.493953 
L 380.32672 220.41817 
L 380.370041 221.008263 
L 380.404699 220.21292 
L 380.430692 218.878796 
L 380.482679 221.316138 
L 380.811925 242.225965 
L 380.915898 239.455093 
L 381.089186 234.657378 
L 381.123843 234.734346 
L 381.167165 234.477784 
L 381.219151 233.118004 
L 381.51374 220.341201 
L 381.557062 222.906824 
L 381.851652 249.845866 
L 382.120247 279.863655 
L 382.146241 279.170937 
L 382.310864 268.908445 
L 382.562131 246.407931 
L 382.640111 249.743241 
L 383.021344 279.812342 
L 383.047337 277.426313 
L 383.437234 248.25518 
L 383.523878 251.000396 
L 383.549871 251.847052 
L 383.939769 282.506247 
L 384.009084 281.274748 
L 384.364323 254.207425 
L 384.598262 234.400815 
L 384.615591 234.965252 
L 384.650248 235.504033 
L 384.69357 234.836971 
L 384.962166 227.140102 
L 385.014152 228.44857 
L 385.178776 232.014786 
L 385.204769 232.348317 
L 385.352063 237.479563 
L 385.499358 245.509963 
L 385.534016 244.150183 
L 385.776618 225.754666 
L 386.157851 181.497669 
L 386.244495 177.700547 
L 386.31381 179.753045 
L 386.677715 210.489209 
L 386.920317 230.4241 
L 387.02429 235.427065 
L 387.093605 237.787438 
L 387.16292 237.223001 
L 387.284222 230.603693 
L 387.466174 211.823333 
L 387.630797 204.690901 
L 387.65679 204.254745 
L 387.682783 205.024432 
L 387.752098 203.433746 
L 387.821413 206.820368 
L 387.960044 217.903859 
L 388.15066 224.394886 
L 388.167989 224.189636 
L 388.211311 221.880575 
L 388.28929 223.830449 
L 388.384599 225.241541 
L 388.410592 224.061355 
L 388.635866 200.021467 
L 388.869804 172.107489 
L 388.930455 169.798428 
L 388.982441 171.799614 
L 389.63227 227.807164 
L 389.692921 226.703946 
L 389.727578 227.807164 
L 389.874873 240.635279 
L 389.944188 236.453314 
L 390.091483 226.652634 
L 390.134805 227.858477 
L 390.152133 228.371601 
L 390.195455 226.703946 
L 390.282099 214.850768 
L 390.819291 135.034236 
L 390.853949 134.80333 
L 390.879942 135.367767 
L 391.053229 146.066415 
L 391.19186 157.688688 
L 391.235182 156.919001 
L 391.555764 150.966755 
L 391.74638 139.216202 
L 391.798367 140.678607 
L 392.300901 187.578196 
L 392.404874 197.840688 
L 392.45686 195.352033 
L 392.526175 193.427816 
L 392.560833 194.890221 
L 392.67347 196.429595 
L 392.682134 196.352626 
L 392.890079 183.60148 
L 392.976723 185.012573 
L 393.106689 185.57701 
L 393.124018 185.448728 
L 393.30597 175.083612 
L 393.461929 170.722052 
L 393.470593 170.850334 
L 393.695867 177.700547 
L 393.834497 188.604445 
L 394.15508 220.495139 
L 394.319703 230.62935 
L 394.345696 230.21885 
L 394.406347 228.756445 
L 394.674943 209.642553 
L 394.735594 210.335272 
L 394.839566 209.180741 
L 394.874224 210.155678 
L 395.00419 216.107923 
L 395.06484 214.055425 
L 395.177477 206.743399 
L 395.298779 197.250594 
L 395.333436 198.225531 
L 395.602032 218.23739 
L 395.740662 235.760596 
L 395.818642 233.374566 
L 395.887957 226.498696 
L 396.182546 205.537557 
L 396.243197 207.025618 
L 396.321176 214.517237 
L 396.728402 245.740869 
L 396.849704 251.077365 
L 396.90169 248.588711 
L 397.014327 246.664493 
L 397.022991 247.408524 
L 397.152957 253.001582 
L 397.17895 252.693707 
L 397.690149 191.683192 
L 397.707478 192.914691 
L 398.071382 227.550602 
L 398.16669 227.140102 
L 398.253334 226.113853 
L 398.279327 226.909196 
L 398.374636 230.757631 
L 398.417958 229.6031 
L 398.487273 221.649669 
L 398.487273 221.649669 
" style="fill:none;stroke:#1f77b4;stroke-linecap:square;stroke-width:1.5;"/>
   </g>
   <g id="patch_3">
    <path d="M 57.6 306.3024 
L 57.6 41.2992 
" style="fill:none;stroke:#000000;stroke-linecap:square;stroke-linejoin:miter;stroke-width:0.8;"/>
   </g>
   <g id="patch_4">
    <path d="M 414.72 306.3024 
L 414.72 41.2992 
" style="fill:none;stroke:#000000;stroke-linecap:square;stroke-linejoin:miter;stroke-width:0.8;"/>
   </g>
   <g id="patch_5">
    <path d="M 57.6 306.3024 
L 414.72 306.3024 
" style="fill:none;stroke:#000000;stroke-linecap:square;stroke-linejoin:miter;stroke-width:0.8;"/>
   </g>
   <g id="patch_6">
    <path d="M 57.6 41.2992 
L 414.72 41.2992 
" style="fill:none;stroke:#000000;stroke-linecap:square;stroke-linejoin:miter;stroke-width:0.8;"/>
   </g>
   <g id="text_16">
    <!-- Ritmo Cardíaco -->
    <g transform="translate(190.094063 35.2992)scale(0.12 -0.12)">
     <use xlink:href="#DejaVuSans-82"/>
     <use x="69.482422" xlink:href="#DejaVuSans-105"/>
     <use x="97.265625" xlink:href="#DejaVuSans-116"/>
     <use x="136.474609" xlink:href="#DejaVuSans-109"/>
     <use x="233.886719" xlink:href="#DejaVuSans-111"/>
     <use x="295.068359" xlink:href="#DejaVuSans-32"/>
     <use x="326.855469" xlink:href="#DejaVuSans-67"/>
     <use x="396.679688" xlink:href="#DejaVuSans-97"/>
     <use x="457.958984" xlink:href="#DejaVuSans-114"/>
     <use x="499.056641" xlink:href="#DejaVuSans-100"/>
     <use x="562.533203" xlink:href="#DejaVuSans-237"/>
     <use x="590.316406" xlink:href="#DejaVuSans-97"/>
     <use x="651.595703" xlink:href="#DejaVuSans-99"/>
     <use x="706.576172" xlink:href="#DejaVuSans-111"/>
    </g>
   </g>
  </g>
 </g>
 <defs>
  <clipPath id="pc57bdadf2d">
   <rect height="265.0032" width="357.12" x="57.6" y="41.2992"/>
  </clipPath>
 </defs>
</svg>
