<?xml version="1.0" encoding="utf-8" standalone="no"?>
<!DOCTYPE svg PUBLIC "-//W3C//DTD SVG 1.1//EN"
  "http://www.w3.org/Graphics/SVG/1.1/DTD/svg11.dtd">
<!-- Created with matplotlib (https://matplotlib.org/) -->
<svg height="344.16pt" version="1.1" viewBox="0 0 460.8 344.16" width="460.8pt" xmlns="http://www.w3.org/2000/svg" xmlns:xlink="http://www.w3.org/1999/xlink">
 <defs>
  <style type="text/css">
*{stroke-linecap:butt;stroke-linejoin:round;}
  </style>
 </defs>
 <g id="figure_1">
  <g id="patch_1">
   <path d="M 0 344.16 
L 460.8 344.16 
L 460.8 0 
L 0 0 
z
" style="fill:#ffffff;"/>
  </g>
  <g id="axes_1">
   <g id="patch_2">
    <path d="M 57.6 306.3024 
L 414.72 306.3024 
L 414.72 41.2992 
L 57.6 41.2992 
z
" style="fill:#ffffff;"/>
   </g>
   <g id="matplotlib.axis_1">
    <g id="xtick_1">
     <g id="line2d_1">
      <defs>
       <path d="M 0 0 
L 0 3.5 
" id="m435d26c467" style="stroke:#000000;stroke-width:0.8;"/>
      </defs>
      <g>
       <use style="stroke:#000000;stroke-width:0.8;" x="73.832727" xlink:href="#m435d26c467" y="306.3024"/>
      </g>
     </g>
     <g id="text_1">
      <!-- 0 -->
      <defs>
       <path d="M 31.78125 66.40625 
Q 24.171875 66.40625 20.328125 58.90625 
Q 16.5 51.421875 16.5 36.375 
Q 16.5 21.390625 20.328125 13.890625 
Q 24.171875 6.390625 31.78125 6.390625 
Q 39.453125 6.390625 43.28125 13.890625 
Q 47.125 21.390625 47.125 36.375 
Q 47.125 51.421875 43.28125 58.90625 
Q 39.453125 66.40625 31.78125 66.40625 
z
M 31.78125 74.21875 
Q 44.046875 74.21875 50.515625 64.515625 
Q 56.984375 54.828125 56.984375 36.375 
Q 56.984375 17.96875 50.515625 8.265625 
Q 44.046875 -1.421875 31.78125 -1.421875 
Q 19.53125 -1.421875 13.0625 8.265625 
Q 6.59375 17.96875 6.59375 36.375 
Q 6.59375 54.828125 13.0625 64.515625 
Q 19.53125 74.21875 31.78125 74.21875 
z
" id="DejaVuSans-48"/>
      </defs>
      <g transform="translate(70.651477 320.900838)scale(0.1 -0.1)">
       <use xlink:href="#DejaVuSans-48"/>
      </g>
     </g>
    </g>
    <g id="xtick_2">
     <g id="line2d_2">
      <g>
       <use style="stroke:#000000;stroke-width:0.8;" x="147.257403" xlink:href="#m435d26c467" y="306.3024"/>
      </g>
     </g>
     <g id="text_2">
      <!-- 10000 -->
      <defs>
       <path d="M 12.40625 8.296875 
L 28.515625 8.296875 
L 28.515625 63.921875 
L 10.984375 60.40625 
L 10.984375 69.390625 
L 28.421875 72.90625 
L 38.28125 72.90625 
L 38.28125 8.296875 
L 54.390625 8.296875 
L 54.390625 0 
L 12.40625 0 
z
" id="DejaVuSans-49"/>
      </defs>
      <g transform="translate(131.351153 320.900838)scale(0.1 -0.1)">
       <use xlink:href="#DejaVuSans-49"/>
       <use x="63.623047" xlink:href="#DejaVuSans-48"/>
       <use x="127.246094" xlink:href="#DejaVuSans-48"/>
       <use x="190.869141" xlink:href="#DejaVuSans-48"/>
       <use x="254.492188" xlink:href="#DejaVuSans-48"/>
      </g>
     </g>
    </g>
    <g id="xtick_3">
     <g id="line2d_3">
      <g>
       <use style="stroke:#000000;stroke-width:0.8;" x="220.682078" xlink:href="#m435d26c467" y="306.3024"/>
      </g>
     </g>
     <g id="text_3">
      <!-- 20000 -->
      <defs>
       <path d="M 19.1875 8.296875 
L 53.609375 8.296875 
L 53.609375 0 
L 7.328125 0 
L 7.328125 8.296875 
Q 12.9375 14.109375 22.625 23.890625 
Q 32.328125 33.6875 34.8125 36.53125 
Q 39.546875 41.84375 41.421875 45.53125 
Q 43.3125 49.21875 43.3125 52.78125 
Q 43.3125 58.59375 39.234375 62.25 
Q 35.15625 65.921875 28.609375 65.921875 
Q 23.96875 65.921875 18.8125 64.3125 
Q 13.671875 62.703125 7.8125 59.421875 
L 7.8125 69.390625 
Q 13.765625 71.78125 18.9375 73 
Q 24.125 74.21875 28.421875 74.21875 
Q 39.75 74.21875 46.484375 68.546875 
Q 53.21875 62.890625 53.21875 53.421875 
Q 53.21875 48.921875 51.53125 44.890625 
Q 49.859375 40.875 45.40625 35.40625 
Q 44.1875 33.984375 37.640625 27.21875 
Q 31.109375 20.453125 19.1875 8.296875 
z
" id="DejaVuSans-50"/>
      </defs>
      <g transform="translate(204.775828 320.900838)scale(0.1 -0.1)">
       <use xlink:href="#DejaVuSans-50"/>
       <use x="63.623047" xlink:href="#DejaVuSans-48"/>
       <use x="127.246094" xlink:href="#DejaVuSans-48"/>
       <use x="190.869141" xlink:href="#DejaVuSans-48"/>
       <use x="254.492188" xlink:href="#DejaVuSans-48"/>
      </g>
     </g>
    </g>
    <g id="xtick_4">
     <g id="line2d_4">
      <g>
       <use style="stroke:#000000;stroke-width:0.8;" x="294.106754" xlink:href="#m435d26c467" y="306.3024"/>
      </g>
     </g>
     <g id="text_4">
      <!-- 30000 -->
      <defs>
       <path d="M 40.578125 39.3125 
Q 47.65625 37.796875 51.625 33 
Q 55.609375 28.21875 55.609375 21.1875 
Q 55.609375 10.40625 48.1875 4.484375 
Q 40.765625 -1.421875 27.09375 -1.421875 
Q 22.515625 -1.421875 17.65625 -0.515625 
Q 12.796875 0.390625 7.625 2.203125 
L 7.625 11.71875 
Q 11.71875 9.328125 16.59375 8.109375 
Q 21.484375 6.890625 26.8125 6.890625 
Q 36.078125 6.890625 40.9375 10.546875 
Q 45.796875 14.203125 45.796875 21.1875 
Q 45.796875 27.640625 41.28125 31.265625 
Q 36.765625 34.90625 28.71875 34.90625 
L 20.21875 34.90625 
L 20.21875 43.015625 
L 29.109375 43.015625 
Q 36.375 43.015625 40.234375 45.921875 
Q 44.09375 48.828125 44.09375 54.296875 
Q 44.09375 59.90625 40.109375 62.90625 
Q 36.140625 65.921875 28.71875 65.921875 
Q 24.65625 65.921875 20.015625 65.03125 
Q 15.375 64.15625 9.8125 62.3125 
L 9.8125 71.09375 
Q 15.4375 72.65625 20.34375 73.4375 
Q 25.25 74.21875 29.59375 74.21875 
Q 40.828125 74.21875 47.359375 69.109375 
Q 53.90625 64.015625 53.90625 55.328125 
Q 53.90625 49.265625 50.4375 45.09375 
Q 46.96875 40.921875 40.578125 39.3125 
z
" id="DejaVuSans-51"/>
      </defs>
      <g transform="translate(278.200504 320.900838)scale(0.1 -0.1)">
       <use xlink:href="#DejaVuSans-51"/>
       <use x="63.623047" xlink:href="#DejaVuSans-48"/>
       <use x="127.246094" xlink:href="#DejaVuSans-48"/>
       <use x="190.869141" xlink:href="#DejaVuSans-48"/>
       <use x="254.492188" xlink:href="#DejaVuSans-48"/>
      </g>
     </g>
    </g>
    <g id="xtick_5">
     <g id="line2d_5">
      <g>
       <use style="stroke:#000000;stroke-width:0.8;" x="367.53143" xlink:href="#m435d26c467" y="306.3024"/>
      </g>
     </g>
     <g id="text_5">
      <!-- 40000 -->
      <defs>
       <path d="M 37.796875 64.3125 
L 12.890625 25.390625 
L 37.796875 25.390625 
z
M 35.203125 72.90625 
L 47.609375 72.90625 
L 47.609375 25.390625 
L 58.015625 25.390625 
L 58.015625 17.1875 
L 47.609375 17.1875 
L 47.609375 0 
L 37.796875 0 
L 37.796875 17.1875 
L 4.890625 17.1875 
L 4.890625 26.703125 
z
" id="DejaVuSans-52"/>
      </defs>
      <g transform="translate(351.62518 320.900838)scale(0.1 -0.1)">
       <use xlink:href="#DejaVuSans-52"/>
       <use x="63.623047" xlink:href="#DejaVuSans-48"/>
       <use x="127.246094" xlink:href="#DejaVuSans-48"/>
       <use x="190.869141" xlink:href="#DejaVuSans-48"/>
       <use x="254.492188" xlink:href="#DejaVuSans-48"/>
      </g>
     </g>
    </g>
    <g id="text_6">
     <!-- Muestras -->
     <defs>
      <path d="M 9.8125 72.90625 
L 24.515625 72.90625 
L 43.109375 23.296875 
L 61.8125 72.90625 
L 76.515625 72.90625 
L 76.515625 0 
L 66.890625 0 
L 66.890625 64.015625 
L 48.09375 14.015625 
L 38.1875 14.015625 
L 19.390625 64.015625 
L 19.390625 0 
L 9.8125 0 
z
" id="DejaVuSans-77"/>
      <path d="M 8.5 21.578125 
L 8.5 54.6875 
L 17.484375 54.6875 
L 17.484375 21.921875 
Q 17.484375 14.15625 20.5 10.265625 
Q 23.53125 6.390625 29.59375 6.390625 
Q 36.859375 6.390625 41.078125 11.03125 
Q 45.3125 15.671875 45.3125 23.6875 
L 45.3125 54.6875 
L 54.296875 54.6875 
L 54.296875 0 
L 45.3125 0 
L 45.3125 8.40625 
Q 42.046875 3.421875 37.71875 1 
Q 33.40625 -1.421875 27.6875 -1.421875 
Q 18.265625 -1.421875 13.375 4.4375 
Q 8.5 10.296875 8.5 21.578125 
z
M 31.109375 56 
z
" id="DejaVuSans-117"/>
      <path d="M 56.203125 29.59375 
L 56.203125 25.203125 
L 14.890625 25.203125 
Q 15.484375 15.921875 20.484375 11.0625 
Q 25.484375 6.203125 34.421875 6.203125 
Q 39.59375 6.203125 44.453125 7.46875 
Q 49.3125 8.734375 54.109375 11.28125 
L 54.109375 2.78125 
Q 49.265625 0.734375 44.1875 -0.34375 
Q 39.109375 -1.421875 33.890625 -1.421875 
Q 20.796875 -1.421875 13.15625 6.1875 
Q 5.515625 13.8125 5.515625 26.8125 
Q 5.515625 40.234375 12.765625 48.109375 
Q 20.015625 56 32.328125 56 
Q 43.359375 56 49.78125 48.890625 
Q 56.203125 41.796875 56.203125 29.59375 
z
M 47.21875 32.234375 
Q 47.125 39.59375 43.09375 43.984375 
Q 39.0625 48.390625 32.421875 48.390625 
Q 24.90625 48.390625 20.390625 44.140625 
Q 15.875 39.890625 15.1875 32.171875 
z
" id="DejaVuSans-101"/>
      <path d="M 44.28125 53.078125 
L 44.28125 44.578125 
Q 40.484375 46.53125 36.375 47.5 
Q 32.28125 48.484375 27.875 48.484375 
Q 21.1875 48.484375 17.84375 46.4375 
Q 14.5 44.390625 14.5 40.28125 
Q 14.5 37.15625 16.890625 35.375 
Q 19.28125 33.59375 26.515625 31.984375 
L 29.59375 31.296875 
Q 39.15625 29.25 43.1875 25.515625 
Q 47.21875 21.78125 47.21875 15.09375 
Q 47.21875 7.46875 41.1875 3.015625 
Q 35.15625 -1.421875 24.609375 -1.421875 
Q 20.21875 -1.421875 15.453125 -0.5625 
Q 10.6875 0.296875 5.421875 2 
L 5.421875 11.28125 
Q 10.40625 8.6875 15.234375 7.390625 
Q 20.0625 6.109375 24.8125 6.109375 
Q 31.15625 6.109375 34.5625 8.28125 
Q 37.984375 10.453125 37.984375 14.40625 
Q 37.984375 18.0625 35.515625 20.015625 
Q 33.0625 21.96875 24.703125 23.78125 
L 21.578125 24.515625 
Q 13.234375 26.265625 9.515625 29.90625 
Q 5.8125 33.546875 5.8125 39.890625 
Q 5.8125 47.609375 11.28125 51.796875 
Q 16.75 56 26.8125 56 
Q 31.78125 56 36.171875 55.265625 
Q 40.578125 54.546875 44.28125 53.078125 
z
" id="DejaVuSans-115"/>
      <path d="M 18.3125 70.21875 
L 18.3125 54.6875 
L 36.8125 54.6875 
L 36.8125 47.703125 
L 18.3125 47.703125 
L 18.3125 18.015625 
Q 18.3125 11.328125 20.140625 9.421875 
Q 21.96875 7.515625 27.59375 7.515625 
L 36.8125 7.515625 
L 36.8125 0 
L 27.59375 0 
Q 17.1875 0 13.234375 3.875 
Q 9.28125 7.765625 9.28125 18.015625 
L 9.28125 47.703125 
L 2.6875 47.703125 
L 2.6875 54.6875 
L 9.28125 54.6875 
L 9.28125 70.21875 
z
" id="DejaVuSans-116"/>
      <path d="M 41.109375 46.296875 
Q 39.59375 47.171875 37.8125 47.578125 
Q 36.03125 48 33.890625 48 
Q 26.265625 48 22.1875 43.046875 
Q 18.109375 38.09375 18.109375 28.8125 
L 18.109375 0 
L 9.078125 0 
L 9.078125 54.6875 
L 18.109375 54.6875 
L 18.109375 46.1875 
Q 20.953125 51.171875 25.484375 53.578125 
Q 30.03125 56 36.53125 56 
Q 37.453125 56 38.578125 55.875 
Q 39.703125 55.765625 41.0625 55.515625 
z
" id="DejaVuSans-114"/>
      <path d="M 34.28125 27.484375 
Q 23.390625 27.484375 19.1875 25 
Q 14.984375 22.515625 14.984375 16.5 
Q 14.984375 11.71875 18.140625 8.90625 
Q 21.296875 6.109375 26.703125 6.109375 
Q 34.1875 6.109375 38.703125 11.40625 
Q 43.21875 16.703125 43.21875 25.484375 
L 43.21875 27.484375 
z
M 52.203125 31.203125 
L 52.203125 0 
L 43.21875 0 
L 43.21875 8.296875 
Q 40.140625 3.328125 35.546875 0.953125 
Q 30.953125 -1.421875 24.3125 -1.421875 
Q 15.921875 -1.421875 10.953125 3.296875 
Q 6 8.015625 6 15.921875 
Q 6 25.140625 12.171875 29.828125 
Q 18.359375 34.515625 30.609375 34.515625 
L 43.21875 34.515625 
L 43.21875 35.40625 
Q 43.21875 41.609375 39.140625 45 
Q 35.0625 48.390625 27.6875 48.390625 
Q 23 48.390625 18.546875 47.265625 
Q 14.109375 46.140625 10.015625 43.890625 
L 10.015625 52.203125 
Q 14.9375 54.109375 19.578125 55.046875 
Q 24.21875 56 28.609375 56 
Q 40.484375 56 46.34375 49.84375 
Q 52.203125 43.703125 52.203125 31.203125 
z
" id="DejaVuSans-97"/>
     </defs>
     <g transform="translate(213.311562 334.578963)scale(0.1 -0.1)">
      <use xlink:href="#DejaVuSans-77"/>
      <use x="86.279297" xlink:href="#DejaVuSans-117"/>
      <use x="149.658203" xlink:href="#DejaVuSans-101"/>
      <use x="211.181641" xlink:href="#DejaVuSans-115"/>
      <use x="263.28125" xlink:href="#DejaVuSans-116"/>
      <use x="302.490234" xlink:href="#DejaVuSans-114"/>
      <use x="343.603516" xlink:href="#DejaVuSans-97"/>
      <use x="404.882812" xlink:href="#DejaVuSans-115"/>
     </g>
    </g>
   </g>
   <g id="matplotlib.axis_2">
    <g id="ytick_1">
     <g id="line2d_6">
      <defs>
       <path d="M 0 0 
L -3.5 0 
" id="m9cbef59841" style="stroke:#000000;stroke-width:0.8;"/>
      </defs>
      <g>
       <use style="stroke:#000000;stroke-width:0.8;" x="57.6" xlink:href="#m9cbef59841" y="278.11239"/>
      </g>
     </g>
     <g id="text_7">
      <!-- 60 -->
      <defs>
       <path d="M 33.015625 40.375 
Q 26.375 40.375 22.484375 35.828125 
Q 18.609375 31.296875 18.609375 23.390625 
Q 18.609375 15.53125 22.484375 10.953125 
Q 26.375 6.390625 33.015625 6.390625 
Q 39.65625 6.390625 43.53125 10.953125 
Q 47.40625 15.53125 47.40625 23.390625 
Q 47.40625 31.296875 43.53125 35.828125 
Q 39.65625 40.375 33.015625 40.375 
z
M 52.59375 71.296875 
L 52.59375 62.3125 
Q 48.875 64.0625 45.09375 64.984375 
Q 41.3125 65.921875 37.59375 65.921875 
Q 27.828125 65.921875 22.671875 59.328125 
Q 17.53125 52.734375 16.796875 39.40625 
Q 19.671875 43.65625 24.015625 45.921875 
Q 28.375 48.1875 33.59375 48.1875 
Q 44.578125 48.1875 50.953125 41.515625 
Q 57.328125 34.859375 57.328125 23.390625 
Q 57.328125 12.15625 50.6875 5.359375 
Q 44.046875 -1.421875 33.015625 -1.421875 
Q 20.359375 -1.421875 13.671875 8.265625 
Q 6.984375 17.96875 6.984375 36.375 
Q 6.984375 53.65625 15.1875 63.9375 
Q 23.390625 74.21875 37.203125 74.21875 
Q 40.921875 74.21875 44.703125 73.484375 
Q 48.484375 72.75 52.59375 71.296875 
z
" id="DejaVuSans-54"/>
      </defs>
      <g transform="translate(37.875 281.911608)scale(0.1 -0.1)">
       <use xlink:href="#DejaVuSans-54"/>
       <use x="63.623047" xlink:href="#DejaVuSans-48"/>
      </g>
     </g>
    </g>
    <g id="ytick_2">
     <g id="line2d_7">
      <g>
       <use style="stroke:#000000;stroke-width:0.8;" x="57.6" xlink:href="#m9cbef59841" y="232.50671"/>
      </g>
     </g>
     <g id="text_8">
      <!-- 80 -->
      <defs>
       <path d="M 31.78125 34.625 
Q 24.75 34.625 20.71875 30.859375 
Q 16.703125 27.09375 16.703125 20.515625 
Q 16.703125 13.921875 20.71875 10.15625 
Q 24.75 6.390625 31.78125 6.390625 
Q 38.8125 6.390625 42.859375 10.171875 
Q 46.921875 13.96875 46.921875 20.515625 
Q 46.921875 27.09375 42.890625 30.859375 
Q 38.875 34.625 31.78125 34.625 
z
M 21.921875 38.8125 
Q 15.578125 40.375 12.03125 44.71875 
Q 8.5 49.078125 8.5 55.328125 
Q 8.5 64.0625 14.71875 69.140625 
Q 20.953125 74.21875 31.78125 74.21875 
Q 42.671875 74.21875 48.875 69.140625 
Q 55.078125 64.0625 55.078125 55.328125 
Q 55.078125 49.078125 51.53125 44.71875 
Q 48 40.375 41.703125 38.8125 
Q 48.828125 37.15625 52.796875 32.3125 
Q 56.78125 27.484375 56.78125 20.515625 
Q 56.78125 9.90625 50.3125 4.234375 
Q 43.84375 -1.421875 31.78125 -1.421875 
Q 19.734375 -1.421875 13.25 4.234375 
Q 6.78125 9.90625 6.78125 20.515625 
Q 6.78125 27.484375 10.78125 32.3125 
Q 14.796875 37.15625 21.921875 38.8125 
z
M 18.3125 54.390625 
Q 18.3125 48.734375 21.84375 45.5625 
Q 25.390625 42.390625 31.78125 42.390625 
Q 38.140625 42.390625 41.71875 45.5625 
Q 45.3125 48.734375 45.3125 54.390625 
Q 45.3125 60.0625 41.71875 63.234375 
Q 38.140625 66.40625 31.78125 66.40625 
Q 25.390625 66.40625 21.84375 63.234375 
Q 18.3125 60.0625 18.3125 54.390625 
z
" id="DejaVuSans-56"/>
      </defs>
      <g transform="translate(37.875 236.305929)scale(0.1 -0.1)">
       <use xlink:href="#DejaVuSans-56"/>
       <use x="63.623047" xlink:href="#DejaVuSans-48"/>
      </g>
     </g>
    </g>
    <g id="ytick_3">
     <g id="line2d_8">
      <g>
       <use style="stroke:#000000;stroke-width:0.8;" x="57.6" xlink:href="#m9cbef59841" y="186.901031"/>
      </g>
     </g>
     <g id="text_9">
      <!-- 100 -->
      <g transform="translate(31.5125 190.70025)scale(0.1 -0.1)">
       <use xlink:href="#DejaVuSans-49"/>
       <use x="63.623047" xlink:href="#DejaVuSans-48"/>
       <use x="127.246094" xlink:href="#DejaVuSans-48"/>
      </g>
     </g>
    </g>
    <g id="ytick_4">
     <g id="line2d_9">
      <g>
       <use style="stroke:#000000;stroke-width:0.8;" x="57.6" xlink:href="#m9cbef59841" y="141.295352"/>
      </g>
     </g>
     <g id="text_10">
      <!-- 120 -->
      <g transform="translate(31.5125 145.094571)scale(0.1 -0.1)">
       <use xlink:href="#DejaVuSans-49"/>
       <use x="63.623047" xlink:href="#DejaVuSans-50"/>
       <use x="127.246094" xlink:href="#DejaVuSans-48"/>
      </g>
     </g>
    </g>
    <g id="ytick_5">
     <g id="line2d_10">
      <g>
       <use style="stroke:#000000;stroke-width:0.8;" x="57.6" xlink:href="#m9cbef59841" y="95.689673"/>
      </g>
     </g>
     <g id="text_11">
      <!-- 140 -->
      <g transform="translate(31.5125 99.488892)scale(0.1 -0.1)">
       <use xlink:href="#DejaVuSans-49"/>
       <use x="63.623047" xlink:href="#DejaVuSans-52"/>
       <use x="127.246094" xlink:href="#DejaVuSans-48"/>
      </g>
     </g>
    </g>
    <g id="ytick_6">
     <g id="line2d_11">
      <g>
       <use style="stroke:#000000;stroke-width:0.8;" x="57.6" xlink:href="#m9cbef59841" y="50.083994"/>
      </g>
     </g>
     <g id="text_12">
      <!-- 160 -->
      <g transform="translate(31.5125 53.883213)scale(0.1 -0.1)">
       <use xlink:href="#DejaVuSans-49"/>
       <use x="63.623047" xlink:href="#DejaVuSans-54"/>
       <use x="127.246094" xlink:href="#DejaVuSans-48"/>
      </g>
     </g>
    </g>
    <g id="text_13">
     <!-- Valor de Ritmo Cardíaco -->
     <defs>
      <path d="M 28.609375 0 
L 0.78125 72.90625 
L 11.078125 72.90625 
L 34.1875 11.53125 
L 57.328125 72.90625 
L 67.578125 72.90625 
L 39.796875 0 
z
" id="DejaVuSans-86"/>
      <path d="M 9.421875 75.984375 
L 18.40625 75.984375 
L 18.40625 0 
L 9.421875 0 
z
" id="DejaVuSans-108"/>
      <path d="M 30.609375 48.390625 
Q 23.390625 48.390625 19.1875 42.75 
Q 14.984375 37.109375 14.984375 27.296875 
Q 14.984375 17.484375 19.15625 11.84375 
Q 23.34375 6.203125 30.609375 6.203125 
Q 37.796875 6.203125 41.984375 11.859375 
Q 46.1875 17.53125 46.1875 27.296875 
Q 46.1875 37.015625 41.984375 42.703125 
Q 37.796875 48.390625 30.609375 48.390625 
z
M 30.609375 56 
Q 42.328125 56 49.015625 48.375 
Q 55.71875 40.765625 55.71875 27.296875 
Q 55.71875 13.875 49.015625 6.21875 
Q 42.328125 -1.421875 30.609375 -1.421875 
Q 18.84375 -1.421875 12.171875 6.21875 
Q 5.515625 13.875 5.515625 27.296875 
Q 5.515625 40.765625 12.171875 48.375 
Q 18.84375 56 30.609375 56 
z
" id="DejaVuSans-111"/>
      <path id="DejaVuSans-32"/>
      <path d="M 45.40625 46.390625 
L 45.40625 75.984375 
L 54.390625 75.984375 
L 54.390625 0 
L 45.40625 0 
L 45.40625 8.203125 
Q 42.578125 3.328125 38.25 0.953125 
Q 33.9375 -1.421875 27.875 -1.421875 
Q 17.96875 -1.421875 11.734375 6.484375 
Q 5.515625 14.40625 5.515625 27.296875 
Q 5.515625 40.1875 11.734375 48.09375 
Q 17.96875 56 27.875 56 
Q 33.9375 56 38.25 53.625 
Q 42.578125 51.265625 45.40625 46.390625 
z
M 14.796875 27.296875 
Q 14.796875 17.390625 18.875 11.75 
Q 22.953125 6.109375 30.078125 6.109375 
Q 37.203125 6.109375 41.296875 11.75 
Q 45.40625 17.390625 45.40625 27.296875 
Q 45.40625 37.203125 41.296875 42.84375 
Q 37.203125 48.484375 30.078125 48.484375 
Q 22.953125 48.484375 18.875 42.84375 
Q 14.796875 37.203125 14.796875 27.296875 
z
" id="DejaVuSans-100"/>
      <path d="M 44.390625 34.1875 
Q 47.5625 33.109375 50.5625 29.59375 
Q 53.5625 26.078125 56.59375 19.921875 
L 66.609375 0 
L 56 0 
L 46.6875 18.703125 
Q 43.0625 26.03125 39.671875 28.421875 
Q 36.28125 30.8125 30.421875 30.8125 
L 19.671875 30.8125 
L 19.671875 0 
L 9.8125 0 
L 9.8125 72.90625 
L 32.078125 72.90625 
Q 44.578125 72.90625 50.734375 67.671875 
Q 56.890625 62.453125 56.890625 51.90625 
Q 56.890625 45.015625 53.6875 40.46875 
Q 50.484375 35.9375 44.390625 34.1875 
z
M 19.671875 64.796875 
L 19.671875 38.921875 
L 32.078125 38.921875 
Q 39.203125 38.921875 42.84375 42.21875 
Q 46.484375 45.515625 46.484375 51.90625 
Q 46.484375 58.296875 42.84375 61.546875 
Q 39.203125 64.796875 32.078125 64.796875 
z
" id="DejaVuSans-82"/>
      <path d="M 9.421875 54.6875 
L 18.40625 54.6875 
L 18.40625 0 
L 9.421875 0 
z
M 9.421875 75.984375 
L 18.40625 75.984375 
L 18.40625 64.59375 
L 9.421875 64.59375 
z
" id="DejaVuSans-105"/>
      <path d="M 52 44.1875 
Q 55.375 50.25 60.0625 53.125 
Q 64.75 56 71.09375 56 
Q 79.640625 56 84.28125 50.015625 
Q 88.921875 44.046875 88.921875 33.015625 
L 88.921875 0 
L 79.890625 0 
L 79.890625 32.71875 
Q 79.890625 40.578125 77.09375 44.375 
Q 74.3125 48.1875 68.609375 48.1875 
Q 61.625 48.1875 57.5625 43.546875 
Q 53.515625 38.921875 53.515625 30.90625 
L 53.515625 0 
L 44.484375 0 
L 44.484375 32.71875 
Q 44.484375 40.625 41.703125 44.40625 
Q 38.921875 48.1875 33.109375 48.1875 
Q 26.21875 48.1875 22.15625 43.53125 
Q 18.109375 38.875 18.109375 30.90625 
L 18.109375 0 
L 9.078125 0 
L 9.078125 54.6875 
L 18.109375 54.6875 
L 18.109375 46.1875 
Q 21.1875 51.21875 25.484375 53.609375 
Q 29.78125 56 35.6875 56 
Q 41.65625 56 45.828125 52.96875 
Q 50 49.953125 52 44.1875 
z
" id="DejaVuSans-109"/>
      <path d="M 64.40625 67.28125 
L 64.40625 56.890625 
Q 59.421875 61.53125 53.78125 63.8125 
Q 48.140625 66.109375 41.796875 66.109375 
Q 29.296875 66.109375 22.65625 58.46875 
Q 16.015625 50.828125 16.015625 36.375 
Q 16.015625 21.96875 22.65625 14.328125 
Q 29.296875 6.6875 41.796875 6.6875 
Q 48.140625 6.6875 53.78125 8.984375 
Q 59.421875 11.28125 64.40625 15.921875 
L 64.40625 5.609375 
Q 59.234375 2.09375 53.4375 0.328125 
Q 47.65625 -1.421875 41.21875 -1.421875 
Q 24.65625 -1.421875 15.125 8.703125 
Q 5.609375 18.84375 5.609375 36.375 
Q 5.609375 53.953125 15.125 64.078125 
Q 24.65625 74.21875 41.21875 74.21875 
Q 47.75 74.21875 53.53125 72.484375 
Q 59.328125 70.75 64.40625 67.28125 
z
" id="DejaVuSans-67"/>
      <path d="M 20.703125 79.984375 
L 30.421875 79.984375 
L 14.5 61.625 
L 7.03125 61.625 
z
M 9.421875 54.6875 
L 18.40625 54.6875 
L 18.40625 0 
L 9.421875 0 
z
M 13.921875 56 
z
" id="DejaVuSans-237"/>
      <path d="M 48.78125 52.59375 
L 48.78125 44.1875 
Q 44.96875 46.296875 41.140625 47.34375 
Q 37.3125 48.390625 33.40625 48.390625 
Q 24.65625 48.390625 19.8125 42.84375 
Q 14.984375 37.3125 14.984375 27.296875 
Q 14.984375 17.28125 19.8125 11.734375 
Q 24.65625 6.203125 33.40625 6.203125 
Q 37.3125 6.203125 41.140625 7.25 
Q 44.96875 8.296875 48.78125 10.40625 
L 48.78125 2.09375 
Q 45.015625 0.34375 40.984375 -0.53125 
Q 36.96875 -1.421875 32.421875 -1.421875 
Q 20.0625 -1.421875 12.78125 6.34375 
Q 5.515625 14.109375 5.515625 27.296875 
Q 5.515625 40.671875 12.859375 48.328125 
Q 20.21875 56 33.015625 56 
Q 37.15625 56 41.109375 55.140625 
Q 45.0625 54.296875 48.78125 52.59375 
z
" id="DejaVuSans-99"/>
     </defs>
     <g transform="translate(25.432812 234.6008)rotate(-90)scale(0.1 -0.1)">
      <use xlink:href="#DejaVuSans-86"/>
      <use x="68.298828" xlink:href="#DejaVuSans-97"/>
      <use x="129.578125" xlink:href="#DejaVuSans-108"/>
      <use x="157.361328" xlink:href="#DejaVuSans-111"/>
      <use x="218.542969" xlink:href="#DejaVuSans-114"/>
      <use x="259.65625" xlink:href="#DejaVuSans-32"/>
      <use x="291.443359" xlink:href="#DejaVuSans-100"/>
      <use x="354.919922" xlink:href="#DejaVuSans-101"/>
      <use x="416.443359" xlink:href="#DejaVuSans-32"/>
      <use x="448.230469" xlink:href="#DejaVuSans-82"/>
      <use x="517.712891" xlink:href="#DejaVuSans-105"/>
      <use x="545.496094" xlink:href="#DejaVuSans-116"/>
      <use x="584.705078" xlink:href="#DejaVuSans-109"/>
      <use x="682.117188" xlink:href="#DejaVuSans-111"/>
      <use x="743.298828" xlink:href="#DejaVuSans-32"/>
      <use x="775.085938" xlink:href="#DejaVuSans-67"/>
      <use x="844.910156" xlink:href="#DejaVuSans-97"/>
      <use x="906.189453" xlink:href="#DejaVuSans-114"/>
      <use x="947.287109" xlink:href="#DejaVuSans-100"/>
      <use x="1010.763672" xlink:href="#DejaVuSans-237"/>
      <use x="1038.546875" xlink:href="#DejaVuSans-97"/>
      <use x="1099.826172" xlink:href="#DejaVuSans-99"/>
      <use x="1154.806641" xlink:href="#DejaVuSans-111"/>
     </g>
    </g>
   </g>
   <g id="line2d_12">
    <path clip-path="url(#p3b59a430db)" d="M 73.832727 233.259204 
L 73.84007 214.83451 
L 73.942864 217.684865 
L 73.957549 218.825007 
L 74.104399 234.216923 
L 74.163138 232.415499 
L 74.185166 231.708611 
L 74.273275 230.294835 
L 74.31733 230.522863 
L 74.37607 232.324288 
L 74.412782 230.636878 
L 74.559632 213.990805 
L 74.750536 202.22454 
L 74.787248 202.406962 
L 74.801933 202.566582 
L 74.838645 201.540454 
L 75.022207 197.344732 
L 75.411358 164.896291 
L 75.47744 169.297239 
L 76.277769 249.312403 
L 76.527413 233.829275 
L 76.894536 203.934752 
L 77.004673 205.143303 
L 77.122153 208.49532 
L 77.158865 206.283445 
L 77.276345 189.021695 
L 77.584728 150.462094 
L 77.614098 150.370882 
L 77.643468 150.758531 
L 77.672838 150.804136 
L 77.73892 153.198434 
L 78.172126 199.73903 
L 78.179468 199.625016 
L 78.260235 198.53048 
L 78.27492 199.556607 
L 78.612674 224.571322 
L 78.700783 229.998398 
L 78.744838 227.877734 
L 78.891687 221.606953 
L 78.935742 222.177024 
L 78.950427 222.291038 
L 79.009167 221.720967 
L 79.053222 220.261586 
L 79.133989 217.00078 
L 79.185386 218.026907 
L 79.339578 230.340441 
L 79.545167 238.161815 
L 79.647962 234.490558 
L 79.787468 215.632609 
L 79.985715 200.856369 
L 80.242701 196.478224 
L 80.396893 182.95614 
L 80.749332 149.207938 
L 80.830099 142.139057 
L 80.881496 146.243568 
L 81.138482 165.625982 
L 81.300017 210.000308 
L 81.402811 201.9053 
L 81.454209 201.677271 
L 81.424839 202.06492 
L 81.468894 201.791286 
L 81.505606 203.136653 
L 81.542318 199.328579 
L 81.740565 157.485368 
L 81.880072 159.42361 
L 81.968181 162.205556 
L 82.078318 160.860189 
L 82.247195 157.530974 
L 82.26188 158.62551 
L 82.518866 213.124297 
L 82.79788 263.860615 
L 82.834592 262.424036 
L 82.863962 260.029738 
L 82.930045 263.472967 
L 82.952072 263.700995 
L 83.003469 262.674867 
L 83.223743 242.494354 
L 83.488072 223.499589 
L 83.590867 230.066807 
L 83.627579 225.43783 
L 83.730374 218.893415 
L 83.774428 219.919543 
L 83.789113 219.805529 
L 84.112182 253.530929 
L 84.200291 247.784613 
L 84.413223 240.943761 
L 84.5821 231.024526 
L 84.633497 234.034501 
L 84.897826 264.043038 
L 85.162155 287.917611 
L 85.250264 289.513809 
L 85.264949 288.487682 
L 85.499908 253.530929 
L 85.705497 216.271089 
L 85.764237 216.818357 
L 85.896401 225.027379 
L 86.234155 252.117152 
L 86.344292 256.221664 
L 86.381004 254.899099 
L 86.792183 224.115265 
L 86.81421 224.913365 
L 87.085881 245.002667 
L 87.137278 242.038297 
L 87.475032 212.850663 
L 88.040402 147.794161 
L 88.121169 135.936685 
L 88.194594 139.585139 
L 88.304731 153.038815 
L 88.752621 259.300047 
L 88.759964 259.00361 
L 88.774649 258.615962 
L 88.840731 259.915724 
L 88.980238 266.642561 
L 88.994923 263.290544 
L 89.303306 215.792229 
L 89.332676 216.316694 
L 89.369389 214.99413 
L 89.420786 210.844013 
L 89.442813 216.385103 
L 89.574978 247.100528 
L 89.648402 241.673452 
L 89.868676 216.134272 
L 90.14769 189.911006 
L 90.272512 193.855897 
L 90.338594 191.461599 
L 90.580896 180.561842 
L 90.727745 164.736671 
L 91.072841 142.4811 
L 91.087526 142.367086 
L 91.124238 142.891551 
L 91.227033 152.423138 
L 91.454649 169.912916 
L 91.601499 179.330489 
L 91.711636 191.051148 
L 91.763033 189.454949 
L 92.012677 167.632632 
L 92.210924 143.279199 
L 92.218266 143.644045 
L 92.284348 153.426463 
L 92.717554 229.040679 
L 92.886431 242.425946 
L 92.967198 238.937111 
L 93.224184 196.820267 
L 93.326979 183.708634 
L 93.400403 185.829298 
L 93.65739 203.250667 
L 93.701444 201.449243 
L 93.899691 194.950434 
L 93.929061 195.56611 
L 94.384294 239.917633 
L 94.391636 239.758013 
L 94.406321 239.507182 
L 94.435691 241.331409 
L 94.545828 251.387462 
L 94.648623 249.76846 
L 94.685335 249.882474 
L 94.72939 248.628318 
L 94.780787 246.462048 
L 94.839527 247.898627 
L 94.854212 248.810741 
L 94.883582 244.54661 
L 95.052459 234.330938 
L 95.272733 207.377981 
L 95.493007 182.910534 
L 95.617829 179.26208 
L 95.639856 180.675856 
L 95.808733 213.420734 
L 96.219911 282.627352 
L 96.249281 282.216901 
L 96.263966 282.148492 
L 96.381445 275.877711 
L 96.660459 243.566088 
L 96.697171 242.425946 
L 96.741226 241.74186 
L 96.785281 243.178439 
L 96.799966 242.722383 
L 96.939473 254.853493 
L 96.983527 253.986985 
L 97.034925 251.843518 
L 97.211144 223.27156 
L 97.482815 183.891057 
L 97.534213 182.294858 
L 97.600295 183.092957 
L 97.857281 190.959937 
L 98.00413 202.977033 
L 98.231747 215.016933 
L 98.246432 214.880115 
L 98.341884 212.713846 
L 98.496076 206.283445 
L 98.525446 207.720024 
L 98.804459 221.629756 
L 98.819144 220.831657 
L 99.178925 184.005071 
L 99.230323 188.793667 
L 99.347802 206.283445 
L 99.590103 230.294835 
L 99.619473 231.29816 
L 99.656186 228.333791 
L 99.825062 214.67489 
L 99.87646 217.570851 
L 100.074706 236.451602 
L 100.309665 264.613109 
L 100.551967 245.344709 
L 100.669446 240.328084 
L 100.698816 240.898155 
L 100.816296 250.133305 
L 100.845665 252.846843 
L 100.933775 251.547081 
L 100.94846 251.501476 
L 100.97783 251.889124 
L 101.043912 252.390787 
L 101.065939 251.820716 
L 101.095309 251.205039 
L 101.124679 253.439717 
L 101.176076 257.019763 
L 101.227474 253.553731 
L 101.719419 198.37086 
L 101.756131 199.488199 
L 101.932351 207.925249 
L 102.218707 237.910983 
L 102.284789 236.793644 
L 102.358214 232.438302 
L 102.402269 229.200299 
L 102.475693 231.822625 
L 102.842817 255.993635 
L 103.187913 232.096259 
L 103.246652 227.193649 
L 103.320077 228.219777 
L 103.342104 228.333791 
L 103.356789 227.535691 
L 103.430214 222.427855 
L 103.584406 210.729999 
L 103.621118 213.192705 
L 103.6872 218.186527 
L 103.753283 216.430709 
L 103.782652 217.160399 
L 103.936844 233.532838 
L 104.024954 232.278682 
L 104.127748 230.044004 
L 104.149776 231.320963 
L 104.568296 245.093878 
L 104.656406 243.74851 
L 104.737173 242.083903 
L 104.781228 243.452073 
L 104.854653 243.292454 
L 104.90605 244.090553 
L 104.99416 233.008373 
L 105.170379 226.349944 
L 105.185064 226.304338 
L 105.309886 225.483436 
L 105.331913 225.551844 
L 105.346598 225.506239 
L 105.35394 225.939493 
L 105.566872 244.136159 
L 105.596242 243.862525 
L 105.625612 244.318581 
L 105.647639 244.637821 
L 105.691694 243.90813 
L 105.838543 236.223573 
L 105.889941 237.637349 
L 105.911968 237.591744 
L 106.132242 232.780345 
L 106.146927 233.031176 
L 106.183639 234.034501 
L 106.205667 232.347091 
L 106.315804 212.713846 
L 106.668242 148.250218 
L 106.704955 144.32813 
L 106.807749 137.304855 
L 106.851804 138.62742 
L 107.130818 155.72955 
L 107.395146 199.054945 
L 107.549338 212.371803 
L 107.593393 211.642112 
L 107.600736 211.710521 
L 107.630105 211.14045 
L 107.740242 207.263967 
L 107.784297 208.609335 
L 107.843037 214.218833 
L 107.931147 217.684865 
L 107.960516 215.678215 
L 107.989886 214.446862 
L 108.055969 216.134272 
L 108.18079 220.238783 
L 108.21016 219.691515 
L 108.290928 214.99413 
L 108.379037 209.931899 
L 108.437777 211.984155 
L 108.628681 219.965149 
L 108.672736 219.098641 
L 108.687421 218.870612 
L 108.738818 219.782726 
L 108.915037 226.874409 
L 108.929722 226.737592 
L 108.937065 226.463958 
L 108.981119 228.561819 
L 109.164681 242.722383 
L 109.194051 241.057775 
L 109.414325 231.366568 
L 109.443695 230.272032 
L 109.634599 218.596978 
L 109.685996 223.955646 
L 109.840188 234.444952 
L 109.869558 232.894359 
L 110.214654 206.397459 
L 110.412901 194.35756 
L 110.58912 197.162309 
L 110.640517 196.751858 
L 110.780024 189.819795 
L 111.000298 180.447828 
L 111.007641 180.470631 
L 111.081065 182.728112 
L 111.191202 186.673003 
L 111.734545 220.717642 
L 112.101668 259.414061 
L 112.116353 259.368455 
L 112.123696 259.414061 
L 112.138381 259.00361 
L 112.211805 257.931877 
L 112.248518 258.958004 
L 112.402709 265.046363 
L 112.454107 261.853965 
L 112.490819 259.984132 
L 112.520189 262.994107 
L 112.667038 270.929495 
L 112.689066 270.541847 
L 112.784518 266.87059 
L 112.901997 256.290072 
L 113.004792 247.488176 
L 113.078216 251.820716 
L 113.210381 259.710498 
L 113.408627 270.08579 
L 113.437997 270.997904 
L 113.47471 268.694817 
L 113.628901 249.677249 
L 114.135532 173.173722 
L 114.142874 173.447356 
L 114.223641 180.402222 
L 114.473285 203.319076 
L 114.590765 211.117647 
L 114.649504 209.088194 
L 114.700902 204.755655 
L 114.796354 205.188909 
L 115.031313 200.993186 
L 115.11208 197.663972 
L 115.178162 198.712902 
L 115.258929 201.221215 
L 115.310326 199.374185 
L 115.339696 199.442593 
L 115.361724 199.054945 
L 115.449833 198.028817 
L 115.479203 198.576085 
L 115.530601 199.396987 
L 115.567313 198.234043 
L 115.684792 193.673475 
L 115.714162 195.178462 
L 115.912409 205.211712 
L 116.12534 213.010283 
L 116.198765 210.684393 
L 116.595258 201.608863 
L 117.043149 210.091519 
L 117.571807 243.90813 
L 117.652574 249.60884 
L 117.696628 252.755632 
L 117.762711 250.224517 
L 117.960957 235.585094 
L 118.005012 237.135687 
L 118.041724 239.849225 
L 118.078437 235.813122 
L 118.181231 228.242579 
L 118.225286 230.682483 
L 118.291368 238.321435 
L 118.335423 242.38034 
L 118.394163 237.933786 
L 118.467588 220.991276 
L 118.592409 206.351853 
L 118.621779 206.579882 
L 118.695204 207.263967 
L 118.658492 206.443065 
L 118.717231 206.853516 
L 118.812684 203.27347 
L 118.856738 204.96088 
L 119.018273 222.085813 
L 119.113725 220.603628 
L 119.121067 220.352797 
L 119.172464 222.085813 
L 119.378054 250.566559 
L 119.730492 292.592193 
L 119.759862 292.478179 
L 119.789232 292.979841 
L 119.862656 294.2568 
L 119.899369 293.435898 
L 120.097615 289.468204 
L 120.354602 282.85538 
L 120.70704 224.183674 
L 120.897944 209.475842 
L 121.30178 187.539511 
L 121.382547 189.454949 
L 121.411917 189.705781 
L 121.426602 188.953287 
L 121.477999 187.516708 
L 121.507369 189.682978 
L 121.764355 215.746623 
L 121.918547 231.434977 
L 121.969945 227.102437 
L 122.036027 216.3623 
L 122.315041 170.756621 
L 122.322383 170.779424 
L 122.395808 171.326692 
L 122.425178 170.779424 
L 122.43252 170.551395 
L 122.454547 172.35282 
L 123.144739 253.074872 
L 123.269561 249.882474 
L 123.350328 241.057775 
L 123.585287 197.048295 
L 123.754164 200.856369 
L 124.033178 256.335678 
L 124.158 247.853021 
L 124.290164 237.933786 
L 124.341562 239.849225 
L 124.392959 241.217395 
L 124.466384 240.419296 
L 124.473726 239.917633 
L 124.532466 243.292454 
L 124.583863 245.549935 
L 124.657288 244.181764 
L 124.686658 243.520482 
L 124.995041 210.091519 
L 125.112521 212.941874 
L 125.134548 212.166578 
L 125.163918 210.570379 
L 125.25937 211.026436 
L 125.310767 211.368478 
L 125.325452 210.958027 
L 125.516356 206.511473 
L 125.545726 206.283445 
L 125.575096 207.035939 
L 125.582439 207.469193 
L 125.641178 204.732852 
L 125.758658 198.120028 
L 125.810055 198.234043 
L 125.839425 197.846394 
L 125.890822 198.644494 
L 126.045014 208.49532 
L 126.397453 248.195064 
L 126.456192 245.91478 
L 127.249179 203.364681 
L 127.278549 203.205062 
L 127.322603 203.547104 
L 127.425398 208.518123 
L 127.49148 206.465868 
L 127.528193 205.530951 
L 127.57959 207.355178 
L 127.660357 212.896268 
L 128.11559 248.993163 
L 128.14496 248.628318 
L 128.166987 250.133305 
L 128.416631 266.437336 
L 128.497398 263.130924 
L 128.65159 247.260148 
L 128.901234 226.463958 
L 129.048083 221.150896 
L 129.099481 221.492939 
L 129.165563 225.164196 
L 129.224303 222.313841 
L 129.532686 189.911006 
L 129.650166 194.653997 
L 129.686878 196.546632 
L 129.987919 227.079635 
L 130.098056 226.463958 
L 130.296303 230.044004 
L 130.303645 229.998398 
L 130.310988 229.998398 
L 130.758878 243.680102 
L 130.788248 245.800766 
L 130.846988 242.129509 
L 131.228796 221.219305 
L 131.258166 223.499589 
L 131.316906 226.281535 
L 131.360961 223.339969 
L 131.39033 222.655884 
L 131.44907 224.22928 
L 131.456413 224.22928 
L 131.500467 226.23593 
L 131.581235 230.750892 
L 131.632632 228.744242 
L 132.04381 212.599832 
L 132.080522 213.010283 
L 132.087865 213.010283 
L 132.109892 212.736649 
L 132.139262 213.648762 
L 132.278769 226.874409 
L 132.535755 246.826894 
L 132.594495 243.452073 
L 132.814769 231.024526 
L 132.858824 230.500061 
L 132.888194 231.184146 
L 132.968961 239.803619 
L 133.255317 271.887214 
L 133.365454 278.682461 
L 133.409509 276.584599 
L 133.703208 223.773223 
L 133.982221 123.007475 
L 134.085016 129.164242 
L 134.24655 168.316717 
L 134.474167 225.141393 
L 134.554934 222.701489 
L 134.731153 217.684865 
L 134.767866 218.300541 
L 134.98814 220.991276 
L 135.032194 219.851135 
L 135.428688 210.34235 
L 135.43603 210.456365 
L 135.648962 227.148043 
L 135.817838 226.463958 
L 135.839866 226.737592 
L 135.869236 226.07631 
L 135.94266 220.147571 
L 136.206989 190.709106 
L 136.229017 192.305304 
L 136.339154 206.625488 
L 136.676907 277.245882 
L 136.779702 269.264888 
L 137.022003 239.917633 
L 137.13214 229.92999 
L 137.198222 231.434977 
L 137.212907 231.412174 
L 137.227592 231.594597 
L 137.264304 230.066807 
L 137.411154 224.594125 
L 137.565346 220.033557 
L 137.6094 222.085813 
L 137.624085 222.313841 
L 137.66814 220.580825 
L 137.822332 205.827388 
L 137.917784 210.34235 
L 138.005894 217.342822 
L 138.064633 212.964677 
L 138.152743 206.443065 
L 138.211483 208.518123 
L 138.26288 213.078691 
L 138.336305 210.34235 
L 138.373017 210.729999 
L 138.453784 210.091519 
L 138.541894 213.352325 
L 138.710771 220.033557 
L 138.747483 220.147571 
L 138.776853 219.5775 
L 138.813565 217.844485 
L 138.894332 219.212655 
L 138.901675 219.235458 
L 139.254113 245.618343 
L 139.371593 242.311931 
L 139.496415 238.959914 
L 139.533127 239.758013 
L 139.540469 239.643999 
L 139.555154 240.898155 
L 139.591867 243.292454 
L 139.650606 239.187942 
L 139.679976 238.617871 
L 139.746059 239.461577 
L 139.760743 239.735211 
L 139.834168 239.051125 
L 140.01773 230.226427 
L 140.061785 232.66633 
L 140.113182 235.402671 
L 140.179264 233.578444 
L 140.260031 230.728089 
L 140.296744 232.917162 
L 140.443593 241.924283 
L 140.480305 240.829747 
L 140.52436 239.461577 
L 140.671209 237.865378 
L 140.685894 238.0478 
L 140.774004 237.751364 
L 140.803374 238.389843 
L 140.876799 237.865378 
L 140.825401 238.481054 
L 140.898826 238.275829 
L 140.986936 244.934258 
L 141.133785 260.508597 
L 141.185182 258.570356 
L 141.368744 240.305282 
L 141.456853 225.734267 
L 141.62573 212.782254 
L 141.699155 213.30672 
L 141.765237 211.824535 
L 141.831319 210.319548 
L 141.963484 202.817413 
L 142.117676 198.576085 
L 142.139703 198.986536 
L 142.330607 209.019786 
L 142.602278 252.573209 
L 142.624306 252.003138 
L 142.87395 232.689133 
L 143.064854 213.580354 
L 143.079539 214.082016 
L 143.086881 214.03641 
L 143.101566 214.492467 
L 143.174991 217.297216 
L 143.248416 215.701018 
L 143.2631 215.518595 
L 143.277785 215.792229 
L 143.461347 242.357537 
L 143.512744 241.468226 
L 143.630224 240.031648 
L 143.571484 241.513832 
L 143.674279 240.943761 
L 143.718333 242.927608 
L 143.733018 240.601719 
L 143.901895 224.480111 
L 143.923923 225.59745 
L 144.158882 233.943289 
L 144.188251 235.31146 
L 144.261676 243.976539 
L 144.342443 242.015495 
L 144.922498 219.121444 
L 144.973895 219.349472 
L 145.010608 218.939021 
L 145.098717 217.684865 
L 145.150115 218.140922 
L 145.223539 219.623106 
L 145.436471 234.490558 
L 145.598005 233.578444 
L 145.832964 224.001251 
L 145.854992 223.545195 
L 145.891704 225.483436 
L 146.060581 231.822625 
L 146.097293 232.894359 
L 146.134005 231.024526 
L 146.383649 214.652087 
L 146.559868 209.977505 
L 146.427704 215.518595 
L 146.581896 211.573704 
L 146.706718 221.173699 
L 146.780142 219.281064 
L 146.838882 220.580825 
L 146.86091 218.825007 
L 146.868252 218.437358 
L 146.941677 220.261586 
L 147.161951 227.76372 
L 147.316143 238.435449 
L 147.374882 239.347562 
L 147.418937 238.20742 
L 147.529074 237.135687 
L 147.551102 237.340912 
L 147.558444 237.409321 
L 147.587814 236.884856 
L 148.116472 221.401728 
L 148.204581 222.701489 
L 148.241293 222.54187 
L 148.285348 224.001251 
L 148.520307 236.383193 
L 148.52765 236.314785 
L 148.55702 236.337588 
L 148.571705 236.223573 
L 148.777294 230.636878 
L 148.902116 226.053507 
L 148.924143 227.490086 
L 149.056307 229.017876 
L 149.070992 228.858256 
L 149.416088 215.632609 
L 149.548253 217.228808 
L 149.665732 225.551844 
L 149.775869 224.639731 
L 150.091595 205.097697 
L 150.113623 205.59936 
L 150.319212 225.209802 
L 150.451376 229.61075 
L 150.480746 228.926665 
L 151.178281 200.012664 
L 151.200308 200.309101 
L 151.244363 201.198412 
L 151.303102 200.354707 
L 151.405897 196.20459 
L 151.471979 197.914803 
L 151.655541 192.556136 
L 152.088746 156.61886 
L 152.206226 156.983706 
L 152.309021 162.547599 
L 152.566007 187.858751 
L 152.610062 187.243074 
L 152.874391 182.500083 
L 152.90376 182.614097 
L 152.911103 182.614097 
L 153.035925 194.03832 
L 153.461788 232.392696 
L 153.549898 235.288657 
L 153.593952 233.487233 
L 153.799541 222.769898 
L 153.821569 223.773223 
L 154.188692 244.204567 
L 154.262117 241.01217 
L 154.430994 226.988423 
L 154.519103 227.376072 
L 154.570501 226.07631 
L 154.607213 227.490086 
L 154.754062 237.591744 
L 154.820144 241.399818 
L 154.878884 239.758013 
L 155.033076 233.46443 
L 155.187268 226.418352 
L 155.238665 226.851606 
L 155.268035 227.991748 
L 155.444254 234.034501 
L 155.451597 233.532838 
L 155.972912 179.763743 
L 156.016967 177.209825 
L 156.075706 179.649728 
L 156.149131 182.500083 
L 156.215213 180.858279 
L 156.288638 178.623601 
L 156.332693 179.946165 
L 156.508912 198.234043 
L 156.677789 197.321929 
L 156.721844 194.927631 
L 156.773241 188.383216 
L 156.854008 190.891528 
L 156.876035 190.959937 
L 156.898063 189.637372 
L 157.0082 186.855426 
L 157.03757 187.744736 
L 157.595597 230.750892 
L 157.735104 229.77037 
L 157.749789 229.496736 
L 157.771816 230.614075 
L 158.05083 261.762754 
L 158.087542 260.508597 
L 158.197679 248.765135 
L 158.432638 194.722405 
L 158.535433 176.867782 
L 158.594173 181.040702 
L 158.748365 189.340935 
L 158.777734 189.021695 
L 158.785077 188.839273 
L 158.829132 190.481077 
L 158.975981 209.1338 
L 159.034721 206.237839 
L 159.108145 203.136653 
L 159.144858 206.169431 
L 159.166885 206.785107 
L 159.21094 205.371331 
L 159.343104 198.120028 
L 159.401844 202.06492 
L 159.842392 245.207892 
L 159.86442 245.891977 
L 159.930502 244.637821 
L 159.945187 244.888652 
L 160.003927 246.690077 
L 160.077351 245.572738 
L 160.224201 231.708611 
L 160.532584 191.301979 
L 160.628036 195.634519 
L 160.833625 219.73712 
L 160.899708 215.404581 
L 161.061242 196.318604 
L 161.288858 161.658288 
L 161.325571 161.931922 
L 161.362283 161.749499 
L 161.406338 164.736671 
L 161.685352 206.80791 
L 161.861571 226.851606 
L 161.890941 224.867759 
L 162.206667 205.302923 
L 162.302119 198.826916 
L 162.375544 199.784636 
L 162.397571 199.853044 
L 162.470996 206.351853 
L 162.830777 251.957533 
L 162.874831 247.830219 
L 163.073078 233.806472 
L 163.249297 228.698636 
L 163.293352 233.30481 
L 163.330064 235.995545 
L 163.374119 231.184146 
L 163.932147 146.540005 
L 164.005571 149.162332 
L 164.078996 153.038815 
L 164.365352 194.608391 
L 164.475489 191.233571 
L 164.541571 190.549486 
L 164.570941 191.347585 
L 164.614996 190.389866 
L 164.908695 200.742355 
L 165.070229 215.860638 
L 165.150996 211.117647 
L 165.672311 163.140473 
L 165.709024 163.414107 
L 165.760421 163.186078 
L 165.797133 163.596529 
L 165.841188 163.254487 
L 166.134887 169.160422 
L 166.311106 177.278233 
L 166.362503 175.499612 
L 166.553408 158.739524 
L 166.758997 139.813168 
L 166.839764 137.076827 
L 166.891161 138.216969 
L 167.449189 211.414084 
L 167.500586 205.143303 
L 167.69149 190.367063 
L 167.713517 189.911006 
L 167.7796 190.845923 
L 167.838339 192.989389 
L 167.904422 191.849248 
L 167.911764 191.803642 
L 167.919107 191.986065 
L 168.212805 209.703871 
L 168.249518 209.475842 
L 168.278887 209.407434 
L 168.330285 210.570379 
L 168.418394 221.059685 
L 168.79286 274.395527 
L 168.814888 275.102415 
L 168.844257 273.164173 
L 168.998449 263.472967 
L 169.035162 264.134249 
L 169.115929 269.629733 
L 169.262778 276.470585 
L 169.277463 276.333768 
L 169.29949 276.288162 
L 169.3876 274.463935 
L 169.483052 266.984604 
L 169.681299 243.338059 
L 169.798778 248.08105 
L 169.835491 247.784613 
L 169.850176 248.126656 
L 169.86486 248.993163 
L 169.9236 246.530457 
L 170.231984 228.630228 
L 170.320093 230.728089 
L 170.687217 261.124274 
L 170.701902 260.85064 
L 170.980916 248.856346 
L 171.303984 232.620725 
L 171.362724 234.034501 
L 171.810614 255.013113 
L 171.832642 255.765607 
L 171.876697 254.443042 
L 172.170395 235.767517 
L 172.427382 217.456836 
L 172.471436 218.893415 
L 172.530176 221.333319 
L 172.706395 227.946143 
L 172.735765 227.490086 
L 172.75045 227.44448 
L 172.794505 227.786523 
L 172.86793 231.640203 
L 172.904642 228.333791 
L 172.941354 224.343294 
L 173.014779 227.421677 
L 173.095546 230.842103 
L 173.154286 228.698636 
L 173.31582 216.658737 
L 173.411272 220.991276 
L 173.4333 221.333319 
L 173.447985 219.919543 
L 173.631546 212.029761 
L 173.638889 212.098169 
L 173.682944 214.492467 
L 173.91056 224.457308 
L 174.138177 229.656356 
L 174.145519 229.587947 
L 174.160204 229.382721 
L 174.196916 230.340441 
L 174.211601 230.272032 
L 174.270341 233.122387 
L 174.314396 230.636878 
L 174.754944 204.573232 
L 174.776971 204.459218 
L 174.798999 204.846866 
L 174.894451 208.404109 
L 174.960533 212.052563 
L 175.033958 210.547576 
L 175.0413 210.570379 
L 175.07067 210.34235 
L 175.092697 210.159928 
L 175.12941 210.889619 
L 175.239547 218.323344 
L 175.452478 235.357065 
L 175.584643 233.236401 
L 175.716807 229.473933 
L 175.753519 226.304338 
L 175.885684 214.606481 
L 175.944424 217.502442 
L 176.304204 246.416443 
L 176.473081 253.074872 
L 176.480424 253.211689 
L 176.517136 252.390787 
L 176.634616 246.142809 
L 176.6493 246.530457 
L 176.686013 247.100528 
L 176.76678 246.758485 
L 176.818177 245.800766 
L 176.920972 243.406468 
L 176.950342 244.432596 
L 177.163273 254.921902 
L 177.258725 255.925227 
L 177.288095 255.377959 
L 177.42026 253.78176 
L 177.427602 254.123802 
L 177.442287 254.511451 
L 177.493684 252.801238 
L 177.699273 243.680102 
L 177.750671 244.523807 
L 177.802068 245.549935 
L 177.831438 244.318581 
L 177.948917 240.898155 
L 177.978287 241.331409 
L 178.007657 240.647324 
L 178.103109 236.428799 
L 178.176534 237.226898 
L 178.242616 235.699108 
L 178.286671 236.884856 
L 178.470232 240.259676 
L 178.551 234.376543 
L 178.800643 206.511473 
L 178.844698 208.381306 
L 178.962178 218.710993 
L 179.233849 249.60884 
L 179.292589 243.452073 
L 179.68174 205.211712 
L 179.689082 205.257317 
L 179.975438 213.466339 
L 180.056205 220.580825 
L 180.386616 258.501948 
L 180.415986 256.609312 
L 180.540808 235.197446 
L 180.717027 218.186527 
L 180.731712 218.20933 
L 180.768425 219.691515 
L 180.863877 232.50671 
L 181.076808 272.936145 
L 181.113521 270.131396 
L 181.245685 250.24732 
L 181.627493 182.910534 
L 181.693576 183.366591 
L 181.700918 183.366591 
L 181.82574 186.901031 
L 181.847767 187.516708 
L 181.906507 185.806495 
L 181.94322 184.894381 
L 182.031329 185.190818 
L 182.251603 180.128588 
L 182.295658 178.304361 
L 182.369083 179.786545 
L 182.42048 179.832151 
L 182.442507 180.128588 
L 182.464535 179.490108 
L 182.523275 177.551867 
L 182.604042 178.190347 
L 182.618727 178.281558 
L 182.839001 181.314336 
L 182.89774 187.653525 
L 183.286891 226.349944 
L 183.411713 233.46443 
L 183.60996 246.348034 
L 183.874289 228.903862 
L 183.947713 230.408849 
L 183.955056 230.408849 
L 184.050508 226.851606 
L 184.072535 229.268707 
L 184.314837 251.022616 
L 184.336864 250.292925 
L 184.483713 245.390315 
L 184.520426 246.028794 
L 184.542453 246.142809 
L 184.557138 245.732357 
L 184.821467 230.682483 
L 185.254672 193.171812 
L 185.33544 189.249724 
L 185.438234 182.842126 
L 185.504316 185.373241 
L 185.849412 206.511473 
L 185.893467 207.720024 
L 185.944864 206.511473 
L 186.128426 194.996039 
L 186.326673 172.489637 
L 186.3487 172.877285 
L 186.488207 180.402222 
L 186.591002 199.784636 
L 186.862673 249.107178 
L 186.94344 253.439717 
L 186.97281 249.836869 
L 187.383988 194.494377 
L 187.611605 225.939493 
L 187.677687 223.203152 
L 187.751111 222.519067 
L 187.795166 222.861109 
L 187.824536 223.111941 
L 187.861248 222.245433 
L 187.875933 222.017404 
L 187.905303 223.27156 
L 187.9567 224.936168 
L 188.008098 223.43118 
L 188.375221 195.520505 
L 188.455988 189.705781 
L 188.514728 192.145684 
L 188.595495 191.758036 
L 188.63955 197.321929 
L 189.043386 240.715733 
L 189.058071 240.328084 
L 189.138838 234.627375 
L 189.667495 188.041173 
L 189.755605 190.481077 
L 189.843715 192.373713 
L 189.865742 190.891528 
L 189.902454 189.454949 
L 189.968537 191.301979 
L 189.975879 191.530008 
L 190.019934 189.819795 
L 190.203496 180.812673 
L 190.262235 176.685359 
L 190.328318 179.763743 
L 190.350345 180.356616 
L 190.416427 178.965643 
L 190.438455 178.577995 
L 190.467824 180.447828 
L 190.666071 204.276795 
L 190.95977 238.731886 
L 191.011167 238.617871 
L 191.018509 238.663477 
L 191.040537 238.161815 
L 191.069907 238.024998 
L 191.091934 238.709083 
L 191.121304 238.937111 
L 191.481085 248.765135 
L 191.921633 181.701984 
L 191.958345 186.513383 
L 192.310784 224.753745 
L 192.354839 221.515742 
L 192.398893 219.89674 
L 192.464976 221.287713 
L 192.59714 228.698636 
L 192.773359 234.741389 
L 192.964263 239.575591 
L 192.971606 239.529985 
L 193.052373 238.161815 
L 193.081743 239.119534 
L 193.13314 240.442099 
L 193.169852 238.663477 
L 193.257962 229.61075 
L 193.441524 218.825007 
L 193.874729 259.596484 
L 193.948154 252.618815 
L 194.175771 237.796969 
L 194.26388 234.262529 
L 194.344647 234.855403 
L 194.374017 235.174643 
L 194.403387 234.627375 
L 194.432757 234.148515 
L 194.484154 235.357065 
L 194.513524 234.376543 
L 194.520866 234.376543 
L 194.557579 229.428327 
L 194.572264 227.262057 
L 194.660373 229.884384 
L 194.741141 236.223573 
L 194.82925 235.015023 
L 194.902675 235.516685 
L 194.94673 235.083431 
L 194.954072 235.060628 
L 195.012812 237.021673 
L 195.130291 214.652087 
L 195.33588 191.051148 
L 195.350565 190.435471 
L 195.401963 193.171812 
L 195.526785 212.440212 
L 195.739716 240.601719 
L 195.90125 251.820716 
L 195.967333 248.058247 
L 196.099497 243.520482 
L 196.121524 243.953736 
L 196.224319 248.696727 
L 196.290401 247.670599 
L 196.958566 186.718609 
L 197.002621 187.767539 
L 197.017305 187.699131 
L 197.039333 188.223596 
L 197.164155 198.918128 
L 197.435826 218.140922 
L 197.443169 218.095316 
L 197.450511 218.20933 
L 197.729525 245.686752 
L 197.810292 241.285804 
L 197.927771 223.043532 
L 198.258182 160.518146 
L 198.287552 161.361851 
L 198.522511 182.614097 
L 198.772155 206.96753 
L 198.794183 207.195559 
L 198.830895 206.397459 
L 198.955717 193.582263 
L 199.124594 176.457331 
L 199.168648 177.392247 
L 199.41095 196.660647 
L 199.447662 196.36421 
L 199.550457 194.425968 
L 199.623881 188.200793 
L 199.689964 170.711015 
L 199.756046 180.812673 
L 200.152539 242.836397 
L 200.218621 240.442099 
L 200.247991 240.761338 
L 200.299388 240.145662 
L 200.42421 227.216452 
L 200.615115 216.020257 
L 200.629799 216.157074 
L 200.717909 218.323344 
L 200.798676 217.456836 
L 200.894128 210.091519 
L 201.290622 167.290589 
L 201.297964 167.358998 
L 201.386074 171.691537 
L 201.745855 185.304833 
L 201.811937 183.526211 
L 201.841307 183.891057 
L 201.900046 188.725258 
L 202.039553 207.76563 
L 202.105635 206.785107 
L 202.2378 201.836891 
L 202.281855 199.73903 
L 202.362622 188.451624 
L 202.560868 168.727168 
L 202.590238 167.632632 
L 202.648978 169.86731 
L 202.707718 172.466834 
L 202.817855 177.89391 
L 202.905964 177.506261 
L 202.913307 177.551867 
L 202.964704 177.25543 
L 202.972047 177.209825 
L 202.986732 177.597473 
L 203.089526 184.278705 
L 203.33917 230.682483 
L 203.552102 257.47582 
L 203.588814 257.886271 
L 203.618184 256.335678 
L 203.713636 239.621196 
L 203.860485 210.775604 
L 203.93391 213.238311 
L 203.955937 213.511945 
L 203.977965 212.782254 
L 204.029362 210.798407 
L 204.073417 213.124297 
L 204.183554 226.646381 
L 204.337746 241.217395 
L 204.3818 240.784141 
L 204.425855 242.950411 
L 204.46991 240.37369 
L 204.55802 235.858728 
L 204.631444 236.041151 
L 204.682842 234.399346 
L 204.741581 236.086756 
L 204.837033 242.083903 
L 204.881088 238.0478 
L 205.483171 192.259699 
L 205.644705 189.340935 
L 205.68876 189.751386 
L 205.71813 189.819795 
L 205.982458 214.99413 
L 206.10728 211.45969 
L 206.25413 203.478696 
L 206.694678 163.596529 
L 206.716705 167.906266 
L 206.951664 197.892 
L 207.135226 204.618838 
L 207.436267 174.405075 
L 207.450952 174.473484 
L 207.597801 170.482987 
L 207.766678 168.362323 
L 207.781363 168.476337 
L 208.089747 171.737143 
L 208.097089 171.691537 
L 208.141144 171.007452 
L 208.155829 172.147594 
L 208.39813 212.713846 
L 208.603719 246.348034 
L 208.669801 245.093878 
L 208.713856 244.250173 
L 208.882733 237.751364 
L 209.029582 214.150425 
L 209.492158 153.768505 
L 209.624322 141.797015 
L 209.690404 144.761384 
L 209.778514 147.839767 
L 209.969418 166.880138 
L 209.984103 169.639282 
L 210.079555 167.70104 
L 210.09424 167.678238 
L 210.219062 161.179428 
L 210.321857 153.88252 
L 210.395281 154.292971 
L 210.534788 148.067796 
L 210.622898 142.4811 
L 210.666953 145.787512 
L 210.967994 175.454006 
L 211.063446 183.070154 
L 211.136871 180.903885 
L 211.423227 172.079186 
L 211.467282 172.603651 
L 211.540706 172.808876 
L 211.592104 170.870635 
L 211.753638 166.766124 
L 211.834405 158.579905 
L 212.017967 146.243568 
L 212.230898 141.226944 
L 212.252926 141.979437 
L 212.509912 154.794633 
L 212.568652 157.667791 
L 212.722844 175.545217 
L 213.06794 233.008373 
L 213.148707 237.477729 
L 213.185419 234.330938 
L 213.332268 222.313841 
L 213.398351 224.753745 
L 213.442405 225.59745 
L 213.508488 224.799351 
L 213.787501 231.982245 
L 213.816871 233.646852 
L 213.846241 229.656356 
L 214.220707 180.105785 
L 214.272104 175.339992 
L 214.330844 180.128588 
L 214.411611 190.959937 
L 214.896214 264.932348 
L 214.969639 260.508597 
L 215.072433 247.853021 
L 215.351447 219.440683 
L 215.358789 219.782726 
L 215.476269 228.789848 
L 215.667173 246.690077 
L 215.769968 246.416443 
L 215.814022 247.214542 
L 215.89479 250.133305 
L 215.931502 248.286275 
L 216.056324 240.145662 
L 216.107721 241.057775 
L 216.482187 259.345653 
L 216.504214 258.319525 
L 216.629036 235.425474 
L 216.99616 168.727168 
L 217.010845 169.183225 
L 217.135667 172.03358 
L 217.267831 178.623601 
L 217.363283 175.955668 
L 217.451393 169.958522 
L 217.50279 168.088689 
L 217.56153 169.684887 
L 217.921311 210.387956 
L 218.222352 242.950411 
L 218.398571 258.912399 
L 218.435283 253.097675 
L 218.831777 174.427878 
L 218.971283 167.678238 
L 219.030023 165.010305 
L 219.08142 167.290589 
L 219.132818 169.86731 
L 219.191557 167.632632 
L 219.309037 165.283939 
L 219.338407 165.808405 
L 219.529311 174.975146 
L 219.712873 204.413612 
L 219.991886 251.77511 
L 220.094681 259.026413 
L 220.131393 254.579859 
L 220.615996 184.894381 
L 220.630681 186.034523 
L 220.880325 196.022167 
L 220.946407 199.511002 
L 221.056544 206.853516 
L 221.122626 205.895797 
L 221.218079 196.318604 
L 221.262133 194.243546 
L 221.298846 198.188437 
L 221.416325 206.237839 
L 221.48975 205.485346 
L 221.570517 207.811235 
L 221.702681 218.52857 
L 221.746736 216.385103 
L 221.849531 217.525245 
L 222.253366 247.146133 
L 222.282736 246.690077 
L 222.414901 244.204567 
L 222.436928 245.230695 
L 222.510353 247.624993 
L 222.547065 245.686752 
L 222.730627 237.067278 
L 222.782024 235.767517 
L 222.848106 236.542813 
L 222.855449 236.542813 
L 222.899504 233.259204 
L 223.303339 205.530951 
L 223.318024 205.416937 
L 223.340052 206.511473 
L 223.376764 207.195559 
L 223.450189 206.921924 
L 223.508928 205.713374 
L 223.589696 205.987008 
L 223.66312 204.96088 
L 223.670463 204.983683 
L 224.140381 176.981796 
L 224.19912 177.209825 
L 224.235833 175.545217 
L 224.412052 169.160422 
L 224.441422 167.678238 
L 224.529531 168.772774 
L 224.580929 170.939044 
L 224.73512 175.773246 
L 224.757148 175.431203 
L 225.205038 159.378004 
L 225.271121 160.107695 
L 225.30049 160.677766 
L 225.674956 182.95614 
L 225.719011 183.891057 
L 225.748381 182.978943 
L 225.98334 171.235481 
L 225.990682 170.939044 
L 226.034737 172.763271 
L 226.4606 217.456836 
L 226.534025 212.713846 
L 226.981916 158.511496 
L 227.02597 159.58323 
L 227.187505 166.264462 
L 227.59134 186.49058 
L 227.598683 186.627397 
L 227.635395 185.464452 
L 227.877697 177.939515 
L 228.105313 168.81838 
L 228.27419 165.12432 
L 228.310902 165.808405 
L 228.347615 166.218856 
L 228.391669 165.238334 
L 228.516491 160.63216 
L 228.604601 161.931922 
L 228.626628 161.977528 
L 228.663341 161.635485 
L 228.788163 158.579905 
L 228.854245 160.062089 
L 228.935012 161.544274 
L 228.979067 160.609357 
L 229.067176 159.42361 
L 229.096546 160.381329 
L 229.448985 174.883935 
L 229.485697 174.291061 
L 229.610519 171.3951 
L 229.742683 162.114345 
L 229.816108 165.420756 
L 230.021697 169.069211 
L 230.168546 169.456859 
L 230.183231 169.388451 
L 230.344766 164.782277 
L 230.388821 165.078714 
L 230.403505 165.010305 
L 230.462245 164.782277 
L 230.513642 165.010305 
L 230.520985 165.010305 
L 230.667834 163.642135 
L 230.704547 163.870163 
L 230.792656 164.941897 
L 230.866081 164.394629 
L 230.888108 164.257812 
L 230.924821 164.736671 
L 231.01293 166.310067 
L 231.049643 165.283939 
L 231.137752 158.009834 
L 231.211177 155.706747 
L 231.255232 157.09772 
L 231.350684 163.345698 
L 231.504876 190.321457 
L 231.644382 221.90339 
L 231.710465 215.176552 
L 231.857314 186.216946 
L 232.084931 129.665904 
L 232.128985 131.71816 
L 232.356602 154.338576 
L 232.554848 167.632632 
L 232.584218 168.385126 
L 232.672328 168.043083 
L 232.723725 168.430731 
L 232.745753 167.974674 
L 232.841205 166.902941 
L 232.870575 167.176575 
L 232.936657 168.316717 
L 232.995396 167.746646 
L 233.017424 167.632632 
L 233.039451 168.157097 
L 233.112876 169.958522 
L 233.149588 168.476337 
L 233.311123 157.211734 
L 233.39189 151.853067 
L 233.450629 152.9248 
L 233.479999 153.380857 
L 233.502027 152.126701 
L 233.626849 146.038343 
L 233.670903 147.110076 
L 233.744328 149.23074 
L 233.803068 148.637867 
L 233.913205 140.679676 
L 233.949917 139.015068 
L 234.030684 139.539534 
L 234.111452 136.803193 
L 234.361095 127.613648 
L 234.500602 121.411276 
L 235.051287 99.064493 
L 235.161424 103.830287 
L 235.315616 105.882542 
L 235.469808 106.931473 
L 235.477151 106.863064 
L 235.601972 105.266866 
L 235.65337 105.608908 
L 235.756164 110.215082 
L 235.903014 109.941448 
L 235.961753 110.579927 
L 236.020493 110.123871 
L 236.123288 106.566628 
L 236.196712 101.892045 
L 236.284822 102.256891 
L 236.321534 102.142877 
L 236.350904 102.302497 
L 236.394959 102.256891 
L 236.453699 102.142877 
L 236.468384 102.302497 
L 236.989699 109.987053 
L 237.026411 109.485391 
L 237.430247 101.68682 
L 237.444932 101.800834 
L 237.547726 104.423161 
L 237.672548 107.70677 
L 237.731288 106.361402 
L 237.760658 103.556653 
L 237.82674 106.90867 
L 238.142466 126.747141 
L 238.355398 147.748556 
L 238.45085 143.165185 
L 238.671124 130.92006 
L 238.773918 118.538118 
L 238.840001 121.456882 
L 238.950138 128.366142 
L 239.008877 127.226 
L 239.104329 126.405098 
L 239.133699 126.815549 
L 239.177754 128.0241 
L 239.214467 126.541915 
L 239.52285 113.97755 
L 239.61096 113.772325 
L 239.64033 113.886339 
L 239.655015 113.817931 
L 239.787179 111.651661 
L 239.963398 106.931473 
L 240.124932 102.804159 
L 240.477371 95.233616 
L 240.550796 96.373758 
L 240.580165 96.761407 
L 240.631563 95.98611 
L 240.734357 93.591812 
L 240.778412 94.435517 
L 240.903234 102.120074 
L 240.910577 101.914848 
L 241.395179 227.558494 
L 241.483289 224.297688 
L 241.791673 204.915275 
L 241.945864 195.40649 
L 241.960549 195.56611 
L 242.041317 198.53048 
L 242.078029 200.05827 
L 242.122084 198.120028 
L 242.217536 193.55946 
L 242.268933 194.882025 
L 242.592002 203.775133 
L 242.658084 207.081544 
L 242.716824 205.872994 
L 242.819618 204.732852 
L 242.848988 204.96088 
L 242.863673 205.211712 
L 242.8857 204.276795 
L 242.907728 203.045442 
L 242.966467 206.055417 
L 243.120659 208.632137 
L 243.157372 211.687718 
L 243.348276 220.603628 
L 243.392331 218.140922 
L 243.531837 215.062538 
L 243.53918 215.176552 
L 243.575892 215.632609 
L 243.590577 215.016933 
L 243.612605 214.606481 
L 243.678687 215.450186 
L 243.722742 219.167049 
L 243.935673 230.340441 
L 244.148605 241.787466 
L 244.185317 240.191267 
L 244.420276 224.252083 
L 244.824112 186.96944 
L 244.838797 187.197468 
L 244.934249 190.367063 
L 245.022358 194.950434 
L 245.139838 201.882497 
L 245.20592 201.084398 
L 245.220605 201.1072 
L 245.23529 200.879172 
L 245.345427 197.093901 
L 245.595071 186.33096 
L 245.852057 183.070154 
L 245.910797 180.447828 
L 245.962194 182.386069 
L 246.072331 188.155188 
L 246.145756 187.767539 
L 246.314633 189.705781 
L 246.351345 189.568964 
L 246.835948 153.198434 
L 247.210414 106.064965 
L 247.217756 106.133374 
L 247.291181 106.133374 
L 247.43803 106.703445 
L 247.474743 106.680642 
L 247.540825 104.514372 
L 247.900606 92.725304 
L 247.922633 92.77091 
L 247.996058 96.191336 
L 249.024003 133.542387 
L 249.038688 133.131936 
L 249.082743 134.910557 
L 249.19288 140.770887 
L 249.258962 140.200816 
L 249.303017 138.62742 
L 249.332387 140.428844 
L 249.501264 154.635013 
L 249.567346 150.34808 
L 249.809647 118.378498 
L 249.949154 88.962835 
L 250.007894 90.718654 
L 250.20614 128.138114 
L 250.470469 185.532861 
L 250.529209 185.760889 
L 250.543894 185.236424 
L 250.668716 184.164691 
L 250.676058 184.278705 
L 250.815565 185.008396 
L 250.822908 185.031198 
L 250.837593 184.80317 
L 251.028497 180.219799 
L 251.219401 174.35947 
L 251.263456 173.903413 
L 251.300168 174.587498 
L 251.564497 182.728112 
L 251.858196 207.651615 
L 252.01973 217.00078 
L 252.195949 225.734267 
L 252.232661 223.043532 
L 252.313429 215.108144 
L 252.379511 219.281064 
L 252.438251 223.203152 
L 252.474963 219.326669 
L 252.717264 196.478224 
L 252.768662 198.826916 
L 252.908168 206.237839 
L 253.187182 245.686752 
L 253.201867 246.188414 
L 253.260607 244.022144 
L 253.642415 225.141393 
L 253.671785 226.646381 
L 254.097648 254.625465 
L 254.141703 253.667746 
L 254.149046 253.667746 
L 254.200443 252.276772 
L 254.288552 253.211689 
L 254.303237 253.553731 
L 254.347292 252.231167 
L 254.428059 247.488176 
L 254.677703 215.290567 
L 254.949374 185.601269 
L 255.030142 183.320986 
L 255.096224 184.233099 
L 255.110909 184.461127 
L 255.140279 183.435 
L 255.279786 177.209825 
L 255.44132 167.130969 
L 255.551457 158.62551 
L 255.624881 158.967553 
L 255.654251 159.149976 
L 255.683621 158.693919 
L 255.690964 158.46589 
L 255.735019 159.834061 
L 256.00669 172.535242 
L 256.131512 178.235952 
L 256.190251 174.655906 
L 256.388498 169.228831 
L 256.616115 159.149976 
L 256.660169 162.844036 
L 257.071348 245.43592 
L 257.086033 246.256823 
L 257.10806 242.53996 
L 257.467841 182.6369 
L 257.526581 186.148538 
L 257.710142 204.003161 
L 257.915731 231.29816 
L 257.959786 229.542341 
L 258.033211 225.27821 
L 258.495786 178.167544 
L 258.848225 165.283939 
L 258.877595 165.352348 
L 258.943677 164.1666 
L 259.178636 152.354729 
L 259.244718 154.338576 
L 259.296115 155.843564 
L 259.487019 168.772774 
L 259.582472 185.076804 
L 259.714636 207.60601 
L 259.780718 205.75898 
L 259.883513 201.42644 
L 260.074417 178.235952 
L 260.162526 168.590351 
L 260.235951 169.958522 
L 260.331403 171.053058 
L 260.360773 170.711015 
L 260.581047 165.968025 
L 260.610417 166.150447 
L 260.654472 167.450209 
L 260.838033 194.768011 
L 261.190472 265.844462 
L 261.271239 256.791735 
L 261.873321 164.850685 
L 261.924719 161.703894 
L 262.012828 163.254487 
L 262.269815 172.03358 
L 262.365267 175.796048 
L 262.424006 173.629779 
L 262.651623 163.186078 
L 262.769102 164.029783 
L 262.79113 164.052586 
L 263.033431 169.981324 
L 263.040774 169.046408 
L 263.20965 128.480156 
L 263.473979 81.323884 
L 263.496007 83.490154 
L 263.664883 113.475888 
L 264.149486 192.989389 
L 264.222911 191.051148 
L 264.413815 175.659231 
L 264.509267 178.874432 
L 264.832336 210.228336 
L 264.920445 208.791757 
L 264.93513 208.039264 
L 265.228829 166.834533 
L 265.331624 176.138091 
L 265.728117 234.034501 
L 265.801542 231.024526 
L 265.816226 230.454455 
L 265.867624 232.803147 
L 266.007131 238.709083 
L 266.029158 238.481054 
L 266.043843 238.435449 
L 266.131953 237.226898 
L 266.146637 238.36704 
L 266.161322 239.529985 
L 266.227405 236.337588 
L 266.249432 236.884856 
L 266.264117 236.383193 
L 266.491733 210.547576 
L 266.858857 161.202231 
L 266.895569 161.43026 
L 266.902912 161.361851 
L 266.939624 162.000331 
L 267.049761 168.248309 
L 267.519679 211.117647 
L 267.629816 218.300541 
L 267.813378 228.356594 
L 267.864775 230.066807 
L 267.90883 228.516214 
L 268.231898 191.165162 
L 268.430145 178.076332 
L 268.452172 177.278233 
L 268.50357 180.105785 
L 268.914748 222.177024 
L 268.92209 221.834982 
L 269.267186 209.589857 
L 269.333268 210.273942 
L 269.399351 214.104819 
L 269.612282 221.789376 
L 269.729762 226.463958 
L 269.795844 224.297688 
L 269.839899 219.73712 
L 270.251077 177.369444 
L 270.265762 177.506261 
L 270.302474 177.779896 
L 270.331844 177.141416 
L 270.464008 176.138091 
L 270.471351 176.183697 
L 270.552118 176.115288 
L 270.596173 176.297711 
L 270.67694 174.655906 
L 271.029378 157.302946 
L 271.080776 158.009834 
L 271.146858 160.062089 
L 271.770968 189.979415 
L 271.815022 189.591766 
L 271.925159 187.653525 
L 272.116064 182.750915 
L 272.138091 183.868254 
L 272.483187 209.247814 
L 272.549269 207.355178 
L 272.637379 195.452096 
L 272.923735 168.727168 
L 272.975132 167.86066 
L 273.02653 168.727168 
L 273.136667 170.825029 
L 273.188064 169.525268 
L 273.224776 168.955197 
L 273.261489 169.912916 
L 273.342256 175.431203 
L 273.378968 177.665881 
L 273.467078 177.050205 
L 273.481763 176.981796 
L 273.599242 172.261608 
L 273.672667 173.857807 
L 273.687352 173.949018 
L 273.716722 173.789399 
L 273.724064 173.835004 
L 273.753434 172.466834 
L 273.797489 175.339992 
L 273.959023 203.889147 
L 274.15727 223.887237 
L 274.193982 226.623578 
L 274.260064 223.453983 
L 274.318804 219.395078 
L 274.428941 213.010283 
L 274.472996 214.606481 
L 274.671242 224.138068 
L 274.678585 223.841631 
L 274.876831 207.76563 
L 275.11179 183.549014 
L 275.17053 188.49723 
L 275.442201 227.535691 
L 275.567023 243.155637 
L 275.618421 238.937111 
L 275.919462 211.824535 
L 276.014914 208.860166 
L 276.169106 203.957555 
L 276.176448 204.117175 
L 276.183791 202.749005 
L 276.448119 171.167072 
L 276.455462 171.212678 
L 276.470147 171.235481 
L 276.543572 173.40175 
L 276.851955 188.907681 
L 276.991462 215.906243 
L 277.321873 268.010732 
L 277.40264 273.962273 
L 277.468722 270.769875 
L 277.703681 255.241142 
L 278.092832 232.780345 
L 278.305764 197.57276 
L 278.335134 201.768483 
L 278.371846 204.117175 
L 278.430586 200.354707 
L 278.53338 196.090576 
L 278.584778 197.777986 
L 278.672887 200.537129 
L 278.694915 198.53048 
L 279.06938 166.788927 
L 279.12812 167.016955 
L 279.150148 166.720518 
L 279.208887 165.648785 
L 279.282312 166.104842 
L 279.392449 172.147594 
L 279.480559 179.193672 
L 279.539298 176.024077 
L 279.921107 158.967553 
L 280.016559 161.202231 
L 280.082641 160.495343 
L 280.126696 161.133823 
L 280.141381 161.088217 
L 280.20012 159.993681 
L 280.244175 161.179428 
L 280.295572 161.544274 
L 280.310257 163.756149 
L 280.398367 160.153301 
L 280.479134 158.46589 
L 280.523189 159.537624 
L 280.574586 159.537624 
L 280.677381 158.579905 
L 280.640668 159.697244 
L 280.699408 158.921947 
L 280.743463 158.78513 
L 280.890312 169.981324 
L 281.147299 183.754239 
L 281.47771 204.162781 
L 281.683299 212.66824 
L 281.690641 212.964677 
L 281.756724 211.482492 
L 281.815463 206.739502 
L 282.028395 181.838801 
L 282.087135 187.243074 
L 282.395518 218.779401 
L 282.417546 218.756598 
L 282.432231 218.825007 
L 282.4616 218.300541 
L 282.652505 177.209825 
L 282.814039 157.759002 
L 282.858094 159.378004 
L 283.048998 170.870635 
L 283.17382 170.254958 
L 283.210532 170.368973 
L 283.254587 170.095339 
L 283.320669 168.088689 
L 283.401436 168.772774 
L 283.570313 173.105313 
L 283.827299 208.404109 
L 283.952121 205.987008 
L 284.025546 203.159456 
L 284.27519 163.938572 
L 284.400012 168.841182 
L 284.605601 178.532389 
L 284.980067 230.97892 
L 285.082861 239.803619 
L 285.126916 237.021673 
L 285.692286 181.154716 
L 285.758368 186.444975 
L 286.147519 210.912421 
L 286.198916 211.915746 
L 286.279684 217.525245 
L 286.499958 232.096259 
L 286.521985 231.822625 
L 286.56604 230.454455 
L 286.727574 209.521448 
L 287.050643 169.388451 
L 287.094697 167.176575 
L 287.116725 170.939044 
L 287.381054 213.853988 
L 287.513218 239.689605 
L 287.5793 229.086285 
L 287.66741 213.283917 
L 287.733492 214.378453 
L 287.748177 214.446862 
L 287.792232 215.016933 
L 287.843629 214.67489 
L 287.953766 195.269673 
L 288.041876 203.022639 
L 288.122643 209.202208 
L 288.17404 207.355178 
L 288.276835 200.856369 
L 288.284177 200.081073 
L 288.350259 203.820738 
L 288.416342 208.153278 
L 288.489766 205.827388 
L 288.555848 206.123825 
L 288.695355 201.221215 
L 288.71004 201.26682 
L 288.732068 200.924778 
L 288.82752 193.240221 
L 289.047794 179.535714 
L 289.062479 179.877757 
L 289.106534 181.017899 
L 289.157931 179.786545 
L 289.297438 176.480134 
L 289.341493 177.597473 
L 289.444287 179.148066 
L 289.466314 178.646403 
L 289.576451 168.65876 
L 289.657219 160.860189 
L 289.723301 163.984178 
L 289.877493 165.534771 
L 289.760013 163.710543 
L 289.892178 164.9647 
L 289.950917 163.003655 
L 289.994972 165.283939 
L 290.083082 172.808876 
L 290.134479 169.297239 
L 290.273986 164.098192 
L 290.288671 164.32622 
L 290.340068 166.834533 
L 290.49426 171.121466 
L 290.545657 173.971821 
L 290.714534 181.473956 
L 290.780616 179.4217 
L 290.802644 178.463981 
L 290.839356 181.131913 
L 290.854041 181.382744 
L 290.868726 180.447828 
L 291.184452 162.000331 
L 291.213822 161.133823 
L 291.243192 163.345698 
L 291.265219 162.912444 
L 291.397383 172.147594 
L 291.463466 170.482987 
L 291.529548 168.841182 
L 291.602973 169.456859 
L 291.647027 170.072536 
L 291.669055 168.544745 
L 291.896671 153.836914 
L 291.926041 154.749028 
L 292.07289 163.915769 
L 292.498754 249.107178 
L 292.594206 241.673452 
L 292.946644 211.573704 
L 293.012726 217.958499 
L 293.247685 231.982245 
L 293.35048 238.503857 
L 293.497329 242.653974 
L 293.864453 260.098146 
L 293.937877 266.300519 
L 294.018644 264.658714 
L 294.033329 264.955151 
L 294.077384 264.157052 
L 294.194864 258.68437 
L 294.231576 260.052541 
L 294.290316 261.625937 
L 294.319686 259.414061 
L 294.400453 256.290072 
L 294.45185 256.632115 
L 294.53996 260.964654 
L 294.576672 263.678192 
L 294.650097 261.397908 
L 294.716179 256.404086 
L 294.907083 242.38034 
L 294.980508 242.425946 
L 295.07596 240.328084 
L 295.142042 237.796969 
L 295.193439 239.917633 
L 295.362316 246.370837 
L 295.391686 244.820244 
L 295.633987 214.446862 
L 295.913001 178.760418 
L 295.920343 178.965643 
L 295.949713 179.034052 
L 296.052508 193.468249 
L 296.397604 222.655884 
L 296.404946 222.633081 
L 296.419631 222.769898 
L 296.647248 230.066807 
L 296.691303 228.926665 
L 296.867522 211.710521 
L 297.359467 152.423138 
L 297.381494 153.107223 
L 297.498974 159.309595 
L 297.587084 158.397482 
L 297.601769 159.081567 
L 297.946864 190.937134 
L 298.255248 233.578444 
L 298.284618 233.988895 
L 298.336015 236.497207 
L 298.38007 234.285332 
L 298.578317 220.466811 
L 298.644399 221.675362 
L 298.732509 224.594125 
L 298.849988 242.015495 
L 298.982152 259.00361 
L 299.03355 258.159905 
L 299.06292 257.817862 
L 299.106974 259.072019 
L 299.158372 260.052541 
L 299.217111 259.072019 
L 299.253824 258.091496 
L 299.297879 259.938526 
L 299.334591 260.508597 
L 299.363961 258.68437 
L 299.408016 254.237817 
L 299.672344 220.53522 
L 299.723742 222.861109 
L 299.745769 222.519067 
L 299.775139 223.567997 
L 300.098207 247.510979 
L 300.156947 242.813594 
L 300.245057 238.093406 
L 300.289112 240.305282 
L 300.369879 246.804091 
L 300.399249 241.445424 
L 300.810427 184.506733 
L 300.817769 186.17134 
L 301.133495 237.340912 
L 301.375797 264.727123 
L 301.647468 285.751341 
L 301.654811 285.637327 
L 301.853057 278.386024 
L 302.110044 249.76846 
L 302.168783 251.433067 
L 302.176126 251.433067 
L 302.374372 262.788881 
L 302.557934 284.223551 
L 302.660729 278.294812 
L 302.763523 270.769875 
L 302.829605 271.681989 
L 302.866318 272.685314 
L 302.888345 270.701467 
L 303.130647 234.855403 
L 303.314208 186.787017 
L 303.512455 161.589879 
L 303.563852 159.811258 
L 303.58588 162.114345 
L 304.283414 242.357537 
L 304.415578 244.409793 
L 304.452291 244.820244 
L 304.533058 245.093878 
L 304.547743 244.660624 
L 304.591798 242.015495 
L 304.841442 222.769898 
L 304.885496 224.252083 
L 304.988291 228.698636 
L 305.215907 246.23402 
L 305.28199 251.661096 
L 305.326044 247.556585 
L 305.458209 230.294835 
L 305.531633 236.223573 
L 305.583031 238.731886 
L 305.619743 234.741389 
L 305.766592 216.430709 
L 305.81799 218.437358 
L 305.935469 228.288185 
L 305.972182 226.851606 
L 306.038264 222.177024 
L 306.104346 225.59745 
L 306.133716 226.349944 
L 306.163086 225.164196 
L 306.287908 212.485817 
L 306.574264 164.508643 
L 306.603634 171.55472 
L 307.014812 245.91478 
L 307.022154 244.204567 
L 307.323196 198.120028 
L 307.42599 196.660647 
L 307.433333 197.390338 
L 307.616894 231.526188 
L 307.793113 250.566559 
L 307.800456 250.566559 
L 307.829826 249.836869 
L 307.873881 250.931405 
L 307.910593 250.178911 
L 307.947305 250.24732 
L 307.96199 250.019291 
L 308.042757 241.787466 
L 308.417223 197.846394 
L 308.431908 198.690099 
L 308.534703 216.658737 
L 308.894484 263.815009 
L 308.916511 264.362277 
L 308.953223 262.880093 
L 309.048675 249.677249 
L 309.518593 165.968025 
L 309.621388 163.026458 
L 309.665443 163.573726 
L 309.74621 166.378476 
L 309.834319 183.435 
L 309.937114 179.649728 
L 310.017881 174.131441 
L 310.091306 162.95805 
L 310.142703 171.668735 
L 310.186758 174.655906 
L 310.238155 170.528593 
L 310.267525 169.86731 
L 310.274868 171.007452 
L 310.656676 236.337588 
L 310.715416 229.61075 
L 311.339525 162.95805 
L 311.464347 168.202703 
L 311.493717 166.446884 
L 311.523087 164.1666 
L 311.581827 168.088689 
L 311.780073 189.705781 
L 311.853498 181.838801 
L 312.125169 157.987031 
L 312.139854 159.720047 
L 312.565717 218.414556 
L 312.653827 212.964677 
L 312.712567 215.404581 
L 312.932841 237.910983 
L 312.984238 231.548991 
L 313.505553 148.432641 
L 313.571635 149.276346 
L 313.637718 149.116726 
L 313.659745 149.435966 
L 313.696457 150.120051 
L 313.73317 148.979909 
L 313.850649 147.22409 
L 313.865334 147.611739 
L 314.004841 153.56328 
L 314.107636 157.644988 
L 314.144348 156.185606 
L 314.166375 155.205084 
L 314.232458 156.983706 
L 314.364622 158.853539 
L 314.386649 158.283468 
L 314.548184 151.625039 
L 314.570211 152.582758 
L 314.606923 155.478718 
L 314.680348 153.221237 
L 314.7758 150.872545 
L 314.812512 152.537152 
L 314.878595 159.651638 
L 315.216348 193.468249 
L 315.377882 184.005071 
L 315.510047 185.806495 
L 315.590814 198.302451 
L 316.082759 283.630677 
L 316.126814 283.585071 
L 316.288348 277.656333 
L 316.354431 280.552293 
L 316.435198 282.148492 
L 316.508622 284.041128 
L 316.567362 283.402648 
L 316.611417 283.539465 
L 316.706869 278.386024 
L 316.824349 252.162758 
L 317.184129 179.558517 
L 317.235527 178.965643 
L 317.272239 179.558517 
L 317.330979 181.086307 
L 317.367691 179.672531 
L 317.63202 170.072536 
L 317.793554 167.108167 
L 317.800897 167.358998 
L 318.123965 187.243074 
L 318.439691 232.324288 
L 318.571856 228.174171 
L 318.630596 229.382721 
L 318.909609 194.699602 
L 319.093171 174.519089 
L 319.144568 182.386069 
L 319.665884 273.93947 
L 319.790705 282.102887 
L 319.886158 279.526166 
L 319.944897 278.157995 
L 319.988952 279.48056 
L 320.010979 279.868208 
L 320.047692 277.770347 
L 320.642432 236.99887 
L 320.745226 232.461105 
L 320.928788 207.377981 
L 321.288569 142.207466 
L 321.384021 137.715306 
L 321.428076 139.425519 
L 321.809884 168.043083 
L 321.853939 169.069211 
L 321.883309 167.450209 
L 321.920021 165.466362 
L 321.986103 167.632632 
L 322.022816 168.202703 
L 322.074213 167.336195 
L 322.088898 167.290589 
L 322.463364 161.202231 
L 322.492734 162.342373 
L 322.801117 176.001274 
L 322.830487 175.955668 
L 322.889227 174.519089 
L 323.102158 169.753296 
L 323.234323 174.541892 
L 323.366487 173.743793 
L 323.381172 172.147594 
L 323.432569 177.164219 
L 323.439912 177.050205 
L 323.505994 174.313864 
L 323.520679 176.981796 
L 323.82172 221.90339 
L 323.85109 217.844485 
L 324.254926 169.274436 
L 324.276953 169.525268 
L 324.335693 173.857807 
L 324.629392 211.14045 
L 324.937775 248.970361 
L 325.275529 265.798856 
L 325.341611 261.397908 
L 325.811529 223.203152 
L 325.818871 223.225955 
L 325.833556 222.997926 
L 325.840899 222.769898 
L 325.884954 224.639731 
L 325.951036 230.636878 
L 326.039145 228.128565 
L 326.119912 221.971799 
L 326.193337 225.43783 
L 326.560461 260.166555 
L 326.575145 259.710498 
L 326.611858 258.501948 
L 326.729337 250.224517 
L 326.949611 236.83925 
L 326.971639 236.953264 
L 327.199255 234.604572 
L 327.030378 237.409321 
L 327.21394 235.425474 
L 327.316735 237.865378 
L 327.338762 236.428799 
L 327.478269 223.385575 
L 327.933502 177.939515 
L 328.043639 174.291061 
L 328.095036 175.955668 
L 328.109721 176.229302 
L 328.161118 175.203175 
L 328.249228 170.18655 
L 328.307968 172.1932 
L 328.49153 192.077276 
L 328.954105 251.091025 
L 328.961447 251.091025 
L 329.020187 247.054922 
L 329.078927 250.680574 
L 329.115639 254.351831 
L 329.181721 250.40694 
L 329.41668 209.931899 
L 329.725064 171.007452 
L 329.739749 170.893438 
L 329.754434 171.121466 
L 329.98205 179.079657 
L 330.092187 178.190347 
L 330.143585 180.128588 
L 330.202324 178.349966 
L 330.327146 171.053058 
L 330.393229 172.603651 
L 330.437283 173.515765 
L 330.841119 192.19129 
L 330.885174 190.50388 
L 331.068736 180.926687 
L 331.098105 181.040702 
L 331.105448 181.040702 
L 331.14216 180.63025 
L 331.186215 181.26873 
L 331.23027 182.044027 
L 331.274325 180.903885 
L 331.28901 180.698659 
L 331.333064 181.040702 
L 331.384462 180.903885 
L 331.450544 184.005071 
L 331.568023 210.159928 
L 331.88375 273.551822 
L 331.935147 270.359424 
L 332.30227 205.257317 
L 332.405065 210.228336 
L 332.412407 210.844013 
L 332.478489 207.651615 
L 332.551914 205.667768 
L 332.581284 207.537601 
L 332.691421 224.639731 
L 332.713448 226.532366 
L 332.801558 225.255407 
L 332.8089 225.209802 
L 332.83827 225.665859 
L 332.882325 229.838778 
L 333.40364 283.767494 
L 333.425668 284.223551 
L 333.447695 283.17462 
L 333.638599 264.430686 
L 333.991038 195.452096 
L 334.152572 176.867782 
L 334.167257 177.369444 
L 334.203969 178.965643 
L 334.284736 177.962318 
L 334.59312 182.112435 
L 334.615147 180.78987 
L 334.725284 176.366119 
L 334.769339 177.392247 
L 334.850106 183.070154 
L 335.041011 212.622634 
L 335.107093 212.50862 
L 335.165833 213.968002 
L 335.18786 212.66824 
L 335.327367 193.924306 
L 335.481559 174.655906 
L 335.518271 175.385597 
L 335.966161 208.837363 
L 336.010216 208.039264 
L 336.024901 207.423587 
L 336.061614 210.34235 
L 336.502162 261.283894 
L 336.641669 270.199804 
L 336.715093 265.958476 
L 336.76649 264.772728 
L 336.810545 266.140899 
L 336.869285 267.212632 
L 336.94271 266.893393 
L 337.023477 262.196008 
L 337.060189 259.915724 
L 337.126271 262.834487 
L 337.207039 265.570828 
L 337.258436 264.088643 
L 337.324518 258.045891 
L 337.522765 247.784613 
L 337.610874 243.452073 
L 337.721011 234.057304 
L 337.794436 237.454927 
L 337.941285 246.804091 
L 337.970655 243.74851 
L 338.07345 235.425474 
L 338.124847 236.83925 
L 338.484628 251.13663 
L 338.499313 250.977011 
L 338.572737 246.644471 
L 338.719587 222.633081 
L 339.035313 186.718609 
L 339.05734 186.604594 
L 339.072025 187.12906 
L 339.20419 198.234043 
L 339.395094 234.376543 
L 339.483203 228.698636 
L 339.718162 175.499612 
L 339.960464 133.770415 
L 340.033889 133.200344 
L 340.474437 244.022144 
L 340.555204 244.660624 
L 340.78282 228.447805 
L 340.848902 228.561819 
L 340.914985 227.148043 
L 340.995752 222.245433 
L 341.061834 225.506239 
L 341.069176 225.711464 
L 341.120574 224.480111 
L 341.282108 205.188909 
L 341.546437 173.150919 
L 341.553779 173.105313 
L 341.597834 173.447356 
L 341.619862 173.629779 
L 341.641889 172.877285 
L 341.810766 160.974203 
L 341.876848 166.720518 
L 342.273341 226.96562 
L 342.332081 219.5775 
L 342.53767 164.622657 
L 342.721232 113.08824 
L 342.772629 117.283962 
L 342.897451 144.533355 
L 343.293944 215.244961 
L 343.308629 214.788904 
L 343.374711 216.134272 
L 343.418766 215.222158 
L 343.962109 174.473484 
L 344.138328 172.808876 
L 344.26315 170.437381 
L 344.32189 171.509115 
L 344.380629 179.832151 
L 344.813835 241.126184 
L 344.894602 238.481054 
L 345.173616 182.728112 
L 345.210328 184.734762 
L 345.371862 205.188909 
L 345.709616 270.062987 
L 345.849123 273.93947 
L 345.885835 275.718091 
L 345.966602 274.395527 
L 346.120794 275.94612 
L 346.135479 275.330443 
L 346.186876 268.352774 
L 346.421835 243.269651 
L 346.664137 222.747095 
L 346.693507 223.43118 
L 346.921123 252.869646 
L 347.104685 274.623555 
L 347.141397 272.867736 
L 347.559918 220.079163 
L 347.603973 222.291038 
L 347.728795 231.320963 
L 347.780192 227.672508 
L 347.853616 224.115265 
L 347.905014 225.939493 
L 348.169343 255.993635 
L 348.396959 276.903839 
L 348.573178 280.438279 
L 348.580521 279.434954 
L 348.837507 233.646852 
L 349.013726 203.159456 
L 349.050439 204.687246 
L 349.167918 213.055888 
L 349.645179 252.299575 
L 349.652521 250.977011 
L 350.085727 148.364232 
L 350.129781 159.879666 
L 350.51159 249.44922 
L 350.585014 248.993163 
L 350.607042 249.791263 
L 350.680466 248.537107 
L 350.790603 245.458723 
L 350.819973 246.644471 
L 350.856686 248.742332 
L 350.878713 245.276301 
L 350.966823 211.30007 
L 351.333946 73.160468 
L 351.400028 85.542409 
L 351.598275 142.595114 
L 351.958056 246.142809 
L 351.972741 245.002667 
L 352.229727 233.031176 
L 352.273782 235.129037 
L 352.354549 235.060628 
L 352.479371 248.970361 
L 352.633563 258.661567 
L 352.677618 256.563706 
L 352.993344 235.425474 
L 353.022714 236.155165 
L 353.125508 239.529985 
L 353.176905 238.937111 
L 353.345782 235.197446 
L 353.235645 239.529985 
L 353.375152 236.725236 
L 353.580741 246.188414 
L 353.734933 254.237817 
L 353.778988 256.746129 
L 353.823043 252.504801 
L 353.969892 235.972742 
L 354.013947 239.301957 
L 354.043317 241.696255 
L 354.138769 240.761338 
L 354.226878 236.725236 
L 354.344358 238.093406 
L 354.41044 243.725708 
L 354.476522 239.689605 
L 354.483865 239.643999 
L 354.49855 240.100056 
L 354.755536 245.846372 
L 354.777563 245.093878 
L 354.983152 231.070132 
L 355.122659 233.532838 
L 355.342933 251.957533 
L 355.658659 282.832577 
L 355.688029 280.575096 
L 356.099208 238.481054 
L 356.172632 243.839722 
L 356.238714 247.670599 
L 356.312139 246.804091 
L 356.554441 226.577972 
L 356.58381 222.177024 
L 356.664578 226.281535 
L 357.024358 242.038297 
L 356.745345 226.167521 
L 357.031701 240.898155 
L 357.105126 235.767517 
L 357.156523 239.00552 
L 357.303372 242.494354 
L 357.3254 244.090553 
L 357.332742 244.637821 
L 357.347427 238.161815 
L 357.589728 180.78987 
L 357.77329 136.324333 
L 357.8614 142.025043 
L 357.920139 129.939538 
L 358.346003 65.247882 
L 358.360688 66.091587 
L 358.492852 75.281132 
L 358.96277 168.544745 
L 359.271154 242.243523 
L 359.329893 239.187942 
L 359.462058 214.03641 
L 359.770441 142.549508 
L 360.240359 87.184214 
L 360.247702 88.803216 
L 360.438606 122.32339 
L 360.453291 122.186573 
L 360.65888 115.687763 
L 360.702935 104.628386 
L 360.908524 61.645034 
L 361.003976 53.3448 
L 361.048031 59.022707 
L 361.444524 152.856392 
L 361.569346 139.060674 
L 361.584031 137.076827 
L 361.67214 140.451647 
L 361.863045 154.475393 
L 361.965839 184.917184 
L 362.252195 251.387462 
L 362.332962 258.661567 
L 362.38436 256.404086 
L 362.788195 203.729527 
L 363.008469 176.183697 
L 363.052524 178.692009 
L 363.471045 257.430214 
L 363.493072 256.449692 
L 363.617894 266.026885 
L 363.757401 216.704343 
L 364.058442 120.704388 
L 364.087812 124.238828 
L 364.814717 216.613131 
L 364.873456 211.345675 
L 365.012963 199.830241 
L 365.034991 200.651144 
L 365.079045 203.27347 
L 365.130443 200.537129 
L 365.247922 179.376094 
L 365.556306 102.256891 
L 365.62973 117.352371 
L 365.783922 135.936685 
L 365.996854 141.112929 
L 366.114333 103.442639 
L 366.165731 112.723394 
L 366.408032 193.924306 
L 366.459429 204.869669 
L 366.525511 199.967058 
L 366.554881 200.05827 
L 366.694388 172.489637 
L 366.885292 107.934798 
L 367.002772 111.651661 
L 367.017457 111.811281 
L 367.054169 111.127195 
L 367.061512 110.807956 
L 367.098224 113.202254 
L 367.480032 184.506733 
L 367.648909 200.651144 
L 367.663594 201.9053 
L 367.700306 197.321929 
L 367.714991 197.344732 
L 367.729676 197.458746 
L 367.759046 196.52383 
L 367.876525 174.883935 
L 367.935265 185.715284 
L 368.317074 240.601719 
L 368.537348 212.326197 
L 368.647485 208.267292 
L 368.698882 209.544251 
L 368.882444 219.098641 
L 369.1688 234.741389 
L 369.183485 236.565616 
L 369.220197 227.44448 
L 369.557951 168.430731 
L 369.624033 158.921947 
L 369.660745 167.815055 
L 369.991156 219.782726 
L 370.527156 254.443042 
L 370.556526 253.14328 
L 370.828197 237.135687 
L 370.886937 237.477729 
L 370.901622 237.796969 
L 370.938334 236.337588 
L 370.982389 233.943289 
L 371.041129 236.428799 
L 371.055814 236.656827 
L 371.092526 235.744714 
L 371.114554 234.741389 
L 371.173293 236.67963 
L 371.555102 250.40694 
L 371.569787 250.224517 
L 371.635869 248.172261 
L 371.672581 250.133305 
L 371.790061 252.276772 
L 371.804746 252.185561 
L 371.863485 249.540432 
L 371.973622 243.224045 
L 372.02502 243.452073 
L 372.083759 241.445424 
L 372.259979 229.542341 
L 372.296691 230.386046 
L 372.311376 230.408849 
L 372.326061 230.272032 
L 372.428855 223.773223 
L 372.700527 189.591766 
L 372.898773 167.587026 
L 372.97954 167.108167 
L 372.986883 167.518618 
L 373.060308 178.304361 
L 373.434773 231.640203 
L 373.442116 231.526188 
L 373.655047 222.997926 
L 373.699102 225.734267 
L 373.904691 237.021673 
L 373.765184 225.392225 
L 373.934061 235.47108 
L 374.345239 220.69484 
L 374.381952 222.519067 
L 374.572856 229.587947 
L 374.749075 237.819772 
L 374.76376 237.637349 
L 374.925294 231.206949 
L 375.064801 212.098169 
L 375.373185 174.883935 
L 375.549404 166.082039 
L 375.630171 157.873017 
L 375.710938 158.967553 
L 375.967925 153.426463 
L 376.034007 153.677294 
L 376.041349 153.654491 
L 376.048692 153.836914 
L 376.070719 154.406985 
L 376.107432 152.240715 
L 376.202884 142.253071 
L 376.261623 145.582286 
L 376.555322 197.093901 
L 376.731541 241.445424 
L 376.790281 240.145662 
L 376.929788 247.260148 
L 377.039925 246.370837 
L 377.311596 230.568469 
L 377.370336 232.438302 
L 377.414391 232.233076 
L 377.436418 232.803147 
L 377.458446 232.689133 
L 377.546555 233.578444 
L 377.568583 232.734739 
L 377.796199 227.102437 
L 377.862281 225.506239 
L 377.906336 224.594125 
L 377.957733 225.59745 
L 378.178007 237.979392 
L 378.288144 236.656827 
L 378.295487 236.67963 
L 378.339542 236.542813 
L 378.346884 236.565616 
L 378.390939 234.901009 
L 378.464364 235.813122 
L 378.677295 245.686752 
L 378.714008 246.986514 
L 378.765405 245.048272 
L 378.941624 238.731886 
L 378.993021 239.461577 
L 379.279378 248.696727 
L 379.308747 250.748982 
L 379.389515 249.107178 
L 379.411542 249.44922 
L 379.426227 248.309078 
L 379.609789 243.566088 
L 379.624474 244.06775 
L 379.896145 248.856346 
L 379.925515 247.374162 
L 379.954885 246.142809 
L 380.013624 247.784613 
L 380.050337 249.380812 
L 380.116419 247.716204 
L 380.182501 245.276301 
L 380.490885 228.105762 
L 380.578994 225.141393 
L 380.615707 226.509564 
L 380.711159 233.829275 
L 380.747871 228.242579 
L 380.799268 222.06301 
L 380.880036 224.685336 
L 380.916748 225.483436 
L 380.990173 224.799351 
L 381.026885 224.138068 
L 381.151707 221.150896 
L 381.159049 222.701489 
L 381.239816 235.744714 
L 381.320584 233.715261 
L 381.349953 233.008373 
L 381.401351 235.083431 
L 381.408693 234.901009 
L 381.540858 232.689133 
L 381.555543 233.30481 
L 381.805186 242.471551 
L 381.841899 240.715733 
L 381.885954 242.927608 
L 381.952036 245.321906 
L 381.988748 242.996017 
L 382.128255 222.06301 
L 382.392584 177.437853 
L 382.421954 179.649728 
L 382.64957 214.264439 
L 382.950611 251.61549 
L 382.957954 249.950883 
L 383.134173 223.453983 
L 383.170885 224.411702 
L 383.266337 226.806001 
L 383.27368 225.59745 
L 383.391159 199.944256 
L 383.493954 206.283445 
L 383.530666 207.537601 
L 383.604091 206.397459 
L 383.692201 203.547104 
L 383.706886 201.449243 
L 383.758283 208.290095 
L 383.919817 220.033557 
L 383.941844 219.668712 
L 383.971214 218.756598 
L 384.022612 220.3756 
L 384.051982 221.150896 
L 384.118064 219.623106 
L 384.125406 219.89674 
L 384.169461 218.756598 
L 384.206173 218.870612 
L 384.235543 218.779401 
L 384.264913 218.596978 
L 384.279598 218.870612 
L 384.28694 218.870612 
L 384.859653 248.012641 
L 384.866995 247.967036 
L 384.88168 248.40029 
L 384.984475 251.706701 
L 385.02853 249.084375 
L 385.219434 233.373218 
L 385.667324 166.834533 
L 385.696694 169.639282 
L 386.107872 201.677271 
L 386.232694 185.601269 
L 386.306119 170.756621 
L 386.372201 178.05353 
L 386.746667 217.570851 
L 386.761352 215.450186 
L 387.069736 172.010777 
L 387.31938 183.070154 
L 387.466229 185.190818 
L 387.532311 184.689156 
L 387.759928 181.58797 
L 387.88475 177.164219 
L 387.987544 178.281558 
L 388.068311 178.851629 
L 388.237188 181.040702 
L 388.281243 180.903885 
L 388.33264 178.965643 
L 388.780531 148.706275 
L 388.83927 151.670644 
L 389.008147 165.352348 
L 389.052202 164.554249 
L 389.074229 164.371826 
L 389.103599 165.055911 
L 389.316531 187.015046 
L 389.881901 206.693896 
L 389.889243 206.465868 
L 390.050778 191.849248 
L 390.131545 196.20459 
L 390.278394 199.625016 
L 390.432586 203.045442 
L 390.469298 201.1072 
L 390.62349 191.507205 
L 390.68223 192.715755 
L 390.770339 194.996039 
L 390.814394 193.399841 
L 390.880476 191.279177 
L 390.931874 193.103404 
L 390.990613 195.72573 
L 391.056696 193.924306 
L 391.254942 179.444503 
L 391.379764 180.561842 
L 391.563326 195.953759 
L 391.570668 195.908153 
L 391.600038 195.976561 
L 391.629408 196.478224 
L 391.66612 195.383688 
L 391.820312 180.060179 
L 391.974504 163.824558 
L 391.981846 163.870163 
L 392.003874 163.870163 
L 392.099326 173.173722 
L 392.583929 240.305282 
L 392.657353 239.347562 
L 392.870285 227.558494 
L 393.244751 190.207443 
L 393.398943 186.718609 
L 393.413628 186.832623 
L 393.457682 185.988918 
L 393.854176 177.027402 
L 393.883546 176.594148 
L 393.9276 177.278233 
L 393.971655 178.988446 
L 394.04508 178.076332 
L 394.111162 177.164219 
L 394.155217 178.007924 
L 394.470943 183.252577 
L 394.485628 183.298183 
L 394.58108 187.015046 
L 394.647162 188.269202 
L 394.698559 187.28868 
L 394.727929 187.471102 
L 394.771984 186.946637 
L 394.801354 186.901031 
L 395.073025 181.884407 
L 395.08771 181.815998 
L 395.109738 182.500083 
L 395.139108 183.320986 
L 395.212532 182.6369 
L 395.241902 181.952815 
L 395.285957 183.708634 
L 395.396094 186.17134 
L 395.418121 185.692481 
L 395.579656 184.005071 
L 395.638395 184.233099 
L 395.68245 185.145213 
L 395.697135 185.373241 
L 395.785245 185.145213 
L 395.888039 183.320986 
L 396.049573 179.649728 
L 396.137683 176.252105 
L 396.211108 177.278233 
L 396.225793 177.25543 
L 396.328587 176.069683 
L 396.269848 177.278233 
L 396.350615 176.867782 
L 396.3653 177.25543 
L 396.409354 174.975146 
L 396.526834 171.281086 
L 396.556204 172.535242 
L 396.688368 174.541892 
L 396.703053 174.35947 
L 396.725081 174.063033 
L 396.791163 174.861132 
L 396.820533 175.225977 
L 396.93067 179.946165 
L 396.967382 181.998421 
L 397.018779 179.490108 
L 397.128916 173.333342 
L 397.187656 174.291061 
L 397.283108 176.366119 
L 397.327163 175.271583 
L 397.356533 174.861132 
L 397.422615 175.613626 
L 397.789738 195.40649 
L 397.892533 194.882025 
L 397.9733 195.292476 
L 397.987985 195.110054 
L 398.222944 179.10246 
L 398.325738 180.78987 
L 398.487273 182.79652 
L 398.487273 182.79652 
" style="fill:none;stroke:#1f77b4;stroke-linecap:square;stroke-width:1.5;"/>
   </g>
   <g id="patch_3">
    <path d="M 57.6 306.3024 
L 57.6 41.2992 
" style="fill:none;stroke:#000000;stroke-linecap:square;stroke-linejoin:miter;stroke-width:0.8;"/>
   </g>
   <g id="patch_4">
    <path d="M 414.72 306.3024 
L 414.72 41.2992 
" style="fill:none;stroke:#000000;stroke-linecap:square;stroke-linejoin:miter;stroke-width:0.8;"/>
   </g>
   <g id="patch_5">
    <path d="M 57.6 306.3024 
L 414.72 306.3024 
" style="fill:none;stroke:#000000;stroke-linecap:square;stroke-linejoin:miter;stroke-width:0.8;"/>
   </g>
   <g id="patch_6">
    <path d="M 57.6 41.2992 
L 414.72 41.2992 
" style="fill:none;stroke:#000000;stroke-linecap:square;stroke-linejoin:miter;stroke-width:0.8;"/>
   </g>
   <g id="text_14">
    <!-- Ritmo Cardíaco -->
    <g transform="translate(190.094063 35.2992)scale(0.12 -0.12)">
     <use xlink:href="#DejaVuSans-82"/>
     <use x="69.482422" xlink:href="#DejaVuSans-105"/>
     <use x="97.265625" xlink:href="#DejaVuSans-116"/>
     <use x="136.474609" xlink:href="#DejaVuSans-109"/>
     <use x="233.886719" xlink:href="#DejaVuSans-111"/>
     <use x="295.068359" xlink:href="#DejaVuSans-32"/>
     <use x="326.855469" xlink:href="#DejaVuSans-67"/>
     <use x="396.679688" xlink:href="#DejaVuSans-97"/>
     <use x="457.958984" xlink:href="#DejaVuSans-114"/>
     <use x="499.056641" xlink:href="#DejaVuSans-100"/>
     <use x="562.533203" xlink:href="#DejaVuSans-237"/>
     <use x="590.316406" xlink:href="#DejaVuSans-97"/>
     <use x="651.595703" xlink:href="#DejaVuSans-99"/>
     <use x="706.576172" xlink:href="#DejaVuSans-111"/>
    </g>
   </g>
  </g>
 </g>
 <defs>
  <clipPath id="p3b59a430db">
   <rect height="265.0032" width="357.12" x="57.6" y="41.2992"/>
  </clipPath>
 </defs>
</svg>
